<svg id="Cohesion_severable" xmlns="http://www.w3.org/2000/svg" xmlns:xlink="http://www.w3.org/1999/xlink" viewBox="0 0 300 150"><defs><style>.cls-1,.cls-2,.cls-3{fill:none;}.cls-2,.cls-3{stroke:#1d1d1b;}.cls-2{stroke-linecap:square;stroke-width:0.3px;}.cls-3{stroke-linecap:round;stroke-width:0.75px;}.cls-4{fill:url(#Pattes_d_oiseaux);}</style><pattern id="Pattes_d_oiseaux" data-name="Pattes d’oiseaux" width="65.25" height="65.25" patternUnits="userSpaceOnUse" viewBox="0 0 65.25 65.25"><rect class="cls-1" width="65.25" height="65.25"/><line class="cls-2" x1="67.54" y1="61.59" x2="62.02" y2="65.89"/><line class="cls-2" x1="70" y1="64.75" x2="64.47" y2="69.05"/><line class="cls-2" x1="47.19" y1="62.53" x2="43.5" y2="68"/><line class="cls-2" x1="49.93" y1="65.44" x2="44.83" y2="70.23"/><line class="cls-2" x1="53.13" y1="64.47" x2="55.5" y2="70.25"/><line class="cls-2" x1="56.25" y1="63.25" x2="59" y2="70"/><line class="cls-2" x1="28" y1="63.75" x2="22.31" y2="68.13"/><line class="cls-2" x1="32" y1="64.75" x2="25.3" y2="70.79"/><line class="cls-2" x1="9.25" y1="64.5" x2="9" y2="66"/><line class="cls-2" x1="14.22" y1="62.67" x2="18.5" y2="68.5"/><line class="cls-2" x1="17.05" y1="59.84" x2="21.33" y2="65.67"/><line class="cls-2" x1="38.75" y1="62.75" x2="39.25" y2="69.25"/><line class="cls-2" x1="36" y1="62" x2="34.5" y2="68.75"/><line class="cls-2" x1="2.29" y1="61.59" x2="-3.23" y2="65.89"/><line class="cls-2" x1="4.75" y1="64.75" x2="-0.78" y2="69.05"/><line class="cls-2" x1="22.49" y1="23.04" x2="19.25" y2="29.25"/><line class="cls-2" x1="36.42" y1="43.45" x2="44" y2="45.5"/><line class="cls-2" x1="37.5" y1="40.5" x2="45.25" y2="41.75"/><line class="cls-2" x1="30" y1="60.75" x2="32.75" y2="55.5"/><line class="cls-2" x1="26.5" y1="60.25" x2="29.52" y2="54.46"/><line class="cls-2" x1="46" y1="55.5" x2="41.25" y2="59"/><line class="cls-2" x1="47.25" y1="58" x2="43.5" y2="62"/><line class="cls-2" x1="49.88" y1="46.3" x2="50.78" y2="53.25"/><line class="cls-2" x1="45.98" y1="47.21" x2="47.53" y2="53.75"/><line class="cls-2" x1="14.22" y1="62.67" x2="18.5" y2="68.5"/><line class="cls-2" x1="17.05" y1="59.84" x2="21.33" y2="65.67"/><line class="cls-2" x1="20.53" y1="48.64" x2="23.96" y2="54.74"/><line class="cls-2" x1="24.23" y1="47.13" x2="26.87" y2="53.61"/><line class="cls-2" x1="33" y1="44.5" x2="27.75" y2="47.5"/><line class="cls-2" x1="35.5" y1="47.75" x2="29.75" y2="49.75"/><line class="cls-2" x1="47.19" y1="62.53" x2="43.5" y2="68"/><line class="cls-2" x1="49.93" y1="65.44" x2="44.83" y2="70.23"/><line class="cls-2" x1="53.13" y1="64.47" x2="55.5" y2="70.25"/><line class="cls-2" x1="28" y1="63.75" x2="22.31" y2="68.13"/><line class="cls-2" x1="32" y1="64.75" x2="25.3" y2="70.79"/><line class="cls-2" x1="21.5" y1="58.25" x2="22" y2="59.5"/><line class="cls-2" x1="37.75" y1="60.25" x2="38.75" y2="61.25"/><line class="cls-2" x1="38.75" y1="62.75" x2="39.25" y2="69.25"/><line class="cls-2" x1="36" y1="62" x2="34.5" y2="68.75"/><line class="cls-2" x1="53.28" y1="50" x2="54.53" y2="49.5"/><line class="cls-2" x1="32.5" y1="50.5" x2="32.75" y2="52"/><line class="cls-2" x1="50.5" y1="62" x2="51.75" y2="62"/><line class="cls-2" x1="33.75" y1="60" x2="32.75" y2="61.75"/><line class="cls-2" x1="38" y1="47.25" x2="39.25" y2="46.75"/><line class="cls-2" x1="40.24" y1="55.47" x2="35.81" y2="52.75"/><line class="cls-2" x1="42.97" y1="53.07" x2="36.62" y2="50.14"/><line class="cls-2" x1="35.5" y1="55.75" x2="36.75" y2="56"/><line class="cls-2" x1="42.28" y1="49" x2="43.53" y2="49.25"/><line class="cls-2" x1="18.62" y1="54.25" x2="20.25" y2="53.75"/><line class="cls-2" x1="26.99" y1="8.45" x2="27.12" y2="15.45"/><line class="cls-2" x1="30.99" y1="8.38" x2="30.25" y2="15"/><line class="cls-2" x1="43.64" y1="27.73" x2="50.12" y2="30.38"/><line class="cls-2" x1="45.15" y1="24.03" x2="51.63" y2="26.67"/><line class="cls-2" x1="27.12" y1="23.58" x2="31.89" y2="19.94"/><line class="cls-2" x1="24.09" y1="21.57" x2="30" y2="17.82"/><line class="cls-2" x1="18.5" y1="41.38" x2="11.72" y2="43.13"/><line class="cls-2" x1="19.25" y1="45" x2="12.47" y2="46.76"/><line class="cls-2" x1="19.69" y1="21.19" x2="16.45" y2="27.4"/><line class="cls-2" x1="8.74" y1="9.89" x2="10.07" y2="16.76"/><line class="cls-2" x1="12.66" y1="9.13" x2="14" y2="16"/><line class="cls-2" x1="0.57" y1="6.97" x2="6.75" y2="10.25"/><line class="cls-2" x1="3.5" y1="16.5" x2="2.32" y2="22.49"/><line class="cls-2" x1="7.57" y1="16.38" x2="6.25" y2="23.25"/><line class="cls-2" x1="56.37" y1="44.2" x2="58.78" y2="51.75"/><line class="cls-2" x1="60.53" y1="44.25" x2="61.28" y2="50.75"/><line class="cls-2" x1="53.03" y1="36.46" x2="49.02" y2="42.2"/><line class="cls-2" x1="55.77" y1="37.79" x2="54.03" y2="43.25"/><line class="cls-2" x1="26.95" y1="27.8" x2="27.75" y2="34.75"/><line class="cls-2" x1="29.93" y1="26.99" x2="31.63" y2="33.78"/><line class="cls-2" x1="52.81" y1="4.88" x2="46.46" y2="7.84"/><line class="cls-2" x1="54.25" y1="7.75" x2="48.16" y2="11.46"/><line class="cls-2" x1="17.65" y1="12.48" x2="19.25" y2="19"/><line class="cls-2" x1="19.73" y1="10.2" x2="22.83" y2="16.48"/><line class="cls-2" x1="37.5" y1="14.25" x2="34" y2="20.5"/><line class="cls-2" x1="40.13" y1="15.42" x2="36.19" y2="21.2"/><line class="cls-2" x1="50" y1="15.75" x2="43.75" y2="18.25"/><line class="cls-2" x1="50.5" y1="20.25" x2="44.25" y2="20.5"/><line class="cls-2" x1="56.22" y1="17.42" x2="54.53" y2="23.75"/><line class="cls-2" x1="58.95" y1="19.91" x2="55.47" y2="25.98"/><line class="cls-2" x1="57.14" y1="53.16" x2="50.8" y2="56.13"/><line class="cls-2" x1="58.84" y1="56.78" x2="52.5" y2="59.75"/><line class="cls-2" x1="47.25" y1="37" x2="43" y2="32.25"/><line class="cls-2" x1="44.5" y1="37.75" x2="39.68" y2="33.34"/><line class="cls-2" x1="30.53" y1="39.25" x2="34.5" y2="34.25"/><line class="cls-2" x1="32.93" y1="42.45" x2="37.25" y2="36.5"/><line class="cls-2" x1="22.43" y1="31.52" x2="15.47" y2="30.78"/><line class="cls-2" x1="21.5" y1="34.75" x2="14.66" y2="33.28"/><line class="cls-2" x1="6.75" y1="36.75" x2="12.35" y2="40.95"/><line class="cls-2" x1="9.15" y1="33.55" x2="14.75" y2="37.75"/><line class="cls-2" x1="13.99" y1="49.49" x2="13.42" y2="56.47"/><line class="cls-2" x1="17.75" y1="50" x2="16.81" y2="57.42"/><line class="cls-2" x1="20.17" y1="40.33" x2="25.12" y2="45.28"/><line class="cls-2" x1="23" y1="37.5" x2="27.95" y2="42.45"/><line class="cls-2" x1="8.5" y1="46.25" x2="3.93" y2="50.46"/><line class="cls-2" x1="10.78" y1="48.7" x2="5.25" y2="53"/><line class="cls-2" x1="56.12" y1="14.59" x2="63.1" y2="13.99"/><line class="cls-2" x1="56.25" y1="11.25" x2="62.75" y2="10"/><line class="cls-2" x1="36.25" y1="23.25" x2="37" y2="30.25"/><line class="cls-2" x1="40.25" y1="23.25" x2="39.75" y2="28.75"/><line class="cls-2" x1="11.96" y1="1.11" x2="9.1" y2="6.08"/><line class="cls-2" x1="6.46" y1="32.23" x2="12.21" y2="28.24"/><line class="cls-2" x1="4.18" y1="28.94" x2="9.94" y2="24.95"/><line class="cls-2" x1="4.14" y1="58.23" x2="8.5" y2="62.5"/><line class="cls-2" x1="6.57" y1="56.56" x2="10.5" y2="60"/><line class="cls-2" x1="60.75" y1="22.25" x2="65.07" y2="27.76"/><line class="cls-2" x1="63.4" y1="20.03" x2="67.72" y2="25.54"/><line class="cls-2" x1="58.5" y1="28.63" x2="51.72" y2="30.38"/><line class="cls-2" x1="59.5" y1="32.5" x2="52.72" y2="34.26"/><line class="cls-2" x1="15.75" y1="19.5" x2="8.84" y2="19.07"/><line class="cls-2" x1="16.25" y1="22.25" x2="9.29" y2="23.04"/><line class="cls-2" x1="60.26" y1="55.7" x2="64.19" y2="61.5"/><line class="cls-2" x1="63.57" y1="53.46" x2="67.5" y2="59.25"/><line class="cls-2" x1="63.75" y1="30.75" x2="60.04" y2="35.09"/><line class="cls-2" x1="67.13" y1="31.26" x2="63.44" y2="37.2"/><line class="cls-2" x1="67.54" y1="61.59" x2="62.02" y2="65.89"/><line class="cls-2" x1="56.25" y1="63.25" x2="59" y2="70"/><line class="cls-2" x1="63.94" y1="10.5" x2="70.12" y2="13.78"/><line class="cls-2" x1="16.58" y1="9.47" x2="21" y2="6.75"/><line class="cls-2" x1="13.84" y1="7.07" x2="20.2" y2="4.14"/><line class="cls-2" x1="36.12" y1="8.13" x2="40.87" y2="12.88"/><line class="cls-2" x1="39.27" y1="5.66" x2="43.59" y2="11.17"/><line class="cls-2" x1="67.73" y1="39.48" x2="62.5" y2="42"/><line class="cls-2" x1="70.56" y1="42.08" x2="64.45" y2="45.49"/><line class="cls-2" x1="30" y1="3.75" x2="31.25" y2="4"/><line class="cls-2" x1="29.25" y1="6.75" x2="29" y2="6"/><line class="cls-2" x1="34" y1="12.25" x2="34.75" y2="11.75"/><line class="cls-2" x1="45" y1="10" x2="46.25" y2="10"/><line class="cls-2" x1="51.75" y1="14.5" x2="52.5" y2="15.25"/><line class="cls-2" x1="60.75" y1="18" x2="61.5" y2="17.25"/><line class="cls-2" x1="62.25" y1="5.75" x2="61.75" y2="6.75"/><line class="cls-2" x1="6" y1="13.5" x2="6.75" y2="14"/><line class="cls-2" x1="12.25" y1="30.75" x2="12.25" y2="31.5"/><line class="cls-2" x1="5.5" y1="34.75" x2="4" y2="34.75"/><line class="cls-2" x1="9.75" y1="54.5" x2="10.25" y2="53.25"/><line class="cls-2" x1="18.25" y1="37.75" x2="17.5" y2="36.75"/><line class="cls-2" x1="49.25" y1="34.25" x2="50" y2="33.5"/><line class="cls-2" x1="39.28" y1="37" x2="39.78" y2="38"/><line class="cls-2" x1="25.5" y1="18.75" x2="26.25" y2="18"/><line class="cls-2" x1="23.25" y1="27.75" x2="24.5" y2="28.5"/><line class="cls-2" x1="9.25" y1="64.5" x2="9" y2="66"/><line class="cls-2" x1="38.25" y1="33.75" x2="37.75" y2="32.5"/><line class="cls-2" x1="67.54" y1="-3.66" x2="62.02" y2="0.64"/><line class="cls-2" x1="70" y1="-0.5" x2="64.47" y2="3.8"/><line class="cls-2" x1="47.19" y1="-2.72" x2="43.5" y2="2.75"/><line class="cls-2" x1="49.93" y1="0.19" x2="44.83" y2="4.98"/><line class="cls-2" x1="53.13" y1="-0.78" x2="55.5" y2="5"/><line class="cls-2" x1="56.25" y1="-2" x2="59" y2="4.75"/><line class="cls-2" x1="28" y1="-1.5" x2="22.31" y2="2.88"/><line class="cls-2" x1="32" y1="-0.5" x2="25.3" y2="5.54"/><line class="cls-2" x1="9.25" y1="-0.75" x2="9" y2="0.75"/><line class="cls-2" x1="14.22" y1="-2.58" x2="18.5" y2="3.25"/><line class="cls-2" x1="17.05" y1="-5.41" x2="21.33" y2="0.42"/><line class="cls-2" x1="58.53" y1="59.5" x2="59.03" y2="60.75"/><line class="cls-2" x1="38.75" y1="-2.5" x2="39.25" y2="4"/><line class="cls-2" x1="36" y1="-3.25" x2="34.5" y2="3.5"/><line class="cls-2" x1="45.75" y1="13.75" x2="46.5" y2="14.5"/><line class="cls-2" x1="32.75" y1="25.5" x2="34" y2="25.75"/><line class="cls-2" x1="63.5" y1="51" x2="64.25" y2="50.25"/><line class="cls-2" x1="8.25" y1="1.75" x2="4.85" y2="6.08"/><line class="cls-2" x1="61.5" y1="38.25" x2="62.75" y2="38.5"/><line class="cls-2" x1="23.25" y1="10" x2="24.25" y2="10.75"/><line class="cls-2" x1="36.25" y1="4.5" x2="36.5" y2="5.75"/><line class="cls-2" x1="11" y1="8.5" x2="11.5" y2="7"/><line class="cls-3" x1="3.25" y1="3.75" x2="3.25" y2="3.75"/><line class="cls-3" x1="6.25" y1="7" x2="6.25" y2="7"/><line class="cls-3" x1="13" y1="1.5" x2="13" y2="1.5"/><line class="cls-3" x1="23.25" y1="8.5" x2="23.25" y2="8.5"/><line class="cls-3" x1="17" y1="15.25" x2="17" y2="15.25"/><line class="cls-3" x1="14.5" y1="25" x2="14.5" y2="25"/><line class="cls-3" x1="3.75" y1="24" x2="3.75" y2="24"/><line class="cls-3" x1="20.5" y1="36" x2="20.5" y2="36"/><line class="cls-3" x1="25.75" y1="31.75" x2="25.75" y2="31.75"/><line class="cls-3" x1="33.5" y1="23.25" x2="33.5" y2="23.25"/><line class="cls-3" x1="28" y1="40.25" x2="28" y2="40.25"/><line class="cls-3" x1="32.75" y1="43" x2="32.75" y2="43"/><line class="cls-3" x1="18.75" y1="47.25" x2="18.75" y2="47.25"/><line class="cls-3" x1="42" y1="24.75" x2="42" y2="24.75"/><line class="cls-3" x1="41.75" y1="16.25" x2="41.75" y2="16.25"/><line class="cls-3" x1="58.25" y1="7.5" x2="58.25" y2="7.5"/><line class="cls-3" x1="50.25" y1="4" x2="50.25" y2="4"/><line class="cls-3" x1="61" y1="27.25" x2="61" y2="27.25"/><line class="cls-3" x1="59.5" y1="38.25" x2="59.5" y2="38.25"/><line class="cls-3" x1="54" y1="45" x2="54" y2="45"/><line class="cls-3" x1="57.5" y1="55" x2="57.5" y2="55"/><line class="cls-3" x1="50" y1="59.75" x2="50" y2="59.75"/><line class="cls-3" x1="28.5" y1="61" x2="28.5" y2="61"/><line class="cls-3" x1="39.5" y1="63.5" x2="39.5" y2="63.5"/><line class="cls-3" x1="25.25" y1="15.75" x2="25.25" y2="15.75"/><line class="cls-3" x1="10.75" y1="62.75" x2="10.75" y2="62.75"/><line class="cls-3" x1="0.75" y1="51.5" x2="0.75" y2="51.5"/><line class="cls-3" x1="3.75" y1="44.25" x2="3.75" y2="44.25"/><line class="cls-3" x1="9" y1="40.5" x2="9" y2="40.5"/><line class="cls-3" x1="9.75" y1="44.25" x2="9.75" y2="44.25"/><line class="cls-3" x1="50.75" y1="22.5" x2="50.75" y2="22.5"/><line class="cls-3" x1="48" y1="32.25" x2="48" y2="32.25"/><line class="cls-3" x1="46.25" y1="40.5" x2="46.25" y2="40.5"/><line class="cls-3" x1="27.75" y1="24.75" x2="27.75" y2="24.75"/><line class="cls-3" x1="24.25" y1="55.5" x2="24.25" y2="55.5"/><line class="cls-3" x1="24.25" y1="63.5" x2="24.25" y2="63.5"/><line class="cls-3" x1="18.87" y1="59.5" x2="18.87" y2="59.5"/><line class="cls-3" x1="26.62" y1="37" x2="26.62" y2="37"/><line class="cls-3" x1="61" y1="62" x2="61" y2="62"/><line class="cls-3" x1="4.5" y1="56" x2="4.5" y2="56"/><line class="cls-3" x1="33.75" y1="29.75" x2="33.75" y2="29.75"/><line class="cls-3" x1="33.25" y1="14.75" x2="33.25" y2="14.75"/><line class="cls-3" x1="34.5" y1="8" x2="34.5" y2="8"/><line class="cls-3" x1="49.75" y1="55.75" x2="49.75" y2="55.75"/><line class="cls-3" x1="49" y1="44.75" x2="49" y2="44.75"/><line class="cls-3" x1="62.75" y1="47.25" x2="62.75" y2="47.25"/><line class="cls-3" x1="52.25" y1="17.5" x2="52.25" y2="17.5"/><line class="cls-3" x1="53" y1="19.25" x2="53" y2="19.25"/><line class="cls-3" x1="53.25" y1="10.5" x2="53.25" y2="10.5"/><line class="cls-3" x1="40" y1="19.75" x2="40" y2="19.75"/><line class="cls-3" x1="49" y1="27.25" x2="49" y2="27.25"/><line class="cls-3" x1="59.5" y1="24" x2="59.5" y2="24"/><line class="cls-3" x1="61" y1="31.25" x2="61" y2="31.25"/><line class="cls-3" x1="1" y1="16.25" x2="1" y2="16.25"/><line class="cls-2" x1="-4.5" y1="22.25" x2="-0.18" y2="27.76"/><line class="cls-2" x1="-1.85" y1="20.03" x2="2.47" y2="25.54"/><line class="cls-2" x1="-1.68" y1="53.46" x2="2.25" y2="59.25"/><line class="cls-2" x1="1.88" y1="31.26" x2="-1.81" y2="37.2"/><line class="cls-2" x1="2.29" y1="61.59" x2="-3.23" y2="65.89"/><line class="cls-2" x1="-1.31" y1="10.5" x2="4.88" y2="13.78"/><line class="cls-2" x1="2.48" y1="39.48" x2="-2.75" y2="42"/><line class="cls-2" x1="5.31" y1="42.08" x2="-0.8" y2="45.49"/><line class="cls-2" x1="2.29" y1="-3.66" x2="-3.23" y2="0.64"/><line class="cls-2" x1="4.75" y1="-0.5" x2="-0.78" y2="3.8"/><line class="cls-2" x1="14.22" y1="-2.58" x2="18.5" y2="3.25"/><line class="cls-2" x1="17.05" y1="-5.41" x2="21.33" y2="0.42"/><line class="cls-2" x1="47.19" y1="-2.72" x2="43.5" y2="2.75"/><line class="cls-2" x1="49.93" y1="0.19" x2="44.83" y2="4.98"/><line class="cls-2" x1="53.13" y1="-0.78" x2="55.5" y2="5"/><line class="cls-2" x1="28" y1="-1.5" x2="22.31" y2="2.88"/><line class="cls-2" x1="32" y1="-0.5" x2="25.3" y2="5.54"/><line class="cls-2" x1="38.75" y1="-2.5" x2="39.25" y2="4"/><line class="cls-2" x1="36" y1="-3.25" x2="34.5" y2="3.5"/><line class="cls-2" x1="67.54" y1="-3.66" x2="62.02" y2="0.64"/><line class="cls-2" x1="56.25" y1="-2" x2="59" y2="4.75"/><line class="cls-2" x1="9.25" y1="-0.75" x2="9" y2="0.75"/><line class="cls-2" x1="2.29" y1="-3.66" x2="-3.23" y2="0.64"/></pattern></defs><title>CP_CohesionSeverable</title><rect class="cls-4" x="-0.05" y="1.5" width="300.98" height="150"/></svg>