<svg id="Cohesion_Powdery" xmlns="http://www.w3.org/2000/svg" xmlns:xlink="http://www.w3.org/1999/xlink" viewBox="0 0 650 100"><defs><style>.cls-1{fill:none;}.cls-2{fill:#1d1d1b;}.cls-3{fill:url(#Plage_de_gravier_USGS_22);}</style><pattern id="Plage_de_gravier_USGS_22" data-name="Plage de gravier USGS 22" width="72" height="72" patternUnits="userSpaceOnUse" viewBox="0 0 72 72"><rect class="cls-1" width="72" height="72"/><path class="cls-2" d="M21,3.1A0.39,0.39,0,0,1,20.75,3a0.36,0.36,0,0,1,0-.5,0.36,0.36,0,0,1,.6.25,0.39,0.39,0,0,1-.1.25A0.39,0.39,0,0,1,21,3.1Z"/><path class="cls-2" d="M20,8.35a0.39,0.39,0,0,1-.25-0.1A0.4,0.4,0,0,1,19.65,8a0.33,0.33,0,0,1,.11-0.25,0.36,0.36,0,0,1,.49,0,0.35,0.35,0,0,1,.1.25,0.39,0.39,0,0,1-.1.25A0.37,0.37,0,0,1,20,8.35Z"/><path class="cls-2" d="M20.25,10.6A0.39,0.39,0,0,1,20,10.5a0.36,0.36,0,0,1,0-.5,0.37,0.37,0,0,1,.5,0,0.36,0.36,0,0,1,0,.5A0.39,0.39,0,0,1,20.25,10.6Z"/><path class="cls-2" d="M15.25,10.6A0.39,0.39,0,0,1,15,10.5a0.4,0.4,0,0,1-.1-0.25A0.35,0.35,0,0,1,15.5,10a0.36,0.36,0,0,1,0,.5A0.39,0.39,0,0,1,15.25,10.6Z"/><path class="cls-2" d="M22.75,20.1A0.39,0.39,0,0,1,22.5,20a0.36,0.36,0,0,1,0-.5,0.36,0.36,0,0,1,.6.25A0.39,0.39,0,0,1,23,20,0.39,0.39,0,0,1,22.75,20.1Z"/><path class="cls-2" d="M15.25,23.1A0.39,0.39,0,0,1,15,23a0.4,0.4,0,0,1-.1-0.25A0.33,0.33,0,0,1,15,22.5a0.36,0.36,0,0,1,.49,0,0.35,0.35,0,0,1,.1.25,0.39,0.39,0,0,1-.1.25A0.39,0.39,0,0,1,15.25,23.1Z"/><path class="cls-2" d="M14,24.1a0.39,0.39,0,0,1-.25-0.1,0.36,0.36,0,0,1,0-.5,0.36,0.36,0,0,1,.6.25,0.39,0.39,0,0,1-.1.25A0.37,0.37,0,0,1,14,24.1Z"/><path class="cls-2" d="M24,27.1a0.39,0.39,0,0,1-.25-0.1,0.4,0.4,0,0,1-.1-0.25,0.33,0.33,0,0,1,.11-0.25,0.36,0.36,0,0,1,.49,0,0.39,0.39,0,0,1,.1.25,0.35,0.35,0,0,1-.1.24A0.35,0.35,0,0,1,24,27.1Z"/><path class="cls-2" d="M30.75,25.85a0.39,0.39,0,0,1-.25-0.1,0.36,0.36,0,0,1,0-.5,0.36,0.36,0,0,1,.6.25,0.39,0.39,0,0,1-.1.25A0.39,0.39,0,0,1,30.75,25.85Z"/><path class="cls-2" d="M31.25,23.35a0.39,0.39,0,0,1-.25-0.1A0.4,0.4,0,0,1,30.9,23,0.33,0.33,0,0,1,31,22.75a0.35,0.35,0,0,1,.59.25,0.39,0.39,0,0,1-.1.25A0.37,0.37,0,0,1,31.25,23.35Z"/><path class="cls-2" d="M29.25,18.35a0.39,0.39,0,0,1-.25-0.1,0.36,0.36,0,0,1,0-.5,0.36,0.36,0,0,1,.6.25,0.39,0.39,0,0,1-.1.25A0.39,0.39,0,0,1,29.25,18.35Z"/><path class="cls-2" d="M34,19.85a0.39,0.39,0,0,1-.25-0.1,0.36,0.36,0,0,1,0-.5,0.36,0.36,0,0,1,.6.25,0.39,0.39,0,0,1-.1.25A0.39,0.39,0,0,1,34,19.85Z"/><path class="cls-2" d="M31.5,14.85a0.39,0.39,0,0,1-.25-0.1,0.36,0.36,0,0,1,0-.5,0.36,0.36,0,0,1,.6.25,0.39,0.39,0,0,1-.1.25A0.39,0.39,0,0,1,31.5,14.85Z"/><path class="cls-2" d="M31.75,11.85a0.39,0.39,0,0,1-.25-0.1,0.36,0.36,0,0,1,0-.5,0.37,0.37,0,0,1,.5,0,0.36,0.36,0,0,1,0,.5A0.39,0.39,0,0,1,31.75,11.85Z"/><path class="cls-2" d="M32.25,7.1A0.39,0.39,0,0,1,32,7a0.36,0.36,0,0,1,0-.5,0.36,0.36,0,0,1,.6.25,0.39,0.39,0,0,1-.1.25A0.39,0.39,0,0,1,32.25,7.1Z"/><path class="cls-2" d="M32,3.1A0.39,0.39,0,0,1,31.75,3a0.4,0.4,0,0,1-.1-0.25,0.33,0.33,0,0,1,.11-0.25,0.35,0.35,0,0,1,.59.25,0.39,0.39,0,0,1-.1.25A0.39,0.39,0,0,1,32,3.1Z"/><path class="cls-2" d="M34,1.35a0.36,0.36,0,0,1-.25-0.11A0.33,0.33,0,0,1,33.65,1,0.33,0.33,0,0,1,33.76.75a0.35,0.35,0,0,1,.59.25,0.34,0.34,0,0,1-.11.25A0.34,0.34,0,0,1,34,1.35Z"/><path class="cls-2" d="M41.5,7.1A0.39,0.39,0,0,1,41.25,7a0.35,0.35,0,0,1-.1-0.25,0.4,0.4,0,0,1,.1-0.25,0.35,0.35,0,0,1,.49,0,0.36,0.36,0,0,1,.11.25,0.39,0.39,0,0,1-.1.25A0.39,0.39,0,0,1,41.5,7.1Z"/><path class="cls-2" d="M45.5,6.85a0.39,0.39,0,0,1-.25-0.1,0.36,0.36,0,0,1,0-.5,0.36,0.36,0,0,1,.6.25,0.39,0.39,0,0,1-.1.25A0.39,0.39,0,0,1,45.5,6.85Z"/><path class="cls-2" d="M42.5,13.6a0.39,0.39,0,0,1-.25-0.1,0.4,0.4,0,0,1-.1-0.25A0.33,0.33,0,0,1,42.26,13a0.35,0.35,0,0,1,.59.25,0.39,0.39,0,0,1-.1.25A0.39,0.39,0,0,1,42.5,13.6Z"/><path class="cls-2" d="M47,14.35a0.39,0.39,0,0,1-.25-0.1,0.4,0.4,0,0,1-.1-0.25,0.33,0.33,0,0,1,.11-0.25,0.35,0.35,0,0,1,.49,0,0.39,0.39,0,0,1,.1.25,0.33,0.33,0,0,1-.1.24A0.35,0.35,0,0,1,47,14.35Z"/><path class="cls-2" d="M47,16.35a0.39,0.39,0,0,1-.25-0.1,0.4,0.4,0,0,1-.1-0.25,0.33,0.33,0,0,1,.11-0.25,0.35,0.35,0,0,1,.49,0,0.39,0.39,0,0,1,.1.25,0.37,0.37,0,0,1-.1.24A0.35,0.35,0,0,1,47,16.35Z"/><path class="cls-2" d="M39,20.85a0.39,0.39,0,0,1-.25-0.1,0.36,0.36,0,0,1,0-.5,0.35,0.35,0,0,1,.49,0,0.34,0.34,0,0,1,.11.25,0.39,0.39,0,0,1-.1.25A0.39,0.39,0,0,1,39,20.85Z"/><path class="cls-2" d="M50.25,13.6A0.39,0.39,0,0,1,50,13.5a0.36,0.36,0,0,1,0-.5,0.37,0.37,0,0,1,.5,0,0.36,0.36,0,0,1,0,.5A0.39,0.39,0,0,1,50.25,13.6Z"/><path class="cls-2" d="M52.25,12.1A0.36,0.36,0,0,1,52,12a0.35,0.35,0,0,1-.1-0.24A0.33,0.33,0,0,1,52,11.5a0.36,0.36,0,0,1,.49,0,0.35,0.35,0,0,1,.1.25,0.39,0.39,0,0,1-.1.25A0.39,0.39,0,0,1,52.25,12.1Z"/><path class="cls-2" d="M54.75,11.1A0.36,0.36,0,0,1,54.5,11a0.35,0.35,0,0,1-.1-0.24,0.33,0.33,0,0,1,.11-0.25,0.35,0.35,0,0,1,.59.25A0.39,0.39,0,0,1,55,11,0.39,0.39,0,0,1,54.75,11.1Z"/><path class="cls-2" d="M56.5,0.85a0.39,0.39,0,0,1-.25-0.1A0.4,0.4,0,0,1,56.15.5a0.4,0.4,0,0,1,.1-0.25,0.36,0.36,0,0,1,.5,0,0.35,0.35,0,0,1,.1.24,0.39,0.39,0,0,1-.1.25A0.39,0.39,0,0,1,56.5.85Z"/><path class="cls-2" d="M68,3.1A0.39,0.39,0,0,1,67.75,3a0.4,0.4,0,0,1-.1-0.25,0.33,0.33,0,0,1,.11-0.25,0.36,0.36,0,0,1,.49,0,0.35,0.35,0,0,1,.1.25,0.39,0.39,0,0,1-.1.25A0.37,0.37,0,0,1,68,3.1Z"/><path class="cls-2" d="M68,10.35a0.36,0.36,0,0,1-.25-0.11,0.35,0.35,0,0,1-.1-0.24,0.4,0.4,0,0,1,.1-0.25,0.37,0.37,0,0,1,.5,0,0.39,0.39,0,0,1,.1.25,0.34,0.34,0,0,1-.11.25A0.34,0.34,0,0,1,68,10.35Z"/><path class="cls-2" d="M64.25,12.35a0.39,0.39,0,0,1-.25-0.1,0.36,0.36,0,0,1,0-.5,0.36,0.36,0,0,1,.6.25,0.39,0.39,0,0,1-.1.25A0.39,0.39,0,0,1,64.25,12.35Z"/><path class="cls-2" d="M65.25,15.85a0.39,0.39,0,0,1-.25-0.1,0.4,0.4,0,0,1-.1-0.25,0.35,0.35,0,0,1,.6-0.25,0.36,0.36,0,0,1,0,.5A0.39,0.39,0,0,1,65.25,15.85Z"/><path class="cls-2" d="M64,19.85a0.36,0.36,0,0,1-.25-0.11,0.35,0.35,0,0,1-.1-0.24,0.4,0.4,0,0,1,.1-0.25,0.37,0.37,0,0,1,.5,0,0.39,0.39,0,0,1,.1.25,0.34,0.34,0,0,1-.11.25A0.34,0.34,0,0,1,64,19.85Z"/><path class="cls-2" d="M66.25,19.85a0.39,0.39,0,0,1-.25-0.1,0.4,0.4,0,0,1-.1-0.25A0.33,0.33,0,0,1,66,19.25a0.36,0.36,0,0,1,.49,0,0.35,0.35,0,0,1,.1.25,0.39,0.39,0,0,1-.1.25A0.39,0.39,0,0,1,66.25,19.85Z"/><path class="cls-2" d="M68,21.35a0.39,0.39,0,0,1-.25-0.1,0.36,0.36,0,0,1,0-.5,0.37,0.37,0,0,1,.5,0,0.36,0.36,0,0,1,0,.5A0.39,0.39,0,0,1,68,21.35Z"/><path class="cls-2" d="M7,52.35a0.39,0.39,0,0,1-.25-0.1,0.36,0.36,0,0,1,0-.5,0.38,0.38,0,0,1,.5,0,0.36,0.36,0,0,1,0,.5A0.39,0.39,0,0,1,7,52.35Z"/><path class="cls-2" d="M7.25,54.6A0.39,0.39,0,0,1,7,54.5,0.36,0.36,0,0,1,7,54a0.37,0.37,0,0,1,.5,0,0.36,0.36,0,0,1,0,.5A0.39,0.39,0,0,1,7.25,54.6Z"/><path class="cls-2" d="M2.25,54.6A0.39,0.39,0,0,1,2,54.5,0.36,0.36,0,0,1,2,54a0.38,0.38,0,0,1,.5,0,0.36,0.36,0,0,1,0,.5A0.39,0.39,0,0,1,2.25,54.6Z"/><path class="cls-2" d="M9.75,64.1A0.39,0.39,0,0,1,9.5,64a0.36,0.36,0,0,1,0-.5,0.36,0.36,0,0,1,.6.25A0.39,0.39,0,0,1,10,64,0.39,0.39,0,0,1,9.75,64.1Z"/><path class="cls-2" d="M1,68.1A0.39,0.39,0,0,1,.75,68a0.36,0.36,0,0,1,0-.5,0.38,0.38,0,0,1,.5,0,0.36,0.36,0,0,1,0,.5A0.39,0.39,0,0,1,1,68.1Z"/><path class="cls-2" d="M11,71.1a0.39,0.39,0,0,1-.25-0.1,0.36,0.36,0,0,1,0-.5,0.38,0.38,0,0,1,.5,0,0.36,0.36,0,0,1,0,.5A0.39,0.39,0,0,1,11,71.1Z"/><path class="cls-2" d="M18.25,67.35a0.39,0.39,0,0,1-.25-0.1A0.4,0.4,0,0,1,17.9,67a0.38,0.38,0,0,1,.1-0.25,0.37,0.37,0,0,1,.49,0,0.36,0.36,0,0,1,.11.25,0.39,0.39,0,0,1-.1.25A0.39,0.39,0,0,1,18.25,67.35Z"/><path class="cls-2" d="M16.25,62.35a0.39,0.39,0,0,1-.25-0.1,0.36,0.36,0,0,1,0-.5,0.37,0.37,0,0,1,.5,0,0.36,0.36,0,0,1,0,.5A0.39,0.39,0,0,1,16.25,62.35Z"/><path class="cls-2" d="M19.5,57.85a0.39,0.39,0,0,1-.25-0.1,0.4,0.4,0,0,1-.1-0.25,0.33,0.33,0,0,1,.11-0.25,0.36,0.36,0,0,1,.49,0,0.35,0.35,0,0,1,.1.25,0.39,0.39,0,0,1-.1.25A0.39,0.39,0,0,1,19.5,57.85Z"/><path class="cls-2" d="M18.75,55.85a0.39,0.39,0,0,1-.25-0.1,0.4,0.4,0,0,1-.1-0.25,0.33,0.33,0,0,1,.11-0.25,0.36,0.36,0,0,1,.49,0,0.35,0.35,0,0,1,.1.25,0.39,0.39,0,0,1-.1.25A0.39,0.39,0,0,1,18.75,55.85Z"/><path class="cls-2" d="M16.25,54.85a0.39,0.39,0,0,1-.25-0.1,0.4,0.4,0,0,1-.1-0.25A0.33,0.33,0,0,1,16,54.25a0.36,0.36,0,0,1,.49,0,0.35,0.35,0,0,1,.1.25,0.39,0.39,0,0,1-.1.25A0.39,0.39,0,0,1,16.25,54.85Z"/><path class="cls-2" d="M19.25,51.1A0.39,0.39,0,0,1,19,51a0.4,0.4,0,0,1-.1-0.25A0.33,0.33,0,0,1,19,50.5a0.36,0.36,0,0,1,.49,0,0.35,0.35,0,0,1,.1.25,0.39,0.39,0,0,1-.1.25A0.39,0.39,0,0,1,19.25,51.1Z"/><path class="cls-2" d="M19,47.1a0.39,0.39,0,0,1-.25-0.1,0.36,0.36,0,0,1,0-.5,0.38,0.38,0,0,1,.5,0,0.36,0.36,0,0,1,0,.5A0.39,0.39,0,0,1,19,47.1Z"/><path class="cls-2" d="M16.25,47.35a0.39,0.39,0,0,1-.25-0.1,0.36,0.36,0,0,1,0-.5,0.37,0.37,0,0,1,.5,0,0.36,0.36,0,0,1,0,.5A0.39,0.39,0,0,1,16.25,47.35Z"/><path class="cls-2" d="M32.5,50.85a0.39,0.39,0,0,1-.25-0.1,0.4,0.4,0,0,1-.1-0.25,0.33,0.33,0,0,1,.11-0.25,0.35,0.35,0,0,1,.59.25,0.39,0.39,0,0,1-.1.25A0.39,0.39,0,0,1,32.5,50.85Z"/><path class="cls-2" d="M27.25,54.35a0.39,0.39,0,0,1-.25-0.1,0.36,0.36,0,0,1,0-.5,0.37,0.37,0,0,1,.5,0,0.36,0.36,0,0,1,0,.5A0.39,0.39,0,0,1,27.25,54.35Z"/><path class="cls-2" d="M32,55.85a0.39,0.39,0,0,1-.25-0.1,0.36,0.36,0,0,1,0-.5,0.37,0.37,0,0,1,.5,0,0.36,0.36,0,0,1,0,.5A0.39,0.39,0,0,1,32,55.85Z"/><path class="cls-2" d="M32,57.6a0.34,0.34,0,0,1-.24-0.1,0.35,0.35,0,0,1,0-.5,0.37,0.37,0,0,1,.5,0,0.35,0.35,0,0,1,.1.25,0.39,0.39,0,0,1-.1.25A0.39,0.39,0,0,1,32,57.6Z"/><path class="cls-2" d="M34,58.35a0.39,0.39,0,0,1-.25-0.1,0.36,0.36,0,0,1,0-.5,0.37,0.37,0,0,1,.5,0,0.36,0.36,0,0,1,0,.5A0.39,0.39,0,0,1,34,58.35Z"/><path class="cls-2" d="M26,64.85a0.39,0.39,0,0,1-.25-0.1,0.36,0.36,0,0,1,0-.5,0.36,0.36,0,0,1,.6.25,0.39,0.39,0,0,1-.1.25A0.39,0.39,0,0,1,26,64.85Z"/><path class="cls-2" d="M36,56.35a0.39,0.39,0,0,1-.25-0.1,0.36,0.36,0,0,1,0-.5,0.36,0.36,0,0,1,.6.25,0.39,0.39,0,0,1-.1.25A0.39,0.39,0,0,1,36,56.35Z"/><path class="cls-2" d="M39.25,56.1A0.34,0.34,0,0,1,39,56a0.36,0.36,0,0,1-.11-0.25A0.4,0.4,0,0,1,39,55.5a0.37,0.37,0,0,1,.5,0,0.36,0.36,0,0,1,0,.5A0.39,0.39,0,0,1,39.25,56.1Z"/><path class="cls-2" d="M41.75,50.85a0.39,0.39,0,0,1-.25-0.1,0.36,0.36,0,0,1,0-.5,0.37,0.37,0,0,1,.5,0,0.36,0.36,0,0,1,0,.5A0.39,0.39,0,0,1,41.75,50.85Z"/><path class="cls-2" d="M43.5,44.85a0.36,0.36,0,0,1-.25-0.11,0.35,0.35,0,0,1-.1-0.24,0.4,0.4,0,0,1,.1-0.25,0.37,0.37,0,0,1,.5,0,0.36,0.36,0,0,1,0,.5A0.39,0.39,0,0,1,43.5,44.85Z"/><path class="cls-2" d="M51,50.6a0.39,0.39,0,0,1-.25-0.1,0.37,0.37,0,0,1-.1-0.25,0.4,0.4,0,0,1,.1-0.25,0.36,0.36,0,0,1,.5,0,0.36,0.36,0,0,1,0,.5A0.39,0.39,0,0,1,51,50.6Z"/><path class="cls-2" d="M52,46.6a0.36,0.36,0,0,1-.25-0.11,0.35,0.35,0,0,1-.1-0.24A0.33,0.33,0,0,1,51.76,46a0.36,0.36,0,0,1,.49,0,0.35,0.35,0,0,1,.1.25,0.39,0.39,0,0,1-.1.25A0.39,0.39,0,0,1,52,46.6Z"/><path class="cls-2" d="M55,47.1A0.33,0.33,0,0,1,54.75,47a0.35,0.35,0,0,1-.1-0.24,0.38,0.38,0,0,1,.1-0.25,0.36,0.36,0,0,1,.49,0,0.34,0.34,0,0,1,.11.25,0.39,0.39,0,0,1-.1.25A0.39,0.39,0,0,1,55,47.1Z"/><path class="cls-2" d="M55,54.35a0.33,0.33,0,0,1-.25-0.11,0.35,0.35,0,0,1-.1-0.24,0.33,0.33,0,0,1,.11-0.25,0.36,0.36,0,0,1,.49,0,0.35,0.35,0,0,1,.1.25,0.39,0.39,0,0,1-.1.25A0.39,0.39,0,0,1,55,54.35Z"/><path class="cls-2" d="M51.25,56.35a0.39,0.39,0,0,1-.25-0.1,0.36,0.36,0,0,1,0-.5,0.37,0.37,0,0,1,.5,0,0.35,0.35,0,0,1,.1.25,0.39,0.39,0,0,1-.1.25A0.37,0.37,0,0,1,51.25,56.35Z"/><path class="cls-2" d="M51,63.85a0.39,0.39,0,0,1-.25-0.1,0.4,0.4,0,0,1-.1-0.25,0.31,0.31,0,0,1,.1-0.24,0.34,0.34,0,0,1,.49,0,0.36,0.36,0,0,1,.11.25,0.39,0.39,0,0,1-.1.25A0.37,0.37,0,0,1,51,63.85Z"/><path class="cls-2" d="M53.25,63.85a0.39,0.39,0,0,1-.25-0.1,0.4,0.4,0,0,1-.1-0.25A0.33,0.33,0,0,1,53,63.25a0.36,0.36,0,0,1,.49,0,0.32,0.32,0,0,1,.1.24,0.39,0.39,0,0,1-.1.25A0.39,0.39,0,0,1,53.25,63.85Z"/><path class="cls-2" d="M56,63.1a0.39,0.39,0,0,1-.25-0.1,0.36,0.36,0,0,1,0-.5,0.36,0.36,0,0,1,.6.25,0.39,0.39,0,0,1-.1.25A0.39,0.39,0,0,1,56,63.1Z"/><path class="cls-2" d="M58.25,61.6A0.36,0.36,0,0,1,58,61.49a0.35,0.35,0,0,1-.1-0.24A0.4,0.4,0,0,1,58,61a0.37,0.37,0,0,1,.5,0,0.37,0.37,0,0,1,.1.25,0.39,0.39,0,0,1-.1.25A0.39,0.39,0,0,1,58.25,61.6Z"/><path class="cls-2" d="M21,27.1a0.39,0.39,0,0,1-.25-0.1,0.36,0.36,0,0,1,0-.5,0.36,0.36,0,0,1,.6.25,0.39,0.39,0,0,1-.1.25A0.39,0.39,0,0,1,21,27.1Z"/><path class="cls-2" d="M22.75,24.1A0.39,0.39,0,0,1,22.5,24a0.36,0.36,0,0,1,0-.5,0.37,0.37,0,0,1,.5,0,0.36,0.36,0,0,1,0,.5A0.39,0.39,0,0,1,22.75,24.1Z"/><path class="cls-2" d="M39,24.85a0.39,0.39,0,0,1-.25-0.1,0.36,0.36,0,0,1,0-.5,0.37,0.37,0,0,1,.5,0,0.36,0.36,0,0,1,0,.5A0.39,0.39,0,0,1,39,24.85Z"/><path class="cls-2" d="M46.25,29.1A0.39,0.39,0,0,1,46,29a0.35,0.35,0,0,1,0-.49,0.34,0.34,0,0,1,.49,0,0.36,0.36,0,0,1,.11.25,0.39,0.39,0,0,1-.1.25A0.39,0.39,0,0,1,46.25,29.1Z"/><path class="cls-2" d="M55.25,28.1A0.39,0.39,0,0,1,55,28a0.36,0.36,0,0,1,0-.5,0.37,0.37,0,0,1,.5,0,0.36,0.36,0,0,1,0,.5A0.39,0.39,0,0,1,55.25,28.1Z"/><path class="cls-2" d="M51.25,25.35a0.39,0.39,0,0,1-.25-0.1,0.36,0.36,0,0,1,0-.5,0.37,0.37,0,0,1,.5,0,0.35,0.35,0,0,1,.1.25,0.39,0.39,0,0,1-.1.25A0.39,0.39,0,0,1,51.25,25.35Z"/><path class="cls-2" d="M52,29.6a0.37,0.37,0,0,1-.25-0.1,0.36,0.36,0,0,1,0-.5,0.36,0.36,0,0,1,.6.25,0.39,0.39,0,0,1-.1.25A0.39,0.39,0,0,1,52,29.6Z"/><path class="cls-2" d="M62.5,35.6a0.39,0.39,0,0,1-.25-0.1,0.4,0.4,0,0,1-.1-0.25A0.33,0.33,0,0,1,62.26,35a0.36,0.36,0,0,1,.49,0,0.32,0.32,0,0,1,.1.24,0.39,0.39,0,0,1-.1.25A0.39,0.39,0,0,1,62.5,35.6Z"/><path class="cls-2" d="M56.75,39.1A0.39,0.39,0,0,1,56.5,39a0.36,0.36,0,0,1,0-.5,0.36,0.36,0,0,1,.6.25A0.39,0.39,0,0,1,57,39,0.39,0.39,0,0,1,56.75,39.1Z"/><path class="cls-2" d="M48.25,37.35a0.34,0.34,0,0,1-.24-0.1A0.36,0.36,0,0,1,47.9,37a0.4,0.4,0,0,1,.1-0.25,0.36,0.36,0,0,1,.5,0,0.33,0.33,0,0,1,.1.24,0.39,0.39,0,0,1-.1.25A0.39,0.39,0,0,1,48.25,37.35Z"/><path class="cls-2" d="M48,41.35a0.33,0.33,0,0,1-.25-0.11,0.35,0.35,0,0,1-.1-0.24,0.4,0.4,0,0,1,.1-0.25,0.38,0.38,0,0,1,.5,0,0.36,0.36,0,0,1,0,.5A0.39,0.39,0,0,1,48,41.35Z"/><path class="cls-2" d="M53.5,45.1A0.34,0.34,0,0,1,53.25,45a0.32,0.32,0,0,1-.1-0.24,0.34,0.34,0,0,1,.11-0.25,0.36,0.36,0,0,1,.49,0,0.36,0.36,0,0,1,0,.5A0.39,0.39,0,0,1,53.5,45.1Z"/><path class="cls-2" d="M62.25,48.1A0.39,0.39,0,0,1,62,48a0.4,0.4,0,0,1-.1-0.25A0.33,0.33,0,0,1,62,47.5a0.36,0.36,0,0,1,.49,0,0.32,0.32,0,0,1,.1.24,0.39,0.39,0,0,1-.1.25A0.39,0.39,0,0,1,62.25,48.1Z"/><path class="cls-2" d="M65,51.85a0.39,0.39,0,0,1-.25-0.1,0.4,0.4,0,0,1-.1-0.25,0.33,0.33,0,0,1,.11-0.25,0.36,0.36,0,0,1,.49,0,0.35,0.35,0,0,1,.1.25,0.39,0.39,0,0,1-.1.25A0.39,0.39,0,0,1,65,51.85Z"/><path class="cls-2" d="M69.5,45.1a0.39,0.39,0,0,1-.25-0.1,0.36,0.36,0,0,1,0-.5,0.37,0.37,0,0,1,.5,0,0.36,0.36,0,0,1,0,.5A0.39,0.39,0,0,1,69.5,45.1Z"/><path class="cls-2" d="M60,39.1A0.33,0.33,0,0,1,59.75,39a0.35,0.35,0,0,1-.1-0.24,0.34,0.34,0,0,1,.11-0.25,0.35,0.35,0,0,1,.49,0,0.36,0.36,0,0,1,0,.5A0.37,0.37,0,0,1,60,39.1Z"/><path class="cls-2" d="M32.5,47.1a0.39,0.39,0,0,1-.25-0.1,0.36,0.36,0,0,1,0-.5,0.36,0.36,0,0,1,.6.25,0.39,0.39,0,0,1-.1.25A0.39,0.39,0,0,1,32.5,47.1Z"/><path class="cls-2" d="M26.25,37.85a0.39,0.39,0,0,1-.25-0.1,0.36,0.36,0,0,1,0-.5,0.36,0.36,0,0,1,.6.25,0.39,0.39,0,0,1-.1.25A0.39,0.39,0,0,1,26.25,37.85Z"/><path class="cls-2" d="M29.75,35.6a0.34,0.34,0,0,1-.24-0.1,0.36,0.36,0,0,1-.11-0.25A0.33,0.33,0,0,1,29.51,35,0.36,0.36,0,0,1,30,35a0.35,0.35,0,0,1,.1.25,0.39,0.39,0,0,1-.1.25A0.39,0.39,0,0,1,29.75,35.6Z"/><path class="cls-2" d="M10.5,29.6a0.39,0.39,0,0,1-.25-0.1,0.36,0.36,0,0,1,0-.5,0.37,0.37,0,0,1,.49,0,0.33,0.33,0,0,1,.11.25,0.39,0.39,0,0,1-.1.25A0.39,0.39,0,0,1,10.5,29.6Z"/><path class="cls-2" d="M6,31.6a0.39,0.39,0,0,1-.25-0.1,0.36,0.36,0,0,1,0-.5,0.36,0.36,0,0,1,.49,0,0.33,0.33,0,0,1,.11.25,0.37,0.37,0,0,1-.1.25A0.39,0.39,0,0,1,6,31.6Z"/><path class="cls-2" d="M2.5,35.35a0.39,0.39,0,0,1-.25-0.1,0.36,0.36,0,0,1,0-.5,0.37,0.37,0,0,1,.5,0,0.35,0.35,0,0,1,.1.25,0.33,0.33,0,0,1-.1.24A0.35,0.35,0,0,1,2.5,35.35Z"/><path class="cls-2" d="M17,42.1a0.39,0.39,0,0,1-.25-0.1,0.4,0.4,0,0,1-.1-0.25,0.33,0.33,0,0,1,.11-0.25,0.35,0.35,0,0,1,.59.25,0.39,0.39,0,0,1-.1.25A0.37,0.37,0,0,1,17,42.1Z"/><path class="cls-2" d="M12.75,36.1A0.39,0.39,0,0,1,12.5,36a0.4,0.4,0,0,1-.1-0.25,0.33,0.33,0,0,1,.11-0.25,0.36,0.36,0,0,1,.49,0,0.35,0.35,0,0,1,.1.25A0.39,0.39,0,0,1,13,36,0.37,0.37,0,0,1,12.75,36.1Z"/><path class="cls-2" d="M26.5,30.35a0.39,0.39,0,0,1-.25-0.1,0.36,0.36,0,0,1,0-.5,0.37,0.37,0,0,1,.5,0,0.36,0.36,0,0,1,0,.5A0.39,0.39,0,0,1,26.5,30.35Z"/><path class="cls-2" d="M39.25,30.85a0.39,0.39,0,0,1-.25-0.1,0.36,0.36,0,0,1,0-.5,0.37,0.37,0,0,1,.5,0,0.36,0.36,0,0,1,0,.5A0.37,0.37,0,0,1,39.25,30.85Z"/><path class="cls-2" d="M38.25,32.85a0.39,0.39,0,0,1-.25-0.1,0.36,0.36,0,0,1,0-.5,0.37,0.37,0,0,1,.5,0,0.36,0.36,0,0,1,0,.5A0.39,0.39,0,0,1,38.25,32.85Z"/><path class="cls-2" d="M28,42.1a0.39,0.39,0,0,1-.25-0.1,0.36,0.36,0,0,1,0-.5,0.37,0.37,0,0,1,.5,0,0.36,0.36,0,0,1,0,.5A0.39,0.39,0,0,1,28,42.1Z"/><path class="cls-2" d="M6.5,20.6a0.39,0.39,0,0,1-.25-0.1,0.36,0.36,0,0,1,0-.5,0.37,0.37,0,0,1,.5,0,0.36,0.36,0,0,1,0,.5A0.39,0.39,0,0,1,6.5,20.6Z"/><path class="cls-2" d="M9.75,18.85a0.39,0.39,0,0,1-.25-0.1,0.36,0.36,0,0,1,0-.5,0.36,0.36,0,0,1,.6.25,0.39,0.39,0,0,1-.1.25A0.39,0.39,0,0,1,9.75,18.85Z"/><path class="cls-2" d="M11.75,23.6a0.39,0.39,0,0,1-.25-0.1,0.4,0.4,0,0,1-.1-0.25A0.33,0.33,0,0,1,11.51,23,0.36,0.36,0,0,1,12,23a0.35,0.35,0,0,1,.1.25,0.39,0.39,0,0,1-.1.25A0.37,0.37,0,0,1,11.75,23.6Z"/><path class="cls-2" d="M3,25.85a0.39,0.39,0,0,1-.25-0.1,0.36,0.36,0,0,1,0-.5,0.38,0.38,0,0,1,.5,0,0.36,0.36,0,0,1,0,.5A0.39,0.39,0,0,1,3,25.85Z"/><path class="cls-2" d="M64.25,29.6A0.34,0.34,0,0,1,64,29.5a0.36,0.36,0,0,1-.11-0.25A0.4,0.4,0,0,1,64,29a0.36,0.36,0,0,1,.6.25,0.39,0.39,0,0,1-.1.25A0.39,0.39,0,0,1,64.25,29.6Z"/><path class="cls-2" d="M69.5,29.85a0.39,0.39,0,0,1-.25-0.1,0.4,0.4,0,0,1-.1-0.25,0.34,0.34,0,0,1,.11-0.25,0.36,0.36,0,0,1,.49,0,0.35,0.35,0,0,1,.1.25,0.39,0.39,0,0,1-.1.25A0.37,0.37,0,0,1,69.5,29.85Z"/><path class="cls-2" d="M1.5,9.1A0.39,0.39,0,0,1,1.25,9a0.36,0.36,0,0,1,0-.5,0.38,0.38,0,0,1,.5,0,0.36,0.36,0,0,1,0,.5A0.39,0.39,0,0,1,1.5,9.1Z"/><path class="cls-2" d="M16.5,6.1A0.39,0.39,0,0,1,16.25,6a0.4,0.4,0,0,1-.1-0.25,0.35,0.35,0,0,1,.6-0.25,0.36,0.36,0,0,1,0,.5A0.39,0.39,0,0,1,16.5,6.1Z"/><path class="cls-2" d="M3.75,6.1A0.39,0.39,0,0,1,3.5,6a0.36,0.36,0,0,1,0-.5,0.36,0.36,0,0,1,.6.25A0.39,0.39,0,0,1,4,6,0.39,0.39,0,0,1,3.75,6.1Z"/><path class="cls-2" d="M12.75,14.35a0.39,0.39,0,0,1-.25-0.1,0.36,0.36,0,0,1,0-.5,0.36,0.36,0,0,1,.6.25,0.39,0.39,0,0,1-.1.25A0.39,0.39,0,0,1,12.75,14.35Z"/><path class="cls-2" d="M18.5,19.35a0.39,0.39,0,0,1-.25-0.1,0.4,0.4,0,0,1-.1-0.25,0.38,0.38,0,0,1,.1-0.25,0.36,0.36,0,0,1,.6.25,0.39,0.39,0,0,1-.1.25A0.39,0.39,0,0,1,18.5,19.35Z"/><path class="cls-2" d="M21.25,37.1A0.39,0.39,0,0,1,21,37a0.4,0.4,0,0,1-.1-0.25A0.38,0.38,0,0,1,21,36.5a0.37,0.37,0,0,1,.49,0,0.36,0.36,0,0,1,.11.25,0.39,0.39,0,0,1-.1.25A0.39,0.39,0,0,1,21.25,37.1Z"/><path class="cls-2" d="M0.75,44.35a0.39,0.39,0,0,1-.25-0.1A0.4,0.4,0,0,1,.4,44a0.33,0.33,0,0,1,.11-0.25,0.36,0.36,0,0,1,.49,0,0.35,0.35,0,0,1,.1.25,0.39,0.39,0,0,1-.1.25A0.39,0.39,0,0,1,.75,44.35Z"/><path class="cls-2" d="M68,66.1a0.39,0.39,0,0,1-.25-0.1,0.4,0.4,0,0,1-.1-0.25,0.33,0.33,0,0,1,.11-0.25,0.36,0.36,0,0,1,.49,0,0.35,0.35,0,0,1,.1.25,0.39,0.39,0,0,1-.1.25A0.39,0.39,0,0,1,68,66.1Z"/><path class="cls-2" d="M59.75,69.85a0.39,0.39,0,0,1-.25-0.1,0.35,0.35,0,0,1-.1-0.25,0.4,0.4,0,0,1,.1-0.25,0.37,0.37,0,0,1,.5,0,0.35,0.35,0,0,1,.1.25,0.37,0.37,0,0,1-.1.25A0.39,0.39,0,0,1,59.75,69.85Z"/><path class="cls-2" d="M40.5,68.1a0.39,0.39,0,0,1-.25-0.1,0.36,0.36,0,0,1,0-.5,0.37,0.37,0,0,1,.5,0,0.36,0.36,0,0,1,0,.5A0.37,0.37,0,0,1,40.5,68.1Z"/><path class="cls-2" d="M4.5,60.1A0.39,0.39,0,0,1,4.25,60a0.36,0.36,0,0,1,0-.5,0.36,0.36,0,0,1,.6.25,0.39,0.39,0,0,1-.1.25A0.39,0.39,0,0,1,4.5,60.1Z"/><path class="cls-2" d="M26.5,59.6a0.39,0.39,0,0,1-.25-0.1,0.36,0.36,0,0,1,0-.5,0.36,0.36,0,0,1,.6.25,0.39,0.39,0,0,1-.1.25A0.39,0.39,0,0,1,26.5,59.6Z"/><path class="cls-2" d="M37.25,48.6A0.39,0.39,0,0,1,37,48.5a0.4,0.4,0,0,1-.1-0.25A0.38,0.38,0,0,1,37,48a0.37,0.37,0,0,1,.5,0,0.36,0.36,0,0,1,0,.5A0.37,0.37,0,0,1,37.25,48.6Z"/><path class="cls-2" d="M8.75,40.35a0.39,0.39,0,0,1-.25-0.1,0.36,0.36,0,0,1,0-.5,0.36,0.36,0,0,1,.6.25,0.39,0.39,0,0,1-.1.25A0.39,0.39,0,0,1,8.75,40.35Z"/><path class="cls-2" d="M52.25,38.1A0.36,0.36,0,0,1,52,38a0.35,0.35,0,0,1-.1-0.24A0.33,0.33,0,0,1,52,37.5a0.36,0.36,0,0,1,.49,0,0.35,0.35,0,0,1,.1.25,0.39,0.39,0,0,1-.1.25A0.39,0.39,0,0,1,52.25,38.1Z"/><path class="cls-2" d="M60.75,46.1A0.39,0.39,0,0,1,60.5,46a0.4,0.4,0,0,1-.1-0.25,0.33,0.33,0,0,1,.11-0.25,0.36,0.36,0,0,1,.49,0,0.35,0.35,0,0,1,.1.25A0.39,0.39,0,0,1,61,46,0.39,0.39,0,0,1,60.75,46.1Z"/><path class="cls-2" d="M51.25,66.35a0.39,0.39,0,0,1-.25-0.1,0.36,0.36,0,0,1,0-.5,0.37,0.37,0,0,1,.5,0,0.39,0.39,0,0,1,.1.25,0.35,0.35,0,0,1-.1.25A0.39,0.39,0,0,1,51.25,66.35Z"/><path class="cls-2" d="M40,37.85a0.39,0.39,0,0,1-.25-0.1,0.36,0.36,0,0,1,0-.5,0.36,0.36,0,0,1,.6.25,0.39,0.39,0,0,1-.1.25A0.39,0.39,0,0,1,40,37.85Z"/><path class="cls-2" d="M27.5,13.6a0.39,0.39,0,0,1-.25-0.1,0.36,0.36,0,0,1,0-.5,0.36,0.36,0,0,1,.6.25,0.39,0.39,0,0,1-.1.25A0.39,0.39,0,0,1,27.5,13.6Z"/><path class="cls-2" d="M19.75,26.6a0.39,0.39,0,0,1-.25-0.1,0.4,0.4,0,0,1-.1-0.25A0.38,0.38,0,0,1,19.5,26,0.37,0.37,0,0,1,20,26a0.36,0.36,0,0,1,.11.25,0.39,0.39,0,0,1-.1.25A0.39,0.39,0,0,1,19.75,26.6Z"/><path class="cls-2" d="M11.75,1.85a0.39,0.39,0,0,1-.25-0.1,0.4,0.4,0,0,1-.1-0.25,0.4,0.4,0,0,1,.1-0.25,0.38,0.38,0,0,1,.5,0,0.39,0.39,0,0,1,.1.25,0.39,0.39,0,0,1-.1.25A0.39,0.39,0,0,1,11.75,1.85Z"/><path class="cls-2" d="M55.25,3.85A0.39,0.39,0,0,1,55,3.75a0.4,0.4,0,0,1-.1-0.25A0.33,0.33,0,0,1,55,3.25a0.36,0.36,0,0,1,.49,0,0.35,0.35,0,0,1,.1.25,0.39,0.39,0,0,1-.1.25A0.39,0.39,0,0,1,55.25,3.85Z"/><path class="cls-2" d="M47.25,69.85a0.39,0.39,0,0,1-.25-0.1,0.38,0.38,0,0,1-.1-0.25,0.4,0.4,0,0,1,.1-0.25,0.36,0.36,0,0,1,.6.25,0.39,0.39,0,0,1-.1.25A0.39,0.39,0,0,1,47.25,69.85Z"/><path class="cls-2" d="M4.75,40.35a0.39,0.39,0,0,1-.25-0.1A0.4,0.4,0,0,1,4.4,40a0.33,0.33,0,0,1,.11-0.25,0.36,0.36,0,0,1,.49,0,0.35,0.35,0,0,1,.1.25,0.39,0.39,0,0,1-.1.25A0.39,0.39,0,0,1,4.75,40.35Z"/><path class="cls-2" d="M68.75,13.35a0.39,0.39,0,0,1-.25-0.1,0.36,0.36,0,0,1,0-.5,0.37,0.37,0,0,1,.5,0,0.36,0.36,0,0,1,0,.5A0.39,0.39,0,0,1,68.75,13.35Z"/><path class="cls-2" d="M23.25,14.1A0.39,0.39,0,0,1,23,14a0.36,0.36,0,0,1,0-.5,0.36,0.36,0,0,1,.6.25,0.39,0.39,0,0,1-.1.25A0.39,0.39,0,0,1,23.25,14.1Z"/><path class="cls-2" d="M20.5,17.35a0.39,0.39,0,0,1-.25-0.1,0.36,0.36,0,0,1,0-.5,0.37,0.37,0,0,1,.5,0,0.36,0.36,0,0,1,0,.5A0.39,0.39,0,0,1,20.5,17.35Z"/><path class="cls-2" d="M14.75,17.35a0.39,0.39,0,0,1-.25-0.1A0.4,0.4,0,0,1,14.4,17a0.33,0.33,0,0,1,.11-0.25,0.36,0.36,0,0,1,.49,0,0.35,0.35,0,0,1,.1.25,0.39,0.39,0,0,1-.1.25A0.39,0.39,0,0,1,14.75,17.35Z"/><path class="cls-2" d="M6,11.85a0.39,0.39,0,0,1-.25-0.1,0.36,0.36,0,0,1,0-.5,0.36,0.36,0,0,1,.49,0,0.33,0.33,0,0,1,.11.25,0.39,0.39,0,0,1-.1.25A0.39,0.39,0,0,1,6,11.85Z"/><path class="cls-2" d="M7,2.85a0.36,0.36,0,0,1-.24-0.1A0.36,0.36,0,0,1,6.65,2.5a0.4,0.4,0,0,1,.1-0.25,0.36,0.36,0,0,1,.6.25,0.39,0.39,0,0,1-.1.25A0.39,0.39,0,0,1,7,2.85Z"/><path class="cls-2" d="M10,8.35a0.39,0.39,0,0,1-.25-0.1,0.36,0.36,0,0,1,0-.5,0.36,0.36,0,0,1,.6.25,0.39,0.39,0,0,1-.1.25A0.39,0.39,0,0,1,10,8.35Z"/><path class="cls-2" d="M14.25,8.35A0.39,0.39,0,0,1,14,8.25,0.4,0.4,0,0,1,13.9,8,0.33,0.33,0,0,1,14,7.75a0.36,0.36,0,0,1,.49,0,0.35,0.35,0,0,1,.1.25,0.39,0.39,0,0,1-.1.25A0.39,0.39,0,0,1,14.25,8.35Z"/><path class="cls-2" d="M25.75,7.1A0.39,0.39,0,0,1,25.5,7a0.36,0.36,0,0,1,0-.5,0.36,0.36,0,0,1,.6.25A0.39,0.39,0,0,1,26,7,0.39,0.39,0,0,1,25.75,7.1Z"/><path class="cls-2" d="M37,7.6a0.39,0.39,0,0,1-.25-0.1,0.36,0.36,0,0,1,0-.5,0.37,0.37,0,0,1,.5,0,0.36,0.36,0,0,1,0,.5A0.39,0.39,0,0,1,37,7.6Z"/><path class="cls-2" d="M37.5,4.35a0.39,0.39,0,0,1-.25-0.1A0.4,0.4,0,0,1,37.15,4a0.33,0.33,0,0,1,.11-0.25,0.35,0.35,0,0,1,.59.25,0.39,0.39,0,0,1-.1.25A0.39,0.39,0,0,1,37.5,4.35Z"/><path class="cls-2" d="M43.25,2.35A0.39,0.39,0,0,1,43,2.25,0.4,0.4,0,0,1,42.9,2,0.4,0.4,0,0,1,43,1.75a0.37,0.37,0,0,1,.5,0,0.39,0.39,0,0,1,.1.25,0.39,0.39,0,0,1-.1.25A0.41,0.41,0,0,1,43.25,2.35Z"/><path class="cls-2" d="M49.5,8.35a0.39,0.39,0,0,1-.25-0.1,0.36,0.36,0,0,1,0-.5,0.37,0.37,0,0,1,.5,0,0.36,0.36,0,0,1,0,.5A0.39,0.39,0,0,1,49.5,8.35Z"/><path class="cls-2" d="M46,9.35a0.39,0.39,0,0,1-.25-0.1,0.36,0.36,0,0,1,0-.5,0.37,0.37,0,0,1,.5,0,0.36,0.36,0,0,1,0,.5A0.37,0.37,0,0,1,46,9.35Z"/><path class="cls-2" d="M35.75,11.1A0.39,0.39,0,0,1,35.5,11a0.4,0.4,0,0,1-.1-0.25,0.38,0.38,0,0,1,.1-0.25,0.36,0.36,0,0,1,.6.25A0.39,0.39,0,0,1,36,11,0.39,0.39,0,0,1,35.75,11.1Z"/><path class="cls-2" d="M39.25,15.1A0.39,0.39,0,0,1,39,15a0.36,0.36,0,0,1,0-.5,0.36,0.36,0,0,1,.6.25,0.39,0.39,0,0,1-.1.25A0.39,0.39,0,0,1,39.25,15.1Z"/><path class="cls-2" d="M24.75,18.1A0.39,0.39,0,0,1,24.5,18a0.36,0.36,0,0,1,0-.5,0.36,0.36,0,0,1,.6.25A0.39,0.39,0,0,1,25,18,0.39,0.39,0,0,1,24.75,18.1Z"/><path class="cls-2" d="M8.25,27.35A0.39,0.39,0,0,1,8,27.25a0.36,0.36,0,0,1,0-.5,0.36,0.36,0,0,1,.6.25,0.39,0.39,0,0,1-.1.25A0.39,0.39,0,0,1,8.25,27.35Z"/><path class="cls-2" d="M16,31.85a0.39,0.39,0,0,1-.25-0.1,0.36,0.36,0,0,1,0-.5,0.38,0.38,0,0,1,.5,0,0.36,0.36,0,0,1,0,.5A0.39,0.39,0,0,1,16,31.85Z"/><path class="cls-2" d="M10.5,33.6a0.39,0.39,0,0,1-.25-0.1,0.4,0.4,0,0,1-.1-0.25A0.33,0.33,0,0,1,10.26,33a0.36,0.36,0,0,1,.49,0,0.35,0.35,0,0,1,.1.25,0.37,0.37,0,0,1-.1.25A0.39,0.39,0,0,1,10.5,33.6Z"/><path class="cls-2" d="M5.25,37.1A0.39,0.39,0,0,1,5,37a0.36,0.36,0,0,1,0-.5,0.38,0.38,0,0,1,.5,0,0.37,0.37,0,0,1,.1.25,0.39,0.39,0,0,1-.1.25A0.39,0.39,0,0,1,5.25,37.1Z"/><path class="cls-2" d="M3.25,20.6A0.39,0.39,0,0,1,3,20.5,0.36,0.36,0,0,1,3,20a0.38,0.38,0,0,1,.5,0,0.36,0.36,0,0,1,0,.5A0.39,0.39,0,0,1,3.25,20.6Z"/><path class="cls-2" d="M20.5,30.85a0.39,0.39,0,0,1-.25-0.1,0.4,0.4,0,0,1-.1-0.25,0.33,0.33,0,0,1,.11-0.25,0.35,0.35,0,0,1,.59.25,0.39,0.39,0,0,1-.1.25A0.39,0.39,0,0,1,20.5,30.85Z"/><path class="cls-2" d="M17.5,35.6a0.39,0.39,0,0,1-.25-0.1,0.36,0.36,0,0,1,0-.5,0.37,0.37,0,0,1,.5,0,0.36,0.36,0,0,1,0,.5A0.39,0.39,0,0,1,17.5,35.6Z"/><path class="cls-2" d="M16,39.1a0.39,0.39,0,0,1-.25-0.1,0.4,0.4,0,0,1-.1-0.25,0.33,0.33,0,0,1,.11-0.25,0.36,0.36,0,0,1,.49,0,0.35,0.35,0,0,1,.1.25,0.39,0.39,0,0,1-.1.25A0.37,0.37,0,0,1,16,39.1Z"/><path class="cls-2" d="M12.75,41.35a0.39,0.39,0,0,1-.25-0.1A0.4,0.4,0,0,1,12.4,41a0.33,0.33,0,0,1,.11-0.25,0.36,0.36,0,0,1,.49,0,0.35,0.35,0,0,1,.1.25,0.39,0.39,0,0,1-.1.25A0.39,0.39,0,0,1,12.75,41.35Z"/><path class="cls-2" d="M12.75,46.6a0.39,0.39,0,0,1-.25-0.1,0.4,0.4,0,0,1-.1-0.25A0.33,0.33,0,0,1,12.51,46,0.36,0.36,0,0,1,13,46a0.35,0.35,0,0,1,.1.25,0.39,0.39,0,0,1-.1.25A0.39,0.39,0,0,1,12.75,46.6Z"/><path class="cls-2" d="M5.75,48.6a0.39,0.39,0,0,1-.25-0.1,0.36,0.36,0,0,1,0-.5A0.38,0.38,0,0,1,6,48a0.36,0.36,0,0,1,0,.5A0.39,0.39,0,0,1,5.75,48.6Z"/><path class="cls-2" d="M11,54.6a0.39,0.39,0,0,1-.25-0.1,0.36,0.36,0,0,1,0-.5,0.38,0.38,0,0,1,.5,0,0.36,0.36,0,0,1,0,.5A0.39,0.39,0,0,1,11,54.6Z"/><path class="cls-2" d="M15.5,58.6a0.39,0.39,0,0,1-.25-0.1,0.36,0.36,0,0,1,0-.5,0.37,0.37,0,0,1,.5,0,0.36,0.36,0,0,1,0,.5A0.39,0.39,0,0,1,15.5,58.6Z"/><path class="cls-2" d="M6,63.6a0.39,0.39,0,0,1-.25-0.1,0.36,0.36,0,0,1,0-.5,0.38,0.38,0,0,1,.5,0,0.35,0.35,0,0,1,.1.25,0.39,0.39,0,0,1-.1.25A0.39,0.39,0,0,1,6,63.6Z"/><path class="cls-2" d="M2.25,62.1A0.39,0.39,0,0,1,2,62a0.36,0.36,0,0,1,0-.5,0.37,0.37,0,0,1,.49,0,0.34,0.34,0,0,1,.11.25,0.39,0.39,0,0,1-.1.25A0.39,0.39,0,0,1,2.25,62.1Z"/><path class="cls-2" d="M9,68.1A0.39,0.39,0,0,1,8.75,68a0.36,0.36,0,0,1,0-.5,0.36,0.36,0,0,1,.6.25,0.39,0.39,0,0,1-.1.25A0.37,0.37,0,0,1,9,68.1Z"/><path class="cls-2" d="M13.5,69.6a0.39,0.39,0,0,1-.25-0.1,0.36,0.36,0,0,1,0-.5,0.38,0.38,0,0,1,.5,0,0.36,0.36,0,0,1,0,.5A0.39,0.39,0,0,1,13.5,69.6Z"/><path class="cls-2" d="M21.5,68.6a0.39,0.39,0,0,1-.25-0.1,0.4,0.4,0,0,1-.1-0.25A0.33,0.33,0,0,1,21.26,68a0.35,0.35,0,0,1,.59.25,0.39,0.39,0,0,1-.1.25A0.39,0.39,0,0,1,21.5,68.6Z"/><path class="cls-2" d="M23,65.85a0.39,0.39,0,0,1-.25-0.1,0.36,0.36,0,0,1,0-.5,0.37,0.37,0,0,1,.5,0,0.36,0.36,0,0,1,0,.5A0.37,0.37,0,0,1,23,65.85Z"/><path class="cls-2" d="M22.25,60.1A0.39,0.39,0,0,1,22,60a0.36,0.36,0,0,1,0-.5,0.38,0.38,0,0,1,.5,0,0.36,0.36,0,0,1,0,.5A0.37,0.37,0,0,1,22.25,60.1Z"/><path class="cls-2" d="M24.25,57.6A0.39,0.39,0,0,1,24,57.5a0.4,0.4,0,0,1-.1-0.25A0.35,0.35,0,0,1,24.5,57a0.37,0.37,0,0,1,.1.25,0.39,0.39,0,0,1-.1.25A0.37,0.37,0,0,1,24.25,57.6Z"/><path class="cls-2" d="M26.25,47.85a0.39,0.39,0,0,1-.25-0.1,0.36,0.36,0,0,1,0-.5,0.37,0.37,0,0,1,.5,0,0.36,0.36,0,0,1,0,.5A0.39,0.39,0,0,1,26.25,47.85Z"/><path class="cls-2" d="M25.75,43.6a0.39,0.39,0,0,1-.25-0.1,0.36,0.36,0,0,1,0-.5,0.37,0.37,0,0,1,.5,0,0.36,0.36,0,0,1,0,.5A0.39,0.39,0,0,1,25.75,43.6Z"/><path class="cls-2" d="M32.25,31.1A0.39,0.39,0,0,1,32,31a0.4,0.4,0,0,1-.1-0.25A0.33,0.33,0,0,1,32,30.5a0.35,0.35,0,0,1,.59.25,0.39,0.39,0,0,1-.1.25A0.39,0.39,0,0,1,32.25,31.1Z"/><path class="cls-2" d="M34.25,27.85a0.39,0.39,0,0,1-.25-0.1,0.4,0.4,0,0,1-.1-0.25,0.35,0.35,0,0,1,.1-0.25,0.37,0.37,0,0,1,.5,0,0.36,0.36,0,0,1,0,.5A0.37,0.37,0,0,1,34.25,27.85Z"/><path class="cls-2" d="M41.75,25.85a0.39,0.39,0,0,1-.25-0.1,0.36,0.36,0,0,1,0-.5,0.37,0.37,0,0,1,.5,0,0.36,0.36,0,0,1,0,.5A0.39,0.39,0,0,1,41.75,25.85Z"/><path class="cls-2" d="M43,20.85a0.36,0.36,0,0,1-.25-0.11,0.33,0.33,0,0,1-.1-0.24,0.4,0.4,0,0,1,.1-0.25,0.37,0.37,0,0,1,.5,0,0.39,0.39,0,0,1,.1.25,0.34,0.34,0,0,1-.11.25A0.34,0.34,0,0,1,43,20.85Z"/><path class="cls-2" d="M36.5,19.35a0.39,0.39,0,0,1-.25-0.1,0.37,0.37,0,0,1-.1-0.25,0.31,0.31,0,0,1,.1-0.24,0.35,0.35,0,0,1,.5,0,0.36,0.36,0,0,1,0,.5A0.39,0.39,0,0,1,36.5,19.35Z"/><path class="cls-2" d="M27.75,22.35a0.39,0.39,0,0,1-.25-0.1,0.36,0.36,0,0,1,0-.5,0.37,0.37,0,0,1,.5,0,0.36,0.36,0,0,1,0,.5A0.39,0.39,0,0,1,27.75,22.35Z"/><path class="cls-2" d="M52,22.1A0.33,0.33,0,0,1,51.75,22a0.35,0.35,0,0,1-.1-0.24,0.4,0.4,0,0,1,.1-0.25,0.36,0.36,0,0,1,.6.25,0.39,0.39,0,0,1-.1.25A0.37,0.37,0,0,1,52,22.1Z"/><path class="cls-2" d="M43.25,17.85a0.37,0.37,0,0,1-.25-0.1,0.36,0.36,0,0,1,0-.5,0.38,0.38,0,0,1,.5,0,0.36,0.36,0,0,1,0,.5A0.39,0.39,0,0,1,43.25,17.85Z"/><path class="cls-2" d="M50.5,18.1a0.37,0.37,0,0,1-.25-0.1,0.36,0.36,0,0,1,0-.5,0.36,0.36,0,0,1,.6.25,0.39,0.39,0,0,1-.1.25A0.39,0.39,0,0,1,50.5,18.1Z"/><path class="cls-2" d="M59.5,17.35a0.39,0.39,0,0,1-.25-0.1,0.4,0.4,0,0,1-.1-0.25,0.33,0.33,0,0,1,.11-0.25,0.36,0.36,0,0,1,.49,0,0.35,0.35,0,0,1,.1.25,0.39,0.39,0,0,1-.1.25A0.39,0.39,0,0,1,59.5,17.35Z"/><path class="cls-2" d="M58.25,14.1A0.37,0.37,0,0,1,58,14a0.36,0.36,0,0,1,0-.5,0.36,0.36,0,0,1,.6.25,0.39,0.39,0,0,1-.1.25A0.39,0.39,0,0,1,58.25,14.1Z"/><path class="cls-2" d="M61.5,11.1a0.39,0.39,0,0,1-.25-0.1,0.4,0.4,0,0,1-.1-0.25,0.33,0.33,0,0,1,.11-0.25,0.36,0.36,0,0,1,.49,0,0.32,0.32,0,0,1,.1.24,0.39,0.39,0,0,1-.1.25A0.39,0.39,0,0,1,61.5,11.1Z"/><path class="cls-2" d="M58.75,7.6a0.39,0.39,0,0,1-.25-0.1,0.35,0.35,0,0,1-.1-0.25A0.31,0.31,0,0,1,58.5,7a0.35,0.35,0,0,1,.6.24,0.39,0.39,0,0,1-.1.25A0.39,0.39,0,0,1,58.75,7.6Z"/><path class="cls-2" d="M60,4.85a0.34,0.34,0,0,1-.25-0.11,0.35,0.35,0,0,1-.1-0.24,0.33,0.33,0,0,1,.11-0.25,0.36,0.36,0,0,1,.49,0,0.35,0.35,0,0,1,.1.25,0.39,0.39,0,0,1-.1.25A0.39,0.39,0,0,1,60,4.85Z"/><path class="cls-2" d="M67.5,6.1A0.39,0.39,0,0,1,67.25,6a0.36,0.36,0,0,1-.1-0.25,0.35,0.35,0,0,1,.6-0.25,0.36,0.36,0,0,1,0,.5A0.39,0.39,0,0,1,67.5,6.1Z"/><path class="cls-2" d="M70.75,8.6a0.39,0.39,0,0,1-.25-0.1,0.36,0.36,0,0,1-.1-0.25A0.38,0.38,0,0,1,70.5,8,0.37,0.37,0,0,1,71,8a0.36,0.36,0,0,1,.11.25,0.39,0.39,0,0,1-.1.25A0.39,0.39,0,0,1,70.75,8.6Z"/><path class="cls-2" d="M65.75,9.85a0.39,0.39,0,0,1-.25-0.1,0.4,0.4,0,0,1-.1-0.25A0.35,0.35,0,0,1,66,9.25a0.36,0.36,0,0,1,0,.5A0.39,0.39,0,0,1,65.75,9.85Z"/><path class="cls-2" d="M60.25,23.85a0.39,0.39,0,0,1-.25-0.1,0.36,0.36,0,0,1,0-.5,0.37,0.37,0,0,1,.5,0,0.36,0.36,0,0,1,0,.5A0.39,0.39,0,0,1,60.25,23.85Z"/><path class="cls-2" d="M55.5,23.85a0.39,0.39,0,0,1-.25-0.1,0.36,0.36,0,0,1,0-.5,0.38,0.38,0,0,1,.5,0,0.36,0.36,0,0,1,0,.5A0.39,0.39,0,0,1,55.5,23.85Z"/><path class="cls-2" d="M55.5,18.85a0.34,0.34,0,0,1-.25-0.11,0.35,0.35,0,0,1-.1-0.24,0.33,0.33,0,0,1,.11-0.25,0.36,0.36,0,0,1,.49,0,0.35,0.35,0,0,1,.1.25,0.39,0.39,0,0,1-.1.25A0.39,0.39,0,0,1,55.5,18.85Z"/><path class="cls-2" d="M65,25.85a0.39,0.39,0,0,1-.25-0.1,0.4,0.4,0,0,1-.1-0.25,0.33,0.33,0,0,1,.11-0.25,0.36,0.36,0,0,1,.49,0,0.35,0.35,0,0,1,.1.25,0.39,0.39,0,0,1-.1.25A0.39,0.39,0,0,1,65,25.85Z"/><path class="cls-2" d="M57.75,30.85a0.33,0.33,0,0,1-.25-0.11,0.35,0.35,0,0,1-.1-0.24,0.33,0.33,0,0,1,.11-0.25,0.36,0.36,0,0,1,.49,0,0.35,0.35,0,0,1,.1.25,0.39,0.39,0,0,1-.1.25A0.39,0.39,0,0,1,57.75,30.85Z"/><path class="cls-2" d="M52.75,32.85a0.36,0.36,0,0,1-.25-0.11,0.35,0.35,0,0,1-.1-0.24,0.33,0.33,0,0,1,.11-0.25,0.36,0.36,0,0,1,.49,0,0.35,0.35,0,0,1,.1.25,0.39,0.39,0,0,1-.1.25A0.39,0.39,0,0,1,52.75,32.85Z"/><path class="cls-2" d="M47.5,33.85a0.36,0.36,0,0,1-.25-0.11,0.35,0.35,0,0,1-.1-0.24,0.33,0.33,0,0,1,.11-0.25,0.36,0.36,0,0,1,.49,0,0.35,0.35,0,0,1,.1.25,0.39,0.39,0,0,1-.1.25A0.39,0.39,0,0,1,47.5,33.85Z"/><path class="cls-2" d="M44.25,39.35A0.36,0.36,0,0,1,44,39.24,0.35,0.35,0,0,1,43.9,39a0.4,0.4,0,0,1,.1-0.25,0.37,0.37,0,0,1,.5,0,0.37,0.37,0,0,1,.1.25,0.33,0.33,0,0,1-.11.25A0.34,0.34,0,0,1,44.25,39.35Z"/><path class="cls-2" d="M34,41.6a0.39,0.39,0,0,1-.25-0.1,0.36,0.36,0,0,1,0-.5,0.37,0.37,0,0,1,.5,0,0.36,0.36,0,0,1,0,.5A0.39,0.39,0,0,1,34,41.6Z"/><path class="cls-2" d="M40.75,48.1A0.39,0.39,0,0,1,40.5,48a0.36,0.36,0,0,1,0-.5,0.35,0.35,0,0,1,.49,0,0.34,0.34,0,0,1,.11.25A0.39,0.39,0,0,1,41,48,0.39,0.39,0,0,1,40.75,48.1Z"/><path class="cls-2" d="M45.75,52.35a0.39,0.39,0,0,1-.25-0.1A0.4,0.4,0,0,1,45.4,52a0.33,0.33,0,0,1,.11-0.25,0.35,0.35,0,0,1,.59.25,0.39,0.39,0,0,1-.1.25A0.39,0.39,0,0,1,45.75,52.35Z"/><path class="cls-2" d="M46.5,56.85a0.39,0.39,0,0,1-.25-0.1,0.36,0.36,0,0,1,0-.5,0.35,0.35,0,0,1,.49,0,0.36,0.36,0,0,1,.11.25,0.39,0.39,0,0,1-.1.25A0.39,0.39,0,0,1,46.5,56.85Z"/><path class="cls-2" d="M42,59.6a0.34,0.34,0,0,1-.24-0.1,0.36,0.36,0,0,1-.11-0.25,0.4,0.4,0,0,1,.1-0.25,0.37,0.37,0,0,1,.5,0,0.36,0.36,0,0,1,0,.5A0.39,0.39,0,0,1,42,59.6Z"/><path class="cls-2" d="M40,62.85a0.39,0.39,0,0,1-.25-0.1,0.36,0.36,0,0,1,0-.5,0.37,0.37,0,0,1,.5,0,0.36,0.36,0,0,1,0,.5A0.37,0.37,0,0,1,40,62.85Z"/><path class="cls-2" d="M36,62.85a0.39,0.39,0,0,1-.25-0.1,0.4,0.4,0,0,1-.1-0.25,0.33,0.33,0,0,1,.11-0.25,0.35,0.35,0,0,1,.59.25,0.39,0.39,0,0,1-.1.25A0.39,0.39,0,0,1,36,62.85Z"/><path class="cls-2" d="M36.5,52.85a0.39,0.39,0,0,1-.25-0.1,0.35,0.35,0,0,1-.1-0.25,0.4,0.4,0,0,1,.1-0.25,0.36,0.36,0,0,1,.5,0,0.32,0.32,0,0,1,.1.24,0.39,0.39,0,0,1-.1.25A0.39,0.39,0,0,1,36.5,52.85Z"/><path class="cls-2" d="M30,63.6a0.34,0.34,0,0,1-.24-0.1,0.36,0.36,0,0,1-.11-0.25A0.33,0.33,0,0,1,29.76,63a0.36,0.36,0,0,1,.49,0,0.35,0.35,0,0,1,.1.25,0.39,0.39,0,0,1-.1.25A0.39,0.39,0,0,1,30,63.6Z"/><path class="cls-2" d="M31.5,68.6a0.39,0.39,0,0,1-.25-0.1,0.36,0.36,0,0,1,0-.5,0.37,0.37,0,0,1,.5,0,0.36,0.36,0,0,1,0,.5A0.39,0.39,0,0,1,31.5,68.6Z"/><path class="cls-2" d="M37,71.1a0.39,0.39,0,0,1-.25-0.1,0.38,0.38,0,0,1-.1-0.25,0.33,0.33,0,0,1,.11-0.25,0.36,0.36,0,0,1,.49,0,0.35,0.35,0,0,1,.1.25,0.37,0.37,0,0,1-.1.25A0.39,0.39,0,0,1,37,71.1Z"/><path class="cls-2" d="M63,57.1a0.39,0.39,0,0,1-.25-0.1,0.4,0.4,0,0,1-.1-0.25,0.33,0.33,0,0,1,.11-0.25,0.36,0.36,0,0,1,.49,0,0.35,0.35,0,0,1,.1.25,0.39,0.39,0,0,1-.1.25A0.39,0.39,0,0,1,63,57.1Z"/><path class="cls-2" d="M60,50.85a0.33,0.33,0,0,1-.25-0.11,0.35,0.35,0,0,1-.1-0.24,0.35,0.35,0,0,1,.59-0.25,0.36,0.36,0,0,1,.11.25,0.39,0.39,0,0,1-.1.25A0.37,0.37,0,0,1,60,50.85Z"/><path class="cls-2" d="M54.5,50.6a0.39,0.39,0,0,1-.25-0.1,0.38,0.38,0,0,1-.1-0.25,0.35,0.35,0,0,1,.7,0,0.35,0.35,0,0,1-.1.24A0.34,0.34,0,0,1,54.5,50.6Z"/><path class="cls-2" d="M54.75,41.85a0.36,0.36,0,0,1-.25-0.11,0.33,0.33,0,0,1-.1-0.24,0.4,0.4,0,0,1,.1-0.25,0.37,0.37,0,0,1,.5,0,0.39,0.39,0,0,1,.1.25,0.34,0.34,0,0,1-.11.25A0.34,0.34,0,0,1,54.75,41.85Z"/><path class="cls-2" d="M62.5,42.35a0.39,0.39,0,0,1-.25-0.1,0.36,0.36,0,0,1,0-.5,0.37,0.37,0,0,1,.5,0,0.36,0.36,0,0,1,0,.5A0.39,0.39,0,0,1,62.5,42.35Z"/><path class="cls-2" d="M67,47.6a0.34,0.34,0,0,1-.24-0.1,0.36,0.36,0,0,1-.11-0.25,0.4,0.4,0,0,1,.1-0.25,0.36,0.36,0,0,1,.49,0,0.32,0.32,0,0,1,.11.25,0.39,0.39,0,0,1-.1.25A0.39,0.39,0,0,1,67,47.6Z"/><path class="cls-2" d="M69.5,54.35a0.34,0.34,0,0,1-.24-0.1A0.36,0.36,0,0,1,69.15,54a0.4,0.4,0,0,1,.1-0.25,0.36,0.36,0,0,1,.6.25,0.39,0.39,0,0,1-.1.25A0.39,0.39,0,0,1,69.5,54.35Z"/><path class="cls-2" d="M63.5,61.85a0.34,0.34,0,0,1-.24-0.1,0.36,0.36,0,0,1-.11-0.25,0.4,0.4,0,0,1,.1-0.25,0.36,0.36,0,0,1,.49,0,0.32,0.32,0,0,1,.11.25,0.39,0.39,0,0,1-.1.25A0.39,0.39,0,0,1,63.5,61.85Z"/><path class="cls-2" d="M70.25,61.1A0.39,0.39,0,0,1,70,61a0.4,0.4,0,0,1-.1-0.25A0.33,0.33,0,0,1,70,60.5a0.36,0.36,0,0,1,.49,0,0.35,0.35,0,0,1,.1.25,0.39,0.39,0,0,1-.1.25A0.39,0.39,0,0,1,70.25,61.1Z"/><path class="cls-2" d="M64.75,65.6a0.39,0.39,0,0,1-.25-0.1,0.36,0.36,0,0,1,0-.5,0.36,0.36,0,0,1,.5,0,0.35,0.35,0,0,1,.1.24,0.39,0.39,0,0,1-.1.25A0.39,0.39,0,0,1,64.75,65.6Z"/><path class="cls-2" d="M65.75,68.35a0.39,0.39,0,0,1-.25-0.1,0.36,0.36,0,0,1,0-.5,0.37,0.37,0,0,1,.5,0,0.36,0.36,0,0,1,0,.5A0.39,0.39,0,0,1,65.75,68.35Z"/><path class="cls-2" d="M62.5,70.35a0.39,0.39,0,0,1-.25-0.1,0.4,0.4,0,0,1-.1-0.25,0.34,0.34,0,0,1,.11-0.25,0.36,0.36,0,0,1,.49,0,0.32,0.32,0,0,1,.1.24,0.39,0.39,0,0,1-.1.25A0.39,0.39,0,0,1,62.5,70.35Z"/><path class="cls-2" d="M52.75,69.85a0.35,0.35,0,0,1-.25-0.1,0.36,0.36,0,0,1,0-.5,0.36,0.36,0,0,1,.6.25,0.39,0.39,0,0,1-.1.25A0.37,0.37,0,0,1,52.75,69.85Z"/><path class="cls-2" d="M44.75,66.6a0.34,0.34,0,0,1-.25-0.11,0.35,0.35,0,0,1-.1-0.24A0.33,0.33,0,0,1,44.51,66,0.36,0.36,0,0,1,45,66a0.35,0.35,0,0,1,.1.25,0.39,0.39,0,0,1-.1.25A0.39,0.39,0,0,1,44.75,66.6Z"/><path class="cls-2" d="M28.5,71.35a0.39,0.39,0,0,1-.25-0.1,0.36,0.36,0,0,1-.1-0.25,0.33,0.33,0,0,1,.11-0.25,0.35,0.35,0,0,1,.59.25,0.33,0.33,0,0,1-.11.25A0.34,0.34,0,0,1,28.5,71.35Z"/><path class="cls-2" d="M3,29.6a0.39,0.39,0,0,1-.25-0.1,0.36,0.36,0,0,1,0-.5,0.38,0.38,0,0,1,.5,0,0.36,0.36,0,0,1,0,.5A0.39,0.39,0,0,1,3,29.6Z"/><path class="cls-2" d="M13.25,5.1A0.36,0.36,0,0,1,13,5a0.32,0.32,0,0,1-.1-0.24A0.38,0.38,0,0,1,13,4.5a0.36,0.36,0,0,1,.6.25,0.33,0.33,0,0,1-.11.25A0.34,0.34,0,0,1,13.25,5.1Z"/><path class="cls-2" d="M70.25,34.6A0.39,0.39,0,0,1,70,34.5a0.4,0.4,0,0,1-.1-0.25A0.33,0.33,0,0,1,70,34a0.36,0.36,0,0,1,.49,0,0.35,0.35,0,0,1,.1.25,0.39,0.39,0,0,1-.1.25A0.39,0.39,0,0,1,70.25,34.6Z"/><path class="cls-2" d="M71.25,41.35a0.39,0.39,0,0,1-.25-0.1,0.36,0.36,0,0,1,0-.5,0.37,0.37,0,0,1,.5,0,0.36,0.36,0,0,1,0,.5A0.39,0.39,0,0,1,71.25,41.35Z"/><path class="cls-2" d="M1,51.85a0.39,0.39,0,0,1-.25-0.1,0.4,0.4,0,0,1-.1-0.25,0.33,0.33,0,0,1,.11-0.25,0.36,0.36,0,0,1,.49,0,0.35,0.35,0,0,1,.1.25,0.39,0.39,0,0,1-.1.25A0.39,0.39,0,0,1,1,51.85Z"/><path class="cls-2" d="M72,23.6a0.39,0.39,0,0,1-.25-0.1,0.36,0.36,0,0,1,0-.5,0.38,0.38,0,0,1,.5,0,0.36,0.36,0,0,1,0,.5A0.39,0.39,0,0,1,72,23.6Z"/><path class="cls-2" d="M69,26.6a0.39,0.39,0,0,1-.25-0.1,0.36,0.36,0,0,1,0-.5,0.37,0.37,0,0,1,.5,0,0.39,0.39,0,0,1,.1.25,0.35,0.35,0,0,1-.1.25A0.39,0.39,0,0,1,69,26.6Z"/><path class="cls-2" d="M68.5,60.35a0.39,0.39,0,0,1-.25-0.1,0.4,0.4,0,0,1-.1-0.25,0.35,0.35,0,0,1,.6-0.25,0.36,0.36,0,0,1,0,.5A0.39,0.39,0,0,1,68.5,60.35Z"/><path class="cls-2" d="M71.5,68.35a0.39,0.39,0,0,1-.25-0.1,0.36,0.36,0,0,1,0-.5,0.37,0.37,0,0,1,.5,0,0.39,0.39,0,0,1,.1.25,0.35,0.35,0,0,1-.1.25A0.39,0.39,0,0,1,71.5,68.35Z"/><path class="cls-2" d="M0.5,57.85a0.39,0.39,0,0,1-.25-0.1,0.36,0.36,0,0,1,0-.5,0.38,0.38,0,0,1,.5,0,0.36,0.36,0,0,1,0,.5A0.39,0.39,0,0,1,.5,57.85Z"/><path class="cls-2" d="M2.75,71.35a0.39,0.39,0,0,1-.25-0.1,0.36,0.36,0,0,1,0-.5,0.36,0.36,0,0,1,.6.25,0.39,0.39,0,0,1-.1.25A0.39,0.39,0,0,1,2.75,71.35Z"/><path class="cls-2" d="M70.25,24.1A0.39,0.39,0,0,1,70,24a0.4,0.4,0,0,1-.1-0.25A0.33,0.33,0,0,1,70,23.5a0.36,0.36,0,0,1,.49,0,0.35,0.35,0,0,1,.1.25,0.39,0.39,0,0,1-.1.25A0.39,0.39,0,0,1,70.25,24.1Z"/><path class="cls-2" d="M1.25,16.85A0.39,0.39,0,0,1,1,16.75a0.36,0.36,0,0,1,0-.5,0.38,0.38,0,0,1,.5,0,0.36,0.36,0,0,1,0,.5A0.39,0.39,0,0,1,1.25,16.85Z"/><path class="cls-2" d="M18,13.15a0.65,0.65,0,0,1-.65-0.65A0.66,0.66,0,0,1,17.54,12a0.68,0.68,0,0,1,.92,0A0.65,0.65,0,0,1,18,13.15Z"/><path class="cls-2" d="M29.25,11.15A0.66,0.66,0,0,1,28.79,11a0.68,0.68,0,0,1-.19-0.46A0.66,0.66,0,0,1,28.79,10a0.67,0.67,0,0,1,.92,0,0.66,0.66,0,0,1,.19.46A0.65,0.65,0,0,1,29.25,11.15Z"/><path class="cls-2" d="M29.25,3.65A0.65,0.65,0,0,1,28.6,3a0.64,0.64,0,0,1,.19-0.46,0.68,0.68,0,0,1,.92,0,0.65,0.65,0,0,1,0,.92A0.68,0.68,0,0,1,29.25,3.65Z"/><path class="cls-2" d="M40.25,10.65A0.65,0.65,0,0,1,39.6,10a0.66,0.66,0,0,1,.19-0.46,0.68,0.68,0,0,1,.92,0,0.63,0.63,0,0,1,.19.46,0.68,0.68,0,0,1-.19.46A0.66,0.66,0,0,1,40.25,10.65Z"/><path class="cls-2" d="M45,12.15a0.61,0.61,0,0,1-.46-0.2,0.63,0.63,0,0,1-.19-0.45A0.66,0.66,0,0,1,44.54,11a0.68,0.68,0,0,1,.92,0,0.63,0.63,0,0,1,.19.46,0.61,0.61,0,0,1-.2.46A0.6,0.6,0,0,1,45,12.15Z"/><path class="cls-2" d="M47.25,23.15A0.65,0.65,0,0,1,46.79,22a0.68,0.68,0,0,1,.92,0A0.65,0.65,0,0,1,47.25,23.15Z"/><path class="cls-2" d="M54.75,7.15A0.64,0.64,0,0,1,54.29,7a0.65,0.65,0,0,1,0-.92,0.68,0.68,0,0,1,.92,0,0.64,0.64,0,0,1,.19.46,0.66,0.66,0,0,1-.19.46A0.64,0.64,0,0,1,54.75,7.15Z"/><path class="cls-2" d="M64,6.9a0.65,0.65,0,0,1-.46-1.11,0.68,0.68,0,0,1,.92,0A0.65,0.65,0,0,1,64,6.9Z"/><path class="cls-2" d="M65,2.9a0.66,0.66,0,0,1-.46-0.19,0.68,0.68,0,0,1-.19-0.46,0.66,0.66,0,0,1,.19-0.46,0.68,0.68,0,0,1,.92,0,0.68,0.68,0,0,1,.19.46,0.62,0.62,0,0,1-.18.45A0.67,0.67,0,0,1,65,2.9Z"/><path class="cls-2" d="M69.5,18.4A0.65,0.65,0,0,1,69,17.29a0.67,0.67,0,0,1,.92,0A0.65,0.65,0,0,1,69.5,18.4Z"/><path class="cls-2" d="M8,47.4a0.64,0.64,0,0,1-.46-0.19,0.68,0.68,0,0,1-.19-0.46,0.66,0.66,0,0,1,.19-0.46,0.68,0.68,0,0,1,.92,0,0.66,0.66,0,0,1,.19.46,0.68,0.68,0,0,1-.19.46A0.64,0.64,0,0,1,8,47.4Z"/><path class="cls-2" d="M5,57.15A0.64,0.64,0,0,1,4.54,57a0.65,0.65,0,0,1,0-.92,0.67,0.67,0,0,1,.92,0,0.65,0.65,0,0,1,0,.92A0.64,0.64,0,0,1,5,57.15Z"/><path class="cls-2" d="M2.25,67.4a0.66,0.66,0,0,1-.46-0.19,0.68,0.68,0,0,1-.19-0.46,0.66,0.66,0,0,1,.19-0.46,0.68,0.68,0,0,1,.92,0,0.66,0.66,0,0,1,.19.46,0.68,0.68,0,0,1-.19.46A0.66,0.66,0,0,1,2.25,67.4Z"/><path class="cls-2" d="M17.75,70.15A0.66,0.66,0,0,1,17.29,70a0.68,0.68,0,0,1-.19-0.46A0.66,0.66,0,0,1,17.29,69a0.68,0.68,0,0,1,.92,0,0.66,0.66,0,0,1,.19.46,0.68,0.68,0,0,1-.19.46A0.66,0.66,0,0,1,17.75,70.15Z"/><path class="cls-2" d="M19.25,62.65A0.65,0.65,0,0,1,18.6,62a0.64,0.64,0,0,1,.19-0.46,0.67,0.67,0,0,1,.92,0,0.66,0.66,0,0,1,.19.46,0.68,0.68,0,0,1-.19.46A0.66,0.66,0,0,1,19.25,62.65Z"/><path class="cls-2" d="M21,45.65A0.65,0.65,0,0,1,20.35,45a0.64,0.64,0,0,1,.19-0.46,0.67,0.67,0,0,1,.92,0,0.66,0.66,0,0,1,.19.46,0.68,0.68,0,0,1-.19.46A0.64,0.64,0,0,1,21,45.65Z"/><path class="cls-2" d="M28.5,51.4A0.65,0.65,0,0,1,28,50.29a0.67,0.67,0,0,1,.92,0,0.66,0.66,0,0,1,.19.46,0.68,0.68,0,0,1-.19.46A0.64,0.64,0,0,1,28.5,51.4Z"/><path class="cls-2" d="M34,60.65A0.65,0.65,0,0,1,33.35,60a0.64,0.64,0,0,1,.19-0.46,0.68,0.68,0,0,1,.92,0,0.63,0.63,0,0,1,.19.46,0.64,0.64,0,0,1-.19.46A0.66,0.66,0,0,1,34,60.65Z"/><path class="cls-2" d="M34.25,67.15A0.64,0.64,0,0,1,33.79,67a0.65,0.65,0,0,1,0-.92,0.67,0.67,0,0,1,.92,0,0.65,0.65,0,0,1,0,.92A0.66,0.66,0,0,1,34.25,67.15Z"/><path class="cls-2" d="M41.75,55.4a0.65,0.65,0,0,1-.46-1.11,0.68,0.68,0,0,1,.92,0A0.65,0.65,0,0,1,41.75,55.4Z"/><path class="cls-2" d="M52.25,60.15A0.65,0.65,0,0,1,51.79,59a0.68,0.68,0,0,1,.92,0A0.65,0.65,0,0,1,52.25,60.15Z"/><path class="cls-2" d="M55,65.65a0.66,0.66,0,0,1-.46-0.19A0.68,0.68,0,0,1,54.35,65a0.64,0.64,0,0,1,.19-0.46,0.68,0.68,0,0,1,.92,0,0.64,0.64,0,0,1,.19.46,0.68,0.68,0,0,1-.19.46A0.66,0.66,0,0,1,55,65.65Z"/><path class="cls-2" d="M25.25,24.9a0.66,0.66,0,0,1-.46-0.19,0.68,0.68,0,0,1-.19-0.46,0.66,0.66,0,0,1,.19-0.46,0.68,0.68,0,0,1,.92,0,0.66,0.66,0,0,1,.19.46,0.68,0.68,0,0,1-.19.46A0.66,0.66,0,0,1,25.25,24.9Z"/><path class="cls-2" d="M35.25,23.65a0.64,0.64,0,0,1-.46-0.19,0.65,0.65,0,0,1,0-.92,0.68,0.68,0,0,1,.92,0A0.65,0.65,0,0,1,35.25,23.65Z"/><path class="cls-2" d="M45,29.9a0.65,0.65,0,0,1-.46-1.11,0.68,0.68,0,0,1,.92,0,0.63,0.63,0,0,1,.19.46A0.67,0.67,0,0,1,45,29.9Z"/><path class="cls-2" d="M52,43.4a0.65,0.65,0,0,1-.46-1.11,0.67,0.67,0,0,1,.92,0,0.64,0.64,0,0,1,.19.46A0.65,0.65,0,0,1,52,43.4Z"/><path class="cls-2" d="M67,52.15a0.65,0.65,0,0,1-.65-0.65,0.61,0.61,0,0,1,.2-0.46,0.67,0.67,0,0,1,.91,0A0.65,0.65,0,0,1,67,52.15Z"/><path class="cls-2" d="M47.25,48.15A0.65,0.65,0,0,1,46.79,47a0.68,0.68,0,0,1,.92,0A0.65,0.65,0,0,1,47.25,48.15Z"/><path class="cls-2" d="M37,44.9a0.66,0.66,0,0,1-.46-0.19,0.68,0.68,0,0,1-.19-0.46,0.66,0.66,0,0,1,.19-0.46,0.68,0.68,0,0,1,.92,0,0.66,0.66,0,0,1,.19.46,0.68,0.68,0,0,1-.19.46A0.66,0.66,0,0,1,37,44.9Z"/><path class="cls-2" d="M17,28.9a0.65,0.65,0,0,1-.46-1.11,0.68,0.68,0,0,1,.92,0,0.65,0.65,0,0,1,0,.92A0.64,0.64,0,0,1,17,28.9Z"/><path class="cls-2" d="M11.25,37.15a0.65,0.65,0,0,1-.65-0.65A0.64,0.64,0,0,1,10.79,36a0.67,0.67,0,0,1,.92,0A0.65,0.65,0,0,1,11.25,37.15Z"/><path class="cls-2" d="M67.5,31.15A0.66,0.66,0,0,1,67,31a0.68,0.68,0,0,1-.19-0.46A0.66,0.66,0,0,1,67,30,0.68,0.68,0,0,1,68,30a0.64,0.64,0,0,1,.19.46A0.65,0.65,0,0,1,67.5,31.15Z"/><path class="cls-2" d="M7.25,16.15A0.67,0.67,0,0,1,6.6,15.5,0.66,0.66,0,0,1,6.79,15a0.67,0.67,0,0,1,.92,0,0.65,0.65,0,0,1,0,.92A0.64,0.64,0,0,1,7.25,16.15Z"/><path class="cls-2" d="M8.5,5.65A0.68,0.68,0,0,1,8,5.46,0.66,0.66,0,0,1,7.85,5,0.64,0.64,0,0,1,8,4.54a0.67,0.67,0,0,1,.92,0A0.64,0.64,0,0,1,9.15,5,0.65,0.65,0,0,1,8.5,5.65Z"/><path class="cls-2" d="M3.5,2.9A0.66,0.66,0,0,1,3,2.71a0.68,0.68,0,0,1-.19-0.46A0.66,0.66,0,0,1,3,1.79a0.68,0.68,0,0,1,.92,0,0.66,0.66,0,0,1,.19.46A0.68,0.68,0,0,1,4,2.71,0.66,0.66,0,0,1,3.5,2.9Z"/><path class="cls-2" d="M66.5,37.65A0.65,0.65,0,0,1,66,36.54a0.68,0.68,0,0,1,.92,0,0.64,0.64,0,0,1,.19.46,0.66,0.66,0,0,1-.19.46A0.64,0.64,0,0,1,66.5,37.65Z"/><path class="cls-2" d="M44,63.4a0.66,0.66,0,0,1-.46-0.19,0.68,0.68,0,0,1-.19-0.46,0.66,0.66,0,0,1,.19-0.46,0.67,0.67,0,0,1,.92,0,0.66,0.66,0,0,1,.19.46,0.68,0.68,0,0,1-.19.46A0.66,0.66,0,0,1,44,63.4Z"/><path class="cls-2" d="M25.75,70.4a0.66,0.66,0,0,1-.46-0.19,0.68,0.68,0,0,1-.19-0.46,0.66,0.66,0,0,1,.19-0.46,0.67,0.67,0,0,1,.92,0,0.66,0.66,0,0,1,.19.46,0.68,0.68,0,0,1-.19.46A0.66,0.66,0,0,1,25.75,70.4Z"/><path class="cls-2" d="M22,42.15A0.66,0.66,0,0,1,21.54,42a0.65,0.65,0,0,1,0-.92,0.68,0.68,0,0,1,.92,0A0.65,0.65,0,0,1,22,42.15Z"/><path class="cls-2" d="M24,29.4a0.66,0.66,0,0,1-.46-0.19,0.68,0.68,0,0,1-.19-0.46,0.66,0.66,0,0,1,.19-0.46,0.67,0.67,0,0,1,.92,0,0.64,0.64,0,0,1,.19.46A0.65,0.65,0,0,1,24,29.4Z"/><path class="cls-2" d="M41.5,34.9A0.65,0.65,0,0,1,41,33.79a0.68,0.68,0,0,1,.92,0,0.66,0.66,0,0,1,.19.46,0.68,0.68,0,0,1-.19.46A0.66,0.66,0,0,1,41.5,34.9Z"/><path class="cls-2" d="M67.5,44.15A0.66,0.66,0,0,1,67,44a0.68,0.68,0,0,1-.19-0.46A0.66,0.66,0,0,1,67,43,0.68,0.68,0,0,1,68,43a0.64,0.64,0,0,1,.19.46A0.65,0.65,0,0,1,67.5,44.15Z"/><path class="cls-2" d="M53.25,15.4a0.65,0.65,0,0,1-.46-1.11,0.68,0.68,0,0,1,.92,0,0.66,0.66,0,0,1,.19.46,0.68,0.68,0,0,1-.19.46A0.66,0.66,0,0,1,53.25,15.4Z"/><path class="cls-2" d="M34,16.4a0.66,0.66,0,0,1-.46-0.19,0.68,0.68,0,0,1-.19-0.46,0.64,0.64,0,0,1,.19-0.46,0.68,0.68,0,0,1,.92,0,0.64,0.64,0,0,1,.19.46A0.65,0.65,0,0,1,34,16.4Z"/><path class="cls-2" d="M12.75,19.65a0.65,0.65,0,0,1-.46-1.11,0.67,0.67,0,0,1,.92,0A0.65,0.65,0,0,1,12.75,19.65Z"/><path class="cls-2" d="M49.5,4.9A0.65,0.65,0,0,1,49,3.79a0.68,0.68,0,0,1,.92,0A0.65,0.65,0,0,1,49.5,4.9Z"/><path class="cls-2" d="M59,21.15A0.65,0.65,0,0,1,58.54,20a0.68,0.68,0,0,1,.92,0,0.64,0.64,0,0,1,.19.46A0.65,0.65,0,0,1,59,21.15Z"/><path class="cls-2" d="M67.5,57.65A0.66,0.66,0,0,1,67,57.46,0.68,0.68,0,0,1,66.85,57,0.66,0.66,0,0,1,67,56.54a0.68,0.68,0,0,1,.92,0,0.64,0.64,0,0,1,.19.46A0.65,0.65,0,0,1,67.5,57.65Z"/><path class="cls-2" d="M5.25,70.15A0.64,0.64,0,0,1,4.79,70a0.65,0.65,0,0,1,0-.92,0.67,0.67,0,0,1,.92,0,0.65,0.65,0,0,1,0,.92A0.64,0.64,0,0,1,5.25,70.15Z"/><path class="cls-2" d="M2.75,13.65a0.61,0.61,0,0,1-.46-0.2A0.62,0.62,0,0,1,2.1,13a0.66,0.66,0,0,1,.19-0.46,0.67,0.67,0,0,1,.92,0,0.65,0.65,0,0,1,0,.92A0.64,0.64,0,0,1,2.75,13.65Z"/><path class="cls-2" d="M16.5,3.65A0.65,0.65,0,0,1,16,2.54a0.68,0.68,0,0,1,.92,0A0.65,0.65,0,0,1,16.5,3.65Z"/><path class="cls-2" d="M40.5,4.9A0.65,0.65,0,0,1,40,3.79a0.68,0.68,0,0,1,.92,0,0.64,0.64,0,0,1,.19.46A0.65,0.65,0,0,1,40.5,4.9Z"/><path class="cls-2" d="M2.75,32.4a0.64,0.64,0,0,1-.46-0.19,0.65,0.65,0,0,1,0-.92,0.68,0.68,0,0,1,.92,0A0.65,0.65,0,0,1,2.75,32.4Z"/><path class="cls-2" d="M7.5,25.4A0.64,0.64,0,0,1,7,25.21a0.65,0.65,0,0,1,0-.92,0.68,0.68,0,0,1,.92,0,0.64,0.64,0,0,1,.19.46,0.66,0.66,0,0,1-.19.46A0.64,0.64,0,0,1,7.5,25.4Z"/><path class="cls-2" d="M4,47.15A0.66,0.66,0,0,1,3.54,47a0.68,0.68,0,0,1-.19-0.46A0.66,0.66,0,0,1,3.54,46a0.67,0.67,0,0,1,.92,0,0.66,0.66,0,0,1,.19.46,0.68,0.68,0,0,1-.19.46A0.64,0.64,0,0,1,4,47.15Z"/><path class="cls-2" d="M11,50.9a0.66,0.66,0,0,1-.46-0.19,0.68,0.68,0,0,1-.19-0.46,0.64,0.64,0,0,1,.19-0.46,0.68,0.68,0,0,1,.92,0,0.66,0.66,0,0,1,.19.46,0.68,0.68,0,0,1-.19.46A0.66,0.66,0,0,1,11,50.9Z"/><path class="cls-2" d="M10,60.15A0.64,0.64,0,0,1,9.54,60a0.65,0.65,0,0,1,0-.92,0.68,0.68,0,0,1,.92,0,0.65,0.65,0,0,1,0,.92A0.64,0.64,0,0,1,10,60.15Z"/><path class="cls-2" d="M13.5,66.15A0.66,0.66,0,0,1,13,66a0.68,0.68,0,0,1-.19-0.46A0.64,0.64,0,0,1,13,65,0.67,0.67,0,0,1,14,65a0.66,0.66,0,0,1,.19.46A0.68,0.68,0,0,1,14,66,0.66,0.66,0,0,1,13.5,66.15Z"/><path class="cls-2" d="M22,53.65a0.66,0.66,0,0,1-.46-0.19A0.64,0.64,0,0,1,21.35,53a0.6,0.6,0,0,1,.2-0.46,0.65,0.65,0,0,1,1.1.46,0.68,0.68,0,0,1-.19.46A0.66,0.66,0,0,1,22,53.65Z"/><path class="cls-2" d="M31.25,37.9a0.66,0.66,0,0,1-.46-0.19,0.68,0.68,0,0,1-.19-0.46,0.66,0.66,0,0,1,.19-0.46,0.68,0.68,0,0,1,.92,0,0.66,0.66,0,0,1,.19.46,0.68,0.68,0,0,1-.19.46A0.66,0.66,0,0,1,31.25,37.9Z"/><path class="cls-2" d="M26,34.4a0.65,0.65,0,0,1-.46-1.11,0.67,0.67,0,0,1,.92,0A0.65,0.65,0,0,1,26,34.4Z"/><path class="cls-2" d="M37.25,28.9a0.66,0.66,0,0,1-.46-0.19,0.68,0.68,0,0,1-.19-0.46,0.66,0.66,0,0,1,.19-0.46,0.68,0.68,0,0,1,.92,0,0.66,0.66,0,0,1,.19.46,0.68,0.68,0,0,1-.19.46A0.66,0.66,0,0,1,37.25,28.9Z"/><path class="cls-2" d="M61.75,16.9a0.66,0.66,0,0,1-.46-0.19,0.68,0.68,0,0,1-.19-0.46,0.66,0.66,0,0,1,.19-0.46,0.68,0.68,0,0,1,.92,0,0.64,0.64,0,0,1,.19.46A0.65,0.65,0,0,1,61.75,16.9Z"/><path class="cls-2" d="M61.25,27.4a0.64,0.64,0,0,1-.46-0.19,0.68,0.68,0,0,1-.19-0.46,0.66,0.66,0,0,1,.19-0.46,0.68,0.68,0,0,1,.92,0,0.65,0.65,0,0,1,0,.92A0.64,0.64,0,0,1,61.25,27.4Z"/><path class="cls-2" d="M58.75,57.4a0.66,0.66,0,0,1-.46-0.19,0.68,0.68,0,0,1-.19-0.46,0.66,0.66,0,0,1,.19-0.46,0.68,0.68,0,0,1,.92,0,0.66,0.66,0,0,1,.19.46,0.68,0.68,0,0,1-.19.46A0.66,0.66,0,0,1,58.75,57.4Z"/><path class="cls-2" d="M59.25,44.65a0.64,0.64,0,0,1-.46-0.19,0.65,0.65,0,0,1,0-.92,0.68,0.68,0,0,1,.92,0,0.65,0.65,0,0,1,0,.92A0.64,0.64,0,0,1,59.25,44.65Z"/><path class="cls-2" d="M55.75,35.9a0.66,0.66,0,0,1-.46-0.19,0.68,0.68,0,0,1-.19-0.46,0.66,0.66,0,0,1,.19-0.46,0.68,0.68,0,0,1,.92,0,0.66,0.66,0,0,1,.19.46,0.68,0.68,0,0,1-.19.46A0.66,0.66,0,0,1,55.75,35.9Z"/><path class="cls-2" d="M69.25,70.9a0.68,0.68,0,0,1-.46-0.19,0.65,0.65,0,0,1,0-.92,0.69,0.69,0,0,1,.92,0A0.65,0.65,0,0,1,69.25,70.9Z"/><path class="cls-2" d="M60.75,66.15A0.65,0.65,0,0,1,60.29,65a0.67,0.67,0,0,1,.92,0,0.64,0.64,0,0,1,.19.46A0.65,0.65,0,0,1,60.75,66.15Z"/><path class="cls-2" d="M44.5,71.65A0.65,0.65,0,0,1,44,70.54a0.68,0.68,0,0,1,.92,0A0.65,0.65,0,0,1,44.5,71.65Z"/><path class="cls-2" d="M24.5,1.4A0.65,0.65,0,0,1,23.85.75,0.64,0.64,0,0,1,24,.29a0.67,0.67,0,0,1,.92,0,0.66,0.66,0,0,1,.19.46,0.68,0.68,0,0,1-.19.46A0.64,0.64,0,0,1,24.5,1.4Z"/><path class="cls-2" d="M0,23.6a0.39,0.39,0,0,1-.25-0.1,0.36,0.36,0,0,1,0-.5,0.38,0.38,0,0,1,.5,0,0.39,0.39,0,0,1,.1.25,0.39,0.39,0,0,1-.1.25A0.39,0.39,0,0,1,0,23.6Z"/></pattern></defs><title>CP_CohesionPowdery</title><rect class="cls-3" x="0.92" y="-1" width="649.42" height="100.96"/></svg>