<svg id="Cohesion_Malleable" xmlns="http://www.w3.org/2000/svg" xmlns:xlink="http://www.w3.org/1999/xlink" viewBox="0 0 500 100"><defs><style>.cls-1,.cls-2{fill:none;}.cls-2{stroke:#1d1d1b;stroke-linecap:round;stroke-miterlimit:10;stroke-dasharray:0.1 3 0.1 3 0.1 6;}.cls-3{fill:url(#Lignes_de_cercle);}</style><pattern id="Lignes_de_cercle" data-name="Lignes de cercle" width="85.5" height="93" patternTransform="translate(-171.52 -154.8) scale(1.82)" patternUnits="userSpaceOnUse" viewBox="0 0 85.5 93"><rect class="cls-1" width="85.5" height="93"/><path class="cls-2" d="M85.5,3.71C104.79,3,126,3,154.5,4c4.34,0.15,11.31-.3,16.5-0.29"/><path class="cls-2" d="M85.5,10.56C110,8,131.23,11.79,148.5,10c3.67-.38,12.75.46,22.5,0.56"/><path class="cls-2" d="M85.5,17.49c21.5-1.49,27.3,1.4,59-1.24,9-.75,23.49,1.42,26.5,1.24"/><path class="cls-2" d="M85.5,22.9c14.41,0.72,30.66,2.35,49.63.4,9.76-1,22.62-.14,35.88-0.4"/><path class="cls-2" d="M85.5,36.71c18.07-.27,22.29-1.93,56-0.21,14.75,0.75,22.5,1,29.5.21"/><path class="cls-2" d="M85.5,42.94c12.85,0.5,24.5-1.44,45.62.11,16.54,1.21,29.92-1.42,39.88-.11"/><path class="cls-2" d="M85.5,56.38C106,56,103,55.63,130.5,56.5c31.5,1,40-.13,40.5-0.12"/><path class="cls-2" d="M85.5,63.66c20.94-.32,17.61,1,50.25-0.91,2.06-.12,26.25,2.25,35.25.91"/><path class="cls-2" d="M85.5,68.9a431.07,431.07,0,0,0,50.62.65c9.51-.48,20.38.45,34.88-0.65"/><path class="cls-2" d="M85.5,75.9c20.94,0.53,52.5-.4,73.5.35,1.41,0.05,10.49-.28,12-0.35"/><path class="cls-2" d="M85.5,83.41c30-1.91,65,1.09,79.5.09,1.76-.12,4.1,0,6-0.09"/><path class="cls-2" d="M85.5,89.53c10.68,0.16,21.46-1.1,38.5,0,24,1.5,41.78.12,47,0"/><path class="cls-2" d="M85.5,50.29c22.15-.63,46.5-1.79,57.75-0.79a254.17,254.17,0,0,0,27.75.79"/><path class="cls-2" d="M85.5,29.71c18.07-.27,22-1.21,46-0.21,21.48,0.89,30.5,1,39.5.21"/><path class="cls-2" d="M0,3.71C19.29,3,40.5,3,69,4c4.34,0.15,11.31-.3,16.5-0.29"/><path class="cls-2" d="M0,10.56C24.5,8,45.73,11.79,63,10c3.67-.38,12.75.46,22.5,0.56"/><path class="cls-2" d="M0,17.49c21.5-1.49,27.3,1.4,59-1.24,9-.75,23.49,1.42,26.5,1.24"/><path class="cls-2" d="M0,22.9c14.41,0.72,30.66,2.35,49.63.4,9.76-1,22.62-.14,35.87-0.4"/><path class="cls-2" d="M0,36.71c18.07-.27,22.29-1.93,56-0.21,14.75,0.75,22.5,1,29.5.21"/><path class="cls-2" d="M0,42.94c12.85,0.5,24.5-1.44,45.62.11,16.54,1.21,29.92-1.42,39.88-.11"/><path class="cls-2" d="M0,56.38C20.5,56,17.51,55.63,45,56.5c31.5,1,40-.13,40.5-0.12"/><path class="cls-2" d="M0,63.66c20.94-.32,17.61,1,50.25-0.91,2.06-.12,26.25,2.25,35.25.91"/><path class="cls-2" d="M0,68.9a431.07,431.07,0,0,0,50.62.65C60.14,69.07,71,70,85.5,68.9"/><path class="cls-2" d="M0,75.9c20.94,0.53,52.5-.4,73.5.35C74.91,76.3,84,76,85.5,75.9"/><path class="cls-2" d="M0,83.41c30-1.91,65,1.09,79.5.09,1.76-.12,4.1,0,6-0.09"/><path class="cls-2" d="M0,89.53c10.68,0.16,21.46-1.1,38.5,0,24,1.5,41.78.12,47,0"/><path class="cls-2" d="M0,50.29c22.15-.63,46.5-1.79,57.75-0.79a254.17,254.17,0,0,0,27.75.79"/><path class="cls-2" d="M0,29.71c18.07-.27,22-1.21,46-0.21,21.48,0.89,30.5,1,39.5.21"/><path class="cls-2" d="M-85.5,3.71C-66.21,3-45,3-16.5,4-12.16,4.15-5.19,3.7,0,3.71"/><path class="cls-2" d="M-85.5,10.56C-61,8-39.77,11.79-22.5,10c3.67-.38,12.75.46,22.5,0.56"/><path class="cls-2" d="M-85.5,17.49c21.5-1.49,27.3,1.4,59-1.24C-17.5,15.5-3,17.67,0,17.49"/><path class="cls-2" d="M-85.5,22.9c14.41,0.72,30.66,2.35,49.63.4,9.76-1,22.62-.14,35.88-0.4"/><path class="cls-2" d="M-85.5,36.71c18.07-.27,22.29-1.93,56-0.21,14.75,0.75,22.5,1,29.5.21"/><path class="cls-2" d="M-85.5,42.94c12.85,0.5,24.5-1.44,45.62.11C-23.33,44.27-10,41.63,0,42.94"/><path class="cls-2" d="M-85.5,56.38C-65,56-68,55.63-40.5,56.5c31.5,1,40-.13,40.5-0.12"/><path class="cls-2" d="M-85.5,63.66c20.94-.32,17.61,1,50.25-0.91C-33.19,62.63-9,65,0,63.66"/><path class="cls-2" d="M-85.5,68.9a431.07,431.07,0,0,0,50.62.65C-25.36,69.07-14.5,70,0,68.9"/><path class="cls-2" d="M-85.5,75.9c20.94,0.53,52.5-.4,73.5.35C-10.59,76.3-1.51,76,0,75.9"/><path class="cls-2" d="M-85.5,83.41c30-1.91,65,1.09,79.5.09,1.76-.12,4.1,0,6-0.09"/><path class="cls-2" d="M-85.5,89.53c10.68,0.16,21.46-1.1,38.5,0,24,1.5,41.78.12,47,0"/><path class="cls-2" d="M-85.5,50.29c22.15-.63,46.5-1.79,57.75-0.79A254.17,254.17,0,0,0,0,50.29"/><path class="cls-2" d="M-85.5,29.71c18.07-.27,22-1.21,46-0.21C-18,30.39-9,30.5,0,29.71"/></pattern></defs><title>CP_CohesionMalleable</title><rect class="cls-3" x="-0.67" y="0.21" width="501.66" height="100.29"/></svg>