<svg id="TwinLines_Grain_Large_" data-name="TwinLines (Grain Large)" xmlns="http://www.w3.org/2000/svg" viewBox="0 0 650 50"><defs><style>.cls-1{fill:none;stroke:#1d1d1b;stroke-miterlimit:10;stroke-width:0.5px;}</style></defs><title>M_TwinLinesGrainLarge</title><line class="cls-1" x1="166.4" y1="6.53" x2="230.56" y2="45.89"/><line class="cls-1" x1="167.71" y1="1.22" x2="243.58" y2="46.52"/><line class="cls-1" x1="179.26" y1="0.18" x2="248.59" y2="38.6"/><line class="cls-1" x1="163.77" y1="16.94" x2="203.67" y2="45.89"/><line class="cls-1" x1="0.02" y1="15.02" x2="18.91" y2="28.56"/><line class="cls-1" x1="0.23" y1="11.11" x2="21.07" y2="21.25"/><line class="cls-1" x1="0.23" y1="7.52" x2="22.03" y2="16.1"/><line class="cls-1" x1="7.09" y1="50" x2="18.2" y2="42.09"/><line class="cls-1" x1="92.27" y1="12.51" x2="108.1" y2="0.22"/><line class="cls-1" x1="102.17" y1="0.22" x2="89.07" y2="9.91"/><line class="cls-1" x1="353.61" y1="6.74" x2="402.73" y2="45.89"/><line class="cls-1" x1="358.03" y1="3.41" x2="436.67" y2="42.98"/><line class="cls-1" x1="365.37" y1="0.13" x2="438.96" y2="37.54"/><line class="cls-1" x1="256.33" y1="49.99" x2="300.68" y2="2.68"/><polyline class="cls-1" points="311.61 6.84 294.96 21.13 259.83 51.29"/><line class="cls-1" x1="600.4" y1="50" x2="548.32" y2="10.19"/><line class="cls-1" x1="551.3" y1="4.83" x2="619.84" y2="42.98"/><line class="cls-1" x1="552.83" y1="2.88" x2="620.81" y2="39.55"/><line class="cls-1" x1="624.09" y1="27.9" x2="650.35" y2="31.87"/><line class="cls-1" x1="624.34" y1="25.25" x2="650.35" y2="25.94"/><line class="cls-1" x1="528.97" y1="21.22" x2="533.78" y2="50.02"/><line class="cls-1" x1="525.02" y1="18.71" x2="530.38" y2="50.02"/></svg>