<svg id="TwinLines_Grain_Large_" data-name="TwinLines (Grain Large)" xmlns="http://www.w3.org/2000/svg" viewBox="0 0 500 100"><defs><style>.cls-1{fill:none;stroke:#1d1d1b;stroke-miterlimit:10;stroke-width:0.5px;}</style></defs><title>M_TwinLinesGrainLarge</title><line class="cls-1" x1="166.02" y1="8.42" x2="230.18" y2="54.87"/><line class="cls-1" x1="167.33" y1="2.16" x2="241.12" y2="54.64"/><line class="cls-1" x1="177.46" x2="248.21" y2="46.26"/><line class="cls-1" x1="163.39" y1="20.7" x2="203.29" y2="54.87"/><line class="cls-1" y1="18.44" x2="18.9" y2="34.41"/><line class="cls-1" x1="0.21" y1="13.82" x2="21.05" y2="25.79"/><line class="cls-1" x1="0.21" y1="9.59" x2="22.02" y2="19.72"/><line class="cls-1" y1="65.48" x2="17.97" y2="50.39"/><line class="cls-1" x1="22.62" y1="58.75" y2="75.2"/><line class="cls-1" y1="83.12" x2="25.89" y2="64.63"/><line class="cls-1" x1="93.36" y1="16.16" x2="111"/><line class="cls-1" x1="104.67" x2="90.69" y2="12.21"/><line class="cls-1" x1="316.3" y1="87.48" x2="384.16" y2="62.85"/><line class="cls-1" x1="385.39" y1="67.27" x2="319.05" y2="92.17"/><line class="cls-1" x1="393.14" y1="94.9" x2="350.74" y2="100.32"/><line class="cls-1" x1="354.23" y1="7.71" x2="403.6" y2="54.15"/><line class="cls-1" x1="358.67" y1="3.68" x2="436.16" y2="49.69"/><line class="cls-1" x1="365.9" y1="-0.13" x2="438.41" y2="43.37"/><line class="cls-1" x1="257.95" y1="59.71" x2="302.3" y2="3.88"/><polyline class="cls-1" points="313.22 8.79 296.58 25.65 261.44 61.24"/><line class="cls-1" x1="443.14" y1="95.23" x2="482.55" y2="76.77"/><line class="cls-1" x1="489.2" y1="79.79" x2="446.29" y2="100.72"/><line class="cls-1" x1="120.57" y1="68.13" x2="106.44" y2="99.88"/><line class="cls-1" x1="128.84" y1="65.41" x2="113.85" y2="99.88"/><line class="cls-1" x1="136.55" y1="62.88" x2="118.92" y2="99.88"/></svg>