<svg id="TwinLines_Grain_Small_" data-name="TwinLines (Grain Small)" xmlns="http://www.w3.org/2000/svg" viewBox="0 0 1689.08 496.61"><defs><style>.cls-1,.cls-2{fill:none;}.cls-1{stroke:#1d1d1b;stroke-miterlimit:10;stroke-width:0.5px;}</style></defs><title>M_TwinLinesGrainSmall</title><line class="cls-1" x1="346.19" y1="68.85" x2="382.25" y2="94.96"/><line class="cls-1" x1="347.01" y1="64.97" x2="389.91" y2="94.96"/><line class="cls-1" x1="349" y1="60.82" x2="394.06" y2="90.49"/><line class="cls-1" x1="344.56" y1="76.47" x2="366.25" y2="94.96"/><line class="cls-1" x1="167.5" y1="78.75" x2="192.36" y2="46.46"/><line class="cls-1" x1="170.43" y1="80.63" x2="195.73" y2="47.94"/><line class="cls-1" x1="200.05" y1="49.83" x2="178.37" y2="83.91"/><line class="cls-1" x1="26.04" y1="10.07" x2="27.99" y2="30.81"/><line class="cls-1" x1="31.68" y1="31.33" x2="30.83" y2="10.74"/><line class="cls-1" x1="31.68" y1="10.86" x2="33.17" y2="31.33"/><line class="cls-1" x1="35.73" y1="11.43" x2="38.62" y2="32.32"/><line class="cls-1" x1="13.2" y1="78.02" x2="37.18" y2="60.21"/><line class="cls-1" x1="39.5" y1="62.37" x2="11.76" y2="84.5"/><path class="cls-1" d="M57.53,78.17c1-2.67,24.17-32.91,24.17-32.91" transform="translate(0 0.21)"/><line class="cls-1" x1="85.34" y1="47.11" x2="59.75" y2="79.65"/><line class="cls-1" x1="64.05" y1="83.25" x2="89.03" y2="48.78"/><line class="cls-1" x1="90.67" y1="49.52" x2="66.33" y2="84.5"/><line class="cls-1" x1="121.2" y1="12.34" x2="134.04" y2="2.42"/><line class="cls-1" x1="137.62" y1="3.71" x2="123.3" y2="14.9"/><line class="cls-1" x1="139.15" y1="4.26" x2="123.99" y2="15.75"/><line class="cls-1" x1="162.83" y1="77.5" x2="153.94" y2="45.02"/><line class="cls-1" x1="158.39" y1="41.63" x2="169.26" y2="76.47"/><line class="cls-1" x1="138.73" y1="29.21" x2="172.79" y2="23.62"/><line class="cls-1" x1="141.43" y1="32.32" x2="173.19" y2="26.42"/><line class="cls-1" x1="152.4" y1="120.48" x2="98.81" y2="100.79"/><line class="cls-1" x1="99.82" y1="99.56" x2="154.95" y2="116.75"/><line class="cls-1" x1="101.96" y1="96.97" x2="158.39" y2="111.73"/><line class="cls-1" x1="31.26" y1="135.7" x2="45.8" y2="121.94"/><line class="cls-1" x1="49.77" y1="122.22" x2="33.96" y2="136.68"/><line class="cls-1" x1="245.5" y1="38.87" x2="246.5" y2="56.01"/><line class="cls-1" x1="247.17" y1="38.92" x2="251.33" y2="56.01"/><line class="cls-1" x1="248.86" y1="38.87" x2="254.5" y2="56.01"/><line class="cls-1" x1="87.44" y1="10.86" x2="86.85" y2="24.91"/><line class="cls-1" x1="90.67" y1="9.3" x2="89.03" y2="26.42"/><line class="cls-1" x1="92.63" y1="8.62" x2="99.84" y2="28.55"/><line class="cls-1" x1="93.86" y1="8.09" x2="103.38" y2="27.54"/><rect class="cls-2" y="0.21" width="650" height="150.07"/><line class="cls-1" x1="206.49" y1="10" x2="213.5" y2="0.21"/><line class="cls-1" x1="217.33" y1="0.21" x2="214.18" y2="11.21"/><path class="cls-1" d="M272.75,8.42S311,2.88,311,2.88" transform="translate(0 0.21)"/><line class="cls-1" x1="309.9" y1="7.21" x2="273.13" y2="11.21"/><line class="cls-1" x1="273.35" y1="12.7" x2="310.03" y2="9.21"/><path class="cls-1" d="M274.14,15.33c1.53,0.17,31.51,10.88,31.51,10.88" transform="translate(0 0.21)"/><line class="cls-1" x1="235.44" y1="106.86" x2="253.07" y2="91.71"/><line class="cls-1" x1="261.36" y1="92.93" x2="236.73" y2="110.63"/><line class="cls-1" x1="238.05" y1="114.51" x2="263.43" y2="96.61"/><line class="cls-1" x1="304.04" y1="72.17" x2="316.88" y2="59.26"/><line class="cls-1" x1="313.13" y1="56.47" x2="301.09" y2="68.85"/><line class="cls-1" x1="361.6" y1="29.21" x2="366.25" y2="0.21"/><line class="cls-1" x1="371.53" y1="0.21" x2="364.22" y2="32.32"/><line class="cls-1" x1="375.25" y1="0.21" x2="366.25" y2="32.94"/><line class="cls-1" x1="355.78" y1="129.49" x2="361.6" y2="150.21"/><line class="cls-1" x1="363.49" y1="122.58" x2="371.53" y2="150.28"/><line class="cls-1" x1="366.25" y1="119.71" x2="375.25" y2="150.21"/><line class="cls-1" x1="414.2" y1="125" x2="383.4" y2="150.28"/><line class="cls-1" x1="415.28" y1="126.73" x2="388" y2="150.28"/><line class="cls-1" x1="424.21" y1="64.97" x2="430.97" y2="32.32"/><line class="cls-1" x1="434.23" y1="34.2" x2="432.66" y2="68.45"/><line class="cls-1" x1="436.99" y1="70.23" x2="436.99" y2="36.16"/><path class="cls-1" d="M429,30.24c-0.33,1.24-7.53,33.37-7.53,33.37" transform="translate(0 0.21)"/><line class="cls-1" x1="434.23" y1="115.25" x2="473.54" y2="100.46"/><line class="cls-1" x1="474.26" y1="103.11" x2="435.63" y2="118.07"/><line class="cls-1" x1="439.07" y1="125" x2="478.8" y2="119.71"/><line class="cls-1" x1="469.99" y1="11.21" x2="504" y2="2.05"/><line class="cls-1" x1="507.34" y1="5.21" x2="472.03" y2="14.01"/><line class="cls-1" x1="474.52" y1="19.56" x2="504" y2="24.05"/><line class="cls-1" x1="504.05" y1="56.01" x2="520.55" y2="70.23"/><line class="cls-1" x1="506" y1="53.64" x2="529.31" y2="67.09"/><line class="cls-1" x1="507.34" y1="51.32" x2="533.04" y2="65.75"/><line class="cls-1" x1="190.72" y1="103.11" x2="224.75" y2="125"/><line class="cls-1" x1="189.21" y1="107.85" x2="211.62" y2="129.49"/><line class="cls-1" x1="187.05" y1="111.92" x2="207.74" y2="130.77"/><path class="cls-1" d="M560.94,105.35" transform="translate(0 0.21)"/><line class="cls-1" x1="564.66" y1="84.58" x2="586.33" y2="56.01"/><polyline class="cls-1" points="594.53 56.7 585.67 66.51 566.96 87.22"/><line class="cls-1" x1="610.85" y1="87.22" x2="587.42" y2="64.97"/><line class="cls-1" x1="590.5" y1="61.16" x2="613.44" y2="77.03"/><line class="cls-1" x1="591.22" y1="60.36" x2="614.12" y2="74.19"/><path class="cls-1" d="M567.78,9.59c1.22-.75,13-9.59,13-9.59" transform="translate(0 0.21)"/><line class="cls-1" x1="587.42" y1="0.21" x2="570.64" y2="11.82"/><line class="cls-1" x1="601.97" y1="0.21" x2="606.46" y2="11.21"/><line class="cls-1" x1="605" y1="0.76" x2="607.96" y2="8.55"/><line class="cls-1" x1="618.16" y1="22.48" x2="627.31" y2="14.29"/><line class="cls-1" x1="631.38" y1="14.01" x2="621.92" y2="24.64"/><line class="cls-1" x1="635.38" y1="2.05" x2="645.65" y2="16.9"/><line class="cls-1" x1="637.92" y1="0.21" x2="649.18" y2="15.39"/><line class="cls-1" x1="634.52" y1="51.32" x2="650" y2="47.86"/><line class="cls-1" x1="634.67" y1="53.64" x2="650" y2="53.04"/><line class="cls-1" x1="641.29" y1="72.59" x2="650" y2="65.75"/><line class="cls-1" x1="506" y1="118.28" x2="529.31" y2="107.02"/><line class="cls-1" x1="533.04" y1="108.7" x2="505" y2="122.35"/><line class="cls-1" x1="504.47" y1="129.49" x2="546.03" y2="120.81"/><line class="cls-1" x1="580.19" y1="133.47" x2="593.81" y2="142.42"/><line class="cls-1" x1="595.75" y1="140.58" x2="579.65" y2="130.96"/><line class="cls-1" x1="589.02" y1="124.03" x2="593.81" y2="139.42"/><line class="cls-1" x1="319.87" y1="102.92" x2="305.65" y2="132.54"/><line class="cls-1" x1="325" y1="101.35" x2="309.9" y2="133.53"/><line class="cls-1" x1="312.22" y1="134.07" x2="329.78" y2="99.9"/><line class="cls-1" x1="632.83" y1="139.85" x2="650" y2="132.93"/><line class="cls-1" x1="635.38" y1="144.38" x2="650" y2="139.85"/><line class="cls-1" x1="346.19" y1="307.82" x2="382.25" y2="333.88"/><line class="cls-1" x1="347.01" y1="303.94" x2="389.91" y2="333.88"/><line class="cls-1" x1="349" y1="299.81" x2="394.06" y2="329.42"/><line class="cls-1" x1="344.56" y1="315.43" x2="366.25" y2="333.88"/><line class="cls-1" x1="167.5" y1="317.7" x2="192.36" y2="285.48"/><line class="cls-1" x1="170.43" y1="319.58" x2="195.73" y2="286.95"/><line class="cls-1" x1="200.05" y1="288.84" x2="178.37" y2="322.85"/><line class="cls-1" x1="26.04" y1="249.15" x2="27.99" y2="269.85"/><line class="cls-1" x1="31.68" y1="270.38" x2="30.83" y2="249.83"/><line class="cls-1" x1="31.68" y1="249.95" x2="33.17" y2="270.38"/><line class="cls-1" x1="35.73" y1="250.52" x2="38.62" y2="271.36"/><line class="cls-1" x1="13.2" y1="316.98" x2="37.18" y2="299.19"/><line class="cls-1" x1="39.5" y1="301.35" x2="11.76" y2="323.44"/><path class="cls-1" d="M57.53,317.12c1-2.67,24.17-32.85,24.17-32.85" transform="translate(0 0.21)"/><line class="cls-1" x1="85.34" y1="286.12" x2="59.75" y2="318.6"/><line class="cls-1" x1="64.05" y1="322.19" x2="89.03" y2="287.79"/><line class="cls-1" x1="90.67" y1="288.53" x2="66.33" y2="323.44"/><line class="cls-1" x1="121.2" y1="251.42" x2="134.04" y2="241.52"/><line class="cls-1" x1="137.62" y1="242.8" x2="123.3" y2="253.98"/><line class="cls-1" x1="139.15" y1="243.35" x2="123.99" y2="254.82"/><line class="cls-1" x1="162.83" y1="316.46" x2="153.94" y2="284.03"/><line class="cls-1" x1="158.39" y1="280.66" x2="169.26" y2="315.43"/><line class="cls-1" x1="138.73" y1="268.25" x2="172.79" y2="262.68"/><line class="cls-1" x1="141.43" y1="271.36" x2="173.19" y2="265.47"/><line class="cls-1" x1="111.67" y1="338.42" x2="101.96" y2="335.89"/><line class="cls-1" x1="245.5" y1="277.9" x2="246.5" y2="295.01"/><line class="cls-1" x1="247.17" y1="277.95" x2="251.33" y2="295.01"/><line class="cls-1" x1="248.86" y1="277.9" x2="254.5" y2="295.01"/><line class="cls-1" x1="87.44" y1="249.95" x2="86.85" y2="263.97"/><line class="cls-1" x1="90.67" y1="248.39" x2="89.03" y2="265.47"/><line class="cls-1" x1="92.63" y1="247.71" x2="99.84" y2="267.6"/><line class="cls-1" x1="93.86" y1="247.18" x2="103.38" y2="266.59"/><rect class="cls-2" y="239.31" width="650" height="99.11"/><line class="cls-1" x1="206.49" y1="249.09" x2="213.5" y2="239.31"/><line class="cls-1" x1="217.33" y1="239.31" x2="214.18" y2="250.29"/><path class="cls-1" d="M272.75,247.51S311,242,311,242" transform="translate(0 0.21)"/><line class="cls-1" x1="309.9" y1="246.3" x2="273.13" y2="250.29"/><line class="cls-1" x1="273.35" y1="251.78" x2="310.03" y2="248.29"/><path class="cls-1" d="M274.14,254.41c1.53,0.17,31.51,10.86,31.51,10.86" transform="translate(0 0.21)"/><line class="cls-1" x1="253.07" y1="330.64" x2="243.99" y2="338.42"/><line class="cls-1" x1="261.36" y1="331.85" x2="252.2" y2="338.42"/><line class="cls-1" x1="263.43" y1="335.53" x2="259.32" y2="338.42"/><line class="cls-1" x1="304.04" y1="311.14" x2="316.88" y2="298.25"/><line class="cls-1" x1="313.13" y1="295.47" x2="301.09" y2="307.82"/><line class="cls-1" x1="361.6" y1="268.25" x2="366.25" y2="239.31"/><line class="cls-1" x1="371.53" y1="239.31" x2="364.22" y2="271.36"/><line class="cls-1" x1="375.25" y1="239.31" x2="366.25" y2="271.98"/><line class="cls-1" x1="424.21" y1="303.94" x2="430.97" y2="271.36"/><line class="cls-1" x1="434.23" y1="273.24" x2="432.66" y2="307.42"/><line class="cls-1" x1="436.99" y1="309.2" x2="436.99" y2="275.2"/><path class="cls-1" d="M429,269.29c-0.33,1.24-7.53,33.31-7.53,33.31" transform="translate(0 0.21)"/><line class="cls-1" x1="469.99" y1="250.29" x2="504" y2="241.15"/><line class="cls-1" x1="507.34" y1="244.3" x2="472.03" y2="253.09"/><line class="cls-1" x1="474.52" y1="258.63" x2="504" y2="263.11"/><line class="cls-1" x1="504.05" y1="295.01" x2="520.55" y2="309.2"/><line class="cls-1" x1="506" y1="292.64" x2="529.31" y2="306.06"/><line class="cls-1" x1="507.34" y1="290.33" x2="533.04" y2="304.72"/><line class="cls-1" x1="564.66" y1="323.52" x2="586.33" y2="295.01"/><polyline class="cls-1" points="594.53 295.69 585.67 305.49 566.96 326.15"/><line class="cls-1" x1="610.85" y1="326.15" x2="587.42" y2="303.94"/><line class="cls-1" x1="590.5" y1="300.15" x2="613.44" y2="315.98"/><line class="cls-1" x1="591.22" y1="299.35" x2="614.12" y2="313.16"/><path class="cls-1" d="M567.78,248.68c1.22-.75,13-9.57,13-9.57" transform="translate(0 0.21)"/><line class="cls-1" x1="587.42" y1="239.31" x2="570.64" y2="250.9"/><line class="cls-1" x1="601.97" y1="239.31" x2="606.46" y2="250.29"/><line class="cls-1" x1="605" y1="239.87" x2="607.96" y2="247.64"/><line class="cls-1" x1="618.16" y1="261.54" x2="627.31" y2="253.37"/><line class="cls-1" x1="631.38" y1="253.09" x2="621.92" y2="263.69"/><line class="cls-1" x1="635.38" y1="241.15" x2="645.65" y2="255.97"/><line class="cls-1" x1="637.92" y1="239.31" x2="649.18" y2="254.47"/><line class="cls-1" x1="634.52" y1="290.33" x2="650" y2="286.87"/><line class="cls-1" x1="634.67" y1="292.64" x2="650" y2="292.04"/><line class="cls-1" x1="641.29" y1="311.56" x2="650" y2="304.72"/><line class="cls-1" x1="192.36" y1="492.47" x2="189.63" y2="496.02"/><line class="cls-1" x1="195.73" y1="493.94" x2="194.12" y2="496.02"/><line class="cls-1" x1="200.05" y1="495.84" x2="199.94" y2="496.02"/><line class="cls-1" x1="26.04" y1="456.07" x2="27.99" y2="476.81"/><line class="cls-1" x1="31.68" y1="477.33" x2="30.83" y2="456.74"/><line class="cls-1" x1="31.68" y1="456.86" x2="33.17" y2="477.33"/><line class="cls-1" x1="35.73" y1="457.43" x2="38.62" y2="478.32"/><path class="cls-1" d="M81.7,491.26l-3.47,4.55" transform="translate(0 0.21)"/><line class="cls-1" x1="85.34" y1="493.11" x2="83.05" y2="496.02"/><line class="cls-1" x1="89.03" y1="494.78" x2="88.13" y2="496.02"/><line class="cls-1" x1="90.67" y1="495.53" x2="90.33" y2="496.02"/><line class="cls-1" x1="121.2" y1="458.34" x2="134.04" y2="448.42"/><line class="cls-1" x1="137.62" y1="449.71" x2="123.3" y2="460.9"/><line class="cls-1" x1="139.15" y1="450.26" x2="123.99" y2="461.75"/><line class="cls-1" x1="155.31" y1="496.02" x2="153.94" y2="491.02"/><line class="cls-1" x1="161.01" y1="496.02" x2="158.39" y2="487.64"/><line class="cls-1" x1="138.73" y1="475.21" x2="172.79" y2="469.62"/><line class="cls-1" x1="141.43" y1="478.32" x2="173.19" y2="472.42"/><line class="cls-1" x1="246.15" y1="496.02" x2="245.5" y2="484.88"/><line class="cls-1" x1="249.87" y1="496.02" x2="247.17" y2="484.93"/><line class="cls-1" x1="252.53" y1="496.02" x2="248.86" y2="484.88"/><line class="cls-1" x1="87.44" y1="456.86" x2="86.85" y2="470.91"/><line class="cls-1" x1="90.67" y1="455.3" x2="89.03" y2="472.42"/><line class="cls-1" x1="92.63" y1="454.62" x2="99.84" y2="474.55"/><line class="cls-1" x1="93.86" y1="454.09" x2="103.38" y2="473.54"/><rect class="cls-2" y="446.21" width="650" height="49.81"/><line class="cls-1" x1="206.49" y1="456" x2="213.5" y2="446.21"/><line class="cls-1" x1="217.33" y1="446.21" x2="214.18" y2="457.21"/><path class="cls-1" d="M272.75,454.42S311,448.88,311,448.88" transform="translate(0 0.21)"/><line class="cls-1" x1="309.9" y1="453.21" x2="273.13" y2="457.21"/><line class="cls-1" x1="273.35" y1="458.7" x2="310.03" y2="455.21"/><path class="cls-1" d="M274.14,461.33c1.53,0.17,31.51,10.88,31.51,10.88" transform="translate(0 0.21)"/><line class="cls-1" x1="361.6" y1="475.21" x2="366.25" y2="446.21"/><line class="cls-1" x1="371.53" y1="446.21" x2="364.22" y2="478.32"/><line class="cls-1" x1="375.25" y1="446.21" x2="366.25" y2="478.94"/><line class="cls-1" x1="430.97" y1="478.32" x2="427.31" y2="496.02"/><line class="cls-1" x1="434.23" y1="480.2" x2="433.5" y2="496.02"/><line class="cls-1" x1="436.99" y1="496.02" x2="436.99" y2="482.17"/><path class="cls-1" d="M424.54,495.81c2-8.88,4.25-18.89,4.43-19.57" transform="translate(0 0.21)"/><line class="cls-1" x1="469.99" y1="457.21" x2="504" y2="448.05"/><line class="cls-1" x1="507.34" y1="451.21" x2="472.03" y2="460.01"/><line class="cls-1" x1="474.52" y1="465.56" x2="504" y2="470.05"/><path class="cls-1" d="M567.78,455.59c1.22-.75,13-9.59,13-9.59" transform="translate(0 0.21)"/><line class="cls-1" x1="587.42" y1="446.21" x2="570.64" y2="457.82"/><line class="cls-1" x1="601.97" y1="446.21" x2="606.46" y2="457.21"/><line class="cls-1" x1="605" y1="446.76" x2="607.96" y2="454.55"/><line class="cls-1" x1="618.16" y1="468.48" x2="627.31" y2="460.29"/><line class="cls-1" x1="631.38" y1="460.01" x2="621.92" y2="470.64"/><line class="cls-1" x1="635.38" y1="448.05" x2="645.65" y2="462.9"/><line class="cls-1" x1="637.92" y1="446.21" x2="649.18" y2="461.39"/><line class="cls-1" x1="650" y1="493.87" x2="640.38" y2="496.02"/><line class="cls-1" x1="907.36" y1="492.56" x2="904.63" y2="496.11"/><line class="cls-1" x1="910.73" y1="494.03" x2="909.12" y2="496.11"/><line class="cls-1" x1="915.05" y1="495.93" x2="914.94" y2="496.11"/><line class="cls-1" x1="741.04" y1="456.16" x2="742.99" y2="476.9"/><line class="cls-1" x1="746.68" y1="477.43" x2="745.83" y2="456.84"/><line class="cls-1" x1="746.68" y1="456.96" x2="748.17" y2="477.43"/><line class="cls-1" x1="750.73" y1="457.53" x2="753.62" y2="478.41"/><path class="cls-1" d="M796.7,491.36l-3.47,4.55" transform="translate(0 0.21)"/><line class="cls-1" x1="800.34" y1="493.2" x2="798.05" y2="496.11"/><line class="cls-1" x1="804.03" y1="494.87" x2="803.13" y2="496.11"/><line class="cls-1" x1="805.67" y1="495.62" x2="805.33" y2="496.11"/><line class="cls-1" x1="836.2" y1="458.44" x2="849.04" y2="448.51"/><line class="cls-1" x1="852.62" y1="449.8" x2="838.3" y2="461"/><line class="cls-1" x1="854.15" y1="450.35" x2="838.99" y2="461.84"/><line class="cls-1" x1="870.31" y1="496.11" x2="868.94" y2="491.11"/><line class="cls-1" x1="876.01" y1="496.11" x2="873.39" y2="487.73"/><line class="cls-1" x1="853.73" y1="475.3" x2="887.79" y2="469.72"/><line class="cls-1" x1="856.43" y1="478.41" x2="888.19" y2="472.51"/><line class="cls-1" x1="961.15" y1="496.11" x2="960.5" y2="484.97"/><line class="cls-1" x1="964.87" y1="496.11" x2="962.17" y2="485.02"/><line class="cls-1" x1="967.53" y1="496.11" x2="963.86" y2="484.97"/><line class="cls-1" x1="802.44" y1="456.96" x2="801.85" y2="471.01"/><line class="cls-1" x1="805.67" y1="455.4" x2="804.03" y2="472.51"/><line class="cls-1" x1="807.63" y1="454.72" x2="814.84" y2="474.64"/><line class="cls-1" x1="808.86" y1="454.19" x2="818.38" y2="473.63"/><rect class="cls-2" x="715" y="446.3" width="500" height="49.81"/><line class="cls-1" x1="921.49" y1="456.1" x2="928.5" y2="446.3"/><line class="cls-1" x1="932.33" y1="446.3" x2="929.18" y2="457.3"/><path class="cls-1" d="M987.75,454.51S1026,449,1026,449" transform="translate(0 0.21)"/><line class="cls-1" x1="1024.9" y1="453.3" x2="988.13" y2="457.3"/><line class="cls-1" x1="988.35" y1="458.8" x2="1025.03" y2="455.3"/><path class="cls-1" d="M989.14,461.43c1.53,0.17,31.51,10.88,31.51,10.88" transform="translate(0 0.21)"/><line class="cls-1" x1="1076.6" y1="475.3" x2="1081.25" y2="446.3"/><line class="cls-1" x1="1086.53" y1="446.3" x2="1079.22" y2="478.41"/><line class="cls-1" x1="1090.25" y1="446.3" x2="1081.25" y2="479.03"/><line class="cls-1" x1="1145.97" y1="478.41" x2="1142.31" y2="496.11"/><line class="cls-1" x1="1149.23" y1="480.29" x2="1148.5" y2="496.11"/><line class="cls-1" x1="1151.99" y1="496.11" x2="1151.99" y2="482.26"/><path class="cls-1" d="M1139.54,495.91c2-8.88,4.25-18.89,4.43-19.57" transform="translate(0 0.21)"/><line class="cls-1" x1="1215" y1="449.23" x2="1184.99" y2="457.31"/><line class="cls-1" x1="1215" y1="453.14" x2="1187.03" y2="460.11"/><line class="cls-1" x1="1215" y1="469.54" x2="1189.52" y2="465.66"/><line class="cls-1" x1="1581.3" y1="492.91" x2="1578.57" y2="496.46"/><line class="cls-1" x1="1584.67" y1="494.38" x2="1583.06" y2="496.46"/><line class="cls-1" x1="1588.99" y1="496.28" x2="1588.88" y2="496.46"/><line class="cls-1" x1="1414.98" y1="456.51" x2="1416.93" y2="477.25"/><line class="cls-1" x1="1420.62" y1="477.77" x2="1419.77" y2="457.18"/><line class="cls-1" x1="1420.62" y1="457.3" x2="1422.11" y2="477.77"/><line class="cls-1" x1="1424.67" y1="457.87" x2="1427.56" y2="478.76"/><path class="cls-1" d="M1470.64,491.7l-3.47,4.55" transform="translate(0 0.21)"/><line class="cls-1" x1="1474.28" y1="493.55" x2="1471.99" y2="496.46"/><line class="cls-1" x1="1477.97" y1="495.22" x2="1477.07" y2="496.46"/><line class="cls-1" x1="1479.61" y1="495.97" x2="1479.27" y2="496.46"/><line class="cls-1" x1="1510.14" y1="458.78" x2="1522.98" y2="448.86"/><line class="cls-1" x1="1526.56" y1="450.15" x2="1512.24" y2="461.34"/><line class="cls-1" x1="1528.09" y1="450.7" x2="1512.93" y2="462.19"/><line class="cls-1" x1="1544.25" y1="496.46" x2="1542.88" y2="491.46"/><line class="cls-1" x1="1549.95" y1="496.46" x2="1547.33" y2="488.08"/><line class="cls-1" x1="1527.67" y1="475.65" x2="1561.73" y2="470.06"/><line class="cls-1" x1="1530.37" y1="478.76" x2="1562.13" y2="472.86"/><line class="cls-1" x1="1635.09" y1="496.46" x2="1634.44" y2="485.32"/><line class="cls-1" x1="1638.81" y1="496.46" x2="1636.11" y2="485.37"/><line class="cls-1" x1="1641.47" y1="496.46" x2="1637.8" y2="485.32"/><line class="cls-1" x1="1476.38" y1="457.3" x2="1475.79" y2="471.35"/><line class="cls-1" x1="1479.61" y1="455.74" x2="1477.97" y2="472.86"/><line class="cls-1" x1="1481.57" y1="455.06" x2="1488.78" y2="474.99"/><line class="cls-1" x1="1482.8" y1="454.53" x2="1492.32" y2="473.98"/><rect class="cls-2" x="1388.94" y="446.65" width="300.06" height="49.81"/><line class="cls-1" x1="1595.43" y1="456.44" x2="1602.44" y2="446.65"/><line class="cls-1" x1="1606.27" y1="446.65" x2="1603.12" y2="457.65"/><path class="cls-1" d="M1689,450.9l-27.31,4" transform="translate(0 0.21)"/><line class="cls-1" x1="1689" y1="454.72" x2="1662.07" y2="457.65"/><line class="cls-1" x1="1689" y1="456.6" x2="1662.29" y2="459.15"/><path class="cls-1" d="M1663.08,461.77c1.11,0.12,17.17,5.78,25.92,8.89" transform="translate(0 0.21)"/><line class="cls-1" x1="1067.19" y1="68.99" x2="1103.25" y2="95.1"/><line class="cls-1" x1="1068.01" y1="65.1" x2="1110.91" y2="95.1"/><line class="cls-1" x1="1070" y1="60.96" x2="1115.06" y2="90.62"/><line class="cls-1" x1="1065.56" y1="76.61" x2="1087.25" y2="95.1"/><line class="cls-1" x1="888.5" y1="78.89" x2="913.36" y2="46.6"/><line class="cls-1" x1="891.43" y1="80.77" x2="916.73" y2="48.08"/><line class="cls-1" x1="921.05" y1="49.97" x2="899.37" y2="84.04"/><line class="cls-1" x1="747.04" y1="10.2" x2="748.99" y2="30.94"/><line class="cls-1" x1="752.68" y1="31.47" x2="751.83" y2="10.88"/><line class="cls-1" x1="752.68" y1="11" x2="754.17" y2="31.47"/><line class="cls-1" x1="756.73" y1="11.57" x2="759.62" y2="32.45"/><line class="cls-1" x1="734.2" y1="78.16" x2="758.18" y2="60.34"/><line class="cls-1" x1="760.5" y1="62.5" x2="732.76" y2="84.64"/><path class="cls-1" d="M778.53,78.31c1-2.67,24.17-32.91,24.17-32.91" transform="translate(0 0.21)"/><line class="cls-1" x1="806.34" y1="47.25" x2="780.75" y2="79.78"/><line class="cls-1" x1="785.05" y1="83.38" x2="810.03" y2="48.91"/><line class="cls-1" x1="811.67" y1="49.66" x2="787.33" y2="84.64"/><line class="cls-1" x1="842.2" y1="12.48" x2="855.04" y2="2.55"/><line class="cls-1" x1="858.62" y1="3.84" x2="844.3" y2="15.04"/><line class="cls-1" x1="860.15" y1="4.39" x2="844.99" y2="15.88"/><line class="cls-1" x1="883.83" y1="77.64" x2="874.94" y2="45.15"/><line class="cls-1" x1="879.39" y1="41.77" x2="890.26" y2="76.61"/><line class="cls-1" x1="859.73" y1="29.34" x2="893.79" y2="23.76"/><line class="cls-1" x1="862.43" y1="32.45" x2="894.19" y2="26.55"/><line class="cls-1" x1="873.4" y1="120.61" x2="819.81" y2="100.92"/><line class="cls-1" x1="820.82" y1="99.7" x2="875.95" y2="116.89"/><line class="cls-1" x1="822.96" y1="97.1" x2="879.39" y2="111.87"/><line class="cls-1" x1="752.26" y1="135.84" x2="766.8" y2="122.08"/><line class="cls-1" x1="770.77" y1="122.35" x2="754.96" y2="136.81"/><line class="cls-1" x1="966.5" y1="39.01" x2="967.5" y2="56.15"/><line class="cls-1" x1="968.17" y1="39.06" x2="972.33" y2="56.15"/><line class="cls-1" x1="969.86" y1="39.01" x2="975.5" y2="56.15"/><line class="cls-1" x1="808.44" y1="11" x2="807.85" y2="25.05"/><line class="cls-1" x1="811.67" y1="9.44" x2="810.03" y2="26.55"/><line class="cls-1" x1="813.63" y1="8.76" x2="820.84" y2="28.69"/><line class="cls-1" x1="814.86" y1="8.23" x2="824.38" y2="27.67"/><rect class="cls-2" x="721" y="0.34" width="499.93" height="150.07"/><line class="cls-1" x1="927.49" y1="10.14" x2="934.5" y2="0.34"/><line class="cls-1" x1="938.33" y1="0.34" x2="935.18" y2="11.34"/><path class="cls-1" d="M993.75,8.55S1032,3,1032,3" transform="translate(0 0.21)"/><line class="cls-1" x1="1030.9" y1="7.34" x2="994.13" y2="11.34"/><line class="cls-1" x1="994.35" y1="12.84" x2="1031.03" y2="9.34"/><path class="cls-1" d="M995.14,15.47c1.53,0.17,31.51,10.88,31.51,10.88" transform="translate(0 0.21)"/><line class="cls-1" x1="956.44" y1="106.99" x2="974.07" y2="91.84"/><line class="cls-1" x1="982.36" y1="93.06" x2="957.73" y2="110.77"/><line class="cls-1" x1="959.05" y1="114.65" x2="984.43" y2="96.74"/><line class="cls-1" x1="1025.04" y1="72.31" x2="1037.88" y2="59.4"/><line class="cls-1" x1="1034.13" y1="56.61" x2="1022.09" y2="68.99"/><line class="cls-1" x1="1082.6" y1="29.34" x2="1087.25" y2="0.34"/><line class="cls-1" x1="1092.53" y1="0.34" x2="1085.22" y2="32.45"/><line class="cls-1" x1="1096.25" y1="0.34" x2="1087.25" y2="33.08"/><line class="cls-1" x1="1076.78" y1="129.63" x2="1082.6" y2="150.34"/><line class="cls-1" x1="1084.49" y1="122.72" x2="1092.53" y2="150.41"/><line class="cls-1" x1="1087.25" y1="119.84" x2="1096.25" y2="150.34"/><line class="cls-1" x1="1135.2" y1="125.14" x2="1104.4" y2="150.41"/><line class="cls-1" x1="1136.28" y1="126.87" x2="1109" y2="150.41"/><line class="cls-1" x1="1145.21" y1="65.1" x2="1151.97" y2="32.45"/><line class="cls-1" x1="1155.23" y1="34.33" x2="1153.66" y2="68.59"/><line class="cls-1" x1="1157.99" y1="70.37" x2="1157.99" y2="36.3"/><path class="cls-1" d="M1150,30.38c-0.33,1.24-7.53,33.37-7.53,33.37" transform="translate(0 0.21)"/><line class="cls-1" x1="1155.23" y1="115.39" x2="1194.54" y2="100.59"/><line class="cls-1" x1="1195.26" y1="103.24" x2="1156.63" y2="118.2"/><line class="cls-1" x1="1160.07" y1="125.14" x2="1199.8" y2="119.84"/><line class="cls-1" x1="1220.93" y1="3.29" x2="1190.99" y2="11.35"/><line class="cls-1" x1="1220.93" y1="7.2" x2="1193.03" y2="14.16"/><line class="cls-1" x1="1220.93" y1="23.57" x2="1195.52" y2="19.7"/><line class="cls-1" x1="911.72" y1="103.24" x2="945.75" y2="125.14"/><line class="cls-1" x1="910.21" y1="107.99" x2="932.62" y2="129.63"/><line class="cls-1" x1="908.05" y1="112.06" x2="928.74" y2="130.9"/><line class="cls-1" x1="1040.87" y1="103.05" x2="1026.65" y2="132.68"/><line class="cls-1" x1="1046" y1="101.49" x2="1030.9" y2="133.66"/><line class="cls-1" x1="1033.22" y1="134.2" x2="1050.78" y2="100.03"/><line class="cls-1" x1="1067.19" y1="306.88" x2="1103.25" y2="332.94"/><line class="cls-1" x1="1068.01" y1="303" x2="1110.91" y2="332.94"/><line class="cls-1" x1="1070" y1="298.87" x2="1115.06" y2="328.47"/><line class="cls-1" x1="1065.56" y1="314.48" x2="1087.25" y2="332.94"/><line class="cls-1" x1="888.5" y1="316.76" x2="913.36" y2="284.54"/><line class="cls-1" x1="891.43" y1="318.64" x2="916.73" y2="286.01"/><line class="cls-1" x1="921.05" y1="287.9" x2="899.37" y2="321.91"/><line class="cls-1" x1="747.04" y1="248.21" x2="748.99" y2="268.91"/><line class="cls-1" x1="752.68" y1="269.44" x2="751.83" y2="248.88"/><line class="cls-1" x1="752.68" y1="249" x2="754.17" y2="269.44"/><line class="cls-1" x1="756.73" y1="249.57" x2="759.62" y2="270.42"/><line class="cls-1" x1="734.2" y1="316.03" x2="758.18" y2="298.25"/><line class="cls-1" x1="760.5" y1="300.41" x2="732.76" y2="322.5"/><path class="cls-1" d="M778.53,316.18c1-2.67,24.17-32.85,24.17-32.85" transform="translate(0 0.21)"/><line class="cls-1" x1="806.34" y1="285.18" x2="780.75" y2="317.65"/><line class="cls-1" x1="785.05" y1="321.25" x2="810.03" y2="286.85"/><line class="cls-1" x1="811.67" y1="287.59" x2="787.33" y2="322.5"/><line class="cls-1" x1="842.2" y1="250.48" x2="855.04" y2="240.58"/><line class="cls-1" x1="858.62" y1="241.86" x2="844.3" y2="253.04"/><line class="cls-1" x1="860.15" y1="242.41" x2="844.99" y2="253.88"/><line class="cls-1" x1="883.83" y1="315.52" x2="874.94" y2="283.09"/><line class="cls-1" x1="879.39" y1="279.72" x2="890.26" y2="314.48"/><line class="cls-1" x1="859.73" y1="267.31" x2="893.79" y2="261.74"/><line class="cls-1" x1="862.43" y1="270.42" x2="894.19" y2="264.53"/><line class="cls-1" x1="832.67" y1="337.48" x2="822.96" y2="334.94"/><line class="cls-1" x1="966.5" y1="276.96" x2="967.5" y2="294.06"/><line class="cls-1" x1="968.17" y1="277.01" x2="972.33" y2="294.06"/><line class="cls-1" x1="969.86" y1="276.96" x2="975.5" y2="294.06"/><line class="cls-1" x1="808.44" y1="249" x2="807.85" y2="263.03"/><line class="cls-1" x1="811.67" y1="247.45" x2="810.03" y2="264.53"/><line class="cls-1" x1="813.63" y1="246.77" x2="820.84" y2="266.66"/><line class="cls-1" x1="814.86" y1="246.24" x2="824.38" y2="265.65"/><rect class="cls-2" x="721" y="238.37" width="500" height="99.11"/><line class="cls-1" x1="927.49" y1="248.15" x2="934.5" y2="238.37"/><line class="cls-1" x1="938.33" y1="238.37" x2="935.18" y2="249.35"/><path class="cls-1" d="M993.75,246.56S1032,241,1032,241" transform="translate(0 0.21)"/><line class="cls-1" x1="1030.9" y1="245.36" x2="994.13" y2="249.35"/><line class="cls-1" x1="994.35" y1="250.84" x2="1031.03" y2="247.35"/><path class="cls-1" d="M995.14,253.47c1.53,0.17,31.51,10.86,31.51,10.86" transform="translate(0 0.21)"/><line class="cls-1" x1="974.07" y1="329.69" x2="964.99" y2="337.48"/><line class="cls-1" x1="982.36" y1="330.91" x2="973.2" y2="337.48"/><line class="cls-1" x1="984.43" y1="334.59" x2="980.32" y2="337.48"/><line class="cls-1" x1="1025.04" y1="310.2" x2="1037.88" y2="297.31"/><line class="cls-1" x1="1034.13" y1="294.53" x2="1022.09" y2="306.88"/><line class="cls-1" x1="1082.6" y1="267.31" x2="1087.25" y2="238.37"/><line class="cls-1" x1="1092.53" y1="238.37" x2="1085.22" y2="270.42"/><line class="cls-1" x1="1096.25" y1="238.37" x2="1087.25" y2="271.04"/><line class="cls-1" x1="1145.21" y1="303" x2="1151.97" y2="270.42"/><line class="cls-1" x1="1155.23" y1="272.29" x2="1153.66" y2="306.48"/><line class="cls-1" x1="1157.99" y1="308.26" x2="1157.99" y2="274.26"/><path class="cls-1" d="M1150,268.35c-0.33,1.24-7.53,33.31-7.53,33.31" transform="translate(0 0.21)"/><line class="cls-1" x1="1221" y1="241.29" x2="1190.99" y2="249.35"/><line class="cls-1" x1="1221" y1="245.19" x2="1193.03" y2="252.16"/><line class="cls-1" x1="1221" y1="261.56" x2="1195.52" y2="257.69"/><line class="cls-1" x1="1556.5" y1="317.2" x2="1581.36" y2="284.98"/><line class="cls-1" x1="1559.43" y1="319.09" x2="1584.73" y2="286.46"/><line class="cls-1" x1="1589.05" y1="288.34" x2="1567.37" y2="322.35"/><line class="cls-1" x1="1415.04" y1="248.65" x2="1416.99" y2="269.36"/><line class="cls-1" x1="1420.68" y1="269.88" x2="1419.83" y2="249.33"/><line class="cls-1" x1="1420.68" y1="249.45" x2="1422.17" y2="269.88"/><line class="cls-1" x1="1424.73" y1="250.02" x2="1427.62" y2="270.86"/><line class="cls-1" x1="1402.2" y1="316.48" x2="1426.18" y2="298.7"/><line class="cls-1" x1="1428.5" y1="300.85" x2="1400.76" y2="322.95"/><path class="cls-1" d="M1446.53,316.63c1-2.67,24.17-32.85,24.17-32.85" transform="translate(0 0.21)"/><line class="cls-1" x1="1474.34" y1="285.63" x2="1448.75" y2="318.1"/><line class="cls-1" x1="1453.05" y1="321.69" x2="1478.03" y2="287.29"/><line class="cls-1" x1="1479.67" y1="288.03" x2="1455.33" y2="322.95"/><line class="cls-1" x1="1510.2" y1="250.93" x2="1523.04" y2="241.02"/><line class="cls-1" x1="1526.62" y1="242.31" x2="1512.3" y2="253.48"/><line class="cls-1" x1="1528.15" y1="242.86" x2="1512.99" y2="254.32"/><line class="cls-1" x1="1551.83" y1="315.96" x2="1542.94" y2="283.54"/><line class="cls-1" x1="1547.39" y1="280.16" x2="1558.26" y2="314.93"/><line class="cls-1" x1="1527.73" y1="267.76" x2="1561.79" y2="262.19"/><line class="cls-1" x1="1530.43" y1="270.86" x2="1562.19" y2="264.97"/><line class="cls-1" x1="1500.67" y1="337.92" x2="1490.96" y2="335.39"/><line class="cls-1" x1="1634.5" y1="277.4" x2="1635.5" y2="294.51"/><line class="cls-1" x1="1636.17" y1="277.45" x2="1640.33" y2="294.51"/><line class="cls-1" x1="1637.86" y1="277.4" x2="1643.5" y2="294.51"/><line class="cls-1" x1="1476.44" y1="249.45" x2="1475.85" y2="263.47"/><line class="cls-1" x1="1479.67" y1="247.89" x2="1478.03" y2="264.97"/><line class="cls-1" x1="1481.63" y1="247.21" x2="1488.84" y2="267.1"/><line class="cls-1" x1="1482.86" y1="246.68" x2="1492.38" y2="266.09"/><line class="cls-1" x1="1595.49" y1="248.59" x2="1602.5" y2="238.81"/><line class="cls-1" x1="1606.33" y1="238.81" x2="1603.18" y2="249.79"/><path class="cls-1" d="M1689,243.06L1661.75,247" transform="translate(0 0.21)"/><line class="cls-1" x1="1689" y1="246.88" x2="1662.13" y2="249.8"/><line class="cls-1" x1="1689" y1="248.75" x2="1662.35" y2="251.29"/><path class="cls-1" d="M1663.14,253.91c1.11,0.12,17.09,5.75,25.86,8.86" transform="translate(0 0.21)"/><line class="cls-1" x1="1642.07" y1="330.14" x2="1632.99" y2="337.92"/><line class="cls-1" x1="1650.36" y1="331.36" x2="1641.2" y2="337.92"/><line class="cls-1" x1="1652.43" y1="335.03" x2="1648.32" y2="337.92"/><rect class="cls-2" x="1389" y="238.93" width="300" height="99.44"/><line class="cls-1" x1="1556.5" y1="78.94" x2="1581.36" y2="46.65"/><line class="cls-1" x1="1559.43" y1="80.82" x2="1584.73" y2="48.13"/><line class="cls-1" x1="1589.05" y1="50.02" x2="1567.37" y2="84.1"/><line class="cls-1" x1="1415.04" y1="10.26" x2="1416.99" y2="31"/><line class="cls-1" x1="1420.68" y1="31.52" x2="1419.83" y2="10.93"/><line class="cls-1" x1="1420.68" y1="11.05" x2="1422.17" y2="31.52"/><line class="cls-1" x1="1424.73" y1="11.62" x2="1427.62" y2="32.51"/><line class="cls-1" x1="1402.2" y1="78.21" x2="1426.18" y2="60.4"/><line class="cls-1" x1="1428.5" y1="62.55" x2="1400.76" y2="84.69"/><path class="cls-1" d="M1446.53,78.36c1-2.67,24.17-32.91,24.17-32.91" transform="translate(0 0.21)"/><line class="cls-1" x1="1474.34" y1="47.3" x2="1448.75" y2="79.84"/><line class="cls-1" x1="1453.05" y1="83.44" x2="1478.03" y2="48.97"/><line class="cls-1" x1="1479.67" y1="49.71" x2="1455.33" y2="84.69"/><line class="cls-1" x1="1510.2" y1="12.53" x2="1523.04" y2="2.61"/><line class="cls-1" x1="1526.62" y1="3.9" x2="1512.3" y2="15.09"/><line class="cls-1" x1="1528.15" y1="4.45" x2="1512.99" y2="15.94"/><line class="cls-1" x1="1551.83" y1="77.69" x2="1542.94" y2="45.21"/><line class="cls-1" x1="1547.39" y1="41.82" x2="1558.26" y2="76.66"/><line class="cls-1" x1="1527.73" y1="29.4" x2="1561.79" y2="23.81"/><line class="cls-1" x1="1530.43" y1="32.51" x2="1562.19" y2="26.61"/><line class="cls-1" x1="1541.4" y1="120.67" x2="1487.81" y2="100.98"/><line class="cls-1" x1="1488.82" y1="99.75" x2="1543.95" y2="116.94"/><line class="cls-1" x1="1490.96" y1="97.16" x2="1547.39" y2="111.92"/><line class="cls-1" x1="1420.26" y1="135.89" x2="1434.8" y2="122.13"/><line class="cls-1" x1="1438.77" y1="122.41" x2="1422.96" y2="136.87"/><line class="cls-1" x1="1634.5" y1="39.06" x2="1635.5" y2="56.2"/><line class="cls-1" x1="1636.17" y1="39.11" x2="1640.33" y2="56.2"/><line class="cls-1" x1="1637.86" y1="39.06" x2="1643.5" y2="56.2"/><line class="cls-1" x1="1476.44" y1="11.05" x2="1475.85" y2="25.1"/><line class="cls-1" x1="1479.67" y1="9.49" x2="1478.03" y2="26.61"/><line class="cls-1" x1="1481.63" y1="8.81" x2="1488.84" y2="28.74"/><line class="cls-1" x1="1482.86" y1="8.28" x2="1492.38" y2="27.73"/><line class="cls-1" x1="1595.49" y1="10.19" x2="1602.5" y2="0.4"/><line class="cls-1" x1="1606.33" y1="0.4" x2="1603.18" y2="11.4"/><line class="cls-1" x1="1624.44" y1="107.05" x2="1642.07" y2="91.9"/><line class="cls-1" x1="1650.36" y1="93.12" x2="1625.73" y2="110.82"/><line class="cls-1" x1="1627.05" y1="114.7" x2="1652.43" y2="96.8"/><line class="cls-1" x1="1579.72" y1="103.3" x2="1613.75" y2="125.19"/><line class="cls-1" x1="1578.21" y1="108.04" x2="1600.62" y2="129.68"/><line class="cls-1" x1="1576.05" y1="112.11" x2="1596.74" y2="130.96"/></svg>