<svg id="TwinLines_Grain_Large_" data-name="TwinLines (Grain Large)" xmlns="http://www.w3.org/2000/svg" viewBox="0 0 1690.23 497.69"><defs><style>.cls-1,.cls-2{fill:none;}.cls-1{stroke:#1d1d1b;stroke-miterlimit:10;stroke-width:0.5px;}</style></defs><title>M_TwinLinesGrainLarge</title><line class="cls-1" x1="166.55" y1="7.77" x2="230.71" y2="54.21"/><line class="cls-1" x1="167.86" y1="1.5" x2="243.73" y2="54.96"/><line class="cls-1" x1="179.41" y1="0.27" x2="248.74" y2="45.61"/><line class="cls-1" x1="163.92" y1="20.05" x2="203.82" y2="54.21"/><line class="cls-1" x1="0.16" y1="17.78" x2="19.06" y2="33.76"/><line class="cls-1" x1="0.37" y1="13.17" x2="21.21" y2="25.13"/><line class="cls-1" x1="0.37" y1="8.93" x2="22.18" y2="19.06"/><path class="cls-1" d="M11.92,130.62s71.64-8.86,71.64-8.86" transform="translate(0.37 0.21)"/><line class="cls-1" x1="82.48" y1="128.55" x2="13.01" y2="135"/><line class="cls-1" x1="13.43" y1="137.41" x2="82.73" y2="131.77"/><line class="cls-1" x1="0.37" y1="64.83" x2="18.34" y2="49.73"/><line class="cls-1" x1="22.99" y1="58.09" x2="0.37" y2="74.54"/><line class="cls-1" x1="0.37" y1="82.47" x2="26.27" y2="63.98"/><line class="cls-1" x1="92.42" y1="14.83" x2="108.25" y2="0.32"/><line class="cls-1" x1="102.32" y1="0.32" x2="89.22" y2="11.76"/><line class="cls-1" x1="176" y1="119.32" x2="185.38" y2="150.18"/><line class="cls-1" x1="188.43" y1="109.03" x2="201.4" y2="150.29"/><line class="cls-1" x1="192.88" y1="104.74" x2="207.39" y2="150.18"/><line class="cls-1" x1="281.22" y1="103.89" x2="220.54" y2="150.29"/><line class="cls-1" x1="283.35" y1="107.07" x2="229.6" y2="150.29"/><line class="cls-1" x1="315.83" y1="87.06" x2="384.6" y2="62.1"/><line class="cls-1" x1="385.85" y1="66.57" x2="318.62" y2="91.82"/><line class="cls-1" x1="323.82" y1="103.51" x2="393.7" y2="94.58"/><line class="cls-1" x1="353.76" y1="8.02" x2="402.87" y2="54.21"/><line class="cls-1" x1="358.17" y1="4.09" x2="436.82" y2="50.78"/><line class="cls-1" x1="365.52" y1="0.21" x2="439.11" y2="44.36"/><path class="cls-1" d="M506.41,78" transform="translate(0.37 0.21)"/><line class="cls-1" x1="256.47" y1="59.06" x2="300.82" y2="3.23"/><polyline class="cls-1" points="311.75 8.13 295.11 25 259.97 60.59"/><line class="cls-1" x1="605.43" y1="63.48" x2="548.47" y2="12.08"/><line class="cls-1" x1="551.45" y1="5.76" x2="619.99" y2="50.78"/><line class="cls-1" x1="552.98" y1="3.46" x2="620.96" y2="46.73"/><line class="cls-1" x1="625.53" y1="33.03" x2="650.49" y2="37.47"/><line class="cls-1" x1="625.77" y1="30.05" x2="650.49" y2="30.82"/><line class="cls-1" x1="441.66" y1="94.58" x2="481.08" y2="76.12"/><line class="cls-1" x1="487.73" y1="79.14" x2="437.67" y2="103.56"/><line class="cls-1" x1="439.4" y1="114.49" x2="511.68" y2="97.36"/><line class="cls-1" x1="506.81" y1="105.93" x2="572.23" y2="147.41"/><line class="cls-1" x1="572.23" y1="136.3" x2="509.36" y2="101.04"/><line class="cls-1" x1="552.35" y1="104.57" x2="551.75" y2="124.74"/><line class="cls-1" x1="119.1" y1="69.17" x2="96.18" y2="119.31"/><line class="cls-1" x1="127.38" y1="66.52" x2="103.03" y2="120.98"/><line class="cls-1" x1="106.77" y1="121.89" x2="135.08" y2="64.06"/><line class="cls-1" x1="619.99" y1="150.21" x2="613.56" y2="114.89"/><line class="cls-1" x1="371.51" y1="129.66" x2="441.12" y2="144.61"/><line class="cls-1" x1="373.01" y1="134.75" x2="441.12" y2="150.21"/><line class="cls-1" x1="627.37" y1="150.21" x2="621.44" y2="117.02"/><line class="cls-1" x1="166.58" y1="246.07" x2="230.74" y2="292.52"/><line class="cls-1" x1="167.89" y1="239.81" x2="243.76" y2="293.27"/><line class="cls-1" x1="179.44" y1="238.58" x2="248.77" y2="283.92"/><line class="cls-1" x1="163.95" y1="258.35" x2="203.85" y2="292.52"/><line class="cls-1" x1="0.19" y1="256.09" x2="19.09" y2="272.06"/><line class="cls-1" x1="0.41" y1="251.47" x2="21.25" y2="263.44"/><line class="cls-1" x1="0.41" y1="247.24" x2="22.21" y2="257.37"/><line class="cls-1" x1="0.41" y1="303.13" x2="18.38" y2="288.04"/><line class="cls-1" x1="23.03" y1="296.4" x2="0.41" y2="312.85"/><line class="cls-1" x1="0.41" y1="320.77" x2="26.3" y2="302.28"/><line class="cls-1" x1="92.45" y1="253.13" x2="108.28" y2="238.62"/><line class="cls-1" x1="102.35" y1="238.62" x2="89.25" y2="250.06"/><line class="cls-1" x1="315.86" y1="325.37" x2="384.63" y2="300.4"/><line class="cls-1" x1="385.88" y1="304.88" x2="318.65" y2="330.12"/><line class="cls-1" x1="393.73" y1="332.88" x2="350.76" y2="338.37"/><line class="cls-1" x1="353.79" y1="246.32" x2="402.91" y2="292.52"/><line class="cls-1" x1="358.21" y1="242.39" x2="436.85" y2="289.09"/><line class="cls-1" x1="365.55" y1="238.52" x2="439.14" y2="282.67"/><path class="cls-1" d="M506.44,316.28" transform="translate(0.37 0.21)"/><line class="cls-1" x1="256.51" y1="297.36" x2="300.86" y2="241.53"/><polyline class="cls-1" points="311.79 246.44 295.14 263.3 260 298.89"/><line class="cls-1" x1="605.47" y1="301.78" x2="548.5" y2="250.38"/><line class="cls-1" x1="551.48" y1="244.07" x2="620.02" y2="289.09"/><line class="cls-1" x1="553.01" y1="241.77" x2="620.99" y2="285.04"/><line class="cls-1" x1="625.57" y1="271.33" x2="650.53" y2="275.78"/><line class="cls-1" x1="625.8" y1="268.35" x2="650.53" y2="269.13"/><line class="cls-1" x1="441.7" y1="332.89" x2="481.11" y2="314.43"/><line class="cls-1" x1="487.76" y1="317.44" x2="444.85" y2="338.37"/><line class="cls-1" x1="511.71" y1="335.66" x2="500.28" y2="338.37"/><line class="cls-1" x1="119.13" y1="307.47" x2="105" y2="338.37"/><line class="cls-1" x1="127.4" y1="304.82" x2="112.41" y2="338.37"/><line class="cls-1" x1="135.11" y1="302.36" x2="117.48" y2="338.37"/><rect class="cls-2" x="0.37" y="238.34" width="650.45" height="100.03"/><line class="cls-1" x1="529.15" y1="263.4" x2="533.95" y2="312.89"/><line class="cls-1" x1="525.2" y1="260.45" x2="530.56" y2="315.7"/><line class="cls-1" x1="887.76" y1="7.93" x2="951.92" y2="54.38"/><line class="cls-1" x1="889.07" y1="1.67" x2="964.94" y2="55.13"/><line class="cls-1" x1="900.62" y1="0.44" x2="969.95" y2="45.78"/><line class="cls-1" x1="885.13" y1="20.22" x2="925.03" y2="54.38"/><line class="cls-1" x1="721.37" y1="17.95" x2="740.27" y2="33.93"/><line class="cls-1" x1="721.59" y1="13.33" x2="742.43" y2="25.3"/><line class="cls-1" x1="721.59" y1="9.1" x2="743.39" y2="19.23"/><path class="cls-1" d="M733.13,130.79s71.64-8.86,71.64-8.86" transform="translate(0.37 0.21)"/><line class="cls-1" x1="803.7" y1="128.72" x2="734.23" y2="135.16"/><line class="cls-1" x1="734.65" y1="137.58" x2="803.95" y2="131.94"/><line class="cls-1" x1="721.59" y1="64.99" x2="739.56" y2="49.9"/><line class="cls-1" x1="744.21" y1="58.26" x2="721.59" y2="74.71"/><line class="cls-1" x1="721.59" y1="82.63" x2="747.48" y2="64.14"/><line class="cls-1" x1="813.63" y1="14.99" x2="829.46" y2="0.49"/><line class="cls-1" x1="823.53" y1="0.49" x2="810.43" y2="11.92"/><line class="cls-1" x1="897.21" y1="119.49" x2="906.6" y2="150.35"/><line class="cls-1" x1="909.64" y1="109.2" x2="922.61" y2="150.45"/><line class="cls-1" x1="914.1" y1="104.91" x2="928.61" y2="150.35"/><line class="cls-1" x1="1002.43" y1="104.05" x2="941.75" y2="150.45"/><line class="cls-1" x1="1004.56" y1="107.24" x2="950.81" y2="150.45"/><line class="cls-1" x1="1037.04" y1="87.23" x2="1105.81" y2="62.27"/><line class="cls-1" x1="1107.06" y1="66.74" x2="1039.83" y2="91.98"/><line class="cls-1" x1="1045.03" y1="103.68" x2="1114.91" y2="94.75"/><line class="cls-1" x1="1074.97" y1="8.18" x2="1124.09" y2="55.57"/><line class="cls-1" x1="1079.39" y1="4.25" x2="1158.03" y2="50.95"/><line class="cls-1" x1="1086.73" y1="0.38" x2="1160.32" y2="44.53"/><path class="cls-1" d="M1227.62,78.14" transform="translate(0.37 0.21)"/><line class="cls-1" x1="977.69" y1="59.22" x2="1022.04" y2="3.39"/><polyline class="cls-1" points="1032.97 8.3 1016.32 25.16 981.19 60.75"/><line class="cls-1" x1="1162.88" y1="94.75" x2="1202.29" y2="76.29"/><line class="cls-1" x1="1208.95" y1="79.3" x2="1158.88" y2="103.72"/><line class="cls-1" x1="1160.61" y1="114.66" x2="1221.37" y2="100.25"/><line class="cls-1" x1="840.31" y1="69.33" x2="817.4" y2="119.47"/><line class="cls-1" x1="848.59" y1="66.69" x2="824.24" y2="121.15"/><line class="cls-1" x1="827.98" y1="122.06" x2="856.3" y2="64.22"/><line class="cls-1" x1="1092.72" y1="129.82" x2="1162.33" y2="144.78"/><line class="cls-1" x1="1094.22" y1="134.92" x2="1162.33" y2="150.38"/><line class="cls-1" x1="166.78" y1="452.75" x2="230.94" y2="492.1"/><line class="cls-1" x1="168.08" y1="447.44" x2="243.95" y2="492.74"/><line class="cls-1" x1="179.64" y1="446.4" x2="248.97" y2="484.81"/><line class="cls-1" x1="164.14" y1="463.15" x2="204.05" y2="492.1"/><line class="cls-1" x1="0.39" y1="461.23" x2="19.29" y2="474.77"/><line class="cls-1" x1="0.6" y1="457.32" x2="21.44" y2="467.46"/><line class="cls-1" x1="0.6" y1="453.73" x2="22.41" y2="462.32"/><line class="cls-1" x1="7.46" y1="496.21" x2="18.57" y2="488.31"/><line class="cls-1" x1="92.65" y1="458.73" x2="108.48" y2="446.43"/><line class="cls-1" x1="102.55" y1="446.43" x2="89.45" y2="456.13"/><line class="cls-1" x1="353.99" y1="452.96" x2="403.1" y2="492.1"/><line class="cls-1" x1="358.4" y1="449.63" x2="437.04" y2="489.2"/><line class="cls-1" x1="365.74" y1="446.35" x2="439.34" y2="483.76"/><path class="cls-1" d="M506.64,512.2" transform="translate(0.37 0.21)"/><line class="cls-1" x1="256.7" y1="496.21" x2="301.05" y2="448.9"/><polyline class="cls-1" points="311.98 453.06 295.33 467.35 260.2 497.5"/><line class="cls-1" x1="600.77" y1="496.21" x2="548.7" y2="456.4"/><line class="cls-1" x1="551.68" y1="451.05" x2="620.22" y2="489.2"/><line class="cls-1" x1="553.21" y1="449.1" x2="621.18" y2="485.77"/><line class="cls-1" x1="624.46" y1="474.12" x2="650.72" y2="478.08"/><line class="cls-1" x1="624.71" y1="471.46" x2="650.72" y2="472.15"/><line class="cls-1" x1="529.35" y1="467.43" x2="534.15" y2="496.24"/><line class="cls-1" x1="525.4" y1="464.93" x2="530.76" y2="496.23"/><line class="cls-1" x1="887.39" y1="246.8" x2="951.55" y2="293.25"/><line class="cls-1" x1="888.7" y1="240.53" x2="962.5" y2="293.01"/><line class="cls-1" x1="898.83" y1="238.38" x2="969.58" y2="284.64"/><line class="cls-1" x1="884.76" y1="259.08" x2="924.67" y2="293.25"/><line class="cls-1" x1="721.37" y1="256.82" x2="740.27" y2="272.79"/><line class="cls-1" x1="721.59" y1="252.2" x2="742.43" y2="264.16"/><line class="cls-1" x1="721.59" y1="247.97" x2="743.39" y2="258.1"/><line class="cls-1" x1="721.37" y1="303.86" x2="739.34" y2="288.76"/><line class="cls-1" x1="743.99" y1="297.12" x2="721.37" y2="313.58"/><line class="cls-1" x1="721.37" y1="321.5" x2="747.27" y2="303.01"/><line class="cls-1" x1="814.73" y1="254.54" x2="832.37" y2="238.38"/><line class="cls-1" x1="826.04" y1="238.38" x2="812.06" y2="250.58"/><line class="cls-1" x1="1037.67" y1="325.86" x2="1105.53" y2="301.23"/><line class="cls-1" x1="1106.77" y1="305.65" x2="1040.43" y2="330.55"/><line class="cls-1" x1="1114.51" y1="333.28" x2="1072.11" y2="338.7"/><line class="cls-1" x1="1075.61" y1="246.09" x2="1124.98" y2="292.53"/><line class="cls-1" x1="1080.04" y1="242.06" x2="1157.53" y2="288.07"/><line class="cls-1" x1="1087.28" y1="238.25" x2="1159.79" y2="281.75"/><line class="cls-1" x1="979.32" y1="298.09" x2="1023.67" y2="242.26"/><polyline class="cls-1" points="1034.6 247.17 1017.95 264.03 982.82 299.62"/><line class="cls-1" x1="1164.51" y1="333.61" x2="1203.92" y2="315.15"/><line class="cls-1" x1="1210.58" y1="318.17" x2="1167.67" y2="339.1"/><line class="cls-1" x1="841.95" y1="306.51" x2="827.82" y2="338.26"/><line class="cls-1" x1="850.22" y1="303.79" x2="835.23" y2="338.26"/><line class="cls-1" x1="857.93" y1="301.26" x2="840.3" y2="338.26"/><line class="cls-1" x1="1555.58" y1="246.01" x2="1619.74" y2="292.45"/><line class="cls-1" x1="1556.89" y1="239.74" x2="1632.76" y2="293.2"/><line class="cls-1" x1="1568.44" y1="238.51" x2="1637.77" y2="283.85"/><line class="cls-1" x1="1552.95" y1="258.29" x2="1592.86" y2="292.45"/><line class="cls-1" x1="1389.2" y1="256.02" x2="1408.09" y2="272"/><line class="cls-1" x1="1389.41" y1="251.41" x2="1410.25" y2="263.37"/><line class="cls-1" x1="1389.41" y1="247.17" x2="1411.21" y2="257.3"/><line class="cls-1" x1="1389.41" y1="303.06" x2="1407.38" y2="287.97"/><line class="cls-1" x1="1412.03" y1="296.33" x2="1389.41" y2="312.78"/><line class="cls-1" x1="1389.41" y1="320.7" x2="1415.3" y2="302.22"/><line class="cls-1" x1="1481.45" y1="253.06" x2="1497.28" y2="238.56"/><line class="cls-1" x1="1491.35" y1="238.56" x2="1478.25" y2="249.99"/><line class="cls-1" x1="1645.51" y1="297.29" x2="1689.86" y2="241.46"/><polyline class="cls-1" points="1689.38 257.93 1676.4 271.08 1649.01 298.82"/><line class="cls-1" x1="1508.14" y1="307.41" x2="1494.01" y2="338.31"/><line class="cls-1" x1="1516.41" y1="304.76" x2="1501.42" y2="338.31"/><line class="cls-1" x1="1524.12" y1="302.3" x2="1506.49" y2="338.31"/><line class="cls-1" x1="881.77" y1="452.51" x2="945.93" y2="491.87"/><line class="cls-1" x1="883.08" y1="447.2" x2="958.95" y2="492.5"/><line class="cls-1" x1="894.63" y1="446.16" x2="963.96" y2="484.58"/><line class="cls-1" x1="879.14" y1="462.92" x2="919.05" y2="491.87"/><line class="cls-1" x1="715.39" y1="461" x2="734.29" y2="474.53"/><line class="cls-1" x1="715.6" y1="457.08" x2="736.44" y2="467.22"/><line class="cls-1" x1="715.6" y1="453.5" x2="737.41" y2="462.08"/><line class="cls-1" x1="722.46" y1="495.98" x2="733.57" y2="488.07"/><line class="cls-1" x1="807.65" y1="458.49" x2="823.48" y2="446.2"/><line class="cls-1" x1="817.54" y1="446.2" x2="804.44" y2="455.89"/><line class="cls-1" x1="1068.99" y1="452.72" x2="1118.1" y2="491.87"/><line class="cls-1" x1="1073.4" y1="449.39" x2="1152.04" y2="488.96"/><line class="cls-1" x1="1080.74" y1="446.11" x2="1154.33" y2="483.52"/><path class="cls-1" d="M1221.64,512" transform="translate(0.37 0.21)"/><line class="cls-1" x1="971.7" y1="495.97" x2="1016.05" y2="448.66"/><polyline class="cls-1" points="1026.98 452.82 1010.33 467.11 975.2 497.27"/><line class="cls-1" x1="1215.37" y1="483.7" x2="1180.48" y2="457.02"/><line class="cls-1" x1="1186.41" y1="454.87" x2="1215.37" y2="470.99"/><line class="cls-1" x1="1189.64" y1="454.28" x2="1215.37" y2="468.17"/><line class="cls-1" x1="1554.97" y1="452.56" x2="1619.13" y2="491.92"/><line class="cls-1" x1="1556.28" y1="447.26" x2="1632.15" y2="492.56"/><line class="cls-1" x1="1567.83" y1="446.21" x2="1637.16" y2="484.63"/><line class="cls-1" x1="1552.34" y1="462.97" x2="1592.24" y2="491.92"/><line class="cls-1" x1="1388.58" y1="461.05" x2="1407.48" y2="474.59"/><line class="cls-1" x1="1388.8" y1="457.14" x2="1409.64" y2="467.28"/><line class="cls-1" x1="1388.8" y1="453.55" x2="1410.6" y2="462.14"/><line class="cls-1" x1="1395.65" y1="496.03" x2="1406.76" y2="488.12"/><line class="cls-1" x1="1480.84" y1="458.55" x2="1496.67" y2="446.25"/><line class="cls-1" x1="1490.74" y1="446.25" x2="1477.64" y2="455.95"/><path class="cls-1" d="M1895.83,513.06" transform="translate(0.37 0.21)"/><line class="cls-1" x1="1644.89" y1="496.03" x2="1689.24" y2="448.72"/><polyline class="cls-1" points="1689.44 462.09 1676.66 473.06 1649.68 496.21"/><line class="cls-1" x1="1555.76" y1="9.7" x2="1619.92" y2="56.14"/><line class="cls-1" x1="1557.07" y1="3.43" x2="1632.94" y2="56.89"/><line class="cls-1" x1="1565.21" y1="0.21" x2="1637.95" y2="47.54"/><line class="cls-1" x1="1553.13" y1="21.98" x2="1593.03" y2="56.14"/><line class="cls-1" x1="1389.37" y1="19.71" x2="1408.27" y2="35.69"/><line class="cls-1" x1="1389.59" y1="15.1" x2="1410.43" y2="27.06"/><line class="cls-1" x1="1389.59" y1="10.86" x2="1411.39" y2="20.99"/><path class="cls-1" d="M1401.13,132.55s71.64-8.86,71.64-8.86" transform="translate(0.37 0.21)"/><line class="cls-1" x1="1471.7" y1="130.48" x2="1402.23" y2="136.93"/><line class="cls-1" x1="1402.65" y1="139.34" x2="1471.95" y2="133.7"/><line class="cls-1" x1="1389.59" y1="66.76" x2="1407.56" y2="51.66"/><line class="cls-1" x1="1412.21" y1="60.02" x2="1389.59" y2="76.47"/><line class="cls-1" x1="1389.59" y1="84.39" x2="1415.48" y2="65.91"/><line class="cls-1" x1="1482.04" y1="16.76" x2="1499.87" y2="0.41"/><line class="cls-1" x1="1493.19" y1="0.41" x2="1478.43" y2="13.3"/><line class="cls-1" x1="1565.91" y1="120.6" x2="1574.88" y2="150.08"/><line class="cls-1" x1="1577.79" y1="110.77" x2="1590.18" y2="150.18"/><line class="cls-1" x1="1582.04" y1="106.67" x2="1595.91" y2="150.08"/><line class="cls-1" x1="1670.53" y1="105.81" x2="1612.54" y2="150.15"/><line class="cls-1" x1="1672.56" y1="108.86" x2="1621.2" y2="150.15"/><line class="cls-1" x1="1645.69" y1="60.99" x2="1690.04" y2="5.16"/><polyline class="cls-1" points="1689.2 21.98 1676.34 35.01 1649.19 62.52"/><line class="cls-1" x1="1508.31" y1="71.1" x2="1485.4" y2="121.24"/><line class="cls-1" x1="1516.59" y1="68.45" x2="1492.24" y2="122.91"/><line class="cls-1" x1="1495.98" y1="123.82" x2="1524.3" y2="65.98"/></svg>