<svg id="TwinLines_Grain_Large_" data-name="TwinLines (Grain Large)" xmlns="http://www.w3.org/2000/svg" viewBox="0 0 300 100"><defs><style>.cls-1{fill:none;stroke:#1d1d1b;stroke-miterlimit:10;stroke-width:0.5px;}</style></defs><title>M_TwinLinesGrainLarge</title><line class="cls-1" x1="166.21" y1="7.63" x2="230.37" y2="54.07"/><line class="cls-1" x1="167.52" y1="1.36" x2="243.39" y2="54.82"/><line class="cls-1" x1="179.07" y1="0.13" x2="248.4" y2="45.47"/><line class="cls-1" x1="163.58" y1="19.91" x2="203.48" y2="54.07"/><line class="cls-1" x1="-0.18" y1="17.64" x2="18.72" y2="33.62"/><line class="cls-1" x1="0.03" y1="13.03" x2="20.88" y2="24.99"/><line class="cls-1" x1="0.03" y1="8.79" x2="21.84" y2="18.92"/><line class="cls-1" x1="0.03" y1="64.68" x2="18" y2="49.59"/><line class="cls-1" x1="22.65" y1="57.95" x2="0.03" y2="74.4"/><line class="cls-1" x1="0.03" y1="82.32" x2="25.93" y2="63.84"/><line class="cls-1" x1="92.08" y1="14.69" x2="107.91" y2="0.18"/><line class="cls-1" x1="101.98" y1="0.18" x2="88.88" y2="11.62"/><line class="cls-1" x1="256.13" y1="58.91" x2="300.48" y2="3.09"/><polyline class="cls-1" points="300 19.55 287.02 32.7 259.63 60.45"/><line class="cls-1" x1="118.76" y1="69.03" x2="104.63" y2="99.93"/><line class="cls-1" x1="127.03" y1="66.38" x2="112.04" y2="99.93"/><line class="cls-1" x1="134.74" y1="63.92" x2="117.11" y2="99.93"/></svg>