<svg id="TwinLines_Grain_Large_" data-name="TwinLines (Grain Large)" xmlns="http://www.w3.org/2000/svg" viewBox="0 0 650 100"><defs><style>.cls-1,.cls-2{fill:none;}.cls-1{stroke:#1d1d1b;stroke-miterlimit:10;stroke-width:0.5px;}</style></defs><title>M_TwinLinesGrainLarge</title><line class="cls-1" x1="166.21" y1="7.7" x2="230.37" y2="54.14"/><line class="cls-1" x1="167.51" y1="1.43" x2="243.38" y2="54.89"/><line class="cls-1" x1="179.07" y1="0.2" x2="248.4" y2="45.54"/><line class="cls-1" x1="163.57" y1="19.98" x2="203.48" y2="54.14"/><line class="cls-1" x1="-0.18" y1="17.71" x2="18.72" y2="33.69"/><line class="cls-1" x1="0.03" y1="13.09" x2="20.87" y2="25.06"/><line class="cls-1" x1="0.03" y1="8.86" x2="21.84" y2="18.99"/><line class="cls-1" x1="0.03" y1="64.75" x2="18" y2="49.66"/><line class="cls-1" x1="22.65" y1="58.02" x2="0.03" y2="74.47"/><line class="cls-1" x1="0.03" y1="82.39" x2="25.92" y2="63.9"/><line class="cls-1" x1="92.08" y1="14.75" x2="107.91" y2="0.25"/><line class="cls-1" x1="101.97" y1="0.25" x2="88.88" y2="11.68"/><line class="cls-1" x1="315.48" y1="86.99" x2="384.26" y2="62.03"/><line class="cls-1" x1="385.51" y1="66.5" x2="318.28" y2="91.74"/><line class="cls-1" x1="393.36" y1="94.51" x2="350.39" y2="100"/><line class="cls-1" x1="353.42" y1="7.95" x2="402.53" y2="54.14"/><line class="cls-1" x1="357.83" y1="4.01" x2="436.47" y2="50.71"/><line class="cls-1" x1="365.17" y1="0.14" x2="438.77" y2="44.29"/><line class="cls-1" x1="256.13" y1="58.98" x2="300.48" y2="3.15"/><polyline class="cls-1" points="311.41 8.06 294.76 24.92 259.63 60.51"/><line class="cls-1" x1="605.09" y1="63.4" x2="548.13" y2="12.01"/><line class="cls-1" x1="551.11" y1="5.69" x2="619.65" y2="50.71"/><line class="cls-1" x1="552.64" y1="3.39" x2="620.61" y2="46.66"/><line class="cls-1" x1="625.19" y1="32.95" x2="650.15" y2="37.4"/><line class="cls-1" x1="625.43" y1="29.97" x2="650.15" y2="30.75"/><line class="cls-1" x1="441.32" y1="94.51" x2="480.73" y2="76.05"/><line class="cls-1" x1="487.39" y1="79.07" x2="444.48" y2="100"/><line class="cls-1" x1="511.34" y1="97.29" x2="499.91" y2="100"/><line class="cls-1" x1="118.76" y1="69.1" x2="104.63" y2="100"/><line class="cls-1" x1="127.03" y1="66.45" x2="112.04" y2="100"/><line class="cls-1" x1="134.74" y1="63.99" x2="117.11" y2="100"/><rect class="cls-2" y="-0.03" width="650.45" height="100.03"/><line class="cls-1" x1="528.78" y1="25.02" x2="533.58" y2="74.51"/><line class="cls-1" x1="524.83" y1="22.07" x2="530.19" y2="77.33"/></svg>