<svg id="TwinLines_Grain_Large_" data-name="TwinLines (Grain Large)" xmlns="http://www.w3.org/2000/svg" viewBox="0 0 500 150"><defs><style>.cls-1{fill:none;stroke:#1d1d1b;stroke-miterlimit:10;stroke-width:0.5px;}</style></defs><title>M_TwinLinesGrainLarge</title><line class="cls-1" x1="166.39" y1="7.72" x2="230.55" y2="54.17"/><line class="cls-1" x1="167.69" y1="1.45" x2="243.57" y2="54.91"/><line class="cls-1" x1="179.25" y1="0.23" x2="248.58" y2="45.56"/><line class="cls-1" x1="163.75" y1="20" x2="203.66" y2="54.17"/><line class="cls-1" y1="17.74" x2="18.9" y2="33.71"/><line class="cls-1" x1="0.21" y1="13.12" x2="21.05" y2="25.08"/><line class="cls-1" x1="0.21" y1="8.89" x2="22.02" y2="19.02"/><path class="cls-1" d="M12.13,130.79s71.64-8.86,71.64-8.86"/><line class="cls-1" x1="82.32" y1="128.5" x2="12.85" y2="134.95"/><line class="cls-1" x1="13.27" y1="137.37" x2="82.57" y2="131.73"/><line class="cls-1" x1="0.21" y1="64.78" x2="18.18" y2="49.68"/><line class="cls-1" x1="22.83" y1="58.04" x2="0.21" y2="74.5"/><line class="cls-1" x1="0.21" y1="82.42" x2="26.11" y2="63.93"/><line class="cls-1" x1="92.26" y1="14.78" x2="108.09" y2="0.27"/><line class="cls-1" x1="102.16" y1="0.27" x2="89.06" y2="11.71"/><line class="cls-1" x1="175.84" y1="119.27" x2="185.22" y2="150.13"/><line class="cls-1" x1="188.26" y1="108.98" x2="201.24" y2="150.24"/><line class="cls-1" x1="192.72" y1="104.7" x2="207.23" y2="150.13"/><line class="cls-1" x1="281.06" y1="103.84" x2="220.37" y2="150.24"/><line class="cls-1" x1="283.19" y1="107.02" x2="229.44" y2="150.24"/><line class="cls-1" x1="315.67" y1="87.01" x2="384.44" y2="62.05"/><line class="cls-1" x1="385.69" y1="66.53" x2="318.46" y2="91.77"/><line class="cls-1" x1="323.65" y1="103.47" x2="393.54" y2="94.53"/><line class="cls-1" x1="353.6" y1="7.97" x2="402.71" y2="55.35"/><line class="cls-1" x1="358.01" y1="4.04" x2="436.66" y2="50.73"/><line class="cls-1" x1="365.36" y1="0.17" x2="438.95" y2="44.31"/><line class="cls-1" x1="256.31" y1="59.01" x2="300.66" y2="3.18"/><polyline class="cls-1" points="311.59 8.09 294.95 24.95 259.81 60.54"/><line class="cls-1" x1="441.5" y1="94.53" x2="480.91" y2="76.07"/><line class="cls-1" x1="487.57" y1="79.09" x2="437.51" y2="103.51"/><line class="cls-1" x1="439.23" y1="114.45" x2="500" y2="100.04"/><line class="cls-1" x1="118.94" y1="69.12" x2="96.02" y2="119.26"/><line class="cls-1" x1="127.21" y1="66.47" x2="102.87" y2="120.93"/><line class="cls-1" x1="106.61" y1="121.85" x2="134.92" y2="64.01"/><line class="cls-1" x1="371.35" y1="129.61" x2="440.96" y2="144.56"/><line class="cls-1" x1="372.85" y1="134.7" x2="440.96" y2="150.17"/></svg>