<svg id="TwinLines_Grain_Elongated_" data-name="TwinLines (Grain Elongated)" xmlns="http://www.w3.org/2000/svg" viewBox="0 0 300 50"><defs><style>.cls-1{fill:none;stroke:#1d1d1b;stroke-miterlimit:10;stroke-width:0.5px;}</style></defs><title>M_TwinLinesGrainElongated</title><path class="cls-1" d="M78,50.42s56.49-2.71,56.49-2.71"/><line class="cls-1" x1="118.82" y1="13.98" x2="134.44" y2="47.71"/><line class="cls-1" x1="124.17" y1="13.98" x2="139.34" y2="45.52"/><line class="cls-1" x1="132.46" y1="12.52" x2="145.11" y2="43.96"/><line class="cls-1" x1="142.56" y1="38.44" x2="174.19" y2="29.75"/><line class="cls-1" x1="140.61" y1="32.79" x2="184.6" y2="22.04"/><line class="cls-1" x1="197.28" y1="50.57" x2="189.3" y2="42.42"/><line class="cls-1" x1="200.31" y1="43.96" x2="206.19" y2="50.57"/><line class="cls-1" x1="214.7" y1="8.03" x2="237.25" y2="25.76"/><line class="cls-1" x1="223.16" y1="7.41" x2="241.39" y2="23.71"/><line class="cls-1" x1="-0.5" y1="14.38" x2="6.84" y2="2.64"/><line class="cls-1" x1="10.95" y1="3.77" x2="0.13" y2="20.9"/><line class="cls-1" x1="274.13" y1="16.9" x2="270.09" y2="38.82"/><line class="cls-1" x1="279.09" y1="17.61" x2="279.09" y2="38.82"/><line class="cls-1" x1="31.2" y1="37.15" x2="50.91" y2="14.38"/><line class="cls-1" x1="54.45" y1="15.35" x2="43.35" y2="38.44"/><line class="cls-1" x1="48.25" y1="28.24" x2="79.79" y2="35.95"/></svg>