<svg id="TwinLines_Grain_Elongated_" data-name="TwinLines (Grain Elongated)" xmlns="http://www.w3.org/2000/svg" viewBox="0 0 500 100"><defs><style>.cls-1{fill:none;stroke:#1d1d1b;stroke-miterlimit:10;stroke-width:0.5px;}</style></defs><title>M_TwinLinesGrainElongated</title><line class="cls-1" x1="68.45" y1="3.47" x2="99.56" y2="16.09"/><line class="cls-1" x1="77.36" y1="2.32" x2="108.69" y2="12.33"/><line class="cls-1" x1="87.56" y1="1.07" x2="107.22" y2="6.7"/><path class="cls-1" d="M83.14,99.75S139.63,97,139.63,97"/><line class="cls-1" x1="93.47" y1="39.75" x2="74.19" y2="20.54"/><line class="cls-1" x1="82.46" y1="19.72" x2="97.92" y2="38.09"/><line class="cls-1" x1="101.55" y1="36.73" x2="87.56" y2="19.29"/><line class="cls-1" x1="133.98" y1="46.22" x2="156.86" y2="30.46"/><line class="cls-1" x1="148.76" y1="30.46" x2="124" y2="47.2"/><line class="cls-1" x1="124" y1="63.31" x2="139.63" y2="97.04"/><line class="cls-1" x1="129.36" y1="63.31" x2="144.53" y2="94.85"/><line class="cls-1" x1="137.64" y1="61.86" x2="150.29" y2="93.3"/><line class="cls-1" x1="147.75" y1="87.77" x2="179.37" y2="79.08"/><line class="cls-1" x1="145.8" y1="82.12" x2="189.78" y2="71.37"/><line class="cls-1" x1="202.46" y1="99.9" x2="194.49" y2="91.76"/><line class="cls-1" x1="205.49" y1="93.3" x2="211.38" y2="99.9"/><line class="cls-1" x1="165.16" y1="30.46" x2="164.44" y2="9.38"/><line class="cls-1" x1="170.94" y1="9.01" x2="172.11" y2="30.69"/><line class="cls-1" x1="205.49" y1="14.01" x2="239.29" y2="2.32"/><line class="cls-1" x1="210.47" y1="15.87" x2="245.76" y2="2.77"/><line class="cls-1" x1="222.51" y1="20.37" x2="254.6" y2="4.01"/><line class="cls-1" x1="224.7" y1="7.32" x2="211.36" y2="2.99"/><line class="cls-1" x1="219.89" y1="57.37" x2="242.43" y2="75.1"/><line class="cls-1" x1="228.34" y1="56.74" x2="246.58" y2="73.04"/><line class="cls-1" x1="298.84" y1="8.56" x2="312.11" y2="37.51"/><line class="cls-1" x1="304.11" y1="7.32" x2="319.15" y2="36.86"/><line class="cls-1" x1="314.67" y1="28.07" x2="374.95" y2="20.32"/><line class="cls-1" x1="312.51" y1="23.82" x2="370.48" y2="15.87"/><line class="cls-1" x1="309.83" y1="18.55" x2="352.5" y2="9.64"/><line class="cls-1" x1="1.15" y1="69.37" x2="12.03" y2="51.97"/><line class="cls-1" x1="16.14" y1="53.1" x2="5.31" y2="70.23"/><line class="cls-1" x1="281.67" y1="99.99" x2="357.31" y2="91.76"/><line class="cls-1" x1="318.5" y1="99.99" x2="362.49" y2="94.85"/><line class="cls-1" x1="334.4" y1="45.52" x2="332.85" y2="68.04"/><line class="cls-1" x1="341.77" y1="46.22" x2="339.39" y2="68.04"/><line class="cls-1" x1="344.81" y1="46.22" x2="341.8" y2="68.27"/><line class="cls-1" x1="395.44" y1="94.85" x2="406.48" y2="99.9"/><line class="cls-1" x1="432.02" y1="92.77" x2="438.63" y2="100.01"/><line class="cls-1" x1="478.64" y1="13.44" x2="476.69" y2="31.37"/><line class="cls-1" x1="482.61" y1="13.44" x2="483.99" y2="33.14"/><line class="cls-1" x1="395.44" y1="30.69" x2="372.17" y2="48.1"/><line class="cls-1" x1="381.81" y1="48.71" x2="402.87" y2="32.41"/><line class="cls-1" x1="392.11" y1="40.85" x2="420.86" y2="45.52"/><line class="cls-1" x1="467.65" y1="55.05" x2="470.11" y2="67.16"/><line class="cls-1" x1="470.96" y1="53.85" x2="475.25" y2="66.77"/><line class="cls-1" x1="491.35" y1="90.9" x2="500.48" y2="91.88"/><line class="cls-1" x1="484.29" y1="95.29" x2="500" y2="96.63"/><line class="cls-1" x1="408.05" y1="61.11" x2="398.83" y2="76.66"/><line class="cls-1" x1="404.17" y1="68.04" x2="432.02" y2="68.27"/><line class="cls-1" x1="402.87" y1="70.36" x2="422.7" y2="72.72"/></svg>