<svg id="TwinLines_Grain_Small_" data-name="TwinLines (Grain Small)" xmlns="http://www.w3.org/2000/svg" viewBox="0 0 500 50"><defs><style>.cls-1,.cls-2{fill:none;}.cls-1{stroke:#1d1d1b;stroke-miterlimit:10;stroke-width:0.5px;}</style></defs><title>M_TwinLinesGrainSmall</title><line class="cls-1" x1="192.36" y1="46.36" x2="189.63" y2="49.91"/><line class="cls-1" x1="195.73" y1="47.83" x2="194.12" y2="49.91"/><line class="cls-1" x1="200.05" y1="49.73" x2="199.94" y2="49.91"/><line class="cls-1" x1="26.04" y1="9.96" x2="27.99" y2="30.7"/><line class="cls-1" x1="31.68" y1="31.22" x2="30.83" y2="10.63"/><line class="cls-1" x1="31.68" y1="10.75" x2="33.17" y2="31.22"/><line class="cls-1" x1="35.73" y1="11.32" x2="38.62" y2="32.21"/><path class="cls-1" d="M81.7,45.36l-3.47,4.55"/><line class="cls-1" x1="85.34" y1="47" x2="83.05" y2="49.91"/><line class="cls-1" x1="89.03" y1="48.67" x2="88.13" y2="49.91"/><line class="cls-1" x1="90.67" y1="49.42" x2="90.33" y2="49.91"/><line class="cls-1" x1="121.2" y1="12.23" x2="134.04" y2="2.3"/><line class="cls-1" x1="137.62" y1="3.6" x2="123.3" y2="14.79"/><line class="cls-1" x1="139.15" y1="4.14" x2="123.99" y2="15.64"/><line class="cls-1" x1="155.31" y1="49.91" x2="153.94" y2="44.91"/><line class="cls-1" x1="161.01" y1="49.91" x2="158.39" y2="41.53"/><line class="cls-1" x1="138.73" y1="29.1" x2="172.79" y2="23.51"/><line class="cls-1" x1="141.43" y1="32.21" x2="173.19" y2="26.3"/><line class="cls-1" x1="246.15" y1="49.91" x2="245.5" y2="38.77"/><line class="cls-1" x1="249.87" y1="49.91" x2="247.17" y2="38.82"/><line class="cls-1" x1="252.53" y1="49.91" x2="248.86" y2="38.77"/><line class="cls-1" x1="87.44" y1="10.75" x2="86.85" y2="24.8"/><line class="cls-1" x1="90.67" y1="9.19" x2="89.03" y2="26.3"/><line class="cls-1" x1="92.63" y1="8.51" x2="99.84" y2="28.44"/><line class="cls-1" x1="93.86" y1="7.98" x2="103.38" y2="27.43"/><rect class="cls-2" y="0.1" width="500" height="49.81"/><line class="cls-1" x1="206.49" y1="9.89" x2="213.5" y2="0.1"/><line class="cls-1" x1="217.33" y1="0.1" x2="214.18" y2="11.1"/><path class="cls-1" d="M272.75,8.51S311,3,311,3"/><line class="cls-1" x1="309.9" y1="7.1" x2="273.13" y2="11.1"/><line class="cls-1" x1="273.35" y1="12.59" x2="310.03" y2="9.1"/><path class="cls-1" d="M274.14,15.43c1.53,0.17,31.51,10.88,31.51,10.88"/><line class="cls-1" x1="361.6" y1="29.1" x2="366.25" y2="0.1"/><line class="cls-1" x1="371.53" y1="0.1" x2="364.22" y2="32.21"/><line class="cls-1" x1="375.25" y1="0.1" x2="366.25" y2="32.83"/><line class="cls-1" x1="430.97" y1="32.21" x2="427.31" y2="49.91"/><line class="cls-1" x1="434.23" y1="34.09" x2="433.5" y2="49.91"/><line class="cls-1" x1="436.99" y1="49.91" x2="436.99" y2="36.06"/><path class="cls-1" d="M424.54,49.91c2-8.88,4.25-18.89,4.43-19.57"/><line class="cls-1" x1="500" y1="3.02" x2="469.99" y2="11.1"/><line class="cls-1" x1="500" y1="6.93" x2="472.03" y2="13.9"/><line class="cls-1" x1="500" y1="23.33" x2="474.52" y2="19.45"/></svg>