<svg id="TwinLines_Grain_Elongated_" data-name="TwinLines (Grain Elongated)" xmlns="http://www.w3.org/2000/svg" viewBox="0 0 300 100"><defs><style>.cls-1{fill:none;stroke:#1d1d1b;stroke-miterlimit:10;stroke-width:0.5px;}</style></defs><title>M_TwinLinesGrainElongated</title><line class="cls-1" x1="68.04" y1="3.53" x2="99.16" y2="16.16"/><line class="cls-1" x1="76.95" y1="2.38" x2="108.29" y2="12.39"/><line class="cls-1" x1="87.15" y1="1.14" x2="106.81" y2="6.76"/><path class="cls-1" d="M82.73,99.82s56.49-2.71,56.49-2.71"/><line class="cls-1" x1="93.06" y1="39.82" x2="73.79" y2="20.61"/><line class="cls-1" x1="82.06" y1="19.79" x2="97.52" y2="38.15"/><line class="cls-1" x1="101.15" y1="36.8" x2="87.15" y2="19.36"/><line class="cls-1" x1="133.57" y1="46.29" x2="156.45" y2="30.52"/><line class="cls-1" x1="148.35" y1="30.52" x2="123.6" y2="47.27"/><line class="cls-1" x1="123.6" y1="63.38" x2="139.22" y2="97.11"/><line class="cls-1" x1="128.95" y1="63.38" x2="144.12" y2="94.92"/><line class="cls-1" x1="137.23" y1="61.92" x2="149.89" y2="93.36"/><line class="cls-1" x1="147.34" y1="87.83" x2="180.62" y2="78.97"/><line class="cls-1" x1="145.39" y1="82.19" x2="189.37" y2="71.43"/><line class="cls-1" x1="202.06" y1="99.96" x2="194.08" y2="91.82"/><line class="cls-1" x1="205.08" y1="93.36" x2="210.97" y2="99.96"/><line class="cls-1" x1="164.75" y1="30.52" x2="164.03" y2="9.45"/><line class="cls-1" x1="170.53" y1="9.07" x2="171.7" y2="30.75"/><line class="cls-1" x1="205.08" y1="14.07" x2="238.89" y2="2.38"/><line class="cls-1" x1="210.07" y1="15.93" x2="245.35" y2="2.83"/><line class="cls-1" x1="222.1" y1="20.44" x2="254.19" y2="4.07"/><line class="cls-1" x1="224.29" y1="7.39" x2="210.96" y2="3.06"/><line class="cls-1" x1="219.48" y1="57.43" x2="242.03" y2="75.16"/><line class="cls-1" x1="227.94" y1="56.8" x2="246.17" y2="73.11"/><line class="cls-1" x1="0.75" y1="69.43" x2="11.62" y2="52.03"/><line class="cls-1" x1="15.73" y1="53.16" x2="4.9" y2="70.3"/><line class="cls-1" x1="281.27" y1="100.05" x2="300" y2="98.01"/><line class="cls-1" x1="281.76" y1="20.31" x2="300" y2="36.61"/><line class="cls-1" x1="283.14" y1="19.32" x2="300" y2="31.69"/></svg>