<svg id="TwinLines_Grain_Elongated_" data-name="TwinLines (Grain Elongated)" xmlns="http://www.w3.org/2000/svg" viewBox="0 0 650 50"><defs><style>.cls-1{fill:none;stroke:#1d1d1b;stroke-miterlimit:10;stroke-width:0.5px;}</style></defs><title>M_TwinLinesGrainElongated</title><path class="cls-1" d="M83.36,49.71S139.85,47,139.85,47"/><line class="cls-1" x1="124.23" y1="13.26" x2="139.85" y2="46.99"/><line class="cls-1" x1="129.58" y1="13.26" x2="144.75" y2="44.8"/><line class="cls-1" x1="137.86" y1="11.81" x2="150.52" y2="43.25"/><line class="cls-1" x1="147.97" y1="37.72" x2="179.6" y2="29.03"/><line class="cls-1" x1="146.02" y1="32.07" x2="190" y2="21.32"/><line class="cls-1" x1="202.68" y1="49.85" x2="194.71" y2="41.71"/><line class="cls-1" x1="205.71" y1="43.25" x2="211.6" y2="49.85"/><line class="cls-1" x1="220.11" y1="7.32" x2="242.66" y2="25.05"/><line class="cls-1" x1="228.56" y1="6.69" x2="246.8" y2="22.99"/><line class="cls-1" x1="1.38" y1="19.32" x2="12.25" y2="1.92"/><line class="cls-1" x1="16.36" y1="3.05" x2="5.53" y2="20.18"/><line class="cls-1" x1="281.89" y1="49.94" x2="357.53" y2="41.71"/><line class="cls-1" x1="318.72" y1="49.94" x2="362.71" y2="44.8"/><line class="cls-1" x1="334.62" y1="0.09" x2="333.07" y2="18.04"/><line class="cls-1" x1="342.31" x2="339.61" y2="18.04"/><line class="cls-1" x1="345.38" x2="342.03" y2="18.22"/><line class="cls-1" x1="395.66" y1="44.8" x2="406.71" y2="49.85"/><line class="cls-1" x1="432.24" y1="42.72" x2="438.85" y2="49.96"/><line class="cls-1" x1="467.88" y1="5" x2="470.33" y2="17.11"/><line class="cls-1" x1="471.19" y1="3.8" x2="475.47" y2="16.72"/><line class="cls-1" x1="491.58" y1="40.85" x2="576.43" y2="49.96"/><line class="cls-1" x1="484.51" y1="45.24" x2="537.77" y2="49.77"/><line class="cls-1" x1="516.84" y1="9.22" x2="541.2" y2="-1.49"/><line class="cls-1" x1="531.41" y1="9.99" x2="547.99" y2="-1.32"/><line class="cls-1" x1="632.99" y1="27.38" x2="630.64" y2="46.28"/><line class="cls-1" x1="635.47" y1="49.96" x2="638.45" y2="27.38"/><line class="cls-1" x1="632.06" y1="35.37" x2="618.31" y2="36.51"/><line class="cls-1" x1="408.27" y1="11.06" x2="399.05" y2="26.61"/><line class="cls-1" x1="404.39" y1="17.99" x2="432.24" y2="18.22"/><line class="cls-1" x1="403.09" y1="20.31" x2="422.93" y2="22.67"/><line class="cls-1" x1="279.54" y1="16.18" x2="275.5" y2="38.11"/><line class="cls-1" x1="284.5" y1="16.89" x2="284.5" y2="38.11"/></svg>