<svg id="TwinLines_Grain_Small_" data-name="TwinLines (Grain Small)" xmlns="http://www.w3.org/2000/svg" viewBox="0 0 500 100"><defs><style>.cls-1,.cls-2{fill:none;}.cls-1{stroke:#1d1d1b;stroke-miterlimit:10;stroke-width:0.5px;}</style></defs><title>M_TwinLinesGrainSmall</title><line class="cls-1" x1="346.19" y1="68.51" x2="382.25" y2="94.57"/><line class="cls-1" x1="347.01" y1="64.63" x2="389.91" y2="94.57"/><line class="cls-1" x1="349" y1="60.5" x2="394.06" y2="90.1"/><line class="cls-1" x1="344.56" y1="76.11" x2="366.25" y2="94.57"/><line class="cls-1" x1="167.5" y1="78.39" x2="192.36" y2="46.17"/><line class="cls-1" x1="170.43" y1="80.27" x2="195.73" y2="47.64"/><line class="cls-1" x1="200.05" y1="49.53" x2="178.37" y2="83.54"/><line class="cls-1" x1="26.04" y1="9.84" x2="27.99" y2="30.54"/><line class="cls-1" x1="31.68" y1="31.07" x2="30.83" y2="10.51"/><line class="cls-1" x1="31.68" y1="10.63" x2="33.17" y2="31.07"/><line class="cls-1" x1="35.73" y1="11.2" x2="38.62" y2="32.05"/><line class="cls-1" x1="13.2" y1="77.66" x2="37.18" y2="59.88"/><line class="cls-1" x1="39.5" y1="62.04" x2="11.76" y2="84.13"/><path class="cls-1" d="M57.53,78c1-2.67,24.17-32.85,24.17-32.85"/><line class="cls-1" x1="85.34" y1="46.81" x2="59.75" y2="79.28"/><line class="cls-1" x1="64.05" y1="82.88" x2="89.03" y2="48.48"/><line class="cls-1" x1="90.67" y1="49.22" x2="66.33" y2="84.13"/><line class="cls-1" x1="121.2" y1="12.11" x2="134.04" y2="2.21"/><line class="cls-1" x1="137.62" y1="3.49" x2="123.3" y2="14.67"/><line class="cls-1" x1="139.15" y1="4.04" x2="123.99" y2="15.51"/><line class="cls-1" x1="162.83" y1="77.15" x2="153.94" y2="44.72"/><line class="cls-1" x1="158.39" y1="41.35" x2="169.26" y2="76.11"/><line class="cls-1" x1="138.73" y1="28.94" x2="172.79" y2="23.37"/><line class="cls-1" x1="141.43" y1="32.05" x2="173.19" y2="26.16"/><line class="cls-1" x1="111.67" y1="99.11" x2="101.96" y2="96.57"/><line class="cls-1" x1="245.5" y1="38.59" x2="246.5" y2="55.69"/><line class="cls-1" x1="247.17" y1="38.64" x2="251.33" y2="55.69"/><line class="cls-1" x1="248.86" y1="38.59" x2="254.5" y2="55.69"/><line class="cls-1" x1="87.44" y1="10.63" x2="86.85" y2="24.66"/><line class="cls-1" x1="90.67" y1="9.08" x2="89.03" y2="26.16"/><line class="cls-1" x1="92.63" y1="8.4" x2="99.84" y2="28.29"/><line class="cls-1" x1="93.86" y1="7.87" x2="103.38" y2="27.28"/><rect class="cls-2" width="500" height="99.11"/><line class="cls-1" x1="206.49" y1="9.78" x2="213.5"/><line class="cls-1" x1="217.33" x2="214.18" y2="10.98"/><path class="cls-1" d="M272.75,8.4S311,2.87,311,2.87"/><line class="cls-1" x1="309.9" y1="6.99" x2="273.13" y2="10.98"/><line class="cls-1" x1="273.35" y1="12.47" x2="310.03" y2="8.98"/><path class="cls-1" d="M274.14,15.3c1.53,0.17,31.51,10.86,31.51,10.86"/><line class="cls-1" x1="253.07" y1="91.33" x2="243.99" y2="99.11"/><line class="cls-1" x1="261.36" y1="92.54" x2="252.2" y2="99.11"/><line class="cls-1" x1="263.43" y1="96.22" x2="259.32" y2="99.11"/><line class="cls-1" x1="304.04" y1="71.83" x2="316.88" y2="58.94"/><line class="cls-1" x1="313.13" y1="56.16" x2="301.09" y2="68.51"/><line class="cls-1" x1="361.6" y1="28.94" x2="366.25"/><line class="cls-1" x1="371.53" x2="364.22" y2="32.05"/><line class="cls-1" x1="375.25" x2="366.25" y2="32.67"/><line class="cls-1" x1="424.21" y1="64.63" x2="430.97" y2="32.05"/><line class="cls-1" x1="434.23" y1="33.92" x2="432.66" y2="68.11"/><line class="cls-1" x1="436.99" y1="69.89" x2="436.99" y2="35.89"/><path class="cls-1" d="M429,30.18c-0.33,1.24-7.53,33.31-7.53,33.31"/><line class="cls-1" x1="500" y1="2.92" x2="469.99" y2="10.98"/><line class="cls-1" x1="500" y1="6.82" x2="472.03" y2="13.79"/><line class="cls-1" x1="500" y1="23.19" x2="474.52" y2="19.32"/></svg>