<svg id="TwinLines_Grain_Small_" data-name="TwinLines (Grain Small)" xmlns="http://www.w3.org/2000/svg" viewBox="0 0 650 100"><defs><style>.cls-1,.cls-2{fill:none;}.cls-1{stroke:#1d1d1b;stroke-miterlimit:10;stroke-width:0.5px;}</style></defs><title>M_TwinLinesGrainSmall</title><line class="cls-1" x1="346.19" y1="69.45" x2="382.25" y2="95.51"/><line class="cls-1" x1="347.01" y1="65.57" x2="389.91" y2="95.51"/><line class="cls-1" x1="349" y1="61.44" x2="394.06" y2="91.05"/><line class="cls-1" x1="344.56" y1="77.06" x2="366.25" y2="95.51"/><line class="cls-1" x1="167.5" y1="79.33" x2="192.36" y2="47.11"/><line class="cls-1" x1="170.43" y1="81.21" x2="195.73" y2="48.58"/><line class="cls-1" x1="200.05" y1="50.47" x2="178.37" y2="84.48"/><line class="cls-1" x1="26.04" y1="10.78" x2="27.99" y2="31.48"/><line class="cls-1" x1="31.68" y1="32.01" x2="30.83" y2="11.46"/><line class="cls-1" x1="31.68" y1="11.58" x2="33.17" y2="32.01"/><line class="cls-1" x1="35.73" y1="12.15" x2="38.62" y2="32.99"/><line class="cls-1" x1="13.2" y1="78.61" x2="37.18" y2="60.82"/><line class="cls-1" x1="39.5" y1="62.98" x2="11.76" y2="85.07"/><path class="cls-1" d="M57.53,79c1-2.67,24.17-32.85,24.17-32.85"/><line class="cls-1" x1="85.34" y1="47.75" x2="59.75" y2="80.23"/><line class="cls-1" x1="64.05" y1="83.82" x2="89.03" y2="49.42"/><line class="cls-1" x1="90.67" y1="50.16" x2="66.33" y2="85.07"/><line class="cls-1" x1="121.2" y1="13.05" x2="134.04" y2="3.15"/><line class="cls-1" x1="137.62" y1="4.43" x2="123.3" y2="15.61"/><line class="cls-1" x1="139.15" y1="4.98" x2="123.99" y2="16.45"/><line class="cls-1" x1="162.83" y1="78.09" x2="153.94" y2="45.66"/><line class="cls-1" x1="158.39" y1="42.29" x2="169.26" y2="77.06"/><line class="cls-1" x1="138.73" y1="29.88" x2="172.79" y2="24.32"/><line class="cls-1" x1="141.43" y1="32.99" x2="173.19" y2="27.1"/><line class="cls-1" x1="111.67" y1="100.05" x2="101.96" y2="97.52"/><line class="cls-1" x1="245.5" y1="39.53" x2="246.5" y2="56.64"/><line class="cls-1" x1="247.17" y1="39.58" x2="251.33" y2="56.64"/><line class="cls-1" x1="248.86" y1="39.53" x2="254.5" y2="56.64"/><line class="cls-1" x1="87.44" y1="11.58" x2="86.85" y2="25.6"/><line class="cls-1" x1="90.67" y1="10.02" x2="89.03" y2="27.1"/><line class="cls-1" x1="92.63" y1="9.34" x2="99.84" y2="29.23"/><line class="cls-1" x1="93.86" y1="8.81" x2="103.38" y2="28.22"/><rect class="cls-2" y="0.94" width="650" height="99.11"/><line class="cls-1" x1="206.49" y1="10.72" x2="213.5" y2="0.94"/><line class="cls-1" x1="217.33" y1="0.94" x2="214.18" y2="11.92"/><path class="cls-1" d="M272.75,9.34S311,3.81,311,3.81"/><line class="cls-1" x1="309.9" y1="7.93" x2="273.13" y2="11.92"/><line class="cls-1" x1="273.35" y1="13.41" x2="310.03" y2="9.92"/><path class="cls-1" d="M274.14,16.24c1.53,0.17,31.51,10.86,31.51,10.86"/><line class="cls-1" x1="253.07" y1="92.27" x2="243.99" y2="100.05"/><line class="cls-1" x1="261.36" y1="93.48" x2="252.2" y2="100.05"/><line class="cls-1" x1="263.43" y1="97.16" x2="259.32" y2="100.05"/><line class="cls-1" x1="304.04" y1="72.77" x2="316.88" y2="59.88"/><line class="cls-1" x1="313.13" y1="57.1" x2="301.09" y2="69.45"/><line class="cls-1" x1="361.6" y1="29.88" x2="366.25" y2="0.94"/><line class="cls-1" x1="371.53" y1="0.94" x2="364.22" y2="32.99"/><line class="cls-1" x1="375.25" y1="0.94" x2="366.25" y2="33.61"/><line class="cls-1" x1="424.21" y1="65.57" x2="430.97" y2="32.99"/><line class="cls-1" x1="434.23" y1="34.87" x2="432.66" y2="69.05"/><line class="cls-1" x1="436.99" y1="70.83" x2="436.99" y2="36.83"/><path class="cls-1" d="M429,31.13c-0.33,1.24-7.53,33.31-7.53,33.31"/><line class="cls-1" x1="469.99" y1="11.92" x2="504" y2="2.78"/><line class="cls-1" x1="507.34" y1="5.93" x2="472.03" y2="14.72"/><line class="cls-1" x1="474.52" y1="20.26" x2="504" y2="24.74"/><line class="cls-1" x1="504.05" y1="56.64" x2="520.55" y2="70.83"/><line class="cls-1" x1="506" y1="54.27" x2="529.31" y2="67.69"/><line class="cls-1" x1="507.34" y1="51.96" x2="533.04" y2="66.35"/><line class="cls-1" x1="564.66" y1="85.15" x2="586.33" y2="56.64"/><polyline class="cls-1" points="594.53 57.33 585.67 67.12 566.96 87.78"/><line class="cls-1" x1="610.85" y1="87.78" x2="587.42" y2="65.57"/><line class="cls-1" x1="590.5" y1="61.78" x2="613.44" y2="77.61"/><line class="cls-1" x1="591.22" y1="60.98" x2="614.12" y2="74.79"/><path class="cls-1" d="M567.78,10.51c1.22-.75,13-9.57,13-9.57"/><line class="cls-1" x1="587.42" y1="0.94" x2="570.64" y2="12.53"/><line class="cls-1" x1="601.97" y1="0.94" x2="606.46" y2="11.92"/><line class="cls-1" x1="605" y1="1.5" x2="607.96" y2="9.27"/><line class="cls-1" x1="618.16" y1="23.17" x2="627.31" y2="15"/><line class="cls-1" x1="631.38" y1="14.72" x2="621.92" y2="25.32"/><line class="cls-1" x1="635.38" y1="2.78" x2="645.65" y2="17.6"/><line class="cls-1" x1="637.92" y1="0.94" x2="649.18" y2="16.1"/><line class="cls-1" x1="634.52" y1="51.96" x2="650" y2="48.5"/><line class="cls-1" x1="634.67" y1="54.27" x2="650" y2="53.67"/><line class="cls-1" x1="641.29" y1="73.19" x2="650" y2="66.35"/></svg>