<svg id="TwinLines_Grain_Elongated_" data-name="TwinLines (Grain Elongated)" xmlns="http://www.w3.org/2000/svg" viewBox="0 0 650 100"><defs><style>.cls-1{fill:none;stroke:#1d1d1b;stroke-miterlimit:10;stroke-width:0.5px;}</style></defs><title>M_TwinLinesGrainElongated</title><line class="cls-1" x1="68.27" y1="3.57" x2="99.38" y2="16.19"/><line class="cls-1" x1="77.18" y1="2.42" x2="108.51" y2="12.43"/><line class="cls-1" x1="87.38" y1="1.17" x2="107.04" y2="6.8"/><path class="cls-1" d="M83,99.86s56.49-2.71,56.49-2.71"/><line class="cls-1" x1="93.29" y1="39.86" x2="74.01" y2="20.64"/><line class="cls-1" x1="82.28" y1="19.82" x2="97.74" y2="38.19"/><line class="cls-1" x1="101.37" y1="36.83" x2="87.38" y2="19.39"/><line class="cls-1" x1="133.8" y1="46.32" x2="156.68" y2="30.56"/><line class="cls-1" x1="148.58" y1="30.56" x2="123.82" y2="47.3"/><line class="cls-1" x1="123.82" y1="63.41" x2="139.45" y2="97.14"/><line class="cls-1" x1="129.18" y1="63.41" x2="144.35" y2="94.96"/><line class="cls-1" x1="137.46" y1="61.96" x2="150.11" y2="93.4"/><line class="cls-1" x1="147.57" y1="87.87" x2="179.19" y2="79.18"/><line class="cls-1" x1="145.62" y1="82.22" x2="189.6" y2="71.47"/><line class="cls-1" x1="202.28" y1="100" x2="194.31" y2="91.86"/><line class="cls-1" x1="205.31" y1="93.4" x2="211.2" y2="100"/><line class="cls-1" x1="164.98" y1="30.56" x2="164.26" y2="9.48"/><line class="cls-1" x1="170.76" y1="9.11" x2="171.93" y2="30.79"/><line class="cls-1" x1="205.31" y1="14.11" x2="239.11" y2="2.42"/><line class="cls-1" x1="210.29" y1="15.97" x2="245.58" y2="2.87"/><line class="cls-1" x1="222.33" y1="20.47" x2="254.42" y2="4.11"/><line class="cls-1" x1="224.52" y1="7.42" x2="211.18" y2="3.09"/><line class="cls-1" x1="219.71" y1="57.47" x2="242.25" y2="75.2"/><line class="cls-1" x1="228.16" y1="56.84" x2="246.4" y2="73.14"/><line class="cls-1" x1="298.66" y1="8.66" x2="311.93" y2="37.61"/><line class="cls-1" x1="303.93" y1="7.42" x2="318.97" y2="36.96"/><line class="cls-1" x1="314.49" y1="28.17" x2="374.77" y2="20.42"/><line class="cls-1" x1="312.33" y1="23.92" x2="370.3" y2="15.97"/><line class="cls-1" x1="309.65" y1="18.65" x2="352.32" y2="9.74"/><line class="cls-1" x1="0.97" y1="69.47" x2="11.85" y2="52.07"/><line class="cls-1" x1="15.96" y1="53.2" x2="5.13" y2="70.33"/><line class="cls-1" x1="281.49" y1="100.09" x2="357.13" y2="91.86"/><line class="cls-1" x1="318.32" y1="100.09" x2="362.31" y2="94.96"/><line class="cls-1" x1="334.22" y1="45.62" x2="332.67" y2="68.14"/><line class="cls-1" x1="341.6" y1="46.32" x2="339.21" y2="68.14"/><line class="cls-1" x1="344.63" y1="46.32" x2="341.63" y2="68.37"/><line class="cls-1" x1="395.26" y1="94.96" x2="406.3" y2="100"/><line class="cls-1" x1="431.84" y1="92.87" x2="438.45" y2="100.11"/><line class="cls-1" x1="478.46" y1="13.54" x2="476.52" y2="31.47"/><line class="cls-1" x1="482.43" y1="13.54" x2="483.81" y2="33.24"/><line class="cls-1" x1="511.57" y1="16.18" x2="513.26" y2="29.61"/><line class="cls-1" x1="514.46" y1="16.6" x2="518.41" y2="25.49"/><line class="cls-1" x1="395.26" y1="30.79" x2="371.99" y2="48.2"/><line class="cls-1" x1="381.63" y1="48.81" x2="402.69" y2="32.51"/><line class="cls-1" x1="391.93" y1="40.95" x2="420.68" y2="45.62"/><line class="cls-1" x1="467.47" y1="55.15" x2="469.93" y2="67.26"/><line class="cls-1" x1="470.78" y1="53.95" x2="475.07" y2="66.87"/><line class="cls-1" x1="491.17" y1="91" x2="576.03" y2="100.11"/><line class="cls-1" x1="484.11" y1="95.39" x2="537.37" y2="99.92"/><line class="cls-1" x1="572.8" y1="15.04" x2="596.9" y2="42.52"/><line class="cls-1" x1="583.94" y1="13.89" x2="604.43" y2="40.23"/><line class="cls-1" x1="516.43" y1="59.37" x2="540.8" y2="48.66"/><line class="cls-1" x1="531.01" y1="60.14" x2="547.59" y2="48.83"/><line class="cls-1" x1="606.74" y1="49.32" x2="645.89" y2="28.35"/><line class="cls-1" x1="618.95" y1="49.32" x2="649.09" y2="28.35"/><line class="cls-1" x1="632.59" y1="77.53" x2="630.24" y2="96.44"/><line class="cls-1" x1="635.07" y1="100.11" x2="638.05" y2="77.53"/><line class="cls-1" x1="631.66" y1="85.53" x2="617.91" y2="86.66"/><line class="cls-1" x1="407.87" y1="61.21" x2="398.65" y2="76.76"/><line class="cls-1" x1="403.99" y1="68.14" x2="431.84" y2="68.37"/><line class="cls-1" x1="402.69" y1="70.46" x2="422.53" y2="72.82"/></svg>