<svg id="TwinLines_Grain_Large_" data-name="TwinLines (Grain Large)" xmlns="http://www.w3.org/2000/svg" viewBox="0 0 300 150"><defs><style>.cls-1{fill:none;stroke:#1d1d1b;stroke-miterlimit:10;stroke-width:0.5px;}</style></defs><title>M_TwinLinesGrainLarge</title><line class="cls-1" x1="166.39" y1="9.48" x2="230.55" y2="55.93"/><line class="cls-1" x1="167.69" y1="3.22" x2="243.57" y2="56.68"/><line class="cls-1" x1="175.84" x2="248.58" y2="47.33"/><line class="cls-1" x1="163.75" y1="21.76" x2="203.66" y2="55.93"/><line class="cls-1" y1="19.5" x2="18.9" y2="35.47"/><line class="cls-1" x1="0.21" y1="14.88" x2="21.05" y2="26.85"/><line class="cls-1" x1="0.21" y1="10.65" x2="22.02" y2="20.78"/><path class="cls-1" d="M12.13,132.55s71.64-8.86,71.64-8.86"/><line class="cls-1" x1="82.32" y1="130.26" x2="12.85" y2="136.71"/><line class="cls-1" x1="13.27" y1="139.13" x2="82.57" y2="133.49"/><line class="cls-1" x1="0.21" y1="66.54" x2="18.18" y2="51.45"/><line class="cls-1" x1="22.83" y1="59.81" x2="0.21" y2="76.26"/><line class="cls-1" x1="0.21" y1="84.18" x2="26.11" y2="65.69"/><line class="cls-1" x1="92.66" y1="16.54" x2="110.5" y2="0.2"/><line class="cls-1" x1="103.82" y1="0.2" x2="89.06" y2="13.08"/><line class="cls-1" x1="176.54" y1="120.39" x2="185.5" y2="149.87"/><line class="cls-1" x1="188.41" y1="110.55" x2="200.8" y2="149.97"/><line class="cls-1" x1="192.67" y1="106.46" x2="206.53" y2="149.87"/><line class="cls-1" x1="281.15" y1="105.6" x2="223.17" y2="149.94"/><line class="cls-1" x1="283.19" y1="108.64" x2="231.83" y2="149.94"/><line class="cls-1" x1="256.31" y1="60.77" x2="300.66" y2="4.94"/><polyline class="cls-1" points="299.83 21.77 286.96 34.8 259.81 62.3"/><line class="cls-1" x1="118.94" y1="70.88" x2="96.02" y2="121.02"/><line class="cls-1" x1="127.21" y1="68.23" x2="102.87" y2="122.7"/><line class="cls-1" x1="106.61" y1="123.61" x2="134.92" y2="65.77"/></svg>