<svg id="TwinLines_Grain_Elongated_" data-name="TwinLines (Grain Elongated)" xmlns="http://www.w3.org/2000/svg" viewBox="0 0 300 150"><defs><style>.cls-1{fill:none;stroke:#1d1d1b;stroke-miterlimit:10;stroke-width:0.5px;}</style></defs><title>M_TwinLinesGrainElongated</title><line class="cls-1" x1="68.56" y1="2.69" x2="99.67" y2="15.31"/><line class="cls-1" x1="77.47" y1="1.54" x2="108.8" y2="11.54"/><line class="cls-1" x1="87.67" y1="0.29" x2="107.33" y2="5.92"/><path class="cls-1" d="M31.44,101.89s108.3-5.63,108.3-5.63"/><line class="cls-1" x1="137.75" y1="100.15" x2="31.75" y2="105.08"/><line class="cls-1" x1="33.31" y1="106.92" x2="136.28" y2="103.02"/><line class="cls-1" x1="93.58" y1="38.97" x2="74.3" y2="19.76"/><line class="cls-1" x1="82.58" y1="18.94" x2="98.03" y2="37.31"/><line class="cls-1" x1="101.66" y1="35.95" x2="87.67" y2="18.51"/><line class="cls-1" x1="134.09" y1="45.44" x2="156.97" y2="29.68"/><line class="cls-1" x1="148.87" y1="29.68" x2="124.12" y2="46.42"/><line class="cls-1" x1="124.12" y1="62.53" x2="139.74" y2="96.26"/><line class="cls-1" x1="129.47" y1="62.53" x2="144.64" y2="94.07"/><line class="cls-1" x1="137.75" y1="61.08" x2="150.41" y2="92.52"/><line class="cls-1" x1="147.86" y1="86.99" x2="179.48" y2="78.3"/><line class="cls-1" x1="145.91" y1="81.34" x2="189.89" y2="70.59"/><line class="cls-1" x1="185.34" y1="119.01" x2="183.35" y2="135"/><line class="cls-1" x1="186.78" y1="119.61" x2="185.34" y2="134.92"/><line class="cls-1" x1="193.13" y1="120.55" x2="191.36" y2="134.69"/><line class="cls-1" x1="223.38" y1="120.37" x2="194.6" y2="90.98"/><line class="cls-1" x1="205.6" y1="92.52" x2="229.23" y2="119.01"/><line class="cls-1" x1="165.27" y1="29.68" x2="164.55" y2="8.6"/><line class="cls-1" x1="171.05" y1="8.23" x2="172.22" y2="29.91"/><line class="cls-1" x1="205.6" y1="13.22" x2="239.41" y2="1.54"/><line class="cls-1" x1="210.58" y1="15.09" x2="245.87" y2="1.99"/><line class="cls-1" x1="222.62" y1="19.59" x2="254.71" y2="3.23"/><line class="cls-1" x1="224.81" y1="6.54" x2="211.47" y2="2.21"/><line class="cls-1" x1="220" y1="56.59" x2="242.55" y2="74.32"/><line class="cls-1" x1="228.45" y1="55.96" x2="246.69" y2="72.26"/><line class="cls-1" x1="87.67" y1="128" x2="84.8" y2="150.32"/><line class="cls-1" x1="94.72" y1="128.62" x2="92.22" y2="150.32"/><line class="cls-1" x1="140.88" y1="127.31" x2="173.24" y2="143.8"/><line class="cls-1" x1="133.05" y1="127.41" x2="170.42" y2="147.72"/><line class="cls-1" x1="1.27" y1="68.59" x2="12.14" y2="51.19"/><line class="cls-1" x1="16.25" y1="52.32" x2="5.42" y2="69.45"/><line class="cls-1" x1="249.1" y1="102.77" x2="299.97" y2="96.87"/><line class="cls-1" x1="254.71" y1="106.67" x2="299.97" y2="99"/></svg>