<svg id="TwinLines_Grain_Elongated_" data-name="TwinLines (Grain Elongated)" xmlns="http://www.w3.org/2000/svg" viewBox="0 0 650 150"><defs><style>.cls-1{fill:none;stroke:#1d1d1b;stroke-miterlimit:10;stroke-width:0.5px;}</style></defs><title>M_TwinLinesGrainElongated</title><line class="cls-1" x1="68.34" y1="3.37" x2="99.46" y2="16"/><line class="cls-1" x1="77.25" y1="2.22" x2="108.59" y2="12.23"/><line class="cls-1" x1="87.45" y1="0.98" x2="107.11" y2="6.6"/><path class="cls-1" d="M31.22,102.57s108.3-5.63,108.3-5.63"/><line class="cls-1" x1="137.54" y1="100.83" x2="31.53" y2="105.76"/><line class="cls-1" x1="33.09" y1="107.6" x2="136.07" y2="103.7"/><line class="cls-1" x1="93.36" y1="39.66" x2="74.09" y2="20.45"/><line class="cls-1" x1="82.36" y1="19.63" x2="97.82" y2="37.99"/><line class="cls-1" x1="101.45" y1="36.64" x2="87.45" y2="19.2"/><line class="cls-1" x1="133.87" y1="46.12" x2="156.75" y2="30.36"/><line class="cls-1" x1="148.65" y1="30.36" x2="123.9" y2="47.11"/><line class="cls-1" x1="123.9" y1="63.21" x2="139.52" y2="96.95"/><line class="cls-1" x1="129.25" y1="63.21" x2="144.42" y2="94.76"/><line class="cls-1" x1="137.54" y1="61.76" x2="150.19" y2="93.2"/><line class="cls-1" x1="147.64" y1="87.67" x2="179.27" y2="78.99"/><line class="cls-1" x1="145.69" y1="82.02" x2="189.68" y2="71.27"/><line class="cls-1" x1="185.13" y1="119.69" x2="183.13" y2="135.68"/><line class="cls-1" x1="186.57" y1="120.29" x2="185.13" y2="135.61"/><line class="cls-1" x1="192.91" y1="121.23" x2="191.14" y2="135.37"/><line class="cls-1" x1="223.17" y1="121.05" x2="194.38" y2="91.66"/><line class="cls-1" x1="205.38" y1="93.2" x2="229.01" y2="119.69"/><line class="cls-1" x1="165.05" y1="30.36" x2="164.33" y2="9.29"/><line class="cls-1" x1="170.83" y1="8.91" x2="172" y2="30.59"/><line class="cls-1" x1="205.38" y1="13.91" x2="239.19" y2="2.22"/><line class="cls-1" x1="210.37" y1="15.77" x2="245.65" y2="2.67"/><line class="cls-1" x1="222.4" y1="20.27" x2="254.5" y2="3.91"/><line class="cls-1" x1="224.59" y1="7.22" x2="211.26" y2="2.9"/><line class="cls-1" x1="219.78" y1="57.27" x2="242.33" y2="75"/><line class="cls-1" x1="228.24" y1="56.64" x2="246.47" y2="72.95"/><line class="cls-1" x1="298.74" y1="8.47" x2="312" y2="37.41"/><line class="cls-1" x1="304" y1="7.22" x2="319.04" y2="36.76"/><line class="cls-1" x1="314.57" y1="27.97" x2="374.84" y2="20.22"/><line class="cls-1" x1="312.4" y1="23.72" x2="370.37" y2="15.77"/><line class="cls-1" x1="309.72" y1="18.45" x2="352.39" y2="9.54"/><line class="cls-1" x1="87.45" y1="127.69" x2="84.58" y2="150"/><line class="cls-1" x1="94.5" y1="128.3" x2="92" y2="150"/><line class="cls-1" x1="140.67" y1="127.99" x2="173.03" y2="144.48"/><line class="cls-1" x1="132.83" y1="128.09" x2="170.2" y2="148.4"/><line class="cls-1" x1="1.05" y1="69.27" x2="11.92" y2="51.87"/><line class="cls-1" x1="16.03" y1="53" x2="5.2" y2="70.14"/><line class="cls-1" x1="248.88" y1="103.45" x2="357.2" y2="91.66"/><line class="cls-1" x1="254.5" y1="107.35" x2="362.38" y2="94.76"/><line class="cls-1" x1="334.3" y1="45.42" x2="332.75" y2="67.94"/><line class="cls-1" x1="341.67" y1="46.12" x2="339.28" y2="67.94"/><line class="cls-1" x1="344.71" y1="46.12" x2="341.7" y2="68.17"/><line class="cls-1" x1="395.33" y1="94.76" x2="453.17" y2="123.51"/><line class="cls-1" x1="431.91" y1="92.67" x2="459.14" y2="122.5"/><line class="cls-1" x1="478.53" y1="13.34" x2="476.59" y2="31.27"/><line class="cls-1" x1="482.5" y1="13.34" x2="483.89" y2="33.04"/><line class="cls-1" x1="511.65" y1="15.98" x2="513.34" y2="29.41"/><line class="cls-1" x1="514.53" y1="16.4" x2="518.49" y2="25.29"/><line class="cls-1" x1="395.33" y1="30.59" x2="372.06" y2="48"/><line class="cls-1" x1="381.71" y1="48.61" x2="402.76" y2="32.31"/><line class="cls-1" x1="392" y1="40.75" x2="420.76" y2="45.42"/><line class="cls-1" x1="467.55" y1="54.95" x2="470" y2="67.06"/><line class="cls-1" x1="470.86" y1="53.75" x2="475.14" y2="66.67"/><line class="cls-1" x1="491.25" y1="90.8" x2="576.1" y2="99.91"/><line class="cls-1" x1="484.19" y1="95.19" x2="574.05" y2="102.83"/><line class="cls-1" x1="310" y1="131.48" x2="306.75" y2="150"/><line class="cls-1" x1="318.38" y1="131.48" x2="311.5" y2="150"/><line class="cls-1" x1="314.04" y1="143.17" x2="358.42" y2="147.02"/><line class="cls-1" x1="572.87" y1="14.84" x2="596.97" y2="42.32"/><line class="cls-1" x1="584.01" y1="13.69" x2="604.5" y2="40.03"/><line class="cls-1" x1="516.51" y1="59.17" x2="540.88" y2="48.46"/><line class="cls-1" x1="531.08" y1="59.94" x2="547.67" y2="48.63"/><line class="cls-1" x1="606.82" y1="49.12" x2="645.96" y2="28.16"/><line class="cls-1" x1="619.02" y1="49.12" x2="649.17" y2="28.16"/><line class="cls-1" x1="632.66" y1="77.33" x2="630.31" y2="96.24"/><line class="cls-1" x1="635.14" y1="99.91" x2="638.13" y2="77.33"/><line class="cls-1" x1="631.73" y1="85.33" x2="617.98" y2="86.47"/><line class="cls-1" x1="576.1" y1="136.84" x2="571.5" y2="150"/><line class="cls-1" x1="581.69" y1="137.64" x2="576.1" y2="150.08"/><line class="cls-1" x1="407.94" y1="61.01" x2="398.72" y2="76.57"/><line class="cls-1" x1="404.06" y1="67.94" x2="431.91" y2="68.17"/><line class="cls-1" x1="402.76" y1="70.26" x2="422.6" y2="72.62"/></svg>