<svg id="TwinLines_Grain_Large_" data-name="TwinLines (Grain Large)" xmlns="http://www.w3.org/2000/svg" viewBox="0 0 650 150"><defs><style>.cls-1{fill:none;stroke:#1d1d1b;stroke-miterlimit:10;stroke-width:0.5px;}</style></defs><title>M_TwinLinesGrainLarge</title><line class="cls-1" x1="166.17" y1="7.55" x2="230.33" y2="54"/><line class="cls-1" x1="167.48" y1="1.29" x2="243.35" y2="54.75"/><line class="cls-1" x1="179.03" y1="0.06" x2="248.36" y2="45.4"/><line class="cls-1" x1="163.54" y1="19.84" x2="203.45" y2="54"/><line class="cls-1" x1="-0.21" y1="17.57" x2="18.68" y2="33.55"/><line class="cls-1" y1="12.95" x2="20.84" y2="24.92"/><line class="cls-1" y1="8.72" x2="21.8" y2="18.85"/><path class="cls-1" d="M11.92,130.62s71.64-8.86,71.64-8.86"/><line class="cls-1" x1="82.11" y1="128.34" x2="12.64" y2="134.78"/><line class="cls-1" x1="13.06" y1="137.2" x2="82.36" y2="131.56"/><line class="cls-1" y1="64.61" x2="17.97" y2="49.52"/><line class="cls-1" x1="22.62" y1="57.88" y2="74.33"/><line class="cls-1" y1="82.25" x2="25.89" y2="63.76"/><line class="cls-1" x1="92.05" y1="14.61" x2="107.88" y2="0.1"/><line class="cls-1" x1="101.94" y1="0.1" x2="88.84" y2="11.54"/><line class="cls-1" x1="175.63" y1="119.11" x2="185.01" y2="149.96"/><line class="cls-1" x1="188.05" y1="108.82" x2="201.02" y2="150.07"/><line class="cls-1" x1="192.51" y1="104.53" x2="207.02" y2="149.96"/><line class="cls-1" x1="280.84" y1="103.67" x2="220.16" y2="150.07"/><line class="cls-1" x1="282.98" y1="106.86" x2="229.22" y2="150.07"/><line class="cls-1" x1="315.45" y1="86.85" x2="384.22" y2="61.88"/><line class="cls-1" x1="385.48" y1="66.36" x2="318.24" y2="91.6"/><line class="cls-1" x1="323.44" y1="103.3" x2="393.32" y2="94.37"/><line class="cls-1" x1="353.39" y1="7.8" x2="402.5" y2="54"/><line class="cls-1" x1="357.8" y1="3.87" x2="436.44" y2="50.57"/><line class="cls-1" x1="365.14" x2="438.73" y2="44.15"/><line class="cls-1" x1="256.1" y1="58.84" x2="300.45" y2="3.01"/><polyline class="cls-1" points="311.38 7.92 294.73 24.78 259.6 60.37"/><line class="cls-1" x1="605.06" y1="63.26" x2="548.1" y2="11.86"/><line class="cls-1" x1="551.07" y1="5.55" x2="619.62" y2="50.57"/><line class="cls-1" x1="552.6" y1="3.25" x2="620.58" y2="46.52"/><line class="cls-1" x1="625.16" y1="32.81" x2="650.12" y2="37.26"/><line class="cls-1" x1="625.4" y1="29.83" x2="650.12" y2="30.61"/><line class="cls-1" x1="441.29" y1="94.37" x2="480.7" y2="75.91"/><line class="cls-1" x1="487.36" y1="78.92" x2="437.3" y2="103.34"/><line class="cls-1" x1="439.02" y1="114.28" x2="511.31" y2="97.14"/><line class="cls-1" x1="506.44" y1="105.71" x2="571.86" y2="147.2"/><line class="cls-1" x1="571.86" y1="136.09" x2="508.98" y2="100.83"/><line class="cls-1" x1="551.97" y1="104.35" x2="551.37" y2="124.52"/><line class="cls-1" x1="118.72" y1="68.95" x2="95.81" y2="119.09"/><line class="cls-1" x1="127" y1="66.31" x2="102.66" y2="120.77"/><line class="cls-1" x1="106.39" y1="121.68" x2="134.71" y2="63.84"/><line class="cls-1" x1="619.62" y1="150" x2="613.18" y2="114.68"/><line class="cls-1" x1="371.13" y1="129.44" x2="440.75" y2="144.4"/><line class="cls-1" x1="372.63" y1="134.54" x2="440.75" y2="150"/><line class="cls-1" x1="627" y1="150" x2="621.07" y2="116.81"/></svg>