<svg id="TwinLines_Grain_Elongated_" data-name="TwinLines (Grain Elongated)" xmlns="http://www.w3.org/2000/svg" viewBox="0 0 500 50"><defs><style>.cls-1{fill:none;stroke:#1d1d1b;stroke-miterlimit:10;stroke-width:0.5px;}</style></defs><title>M_TwinLinesGrainElongated</title><path class="cls-1" d="M78.45,50.15s56.49-2.71,56.49-2.71"/><line class="cls-1" x1="119.31" y1="13.71" x2="134.94" y2="47.44"/><line class="cls-1" x1="124.67" y1="13.71" x2="139.84" y2="45.25"/><line class="cls-1" x1="132.95" y1="12.25" x2="145.6" y2="43.69"/><line class="cls-1" x1="143.06" y1="38.17" x2="174.68" y2="29.48"/><line class="cls-1" x1="141.11" y1="32.52" x2="185.09" y2="21.77"/><line class="cls-1" x1="197.77" y1="50.3" x2="189.8" y2="42.15"/><line class="cls-1" x1="200.8" y1="43.69" x2="206.69" y2="50.3"/><line class="cls-1" x1="215.2" y1="7.76" x2="237.75" y2="25.49"/><line class="cls-1" x1="223.65" y1="7.14" x2="241.89" y2="23.44"/><line class="cls-1" y1="14.11" x2="7.34" y2="2.37"/><line class="cls-1" x1="11.45" y1="3.5" x2="0.62" y2="20.63"/><line class="cls-1" x1="276.98" y1="50.39" x2="352.62" y2="42.15"/><line class="cls-1" x1="313.81" y1="50.39" x2="357.8" y2="45.25"/><line class="cls-1" x1="329.71" y1="0.54" x2="328.16" y2="18.48"/><line class="cls-1" x1="337.4" y1="0.45" x2="334.7" y2="18.48"/><line class="cls-1" x1="340.46" y1="0.45" x2="337.12" y2="18.66"/><line class="cls-1" x1="390.75" y1="45.25" x2="401.8" y2="50.3"/><line class="cls-1" x1="427.33" y1="43.17" x2="433.94" y2="50.41"/><line class="cls-1" x1="462.97" y1="5.45" x2="465.42" y2="17.56"/><line class="cls-1" x1="466.27" y1="4.24" x2="470.56" y2="17.17"/><line class="cls-1" x1="486.67" y1="41.29" x2="500" y2="42.81"/><line class="cls-1" x1="479.6" y1="45.69" x2="499.96" y2="47.42"/><line class="cls-1" x1="403.36" y1="11.5" x2="394.14" y2="27.06"/><line class="cls-1" x1="399.48" y1="18.44" x2="427.33" y2="18.66"/><line class="cls-1" x1="398.18" y1="20.76" x2="418.02" y2="23.11"/><line class="cls-1" x1="274.63" y1="16.63" x2="270.59" y2="38.55"/><line class="cls-1" x1="279.59" y1="17.34" x2="279.59" y2="38.55"/></svg>