<svg id="TwinLines_Grain_Small_" data-name="TwinLines (Grain Small)" xmlns="http://www.w3.org/2000/svg" viewBox="0 0 300 100"><defs><style>.cls-1,.cls-2{fill:none;}.cls-1{stroke:#1d1d1b;stroke-miterlimit:10;stroke-width:0.5px;}</style></defs><title>M_TwinLinesGrainSmall</title><line class="cls-1" x1="167.5" y1="78.83" x2="192.36" y2="46.61"/><line class="cls-1" x1="170.43" y1="80.72" x2="195.73" y2="48.09"/><line class="cls-1" x1="200.05" y1="49.97" x2="178.37" y2="83.98"/><line class="cls-1" x1="26.04" y1="10.28" x2="27.99" y2="30.99"/><line class="cls-1" x1="31.68" y1="31.51" x2="30.83" y2="10.96"/><line class="cls-1" x1="31.68" y1="11.08" x2="33.17" y2="31.51"/><line class="cls-1" x1="35.73" y1="11.65" x2="38.62" y2="32.49"/><line class="cls-1" x1="13.2" y1="78.11" x2="37.18" y2="60.33"/><line class="cls-1" x1="39.5" y1="62.48" x2="11.76" y2="84.58"/><path class="cls-1" d="M57.53,78.46c1-2.67,24.17-32.85,24.17-32.85"/><line class="cls-1" x1="85.34" y1="47.26" x2="59.75" y2="79.73"/><line class="cls-1" x1="64.05" y1="83.32" x2="89.03" y2="48.92"/><line class="cls-1" x1="90.67" y1="49.66" x2="66.33" y2="84.58"/><line class="cls-1" x1="121.2" y1="12.56" x2="134.04" y2="2.65"/><line class="cls-1" x1="137.62" y1="3.94" x2="123.3" y2="15.11"/><line class="cls-1" x1="139.15" y1="4.49" x2="123.99" y2="15.95"/><line class="cls-1" x1="162.83" y1="77.59" x2="153.94" y2="45.17"/><line class="cls-1" x1="158.39" y1="41.79" x2="169.26" y2="76.56"/><line class="cls-1" x1="138.73" y1="29.39" x2="172.79" y2="23.82"/><line class="cls-1" x1="141.43" y1="32.49" x2="173.19" y2="26.6"/><line class="cls-1" x1="111.67" y1="99.55" x2="101.96" y2="97.02"/><line class="cls-1" x1="245.5" y1="39.04" x2="246.5" y2="56.14"/><line class="cls-1" x1="247.17" y1="39.08" x2="251.33" y2="56.14"/><line class="cls-1" x1="248.86" y1="39.04" x2="254.5" y2="56.14"/><line class="cls-1" x1="87.44" y1="11.08" x2="86.85" y2="25.1"/><line class="cls-1" x1="90.67" y1="9.52" x2="89.03" y2="26.6"/><line class="cls-1" x1="92.63" y1="8.84" x2="99.84" y2="28.73"/><line class="cls-1" x1="93.86" y1="8.31" x2="103.38" y2="27.72"/><line class="cls-1" x1="206.49" y1="10.22" x2="213.5" y2="0.44"/><line class="cls-1" x1="217.33" y1="0.44" x2="214.18" y2="11.42"/><path class="cls-1" d="M300,4.9c-11.29,1.63-27.25,3.94-27.25,4"/><line class="cls-1" x1="300" y1="8.51" x2="273.13" y2="11.43"/><line class="cls-1" x1="300" y1="10.38" x2="273.35" y2="12.92"/><path class="cls-1" d="M274.14,15.75c1.11,0.12,17.09,5.75,25.86,8.86"/><line class="cls-1" x1="253.07" y1="91.77" x2="243.99" y2="99.55"/><line class="cls-1" x1="261.36" y1="92.99" x2="252.2" y2="99.55"/><line class="cls-1" x1="263.43" y1="96.66" x2="259.32" y2="99.55"/><rect class="cls-2" y="0.56" width="300" height="99.44"/></svg>