<svg id="TwinLines_Grain_Elongated_" data-name="TwinLines (Grain Elongated)" xmlns="http://www.w3.org/2000/svg" viewBox="0 0 500 150"><defs><style>.cls-1{fill:none;stroke:#1d1d1b;stroke-miterlimit:10;stroke-width:0.5px;}</style></defs><title>M_TwinLinesGrainElongated</title><line class="cls-1" x1="68.49" y1="3.33" x2="99.61" y2="15.95"/><line class="cls-1" x1="77.4" y1="2.18" x2="108.74" y2="12.18"/><line class="cls-1" x1="87.6" y1="0.93" x2="107.26" y2="6.56"/><path class="cls-1" d="M31.37,102.53s108.3-5.63,108.3-5.63"/><line class="cls-1" x1="137.68" y1="100.79" x2="31.68" y2="105.71"/><line class="cls-1" x1="33.24" y1="107.56" x2="136.22" y2="103.66"/><line class="cls-1" x1="93.51" y1="39.61" x2="74.23" y2="20.4"/><line class="cls-1" x1="82.51" y1="19.58" x2="97.97" y2="37.95"/><line class="cls-1" x1="101.59" y1="36.59" x2="87.6" y2="19.15"/><line class="cls-1" x1="134.02" y1="46.08" x2="156.9" y2="30.31"/><line class="cls-1" x1="148.8" y1="30.31" x2="124.05" y2="47.06"/><line class="cls-1" x1="124.05" y1="63.17" x2="139.67" y2="96.9"/><line class="cls-1" x1="129.4" y1="63.17" x2="144.57" y2="94.71"/><line class="cls-1" x1="137.68" y1="61.72" x2="150.34" y2="93.16"/><line class="cls-1" x1="147.79" y1="87.63" x2="179.42" y2="78.94"/><line class="cls-1" x1="145.84" y1="81.98" x2="189.82" y2="71.23"/><line class="cls-1" x1="185.27" y1="119.65" x2="183.28" y2="135.64"/><line class="cls-1" x1="186.72" y1="120.25" x2="185.27" y2="135.56"/><line class="cls-1" x1="193.06" y1="121.19" x2="191.29" y2="135.33"/><line class="cls-1" x1="223.32" y1="121.01" x2="194.53" y2="91.62"/><line class="cls-1" x1="205.53" y1="93.16" x2="229.16" y2="119.65"/><line class="cls-1" x1="165.2" y1="30.31" x2="164.48" y2="9.24"/><line class="cls-1" x1="170.98" y1="8.87" x2="172.15" y2="30.55"/><line class="cls-1" x1="205.53" y1="13.86" x2="239.34" y2="2.18"/><line class="cls-1" x1="210.52" y1="15.73" x2="245.8" y2="2.63"/><line class="cls-1" x1="222.55" y1="20.23" x2="254.64" y2="3.87"/><line class="cls-1" x1="224.74" y1="7.18" x2="211.41" y2="2.85"/><line class="cls-1" x1="219.93" y1="57.23" x2="242.48" y2="74.96"/><line class="cls-1" x1="228.39" y1="56.6" x2="246.62" y2="72.9"/><line class="cls-1" x1="298.88" y1="8.42" x2="312.15" y2="37.37"/><line class="cls-1" x1="304.15" y1="7.18" x2="319.19" y2="36.72"/><line class="cls-1" x1="314.71" y1="27.93" x2="374.99" y2="20.18"/><line class="cls-1" x1="312.55" y1="23.67" x2="370.52" y2="15.73"/><line class="cls-1" x1="309.87" y1="18.41" x2="352.54" y2="9.5"/><line class="cls-1" x1="87.6" y1="127.64" x2="84.73" y2="149.96"/><line class="cls-1" x1="94.65" y1="128.26" x2="92.15" y2="149.96"/><line class="cls-1" x1="140.82" y1="127.95" x2="173.18" y2="144.44"/><line class="cls-1" x1="132.98" y1="128.05" x2="170.35" y2="148.36"/><line class="cls-1" x1="1.2" y1="69.23" x2="12.07" y2="51.83"/><line class="cls-1" x1="16.18" y1="52.96" x2="5.35" y2="70.09"/><line class="cls-1" x1="249.03" y1="103.41" x2="357.35" y2="91.62"/><line class="cls-1" x1="254.64" y1="107.31" x2="362.53" y2="94.71"/><line class="cls-1" x1="334.44" y1="45.38" x2="332.89" y2="67.9"/><line class="cls-1" x1="341.82" y1="46.08" x2="339.43" y2="67.9"/><line class="cls-1" x1="344.85" y1="46.08" x2="341.85" y2="68.13"/><line class="cls-1" x1="395.48" y1="94.71" x2="453.32" y2="123.47"/><line class="cls-1" x1="432.06" y1="92.63" x2="459.29" y2="122.46"/><line class="cls-1" x1="478.68" y1="13.3" x2="476.74" y2="31.23"/><line class="cls-1" x1="482.65" y1="13.3" x2="484.04" y2="33"/><line class="cls-1" x1="395.48" y1="30.55" x2="372.21" y2="47.96"/><line class="cls-1" x1="381.86" y1="48.57" x2="402.91" y2="32.27"/><line class="cls-1" x1="392.15" y1="40.71" x2="420.91" y2="45.38"/><line class="cls-1" x1="467.7" y1="54.91" x2="470.15" y2="67.02"/><line class="cls-1" x1="471.01" y1="53.7" x2="475.29" y2="66.63"/><line class="cls-1" x1="489.93" y1="92.18" x2="500.57" y2="94.71"/><line class="cls-1" x1="484.34" y1="95.15" x2="500" y2="98.1"/><line class="cls-1" x1="310.15" y1="131.44" x2="306.9" y2="149.96"/><line class="cls-1" x1="318.52" y1="131.44" x2="311.65" y2="149.96"/><line class="cls-1" x1="314.18" y1="143.13" x2="358.57" y2="146.97"/><line class="cls-1" x1="408.09" y1="60.96" x2="398.87" y2="76.52"/><line class="cls-1" x1="404.21" y1="67.9" x2="432.06" y2="68.13"/><line class="cls-1" x1="402.91" y1="70.22" x2="422.75" y2="72.57"/></svg>