<svg id="TwinLines_Grain_Small_" data-name="TwinLines (Grain Small)" xmlns="http://www.w3.org/2000/svg" viewBox="0 0 650 150"><defs><style>.cls-1,.cls-2{fill:none;}.cls-1{stroke:#1d1d1b;stroke-miterlimit:10;stroke-width:0.5px;}</style></defs><title>M_TwinLinesGrainSmall</title><line class="cls-1" x1="346.19" y1="68.65" x2="382.25" y2="94.75"/><line class="cls-1" x1="347.01" y1="64.76" x2="389.91" y2="94.75"/><line class="cls-1" x1="349" y1="60.62" x2="394.06" y2="90.28"/><line class="cls-1" x1="344.56" y1="76.26" x2="366.25" y2="94.75"/><line class="cls-1" x1="167.5" y1="78.54" x2="192.36" y2="46.26"/><line class="cls-1" x1="170.43" y1="80.43" x2="195.73" y2="47.73"/><line class="cls-1" x1="200.05" y1="49.63" x2="178.37" y2="83.7"/><line class="cls-1" x1="26.04" y1="9.86" x2="27.99" y2="30.6"/><line class="cls-1" x1="31.68" y1="31.13" x2="30.83" y2="10.53"/><line class="cls-1" x1="31.68" y1="10.65" x2="33.17" y2="31.13"/><line class="cls-1" x1="35.73" y1="11.23" x2="38.62" y2="32.11"/><line class="cls-1" x1="13.2" y1="77.82" x2="37.18" y2="60"/><line class="cls-1" x1="39.5" y1="62.16" x2="11.76" y2="84.3"/><path class="cls-1" d="M57.53,78.17c1-2.67,24.17-32.91,24.17-32.91"/><line class="cls-1" x1="85.34" y1="46.9" x2="59.75" y2="79.44"/><line class="cls-1" x1="64.05" y1="83.04" x2="89.03" y2="48.57"/><line class="cls-1" x1="90.67" y1="49.32" x2="66.33" y2="84.3"/><line class="cls-1" x1="121.2" y1="12.14" x2="134.04" y2="2.21"/><line class="cls-1" x1="137.62" y1="3.5" x2="123.3" y2="14.7"/><line class="cls-1" x1="139.15" y1="4.05" x2="123.99" y2="15.54"/><line class="cls-1" x1="162.83" y1="77.3" x2="153.94" y2="44.81"/><line class="cls-1" x1="158.39" y1="41.43" x2="169.26" y2="76.26"/><line class="cls-1" x1="138.73" y1="29" x2="172.79" y2="23.42"/><line class="cls-1" x1="141.43" y1="32.11" x2="173.19" y2="26.21"/><line class="cls-1" x1="152.4" y1="120.27" x2="98.81" y2="100.58"/><line class="cls-1" x1="99.82" y1="99.35" x2="154.95" y2="116.55"/><line class="cls-1" x1="101.96" y1="96.76" x2="158.39" y2="111.53"/><line class="cls-1" x1="31.26" y1="135.5" x2="45.8" y2="121.74"/><line class="cls-1" x1="49.77" y1="122.01" x2="33.96" y2="136.47"/><line class="cls-1" x1="245.5" y1="38.67" x2="246.5" y2="55.8"/><line class="cls-1" x1="247.17" y1="38.72" x2="251.33" y2="55.8"/><line class="cls-1" x1="248.86" y1="38.67" x2="254.5" y2="55.8"/><line class="cls-1" x1="87.44" y1="10.65" x2="86.85" y2="24.7"/><line class="cls-1" x1="90.67" y1="9.1" x2="89.03" y2="26.21"/><line class="cls-1" x1="92.63" y1="8.42" x2="99.84" y2="28.34"/><line class="cls-1" x1="93.86" y1="7.89" x2="103.38" y2="27.33"/><rect class="cls-2" width="650" height="150.07"/><line class="cls-1" x1="206.49" y1="9.8" x2="213.5"/><line class="cls-1" x1="217.33" x2="214.18" y2="11"/><path class="cls-1" d="M272.75,8.42S311,2.88,311,2.88"/><line class="cls-1" x1="309.9" y1="7" x2="273.13" y2="11"/><line class="cls-1" x1="273.35" y1="12.5" x2="310.03" y2="9"/><path class="cls-1" d="M274.14,15.33c1.53,0.17,31.51,10.88,31.51,10.88"/><line class="cls-1" x1="235.44" y1="106.65" x2="253.07" y2="91.5"/><line class="cls-1" x1="261.36" y1="92.72" x2="236.73" y2="110.43"/><line class="cls-1" x1="238.05" y1="114.31" x2="263.43" y2="96.4"/><line class="cls-1" x1="304.04" y1="71.97" x2="316.88" y2="59.06"/><line class="cls-1" x1="313.13" y1="56.27" x2="301.09" y2="68.65"/><line class="cls-1" x1="361.6" y1="29" x2="366.25"/><line class="cls-1" x1="371.53" x2="364.22" y2="32.11"/><line class="cls-1" x1="375.25" x2="366.25" y2="32.73"/><line class="cls-1" x1="355.78" y1="129.29" x2="361.6" y2="150"/><line class="cls-1" x1="363.49" y1="122.38" x2="371.53" y2="150.07"/><line class="cls-1" x1="366.25" y1="119.5" x2="375.25" y2="150"/><line class="cls-1" x1="414.2" y1="124.79" x2="383.4" y2="150.07"/><line class="cls-1" x1="415.28" y1="126.53" x2="388" y2="150.07"/><line class="cls-1" x1="424.21" y1="64.76" x2="430.97" y2="32.11"/><line class="cls-1" x1="434.23" y1="33.99" x2="432.66" y2="68.24"/><line class="cls-1" x1="436.99" y1="70.03" x2="436.99" y2="35.96"/><path class="cls-1" d="M429,30.24c-0.33,1.24-7.53,33.37-7.53,33.37"/><line class="cls-1" x1="434.23" y1="115.04" x2="473.54" y2="100.25"/><line class="cls-1" x1="474.26" y1="102.9" x2="435.63" y2="117.86"/><line class="cls-1" x1="439.07" y1="124.79" x2="478.8" y2="119.5"/><line class="cls-1" x1="469.99" y1="11" x2="504" y2="1.85"/><line class="cls-1" x1="507.34" y1="5" x2="472.03" y2="13.81"/><line class="cls-1" x1="474.52" y1="19.36" x2="504" y2="23.85"/><line class="cls-1" x1="504.05" y1="55.8" x2="520.55" y2="70.03"/><line class="cls-1" x1="506" y1="53.44" x2="529.31" y2="66.88"/><line class="cls-1" x1="507.34" y1="51.12" x2="533.04" y2="65.54"/><line class="cls-1" x1="190.72" y1="102.9" x2="224.75" y2="124.79"/><line class="cls-1" x1="189.21" y1="107.65" x2="211.62" y2="129.29"/><line class="cls-1" x1="187.05" y1="111.72" x2="207.74" y2="130.56"/><line class="cls-1" x1="564.66" y1="84.38" x2="586.33" y2="55.8"/><polyline class="cls-1" points="594.53 56.49 585.67 66.3 566.96 87.01"/><line class="cls-1" x1="610.85" y1="87.01" x2="587.42" y2="64.76"/><line class="cls-1" x1="590.5" y1="60.96" x2="613.44" y2="76.82"/><line class="cls-1" x1="591.22" y1="60.16" x2="614.12" y2="73.99"/><path class="cls-1" d="M567.78,9.59c1.22-.75,13-9.59,13-9.59"/><line class="cls-1" x1="587.42" x2="570.64" y2="11.61"/><line class="cls-1" x1="601.97" x2="606.46" y2="11"/><line class="cls-1" x1="605" y1="0.56" x2="607.96" y2="8.35"/><line class="cls-1" x1="618.16" y1="22.27" x2="627.31" y2="14.09"/><line class="cls-1" x1="631.38" y1="13.81" x2="621.92" y2="24.43"/><line class="cls-1" x1="635.38" y1="1.85" x2="645.65" y2="16.7"/><line class="cls-1" x1="637.92" x2="649.18" y2="15.18"/><line class="cls-1" x1="634.52" y1="51.12" x2="650" y2="47.66"/><line class="cls-1" x1="634.67" y1="53.44" x2="650" y2="52.83"/><line class="cls-1" x1="641.29" y1="72.39" x2="650" y2="65.54"/><line class="cls-1" x1="506" y1="118.08" x2="529.31" y2="106.81"/><line class="cls-1" x1="533.04" y1="108.5" x2="505" y2="122.15"/><line class="cls-1" x1="504.47" y1="129.29" x2="546.03" y2="120.6"/><line class="cls-1" x1="580.19" y1="133.26" x2="593.81" y2="142.22"/><line class="cls-1" x1="595.75" y1="140.38" x2="579.65" y2="130.75"/><line class="cls-1" x1="589.02" y1="123.83" x2="593.81" y2="139.21"/><line class="cls-1" x1="319.87" y1="102.71" x2="305.65" y2="132.33"/><line class="cls-1" x1="325" y1="101.15" x2="309.9" y2="133.32"/><line class="cls-1" x1="312.22" y1="133.86" x2="329.78" y2="99.69"/><line class="cls-1" x1="632.83" y1="139.64" x2="650" y2="132.72"/><line class="cls-1" x1="635.38" y1="144.17" x2="650" y2="139.64"/></svg>