<svg id="TwinLines_Grain_Large_" data-name="TwinLines (Grain Large)" xmlns="http://www.w3.org/2000/svg" viewBox="0 0 500 50"><defs><style>.cls-1{fill:none;stroke:#1d1d1b;stroke-miterlimit:10;stroke-width:0.5px;}</style></defs><title>M_TwinLinesGrainLarge</title><line class="cls-1" x1="166.4" y1="6.3" x2="230.56" y2="45.65"/><line class="cls-1" x1="167.71" y1="0.99" x2="243.58" y2="46.29"/><line class="cls-1" x1="179.26" y1="-0.06" x2="248.59" y2="38.36"/><line class="cls-1" x1="163.77" y1="16.7" x2="203.67" y2="45.65"/><line class="cls-1" x1="0.01" y1="14.78" x2="18.91" y2="28.32"/><line class="cls-1" x1="0.23" y1="10.87" x2="21.07" y2="21.01"/><line class="cls-1" x1="0.23" y1="7.28" x2="22.03" y2="15.87"/><line class="cls-1" x1="7.09" y1="49.76" x2="18.2" y2="41.85"/><line class="cls-1" x1="92.27" y1="12.28" x2="108.1" y2="-0.02"/><line class="cls-1" x1="102.17" y1="-0.02" x2="89.07" y2="9.68"/><line class="cls-1" x1="353.61" y1="6.51" x2="402.73" y2="45.65"/><line class="cls-1" x1="358.03" y1="3.18" x2="436.67" y2="42.74"/><line class="cls-1" x1="365.37" y1="-0.11" x2="438.96" y2="37.3"/><line class="cls-1" x1="256.33" y1="49.76" x2="300.68" y2="2.45"/><polyline class="cls-1" points="311.61 6.61 294.96 20.89 259.82 51.05"/><line class="cls-1" x1="500" y1="37.49" x2="465.1" y2="10.81"/><line class="cls-1" x1="471.04" y1="8.65" x2="500" y2="24.77"/><line class="cls-1" x1="474.27" y1="8.07" x2="500" y2="21.95"/></svg>