<svg id="Cracking_Branched" xmlns="http://www.w3.org/2000/svg" viewBox="0 0 300 100"><title>CP_CrackingBranched</title><path d="M2.52,60.17c9.86-2,19.74-3.86,29.61-5.78,2.47-.47,4.93-1,7.41-1.42s5-.79,7.44-1.22l14.87-2.48,0.15,0,0.15,0,101,14.53H162.9l49.75-5.85L237.52,55,250,53.55l6.22-.75c2.07-.27,4.15-0.44,6.23-0.63h0.15l0.1,0c11.14,2,22.29,4,33.42,6-11.24-1.34-22.46-2.82-33.69-4.22h0.25c-2.07.29-4.13,0.62-6.21,0.83l-6.22.71L237.76,57l-24.87,2.92-49.75,5.85-0.13,0-0.13,0-101-14.53h0.31L47.3,53.71c-2.48.4-5,.87-7.43,1.26s-5,.71-7.47,1.06C22.44,57.42,12.49,58.85,2.52,60.17Z"/><path d="M30,81.78q1.71-2.23,3.48-4.4l1.77-2.17a13.36,13.36,0,0,1,.91-1.06c0.33-.32.68-0.63,1-1l7.87-7.88L60.81,49.54l-0.28.88L58,36.25l-0.14-.82,0.77-.29,3.5-1.33c0.59-.2,1.15-0.49,1.75-0.67l1.81-.5q3.63-1,7.29-1.88-3.33,1.77-6.71,3.43L64.62,35c-0.57.26-1.18,0.42-1.75,0.66L59.37,37,60,35.9l2.5,14.17,0.09,0.51L62.22,51,46.47,66.72,38.6,74.6c-0.33.32-.64,0.67-1,1a13.36,13.36,0,0,1-1.05.92L34.41,78.3Q32.24,80.06,30,81.78Z"/><path d="M188.52,83.55a15,15,0,0,1-2.07-.68c-0.7-.27-1.36-0.59-2-0.9s-1.31-.65-2-1-1.29-.69-1.92-1a12.78,12.78,0,0,1-1.8-1.22L177,77.44l-3.48-2.59c-4.61-3.49-9.14-7.07-13.63-10.71l-0.48-.39,0.13-.6L163,47.2l0.5,1.09-10-5.49c-0.42-.23-0.83-0.46-1.26-0.67a9.79,9.79,0,0,1-1.21-.76l-2.36-1.62q-2.36-1.63-4.69-3.32,2.67,1.06,5.31,2.17L152,39.73a9.78,9.78,0,0,1,1.29.61c0.41,0.25.82,0.47,1.24,0.7l10,5.49,0.66,0.36-0.16.73-3.5,15.94-0.34-1c4.46,3.63,9,7.2,13.56,10.67l3.46,2.57,1.74,1.26a14.25,14.25,0,0,1,1.73,1.27q1.64,1.4,3.33,2.74c0.56,0.45,1.13.89,1.71,1.29A14.72,14.72,0,0,0,188.52,83.55Z"/><path d="M245.52,77.88c0.59-1.17,1.19-2.33,1.81-3.47l0.95-1.71,0.48-.85a7.31,7.31,0,0,1,.58-0.77l4.63-6.2,9.25-12.4,0.17,1.38-9-7.26-2.25-1.82c-0.38-.3-0.75-0.61-1.14-0.89a11.76,11.76,0,0,1-1-1c-1.34-1.41-2.67-2.84-4-4.31,1.71,1,3.39,1.94,5,3a11.76,11.76,0,0,1,1.22.79c0.36,0.32.74,0.62,1.11,0.92L255.64,45l9,7.26,0.75,0.6-0.58.77-9.25,12.4-4.62,6.2a7.31,7.31,0,0,1-.57.78l-0.68.7-1.37,1.39C247.4,76.08,246.47,77,245.52,77.88Z"/><polygon points="163.65 46.48 184.68 39.26 164.38 48.34 163.65 46.48"/><polygon points="254.11 44.02 273.51 36.61 254.92 45.85 254.11 44.02"/><polygon points="47.85 64.34 59.68 84.26 46.18 65.44 47.85 64.34"/></svg>