<svg id="Cracking_Branched" xmlns="http://www.w3.org/2000/svg" viewBox="0 0 300 50"><title>CP_CrackingBranched</title><path d="M4,29.14c9.88-1.46,19.77-2.81,29.66-4.2,2.47-.34,4.94-0.7,7.42-1s5-.53,7.44-0.83l14.88-1.68h0.21l101,9.87h-0.18l49.75-4,24.87-2,12.44-1,6.22-.51c2.07-.2,4.15-0.29,6.23-0.4h0.17c11.2,1.47,22.4,2.88,33.59,4.42-11.27-.8-22.52-1.72-33.78-2.58H264c-2.07.22-4.14,0.46-6.21,0.59l-6.22.48-12.44,1-24.87,2-49.75,4h-0.18l-101-9.87h0.21L48.71,25.08c-2.48.27-5,.61-7.44,0.86s-5,.44-7.46.66C23.87,27.46,13.92,28.36,4,29.14Z"/><path d="M42.47,43.82q0.77-1.56,1.6-3.08l0.84-1.51a5,5,0,0,1,.45-0.73c0.18-.22.38-0.43,0.55-0.65l4.21-5.35,8.42-10.71-0.2.76L57,12.91l-0.1-.72,0.66-.32c0.62-.31,1.25-0.59,1.87-0.91a3.88,3.88,0,0,1,1-.37l1-.3c1.34-.41,2.7-0.77,4.07-1.12-1.13.86-2.26,1.69-3.42,2.49l-0.86.6a3.88,3.88,0,0,1-.9.53c-0.64.28-1.25,0.6-1.88,0.89l0.56-1,1.34,9.63,0.06,0.42L60.1,23,51.68,33.73l-4.21,5.35c-0.18.22-.33,0.46-0.51,0.68a5,5,0,0,1-.61.61l-1.27,1.17Q43.8,42.71,42.47,43.82Z"/><path d="M177.22,46a6.44,6.44,0,0,1-1.14-.46c-0.39-.19-0.73-0.41-1.09-0.62-0.71-.42-1.38-0.9-2-1.37a3.48,3.48,0,0,1-.9-0.81l-0.83-.87-1.64-1.76c-2.16-2.36-4.27-4.75-6.34-7.18l-0.3-.35,0.07-.45,1.65-10.83L165,22.26l-4.72-3.73a3.71,3.71,0,0,1-.59-0.47l-0.51-.57-1-1.14c-0.67-.77-1.33-1.55-2-2.34,0.93,0.45,1.83.91,2.74,1.39l1.34,0.73L161,16.5a3.71,3.71,0,0,1,.59.46l4.72,3.73,0.46,0.36-0.09.57L165,32.46l-0.23-.8c2.06,2.41,4.15,4.79,6.29,7.13l1.61,1.74c0.27,0.28.54,0.57,0.82,0.85a3.75,3.75,0,0,1,.77.9c0.45,0.66.93,1.29,1.4,1.94,0.24,0.32.48,0.64,0.72,0.93A6.2,6.2,0,0,0,177.22,46Z"/><path d="M257,40.18c0.11-.8.25-1.6,0.41-2.38l0.25-1.17a2.87,2.87,0,0,1,.15-0.57c0.08-.18.19-0.34,0.27-0.52l2-4.21,4-8.42,0.12,1L260.25,19l-1-1.23a7,7,0,0,1-.49-0.61l-0.34-.73q-0.68-1.45-1.28-3,1.33,0.95,2.58,2l0.63,0.5a7,7,0,0,1,.48.62l1,1.23,3.86,4.93,0.38,0.48-0.26.56-4,8.42-2,4.21c-0.09.17-.14,0.36-0.22,0.54a2.87,2.87,0,0,1-.34.48l-0.74.94C258,39,257.52,39.58,257,40.18Z"/><polygon points="165.16 20.61 175.41 15.94 166.15 22.35 165.16 20.61"/><polygon points="260.26 16.97 268.97 12.14 261.4 18.61 260.26 16.97"/><polygon points="54.52 28.66 66.47 42.51 53.08 30.04 54.52 28.66"/></svg>