<svg id="Cracking_Branched" xmlns="http://www.w3.org/2000/svg" viewBox="0 0 300 150"><title>CP_CrackingBranched</title><path d="M3.52,80.42c9.84-2.67,19.7-5.22,29.56-7.82l7.4-1.93c2.47-.61,5-1.13,7.44-1.73l14.87-3.5L63,65.4l0.21,0,101,20.5h-0.36l49.75-8.25,24.88-4.12,12.44-2.06,6.22-1c2.07-.37,4.15-0.64,6.23-0.93l0.2,0,0.15,0c11.12,2.71,22.25,5.37,33.36,8.15-11.26-2.05-22.5-4.23-33.75-6.34h0.34c-2.06.39-4.12,0.81-6.2,1.13l-6.22,1-12.44,2.06-24.87,4.12-49.75,8.25-0.18,0-0.18,0-101-20.5h0.43L48.37,70.9c-2.48.57-4.95,1.21-7.43,1.77l-7.48,1.57C23.48,76.31,13.51,78.42,3.52,80.42Z"/><path d="M31,110.92q1.67-3,3.41-5.94L36.17,102c0.29-.49.57-1,0.9-1.45l1-1.38L46,88.09,61.7,65.84l-0.18.7-2.5-20-0.09-.68,0.61-.32,1.75-.94c0.59-.31,1.16-0.64,1.74-1s1.21-.54,1.82-0.81L66.68,42l3.66-1.58c1.21-.54,2.45-1,3.68-1.54-1.11.74-2.2,1.5-3.32,2.21L67.35,43.3l-1.67,1.09c-0.56.36-1.1,0.74-1.68,1.06s-1.18.6-1.76,0.92l-1.75.94,0.52-1,2.5,20,0,0.39L63.33,67,47.58,89.25l-7.87,11.12-1,1.41c-0.33.46-.7,0.89-1.07,1.33l-2.19,2.62Q33.28,108.35,31,110.92Z"/><path d="M189.52,113.43l-1.14-.53c-0.37-.18-0.72-0.43-1.09-0.65-0.75-.44-1.41-1-2.1-1.45s-1.35-1-2-1.54-1.31-1.06-2-1.6a14.74,14.74,0,0,1-1.84-1.72l-1.75-1.8-3.46-3.64c-4.57-4.89-9-9.86-13.43-14.91l-0.3-.35,0.07-.46,3.5-22.5,0.38,0.94-10-7.75c-0.42-.32-0.86-0.61-1.25-1L152,53.42l-2.33-2.15c-1.56-1.43-3.11-2.87-4.64-4.34,1.81,1.11,3.59,2.25,5.36,3.41L153,52.05l1.33,0.86c0.44,0.29.84,0.64,1.25,1l10,7.75L166.1,62l-0.09.58-3.5,22.5-0.23-.81c4.37,5,8.83,10,13.37,14.85l3.44,3.62,1.75,1.78a18.9,18.9,0,0,1,1.71,1.81c0.54,0.64,1.08,1.26,1.64,1.88s1.1,1.25,1.68,1.84,1.14,1.22,1.74,1.77c0.3,0.28.58,0.59,0.91,0.85Z"/><path d="M246.52,105.43c0.56-1.57,1.15-3.13,1.75-4.67l0.92-2.31c0.15-.38.3-0.78,0.48-1.15l0.6-1.08,4.62-8.75L264.13,70l0.13,1.13-9-10.25L253,58.27c-0.36-.44-0.78-0.83-1.13-1.27l-1-1.4q-2-2.8-3.87-5.67,2.61,2.25,5.13,4.58l1.26,1.16c0.4,0.41.73,0.87,1.12,1.29l2.25,2.56,9,10.25,0.45,0.52-0.32.61-9.25,17.5L252,97.14l-0.55,1.11c-0.21.36-.45,0.7-0.68,1l-1.4,2.06Q248,103.4,246.52,105.43Z"/><polygon points="164.53 61.55 185.68 50.92 165.5 63.3 164.53 61.55"/><polygon points="254.99 58.07 274.52 47.17 256.04 59.77 254.99 58.07"/><polygon points="48.92 86.67 60.68 114.42 47.11 87.51 48.92 86.67"/></svg>