<svg id="Cracking_Branched" xmlns="http://www.w3.org/2000/svg" viewBox="0 0 650 150"><title>CP_CrackingBranched</title><path d="M23.5,70L82.81,55.21l0.16,0,0.18,0,12.66,2.41q6.33,1.21,12.63,2.52l25.25,5.14,50.5,10.25h-0.36L283.34,59l0.19,0,0.19,0,132,28.5h-0.39L515.82,69l-0.36.14,15.5-10,0.3-.19,0.35,0,16.75,1.73c2.79,0.3,5.58.59,8.37,0.93l8.36,1h0.1l0.08,0L628,84,564.74,64.31l0.18,0-8.39-.77c-2.8-.24-5.59-0.54-8.38-0.82L531.4,61l0.65-.15-15.5,10-0.17.11-0.19,0-100.5,18.5-0.2,0-0.2,0L283.29,61h0.37l-99.5,16.5-0.18,0-0.18,0L133.3,67.23,108,62.12q-6.32-1.25-12.62-2.6L82.84,56.79h0.35Z"/><path d="M51,100.5q1.67-3,3.41-5.94l1.74-2.94c0.29-.49.57-1,0.9-1.45l1-1.38,7.87-11.12L81.68,55.42l-0.18.7-2.5-20-0.09-.68,0.61-.32,1.75-.94c0.59-.31,1.16-0.64,1.74-1s1.21-.54,1.82-0.81l1.83-.79L90.32,30c1.21-.54,2.45-1,3.68-1.54-1.11.74-2.2,1.5-3.32,2.21l-3.34,2.17L85.67,34c-0.56.36-1.1,0.74-1.68,1.06s-1.18.6-1.76,0.92l-1.75.94,0.52-1,2.5,20,0,0.39-0.22.32L67.57,78.83,59.69,90l-1,1.41c-0.33.46-.7,0.89-1.07,1.33l-2.19,2.62Q53.26,97.92,51,100.5Z"/><path d="M209.5,103l-1.14-.53c-0.37-.18-0.72-0.43-1.09-0.65-0.75-.44-1.41-1-2.1-1.45s-1.35-1-2-1.54-1.31-1.06-2-1.6a14.74,14.74,0,0,1-1.84-1.72l-1.75-1.8-3.46-3.64c-4.57-4.89-9-9.86-13.43-14.91l-0.3-.35,0.07-.46,3.5-22.5,0.38,0.94-10-7.75c-0.42-.32-0.86-0.61-1.25-1L172,43l-2.33-2.15c-1.56-1.43-3.11-2.87-4.64-4.34,1.81,1.11,3.59,2.25,5.36,3.41L173,41.63l1.33,0.86c0.44,0.29.84,0.64,1.25,1l10,7.75,0.47,0.36-0.09.58-3.5,22.5-0.23-.81c4.37,5,8.83,10,13.37,14.85l3.44,3.62,1.75,1.78a18.9,18.9,0,0,1,1.71,1.81c0.54,0.64,1.08,1.26,1.64,1.88s1.1,1.25,1.68,1.84,1.14,1.22,1.74,1.77c0.3,0.28.58,0.59,0.91,0.85Z"/><path d="M266.5,95c0.56-1.57,1.15-3.13,1.75-4.67L269.16,88c0.15-.38.3-0.78,0.48-1.15l0.6-1.08L274.87,77l9.25-17.5,0.13,1.13-9-10.25L273,47.85c-0.36-.44-0.78-0.83-1.13-1.27l-1-1.4q-2-2.8-3.87-5.67,2.61,2.25,5.13,4.58l1.26,1.16c0.4,0.41.73,0.87,1.12,1.29l2.25,2.56,9,10.25,0.45,0.52-0.32.61L276.63,78,272,86.72l-0.55,1.11c-0.21.36-.45,0.7-0.68,1l-1.4,2.06Q268,93,266.5,95Z"/><path d="M397,113.33q2.17-3.35,4.41-6.64l1.12-1.64a17.91,17.91,0,0,1,1.17-1.61c0.87-1,1.68-2,2.52-3.07l10-12.33-0.16.28,10-26.67,5-13.33c0.2-.56.43-1.11,0.62-1.67a11.71,11.71,0,0,1,.67-1.65l1.54-3.23c1-2.15,2-4.3,3.12-6.44-0.59,2.31-1.24,4.6-1.88,6.9l-1,3.44a11.71,11.71,0,0,1-.58,1.68c-0.23.55-.42,1.11-0.63,1.66l-5,13.33L417.94,89l-0.06.15-0.1.13-10,12.33c-0.83,1-1.68,2-2.48,3.1A17.91,17.91,0,0,1,404,106.2l-1.38,1.44Q399.84,110.52,397,113.33Z"/><path d="M518,42.33c1.4,1.38,2.78,2.78,4.12,4.2l1,1.07a7.42,7.42,0,0,1,.93,1.12c0.56,0.79,1.16,1.56,1.74,2.34l7,9.33L533,60.64l0,0.31,1,20,0.5,10a20.53,20.53,0,0,1,.08,2.5L534.41,96q-0.17,2.51-.41,5-0.49-2.48-.91-5l-0.41-2.49a20.52,20.52,0,0,1-.17-2.5L532,81l-1-20,0.2,0.55-7-9.33c-0.59-.77-1.16-1.56-1.76-2.32a7.42,7.42,0,0,1-.82-1.21l-0.74-1.27C519.89,45.78,518.93,44.06,518,42.33Z"/><polygon points="184.51 51.13 205.67 40.5 185.49 52.88 184.51 51.13"/><polygon points="274.97 47.65 294.5 36.75 276.03 49.35 274.97 47.65"/><polygon points="68.91 76.24 80.67 104 67.09 77.08 68.91 76.24"/></svg>