<svg id="Cracking_Branched" xmlns="http://www.w3.org/2000/svg" viewBox="0 0 500 100"><title>CP_CrackingBranched</title><path d="M5.49,54.75L35.14,47.9l29.65-6.8,0.18,0,0.21,0c4.22,0.73,8.42,1.51,12.63,2.31l12.63,2.32,25.25,4.64,50.5,9.28h-0.33l99.5-14.94,0.17,0,0.17,0,132,25.81h-0.36l25.13-4.19L435,64.23l12.59-1.91L498,54.75l-50.11,9.19-12.53,2.27L422.78,68.3l-25.12,4.19-0.18,0-0.18,0-132-25.81h0.34l-99.5,14.94-0.17,0-0.16,0-50.5-9.28L90.06,47.7,77.44,45.38C73.23,44.62,69,43.86,64.82,43H65.2L35.35,48.92Z"/><path d="M33,82.37q1.68-2.74,3.43-5.44l1.75-2.69c0.29-.45.58-0.9,0.9-1.32s0.68-.82,1-1.24L48,61.6,63.71,41.45l-0.2.75L61,24.09l-0.1-.72,0.65-.32c1.16-.57,2.34-1.12,3.49-1.71a14.18,14.18,0,0,1,1.79-.77l1.82-.7c2.43-.94,4.87-1.84,7.33-2.72q-3.32,2.08-6.67,4.08l-1.68,1a14.17,14.17,0,0,1-1.71.93c-1.18.54-2.34,1.12-3.51,1.68l0.55-1,2.5,18.11,0.06,0.42-0.26.33L49.53,62.84,41.66,72.91c-0.33.42-.64,0.85-1,1.28s-0.7.8-1.06,1.2l-2.19,2.35Q35.25,80.07,33,82.37Z"/><path d="M191.49,84.64l-1.11-.45c-0.37-.15-0.71-0.37-1.07-0.56-0.73-.38-1.4-0.83-2.07-1.27s-1.34-.9-2-1.37-1.31-.94-1.95-1.42A13.11,13.11,0,0,1,181.48,78l-1.76-1.63c-1.16-1.1-2.32-2.19-3.46-3.3-4.58-4.44-9.06-9-13.49-13.56l-0.35-.36,0.09-.5L166,38.28l0.41,1-10-7c-0.42-.29-0.85-0.56-1.26-0.87s-0.79-.65-1.18-1l-2.35-2q-2.34-2-4.64-4,2.7,1.47,5.36,3L155,28.95c0.44,0.26.89,0.5,1.32,0.78s0.83,0.6,1.24.89l10,7L168.09,38l-0.11.62L164.48,59l-0.26-.86c4.4,4.57,8.87,9.09,13.43,13.5,1.13,1.11,2.29,2.19,3.44,3.28l1.75,1.61,0.89,0.78c0.28,0.27.55,0.57,0.82,0.86q0.81,0.88,1.65,1.72c0.56,0.56,1.11,1.14,1.68,1.68s1.13,1.11,1.73,1.61c0.3,0.25.58,0.54,0.91,0.77Z"/><path d="M248.49,77.39c0.57-1.44,1.16-2.87,1.76-4.28L251.18,71c0.16-.35.3-0.71,0.48-1.05s0.4-.65.6-1L256.88,61l9.25-15.85,0.15,1.2-9-9.28L255,34.79l-1.14-1.15c-0.35-.41-0.66-0.86-1-1.28q-2-2.58-3.9-5.23,2.6,2,5.1,4.06c0.42,0.35.85,0.68,1.25,1l1.11,1.17,2.25,2.32,9,9.28,0.53,0.54-0.38.66L258.61,62,254,70c-0.19.33-.35,0.68-0.56,1s-0.45.62-.68,0.93l-1.39,1.85C250.42,75,249.47,76.19,248.49,77.39Z"/><path d="M379,94q2.18-3.08,4.43-6.1l1.13-1.51a13.24,13.24,0,0,1,1.19-1.45c0.86-.91,1.67-1.86,2.51-2.78l10-11.17-0.18.28,10-24.15,5-12.08c0.45-1,.75-2,1.29-3l1.52-2.91q1.53-2.9,3.12-5.78-0.91,3.16-1.88,6.29l-1,3.13c-0.29,1.06-.83,2-1.21,3l-5,12.08L399.92,72l-0.07.16-0.11.13-10,11.17c-0.83.94-1.68,1.85-2.49,2.8a13.21,13.21,0,0,1-1.31,1.34l-1.37,1.29Q381.83,91.5,379,94Z"/><polygon points="166.54 37.56 187.66 28.03 167.44 39.34 166.54 37.56"/><polygon points="257 34.41 276.49 24.64 257.98 36.15 257 34.41"/><polygon points="50.88 60.33 62.66 85.54 49.1 61.24 50.88 60.33"/></svg>