<svg id="Cracking_Branched" xmlns="http://www.w3.org/2000/svg" viewBox="0 0 500 50"><title>CP_CrackingBranched</title><path d="M10.5,26.14l29.69-3.9,29.7-3.84H70.1l101,9.87h-0.18l99.5-7.94h0.18l132,13.72h-0.19l21.87-2c3.64-.33,7.29-0.61,10.94-0.87l11-.8L490,27.29l-43.68,4.61-10.92,1.14c-3.64.39-7.28,0.76-10.93,1.07L402.59,36H402.4l-132-13.72h0.18l-99.5,7.94H170.9L69.9,20.4h0.21l-29.8,2.9Z"/><path d="M49,40.82q0.77-1.56,1.6-3.08l0.84-1.51a5,5,0,0,1,.45-0.73c0.18-.22.38-0.43,0.55-0.65l4.21-5.35,8.42-10.71-0.2.76L63.52,9.91l-0.1-.72,0.66-.32C64.7,8.57,65.33,8.28,65.95,8a3.88,3.88,0,0,1,1-.37l1-.3c1.34-.41,2.7-0.77,4.07-1.12-1.13.86-2.26,1.69-3.42,2.49l-0.86.6a3.88,3.88,0,0,1-.9.53c-0.64.28-1.25,0.6-1.88,0.89l0.56-1,1.34,9.63,0.06,0.42L66.64,20,58.21,30.73,54,36.08c-0.18.22-.33,0.46-0.51,0.68a5,5,0,0,1-.61.61l-1.27,1.17Q50.34,39.7,49,40.82Z"/><path d="M183.75,43a6.44,6.44,0,0,1-1.14-.46c-0.39-.19-0.73-0.41-1.09-0.62-0.71-.42-1.38-0.9-2-1.37a3.48,3.48,0,0,1-.9-0.81l-0.83-.87-1.64-1.76c-2.16-2.36-4.27-4.75-6.34-7.18l-0.3-.35,0.07-.45,1.65-10.83,0.37,0.94-4.72-3.73a3.71,3.71,0,0,1-.59-0.47l-0.51-.57-1-1.14c-0.67-.77-1.33-1.55-2-2.34,0.93,0.45,1.83.91,2.74,1.39l1.34,0.73,0.67,0.36a3.71,3.71,0,0,1,.59.46l4.72,3.73,0.46,0.36-0.09.57-1.65,10.83-0.23-.8c2.06,2.41,4.15,4.79,6.29,7.13l1.61,1.74c0.27,0.28.54,0.57,0.82,0.85a3.75,3.75,0,0,1,.77.9c0.45,0.66.93,1.29,1.4,1.94,0.24,0.32.48,0.64,0.72,0.93A6.2,6.2,0,0,0,183.75,43Z"/><path d="M263.5,37.17c0.11-.8.25-1.6,0.41-2.38l0.25-1.17a2.87,2.87,0,0,1,.15-0.57c0.08-.18.19-0.34,0.27-0.52l2-4.21,4-8.42,0.12,1L266.79,16l-1-1.23a7,7,0,0,1-.49-0.61L265,13.43q-0.68-1.45-1.28-3,1.33,0.95,2.58,2l0.63,0.5a7,7,0,0,1,.48.62l1,1.23,3.86,4.93,0.38,0.48-0.26.56-4,8.42-2,4.21c-0.09.17-.14,0.36-0.22,0.54a2.87,2.87,0,0,1-.34.48l-0.74.94C264.57,36,264.05,36.58,263.5,37.17Z"/><path d="M384,47c1.49-1.28,3-2.51,4.56-3.71,0.39-.29.76-0.62,1.17-0.88s0.85-.46,1.26-0.72l2.5-1.48,10-5.94-0.28.25,10-12.84,5-6.42c0.21-.27.38-0.56,0.62-0.81s0.48-.48.72-0.73L421,12.28c1-1,2-1.9,3-2.83-0.65,1.21-1.33,2.4-2,3.59l-1,1.77c-0.18.29-.34,0.59-0.53,0.88s-0.43.53-.63,0.8l-5,6.42-10,12.84-0.12.15-0.16.1-10,5.94L392,43.41c-0.42.24-.82,0.51-1.24,0.76s-0.89.4-1.33,0.6C387.65,45.55,385.84,46.3,384,47Z"/><polygon points="171.69 17.61 181.94 12.94 172.68 19.35 171.69 17.61"/><polygon points="266.79 13.97 275.5 9.13 267.93 15.61 266.79 13.97"/><polygon points="61.05 25.65 73 39.51 59.61 27.04 61.05 25.65"/></svg>