<svg id="Cracking_Branched" xmlns="http://www.w3.org/2000/svg" viewBox="0 0 500 150"><title>CP_CrackingBranched</title><path d="M7.49,79l29.63-7.51L66.77,64,67,64l0.23,0c4.22,0.81,8.42,1.68,12.63,2.55l12.63,2.56,25.25,5.12,50.5,10.25h-0.36L267.33,68l0.19,0,0.19,0,132,28.5h-0.39l25.13-4.62L437,89.57l12.6-2.13L500,79l-50.1,10.06-12.53,2.49L424.8,93.86l-25.12,4.63-0.2,0-0.2,0L267.28,70h0.37l-99.5,16.5-0.18,0-0.18,0-50.5-10.25L92,71.11,79.42,68.54C75.21,67.71,71,66.87,66.8,66h0.42L37.36,72.51Z"/><path d="M35,109.5q1.67-3,3.41-5.94l1.74-2.94c0.29-.49.57-1,0.9-1.45l1-1.38,7.87-11.12L65.68,64.42l-0.18.7-2.5-20-0.09-.68,0.61-.32,1.75-.94c0.59-.31,1.16-0.64,1.74-1s1.21-.54,1.82-0.81l1.83-.79L74.31,39c1.21-.54,2.45-1,3.68-1.54-1.11.74-2.2,1.5-3.32,2.21l-3.34,2.17L69.66,43C69.1,43.32,68.56,43.7,68,44s-1.18.6-1.76,0.92l-1.75.94,0.52-1,2.5,20,0,0.39-0.22.32L51.56,87.83,43.68,99l-1,1.41c-0.33.46-.7,0.89-1.07,1.33l-2.19,2.62Q37.26,106.92,35,109.5Z"/><path d="M193.49,112l-1.14-.53c-0.37-.18-0.72-0.43-1.09-0.65-0.75-.44-1.41-1-2.1-1.45s-1.35-1-2-1.54-1.31-1.06-2-1.6a14.74,14.74,0,0,1-1.84-1.72l-1.75-1.8-3.46-3.64c-4.57-4.89-9-9.86-13.43-14.91l-0.3-.35,0.07-.46,3.5-22.5,0.38,0.94-10-7.75c-0.42-.32-0.86-0.61-1.25-1L156,52l-2.33-2.15c-1.56-1.43-3.11-2.87-4.64-4.34,1.81,1.11,3.59,2.25,5.36,3.41L157,50.63l1.33,0.86c0.44,0.29.84,0.64,1.25,1l10,7.75,0.47,0.36-0.09.58-3.5,22.5-0.23-.81c4.37,5,8.83,10,13.37,14.85l3.44,3.62,1.75,1.78a18.9,18.9,0,0,1,1.71,1.81c0.54,0.64,1.08,1.26,1.64,1.88s1.1,1.25,1.68,1.84,1.14,1.22,1.74,1.77c0.3,0.28.58,0.59,0.91,0.85Z"/><path d="M250.49,104c0.56-1.57,1.15-3.13,1.75-4.67L253.16,97c0.15-.38.3-0.78,0.48-1.15l0.6-1.08L258.86,86l9.25-17.5,0.13,1.13-9-10.25L257,56.85c-0.36-.44-0.78-0.83-1.13-1.27l-1-1.4q-2-2.8-3.87-5.67,2.61,2.25,5.13,4.58l1.26,1.16c0.4,0.41.73,0.87,1.12,1.29l2.25,2.56,9,10.25,0.45,0.52-0.32.61L260.63,87,256,95.72l-0.55,1.11c-0.21.36-.45,0.7-0.68,1l-1.4,2.06Q252,102,250.49,104Z"/><path d="M381,122.33q2.17-3.35,4.41-6.64l1.12-1.64a17.91,17.91,0,0,1,1.17-1.61c0.87-1,1.68-2,2.52-3.07l10-12.33-0.16.28,10-26.67,5-13.33c0.2-.56.43-1.11,0.62-1.67a11.71,11.71,0,0,1,.67-1.65l1.54-3.23c1-2.15,2-4.3,3.12-6.44-0.59,2.31-1.24,4.6-1.88,6.9l-1,3.44a11.71,11.71,0,0,1-.58,1.68c-0.23.55-.42,1.11-0.63,1.66l-5,13.33L401.93,98l-0.06.15-0.1.13-10,12.33c-0.83,1-1.68,2-2.48,3.1A17.91,17.91,0,0,1,388,115.2l-1.38,1.44Q383.83,119.52,381,122.33Z"/><polygon points="168.51 60.13 189.66 49.5 169.48 61.88 168.51 60.13"/><polygon points="258.97 56.65 278.49 45.75 260.02 58.35 258.97 56.65"/><polygon points="52.9 85.24 64.66 113 51.09 86.08 52.9 85.24"/></svg>