<svg id="Cracking_Branched" xmlns="http://www.w3.org/2000/svg" viewBox="0 0 650 50"><title>CP_CrackingBranched</title><path d="M25.5,27.14L84.91,19.6h0.17l12.64,1.07q6.32,0.54,12.63,1.19l25.25,2.48,50.5,4.93h-0.18l99.5-7.94h0.18l132,13.72h-0.19l100.5-8.9-0.21,0,15.5-4.81,0.17-.05h0.18l16.75,0.83c5.58,0.27,11.16.68,16.74,1h0.09L630,33.88l-63.13-9H567c-5.59-.22-11.18-0.38-16.76-0.67l-16.75-.86,0.35,0L518.3,28.1l-0.1,0h-0.11L417.59,37H417.4l-132-13.72h0.18l-99.5,7.94h-0.18l-50.5-4.93-25.25-2.45q-6.32-.59-12.62-1.28L84.93,21.21h0.17Z"/><path d="M64,41.82q0.77-1.56,1.6-3.08l0.84-1.51a5,5,0,0,1,.45-0.73c0.18-.22.38-0.43,0.55-0.65l4.21-5.35,8.42-10.71-0.2.76-1.34-9.63-0.1-.72,0.66-.32C79.7,9.57,80.34,9.28,80.95,9a3.88,3.88,0,0,1,1-.37l1-.3c1.34-.41,2.7-0.77,4.07-1.12-1.13.86-2.26,1.69-3.42,2.49l-0.86.6a3.88,3.88,0,0,1-.9.53c-0.64.28-1.25,0.6-1.88,0.89l0.56-1,1.34,9.63,0.06,0.42L81.64,21,73.21,31.73,69,37.08c-0.18.22-.33,0.46-0.51,0.68a5,5,0,0,1-.61.61l-1.27,1.17Q65.34,40.7,64,41.82Z"/><path d="M198.75,44a6.44,6.44,0,0,1-1.14-.46c-0.39-.19-0.73-0.41-1.09-0.62-0.71-.42-1.38-0.9-2-1.37a3.48,3.48,0,0,1-.9-0.81l-0.83-.87-1.64-1.76c-2.16-2.36-4.27-4.75-6.34-7.18l-0.3-.35,0.07-.45,1.65-10.83,0.37,0.94-4.72-3.73a3.71,3.71,0,0,1-.59-0.47l-0.51-.57-1-1.14c-0.67-.77-1.33-1.55-2-2.34,0.93,0.45,1.83.91,2.74,1.39l1.34,0.73,0.67,0.36a3.71,3.71,0,0,1,.59.46l4.72,3.73,0.46,0.36-0.09.57-1.65,10.83-0.23-.8c2.06,2.41,4.15,4.79,6.29,7.13l1.61,1.74c0.27,0.28.54,0.57,0.82,0.85a3.75,3.75,0,0,1,.77.9c0.45,0.66.93,1.29,1.4,1.94,0.24,0.32.48,0.64,0.72,0.93A6.2,6.2,0,0,0,198.75,44Z"/><path d="M278.51,38.18c0.11-.8.25-1.6,0.41-2.38l0.25-1.17a2.87,2.87,0,0,1,.15-0.57c0.08-.18.19-0.34,0.27-0.52l2-4.21,4-8.42,0.12,1L281.79,17l-1-1.23a7,7,0,0,1-.49-0.61L280,14.43q-0.68-1.45-1.28-3,1.33,0.95,2.58,2l0.63,0.5a7,7,0,0,1,.48.62l1,1.23,3.86,4.93,0.38,0.48-0.26.56-4,8.42-2,4.21c-0.09.17-.14,0.36-0.22,0.54a2.87,2.87,0,0,1-.34.48l-0.74.94C279.58,37,279.05,37.58,278.51,38.18Z"/><path d="M399,48c1.49-1.28,3-2.51,4.56-3.71,0.39-.29.76-0.62,1.17-0.88s0.85-.46,1.26-0.72l2.5-1.48,10-5.94-0.28.25,10-12.84,5-6.42c0.21-.27.38-0.56,0.62-0.81s0.48-.48.72-0.73L436,13.28c1-1,2-1.9,3-2.83-0.65,1.21-1.33,2.4-2,3.59l-1,1.77c-0.18.29-.34,0.59-0.53,0.88s-0.43.53-.63,0.8l-5,6.42-10,12.84-0.12.15-0.16.1-10,5.94L407,44.41c-0.42.24-.82,0.51-1.24,0.76s-0.89.4-1.33,0.6C402.65,46.55,400.84,47.3,399,48Z"/><path d="M520,13.82c1.37,0.43,2.69.94,4,1.45a2.81,2.81,0,0,1,.91.51l0.87,0.56,1.75,1.12,7,4.49,0.4,0.26,0,0.48,1,9.63,0.25,2.41,0.13,1.2c0,0.4.07,0.8,0.15,1.2a6.93,6.93,0,0,1-.07,1.22l-0.12,1.23c-0.09.82-.2,1.64-0.32,2.47-0.29-.78-0.56-1.56-0.82-2.35l-0.37-1.18a6.93,6.93,0,0,1-.32-1.18c0-.4-0.07-0.8-0.1-1.21l-0.12-1.2L534,32.54l-1-9.63,0.45,0.74-7-4.49L524.71,18l-0.88-.56a2.81,2.81,0,0,1-.84-0.61C522,15.88,521,14.89,520,13.82Z"/><polygon points="186.7 18.61 196.94 13.94 187.69 20.35 186.7 18.61"/><polygon points="281.79 14.97 290.5 10.14 282.93 16.61 281.79 14.97"/><polygon points="76.06 26.66 88 40.51 74.61 28.04 76.06 26.66"/></svg>