<svg id="Deformed_dendrites" data-name="Deformed dendrites" xmlns="http://www.w3.org/2000/svg" viewBox="0 0 500 100"><defs><style>.cls-1,.cls-2{fill:#fff;}.cls-1,.cls-3{stroke:#1d1d1b;stroke-miterlimit:10;stroke-width:0.5px;}.cls-3{fill:none;}</style></defs><title>M_DeformedDendrites</title><path class="cls-1" d="M244.69,94.1c-0.65,1-7.31,2.66-15.47,4l-1.4,1.94h-5.33l0.8-1.1c-7.91,1-13.47,1-12.82,0s7.43-2.69,15.67-4l5.23-7.23c0.95-1.32,4.72-5.28,6.26-5.37s0.26,3.72-.69,5l-4.87,6.73C239.88,93.17,245.34,93.12,244.69,94.1Z"/><path class="cls-1" d="M91.11,97.9c0.09,0.37.23,1.16,0.36,2.1H87.89l-1.81-7.19c-2.81,3.27-5,5.15-5.17,4.42s1.6-4,4.34-7.75L83.11,81c-3.7,4.49-6.63,7.3-6.86,6.5s2.33-5,6-9.94l-2-8.12c-3.87,4.76-7,7.79-7.24,7S75.48,71,79.33,65.94l-1.6-6.34c-0.29-1.16-.65-5.13.16-6s2.5,1.67,2.79,2.82l1.48,5.91c3.84-4.69,6.91-7.67,7.15-6.84S86.84,60.74,83,65.79l2,8.1c4-5,7.27-8.17,7.53-7.31s-2.65,5.54-6.65,10.8l2.11,8.39c3.67-4.59,6.75-7.53,7-6.64s-2.44,5.37-6.13,10.15Z"/><path class="cls-1" d="M86.67,31.28l-1.23,6.06c-0.17.81-1.61,3.86-2.92,3.07-0.54-.33-1.1-3.22-1.46-3.64a3.2,3.2,0,0,1-.36-2.31l1.18-5.82C77.27,26,74,23.7,74.07,23.14s3.53,0.78,8.29,3.15l1.22-6c-6.16-3.45-10.71-6.43-10.64-7s4.84,1.38,11.13,4.63l1.16-5.71C78.76,8.59,73.89,5.41,74,4.77s5.17,1.53,11.77,5l0.91-4.46c0.17-.81,1.46-2.74,2.77-1.94s2.13,4,2,4.82l-0.85,4.16c6.4,3.56,11.19,6.69,11.11,7.32S96.55,18.15,90,14.76l-1.16,5.7c6.71,3.69,11.82,7,11.74,7.67s-5.41-1.63-12.24-5.21l-1.2,5.9C93.34,32.18,98.13,35.34,98,36S92.94,34.6,86.67,31.28Z"/><path class="cls-1" d="M219.1,63.64l-1.32,6.83c-0.18.92-1.64,4.81-2.9,4.71-0.52,0-1-2.67-1.35-2.91s-0.41-1.61-.3-2.15l1.26-6.56c-4.44-.2-7.57-0.73-7.5-1.33s3.42-1.13,8-1.31l1.3-6.76c-5.92-.15-10.29-0.72-10.21-1.38s4.68-1.22,10.74-1.35L218.07,45c-6.23-.13-10.9-0.71-10.82-1.4s5-1.26,11.35-1.35l1-5c0.18-.92,1.47-3.58,2.73-3.48s2,2.92,1.82,3.84l-0.9,4.69c6.15,0.14,10.76.71,10.67,1.4S229,44.9,222.69,45l-1.24,6.43c6.46,0.11,11.36.7,11.28,1.41s-5.24,1.29-11.81,1.36l-1.28,6.66c5.93,0.07,10.53.68,10.44,1.41S225.14,63.6,219.1,63.64Z"/><path class="cls-1" d="M39,95.52l5.9,4.48H40l0,0a0.06,0.06,0,0,0,0,0H37.42q-0.25-1.14-.51-2.34l-7.28-5.53a47.09,47.09,0,0,1,1,7.87c0,1-.16,1.45-0.47,1.23A3.28,3.28,0,0,1,29.4,100a62.38,62.38,0,0,1-2.81-10.18l-7.47-5.67c-1-.76-5.38-4.67-5.52-5.82,0-.47,2.63.76,2.82,0.59S18,79.57,18.64,80l7.16,5.44c-0.63-4.13-.67-6.79,0-6.33s1.85,4,2.91,8.52l7.38,5.61c-1-5.59-1.21-9.42-.49-8.91S37.76,89.63,39,95.52Z"/><path class="cls-1" d="M48.38,100H45.94c-0.93-5.43-1.14-9.11-.44-8.61S47.26,95.34,48.38,100Z"/><path class="cls-1" d="M199,14.27l15.11-3.4c2-.46,11.62-1.75,13.18-0.56,0.65,0.49-3.78,2.69-3.77,3.16,0,0.67-2.56,1.45-3.76,1.72l-14.5,3.27c5.8,4.11,9.15,7.27,7.87,7.61s-7-2.31-13.7-6.3l-14.93,3.37c8,5.41,13,9.7,11.56,10.07s-8.91-3.37-17.59-8.71l-14.25,3.2c8.44,5.66,13.83,10.24,12.38,10.63s-9.42-3.63-18.46-9.26L147,31.57c-2,.46-9,1.08-10.57-0.11s2.89-3.75,4.91-4.2l10.37-2.34c-8.32-5.6-13.61-10.11-12.16-10.49s9.29,3.56,18.24,9.12L172,20.35c-8.8-5.85-14.49-10.65-13-11s9.8,3.83,19.11,9.66l14.73-3.32c-8.13-5.36-13.36-9.88-11.81-10.29S190.55,8.89,199,14.27Z"/><path class="cls-2" d="M138.36,69.81l-10.95,2.36c-1.57.25-8.6,0.52-8.6-.57,0-.44,4.48-1.93,4.84-2.31,0.52-.56,2.58-1.1,3.45-1.28L137,65.35c-0.46-3.94.08-6.73,0.83-7.11s1.63,1.88,2.81,5.82l8.44-3.92c-1.7-5.79-1.78-10-1.17-10.54s1.91,2.86,4.21,8.72l6.36-4.85c-2.88-6.76-3.88-11.82-3.43-12.53s2.4,3.37,5.79,10.22l3.77-4.59c0.61-.89,2.88-2.55,3.89-0.79s0.25,6.19-.45,7l-3.93,4c5.39,8.39,9.82,15.66,9.09,16.17s-6.28-5.9-11.69-14l-6.89,4.48c4.6,8,8.41,15.15,7.47,15.56s-6.23-6-10.79-13.87l-8.88,3.49c3.15,6.63,5.58,12.62,4.41,12.91S141.42,76.29,138.36,69.81Z"/><path class="cls-3" d="M138.36,69.81l-10.95,2.36c-1.57.25-8.6,0.52-8.6-.57,0-.44,4.48-1.93,4.84-2.31,0.52-.56,2.58-1.1,3.45-1.28L137,65.35c-0.46-3.94.08-6.73,0.83-7.11s1.63,1.88,2.81,5.82l8.44-3.92c-1.7-5.79-1.78-10-1.17-10.54s1.91,2.86,4.21,8.72l6.36-4.85c-2.88-6.76-3.88-11.82-3.43-12.53s2.4,3.37,5.79,10.22l3.77-4.59c0.61-.89,2.88-2.55,3.89-0.79s0.25,6.19-.45,7l-3.93,4c5.39,8.39,9.82,15.66,9.09,16.17s-6.28-5.9-11.69-14l-6.89,4.48c4.6,8,8.41,15.15,7.47,15.56s-6.23-6-10.79-13.87l-8.88,3.49c3.15,6.63,5.58,12.62,4.41,12.91S141.42,76.29,138.36,69.81Z"/><path class="cls-1" d="M320.69,60.5l13-2.81c1.75-.38,10-1.3,11.26,0,0.53,0.52-3.34,2.55-3.35,3,0,0.67-2.24,1.35-3.28,1.57l-12.51,2.7c4.77,4.36,7.49,7.66,6.38,7.95S326.38,70.3,320.82,66l-12.88,2.78c6.56,5.74,10.64,10.25,9.42,10.56s-7.45-3.74-14.62-9.44l-12.28,2.65c7,6,11.35,10.82,10.1,11.16s-7.88-4-15.34-10l-9.6,2.07c-1.75.38-7.73,0.73-9-.53s2.63-3.64,4.37-4l8.94-1.93c-6.85-6-11.18-10.69-9.92-11s7.76,3.95,15.16,9.88l12.25-2.65c-7.25-6.22-11.9-11.26-10.61-11.6s8.2,4.23,15.88,10.46l12.7-2.74c-6.71-5.7-11-10.45-9.63-10.8S313.69,54.76,320.69,60.5Z"/><path class="cls-1" d="M25.43,24.63l-6.68-2.49c-0.9-.34-4.85-2.31-5-3.28-0.07-.4,2.29-0.23,2.44-0.44s1.42,0,2,.22L24.53,21c-0.76-3.45-.93-5.8-0.35-5.61S26,18.35,27.11,22l6.6,2.46c-1.12-4.63-1.52-7.94-.88-7.74s2.14,3.94,3.55,8.73l6.29,2.35c-1.21-4.87-1.66-8.43-1-8.22s2.25,4.2,3.69,9.22l4.92,1.83c0.9,0.34,3.67,1.92,3.84,2.89s-2.31.95-3.2,0.62l-4.58-1.71c1.18,4.81,1.62,8.31,1,8.09s-2.22-4.13-3.65-9.1l-6.28-2.34c1.28,5.06,1.77,8.79,1.09,8.57s-2.32-4.39-3.79-9.58l-6.51-2.43c1.2,4.65,1.61,8.14.9,7.91S26.75,29.39,25.43,24.63Z"/><path class="cls-1" d="M493.13,53.74l6.26,11.55c0.84,1.55,4,9.09,3.26,10.64-0.32.64-3.25-2.46-3.68-2.34-0.61.17-1.86-1.75-2.35-2.67l-6-11.08c-2.55,5.71-4.74,9.19-5.32,8.22s0.65-6.25,2.9-12.68L482,44c-3.29,7.78-6.17,12.88-6.8,11.82s1.23-8.08,4.3-16.43l-5.9-10.89c-3.42,8.24-6.48,13.72-7.14,12.62s1.36-8.56,4.62-17.27l-4.61-8.5c-0.84-1.55-2.87-7.11-2.1-8.66s4,1.48,4.87,3l4.29,7.92c3.39-8.12,6.41-13.51,7.06-12.41s-1.33,8.43-4.54,17.06l5.89,10.86c3.52-8.58,6.71-14.36,7.39-13.23s-1.46,8.92-4.86,17.9L490.58,49c3.2-7.91,6.25-13.25,7-12.08S496.28,45.54,493.13,53.74Z"/><path class="cls-1" d="M440.75,46.24l5.1-7.28c0.69-1,4.3-5.15,5.49-5.11,0.49,0-.48,2.76-0.27,3s-0.49,1.68-.89,2.26l-4.89,7c4.31,0,7.14.38,6.73,1s-4,1.37-8.7,1.79l-5,7.19c5.82-.14,9.86.23,9.41,0.93s-5.34,1.53-11.44,2l-4.81,6.86c6.14-.19,10.47.19,10,0.92s-5.68,1.59-12.06,2l-3.75,5.36c-0.69,1-3.45,3.85-4.65,3.81s-0.37-3,.31-4l3.5-5c-6.06.17-10.32-.2-9.85-0.93s5.59-1.57,11.9-2l4.79-6.84c-6.38.22-10.93-.15-10.45-0.91s5.93-1.63,12.52-2l5-7.09c-5.87.23-10.11-.18-9.61-1S434.72,46.59,440.75,46.24Z"/><path class="cls-1" d="M284.7,23.86l5.39-3c0.72-.41,4-1.31,4.23.2,0.1,0.62-1.71,2.94-1.8,3.49A3.2,3.2,0,0,1,291,26.3l-5.17,2.91c1,5.24,1.43,9.19,1,9.5s-1.72-3.18-3-8.33l-5.33,3c1.42,6.91,2.14,12.31,1.63,12.66s-2.12-4.57-3.78-11.44l-5.08,2.85c1.52,7.25,2.3,13,1.77,13.37S270.74,45.9,269,38.66l-4,2.24c-0.72.41-3,.69-3.28-0.82s1.64-4.24,2.36-4.64l3.7-2.08c-1.49-7.17-2.26-12.84-1.73-13.19s2.2,4.82,3.9,12l5.07-2.85c-1.6-7.49-2.43-13.53-1.89-13.9s2.31,5.16,4.07,12.67l5.25-3c-1.49-6.86-2.23-12.55-1.66-12.93S283.11,16.94,284.7,23.86Z"/><path class="cls-1" d="M345,32.11l-12.46-9.2c-1.67-1.24-8.93-7.64-9-9.6-0.05-.81,4.51,1.1,4.86.79,0.5-.45,2.77,1,3.76,1.72l12,8.83c-0.68-7.08-.49-11.67.61-10.93s2.82,6.78,4.21,14.48l12.32,9.09c-1.12-9.56-1.15-16.15.05-15.33s3.28,8.94,4.92,19L378,49.64c-1.24-10.09-1.31-17.16-.06-16.32s3.42,9.5,5.08,20l9.18,6.77c1.68,1.24,6.71,6.1,6.83,8.07s-4.73.26-6.39-1L384,60.9c1.2,10,1.26,16.91,0,16.06s-3.38-9.36-5-19.76L367.3,48.55c1.33,10.49,1.43,17.92.15,17.05s-3.52-9.92-5.2-20.78l-12.14-9c1.27,9.66,1.27,16.57-.06,15.67S346.51,42,345,32.11Z"/><path class="cls-1" d="M413.09,29.35L415.57,36c0.33,0.9,1.42,5.18.8,5.94-0.26.32-1.67-1.58-1.93-1.55s-0.92-1.09-1.11-1.62L411,32.39c-2.12,2.83-3.78,4.5-4,3.94s1-3.28,3.06-6.52l-2.46-6.6c-2.77,3.87-5,6.35-5.28,5.73s1.58-4.2,4.28-8.4l-2.34-6.3c-2.89,4.1-5.29,6.77-5.56,6.13s1.71-4.45,4.56-8.82l-1.83-4.92c-0.33-.9-0.95-4-0.33-4.79s2.23,1.13,2.56,2l1.7,4.58c2.87-4,5.22-6.67,5.49-6s-1.68,4.38-4.49,8.71l2.34,6.28c3-4.28,5.49-7.09,5.77-6.43s-1.81,4.63-4.77,9.13l2.42,6.51c2.73-4,5.1-6.54,5.39-5.86S415.82,25.24,413.09,29.35Z"/><path class="cls-2" d="M493,101.47l-6.83-4.69c0.35,1.73.64,3.38,0.87,4.89l-3.37.12c-0.73-2.35-1.5-5-2.26-7.76L469,88.46c2.74,7.1,3.82,12.32,2.54,11.7s-4.81-6.68-8.12-13.6L448.76,83c-2.07-.36-11.71-2.15-12.48-3.23-0.32-.44,5.25-0.74,5.54-1s3.29-.23,4.56-0.07L461,81.47c-2.16-4.81-2.89-8.09-1.55-7.9s4.3,4.09,7.08,9.42l13.22,4.93c-2.05-7.64-2.77-13-1.44-12.63s4.1,6.75,6.39,15.06l10.8,6.73c-1.11-9.3-1.19-15.86,0-15.29s3.08,8.54,4.23,18.58l1,0.83Z"/><path class="cls-3" d="M493,101.47l-6.83-4.69c0.35,1.73.64,3.38,0.87,4.89l-3.37.12c-0.73-2.35-1.5-5-2.26-7.76L469,88.46c2.74,7.1,3.82,12.32,2.54,11.7s-4.81-6.68-8.12-13.6L448.76,83c-2.07-.36-11.71-2.15-12.48-3.23-0.32-.44,5.25-0.74,5.54-1s3.29-.23,4.56-0.07L461,81.47c-2.16-4.81-2.89-8.09-1.55-7.9s4.3,4.09,7.08,9.42l13.22,4.93c-2.05-7.64-2.77-13-1.44-12.63s4.1,6.75,6.39,15.06l10.8,6.73c-1.11-9.3-1.19-15.86,0-15.29s3.08,8.54,4.23,18.58l1,0.83Z"/><path class="cls-1" d="M361.26,100H359c-0.92-5-1.31-8.61-.89-8.89S359.84,94.49,361.26,100Z"/><path class="cls-1" d="M386.33,92c0.1,0.62-1.71,2.94-1.8,3.49A3.24,3.24,0,0,1,383,97.25l-4.9,2.75H367c-1.57-7.39-2.38-13.3-1.84-13.67s2.31,5.16,4.07,12.67l5.25-3c-1.49-6.86-2.23-12.55-1.67-12.93s2.27,4.78,3.86,11.7l5.39-3C382.83,91.37,386.08,90.47,386.33,92Z"/></svg>