<svg id="Deformed_dendrites" data-name="Deformed dendrites" xmlns="http://www.w3.org/2000/svg" viewBox="0 0 300 100"><defs><style>.cls-1,.cls-2{fill:#fff;}.cls-1,.cls-3{stroke:#1d1d1b;stroke-miterlimit:10;stroke-width:0.5px;}.cls-3,.cls-4{fill:none;}</style></defs><title>M_DeformedDendrites</title><path class="cls-1" d="M180.45,95.5c-0.65,1-7.31,2.66-15.47,4l-0.38.53H146.67c1.74-1,7.91-2.48,15.23-3.64l5.23-7.22c1-1.32,4.72-5.29,6.26-5.38s0.26,3.72-.69,5l-4.87,6.73C175.64,94.57,181.1,94.53,180.45,95.5Z"/><path class="cls-1" d="M71.22,97.91c0.09,0.36.23,1.15,0.35,2.09H68l-1.81-7.18C63.38,96.08,61.24,98,61,97.24s1.6-3.95,4.34-7.75L63.22,81c-3.7,4.5-6.62,7.31-6.86,6.51s2.33-5.05,6-10l-2-8.12c-3.87,4.77-7,7.8-7.24,7S55.59,71,59.44,65.95l-1.6-6.35c-0.29-1.16-.65-5.13.16-6s2.5,1.67,2.79,2.83l1.49,5.91c3.83-4.69,6.9-7.67,7.14-6.85s-2.47,5.26-6.27,10.31l2,8.1c4-5,7.27-8.16,7.53-7.31s-2.65,5.55-6.65,10.8l2.11,8.4c3.67-4.59,6.75-7.53,7-6.65s-2.45,5.37-6.14,10.16Z"/><path class="cls-1" d="M66.78,31.28l-1.23,6.06c-0.17.81-1.61,3.86-2.92,3.07-0.54-.33-1.1-3.22-1.46-3.64a3.2,3.2,0,0,1-.36-2.31L62,28.63c-4.62-2.67-7.88-4.93-7.81-5.49s3.53,0.78,8.29,3.15l1.22-6c-6.16-3.45-10.71-6.43-10.64-7s4.84,1.38,11.13,4.63l1.16-5.71C58.87,8.59,54,5.41,54.08,4.78s5.17,1.53,11.77,5l0.91-4.46c0.17-.81,1.46-2.74,2.77-1.94s2.13,4,2,4.82l-0.85,4.16C77,15.88,81.83,19,81.75,19.64s-5.08-1.49-11.61-4.88L69,20.45c6.71,3.69,11.82,7,11.74,7.67s-5.41-1.63-12.24-5.21l-1.2,5.9c6.16,3.37,10.95,6.53,10.87,7.2S73.05,34.6,66.78,31.28Z"/><path class="cls-1" d="M199.21,63.64l-1.32,6.83c-0.18.92-1.64,4.81-2.9,4.71-0.52,0-1-2.67-1.35-2.91s-0.41-1.61-.3-2.15l1.26-6.56c-4.44-.2-7.57-0.73-7.5-1.33s3.42-1.13,8-1.31l1.3-6.76c-5.92-.15-10.29-0.72-10.21-1.38s4.68-1.22,10.74-1.35L198.18,45c-6.23-.13-10.9-0.71-10.82-1.4s5-1.26,11.35-1.35l1-5c0.18-.92,1.47-3.58,2.73-3.48s2,2.92,1.82,3.84l-0.9,4.69c6.15,0.14,10.76.71,10.67,1.4S209.08,44.9,202.8,45l-1.24,6.43c6.46,0.11,11.36.7,11.28,1.41S207.6,54.12,201,54.19l-1.28,6.66c5.93,0.07,10.53.68,10.44,1.41S205.25,63.6,199.21,63.64Z"/><path class="cls-1" d="M34.37,100l-2.19-1.66c0.1,0.57.2,1.13,0.29,1.66H30.06c-0.31-1.24-.61-2.58-0.9-4l-7.28-5.53c1.06,5.65,1.29,9.66.5,9.1S20,94,18.84,88.2l-7.47-5.67c-1-.76-5.38-4.68-5.52-5.82,0-.47,2.63.76,2.82,0.59s1.63,0.65,2.22,1.1l7.16,5.44c-0.63-4.13-.67-6.8,0-6.33s1.85,4,2.91,8.52l7.38,5.61c-1-5.59-1.21-9.42-.49-8.91S30,88,31.3,93.9l7,5.35c-1.06-5.9-1.33-10-.59-9.49s2,4.79,3.26,10.24H34.37Z"/><path class="cls-1" d="M179.14,14.27l15.11-3.4c2-.46,11.62-1.75,13.18-0.56,0.65,0.49-3.78,2.69-3.77,3.16,0,0.67-2.56,1.45-3.76,1.72l-14.5,3.27c5.8,4.11,9.15,7.27,7.87,7.61s-7-2.31-13.7-6.3l-14.93,3.37c8,5.41,13,9.7,11.56,10.07s-8.91-3.37-17.59-8.71l-14.25,3.2c8.44,5.66,13.83,10.24,12.38,10.63s-9.42-3.63-18.46-9.26l-11.13,2.51c-2,.46-9,1.08-10.57-0.11s2.89-3.75,4.91-4.2l10.37-2.34c-8.32-5.6-13.61-10.11-12.16-10.49S129,18,137.93,23.55l14.21-3.2c-8.8-5.85-14.49-10.65-13-11s9.8,3.83,19.11,9.66L173,15.65c-8.13-5.36-13.36-9.88-11.81-10.29S170.66,8.89,179.14,14.27Z"/><path class="cls-2" d="M118.47,69.81l-10.95,2.36c-1.57.25-8.6,0.52-8.6-.57,0-.44,4.48-1.93,4.84-2.31,0.52-.56,2.58-1.1,3.45-1.28l9.91-2.66c-0.46-3.94.08-6.73,0.83-7.11s1.63,1.88,2.81,5.82l8.44-3.92c-1.7-5.79-1.78-10-1.17-10.54s1.91,2.86,4.21,8.72l6.36-4.85c-2.88-6.76-3.88-11.82-3.43-12.53s2.4,3.37,5.79,10.22l3.77-4.59c0.61-.89,2.88-2.55,3.89-0.79s0.25,6.19-.45,7l-3.93,4c5.39,8.39,9.82,15.66,9.09,16.17s-6.28-5.9-11.69-14l-6.89,4.48c4.6,8,8.41,15.15,7.47,15.56s-6.23-6-10.79-13.87l-8.88,3.49c3.15,6.63,5.58,12.62,4.41,12.91S121.53,76.29,118.47,69.81Z"/><path class="cls-3" d="M118.47,69.81l-10.95,2.36c-1.57.25-8.6,0.52-8.6-.57,0-.44,4.48-1.93,4.84-2.31,0.52-.56,2.58-1.1,3.45-1.28l9.91-2.66c-0.46-3.94.08-6.73,0.83-7.11s1.63,1.88,2.81,5.82l8.44-3.92c-1.7-5.79-1.78-10-1.17-10.54s1.91,2.86,4.21,8.72l6.36-4.85c-2.88-6.76-3.88-11.82-3.43-12.53s2.4,3.37,5.79,10.22l3.77-4.59c0.61-.89,2.88-2.55,3.89-0.79s0.25,6.19-.45,7l-3.93,4c5.39,8.39,9.82,15.66,9.09,16.17s-6.28-5.9-11.69-14l-6.89,4.48c4.6,8,8.41,15.15,7.47,15.56s-6.23-6-10.79-13.87l-8.88,3.49c3.15,6.63,5.58,12.62,4.41,12.91S121.53,76.29,118.47,69.81Z"/><path class="cls-1" d="M300.13,66.2L288,68.81c6.56,5.75,10.64,10.25,9.42,10.56s-7.45-3.73-14.62-9.43l-12.29,2.64c7,6,11.35,10.83,10.1,11.16s-7.88-4-15.34-10l-9.6,2.07c-1.75.38-7.72,0.73-9-.53s2.63-3.65,4.37-4L260,69.3c-6.85-6-11.17-10.68-9.92-11s7.77,3.94,15.16,9.87l12.25-2.64c-7.25-6.23-11.89-11.26-10.6-11.6s8.19,4.23,15.88,10.46l12.7-2.74c-6.71-5.7-11-10.45-9.63-10.8s7.51,3.64,14.26,9.1V66.2Z"/><rect class="cls-4" x="0.13" width="300" height="100"/><path class="cls-1" d="M31,34.14l-4.58-1.71c1.18,4.81,1.62,8.31,1,8.09s-2.21-4.13-3.65-9.09l-6.27-2.34c1.27,5,1.76,8.79,1.08,8.57s-2.32-4.4-3.79-9.58l-6.5-2.43c1.19,4.65,1.6,8.14.9,7.91s-2.31-4.17-3.62-8.93l-5.42-2V19.34L4.65,21c-0.76-3.45-.94-5.8-0.36-5.61S6.09,18.35,7.22,22l6.6,2.46c-1.11-4.63-1.52-7.94-.88-7.74s2.14,4,3.55,8.74l6.29,2.35c-1.21-4.88-1.66-8.43-1-8.22s2.25,4.2,3.69,9.22l4.92,1.83C31.28,31,34,32.55,34.22,33.52S31.92,34.47,31,34.14Z"/><path class="cls-1" d="M264.82,23.86l5.39-3c0.72-.41,4-1.31,4.23.2,0.1,0.62-1.71,2.94-1.8,3.49a3.2,3.2,0,0,1-1.51,1.78l-5.17,2.91c1,5.24,1.43,9.19,1,9.5s-1.72-3.18-3-8.33l-5.33,3c1.42,6.91,2.14,12.31,1.63,12.66s-2.12-4.57-3.78-11.44l-5.08,2.85c1.52,7.25,2.3,13,1.77,13.37s-2.23-4.91-3.94-12.15l-4,2.24c-0.72.41-3,.69-3.28-0.82s1.64-4.24,2.36-4.64l3.7-2.08c-1.49-7.17-2.26-12.84-1.73-13.19s2.2,4.82,3.9,12l5.07-2.85c-1.6-7.49-2.43-13.53-1.89-13.9s2.31,5.16,4.07,12.67l5.25-3c-1.49-6.86-2.23-12.55-1.66-12.93S263.22,16.94,264.82,23.86Z"/></svg>