<svg id="GrainSmall" xmlns="http://www.w3.org/2000/svg" viewBox="0 0 500 50"><defs><style>.cls-1,.cls-2{fill:none;}.cls-1{stroke:#1d1d1b;stroke-miterlimit:10;}</style></defs><title>CP_GrainSmall</title><polyline class="cls-1" points="92.86 50.13 59.38 35 41.17 50.13"/><line class="cls-1" x1="201.59" y1="50.13" x2="175.38" y2="38.67"/><polyline class="cls-1" points="0.38 38.67 9.89 43.47 23.1 50.13"/><polyline class="cls-1" points="98.74 50.13 97.92 29 79.88 21.75 59.38 35 51.75 33.92 41.6 32.48 25.69 30.22 9.89 43.47"/><polyline class="cls-1" points="4.88 0 20.32 9 25.68 30.22"/><polyline class="cls-1" points="20.32 9 43.38 12.25 51.75 33.92"/><polyline class="cls-1" points="43.38 12.25 63.38 9 79.88 21.75"/><line class="cls-1" x1="63.38" y1="9" x2="56.89"/><polyline class="cls-1" points="73.52 16.83 95.13 7.5 97.91 0"/><polyline class="cls-1" points="97.91 29 128.29 20.33 117.38 7 95.13 7.5"/><line class="cls-1" x1="117.38" y1="7" x2="122.05"/><polyline class="cls-1" points="128.3 20.33 155.33 42 152.42 50.13"/><polyline class="cls-1" points="128.3 0 147.71 7 172.38 18 175.38 38.67 155.33 42"/><polyline class="cls-1" points="230.54 50.13 232.88 38.67 214.56 11 198.08 8.42 172.38 18"/><rect class="cls-2" x="298.14" y="0.56" width="201.86" height="49.57"/><polyline class="cls-1" points="500 32.84 497.78 30.62 500 28.34"/><polyline class="cls-1" points="453.64 50.13 447.04 42.85 457.47 27.62 497.78 30.62"/><polyline class="cls-1" points="457.46 27.62 448.12 12.39 448.12 0"/><line class="cls-1" x1="480.12" y1="29" x2="464.41"/><polyline class="cls-1" points="447.04 42.85 425.67 27.62 416.3 50.13"/><polyline class="cls-1" points="410.34 16.7 383.78 25.43 369.6 35.12 374.72 50.13"/><polyline class="cls-1" points="425.67 27.62 414.59 19.72 414.58 19.72 410.34 16.7 387.71 0.56 383.78 25.43"/><polyline class="cls-1" points="348.76 0.56 352.35 21.27 369.6 35.12"/><polyline class="cls-1" points="342.35 50.13 333.9 35.12 352.35 21.27"/><polyline class="cls-1" points="311.69 0.56 308.79 19.72 333.9 35.12"/><line class="cls-1" x1="261.31" y1="50.13" x2="259.66" y2="37.54"/><polyline class="cls-1" points="280.67 50.13 298.14 44.81 304.96 28.75 308.79 19.72"/><line class="cls-1" x1="198.08" y1="8.42" x2="198.08" y2="0.56"/><line class="cls-1" x1="214.56" y1="11" x2="228.88" y2="0.56"/><path class="cls-1" d="M271.88,0l2.64,17.84-14.86,19.7S236.38,39,232.88,38.67"/><polyline class="cls-1" points="304.96 28.75 298.14 28.92 294.88 29 274.52 17.84"/><polyline class="cls-1" points="305.28 50.13 298.14 44.81 297.45 50.13"/><line class="cls-1" x1="448.12" y1="12.39" x2="414.58" y2="19.72"/></svg>