<svg id="GrainSmall" xmlns="http://www.w3.org/2000/svg" viewBox="0 0 650 100"><defs><style>.cls-1,.cls-2{fill:none;}.cls-2{stroke:#1d1d1b;stroke-miterlimit:10;}</style></defs><title>CP_GrainSmall</title><path class="cls-1" d="M309.9,56.72v43.89H0V56.72H309.9Z"/><polyline class="cls-2" points="99.54 100.61 106.05 92.7 105.89 92.42 97.54 77.7 105.02 56.72 98.46 53.75 59 35.91 33.96 56.72 45.8 70.32 36.24 87.86 31.68 97.55"/><polyline class="cls-2" points="0 93.16 9.91 94.53 31.68 97.55 32.7 100.61"/><polyline class="cls-2" points="45.8 70.31 69.26 87.85 97.53 77.7"/><line class="cls-2" x1="71.45" y1="100.61" x2="69.26" y2="87.86"/><path class="cls-2" d="M105,56.71h45L159.92,77l-15,13.85-39,1.56"/><line class="cls-2" x1="153.73" y1="100.61" x2="144.88" y2="90.86"/><polyline class="cls-2" points="175 39.58 214.18 56.72 210.08 80.35 195.73 91.77 159.91 77"/><line class="cls-2" x1="195.73" y1="91.78" x2="192.05" y2="100.61"/><polyline class="cls-2" points="233.07 100.61 231.95 97.32 210.08 80.35"/><polyline class="cls-2" points="214.18 56.72 261.67 56.72 264.4 68.75 259.79 90.85 231.95 97.31"/><polyline class="cls-2" points="259.79 90.86 264.92 99.96 265.28 100.61"/><polyline class="cls-2" points="264.92 99.96 297.76 95.67 303.22 100.61"/><line class="cls-2" x1="361.19" y1="100.61" x2="359.25" y2="95.67"/><path class="cls-2" d="M9.91,94.53c0.09-2,4.75-22.29,4.75-22.29L34,56.71,0,39.58"/><line class="cls-2" x1="14.67" y1="72.24" y2="63.24"/><polyline class="cls-2" points="9.51 44.38 25.31 31.13 41.22 33.39 59 35.91 79.5 22.66 97.53 29.91 98.46 53.75"/><polyline class="cls-2" points="4.5 0.91 19.94 9.91 25.31 31.13"/><polyline class="cls-2" points="19.94 9.91 43 13.16 51.37 34.83"/><polyline class="cls-2" points="43 13.16 63 9.91 79.5 22.66"/><line class="cls-2" x1="63" y1="9.91" x2="56.51" y2="0.91"/><polyline class="cls-2" points="73.14 17.74 94.75 8.41 97.53 0.91"/><polyline class="cls-2" points="97.53 29.91 127.92 21.24 117 7.91 94.75 8.41"/><line class="cls-2" x1="117" y1="7.91" x2="121.67" y2="0.91"/><polyline class="cls-2" points="150.01 56.72 154.95 42.91 127.92 21.24"/><polyline class="cls-2" points="154.95 42.91 175 39.58 172 18.91 147.33 7.91 127.92 0.91"/><polyline class="cls-2" points="172 18.91 197.7 9.33 214.18 11.91 232.5 39.58 229 56.72"/><rect class="cls-1" x="297.76" y="1.47" width="309.9" height="94.2"/><polyline class="cls-2" points="512.43 46.53 501.61 59.69 501.77 59.97 510.13 74.69 502.64 95.67 513.56 100.61 513.57 100.61"/><polyline class="cls-2" points="567.75 100.61 573.7 95.67 561.86 82.07 571.42 64.53 575.98 54.84"/><polyline class="cls-2" points="602.01 100.41 608.75 97.41 614.5 73.3 607.66 59.23 575.98 54.84 567.78 30.15 582.36 19.53 597.93 18.4 607.66 17.69 611.51 17.16 632.83 14.25 632.83 5.92 632.83 5.91 616.83 0.91"/><polyline class="cls-2" points="582.36 19.53 563.45 8.22 561.86 1.47"/><polyline class="cls-2" points="561.86 82.07 538.4 64.53 510.13 74.68"/><polyline class="cls-2" points="538.4 64.53 534.52 41.91 544.55 28.53 567.78 30.14"/><polyline class="cls-2" points="563.45 8.22 544.55 28.53 515.16 13.3 502.64 1.47"/><polyline class="cls-2" points="534.52 41.91 512.43 46.53 497.4 31.53 515.16 13.3"/><path class="cls-2" d="M502.64,95.66h-45l-9.91-20.29,15-13.85,39-1.56"/><polyline class="cls-2" points="497.4 31.53 457.08 28.53 446.66 43.76 462.78 61.53"/><polyline class="cls-2" points="457.08 28.53 447.75 13.3 447.75 0.91"/><line class="cls-2" x1="479.75" y1="29.91" x2="464.03" y2="0.91"/><polyline class="cls-2" points="393.48 95.67 397.58 72.03 411.93 60.61 447.75 75.38"/><polyline class="cls-2" points="411.93 60.61 425.29 28.53 446.66 43.76"/><polyline class="cls-2" points="397.58 72.03 375.71 55.07 369.22 36.03 383.4 26.34 409.96 17.61"/><polyline class="cls-2" points="375.71 55.07 347.87 61.53 343.26 83.63 345.99 95.67 393.48 95.67 409.96 100.57"/><polyline class="cls-2" points="383.4 26.34 387.33 1.47 425.29 28.53"/><polyline class="cls-2" points="369.22 36.03 351.97 22.18 348.38 1.47"/><polyline class="cls-2" points="351.97 22.18 333.52 36.03 347.87 61.53"/><polyline class="cls-2" points="333.52 36.03 308.41 20.63 311.31 1.47"/><polyline class="cls-2" points="308.41 20.63 297.76 45.72 261.67 56.72 259.28 38.45"/><line class="cls-2" x1="197.7" y1="9.33" x2="197.7" y2="1.47"/><line class="cls-2" x1="214.18" y1="11.91" x2="228.5" y2="1.47"/><path class="cls-2" d="M232.5,39.58c3.5,0.33,26.78-1.12,26.78-1.12l14.86-19.7L271.5,0.91"/><polyline class="cls-2" points="274.14 18.75 294.5 29.91 304.58 29.66"/><polyline class="cls-2" points="297.76 95.67 308.41 77.82 295.5 63.24 264.4 68.75"/><polyline class="cls-2" points="295.5 63.24 297.76 45.72 323 64.53 343.26 55.13"/><polyline class="cls-2" points="343.26 83.63 308.41 77.82 323 64.53"/><line class="cls-2" x1="345.99" y1="95.67" x2="329.77" y2="100.61"/><line class="cls-2" x1="457.65" y1="95.67" x2="450.45" y2="100.61"/><line class="cls-2" x1="473.38" y1="100.61" x2="472.03" y2="95.67"/><line class="cls-2" x1="447.75" y1="13.3" x2="414.2" y2="20.63"/><polyline class="cls-2" points="573.7 95.67 576.75 96.33 595.61 100.41"/><polyline class="cls-2" points="607.66 59.22 591.14 36.03 572.11 41.91"/><line class="cls-2" x1="597.93" y1="18.39" x2="591.14" y2="36.03"/><line class="cls-2" x1="603.25" y1="17.61" x2="612.67" y2="0.91"/><polyline class="cls-2" points="601.37 50.39 620.33 38.91 619.33 24.24 611.51 17.16"/><polyline class="cls-2" points="620.33 38.91 634.67 47.63 634.17 62.66 623 68.58"/><polyline class="cls-2" points="631.38 29.35 634.67 47.63 648 43.24 650 40.74"/><polyline class="cls-2" points="650 21.41 647.38 17.61 650 15.41"/><line class="cls-2" x1="614.5" y1="73.3" x2="623" y2="68.58"/><polyline class="cls-2" points="629.09 101 626.86 100.61 608.75 97.41"/><polyline class="cls-2" points="640.77 101.17 647.38 83.91 634.17 62.66"/><line class="cls-2" x1="647.38" y1="83.91" x2="650" y2="83.91"/><line class="cls-2" x1="648" y1="43.24" x2="650" y2="46.53"/><line class="cls-2" x1="632.83" y1="5.91" x2="637.92" y2="0.91"/><polyline class="cls-2" points="632.83 14.24 637.92 18.2 631.38 29.35 619.33 24.24"/><line class="cls-2" x1="647.38" y1="17.61" x2="637.92" y2="18.2"/></svg>