<svg id="GrainSmall" xmlns="http://www.w3.org/2000/svg" viewBox="0 0 650 150"><defs><style>.cls-1,.cls-2{fill:none;}.cls-1{stroke:#1d1d1b;stroke-miterlimit:10;}</style></defs><title>CP_GrainSmall</title><polyline class="cls-1" points="31.68 96.63 36.24 86.94 45.8 69.4 33.96 55.8 59 35 105.03 55.8 97.53 76.79 106.05 91.79 95.23 104.94"/><polyline class="cls-1" points="0 133.78 25.31 131.94 39.88 121.32 31.68 96.63 0 92.25"/><polyline class="cls-1" points="25.31 131.94 44.21 143.25 45.8 150"/><polyline class="cls-1" points="45.8 69.4 69.26 86.94 97.53 76.79"/><polyline class="cls-1" points="69.26 86.94 73.14 109.56 63.11 122.94 39.88 121.32"/><polyline class="cls-1" points="44.21 143.25 63.11 122.94 92.5 138.17 105.03 150"/><polyline class="cls-1" points="73.14 109.56 95.23 104.94 110.26 119.94 92.5 138.17"/><path class="cls-1" d="M105,55.8h45l9.91,20.29-15,13.85-39,1.56"/><polyline class="cls-1" points="110.26 119.94 150.58 122.94 161 107.71 144.88 89.94"/><polyline class="cls-1" points="150.58 122.94 159.91 138.17 159.91 150"/><line class="cls-1" x1="127.92" y1="121.56" x2="143.35" y2="150"/><polyline class="cls-1" points="175 38.67 214.18 55.8 210.08 79.44 195.73 90.86 159.92 76.09"/><polyline class="cls-1" points="195.73 90.86 186.66 112.66 183.69 119.79 182.38 122.94 181.41 122.25 179.21 120.68 161 107.71"/><polyline class="cls-1" points="210.08 79.44 231.95 96.4 238.44 115.44 224.26 125.13 207.25 130.72 207.24 130.72 201.2 132.71 197.7 133.86"/><polyline class="cls-1" points="214.18 55.8 261.67 55.8 264.4 67.84 259.79 89.94 231.95 96.4"/><polyline class="cls-1" points="224.26 125.13 220.33 150 206.4 140.07 202.35 137.18 199.32 135.02 197.7 133.86 196.21 132.8 192.69 130.3 188.27 127.14 185.55 125.2 182.38 122.94"/><polyline class="cls-1" points="238.44 115.44 255.69 129.28 259.28 150"/><polyline class="cls-1" points="255.69 129.28 274.14 115.44 259.79 89.94"/><polyline class="cls-1" points="274.14 115.44 299.25 130.84 296.35 150"/><polyline class="cls-1" points="359.25 94.75 368.37 118 342.75 140.97 299.25 130.84 309.9 105.75 297.76 94.75 264.92 99.05"/><path class="cls-1" d="M9.91,93.62c0.09-2,4.75-22.29,4.75-22.29L34,55.8,0,38.67"/><line class="cls-1" x1="14.67" y1="71.33" y2="62.33"/><polyline class="cls-1" points="9.51 43.47 25.31 30.22 41.22 32.48 59 35 79.5 21.75 97.53 29 98.46 52.84"/><polyline class="cls-1" points="4.5 0 19.94 9 25.31 30.22"/><polyline class="cls-1" points="19.94 9 43 12.25 51.37 33.92"/><polyline class="cls-1" points="43 12.25 63 9 79.5 21.75"/><line class="cls-1" x1="63" y1="9" x2="56.51"/><polyline class="cls-1" points="73.14 16.83 94.75 7.5 97.53 0"/><polyline class="cls-1" points="97.53 29 127.92 20.33 117 7 94.75 7.5"/><line class="cls-1" x1="117" y1="7" x2="121.67"/><polyline class="cls-1" points="150.01 55.8 154.95 42 127.92 20.33"/><polyline class="cls-1" points="154.95 42 175 38.67 172 18 147.33 7 127.92 0"/><polyline class="cls-1" points="172 18 197.7 8.42 214.18 11 232.5 38.67 229 55.8"/><rect class="cls-2" x="297.76" y="0.56" width="309.9" height="94.2"/><polyline class="cls-1" points="575.98 53.93 571.42 63.62 561.86 81.16 573.7 94.75 548.66 115.56 502.64 94.75 510.13 73.77 501.61 58.77 512.43 45.62"/><polyline class="cls-1" points="600 100.25 608.75 96.5 614.5 72.39 607.66 58.31 575.98 53.93 567.78 29.23 582.36 18.62 607.66 16.77 632.83 13.33 632.83 5 616.83 0"/><polyline class="cls-1" points="582.36 18.62 563.45 7.31 561.86 0.56"/><polyline class="cls-1" points="561.86 81.16 538.4 63.62 510.13 73.77"/><polyline class="cls-1" points="538.4 63.62 534.52 41 544.55 27.62 567.78 29.23"/><polyline class="cls-1" points="563.45 7.31 544.55 27.62 515.16 12.39 502.64 0.56"/><polyline class="cls-1" points="534.52 41 512.43 45.62 497.4 30.62 515.16 12.39"/><path class="cls-1" d="M502.64,94.75h-45l-9.91-20.29,15-13.85,39-1.56"/><polyline class="cls-1" points="497.4 30.62 457.08 27.62 446.66 42.85 462.78 60.62"/><polyline class="cls-1" points="457.08 27.62 447.75 12.39 447.75 0"/><line class="cls-1" x1="479.75" y1="29" x2="464.03"/><polyline class="cls-1" points="417 129.28 440 126.67 432.66 111.89 393.48 94.75 397.58 71.12 411.93 59.7 447.75 74.46"/><polyline class="cls-1" points="411.93 59.7 425.29 27.62 446.66 42.85"/><polyline class="cls-1" points="397.58 71.12 375.71 54.16 369.22 35.12 383.4 25.43 409.96 16.7"/><polyline class="cls-1" points="393.48 94.75 345.99 94.75 343.26 82.71 347.87 60.62 375.71 54.16"/><polyline class="cls-1" points="383.4 25.43 387.33 0.56 425.29 27.62"/><polyline class="cls-1" points="369.22 35.12 351.97 21.27 348.38 0.56"/><polyline class="cls-1" points="351.97 21.27 333.52 35.12 347.87 60.62"/><polyline class="cls-1" points="333.52 35.12 308.41 19.71 311.31 0.56"/><polyline class="cls-1" points="308.41 19.71 297.76 44.81 261.67 55.8 259.28 37.54"/><line class="cls-1" x1="197.7" y1="8.42" x2="197.7" y2="0.56"/><line class="cls-1" x1="214.18" y1="11" x2="228.5" y2="0.56"/><path class="cls-1" d="M232.5,38.67c3.5,0.33,26.78-1.12,26.78-1.12l14.86-19.7L271.5,0"/><polyline class="cls-1" points="274.14 17.84 294.5 29 304.58 28.75"/><polyline class="cls-1" points="297.76 94.75 308.41 76.91 295.5 62.33 264.4 67.84"/><polyline class="cls-1" points="295.5 62.33 297.76 44.81 323 63.62 344.23 54.16"/><polyline class="cls-1" points="343.26 82.71 308.41 76.91 323 63.62"/><line class="cls-1" x1="309.9" y1="105.75" x2="345.99" y2="94.75"/><line class="cls-1" x1="342.75" y1="140.97" x2="348.38" y2="150"/><polyline class="cls-1" points="368.37 118 409.96 118 418.61 105.75"/><polyline class="cls-1" points="409.96 118 417 129.28 411.93 150"/><line class="cls-1" x1="457.65" y1="94.75" x2="432.66" y2="111.89"/><polyline class="cls-1" points="440 126.67 464.32 133.86 479.75 122.94 472.03 94.75"/><polyline class="cls-1" points="513.56 99.69 504 122.94 479.75 122.94"/><line class="cls-1" x1="464.32" y1="133.86" x2="469.33" y2="150"/><line class="cls-1" x1="504" y1="122.94" x2="506" y2="150"/><line class="cls-1" x1="447.75" y1="12.39" x2="414.2" y2="19.72"/><polyline class="cls-1" points="505 136.47 519.25 137.5 540.75 130.75 548.66 115.56 578.75 126.53 602.25 120.35"/><line class="cls-1" x1="540.75" y1="130.75" x2="557.75" y2="150"/><polyline class="cls-1" points="573.7 94.75 600 100.25 603.25 129.28 590.5 146.75 578 150"/><line class="cls-1" x1="578.75" y1="126.53" x2="583.47" y2="148.58"/><polyline class="cls-1" points="607.66 58.31 591.14 35.12 572.11 41"/><line class="cls-1" x1="597.93" y1="17.48" x2="591.14" y2="35.12"/><line class="cls-1" x1="603.25" y1="16.7" x2="612.67"/><polyline class="cls-1" points="601.37 49.48 620.33 38 619.33 23.33 611.51 16.25"/><polyline class="cls-1" points="620.33 38 634.67 46.72 634.17 61.75 623 67.67"/><polyline class="cls-1" points="631.38 28.44 634.67 46.72 648 42.33 650 39.83"/><polyline class="cls-1" points="650 20.5 647.38 16.7 650 14.5"/><polyline class="cls-1" points="603.25 129.28 631.38 135 637.92 150"/><line class="cls-1" x1="590.5" y1="146.75" x2="595.75" y2="150"/><line class="cls-1" x1="614.5" y1="72.39" x2="623" y2="67.67"/><polyline class="cls-1" points="608.75 96.5 641.29 102.25 641.29 119.5 631.38 135"/><polyline class="cls-1" points="634.17 61.75 647.38 83 641.29 102.25 650 107"/><line class="cls-1" x1="647.38" y1="83" x2="650" y2="83"/><line class="cls-1" x1="648" y1="42.33" x2="650" y2="45.62"/><line class="cls-1" x1="641.29" y1="119.5" x2="650" y2="126.53"/><line class="cls-1" x1="632.83" y1="5" x2="637.92"/><polyline class="cls-1" points="632.83 13.33 637.92 17.29 631.38 28.44 619.33 23.33"/><line class="cls-1" x1="647.38" y1="16.7" x2="637.92" y2="17.29"/></svg>