<svg id="GrainSmall" xmlns="http://www.w3.org/2000/svg" viewBox="0 0 1689.72 497.33"><defs><style>.cls-1,.cls-2{fill:none;}.cls-2{stroke:#1d1d1b;stroke-miterlimit:10;}</style></defs><title>CP_GrainSmall</title><path class="cls-1" d="M150,55.8H0V150H309.9V55.8H150Zm74.25,69.33-17,5.59h0l-6,2-3.5,1.15-1.49-1.06-3.52-2.5-4.42-3.16-2.72-1.94-3.17-2.26,1.31-3.15,3-7.13,9.07-21.8,14.35-11.42L232,96.4l6.49,19Z" transform="translate(0.26 0.48)"/><polyline class="cls-2" points="31.94 97.11 36.5 87.42 46.07 69.88 34.22 56.28 59.26 35.48 105.29 56.28 97.8 77.26 106.31 92.26 95.49 105.42"/><polyline class="cls-2" points="0.26 134.26 25.57 132.42 40.14 121.8 31.94 97.11 0.26 92.72"/><polyline class="cls-2" points="25.57 132.42 44.47 143.72 46.07 150.48"/><polyline class="cls-2" points="46.07 69.88 69.53 87.42 97.8 77.26"/><polyline class="cls-2" points="69.53 87.42 73.4 110.03 63.38 123.42 40.14 121.8"/><polyline class="cls-2" points="44.47 143.72 63.38 123.42 92.76 138.65 105.29 150.48"/><polyline class="cls-2" points="73.4 110.03 95.49 105.42 110.52 120.42 92.76 138.65"/><path class="cls-2" d="M105,55.8h45l9.91,20.29-15,13.85-39,1.56" transform="translate(0.26 0.48)"/><polyline class="cls-2" points="110.52 120.42 150.84 123.42 161.26 108.19 145.14 90.42"/><polyline class="cls-2" points="150.84 123.42 160.18 138.65 160.18 150.48"/><line class="cls-2" x1="128.18" y1="122.03" x2="143.61" y2="150.48"/><polyline class="cls-2" points="175.26 39.15 214.44 56.28 210.34 79.92 195.99 91.34 160.18 76.57"/><polyline class="cls-2" points="195.99 91.34 186.92 113.14 183.95 120.27 182.64 123.42 181.67 122.73 179.47 121.16 161.26 108.19"/><polyline class="cls-2" points="210.34 79.92 232.21 96.88 238.7 115.92 224.52 125.61 207.51 131.2 207.5 131.2 201.46 133.19 197.96 134.34"/><polyline class="cls-2" points="214.44 56.28 261.93 56.28 264.67 68.32 260.05 90.42 232.21 96.88"/><polyline class="cls-2" points="224.52 125.61 220.59 150.48 206.66 140.55 202.61 137.66 199.58 135.5 197.96 134.34 196.47 133.28 192.95 130.78 188.53 127.62 185.81 125.68 182.64 123.42"/><polyline class="cls-2" points="238.7 115.92 255.95 129.76 259.54 150.48"/><polyline class="cls-2" points="255.95 129.76 274.4 115.92 260.05 90.42"/><polyline class="cls-2" points="274.4 115.92 299.51 131.32 296.61 150.48"/><polyline class="cls-2" points="359.51 95.23 368.63 118.48 343.01 141.45 299.51 131.32 310.16 106.22 298.02 95.23 265.18 99.52"/><path class="cls-2" d="M9.91,93.62c0.09-2,4.75-22.29,4.75-22.29L34,55.8,0,38.67" transform="translate(0.26 0.48)"/><line class="cls-2" x1="14.93" y1="71.81" x2="0.26" y2="62.81"/><polyline class="cls-2" points="9.77 43.94 25.57 30.7 41.48 32.96 59.26 35.48 79.76 22.23 97.8 29.48 98.72 53.31"/><polyline class="cls-2" points="4.76 0.48 20.2 9.48 25.57 30.7"/><polyline class="cls-2" points="20.2 9.48 43.26 12.73 51.63 34.4"/><polyline class="cls-2" points="43.26 12.73 63.26 9.48 79.76 22.23"/><line class="cls-2" x1="63.26" y1="9.48" x2="56.77" y2="0.48"/><polyline class="cls-2" points="73.4 17.31 95.01 7.98 97.8 0.48"/><polyline class="cls-2" points="97.8 29.48 128.18 20.81 117.26 7.48 95.01 7.98"/><line class="cls-2" x1="117.26" y1="7.48" x2="121.93" y2="0.48"/><polyline class="cls-2" points="150.27 56.28 155.21 42.48 128.18 20.81"/><polyline class="cls-2" points="155.21 42.48 175.26 39.14 172.26 18.48 147.59 7.48 128.18 0.48"/><polyline class="cls-2" points="172.26 18.48 197.96 8.89 214.44 11.48 232.76 39.14 229.26 56.28"/><rect class="cls-1" x="298.02" y="1.04" width="309.9" height="94.2"/><polyline class="cls-2" points="576.24 54.4 571.68 64.09 562.12 81.63 573.96 95.23 548.92 116.03 502.9 95.23 510.39 74.25 501.87 59.25 512.69 46.09"/><polyline class="cls-2" points="600.26 100.73 609.01 96.98 614.76 72.86 607.92 58.79 576.24 54.4 568.04 29.71 582.62 19.1 607.92 17.25 633.1 13.81 633.1 5.48 617.1 0.48"/><polyline class="cls-2" points="582.62 19.1 563.71 7.79 562.12 1.03"/><polyline class="cls-2" points="562.12 81.63 538.66 64.09 510.39 74.25"/><polyline class="cls-2" points="538.66 64.09 534.79 41.48 544.81 28.1 568.04 29.71"/><polyline class="cls-2" points="563.71 7.79 544.81 28.1 515.43 12.87 502.9 1.03"/><polyline class="cls-2" points="534.79 41.48 512.69 46.09 497.66 31.1 515.43 12.87"/><path class="cls-2" d="M502.64,94.75h-45l-9.91-20.29,15-13.85,39-1.56" transform="translate(0.26 0.48)"/><polyline class="cls-2" points="497.66 31.1 457.35 28.1 446.92 43.33 463.04 61.09"/><polyline class="cls-2" points="457.35 28.1 448.01 12.87 448.01 0.48"/><line class="cls-2" x1="480.01" y1="29.48" x2="464.29" y2="0.48"/><polyline class="cls-2" points="417.26 129.76 440.26 127.14 432.92 112.37 393.74 95.23 397.84 71.6 412.19 60.17 448.01 74.94"/><polyline class="cls-2" points="412.19 60.17 425.55 28.1 446.92 43.33"/><polyline class="cls-2" points="397.84 71.6 375.98 54.63 369.48 35.6 383.66 25.9 410.23 17.17"/><polyline class="cls-2" points="393.74 95.23 346.25 95.23 343.52 83.19 348.13 61.09 375.98 54.63"/><polyline class="cls-2" points="383.66 25.9 387.59 1.03 425.55 28.1"/><polyline class="cls-2" points="369.48 35.6 352.23 21.75 348.64 1.03"/><polyline class="cls-2" points="352.23 21.75 333.78 35.6 348.13 61.09"/><polyline class="cls-2" points="333.78 35.6 308.67 20.19 311.57 1.03"/><polyline class="cls-2" points="308.67 20.19 298.02 45.29 261.93 56.28 259.54 38.02"/><line class="cls-2" x1="197.96" y1="8.89" x2="197.96" y2="1.04"/><line class="cls-2" x1="214.44" y1="11.48" x2="228.76" y2="1.04"/><path class="cls-2" d="M232.5,38.67c3.5,0.33,26.78-1.12,26.78-1.12l14.86-19.7L271.5,0" transform="translate(0.26 0.48)"/><polyline class="cls-2" points="274.4 18.32 294.76 29.48 304.84 29.22"/><polyline class="cls-2" points="298.02 95.23 308.67 77.38 295.76 62.81 264.67 68.32"/><polyline class="cls-2" points="295.76 62.81 298.02 45.29 323.26 64.09 344.5 54.63"/><polyline class="cls-2" points="343.52 83.19 308.67 77.38 323.26 64.09"/><line class="cls-2" x1="310.16" y1="106.22" x2="346.25" y2="95.23"/><line class="cls-2" x1="343.01" y1="141.45" x2="348.64" y2="150.48"/><polyline class="cls-2" points="368.63 118.48 410.23 118.48 418.88 106.22"/><polyline class="cls-2" points="410.23 118.48 417.26 129.76 412.19 150.48"/><line class="cls-2" x1="457.92" y1="95.23" x2="432.92" y2="112.37"/><polyline class="cls-2" points="440.26 127.14 464.58 134.34 480.01 123.42 472.29 95.23"/><polyline class="cls-2" points="513.82 100.17 504.26 123.42 480.01 123.42"/><line class="cls-2" x1="464.58" y1="134.34" x2="469.59" y2="150.48"/><line class="cls-2" x1="504.26" y1="123.42" x2="506.26" y2="150.48"/><line class="cls-2" x1="448.01" y1="12.87" x2="414.46" y2="20.19"/><polyline class="cls-2" points="505.26 136.95 519.51 137.98 541.01 131.23 548.92 116.03 579.01 127.01 602.51 120.83"/><line class="cls-2" x1="541.01" y1="131.23" x2="558.01" y2="150.48"/><polyline class="cls-2" points="573.96 95.23 600.26 100.73 603.51 129.76 590.76 147.23 578.26 150.48"/><line class="cls-2" x1="579.01" y1="127.01" x2="583.73" y2="149.06"/><polyline class="cls-2" points="607.92 58.79 591.4 35.6 572.37 41.48"/><line class="cls-2" x1="598.19" y1="17.96" x2="591.4" y2="35.6"/><line class="cls-2" x1="603.51" y1="17.17" x2="612.93" y2="0.48"/><polyline class="cls-2" points="601.63 49.96 620.6 38.48 619.6 23.81 611.77 16.72"/><path class="cls-2" d="M642,2.38" transform="translate(0.26 0.48)"/><path class="cls-2" d="M611.82,66.88" transform="translate(0.26 0.48)"/><polyline class="cls-2" points="620.6 38.48 634.93 47.19 634.43 62.23 623.26 68.14"/><polyline class="cls-2" points="631.64 28.91 634.93 47.19 648.26 42.81 650.26 40.31"/><polyline class="cls-2" points="650.26 20.98 647.64 17.17 650.26 14.98"/><polyline class="cls-2" points="603.51 129.76 631.64 135.48 638.18 150.48"/><line class="cls-2" x1="590.76" y1="147.23" x2="596.01" y2="150.48"/><line class="cls-2" x1="614.76" y1="72.86" x2="623.26" y2="68.14"/><polyline class="cls-2" points="609.01 96.98 641.55 102.73 641.55 119.98 631.64 135.48"/><polyline class="cls-2" points="634.43 62.23 647.64 83.48 641.55 102.73 650.26 107.48"/><line class="cls-2" x1="647.64" y1="83.48" x2="650.26" y2="83.48"/><line class="cls-2" x1="648.26" y1="42.81" x2="650.26" y2="46.1"/><line class="cls-2" x1="641.55" y1="119.98" x2="650.26" y2="127.01"/><line class="cls-2" x1="633.09" y1="5.48" x2="638.18" y2="0.48"/><polyline class="cls-2" points="633.1 13.81 638.18 17.77 631.64 28.91 619.6 23.81"/><line class="cls-2" x1="647.64" y1="17.17" x2="638.18" y2="17.77"/><rect class="cls-1" x="721.09" y="56.35" width="309.9" height="94.2"/><polyline class="cls-2" points="752.78 97.18 757.33 87.49 766.9 69.95 755.06 56.35 780.1 35.55 826.12 56.35 818.63 77.34 827.14 92.33 816.32 105.49"/><polyline class="cls-2" points="721.1 134.33 746.4 132.49 760.98 121.87 752.78 97.18 721.1 92.8"/><polyline class="cls-2" points="746.4 132.49 765.31 143.8 766.9 150.55"/><polyline class="cls-2" points="766.9 69.95 790.36 87.49 818.63 77.34"/><polyline class="cls-2" points="790.36 87.49 794.23 110.1 784.21 123.49 760.98 121.87"/><polyline class="cls-2" points="765.31 143.8 784.21 123.49 813.59 138.72 826.12 150.55"/><polyline class="cls-2" points="794.23 110.1 816.32 105.49 831.36 120.49 813.59 138.72"/><path class="cls-2" d="M825.86,55.88h45l9.91,20.29L865.72,90l-39,1.56" transform="translate(0.26 0.48)"/><polyline class="cls-2" points="831.36 120.49 871.67 123.49 882.1 108.26 865.98 90.49"/><polyline class="cls-2" points="871.67 123.49 881.01 138.72 881.01 150.55"/><line class="cls-2" x1="849.01" y1="122.1" x2="864.44" y2="150.55"/><polyline class="cls-2" points="896.1 39.22 935.28 56.35 931.18 79.99 916.83 91.41 881.01 76.64"/><polyline class="cls-2" points="916.83 91.41 903.47 123.49 882.1 108.26"/><polyline class="cls-2" points="931.18 79.99 953.04 96.95 959.53 115.99 945.36 125.68 918.79 134.41"/><polyline class="cls-2" points="935.28 56.35 982.76 56.35 985.5 68.39 980.89 90.49 953.04 96.95"/><polyline class="cls-2" points="945.36 125.68 941.43 150.55 903.47 123.49"/><polyline class="cls-2" points="959.53 115.99 976.79 129.83 980.37 150.55"/><polyline class="cls-2" points="976.79 129.83 995.24 115.99 980.89 90.49"/><polyline class="cls-2" points="995.24 115.99 1020.35 131.39 1017.44 150.55"/><polyline class="cls-2" points="1080.34 95.3 1089.46 118.55 1063.84 141.52 1020.35 131.39 1031 106.3 1018.86 95.3 986.01 99.6"/><path class="cls-2" d="M730.75,93.69c0.09-2,4.75-22.29,4.75-22.29l19.3-15.53-34-17.14" transform="translate(0.26 0.48)"/><line class="cls-2" x1="735.76" y1="71.88" x2="721.09" y2="62.88"/><polyline class="cls-2" points="730.61 44.02 746.4 30.77 762.31 33.03 780.1 35.55 800.6 22.3 818.63 29.55 819.56 53.39"/><polyline class="cls-2" points="725.6 0.55 741.04 9.55 746.4 30.77"/><polyline class="cls-2" points="741.04 9.55 764.1 12.8 772.47 34.47"/><polyline class="cls-2" points="764.1 12.8 784.1 9.55 800.6 22.3"/><line class="cls-2" x1="784.09" y1="9.55" x2="777.6" y2="0.55"/><polyline class="cls-2" points="794.23 17.38 815.85 8.05 818.63 0.55"/><polyline class="cls-2" points="818.63 29.55 849.01 20.88 838.1 7.55 815.85 8.05"/><line class="cls-2" x1="838.09" y1="7.55" x2="842.76" y2="0.55"/><polyline class="cls-2" points="871.1 56.35 876.05 42.55 849.01 20.88"/><polyline class="cls-2" points="876.05 42.55 896.1 39.22 893.1 18.55 868.43 7.55 849.01 0.55"/><polyline class="cls-2" points="893.1 18.55 918.79 8.97 935.28 11.55 953.6 39.22 950.1 56.35"/><path class="cls-1" d="M1220,0.63v94.2H1018.59V0.63H1220Z" transform="translate(0.26 0.48)"/><line class="cls-2" x1="1222.87" y1="59.61" x2="1222.86" y2="59.61"/><polyline class="cls-2" points="1220.26 32.94 1218.49 31.17 1220.26 29.35"/><path class="cls-2" d="M1220,94.83h-41.51l-9.91-20.29,15-13.85L1220,59.23" transform="translate(0.26 0.48)"/><polyline class="cls-2" points="1218.49 31.17 1178.18 28.17 1167.76 43.4 1183.87 61.17"/><polyline class="cls-2" points="1178.18 28.17 1168.84 12.94 1168.84 0.55"/><line class="cls-2" x1="1200.84" y1="29.55" x2="1185.13" y2="0.55"/><polyline class="cls-2" points="1138.1 129.83 1161.1 127.22 1153.76 112.44 1114.58 95.3 1118.67 71.67 1133.02 60.24 1168.84 75.01"/><polyline class="cls-2" points="1133.02 60.24 1146.38 28.17 1167.76 43.4"/><polyline class="cls-2" points="1118.67 71.67 1096.81 54.71 1090.32 35.67 1104.5 25.98 1131.06 17.25"/><polyline class="cls-2" points="1114.58 95.3 1067.09 95.3 1064.35 83.26 1068.96 61.17 1096.81 54.71"/><polyline class="cls-2" points="1104.5 25.98 1108.42 1.11 1146.38 28.17"/><polyline class="cls-2" points="1090.32 35.67 1073.07 21.82 1069.48 1.11"/><polyline class="cls-2" points="1073.07 21.82 1054.62 35.67 1068.96 61.17"/><polyline class="cls-2" points="1054.62 35.67 1029.5 20.26 1032.41 1.11"/><polyline class="cls-2" points="1029.5 20.26 1018.86 45.36 982.76 56.35 980.37 38.09"/><line class="cls-2" x1="918.79" y1="8.97" x2="918.79" y2="1.11"/><line class="cls-2" x1="935.28" y1="11.55" x2="949.59" y2="1.11"/><path class="cls-2" d="M953.33,38.74c3.5,0.33,26.78-1.12,26.78-1.12L995,17.91,992.33,0.07" transform="translate(0.26 0.48)"/><polyline class="cls-2" points="995.24 18.39 1015.6 29.55 1025.67 29.3"/><polyline class="cls-2" points="1018.86 95.3 1029.5 77.45 1016.6 62.88 985.5 68.39"/><polyline class="cls-2" points="1016.6 62.88 1018.86 45.36 1044.1 64.17 1064.35 54.76"/><polyline class="cls-2" points="1064.35 83.26 1029.5 77.45 1044.1 64.17"/><line class="cls-2" x1="1031" y1="106.3" x2="1067.09" y2="95.3"/><line class="cls-2" x1="1063.84" y1="141.52" x2="1069.48" y2="150.55"/><polyline class="cls-2" points="1089.46 118.55 1131.06 118.55 1139.71 106.3"/><polyline class="cls-2" points="1131.06 118.55 1138.1 129.83 1133.02 150.55"/><line class="cls-2" x1="1178.75" y1="95.3" x2="1153.76" y2="112.44"/><polyline class="cls-2" points="1161.1 127.22 1185.41 134.41 1200.84 123.49 1193.13 95.3"/><line class="cls-2" x1="1220.26" y1="123.49" x2="1200.84" y2="123.49"/><line class="cls-2" x1="1185.41" y1="134.41" x2="1190.43" y2="150.55"/><line class="cls-2" x1="1168.84" y1="12.94" x2="1135.29" y2="20.26"/><path class="cls-1" d="M35.78,338.77c0,0.25,0,.5,0,0.76H29.37c-0.17-.26-0.34-0.51-0.48-0.76h6.89Z" transform="translate(0.26 0.48)"/><path class="cls-1" d="M309.9,294.88v43.89H0V294.88H309.9Z" transform="translate(0.26 0.48)"/><polyline class="cls-2" points="99.8 339.25 106.31 331.34 106.15 331.06 97.8 316.34 105.28 295.36 98.72 292.39 59.26 274.55 34.22 295.36 46.06 308.96 36.5 326.5 31.94 336.19"/><polyline class="cls-2" points="0.26 331.8 10.17 333.17 31.94 336.19 32.96 339.25"/><polyline class="cls-2" points="46.07 308.95 69.53 326.49 97.8 316.34"/><line class="cls-2" x1="71.71" y1="339.25" x2="69.52" y2="326.5"/><path class="cls-2" d="M105,294.88h45l9.91,20.29-15,13.85-39,1.56" transform="translate(0.26 0.48)"/><line class="cls-2" x1="153.99" y1="339.25" x2="145.14" y2="329.5"/><polyline class="cls-2" points="175.26 278.22 214.44 295.36 210.34 318.99 195.99 330.42 160.18 315.65"/><line class="cls-2" x1="195.99" y1="330.42" x2="192.31" y2="339.25"/><polyline class="cls-2" points="233.33 339.25 232.21 335.96 210.34 318.99"/><polyline class="cls-2" points="214.44 295.36 261.93 295.36 264.67 307.4 260.05 329.49 232.21 335.95"/><polyline class="cls-2" points="260.05 329.5 265.18 338.6 265.54 339.25"/><polyline class="cls-2" points="265.18 338.6 298.02 334.31 303.48 339.25"/><line class="cls-2" x1="361.45" y1="339.25" x2="359.51" y2="334.31"/><path class="cls-2" d="M9.91,332.69c0.09-2,4.75-22.29,4.75-22.29L34,294.88,0,277.74" transform="translate(0.26 0.48)"/><line class="cls-2" x1="14.93" y1="310.89" x2="0.26" y2="301.89"/><polyline class="cls-2" points="9.77 283.02 25.57 269.77 41.48 272.03 59.26 274.55 79.76 261.3 97.8 268.55 98.72 292.39"/><polyline class="cls-2" points="4.76 239.55 20.2 248.55 25.57 269.77"/><polyline class="cls-2" points="20.2 248.55 43.26 251.8 51.63 273.47"/><polyline class="cls-2" points="43.26 251.8 63.26 248.55 79.76 261.3"/><line class="cls-2" x1="63.26" y1="248.55" x2="56.77" y2="239.55"/><polyline class="cls-2" points="73.4 256.38 95.01 247.05 97.8 239.55"/><polyline class="cls-2" points="97.8 268.55 128.18 259.89 117.26 246.55 95.01 247.05"/><line class="cls-2" x1="117.26" y1="246.55" x2="121.93" y2="239.55"/><polyline class="cls-2" points="150.27 295.36 155.21 281.55 128.18 259.89"/><polyline class="cls-2" points="155.21 281.55 175.26 278.22 172.26 257.55 147.59 246.55 128.18 239.55"/><polyline class="cls-2" points="172.26 257.55 197.96 247.97 214.44 250.55 232.76 278.22 229.26 295.36"/><rect class="cls-1" x="298.02" y="240.11" width="309.9" height="94.2"/><polyline class="cls-2" points="512.69 285.17 501.87 298.33 502.03 298.61 510.39 313.33 502.9 334.31 513.82 339.25 513.83 339.25"/><polyline class="cls-2" points="568.01 339.25 573.96 334.31 562.12 320.71 571.68 303.17 576.24 293.48"/><polyline class="cls-2" points="602.27 339.05 609.01 336.05 614.76 311.94 607.92 297.87 576.24 293.48 568.04 268.79 582.62 258.17 598.19 257.04 607.92 256.33 611.77 255.8 633.09 252.89 633.09 244.56 633.09 244.55 617.09 239.55"/><polyline class="cls-2" points="582.62 258.17 563.71 246.86 562.12 240.11"/><polyline class="cls-2" points="562.12 320.71 538.66 303.17 510.39 313.32"/><polyline class="cls-2" points="538.66 303.17 534.79 280.56 544.81 267.17 568.04 268.79"/><polyline class="cls-2" points="563.71 246.86 544.81 267.17 515.43 251.94 502.9 240.11"/><polyline class="cls-2" points="534.79 280.56 512.69 285.17 497.66 270.17 515.43 251.94"/><path class="cls-2" d="M502.64,333.83h-45l-9.91-20.29,15-13.85,39-1.56" transform="translate(0.26 0.48)"/><polyline class="cls-2" points="497.66 270.17 457.35 267.17 446.92 282.4 463.04 300.17"/><polyline class="cls-2" points="457.35 267.17 448.01 251.94 448.01 239.55"/><line class="cls-2" x1="480.01" y1="268.56" x2="464.29" y2="239.55"/><polyline class="cls-2" points="393.74 334.31 397.84 310.67 412.19 299.25 448.01 314.02"/><polyline class="cls-2" points="412.19 299.25 425.55 267.17 446.92 282.4"/><polyline class="cls-2" points="397.84 310.67 375.98 293.71 369.48 274.67 383.66 264.98 410.23 256.25"/><polyline class="cls-2" points="375.98 293.71 348.13 300.17 343.52 322.27 346.25 334.31 393.74 334.31 410.23 339.21"/><polyline class="cls-2" points="383.66 264.98 387.59 240.11 425.55 267.17"/><polyline class="cls-2" points="369.48 274.67 352.23 260.82 348.64 240.11"/><polyline class="cls-2" points="352.23 260.82 333.78 274.67 348.13 300.17"/><polyline class="cls-2" points="333.78 274.67 308.67 259.27 311.57 240.11"/><polyline class="cls-2" points="308.67 259.27 298.02 284.36 261.93 295.36 259.54 277.09"/><line class="cls-2" x1="197.96" y1="247.97" x2="197.96" y2="240.11"/><line class="cls-2" x1="214.44" y1="250.55" x2="228.76" y2="240.11"/><path class="cls-2" d="M232.5,277.74c3.5,0.33,26.78-1.12,26.78-1.12l14.86-19.7-2.64-17.84" transform="translate(0.26 0.48)"/><polyline class="cls-2" points="274.4 257.39 294.76 268.55 304.84 268.3"/><polyline class="cls-2" points="298.02 334.31 308.67 316.46 295.76 301.89 264.67 307.4"/><polyline class="cls-2" points="295.76 301.89 298.02 284.36 323.26 303.17 343.52 293.77"/><polyline class="cls-2" points="343.52 322.27 308.67 316.46 323.26 303.17"/><line class="cls-2" x1="346.25" y1="334.31" x2="330.03" y2="339.25"/><line class="cls-2" x1="457.91" y1="334.31" x2="450.71" y2="339.25"/><line class="cls-2" x1="473.64" y1="339.25" x2="472.29" y2="334.31"/><line class="cls-2" x1="448.01" y1="251.94" x2="414.46" y2="259.27"/><polyline class="cls-2" points="573.96 334.31 577.01 334.97 595.87 339.05"/><polyline class="cls-2" points="607.92 297.86 591.4 274.67 572.37 280.55"/><line class="cls-2" x1="598.19" y1="257.04" x2="591.4" y2="274.67"/><line class="cls-2" x1="603.51" y1="256.25" x2="612.93" y2="239.55"/><polyline class="cls-2" points="601.63 289.03 620.6 277.55 619.6 262.89 611.77 255.8"/><path class="cls-2" d="M642,241.45" transform="translate(0.26 0.48)"/><path class="cls-2" d="M611.82,306" transform="translate(0.26 0.48)"/><polyline class="cls-2" points="620.6 277.55 634.93 286.27 634.43 301.3 623.26 307.22"/><polyline class="cls-2" points="631.64 267.99 634.93 286.27 648.26 281.89 650.26 279.39"/><polyline class="cls-2" points="650.26 260.05 647.64 256.25 650.26 254.05"/><line class="cls-2" x1="614.76" y1="311.94" x2="623.26" y2="307.22"/><polyline class="cls-2" points="629.35 339.64 627.12 339.25 609.01 336.05"/><polyline class="cls-2" points="641.04 339.81 647.64 322.55 634.43 301.3"/><line class="cls-2" x1="647.64" y1="322.55" x2="650.26" y2="322.55"/><line class="cls-2" x1="648.26" y1="281.89" x2="650.26" y2="285.17"/><line class="cls-2" x1="633.09" y1="244.55" x2="638.18" y2="239.55"/><polyline class="cls-2" points="633.1 252.89 638.18 256.84 631.64 267.99 619.6 262.89"/><line class="cls-2" x1="647.64" y1="256.25" x2="638.18" y2="256.84"/><polyline class="cls-2" points="92.74 496.61 59.26 481.48 41.05 496.61"/><line class="cls-2" x1="201.47" y1="496.61" x2="175.26" y2="485.15"/><polyline class="cls-2" points="0.26 485.15 9.77 489.95 22.98 496.61"/><polyline class="cls-2" points="98.62 496.61 97.8 475.48 79.76 468.23 59.26 481.48 51.63 480.4 41.48 478.96 25.57 476.7 9.77 489.95"/><polyline class="cls-2" points="4.76 446.48 20.2 455.48 25.57 476.7"/><polyline class="cls-2" points="20.2 455.48 43.26 458.73 51.63 480.39"/><polyline class="cls-2" points="43.26 458.73 63.26 455.48 79.76 468.23"/><line class="cls-2" x1="63.26" y1="455.48" x2="56.77" y2="446.48"/><polyline class="cls-2" points="73.4 463.31 95.01 453.98 97.8 446.48"/><polyline class="cls-2" points="97.8 475.48 128.18 466.81 117.26 453.48 95.01 453.98"/><line class="cls-2" x1="117.26" y1="453.48" x2="121.93" y2="446.48"/><polyline class="cls-2" points="128.18 466.81 155.21 488.48 152.3 496.61"/><polyline class="cls-2" points="128.18 446.48 147.59 453.48 172.26 464.48 175.26 485.15 155.21 488.48"/><polyline class="cls-2" points="230.42 496.61 232.76 485.15 214.44 457.48 197.96 454.9 172.26 464.48"/><rect class="cls-1" x="298.02" y="447.04" width="309.9" height="49.57"/><line class="cls-2" x1="512.69" y1="492.1" x2="508.98" y2="496.61"/><polyline class="cls-2" points="617.09 446.48 633.09 451.48 633.09 459.81 607.92 463.25 598.19 463.96 582.62 465.1 568.04 475.71 574.98 496.61"/><polyline class="cls-2" points="582.62 465.1 563.71 453.79 562.12 447.04"/><polyline class="cls-2" points="568.04 475.71 544.81 474.1 534.78 487.48 536.35 496.61"/><polyline class="cls-2" points="502.9 447.04 515.43 458.87 544.81 474.1 563.71 453.79"/><polyline class="cls-2" points="515.43 458.87 497.66 477.1 512.69 492.1 534.78 487.48"/><polyline class="cls-2" points="453.52 496.61 446.92 489.33 457.35 474.1 497.66 477.1"/><polyline class="cls-2" points="457.35 474.1 448.01 458.87 448.01 446.48"/><line class="cls-2" x1="480.01" y1="475.48" x2="464.29" y2="446.48"/><polyline class="cls-2" points="446.92 489.33 425.55 474.1 416.18 496.61"/><polyline class="cls-2" points="410.22 463.18 383.66 471.91 369.48 481.6 374.6 496.61"/><polyline class="cls-2" points="425.55 474.1 414.47 466.2 414.46 466.2 410.22 463.18 387.59 447.04 383.66 471.91"/><polyline class="cls-2" points="348.64 447.04 352.23 467.75 369.48 481.6"/><polyline class="cls-2" points="342.23 496.61 333.78 481.6 352.23 467.75"/><polyline class="cls-2" points="311.57 447.04 308.67 466.2 333.78 481.6"/><line class="cls-2" x1="261.19" y1="496.61" x2="259.54" y2="484.02"/><polyline class="cls-2" points="280.55 496.61 298.02 491.29 304.84 475.23 308.67 466.2"/><line class="cls-2" x1="197.96" y1="454.89" x2="197.96" y2="447.04"/><line class="cls-2" x1="214.44" y1="457.48" x2="228.76" y2="447.04"/><path class="cls-2" d="M271.5,446l2.64,17.84-14.86,19.7S236,485,232.5,484.67" transform="translate(0.26 0.48)"/><polyline class="cls-2" points="304.84 475.23 298.02 475.4 294.76 475.48 274.4 464.32"/><polyline class="cls-2" points="305.16 496.61 298.02 491.29 297.33 496.61"/><line class="cls-2" x1="448.01" y1="458.87" x2="414.46" y2="466.19"/><polyline class="cls-2" points="572.37 487.48 591.4 481.6 601.63 495.96 602.09 496.61"/><line class="cls-2" x1="598.19" y1="463.96" x2="591.4" y2="481.6"/><line class="cls-2" x1="603.51" y1="463.17" x2="612.93" y2="446.48"/><polyline class="cls-2" points="601.63 495.96 620.6 484.48 619.6 469.81 611.77 462.72"/><path class="cls-2" d="M642,448.37" transform="translate(0.26 0.48)"/><polyline class="cls-2" points="634.82 496.61 634.93 493.19 620.59 484.48"/><polyline class="cls-2" points="631.64 474.92 634.93 493.19 648.26 488.81 650.26 486.31"/><polyline class="cls-2" points="650.26 466.98 647.64 463.17 650.26 460.98"/><line class="cls-2" x1="648.26" y1="488.81" x2="650.26" y2="492.1"/><line class="cls-2" x1="633.09" y1="451.48" x2="638.18" y2="446.48"/><polyline class="cls-2" points="633.1 459.81 638.18 463.77 631.64 474.92 619.6 469.81"/><line class="cls-2" x1="647.64" y1="463.17" x2="638.18" y2="463.77"/><rect class="cls-1" x="1389.26" y="56.47" width="300" height="94.2"/><polyline class="cls-2" points="1420.94 97.3 1425.5 87.61 1435.07 70.07 1423.22 56.47 1448.26 35.67 1494.29 56.47 1486.8 77.45 1495.31 92.45 1484.49 105.61"/><polyline class="cls-2" points="1389.26 134.45 1414.57 132.61 1429.14 121.99 1420.94 97.3 1389.26 92.91"/><polyline class="cls-2" points="1414.57 132.61 1433.47 143.91 1435.07 150.67"/><polyline class="cls-2" points="1435.07 70.07 1458.53 87.61 1486.8 77.45"/><polyline class="cls-2" points="1458.53 87.61 1462.4 110.22 1452.38 123.61 1429.14 121.99"/><polyline class="cls-2" points="1433.47 143.91 1452.38 123.61 1481.76 138.84 1494.29 150.67"/><polyline class="cls-2" points="1462.4 110.22 1484.49 105.61 1499.52 120.61 1481.76 138.84"/><path class="cls-2" d="M1494,56h45l9.91,20.29-15,13.85-39,1.56" transform="translate(0.26 0.48)"/><polyline class="cls-2" points="1499.52 120.61 1539.84 123.61 1550.26 108.38 1534.14 90.61"/><polyline class="cls-2" points="1539.84 123.61 1549.18 138.84 1549.18 150.67"/><line class="cls-2" x1="1517.18" y1="122.22" x2="1532.61" y2="150.67"/><polyline class="cls-2" points="1564.26 39.33 1603.44 56.47 1599.34 80.11 1584.99 91.53 1549.18 76.76"/><polyline class="cls-2" points="1584.99 91.53 1571.64 123.61 1550.26 108.38"/><polyline class="cls-2" points="1599.34 80.11 1621.21 97.07 1627.7 116.11 1613.52 125.8 1586.96 134.53"/><polyline class="cls-2" points="1603.44 56.47 1650.93 56.47 1653.66 68.51 1649.05 90.61 1621.21 97.07"/><polyline class="cls-2" points="1613.52 125.8 1609.59 150.67 1571.64 123.61"/><polyline class="cls-2" points="1627.7 116.11 1644.95 129.95 1648.54 150.67"/><polyline class="cls-2" points="1644.95 129.95 1663.4 116.11 1649.05 90.61"/><polyline class="cls-2" points="1663.4 116.11 1688.51 131.51 1685.61 150.67"/><polyline class="cls-2" points="1654.18 99.72 1687.02 95.42 1687.03 95.43 1689.26 97.45"/><polyline class="cls-2" points="1689.26 129.74 1688.51 131.51 1689.26 131.68"/><path class="cls-2" d="M1398.91,93.81c0.09-2,4.75-22.29,4.75-22.29L1423,56l-34-17.14" transform="translate(0.26 0.48)"/><line class="cls-2" x1="1403.93" y1="72" x2="1389.26" y2="63"/><polyline class="cls-2" points="1398.77 44.13 1414.57 30.89 1430.48 33.15 1448.26 35.67 1468.76 22.42 1486.8 29.67 1487.72 53.5"/><polyline class="cls-2" points="1393.76 0.67 1409.2 9.67 1414.57 30.89"/><polyline class="cls-2" points="1409.2 9.67 1432.26 12.92 1440.63 34.59"/><polyline class="cls-2" points="1432.26 12.92 1452.26 9.67 1468.76 22.42"/><line class="cls-2" x1="1452.26" y1="9.67" x2="1445.77" y2="0.67"/><polyline class="cls-2" points="1462.4 17.5 1484.01 8.17 1486.8 0.67"/><polyline class="cls-2" points="1486.8 29.67 1517.18 21 1506.26 7.67 1484.01 8.17"/><line class="cls-2" x1="1506.26" y1="7.67" x2="1510.93" y2="0.67"/><polyline class="cls-2" points="1539.27 56.47 1544.21 42.67 1517.18 21"/><polyline class="cls-2" points="1544.21 42.67 1564.26 39.33 1561.26 18.67 1536.6 7.67 1517.18 0.67"/><polyline class="cls-2" points="1561.26 18.67 1586.96 9.08 1603.44 11.67 1621.76 39.33 1618.26 56.47"/><rect class="cls-1" x="1687.02" y="1.23" width="2.24" height="94.2"/><polyline class="cls-2" points="1689.26 40.2 1687.02 45.48 1650.93 56.47 1648.54 38.21"/><line class="cls-2" x1="1586.96" y1="9.08" x2="1586.96" y2="1.23"/><line class="cls-2" x1="1603.44" y1="11.67" x2="1617.76" y2="1.23"/><path class="cls-2" d="M1621.5,38.86c3.5,0.33,26.78-1.12,26.78-1.12L1663.14,18,1660.5,0.19" transform="translate(0.26 0.48)"/><polyline class="cls-2" points="1663.4 18.51 1683.76 29.67 1687.02 29.59 1689.26 29.53"/><polyline class="cls-2" points="1653.66 68.51 1684.76 63 1687.02 65.55 1689.26 68.08"/><line class="cls-2" x1="1689.26" y1="91.67" x2="1687.02" y2="95.42"/><polyline class="cls-2" points="1689.26 47.15 1687.02 45.48 1685.6 56.47 1684.76 63"/><path class="cls-1" d="M1030.9,293.84v43.89H721V293.84h309.9Z" transform="translate(0.26 0.48)"/><polyline class="cls-2" points="820.8 338.21 827.31 330.3 827.15 330.02 818.8 315.3 826.28 294.32 819.72 291.35 780.26 273.51 755.22 294.32 767.06 307.92 757.5 325.46 752.94 335.15"/><polyline class="cls-2" points="721.26 330.76 731.17 332.13 752.94 335.15 753.96 338.21"/><polyline class="cls-2" points="767.07 307.92 790.52 325.46 818.8 315.3"/><line class="cls-2" x1="792.71" y1="338.21" x2="790.52" y2="325.46"/><path class="cls-2" d="M826,293.84h45l9.91,20.29-15,13.85-39,1.56" transform="translate(0.26 0.48)"/><line class="cls-2" x1="874.99" y1="338.21" x2="866.14" y2="328.46"/><polyline class="cls-2" points="896.26 277.18 935.44 294.32 931.34 317.96 916.99 329.38 881.18 314.61"/><line class="cls-2" x1="916.99" y1="329.38" x2="913.31" y2="338.21"/><polyline class="cls-2" points="954.33 338.21 953.21 334.92 931.34 317.95"/><polyline class="cls-2" points="935.44 294.32 982.93 294.32 985.66 306.36 981.05 328.46 953.21 334.92"/><polyline class="cls-2" points="981.05 328.46 986.18 337.56 986.54 338.21"/><polyline class="cls-2" points="986.18 337.56 1019.02 333.27 1024.48 338.21"/><line class="cls-2" x1="1082.45" y1="338.21" x2="1080.51" y2="333.27"/><path class="cls-2" d="M730.91,331.66c0.09-2,4.75-22.29,4.75-22.29L755,293.84l-34-17.14" transform="translate(0.26 0.48)"/><line class="cls-2" x1="735.93" y1="309.85" x2="721.26" y2="300.85"/><polyline class="cls-2" points="730.77 281.98 746.57 268.74 762.48 271 780.26 273.52 800.76 260.27 818.8 267.52 819.72 291.35"/><polyline class="cls-2" points="725.76 238.52 741.2 247.52 746.57 268.74"/><polyline class="cls-2" points="741.2 247.52 764.26 250.77 772.63 272.44"/><polyline class="cls-2" points="764.26 250.77 784.26 247.52 800.76 260.27"/><line class="cls-2" x1="784.26" y1="247.52" x2="777.77" y2="238.52"/><polyline class="cls-2" points="794.4 255.35 816.01 246.02 818.8 238.52"/><polyline class="cls-2" points="818.8 267.52 849.18 258.85 838.26 245.52 816.01 246.02"/><line class="cls-2" x1="838.26" y1="245.52" x2="842.93" y2="238.52"/><polyline class="cls-2" points="871.27 294.32 876.21 280.52 849.18 258.85"/><polyline class="cls-2" points="876.21 280.52 896.26 277.18 893.26 256.52 868.6 245.52 849.18 238.52"/><polyline class="cls-2" points="893.26 256.52 918.96 246.93 935.44 249.52 953.76 277.18 950.26 294.32"/><path class="cls-1" d="M1221,266v66.8h-42.35l-2.8-5.75-7.1-14.54,5.1-4.7,9.93-9.14-16.12-17.77,10.43-15.23,38.36,2.85,2,0.15,1.34-1.37Z" transform="translate(0.26 0.48)"/><polyline class="cls-2" points="1221.26 266.47 1218.66 269.14 1221.26 271.73"/><path class="cls-2" d="M1221,297.17l-37.22,1.49-15,13.84,9.9,20.29H1221" transform="translate(0.26 0.48)"/><polyline class="cls-2" points="1184.04 299.14 1167.92 281.37 1178.35 266.14 1218.66 269.14"/><polyline class="cls-2" points="1178.35 266.13 1169.01 250.9 1169.01 238.52"/><line class="cls-2" x1="1201.01" y1="267.52" x2="1185.29" y2="238.52"/><polyline class="cls-2" points="1114.74 333.27 1118.84 309.63 1133.19 298.21 1169.01 312.98"/><polyline class="cls-2" points="1133.19 298.21 1146.55 266.13 1167.92 281.37"/><polyline class="cls-2" points="1118.84 309.63 1096.98 292.67 1090.48 273.63 1104.66 263.94 1131.23 255.21"/><polyline class="cls-2" points="1096.98 292.67 1069.13 299.13 1064.52 321.23 1067.25 333.27 1114.74 333.27 1135.58 338.81"/><polyline class="cls-2" points="1104.66 263.94 1108.59 239.07 1146.55 266.13"/><polyline class="cls-2" points="1090.48 273.63 1073.23 259.79 1069.64 239.07"/><polyline class="cls-2" points="1073.23 259.79 1054.78 273.63 1069.13 299.13"/><polyline class="cls-2" points="1054.78 273.63 1029.67 258.23 1032.58 239.07"/><polyline class="cls-2" points="1029.67 258.23 1019.02 283.33 982.93 294.32 980.54 276.06"/><line class="cls-2" x1="918.96" y1="246.93" x2="918.96" y2="239.07"/><line class="cls-2" x1="935.44" y1="249.52" x2="949.76" y2="239.07"/><path class="cls-2" d="M953.5,276.71c3.5,0.33,26.78-1.12,26.78-1.12l14.86-19.7L992.5,238" transform="translate(0.26 0.48)"/><polyline class="cls-2" points="995.4 256.36 1015.76 267.52 1025.84 267.26"/><polyline class="cls-2" points="1019.02 333.27 1029.67 315.42 1016.76 300.85 985.66 306.36"/><polyline class="cls-2" points="1016.76 300.85 1019.02 283.33 1044.26 302.13 1064.52 292.73"/><polyline class="cls-2" points="1064.52 321.23 1029.67 315.42 1044.26 302.13"/><line class="cls-2" x1="1067.25" y1="333.27" x2="1051.03" y2="338.21"/><line class="cls-2" x1="1178.91" y1="333.27" x2="1171.71" y2="338.21"/><line class="cls-2" x1="1194.64" y1="338.21" x2="1193.29" y2="333.27"/><line class="cls-2" x1="1169.01" y1="250.9" x2="1135.46" y2="258.23"/><rect class="cls-1" x="1389.26" y="294.44" width="300" height="44.2"/><polyline class="cls-2" points="1420.94 335.28 1425.5 325.58 1435.06 308.05 1423.22 294.45 1423.23 294.44 1448.26 273.64 1487.72 291.48 1494.26 294.44 1494.28 294.45 1486.8 315.43 1495.15 330.15 1495.31 330.43 1488.55 338.64"/><polyline class="cls-2" points="1389.26 330.89 1399.17 332.26 1420.94 335.28 1422.06 338.64"/><polyline class="cls-2" points="1435.07 308.04 1458.53 325.58 1486.8 315.43"/><line class="cls-2" x1="1460.76" y1="338.64" x2="1458.52" y2="325.58"/><path class="cls-2" d="M1494,294h45l9.91,20.29-15,13.85-39,1.56" transform="translate(0.26 0.48)"/><line class="cls-2" x1="1543.27" y1="338.64" x2="1534.14" y2="328.58"/><polyline class="cls-2" points="1564.26 277.31 1603.44 294.45 1599.34 318.08 1584.99 329.5 1549.18 314.74"/><line class="cls-2" x1="1584.99" y1="329.51" x2="1581.19" y2="338.64"/><polyline class="cls-2" points="1622.43 338.64 1621.21 335.05 1599.34 318.08"/><polyline class="cls-2" points="1603.44 294.45 1650.93 294.45 1653.66 306.49 1649.05 328.58 1621.21 335.04"/><polyline class="cls-2" points="1649.05 328.58 1654.18 337.69 1654.71 338.64"/><polyline class="cls-2" points="1654.18 337.69 1687.02 333.39 1687.03 333.4 1689.26 335.42"/><path class="cls-2" d="M1398.91,331.78c0.09-2,4.75-22.29,4.75-22.29L1423,294l-34-17.14" transform="translate(0.26 0.48)"/><line class="cls-2" x1="1403.93" y1="309.97" x2="1389.26" y2="300.97"/><polyline class="cls-2" points="1398.77 282.11 1414.57 268.86 1430.48 271.12 1448.26 273.64 1468.76 260.39 1486.8 267.64 1487.72 291.48"/><polyline class="cls-2" points="1393.76 238.64 1409.2 247.64 1414.57 268.86"/><polyline class="cls-2" points="1409.2 247.64 1432.26 250.89 1440.63 272.56"/><polyline class="cls-2" points="1432.26 250.89 1452.26 247.64 1468.76 260.39"/><line class="cls-2" x1="1452.26" y1="247.64" x2="1445.77" y2="238.64"/><polyline class="cls-2" points="1462.4 255.47 1484.01 246.14 1486.8 238.64"/><polyline class="cls-2" points="1486.8 267.64 1517.18 258.98 1506.26 245.64 1484.01 246.14"/><line class="cls-2" x1="1506.26" y1="245.64" x2="1510.93" y2="238.64"/><polyline class="cls-2" points="1539.27 294.45 1544.21 280.64 1517.18 258.98"/><polyline class="cls-2" points="1544.21 280.64 1564.26 277.31 1561.26 256.64 1536.6 245.64 1517.18 238.64"/><polyline class="cls-2" points="1561.26 256.64 1586.96 247.06 1603.44 249.64 1621.76 277.31 1618.26 294.45"/><rect class="cls-1" x="1687.02" y="239.2" width="2.24" height="94.2"/><polyline class="cls-2" points="1689.26 278.17 1687.02 283.45 1650.93 294.44 1648.54 276.18"/><line class="cls-2" x1="1586.96" y1="247.06" x2="1586.96" y2="239.2"/><line class="cls-2" x1="1603.44" y1="249.64" x2="1617.76" y2="239.2"/><path class="cls-2" d="M1621.5,276.83c3.5,0.33,26.78-1.12,26.78-1.12l14.86-19.7-2.64-17.84" transform="translate(0.26 0.48)"/><polyline class="cls-2" points="1663.4 256.48 1683.76 267.64 1687.02 267.56 1689.26 267.5"/><polyline class="cls-2" points="1653.66 306.48 1684.76 300.97 1687.02 303.52 1689.26 306.05"/><line class="cls-2" x1="1689.26" y1="329.64" x2="1687.02" y2="333.39"/><polyline class="cls-2" points="1689.26 285.12 1687.02 283.45 1685.6 294.44 1684.76 300.97"/><polyline class="cls-2" points="808.12 496.61 774.64 481.48 756.43 496.61"/><line class="cls-2" x1="916.85" y1="496.61" x2="890.64" y2="485.15"/><polyline class="cls-2" points="715.64 485.15 725.15 489.95 738.36 496.61"/><polyline class="cls-2" points="814 496.61 813.18 475.48 795.14 468.23 774.64 481.48 767.01 480.4 756.86 478.96 740.95 476.7 725.15 489.95"/><polyline class="cls-2" points="720.14 446.48 735.58 455.48 740.95 476.7"/><polyline class="cls-2" points="735.58 455.48 758.64 458.73 767.01 480.39"/><polyline class="cls-2" points="758.64 458.73 778.64 455.48 795.14 468.23"/><line class="cls-2" x1="778.64" y1="455.48" x2="772.15" y2="446.48"/><polyline class="cls-2" points="788.78 463.31 810.39 453.98 813.17 446.48"/><polyline class="cls-2" points="813.17 475.48 843.55 466.81 832.64 453.48 810.39 453.98"/><line class="cls-2" x1="832.64" y1="453.48" x2="837.31" y2="446.48"/><polyline class="cls-2" points="843.56 466.81 870.59 488.48 867.68 496.61"/><polyline class="cls-2" points="843.56 446.48 862.97 453.48 887.64 464.48 890.64 485.15 870.59 488.48"/><polyline class="cls-2" points="945.8 496.61 948.14 485.15 929.82 457.48 913.34 454.9 887.64 464.48"/><rect class="cls-1" x="1013.4" y="447.04" width="201.86" height="49.57"/><polyline class="cls-2" points="1215.26 479.32 1213.04 477.1 1215.26 474.82"/><polyline class="cls-2" points="1168.9 496.61 1162.3 489.33 1172.73 474.1 1213.04 477.1"/><polyline class="cls-2" points="1172.72 474.1 1163.39 458.87 1163.39 446.48"/><line class="cls-2" x1="1195.39" y1="475.48" x2="1179.67" y2="446.48"/><polyline class="cls-2" points="1162.3 489.33 1140.93 474.1 1131.56 496.61"/><polyline class="cls-2" points="1125.6 463.18 1099.04 471.91 1084.86 481.6 1089.98 496.61"/><polyline class="cls-2" points="1140.93 474.1 1129.85 466.2 1129.84 466.2 1125.6 463.18 1102.97 447.04 1099.04 471.91"/><polyline class="cls-2" points="1064.02 447.04 1067.61 467.75 1084.86 481.6"/><polyline class="cls-2" points="1057.61 496.61 1049.16 481.6 1067.61 467.75"/><polyline class="cls-2" points="1026.95 447.04 1024.05 466.2 1049.16 481.6"/><line class="cls-2" x1="976.57" y1="496.61" x2="974.92" y2="484.02"/><polyline class="cls-2" points="995.93 496.61 1013.4 491.29 1020.22 475.23 1024.05 466.2"/><line class="cls-2" x1="913.34" y1="454.89" x2="913.34" y2="447.04"/><line class="cls-2" x1="929.82" y1="457.48" x2="944.14" y2="447.04"/><path class="cls-2" d="M986.88,446l2.64,17.84-14.86,19.7s-23.28,1.46-26.78,1.13" transform="translate(0.26 0.48)"/><polyline class="cls-2" points="1020.22 475.23 1013.4 475.4 1010.14 475.48 989.78 464.32"/><polyline class="cls-2" points="1020.54 496.61 1013.4 491.29 1012.71 496.61"/><line class="cls-2" x1="1163.39" y1="458.87" x2="1129.84" y2="466.19"/><polyline class="cls-2" points="1481.74 496.84 1448.26 481.71 1430.05 496.84"/><line class="cls-2" x1="1590.47" y1="496.84" x2="1564.26" y2="485.38"/><polyline class="cls-2" points="1389.26 485.38 1398.77 490.18 1411.98 496.84"/><polyline class="cls-2" points="1487.62 496.84 1486.8 475.71 1468.76 468.46 1448.26 481.71 1440.63 480.63 1430.48 479.19 1414.57 476.93 1398.77 490.18"/><polyline class="cls-2" points="1393.76 446.71 1409.2 455.71 1414.57 476.94"/><polyline class="cls-2" points="1409.2 455.71 1432.26 458.96 1440.63 480.63"/><polyline class="cls-2" points="1432.26 458.96 1452.26 455.71 1468.76 468.46"/><line class="cls-2" x1="1452.26" y1="455.71" x2="1445.77" y2="446.71"/><polyline class="cls-2" points="1462.4 463.55 1484.01 454.21 1486.8 446.71"/><polyline class="cls-2" points="1486.8 475.71 1517.18 467.05 1506.26 453.71 1484.01 454.21"/><line class="cls-2" x1="1506.26" y1="453.71" x2="1510.93" y2="446.71"/><polyline class="cls-2" points="1517.18 467.04 1544.21 488.71 1541.3 496.84"/><polyline class="cls-2" points="1517.18 446.71 1536.59 453.71 1561.26 464.71 1564.26 485.38 1544.21 488.71"/><polyline class="cls-2" points="1619.42 496.84 1621.76 485.38 1603.44 457.71 1586.96 455.13 1561.26 464.71"/><rect class="cls-1" x="1687.02" y="447.28" width="2.24" height="49.57"/><line class="cls-2" x1="1650.19" y1="496.84" x2="1648.54" y2="484.25"/><polyline class="cls-2" points="1669.55 496.85 1687.02 491.53 1689.26 486.26"/><line class="cls-2" x1="1586.96" y1="455.13" x2="1586.96" y2="447.27"/><line class="cls-2" x1="1603.44" y1="457.71" x2="1617.76" y2="447.27"/><path class="cls-2" d="M1660.5,446.24l2.64,17.84-14.86,19.7s-23.28,1.46-26.78,1.13" transform="translate(0.26 0.48)"/><polyline class="cls-2" points="1689.26 475.58 1687.02 475.64 1683.76 475.72 1663.4 464.56"/><polyline class="cls-2" points="1689.26 493.2 1687.02 491.53 1686.33 496.85"/></svg>