<svg id="GrainSmall" xmlns="http://www.w3.org/2000/svg" viewBox="0 0 300 50"><defs><style>.cls-1,.cls-2{fill:none;}.cls-1{stroke:#1d1d1b;stroke-miterlimit:10;}</style></defs><title>CP_GrainSmall</title><polyline class="cls-1" points="92.48 50.37 59 35.24 40.79 50.37"/><line class="cls-1" x1="201.21" y1="50.37" x2="175" y2="38.91"/><polyline class="cls-1" points="0 38.91 9.51 43.71 22.72 50.37"/><polyline class="cls-1" points="98.36 50.37 97.54 29.24 79.5 21.99 59 35.24 51.37 34.16 41.22 32.72 25.31 30.46 9.51 43.71"/><polyline class="cls-1" points="4.5 0.24 19.94 9.24 25.31 30.46"/><polyline class="cls-1" points="19.94 9.24 43 12.49 51.37 34.15"/><polyline class="cls-1" points="43 12.49 63 9.24 79.5 21.99"/><line class="cls-1" x1="63" y1="9.24" x2="56.51" y2="0.24"/><polyline class="cls-1" points="73.14 17.07 94.75 7.74 97.53 0.24"/><polyline class="cls-1" points="97.53 29.24 127.92 20.57 117 7.24 94.75 7.74"/><line class="cls-1" x1="117" y1="7.24" x2="121.67" y2="0.24"/><polyline class="cls-1" points="127.92 20.57 154.95 42.24 152.04 50.37"/><polyline class="cls-1" points="127.92 0.24 147.33 7.24 172 18.24 175 38.91 154.95 42.24"/><polyline class="cls-1" points="230.16 50.37 232.5 38.91 214.18 11.24 197.7 8.66 172 18.24"/><rect class="cls-2" x="297.76" y="0.8" width="2.24" height="49.57"/><line class="cls-1" x1="260.93" y1="50.37" x2="259.28" y2="37.78"/><polyline class="cls-1" points="280.29 50.37 297.76 45.05 300 39.78"/><line class="cls-1" x1="197.7" y1="8.65" x2="197.7" y2="0.79"/><line class="cls-1" x1="214.18" y1="11.24" x2="228.5" y2="0.79"/><path class="cls-1" d="M271.5,0.24l2.64,17.84-14.86,19.7S236,39.24,232.5,38.91"/><polyline class="cls-1" points="300 29.1 297.76 29.16 294.5 29.24 274.14 18.08"/><polyline class="cls-1" points="300 46.72 297.76 45.05 297.07 50.37"/></svg>