<svg id="Texture_Porous" xmlns="http://www.w3.org/2000/svg" viewBox="0 0 500 150"><defs><style>.cls-1{fill:#fff;stroke:#000;stroke-miterlimit:10;}</style></defs><title>CP_Porous</title><circle class="cls-1" cx="175.23" cy="52" r="6.67"/><circle class="cls-1" cx="123.89" cy="110" r="6.67"/><circle class="cls-1" cx="244.56" cy="126" r="6.67"/><circle class="cls-1" cx="206.89" cy="24" r="5.09"/><circle class="cls-1" cx="368.56" cy="138.25" r="5.09"/><circle class="cls-1" cx="345.89" cy="112" r="5.09"/><circle class="cls-1" cx="272.7" cy="84.5" r="5.09"/><circle class="cls-1" cx="321.89" cy="79.33" r="5.09"/><circle class="cls-1" cx="383.64" cy="29.6" r="6.67"/><circle class="cls-1" cx="447.89" cy="82" r="6.67"/><circle class="cls-1" cx="335.89" cy="13.33" r="6.67"/><circle class="cls-1" cx="199.65" cy="132" r="5.09"/><circle class="cls-1" cx="118.89" cy="73.33" r="6.67"/><circle class="cls-1" cx="25.23" cy="82.67" r="6.67"/><circle class="cls-1" cx="91.23" cy="35.58" r="5.09"/><circle class="cls-1" cx="273.23" cy="32" r="6.67"/><circle class="cls-1" cx="39.89" cy="125.33" r="6.67"/><circle class="cls-1" cx="157.89" cy="90" r="5.09"/><circle class="cls-1" cx="244.89" cy="12.33" r="6.67"/><circle class="cls-1" cx="449.89" cy="129.33" r="6.67"/><circle class="cls-1" cx="489.33" cy="67.33" r="6.67"/><circle class="cls-1" cx="120.89" cy="15" r="5.09"/><circle class="cls-1" cx="21.89" cy="27" r="6.67"/><circle class="cls-1" cx="414.56" cy="102" r="6.67"/><circle class="cls-1" cx="469.89" cy="19.67" r="6.67"/><circle class="cls-1" cx="295.98" cy="128" r="5.09"/><circle class="cls-1" cx="413.23" cy="55.33" r="5.09"/><circle class="cls-1" cx="94.89" cy="132" r="5.09"/><circle class="cls-1" cx="231.89" cy="61.91" r="5.09"/><circle class="cls-1" cx="413.89" cy="12" r="5.09"/></svg>