<svg id="Texture_Porous" xmlns="http://www.w3.org/2000/svg" viewBox="0 0 650 150"><defs><style>.cls-1{fill:#fff;stroke:#000;stroke-miterlimit:10;}.cls-2{fill:none;}</style></defs><title>CP_Porous</title><circle class="cls-1" cx="171.33" cy="52" r="6.67"/><circle class="cls-1" cx="120" cy="110" r="6.67"/><circle class="cls-1" cx="240.67" cy="126" r="6.67"/><circle class="cls-1" cx="203" cy="24" r="5.09"/><circle class="cls-1" cx="364.67" cy="138.25" r="5.09"/><circle class="cls-1" cx="342" cy="112" r="5.09"/><circle class="cls-1" cx="268.81" cy="84.5" r="5.09"/><circle class="cls-1" cx="318" cy="79.33" r="5.09"/><circle class="cls-1" cx="379.75" cy="29.6" r="6.67"/><circle class="cls-1" cx="444" cy="82" r="6.67"/><circle class="cls-1" cx="332" cy="13.33" r="6.67"/><circle class="cls-1" cx="195.75" cy="132" r="5.09"/><circle class="cls-1" cx="630.67" cy="69.33" r="5.09"/><circle class="cls-1" cx="547.75" cy="83.26" r="5.09"/><circle class="cls-1" cx="503.91" cy="128" r="5.09"/><circle class="cls-1" cx="115" cy="73.33" r="6.67"/><circle class="cls-1" cx="21.33" cy="82.67" r="6.67"/><circle class="cls-1" cx="87.33" cy="35.58" r="5.09"/><circle class="cls-1" cx="269.33" cy="32" r="6.67"/><circle class="cls-1" cx="36" cy="125.33" r="6.67"/><circle class="cls-1" cx="154" cy="90" r="5.09"/><circle class="cls-1" cx="241" cy="12.33" r="6.67"/><circle class="cls-1" cx="446" cy="129.33" r="6.67"/><circle class="cls-1" cx="589.33" cy="51.33" r="6.67"/><circle class="cls-1" cx="591.33" cy="94.91" r="5.09"/><circle class="cls-1" cx="491" cy="67.33" r="6.67"/><circle class="cls-1" cx="117" cy="15" r="5.09"/><circle class="cls-1" cx="18" cy="27" r="6.67"/><circle class="cls-1" cx="629.33" cy="18" r="6.67"/><circle class="cls-1" cx="410.67" cy="102" r="6.67"/><circle class="cls-1" cx="561.91" cy="132" r="5.09"/><circle class="cls-1" cx="512.83" cy="12.75" r="5.09"/><circle class="cls-1" cx="466" cy="19.67" r="6.67"/><circle class="cls-1" cx="292.09" cy="128" r="5.09"/><circle class="cls-1" cx="409.33" cy="55.33" r="5.09"/><rect class="cls-2" width="650" height="150"/><circle class="cls-1" cx="91" cy="132" r="5.09"/><circle class="cls-1" cx="228" cy="61.91" r="5.09"/><circle class="cls-1" cx="410" cy="12" r="5.09"/></svg>