<svg id="Dendrite" xmlns="http://www.w3.org/2000/svg" viewBox="0 0 500 50"><defs><style>.cls-1{fill:#fff;stroke:#1d1d1b;stroke-miterlimit:10;stroke-width:0.5px;}.cls-2{fill:none;}</style></defs><title>CP_Dendrite</title><path class="cls-1" d="M105.7,51H96.51l-1.77-4.31c-0.47-1.16-1.07-5.13.26-6s4.09,1.66,4.56,2.82L102,49.4c6.27-4.69,11.3-7.67,11.7-6.85S110.7,46.75,105.7,51Z"/><path class="cls-1" d="M500,43.07l-2.35,4.78L500,48.5v1.87H488.37l0.14-.29C479.39,47.53,472.86,45,473.27,44S481,43.88,490.49,46l4.68-9.51c-9.6-2.63-16.59-5.36-16.17-6.39s8.3,0,18.17,2.32L500,26.72V43.07Z"/><path class="cls-1" d="M285.52,33.17L284.2,40c-0.18.92-1.64,4.81-2.9,4.71-0.52,0-1-2.67-1.35-2.91s-0.41-1.61-.3-2.15l1.26-6.56c-4.44-.2-7.57-0.73-7.5-1.33s3.42-1.13,8-1.31l1.3-6.76c-5.92-.15-10.29-0.72-10.21-1.38s4.68-1.22,10.74-1.35l1.24-6.44c-6.23-.13-10.9-0.71-10.82-1.4s5-1.26,11.35-1.35l1-5c0.18-.92,1.47-3.58,2.73-3.48s2,2.92,1.82,3.84l-0.9,4.69c6.15,0.14,10.76.71,10.67,1.4s-4.92,1.25-11.2,1.35L287.87,21c6.46,0.11,11.36.7,11.28,1.41s-5.24,1.29-11.81,1.36l-1.28,6.66c5.93,0.07,10.53.68,10.44,1.41S291.56,33.14,285.52,33.17Z"/><path class="cls-1" d="M375.91,24.82l-7.77-1.5c-1-.2-5.46-1.86-5.35-3.29,0-.59,3-1.15,3.31-1.53,0.39-.56,1.83-0.47,2.45-0.35L376,19.59c0.23-5,.83-8.61,1.51-8.52s1.29,3.89,1.49,9.1l7.68,1.48c0.18-6.73.81-11.7,1.57-11.6s1.39,5.32,1.53,12.2l7.32,1.41c0.14-7.08.81-12.39,1.59-12.3s1.43,5.68,1.54,12.9l5.72,1.1c1,0.2,4.07,1.67,4,3.1s-3.32,2.27-4.36,2.07l-5.33-1c-0.16,7-.81,12.23-1.59,12.12S397.21,36,397.1,28.9l-7.3-1.4c-0.12,7.34-.8,12.92-1.6,12.82s-1.46-6-1.54-13.42l-7.57-1.46c-0.08,6.74-.77,12-1.61,11.86S376,31.68,375.91,24.82Z"/><rect class="cls-2" y="0.98" width="500" height="49.39"/><path class="cls-1" d="M26.73,23.34L19,21.84c-1-.2-5.46-1.86-5.35-3.29,0-.59,3-1.15,3.31-1.53,0.39-.56,1.83-0.47,2.45-0.35l7.46,1.44c0.23-5,.83-8.61,1.51-8.52s1.29,3.89,1.49,9.1l7.68,1.48c0.18-6.73.81-11.7,1.57-11.6s1.39,5.32,1.53,12.2l7.32,1.41c0.14-7.08.81-12.39,1.59-12.3s1.43,5.68,1.54,12.9l5.72,1.1c1,0.2,4.07,1.67,4,3.1S57.41,29.24,56.37,29L51,28c-0.16,7-.81,12.23-1.59,12.12S48,34.55,47.92,27.41L40.61,26c-0.12,7.34-.8,12.92-1.6,12.82s-1.46-6-1.54-13.42L29.9,23.95c-0.08,6.74-.77,12-1.61,11.86S26.77,30.2,26.73,23.34Z"/><path class="cls-1" d="M149.06,32.13l-9.13.27c-1.23,0-6.52-.81-6.58-2.59,0-.74,3.35-2.24,3.61-2.79,0.38-.79,2.05-1.07,2.77-1.09l8.76-.26c-0.38-6.27-.15-10.81.65-10.89s2,4.43,2.88,10.79l9-.27c-0.66-8.33-.57-14.61.31-14.7s2.29,6.17,3.33,14.59l8.61-.26c-0.75-8.75-.67-15.46.24-15.56S175.93,16,177,24.81l6.73-.2c1.23,0,4.9,1,4.95,2.74s-3.53,3.7-4.75,3.73l-6.26.19c0.72,8.65.64,15.25-.27,15.34S175,40.13,174,31.38l-8.59.26c0.81,9.06.75,16.1-.19,16.2s-2.45-6.92-3.51-16.09l-8.9.27c0.78,8.31.65,14.92-.32,15S150,40.55,149.06,32.13Z"/></svg>