<svg id="Texture_HighlyPorous" xmlns="http://www.w3.org/2000/svg" viewBox="0 0 300 150"><defs><style>.cls-1{stroke:#000;stroke-miterlimit:10;}</style></defs><title>CP_HighlyPorous</title><circle class="cls-1" cx="58.92" cy="75.07" r="6.67"/><circle class="cls-1" cx="201.25" cy="47.74" r="6.67"/><circle class="cls-1" cx="116.25" cy="111.74" r="6.67"/><circle class="cls-1" cx="246.25" cy="95.07" r="6.67"/><circle class="cls-1" cx="142.92" cy="50.74" r="6.67"/><circle class="cls-1" cx="189.59" cy="97.74" r="6.67"/><circle class="cls-1" cx="184.96" cy="66.98" r="5.09"/><circle class="cls-1" cx="248.04" cy="123.46" r="5.09"/><circle class="cls-1" cx="268.39" cy="76.9" r="5.09"/><circle class="cls-1" cx="293.25" cy="96.74" r="5.09"/><circle class="cls-1" cx="274.92" cy="44.4" r="6.67"/><circle class="cls-1" cx="192.01" cy="133.74" r="5.09"/><circle class="cls-1" cx="111.25" cy="75.07" r="6.67"/><circle class="cls-1" cx="16.25" cy="94.4" r="6.67"/><circle class="cls-1" cx="73.25" cy="107.65" r="5.09"/><circle class="cls-1" cx="81.25" cy="41.74" r="5.09"/><circle class="cls-1" cx="44.92" cy="43.74" r="6.67"/><circle class="cls-1" cx="109.67" cy="24.33" r="6.67"/><circle class="cls-1" cx="235.59" cy="44.4" r="6.67"/><circle class="cls-1" cx="32.25" cy="127.07" r="6.67"/><circle class="cls-1" cx="133.75" cy="82.24" r="5.09"/><circle class="cls-1" cx="63.25" cy="12.74" r="5.09"/><circle class="cls-1" cx="164.25" cy="22.74" r="6.67"/><circle class="cls-1" cx="237.25" cy="14.07" r="6.67"/><circle class="cls-1" cx="148.25" cy="134.07" r="6.67"/><circle class="cls-1" cx="88.17" cy="139.74" r="5.09"/><circle class="cls-1" cx="154.25" cy="107.65" r="5.09"/><circle class="cls-1" cx="14.25" cy="28.74" r="6.67"/><circle class="cls-1" cx="219.59" cy="73.74" r="6.67"/><circle class="cls-1" cx="288.34" cy="129.74" r="5.09"/></svg>