<svg id="Texture_Porous" xmlns="http://www.w3.org/2000/svg" viewBox="0 0 650 100"><defs><style>.cls-1{stroke:#000;stroke-miterlimit:10;}.cls-2{fill:none;}</style></defs><title>CP_Porous</title><circle class="cls-1" cx="172.1" cy="54.25" r="6.67"/><circle class="cls-1" cx="203.77" cy="26.25" r="5.09"/><circle class="cls-1" cx="269.58" cy="86.75" r="5.09"/><circle class="cls-1" cx="318.77" cy="81.58" r="5.09"/><circle class="cls-1" cx="380.51" cy="31.84" r="6.67"/><circle class="cls-1" cx="444.77" cy="84.25" r="6.67"/><circle class="cls-1" cx="332.77" cy="15.58" r="6.67"/><circle class="cls-1" cx="631.44" cy="71.58" r="5.09"/><circle class="cls-1" cx="548.51" cy="85.51" r="5.09"/><circle class="cls-1" cx="115.77" cy="75.58" r="6.67"/><circle class="cls-1" cx="22.1" cy="84.92" r="6.67"/><circle class="cls-1" cx="88.1" cy="37.83" r="5.09"/><circle class="cls-1" cx="270.1" cy="34.25" r="6.67"/><circle class="cls-1" cx="154.77" cy="92.25" r="5.09"/><circle class="cls-1" cx="241.77" cy="14.58" r="6.67"/><circle class="cls-1" cx="590.1" cy="53.58" r="6.67"/><circle class="cls-1" cx="592.1" cy="97.16" r="5.09"/><circle class="cls-1" cx="491.77" cy="69.58" r="6.67"/><circle class="cls-1" cx="117.77" cy="17.25" r="5.09"/><circle class="cls-1" cx="18.77" cy="29.25" r="6.67"/><circle class="cls-1" cx="630.1" cy="20.25" r="6.67"/><circle class="cls-1" cx="513.6" cy="15" r="5.09"/><circle class="cls-1" cx="466.77" cy="21.92" r="6.67"/><circle class="cls-1" cx="410.1" cy="57.58" r="5.09"/><rect class="cls-2" x="0.77" y="2.25" width="650" height="96"/><circle class="cls-1" cx="228.77" cy="64.16" r="5.09"/><circle class="cls-1" cx="410.77" cy="14.25" r="5.09"/></svg>