<svg id="Texture_SlightlyPorous" xmlns="http://www.w3.org/2000/svg" viewBox="0 0 650 150"><defs><style>.cls-1{stroke:#000;stroke-miterlimit:10;}</style></defs><title>CP_SlightlyPorous</title><circle class="cls-1" cx="206" cy="74.33" r="6.67"/><circle class="cls-1" cx="203" cy="24" r="5.09"/><circle class="cls-1" cx="327" cy="85" r="5.09"/><circle class="cls-1" cx="419.33" cy="33" r="6.67"/><circle class="cls-1" cx="332" cy="13.33" r="6.67"/><circle class="cls-1" cx="195.75" cy="132" r="5.09"/><circle class="cls-1" cx="531.09" cy="135" r="5.09"/><circle class="cls-1" cx="72.33" cy="75" r="6.67"/><circle class="cls-1" cx="269" cy="49" r="6.67"/><circle class="cls-1" cx="55" cy="123.09" r="5.09"/><circle class="cls-1" cx="446" cy="129.33" r="6.67"/><circle class="cls-1" cx="568.67" cy="35" r="6.67"/><circle class="cls-1" cx="635" cy="122" r="5.09"/><circle class="cls-1" cx="117" cy="15" r="5.09"/><circle class="cls-1" cx="18" cy="27" r="6.67"/><circle class="cls-1" cx="629.33" cy="18" r="6.67"/><circle class="cls-1" cx="416" cy="91.66" r="6.67"/><circle class="cls-1" cx="568" cy="89" r="5.09"/><circle class="cls-1" cx="512.83" cy="12.75" r="5.09"/><circle class="cls-1" cx="497" cy="60" r="6.67"/><circle class="cls-1" cx="302.26" cy="128" r="5.09"/></svg>