<svg id="Inclusion_Grain_Small_" data-name="Inclusion (Grain Small)" xmlns="http://www.w3.org/2000/svg" viewBox="0 0 300 50"><defs><style>.cls-1{fill:#fff;stroke:#1d1d1b;stroke-miterlimit:10;stroke-width:0.5px;}.cls-2{fill:none;}</style></defs><title>CP_InclusionGrainSmall</title><path class="cls-1" d="M71,50H53.94a8.26,8.26,0,0,1,1.28-1.46,12.62,12.62,0,0,1,6.54-1.91c1.9,0.16,4.93,1.3,8.54,2.94A3.41,3.41,0,0,1,71,50Z"/><path class="cls-1" d="M180,17c-3.55-1.61-6.52-2.73-8.39-2.89a12.49,12.49,0,0,0-6.43,1.88c-1,.85-3.24,3.82-1.58,4.57s4.14,3.14,6.1,2.81-0.81-4.87,2.32-4.17,2.63,0.05,5.37-.21S182.29,18,180,17Z"/><path class="cls-1" d="M195.2,50H182.71c-0.75-1.3-1.55-2.68-2.19-3.83-1.79-3.22,4.8-4.83,4.8-4.83s4.43,0.64,6,0,1.78,2.25,3.52,6.5A5.11,5.11,0,0,1,195.2,50Z"/><path class="cls-1" d="M254.42,16.5c-1.32,3.22-3.77,2.06-4.55,4.59s-0.5,6.54-1.44,9.71-2.59,6.13-2,8.39,2,3.61,2.23,2.53a12.76,12.76,0,0,1,1-3.37,24.33,24.33,0,0,0,1.89-6.11c0.36-2.43-.25-2.16,1.38-3.73s3.11-2.27,3.32-4.74-0.62-2-.79-4.17S255.27,14.45,254.42,16.5Z"/><path class="cls-1" d="M97.67,15.46s-6,1.28-4.34,3.85,4.34,6.51,4.34,6.51h6.38s3.75-1.8,2.18-5.18-1.8-5.7-3.18-5.18S97.67,15.46,97.67,15.46Z"/><path class="cls-1" d="M24.92,28.75c-0.34-3,3.9-3.86,3.27-6s-3.76-4.56-4.61-7.24S23,9.8,20.62,8.75s-5.27-1-4.87-.14,0.44,0.45.83,2.88,0.37,3.4,1.51,5.21,1.83,1.22.61,3.33-2.83,3.55-1.43,5.29,2.27,0.9,4,2.17S25.14,30.64,24.92,28.75Z"/><rect class="cls-2" width="300.58" height="50"/></svg>