<svg id="Inclusion_Grain_Small_" data-name="Inclusion (Grain Small)" xmlns="http://www.w3.org/2000/svg" viewBox="0 0 500 100"><defs><style>.cls-1{fill:none;}.cls-2{fill:#fff;stroke:#1d1d1b;stroke-miterlimit:10;stroke-width:0.5px;}</style></defs><title>CP_InclusionGrainSmall</title><rect class="cls-1" x="0.29" y="0.45" width="500.08" height="99.47"/><path class="cls-2" d="M95,67.5c0.89,3.22-2.62,4.29-1.64,6.62s4.19,4.86,5.46,7.75,1.62,6.17,3.93,7.26,4.78,1,4.27,0a8.59,8.59,0,0,1-1.3-3.11c-0.82-2.62-1-3.69-2.36-5.63s-1.84-1.28-1.2-3.61,1.75-3.93.18-5.78-2.16-.92-3.87-2.26S94.43,65.46,95,67.5Z"/><path class="cls-2" d="M147.46,51.87a24.52,24.52,0,0,0,1,6.89,9.79,9.79,0,0,0,3.6,3.82c1,0.41,3.82.9,3.76-.53s0.72-4-.21-5.26-3.12,2.3-3.74-.13-0.9-1.86-2.06-3.68S147.37,49.93,147.46,51.87Z"/><path class="cls-2" d="M454.89,78s8.71-11.31,3.76-15.57-4.88-10.89-16.31-11.59-9.76,1.8-8.87,4.87,4.26,4,7.35,5.52,6.78,1.4,8.6,4.54-1.68,3.73-.77,6.8S453.18,80.46,454.89,78Z"/><path class="cls-2" d="M62.32,60c-3.61-1.64-6.64-2.78-8.54-2.94a12.71,12.71,0,0,0-6.54,1.91c-1,.87-3.3,3.88-1.61,4.65s4.21,3.2,6.21,2.86-0.83-5,2.36-4.24,2.68,0.05,5.47-.21S64.62,61,62.32,60Z"/><path class="cls-2" d="M38.82,86.41c2.52,2.92.34,4.53,2.43,6.59s6.07,3.94,8.71,6.48,4.77,5.61,7.22,6.26,4.34,0.11,3.41-.69a15.66,15.66,0,0,1-2.78-2.74,29.87,29.87,0,0,0-5.05-5c-2.18-1.62-2.18-.92-3-3.24s-0.82-4-3.12-5.55-2.24-.52-4.35-1.5S37.22,84.56,38.82,86.41Z"/><path class="cls-2" d="M180.31,17.83c-3.55-1.61-6.52-2.73-8.39-2.89a12.49,12.49,0,0,0-6.43,1.88c-1,.85-3.24,3.82-1.58,4.57s4.14,3.14,6.1,2.81-0.81-4.87,2.32-4.17,2.63,0.05,5.37-.21S182.57,18.85,180.31,17.83Z"/><path class="cls-2" d="M209.52,50.49s-6.59,1.61-4.8,4.84,4.8,8.16,4.8,8.16h7.06s4.15-2.26,2.41-6.5-2-7.14-3.52-6.5S209.52,50.49,209.52,50.49Z"/><path class="cls-2" d="M347.37,62.42c-3.29,1.15-4-1.45-6.46-.36s-5.23,4-8.22,5.36-6.3,2.13-7.59,4.09-1.39,3.88-.42,3.35a12.76,12.76,0,0,1,3.21-1.45,24.33,24.33,0,0,0,5.83-2.63c2.06-1.34,1.45-1.62,3.7-1.44s3.76,0.83,5.75-.66,1.11-1.82,2.6-3.35S349.46,61.69,347.37,62.42Z"/><path class="cls-2" d="M297.53,77.88c-2.25-.19-3.56,4.36-5.14,3.82s-3-3.74-4.92-4.49-4.32-.26-4.78-2.77,0-5.54.61-5.17,0.29,0.44,2.1.72,2.57,0.2,3.81,1.31,0.68,1.87,2.49.46,3.16-3.21,4.3-1.81,0.36,2.36,1.09,4.08S299,78,297.53,77.88Z"/><path class="cls-2" d="M393.07,92.78s-3.53.86-2.57,2.59,2.57,4.37,2.57,4.37h3.78a2.79,2.79,0,0,0,1.29-3.48c-0.93-2.27-1.06-3.82-1.88-3.48A9.51,9.51,0,0,1,393.07,92.78Z"/><path class="cls-2" d="M459,20.31s-1.26-7.71-4.69-7.71-6-2.76-10.34,1-2.81,4.17-1.3,5.12,3.07,0.14,4.78-.32,3-1.81,4.85-1.16,0.84,2.12,2.36,3.06S459.38,21.93,459,20.31Z"/><path class="cls-2" d="M380.08,48.74s-6.59,1.61-4.8,4.84,4.8,8.16,4.8,8.16h7.06s4.15-2.26,2.41-6.5-2-7.14-3.52-6.5S380.08,48.74,380.08,48.74Z"/><path class="cls-2" d="M348.73,7.42s-6,1.28-4.34,3.85,4.34,6.51,4.34,6.51h6.38s3.75-1.8,2.18-5.18-1.8-5.7-3.18-5.18S348.73,7.42,348.73,7.42Z"/><path class="cls-2" d="M25.2,29.61c-0.34-3,3.9-3.86,3.27-6S24.71,19,23.87,16.35s-0.55-5.69-3-6.75-5.27-1-4.87-.14,0.44,0.45.83,2.88,0.37,3.4,1.51,5.21,1.83,1.22.61,3.33-2.83,3.55-1.43,5.29,2.27,0.9,4,2.17S25.42,31.5,25.2,29.61Z"/><path class="cls-2" d="M242.74,90a24.52,24.52,0,0,0,1,6.89,9.79,9.79,0,0,0,3.6,3.82c1,0.41,3.82.9,3.76-.53s0.72-4-.21-5.26-3.12,2.3-3.74-.13-0.9-1.86-2.06-3.68S242.66,88,242.74,90Z"/></svg>