<svg id="Inclusion_Grain_Small_" data-name="Inclusion (Grain Small)" xmlns="http://www.w3.org/2000/svg" viewBox="0 0 650 50"><defs><style>.cls-1{fill:#fff;stroke:#1d1d1b;stroke-miterlimit:10;stroke-width:0.5px;}.cls-2{fill:none;}</style></defs><title>CP_InclusionGrainSmall</title><path class="cls-1" d="M71,50H54a8.26,8.26,0,0,1,1.28-1.46,12.62,12.62,0,0,1,6.54-1.91c1.9,0.16,4.93,1.3,8.54,2.94A3.41,3.41,0,0,1,71,50Z"/><path class="cls-1" d="M180,17c-3.55-1.61-6.52-2.73-8.39-2.89a12.49,12.49,0,0,0-6.43,1.88c-1,.85-3.24,3.82-1.58,4.57s4.14,3.14,6.1,2.81-0.81-4.87,2.32-4.17,2.63,0.05,5.37-.21S182.3,18,180,17Z"/><path class="cls-1" d="M195.21,50H182.72c-0.75-1.3-1.55-2.68-2.19-3.83-1.79-3.22,4.8-4.83,4.8-4.83s4.43,0.64,6,0,1.78,2.25,3.52,6.5A5.11,5.11,0,0,1,195.21,50Z"/><path class="cls-1" d="M254.43,16.5c-1.32,3.22-3.77,2.06-4.55,4.59s-0.5,6.54-1.44,9.71-2.59,6.13-2,8.39,2,3.61,2.23,2.53a12.76,12.76,0,0,1,1-3.37,24.33,24.33,0,0,0,1.89-6.11c0.36-2.43-.25-2.16,1.38-3.73s3.11-2.27,3.32-4.74-0.62-2-.79-4.17S255.28,14.45,254.43,16.5Z"/><path class="cls-1" d="M458.76,19.44s-1.26-7.71-4.69-7.71-6-2.76-10.34,1-2.81,4.17-1.3,5.12,3.07,0.14,4.78-.32,3-1.81,4.85-1.16,0.84,2.12,2.36,3.06S459.11,21.07,458.76,19.44Z"/><path class="cls-1" d="M619.07,35s6.29-.64,6.93-3.14,3.28-4.27,1.16-7.61-2.75-2.21-3.78-1.14-0.68,2.25-.64,3.51,0.87,2.25,0,3.59-1.82.54-2.84,1.61S617.73,35.17,619.07,35Z"/><path class="cls-1" d="M388.73,50H375.15L375,49.73c-1.79-3.23,4.8-4.84,4.8-4.84s4.43,0.65,6,0C387.11,44.32,387.46,46.54,388.73,50Z"/><path class="cls-1" d="M559.69,50H547.47a11.21,11.21,0,0,1,4.32-2.12s4.43,0.65,6,0C558.65,47.5,559.11,48.36,559.69,50Z"/><path class="cls-1" d="M348.45,6.56s-6,1.28-4.34,3.85,4.34,6.51,4.34,6.51h6.38s3.75-1.8,2.18-5.18-1.8-5.7-3.18-5.18S348.45,6.56,348.45,6.56Z"/><path class="cls-1" d="M523.87,16.19c-2-.94-1.12-2.76-2.71-3.31S517,12.59,515,11.94s-3.81-1.84-5.31-1.35-2.45,1.52-1.76,1.68A7,7,0,0,1,510,13a13.11,13.11,0,0,0,3.84,1.32c1.55,0.24,1.41-.21,2.33,1s1.29,2.27,2.88,2.4,1.35-.49,2.73-0.63S525.14,16.79,523.87,16.19Z"/><path class="cls-1" d="M24.93,28.75c-0.34-3,3.9-3.86,3.27-6s-3.76-4.56-4.61-7.24S23,9.8,20.63,8.75s-5.27-1-4.87-.14,0.44,0.45.83,2.88,0.37,3.4,1.51,5.21,1.83,1.22.61,3.33-2.83,3.55-1.43,5.29,2.27,0.9,4,2.17S25.15,30.64,24.93,28.75Z"/><rect class="cls-2" x="0.01" width="650.01" height="50"/></svg>