<svg id="Cracking_Network" xmlns="http://www.w3.org/2000/svg" viewBox="0 0 300 50"><title>CP_CrackingNetwork</title><path d="M299,22.86c-5.85-.48-11.7-1-17.54-1.49h0.19l-21.93,6.46c-1.83.53-3.68,1-5.52,1.47l-5.53,1.46-11,2.94-0.23.06-0.23,0L164.52,22h0.31l-74.9,8.83-0.13,0-0.13,0L34.24,24.16,20.38,22.53c-2.31-.31-4.6-0.66-6.91-1l-6.91-1C-2.64,19.18-11.85,17.84-21,16.43c9.27,0.8,18.54,1.68,27.8,2.54l6.95,0.65c2.32,0.22,4.63.42,6.95,0.66L34.51,22l55.42,6.62H89.66l74.9-8.83,0.15,0,0.15,0,72.64,11.77-0.46,0,11-2.94,5.52-1.48c1.84-.5,3.67-1,5.52-1.47l22.26-5.31,0.1,0h0.09C287.39,21.14,293.2,22,299,22.86Z"/><path d="M86.12,0q0.56,1.51,1.06,3l1,3.05L89,12.34l1.8,12.5,1.8,12.5,0.9,6.25c0,2.13-.06,4.26-0.2,6.41h0c-0.74-2-1.37-4.06-2-6.09l-0.9-6.25-1.8-12.5-1.8-12.5L85.91,6.41,86,3.21Q86,1.61,86.12,0Z"/><path d="M165,0c-0.18.89-.36,1.78-0.56,2.65l0-.28c0.26,0.76.5,1.52,0.74,2.28l0.36,1.14A5.75,5.75,0,0,1,165.74,7l0.7,4.68,1.4,9.36-1.1-.94h1L167.85,21q1.11,7.24,2.3,14.46c0.4,2.4.81,4.81,1.26,7.2a6.18,6.18,0,0,1,.17.9l0,0.92,0.07,1.84c0,0.61,0,1.23.08,1.84A9.55,9.55,0,0,0,172,50h0a8.84,8.84,0,0,1-.9-1.66c-0.25-.57-0.49-1.15-0.72-1.73l-0.65-1.75L169.38,44a6,6,0,0,1-.16-0.91c-0.44-2.41-.86-4.82-1.26-7.24q-1.21-7.24-2.31-14.49l1.1,0.94h-1l-0.14-.94L164.24,12l-0.7-4.68a5.76,5.76,0,0,1-.16-1.17V4.92c0-.8,0-1.6,0-2.4V2.29l0,0C163.95,1.49,164.47.75,165,0Z"/><path d="M279.67,0c0.5,1,1,1.94,1.45,2.93s0.91,2,1.35,3L283.3,9c0.27,1.06.54,2.05,0.77,3.21l0,0.26,0,0.19a1,1,0,0,1,0,.14v0.05c0,0.1,0,.4-0.05.5l-0.14.84-0.31,1.6L283,19l-0.71,3.15-0.73,3.13-2.9,12.51L277.18,44c-0.81,2-1.62,4-2.54,6h0c0-2.19.21-4.34,0.37-6.51l1.45-6.26,2.9-12.51,0.73-3.13,0.7-3.12,0.66-3.13,0.3-1.55a3.94,3.94,0,0,0,.13-1.2c-0.18-.94-0.47-2-0.73-3s-0.56-2.06-.84-3.09C280.06,4.34,279.79,2.19,279.67,0Z"/></svg>