<svg id="Cracking_Network" xmlns="http://www.w3.org/2000/svg" viewBox="0 0 300 150"><defs><style>.cls-1{fill:none;stroke:#000;stroke-miterlimit:10;}</style></defs><title>CP_CrackingNetwork</title><path d="M301,19.71l-14,3.68-14,3.63-7,1.81c-2.33.6-4.65,1.23-7,1.75-4.7,1-9.38,2.15-14.06,3.23l-56.23,13-0.33.08-0.33-.12-80-29.71,0.53,0.06-60.12,8-15,2q-3.75.55-7.52,0.93l-7.54.8L3.31,30.4l-15.09,1.54,15-2.44,15-2.39,7.49-1.19q3.74-.63,7.51-1.07l15-2,60.12-8,0.27,0L108.85,15l80.09,29.73-0.66,0,56.23-13c4.68-1.09,9.38-2.15,14.05-3.28,2.34-.57,4.7-1,7.06-1.51l7.07-1.44,14.14-2.88Z"/><path d="M301,87.3L290.93,93l-10.1,5.61-0.17.1-0.23,0-13.72-1.76c-2.29-.3-4.58-0.57-6.85-0.94L253,94.85l-27.34-4.23L171,82.15h0.24L94.86,87.31H94.74l-0.12,0L35.46,78.47,20.67,76.28c-2.47-.33-4.92-0.8-7.38-1.22L5.92,73.76C-3.9,72-13.73,70.33-23.54,68.54c9.91,1.15,19.8,2.38,29.7,3.6l7.42,0.91c2.47,0.31,5,.58,7.41,1l14.79,2.23L95,85.1H94.72l76.39-5.15h0.12l0.12,0L226,88.41l27.34,4.23,6.84,1c2.28,0.34,4.55.77,6.82,1.18l13.61,2.47-0.4.07,10.37-5.07Z"/><path d="M301,119.86c-5.85-.48-11.7-1-17.54-1.49h0.19l-21.93,6.46c-1.83.53-3.68,1-5.52,1.47l-5.53,1.46-11,2.94-0.23.06-0.23,0-72.64-11.77h0.31l-74.9,8.83-0.13,0-0.13,0-55.42-6.62-13.86-1.64c-2.31-.31-4.6-0.66-6.91-1l-6.91-1c-9.21-1.35-18.42-2.68-27.62-4.09,9.27,0.8,18.54,1.68,27.8,2.54l6.95,0.65c2.32,0.22,4.63.42,6.95,0.66L36.5,119l55.42,6.62H91.66l74.9-8.83,0.15,0,0.15,0,72.64,11.77-0.46,0,11-2.94,5.52-1.48c1.84-.5,3.67-1,5.52-1.47l22.26-5.31,0.1,0h0.09C289.39,118.14,295.2,119,301,119.86Z"/><path d="M109-3c0.13,1.72.29,3.45,0.4,5.17l0.35,5.17,0.35,5.17a23.85,23.85,0,0,1,.06,2.58c0,0.86,0,1.72,0,2.59l0,20.68v0.2l-0.07.18-21,58.13,0.05-.54L91,109l0.91,6.31,0.93,6.31c0.25,2.11.43,4.23,0.65,6.35l0.63,6.35q0.65,6.35,1.22,12.71-1.25-6.26-2.41-12.54l-1.18-6.27c-0.39-2.09-.8-4.18-1.16-6.28l-0.88-6.32-0.91-6.31L86.95,96.66l0-.28L87,96.13,108,38l-0.07.38,0-20.68c0-.86,0-1.72,0-2.58a23.85,23.85,0,0,1,0-2.59l0.33-5.17,0.33-5.17C108.69,0.46,108.85-1.26,109-3Z"/><path d="M174,147a15.29,15.29,0,0,1-1-2.86c-0.26-1-.51-2-0.74-2.93-0.47-2-.89-3.93-1.31-5.9-0.84-3.94-1.64-7.89-2.42-11.84-0.4-2-.78-4-1-5.95l-0.89-6-1.77-11.94,0-.31,0.12-.29L173,80l4-9.52,2-4.76,1-2.36,1-2.4,15.36-38.42v0.8l-1.21-3.23c-0.42-1.07-.84-2.14-1.18-3.25l-2.09-6.59-2.09-6.59-2-6.61,2.79,6.33,2.74,6.35L196,16.05c0.47,1.05.86,2.14,1.24,3.22l1.2,3.24,0.15,0.4-0.16.4L183.07,61.74l-1,2.4-1,2.41-2,4.76-4,9.52-8.08,19,0.08-.59,1.76,11.93c0.31,2,.59,4,0.92,6s0.58,4,.81,6c0.47,4,1,8,1.47,12l0.82,6c0.14,1,.29,2,0.46,3A15.2,15.2,0,0,0,174,147Z"/><path d="M276.64,147l4.6-23.46,1.11-5.87c0.34-2,.78-3.9,1.19-5.83,0.1-.48.2-1,0.27-1.43l0.05-.34a2.67,2.67,0,0,0,0-.27v-0.05a0.61,0.61,0,0,1,0,.08v-0.07l0-.19a2.44,2.44,0,0,0-.06-0.3l-0.15-.64-0.17-.71-0.37-1.43-1.57-5.75c-4.31-15.32-8.82-30.6-13.34-45.88l-0.16-.53,0.33-.45,19.1-25.76,4.77-6.44,2.38-3.23a39.14,39.14,0,0,1,2.49-3.15c3.45-4.1,6.85-8.23,10.35-12.28-2.86,4.53-5.83,9-8.74,13.47a39.14,39.14,0,0,1-2.29,3.29L294.06,23l-4.77,6.44-19.1,25.76,0.17-1c4.52,15.28,9,30.56,13.35,45.91l1.58,5.78,0.38,1.46,0.18,0.74,0.09,0.37L286,109c0,0.14.07,0.32,0.08,0.43l0,0.19v0.07s0,0.21,0,.13v0.13a4.47,4.47,0,0,1-.05.47l-0.06.4-0.27,1.5c-0.37,2-.78,3.93-1.3,5.86l-1.51,5.79-3.09,11.55C278.81,139.34,277.72,143.17,276.64,147Z"/><polygon points="73.77 20.92 43.97 42.01 73.18 20.11 73.77 20.92"/><rect class="cls-1" width="301" height="151"/></svg>