<svg id="Cracking_Network" xmlns="http://www.w3.org/2000/svg" viewBox="0 0 500 150"><defs><style>.cls-1{fill:none;}</style></defs><title>CP_CrackingNetwork</title><path d="M500,45.8l-5.41.41c-0.91.06-1.77,0.16-2.73,0.18a14.18,14.18,0,0,1-2.52-1.09c-1.64-.82-3.19-1.73-4.78-2.61s-3.13-1.81-4.68-2.74c-6.21-3.7-12.36-7.49-18.5-11.3L443,17.14c-1.53-1-3-2-4.55-2.94l-4.53-3-9-6,0.76,0.18L302.38,21.6l0.11,0L184.8,48.81l-0.33.08-0.33-.12-80-29.71,0.53,0.06-30.06,4-15,2c-5,.71-10,1.3-15,1.88l-60.26,7c20-3.06,40-6,60-9,5-.75,10-1.48,15-2.1l15-2,30.06-4,0.27,0L104.87,17,185,46.69l-0.66,0L302,19.42h0.11L425.37,3.21l0.41-.05,0.35,0.23,9,6,4.53,3c1.5,1,3,2,4.51,3l18,12.09c6,4,12,8,18.11,11.88l4.58,2.89c1.54,0.93,3.07,1.91,4.63,2.77a14.68,14.68,0,0,0,2.39,1.16c0.84,0,1.79-.06,2.67-0.08Z"/><path d="M500,85.41l-13.72,2.32h-0.1l-31.4-7.41-15.7-3.71c-5.24-1.22-10.45-2.53-15.65-3.88L360.9,56.9l0.81-.1L277.05,101l-0.32.17-0.36-.06L167,84.15h0.24L90.88,89.31H90.75l-0.12,0L61.05,84.89,46.26,82.7c-4.93-.72-9.85-1.53-14.77-2.35-19.67-3.26-39.36-6.47-59-9.8L31.78,78.4c4.94,0.65,9.89,1.3,14.81,2.06l14.79,2.22L91,87.1H90.73l76.39-5.15h0.12l0.12,0L276.71,98.88,276,99l84.61-44.15,0.39-.21,0.41,0.1L424,70.56c5.22,1.29,10.43,2.62,15.61,4l15.57,4.2,31.14,8.41h-0.1Z"/><path d="M500,115.75l-18.31-2.18h0.1l-25.14,4.33-12.57,2.16c-4.19.71-8.38,1.46-12.58,2.1l-50.44,7.69-6.32.92c-1.08.14-2,.31-3.26,0.43l-0.44,0h-0.27l-0.2,0-0.79-.08-1.59-.16-6.41-.67-6.34-.72-25.35-2.89-50.69-5.77,0.44,0L235.64,132.7l-0.23.06-0.24,0-72.65-11.78h0.31l-74.89,8.84-0.13,0-0.13,0L60,126.47l-13.86-1.64c-4.62-.55-9.22-1.23-13.83-1.84L-23,115.43c18.52,1.83,37,3.78,55.54,5.68,4.63,0.49,9.26.92,13.88,1.48l13.85,1.67,27.71,3.31H87.68l74.89-8.84,0.15,0,0.15,0,72.65,11.78-0.46,0,44.15-11.77,0.24-.06,0.21,0,50.69,5.77,25.35,2.89,6.34,0.72,6.28,0.66,1.59,0.16,0.79,0.08,0.2,0H371l0.35,0c0.9-.1,2-0.27,3.06-0.41l6.3-.92,25.22-3.82,25.21-3.9c4.2-.65,8.42-1.21,12.63-1.8l12.64-1.75,25.27-3.51h0.1Z"/><path d="M105-1c0.13,1.72.29,3.45,0.4,5.17l0.35,5.17,0.35,5.17a23.87,23.87,0,0,1,.06,2.58c0,0.86,0,1.72,0,2.59l0,20.68v0.2l-0.07.18-21,58.13,0.05-.54L87,111l0.91,6.31,0.93,6.31c0.25,2.11.43,4.23,0.65,6.35l0.63,6.35q0.65,6.35,1.22,12.71-1.25-6.26-2.41-12.54l-1.18-6.27c-0.39-2.09-.8-4.18-1.16-6.28l-0.88-6.32-0.91-6.31L83,98.66l0-.28L83,98.13,104,40l-0.07.38,0-20.68c0-.86,0-1.72,0-2.58a23.87,23.87,0,0,1,0-2.59l0.33-5.17,0.33-5.17C104.7,2.46,104.86.73,105-1Z"/><path d="M170,149a15.3,15.3,0,0,1-1-2.86c-0.26-1-.51-2-0.74-2.93-0.47-2-.89-3.93-1.31-5.9-0.84-3.94-1.64-7.89-2.42-11.84-0.4-2-.78-4-1-5.95l-0.89-6-1.77-11.94,0-.31,0.12-.29L169,82l4-9.52,2-4.76,1-2.36,1-2.4,15.36-38.42v0.8l-1.21-3.23c-0.42-1.07-.84-2.14-1.18-3.25l-2.09-6.59-2.09-6.59-2-6.61,2.79,6.33,2.74,6.35L192,18.05c0.47,1.05.86,2.14,1.24,3.22l1.2,3.24,0.15,0.4-0.16.4L179.08,63.74l-1,2.4-1,2.41-2,4.76-4,9.52-8.08,19,0.08-.59,1.76,11.93c0.31,2,.59,4,0.92,6s0.58,4,.81,6c0.47,4,1,8,1.47,12l0.82,6c0.14,1,.29,2,0.46,3A15.21,15.21,0,0,0,170,149Z"/><path d="M272.65,149l4.6-23.46,1.11-5.87c0.34-2,.78-3.9,1.19-5.83,0.1-.48.2-1,0.27-1.43l0.05-.34a2.66,2.66,0,0,0,0-.27v-0.05a0.6,0.6,0,0,1,0,.08v-0.07l0-.19a2.46,2.46,0,0,0-.06-0.3l-0.15-.64-0.17-.71-0.37-1.43-1.57-5.75c-4.31-15.32-8.82-30.6-13.34-45.88l-0.16-.53,0.33-.45,19.1-25.76,4.77-6.44,2.38-3.23a39.14,39.14,0,0,1,2.49-3.15C296.59,13.23,300,9.1,303.5,5c-2.86,4.53-5.83,9-8.74,13.47a39.16,39.16,0,0,1-2.29,3.29L290.07,25l-4.77,6.44L266.2,57.22l0.17-1c4.52,15.28,9,30.56,13.35,45.91l1.58,5.78,0.38,1.46,0.18,0.74,0.09,0.37L282,111c0,0.14.07,0.32,0.08,0.43l0,0.19v0.07s0,0.21,0,.13v0.13a4.42,4.42,0,0,1-.05.47l-0.06.4-0.27,1.5c-0.37,2-.78,3.93-1.3,5.86l-1.51,5.79-3.09,11.55C274.82,141.34,273.73,145.17,272.65,149Z"/><path d="M432.32-.1q-3.45,5.54-7,11l-3.52,5.5c-1.18,1.82-2.32,3.68-3.54,5.48s-2.53,3.53-3.77,5.32l-3.74,5.34-7.49,10.67-0.21.31-0.36.11L361.51,56.88l0.75-.82-10.48,47.1-0.08-.71,12,25.75c0.51,1.07,1,2.13,1.49,3.22l1.36,3.28,2.72,6.57q2.73,6.56,5.4,13.15-3.34-6.28-6.58-12.6l-3.27-6.31-1.63-3.16c-0.54-1.05-1-2.14-1.51-3.21l-12-25.76-0.16-.34,0.08-.37,10.48-47.1,0.14-.62,0.61-.2L402,41.52l-0.57.42,7.49-10.67,3.74-5.34c1.26-1.77,2.49-3.56,3.72-5.35s2.64-3.46,3.95-5.19l4-5.17Q428.28,5,432.32-.1Z"/><path d="M476,146.34a15.8,15.8,0,0,0,.47-3l0.25-3c0.16-2,.29-4,0.41-6l0.32-6c0.12-2,.14-4,0.38-6s0.38-4,.56-6l0.52-6,1-12,0-.18,0.07-.16L492.7,67.9l-0.08.54-3.2-34.66-0.8-8.67-0.41-4.33c-0.19-1.44-.24-2.89-0.28-4.34-0.2-5.81-.47-11.61-0.6-17.42,0.94,5.74,1.74,11.49,2.6,17.24,0.22,1.44.44,2.87,0.52,4.32l0.39,4.33,0.8,8.67,3.2,34.66,0,0.28-0.11.26L482,98.94l0.08-.35-1,12-1,12c-0.13,2-.49,4-0.77,6l-0.91,6c-0.31,2-.64,4-1,6-0.18,1-.38,2-0.59,3A15.92,15.92,0,0,1,476,146.34Z"/><polygon points="360.93 57.12 338.7 41.11 362.15 55.26 360.93 57.12"/><polygon points="69.78 22.91 39.99 44.01 69.19 22.11 69.78 22.91"/><rect class="cls-1" width="500" height="148"/></svg>