<svg id="Cracking_Network" xmlns="http://www.w3.org/2000/svg" viewBox="0 0 650 150"><title>CP_CrackingNetwork</title><path d="M0.25,34.93l30-4.47,30-4.41,7.5-1.1c2.5-.36,5-0.75,7.5-1.08,5-.71,10-1.31,15-2l30.06-4,0.27,0,0.26,0.1,80.06,29.72-0.64,0L318,20.41h0.11L441.39,4.2l0.41-.05,0.35,0.23q17.31,11.45,34.74,22.72c5.81,3.75,11.64,7.48,17.5,11.13,2.93,1.82,5.88,3.64,8.84,5.37,1.47,0.85,3,1.75,4.44,2.39,0.15,0.07.38,0.14,0.36,0.14h0.44l1.29-.06,2.56-.15,41.42-2.77c6.9-.48,13.8-1,20.72-1.38l20.73-1.18-0.31.09,56.4-28L595.61,42.07l-0.14.07H595.3l-20.69,1.71c-6.9.59-13.8,1-20.71,1.48l-41.44,2.78-2.62.15-1.3.06h-0.49a2,2,0,0,1-.37,0,4.11,4.11,0,0,1-.86-0.28,52.85,52.85,0,0,1-4.7-2.52c-3-1.76-6-3.58-8.9-5.41q-8.82-5.5-17.53-11.15Q458.23,17.71,440.92,6.23l0.76,0.18L318.39,22.6l0.11,0L200.81,49.8l-0.33.08-0.31-.12L120.11,20l0.53,0.06-30.06,4c-5,.65-10,1.38-15,2-2.5.34-5,.6-7.53,0.91l-7.53.89L30.38,31.43Z"/><path d="M-11.51,71.53l59.28,8.06,14.82,2,7.41,1c2.47,0.34,4.94.66,7.41,1L107,88.09h-0.24l76.39-5.15h0.12l0.12,0L292.72,99.87,292,100l84.63-44.15,0.38-.2,0.41,0.1L502.53,87.38l-0.44,0c14.86-2.23,29.7-4.46,44.6-6.52,1.87-.25,3.72-0.5,5.62-0.71,0.45-.06,1-0.09,1.51-0.13h0.29l0.17,0,0.35,0.06,0.69,0.11c0.92,0.14,1.89.36,2.83,0.53l5.58,1.14L569.23,83l11,2.36q5.51,1.16,11,2.39L635.14,98,679,108.32,590.78,90l-22-4.76-5.51-1.16-5.45-1.12c-0.9-.17-1.77-0.38-2.71-0.52l-0.69-.11-0.35-.06-0.17,0h-0.06c-0.42,0-.81.05-1.29,0.12-1.84.21-3.7,0.46-5.56,0.71-14.86,2-29.71,4.29-44.56,6.51l-0.22,0L502,89.54,376.91,57.89l0.79-.09L293.07,102l-0.32.17-0.36-.06L183,85.14h0.25L106.89,90.3h-0.12l-0.12,0L77.07,85.88c-2.47-.37-4.92-0.78-7.39-1.17L62.3,83.52,47.54,81.13Z"/><path d="M-7,116.42l55.51,5.86,27.75,3L104,128.56h-0.26l74.89-8.83,0.15,0,0.15,0,72.65,11.77-0.46,0,44.19-11.77,0.2-.05,0.21,0,50.68,5.82,25.35,2.86,12.67,1.38,1.56,0.15,0.73,0.06,0.18,0H387l0.4,0c1.07-.11,2.08-0.27,3.11-0.42l6.27-.92,50.43-7.7,50.41-7.82,0.16,0,0.16,0,39.59,5.49,9.9,1.37c3.28,0.44,6.63,1,9.86,1.33,6.63,0.68,13.26,1.3,19.87,2.09l79.4,9.22-79.62-7.11c-6.64-.57-13.26-1.31-19.88-2-3.39-.4-6.62-0.9-9.94-1.34l-9.9-1.37-39.59-5.49h0.32l-50.42,7.82-50.44,7.7-6.35.93c-1.07.15-2.16,0.31-3.21,0.43l-0.4,0h-0.28l-0.21,0-0.86-.07-1.62-.16-12.69-1.38-25.35-2.86-50.69-5.82,0.41,0-44.19,11.77-0.23.06-0.24,0-72.65-11.77h0.31L104,130.77l-0.13,0-0.13,0L76,127.46l-27.67-3.66Z"/><path d="M121,0c0.13,1.72.29,3.45,0.4,5.17l0.35,5.17,0.35,5.17a23.87,23.87,0,0,1,.06,2.58c0,0.86,0,1.72,0,2.59l0,20.68v0.2l-0.07.18-21,58.13,0.05-.54L103,112l0.91,6.31,0.93,6.31c0.25,2.11.43,4.23,0.65,6.35l0.63,6.35q0.65,6.35,1.22,12.71-1.25-6.26-2.41-12.54l-1.18-6.27c-0.39-2.09-.8-4.18-1.16-6.28l-0.88-6.32-0.91-6.31L99,99.65l0-.28L99,99.12,120,41l-0.07.38,0-20.68c0-.86,0-1.72,0-2.58a23.87,23.87,0,0,1,0-2.59l0.33-5.17,0.33-5.17C120.71,3.45,120.87,1.72,121,0Z"/><path d="M186,150a15.29,15.29,0,0,1-1-2.86c-0.26-1-.51-2-0.74-2.93-0.47-2-.89-3.93-1.31-5.9-0.84-3.94-1.64-7.89-2.42-11.84-0.4-2-.78-4-1-5.95l-0.89-6-1.77-11.94,0-.31,0.12-.29L185,83l4-9.52,2-4.76,1-2.36,1-2.4,15.36-38.42v0.8L207.16,23c-0.42-1.07-.84-2.14-1.18-3.25l-2.09-6.59L201.8,6.61l-2-6.61,2.79,6.33,2.74,6.35L208,19c0.47,1.05.86,2.14,1.24,3.22l1.2,3.24,0.15,0.4-0.16.4L195.1,64.73l-1,2.4-1,2.41-2,4.76-4,9.52-8.08,19,0.08-.59,1.76,11.93c0.31,2,.59,4,0.92,6s0.58,4,.81,6c0.47,4,1,8,1.47,12l0.82,6c0.14,1,.29,2,0.46,3A15.2,15.2,0,0,0,186,150Z"/><path d="M288.67,150l4.6-23.46,1.11-5.87c0.34-2,.78-3.9,1.19-5.83,0.1-.48.2-1,0.27-1.43l0.05-.34a2.66,2.66,0,0,0,0-.27v-0.05a0.6,0.6,0,0,1,0,.08v-0.07l0-.19a2.44,2.44,0,0,0-.06-0.3l-0.15-.64-0.17-.71-0.37-1.43-1.57-5.75c-4.31-15.32-8.82-30.6-13.34-45.88l-0.16-.53,0.33-.45,19.1-25.76,4.77-6.44,2.38-3.23a39.14,39.14,0,0,1,2.49-3.15c3.45-4.1,6.85-8.23,10.35-12.28-2.86,4.53-5.83,9-8.74,13.47a39.14,39.14,0,0,1-2.29,3.29L306.08,26l-4.77,6.44-19.1,25.76,0.17-1c4.52,15.28,9,30.56,13.35,45.91l1.58,5.78,0.38,1.46,0.18,0.74L298,111.5l0.09,0.45c0,0.14.07,0.32,0.08,0.43l0,0.19v0.07s0,0.21,0,.13v0.13a4.44,4.44,0,0,1-.05.47l-0.06.4-0.27,1.5c-0.37,2-.78,3.93-1.3,5.86L295,126.92l-3.09,11.55C290.84,142.33,289.75,146.16,288.67,150Z"/><path d="M448.33,0.89q-3.45,5.54-7,11l-3.52,5.5c-1.18,1.82-2.32,3.68-3.54,5.48s-2.53,3.53-3.77,5.32l-3.74,5.34-7.49,10.67-0.21.31-0.36.11L377.52,57.87l0.75-.82-10.49,47.1-0.08-.71,12,25.75c0.51,1.07,1,2.13,1.49,3.22l1.36,3.28,2.72,6.57q2.73,6.56,5.4,13.15-3.34-6.28-6.58-12.6l-3.27-6.31-1.63-3.16c-0.54-1.05-1-2.14-1.51-3.21l-12-25.76-0.16-.34,0.08-.37,10.49-47.1,0.14-.62,0.61-.2L418,42.51l-0.57.42,7.49-10.67,3.74-5.34c1.26-1.77,2.49-3.56,3.72-5.35s2.64-3.46,3.95-5.19l4-5.17Q444.29,6,448.33.89Z"/><path d="M492,147.33a15.8,15.8,0,0,0,.47-3l0.25-3c0.16-2,.29-4,0.41-6l0.32-6c0.12-2,.14-4,0.38-6s0.38-4,.56-6l0.52-6,1-12V99.22l0.07-.16,12.73-30.17-0.08.54-3.2-34.66-0.8-8.67-0.41-4.33c-0.19-1.44-.24-2.89-0.28-4.34-0.2-5.81-.47-11.61-0.6-17.42,0.94,5.74,1.74,11.49,2.6,17.24,0.22,1.44.44,2.87,0.52,4.32l0.39,4.33,0.8,8.67,3.2,34.66,0,0.28-0.11.26L498,99.93l0.08-.35-1,12-1,12c-0.13,2-.49,4-0.77,6l-0.91,6c-0.31,2-.64,4-1,6-0.18,1-.38,2-0.59,3A15.93,15.93,0,0,1,492,147.33Z"/><path d="M589,0c1.19,5.3,2.32,10.6,3.44,15.91l1.69,8c0.28,1.33.58,2.65,0.83,4l0.67,4,5.52,32,0.69,4,0.9,3.9,1.84,7.92,3.68,15.84,7.35,31.68,0.09,0.4-0.19.36-2.5,4.87-1.25,2.44c-0.21.41-.42,0.81-0.61,1.23a9.32,9.32,0,0,1-.66,1.2c-2,3.08-3.91,6.2-6,9.25,1.27-3.45,2.69-6.83,4-10.25a9.31,9.31,0,0,1,.59-1.23c0.22-.4.43-0.8,0.64-1.21l1.25-2.44,2.5-4.87-0.09.76-7.35-31.68-3.68-15.84-1.84-7.92-0.92-4-0.69-4-5.52-32-0.71-4c-0.21-1.34-.37-2.69-0.55-4l-1.07-8.07C590.36,10.76,589.65,5.39,589,0Z"/><path d="M536.5,151.5a16.76,16.76,0,0,1,.73-3c0.31-1,.63-2,1-3,0.66-2,1.36-3.94,2.07-5.9,1.4-3.92,2.89-7.81,4.37-11.7,0.74-1.95,1.47-3.89,2.34-5.79l2.47-5.73,5-11.45-0.09.52-3-47.46-1.5-23.73-0.37-5.93a53.26,53.26,0,0,1-.15-5.95q0-6,.14-11.92,0.87,5.9,1.63,11.81a53.26,53.26,0,0,1,.6,5.92L552,34.12l1.5,23.73,3,47.46,0,0.27-0.11.25-5,11.43c-0.82,1.91-1.65,3.81-2.45,5.73s-1.66,3.81-2.54,5.69L541.28,140l-2.54,5.69c-0.42,1-.83,1.9-1.22,2.87A16.68,16.68,0,0,0,536.5,151.5Z"/><polygon points="376.94 58.11 354.71 42.1 378.17 56.25 376.94 58.11"/><polygon points="85.79 23.9 56 45 85.21 23.1 85.79 23.9"/></svg>