<svg id="Cracking_Network" xmlns="http://www.w3.org/2000/svg" viewBox="0 0 500 100"><defs><style>.cls-1{fill:none;}</style></defs><title>CP_CrackingNetwork</title><path d="M-7,33.69l26.06-3.94,26.07-3.89,6.52-1c2.17-.32,4.34-0.67,6.52-1,4.35-.62,8.71-1.14,13.06-1.72l26.12-3.46,0.27,0,0.25,0.09L178,48.53l-0.66,0L295,21.25h0.11L418.37,5,418.79,5l0.35,0.23,18.09,11.91,18,12.1c6,4,12,8,18.11,11.88L477.89,44c1.54,0.94,3.06,1.91,4.64,2.77a14.6,14.6,0,0,0,2.38,1.15c0.84,0,1.79-.06,2.67-0.08l5.41-.21-5.41.41c-0.91.06-1.77,0.16-2.73,0.18a14.26,14.26,0,0,1-2.53-1.09c-1.62-.81-3.18-1.72-4.77-2.6s-3.13-1.81-4.68-2.74c-6.21-3.7-12.37-7.49-18.51-11.3L436,19Q431.45,16.06,427,13l-9.05-6,0.76,0.18L295.38,23.44l0.11,0L177.8,50.65l-0.33.08-0.33-.12-80-29.71,0.53,0.06L71.51,24.41c-4.35.57-8.7,1.2-13.06,1.74-2.18.29-4.36,0.51-6.54,0.78l-6.54.76-26.18,3Z"/><path d="M-7,76.49c3.8,0.43,7.61.82,11.41,1.27l11.4,1.33,5.7,0.67c1.9,0.23,3.8.43,5.7,0.68l11.35,1.71L84,88.93H83.73l76.39-5.15h0.12l0.12,0,50.45,7.81,12.61,1.95c2.11,0.29,4.21.63,6.3,1L236,95.76l12.55,2.35,12.54,2.4L248.4,99l-12.67-1.56-6.34-.78c-2.12-.24-4.22-0.55-6.32-0.91l-12.61-2L160,86h0.24L83.88,91.15H83.75l-0.12,0-45.4-6.78L26.88,82.68c-1.89-.31-3.77-0.68-5.65-1l-5.65-1C8.05,79.28.52,77.92-7,76.49Z"/><path d="M270.77,101.18c3.39-2,6.78-3.94,10.19-5.86l10.21-5.81,5.11-2.9c1.71-1,3.47-1.8,5.21-2.71l10.41-5.43,41.65-21.73,0.24-.13h0.28l-0.57.16,0.1-.06,0.4-.24,0.45,0.11L417,72.4l31.27,7.91,7.82,2,3.91,1c1.3,0.32,2.62.62,3.91,1l15.49,4.51h-0.21q6.92-.8,13.84-1.52-6.84,1.33-13.68,2.6l-0.09,0-0.12,0-15.78-3.4c-1.31-.29-2.61-0.66-3.91-1l-3.91-1-7.82-2-31.27-7.91L353.9,58.74l0.85-.12-0.1.06-0.26.16h-0.32l0.52-.13L312.93,80.43l-10.41,5.43c-1.74.9-3.44,1.87-5.2,2.72L292,91.11,281.4,96.17C277.87,97.87,274.32,99.51,270.77,101.18Z"/><path d="M77.08,100.51l0-.17h0Q78,96.56,79,92.82l1-3.74c0.17-.62.33-1.25,0.56-1.85s0.47-1.2.68-1.81L86.5,70.89,97,41.83l-0.07.38,0-20.68V16.36c0-.86-0.07-1.72,0-2.58l0.2-2.59Q97.48,6,98,.85q0.52,5.17.92,10.34l0.21,2.58c0.06,0.86,0,1.72,0,2.58v5.17l0,20.68v0.2l-0.07.18L88.59,71.65,83.35,86.18c-0.23.6-.42,1.22-0.63,1.83S82.23,89.2,82,89.79l-1.6,3.53q-1.61,3.52-3.29,7h0v0.17Z"/><path d="M176.74,0.85q1.54,3.11,3,6.25l1.46,3.14c0.48,1.05,1,2.09,1.44,3.15s0.77,2.17,1.18,3.25L185,19.87l2.42,6.47,0.15,0.4-0.16.4-14.8,37-1.87,4.65-1.95,4.59-3.89,9.18L163,87.18A19.09,19.09,0,0,1,162,89.44l-1.15,2.22q-2.28,4.45-4.68,8.84c1-3.18,2-6.36,3.11-9.51l0.8-2.37a19.08,19.08,0,0,1,.89-2.33c0.67-1.52,1.3-3.06,2-4.58l3.89-9.18L168.73,68l1.85-4.6,14.8-37v0.8l-2.42-6.47-1.21-3.24c-0.39-1.08-.82-2.15-1.23-3.23s-0.65-2.21-1-3.32l-1-3.33Q177.62,4.2,176.74.85Z"/><path d="M296.5,6.89q-2.07,3.46-4.2,6.86l-2.15,3.4c-0.36.56-.71,1.14-1.09,1.69l-1.22,1.59L278.3,33.3l-19.1,25.75,0.17-1,6.24,21.4,1.56,5.35c0.24,0.9.56,1.77,0.79,2.67s0.39,1.82.59,2.73c0.78,3.64,1.53,7.29,2.22,11q-2.06-5.21-4-10.44c-0.32-.87-0.66-1.74-1-2.62s-0.49-1.79-.77-2.68l-1.56-5.35-6.24-21.38-0.16-.54,0.33-.44L276.51,32l9.55-12.88,1.17-1.63c0.41-.52.86-1,1.3-1.53l2.63-3Q293.8,9.87,296.5,6.89Z"/><path d="M344.63,100.51q0.78-5.45,1.65-10.88l0.88-5.43a27.22,27.22,0,0,1,.54-2.69l0.61-2.67,4.76-21.38,0.15-.67,0.61-.2L395,43.36l-0.57.42,15-21.34c1.24-1.78,2.51-3.55,3.74-5.34a31.07,31.07,0,0,1,1.93-2.62l2-2.56q4-5.13,8.19-10.18Q422,7.35,418.53,12.9l-1.72,2.78A31.08,31.08,0,0,1,415,18.39c-1.26,1.77-2.5,3.55-3.75,5.33l-15,21.34-0.21.31-0.36.11L354.51,58.72l0.75-.86-4.78,21.47L349.91,82a27.26,27.26,0,0,1-.65,2.67L347.75,90Q346.23,95.24,344.63,100.51Z"/><path d="M474,100.51v-0.17h0q1.2-3.94,2.49-7.84l1.29-3.9a17.32,17.32,0,0,1,.78-1.89l0.8-1.88,6.36-15.09-0.08.54-3.21-34.66-1.6-17.33-0.41-4.33-0.06-4.36q-0.05-4.36,0-8.74,0.83,4.29,1.58,8.59l0.74,4.3L483,18.07l1.6,17.33,3.21,34.66,0,0.28-0.11.26-6.36,15.09-0.79,1.89a17.32,17.32,0,0,1-.82,1.88l-1.89,3.64q-1.9,3.64-3.88,7.25h0Z"/><polygon points="353.93 58.96 331.7 42.94 355.16 57.1 353.93 58.96"/><polygon points="62.78 24.75 32.99 45.85 62.19 23.94 62.78 24.75"/><polyline class="cls-1" points="270.77 101.18 272.05 100.51 344.63 100.51 473.99 100.51 493 100.51 493 87.25 493 47.64 493 1.84 480.41 1.84 425.25 1.84 177.11 1.84 97.99 1.84 0.33 1.84 0.33 32.72 -7 33.69 -7 76.49 0.33 77.58 0.33 100.51 77.08 100.51 156.13 100.51 261.08 100.51"/></svg>