<svg id="Cracking_Network" xmlns="http://www.w3.org/2000/svg" viewBox="0 0 300 100"><title>CP_CrackingNetwork</title><path d="M1,31.16l12.5-2.08,12.51-2,12.51-2c2.09-.32,4.19-0.55,6.28-0.82l6.28-.83,50.23-6.66,0.27,0,0.25,0.09,80.09,29.73-0.66,0,56.23-13,14.06-3.26c2.34-.57,4.68-1.13,7-1.58l7.07-1.43,14.15-2.86L294,21.55l-14,3.7-14,3.65-7,1.82c-2.32.63-4.67,1.16-7,1.68L238,35.64l-56.23,13-0.33.08-0.33-.12-80-29.71,0.53,0.06L51.38,25.61l-6.28.83c-2.09.28-4.18,0.61-6.28,0.84L26.22,28.6,13.61,29.91Z"/><path d="M1,75.08l10.9,1.25,10.9,1.31,10.9,1.31c1.82,0.22,3.63.42,5.44,0.67l5.42,0.84L88,86.93H87.72l76.39-5.15h0.12l0.12,0L219,90.25l27.34,4.23,6.83,1.06c2.28,0.35,4.57.64,6.83,1.07l13.61,2.51-0.44.07,10.39-5,10.41-5-10.06,5.68-10.08,5.63-0.19.1-0.25,0-13.73-1.73c-2.29-.28-4.56-0.7-6.84-1L246,96.68l-27.34-4.23L164,84h0.24L87.86,89.15H87.74l-0.12,0L44.23,82.66l-5.43-.78c-1.81-.29-3.6-0.63-5.4-0.94L22.6,79l-10.8-1.93Z"/><path d="M81.36,100.51l-0.52-2.13v0l0-.07q1-3.76,2-7.49c0.36-1.24.66-2.5,1.06-3.72s0.9-2.41,1.34-3.62L90.49,68.9,101,39.83l-0.07.38,0-20.68V14.36c0-.86-0.07-1.72,0-2.59l0.2-2.59Q101.46,4,102-1.15c0.33,3.45.64,6.89,0.9,10.34l0.2,2.58c0.08,0.86,0,1.72,0,2.58v5.17l0,20.68v0.2l-0.07.18L92.58,69.65,87.34,84.19c-0.44,1.21-.88,2.42-1.28,3.64s-1,2.36-1.56,3.54q-1.58,3.54-3.24,7v-0.1Z"/><path d="M159.27,100.51c1-3.27,2.09-6.53,3.2-9.77a47.64,47.64,0,0,1,1.77-4.81l2-4.71,4-9.43,2-4.71,0.5-1.18,0.47-1.16,1-2.38,15.19-38v0.8l-2.42-6.47-1.21-3.24-0.61-1.62c-0.21-.54-0.44-1.06-0.6-1.62-1.3-4.43-2.59-8.87-3.79-13.34,2,4.16,4,8.36,5.89,12.55,0.24,0.53.41,1.08,0.61,1.62l0.6,1.62L189,17.87l2.42,6.47,0.15,0.4-0.16.4-15.19,38-1,2.38-0.49,1.21-0.5,1.18-2,4.71-4,9.43-2,4.72a47.67,47.67,0,0,1-2.23,4.61C162.52,94.47,160.91,97.49,159.27,100.51Z"/><path d="M300.49,4.89q-2.07,3.45-4.21,6.86l-2.15,3.4c-0.36.56-.71,1.14-1.09,1.69s-0.81,1.06-1.21,1.6L282.29,31.3l-19.1,25.75,0.17-1,6.43,22.06,1.61,5.52c0.26,0.92.55,1.83,0.83,2.75s0.41,1.87.62,2.81c0.8,3.75,1.59,7.51,2.3,11.29Q273,95.13,271,89.74c-0.33-.9-0.69-1.79-1-2.7s-0.5-1.85-.78-2.76l-1.61-5.51-6.43-22-0.16-.54,0.33-.44L280.5,30,290,17.1c0.4-.54.76-1.1,1.18-1.62s0.87-1,1.3-1.53l2.63-3Q297.79,7.88,300.49,4.89Z"/><polygon points="66.77 22.75 36.98 43.85 66.18 21.94 66.77 22.75"/></svg>