<svg id="Cracking_Network" xmlns="http://www.w3.org/2000/svg" viewBox="0 0 650 100"><title>CP_CrackingNetwork</title><path d="M-6.75,36.77l30-4.47,30-4.41,7.5-1.1c2.5-.36,5-0.75,7.5-1.08,5-.71,10-1.31,15-2l30.06-4,0.27,0,0.26,0.1,80.06,29.72-0.64,0L311,22.24h0.11L434.39,6,434.81,6l0.35,0.23q17.31,11.45,34.74,22.72c5.81,3.75,11.64,7.48,17.5,11.13,2.93,1.82,5.88,3.64,8.84,5.37,1.47,0.85,3,1.75,4.44,2.39,0.15,0.07.38,0.14,0.36,0.14h0.44l1.29-.06,2.56-.15L546.75,45c6.9-.48,13.8-1,20.72-1.38l20.73-1.18-0.31.09,56.4-28L588.61,43.91l-0.14.07h-0.17L567.61,45.7c-6.9.59-13.8,1-20.71,1.48L505.46,50l-2.62.15-1.3.06h-0.49a2,2,0,0,1-.37,0,4.11,4.11,0,0,1-.86-0.28,52.85,52.85,0,0,1-4.7-2.52c-3-1.76-6-3.58-8.9-5.41q-8.82-5.5-17.53-11.15Q451.23,19.54,433.92,8.07l0.76,0.18L311.39,24.43l0.11,0L193.81,51.64l-0.33.08-0.31-.12L113.11,21.88l0.53,0.06-30.06,4c-5,.65-10,1.38-15,2-2.5.34-5,.6-7.53,0.91l-7.53.89L23.38,33.27Z"/><path d="M266.37,99.84c-7.56-.85-15.11-1.79-22.66-2.71L238,96.43c-1.89-.24-3.78-0.45-5.66-0.71L221.12,94,176,87h0.24L99.9,92.14H99.77l-0.12,0L49.75,84.68,37.27,82.82q-3.13-.41-6.23-1l-6.21-1.13L12.41,78.43,0,76.13l12.54,1.42L25.08,79l6.27,0.73q3.14,0.34,6.25.86l12.48,1.87L100,89.92H99.75l76.39-5.15h0.12l0.12,0,45.08,7,11.27,1.73c1.87,0.32,3.74.69,5.61,1L244,95.57C251.43,97,258.9,98.36,266.37,99.84Z"/><path d="M625.47,99.84l-16.28-3.12-16.27-3.17L584.79,92c-2.72-.5-5.41-1.1-8.1-1.71l-16.19-3.49-8.1-1.69-4-.8-1-.17L547,84.06h-0.16l-0.26,0c-0.7,0-1.35.13-2,.21-2.69.33-5.45,0.71-8.17,1.09l-8.2,1.17L495.42,91.4l-0.22,0L495,91.38,369.91,59.73l0.77-.08L351,69.93l-9.87,5.15-4.93,2.58c-1.64.86-3.27,1.75-4.93,2.58l-20,9.83q-10,4.92-20,9.77Q301,94.39,310.7,89l19.49-10.77c1.63-.89,3.29-1.72,4.94-2.57l4.94-2.57L349.93,68l19.75-10.3,0.36-.19,0.41,0.1L495.52,89.21l-0.43,0,32.79-4.85,8.21-1.17c2.75-.38,5.46-0.76,8.25-1.1,0.71-.08,1.43-0.18,2.11-0.22l0.26,0H547c0.22,0,.49,0,0.66.08l1,0.18,4.08,0.81L561,84.6l16.21,3.47c2.7,0.56,5.41,1.14,8.08,1.81l8.05,2,16.09,4Z"/><path d="M93.62,99.84q0.9-3.68,1.88-7.32l1-3.64c0.17-.61.32-1.22,0.52-1.81l0.67-1.76,5.11-14.16L113,42.82l-0.07.38,0-20.68V17.35c0-.86-0.05-1.72,0-2.58l0.2-2.59Q113.48,7,114,1.84q0.53,5.17.94,10.34l0.2,2.58c0,0.86,0,1.72,0,2.59v5.17l0,20.68v0.2l-0.07.18L104.88,71.89,99.77,86.05l-0.61,1.78c-0.23.58-.5,1.15-0.76,1.73L96.84,93Q95.27,96.43,93.62,99.84Z"/><path d="M192.75,1.84q1.54,3.11,3,6.25l1.46,3.14c0.47,1.05,1,2.08,1.43,3.15,0.75,2.18,1.6,4.32,2.39,6.48l2.42,6.47,0.15,0.4-0.16.4L189,64.33l-1.81,4.52-1.9,4.51-3.8,9c-0.63,1.5-1.28,3-1.89,4.49a18.92,18.92,0,0,1-1,2.21l-1.12,2.17q-2.24,4.34-4.58,8.64,1.47-4.67,3-9.3l0.78-2.32a18.92,18.92,0,0,1,.86-2.28c0.66-1.48,1.28-3,1.91-4.48l3.8-9L185.11,68l1.81-4.52,14.46-36.19v0.8L199,21.64c-0.82-2.15-1.58-4.32-2.44-6.46-0.38-1.09-.66-2.21-1-3.32l-1-3.33Q193.63,5.19,192.75,1.84Z"/><path d="M286.13,99.84q-2-4.91-3.83-9.86l-0.93-2.47c-0.31-.82-0.48-1.69-0.73-2.53l-1.48-5.06-5.9-20.22-0.15-.53,0.33-.44L292.52,33l9.55-12.88c0.4-.53.78-1.09,1.17-1.62s0.86-1,1.29-1.54l2.63-3q2.65-3,5.34-6-2.07,3.45-4.2,6.86l-2.14,3.4c-0.36.56-.7,1.14-1.1,1.68s-0.82,1.05-1.21,1.59l-9.55,12.88L275.21,60l0.17-1,5.9,20.22,1.48,5.06c0.24,0.85.56,1.67,0.74,2.53l0.55,2.58Q285.16,94.63,286.13,99.84Z"/><path d="M361,99.84q0.74-5.24,1.57-10.46l0.84-5.22c0.14-.87.27-1.74,0.48-2.59s0.41-1.71.6-2.57l4.57-20.57,0.14-.65,0.61-.2L411,44.35l-0.57.42,15-21.34,3.74-5.34a29.42,29.42,0,0,1,1.92-2.63l2-2.56q4-5.12,8.2-10.17Q438,8.34,434.55,13.89l-1.71,2.78a29.42,29.42,0,0,1-1.82,2.7l-3.75,5.33L412.28,46l-0.21.31-0.36.11L370.52,59.71l0.75-.84-4.58,20.62q-0.29,1.29-.55,2.58c-0.17.86-.43,1.71-0.66,2.55L364,89.7Q362.56,94.78,361,99.84Z"/><path d="M496.33,1.84q0.86,4.29,1.61,8.59c0.24,1.43.52,2.86,0.73,4.3s0.24,2.89.37,4.34l1.6,17.33,3.21,34.66,0,0.28-0.11.26-6,14.34q-0.38.89-.74,1.8a16.66,16.66,0,0,1-.85,1.76l-1.8,3.46q-1.81,3.46-3.69,6.89,1.14-3.74,2.36-7.45l1.22-3.71a16.66,16.66,0,0,1,.67-1.83q0.41-.88.78-1.78l6-14.34-0.08.54L498.42,36.6l-1.6-17.33c-0.13-1.44-.26-2.89-0.43-4.33s0-2.91-.07-4.36C496.28,7.67,496.29,4.75,496.33,1.84Z"/><path d="M600.66,99.84l-1.39-4.08-1.53-4.7-0.92-2.89c-0.32-1-.47-2.14-0.76-3.27l-1.71-7.36-0.93-4-0.48-2.08-0.24-1.05-0.2-1.14L589.37,51.2l-5.82-33.81c-0.17-1.16-.47-2.24-0.55-3.31l-0.27-3-0.41-4.92L582,1.84,583.14,6l1.26,4.78,0.76,2.94c0.28,1,.36,2.16.59,3.3l5.82,33.81,3.11,18.06,0.18,1,0.24,1.05L595.58,73l0.93,4,1.71,7.36c0.23,1.15.59,2.21,0.75,3.27l0.44,3,0.69,4.89Z"/><path d="M542.44,12.29s0.26,1.36.67,3.73c0.2,1.19.45,2.63,0.7,4.29L544.22,23c0.14,0.93.09,1.92,0.19,2.94l1.9,30.1,1.9,30.1c0,1,.21,2,0.17,2.95L548.3,91.7,548.14,96,548,99.84,547.3,96.1l-0.7-4.29-0.41-2.64c-0.16-.93-0.11-1.92-0.2-2.94l-1.9-30.09L542.19,26c0-1-.2-2-0.18-2.94l0.08-2.67c0-1.68.11-3.14,0.16-4.34C542.35,13.66,542.44,12.29,542.44,12.29Z"/><polygon points="369.94 59.95 347.71 43.93 371.17 58.09 369.94 59.95"/><polygon points="78.8 25.74 49 46.84 78.21 24.93 78.8 25.74"/></svg>