<?xml version="1.0" encoding="utf-8"?>
<!-- Generator: Adobe Illustrator 18.0.0, SVG Export Plug-In . SVG Version: 6.00 Build 0)  -->
<!DOCTYPE svg PUBLIC "-//W3C//DTD SVG 1.1//EN" "http://www.w3.org/Graphics/SVG/1.1/DTD/svg11.dtd">
<svg version="1.1" xmlns="http://www.w3.org/2000/svg" xmlns:xlink="http://www.w3.org/1999/xlink" x="0px" y="0px"
	 viewBox="0 0 300 50" enable-background="new 0 0 300 50" xml:space="preserve">
<g id="Couleur" display="none">
</g>
<g id="GrainSmall" display="none">
	<polyline display="inline" fill="none" stroke="#1D1D1B" stroke-miterlimit="10" points="92.5,50.4 59,35.2 40.8,50.4 	"/>
	<line display="inline" fill="none" stroke="#1D1D1B" stroke-miterlimit="10" x1="201.2" y1="50.4" x2="175" y2="38.9"/>
	<polyline display="inline" fill="none" stroke="#1D1D1B" stroke-miterlimit="10" points="0,38.9 9.5,43.7 22.7,50.4 	"/>
	<polyline display="inline" fill="none" stroke="#1D1D1B" stroke-miterlimit="10" points="98.4,50.4 97.5,29.2 79.5,22 59,35.2 
		51.4,34.2 41.2,32.7 25.3,30.5 9.5,43.7 	"/>
	<polyline display="inline" fill="none" stroke="#1D1D1B" stroke-miterlimit="10" points="4.5,0.2 19.9,9.2 25.3,30.5 	"/>
	<polyline display="inline" fill="none" stroke="#1D1D1B" stroke-miterlimit="10" points="19.9,9.2 43,12.5 51.4,34.2 	"/>
	<polyline display="inline" fill="none" stroke="#1D1D1B" stroke-miterlimit="10" points="43,12.5 63,9.2 79.5,22 	"/>
	<line display="inline" fill="none" stroke="#1D1D1B" stroke-miterlimit="10" x1="63" y1="9.2" x2="56.5" y2="0.2"/>
	<polyline display="inline" fill="none" stroke="#1D1D1B" stroke-miterlimit="10" points="73.1,17.1 94.8,7.7 97.5,0.2 	"/>
	<polyline display="inline" fill="none" stroke="#1D1D1B" stroke-miterlimit="10" points="97.5,29.2 127.9,20.6 117,7.2 94.8,7.7 	
		"/>
	<line display="inline" fill="none" stroke="#1D1D1B" stroke-miterlimit="10" x1="117" y1="7.2" x2="121.7" y2="0.2"/>
	<polyline display="inline" fill="none" stroke="#1D1D1B" stroke-miterlimit="10" points="127.9,20.6 154.9,42.2 152,50.4 	"/>
	<polyline display="inline" fill="none" stroke="#1D1D1B" stroke-miterlimit="10" points="127.9,0.2 147.3,7.2 172,18.2 175,38.9 
		154.9,42.2 	"/>
	<polyline display="inline" fill="none" stroke="#1D1D1B" stroke-miterlimit="10" points="230.2,50.4 232.5,38.9 214.2,11.2 
		197.7,8.7 172,18.2 	"/>
	<rect x="297.8" y="0.8" display="inline" fill="none" width="2.2" height="49.6"/>
	<line display="inline" fill="none" stroke="#1D1D1B" stroke-miterlimit="10" x1="260.9" y1="50.4" x2="259.3" y2="37.8"/>
	<polyline display="inline" fill="none" stroke="#1D1D1B" stroke-miterlimit="10" points="280.3,50.4 297.8,45 300,39.8 	"/>
	<line display="inline" fill="none" stroke="#1D1D1B" stroke-miterlimit="10" x1="197.7" y1="8.7" x2="197.7" y2="0.8"/>
	<line display="inline" fill="none" stroke="#1D1D1B" stroke-miterlimit="10" x1="214.2" y1="11.2" x2="228.5" y2="0.8"/>
	<path display="inline" fill="none" stroke="#1D1D1B" stroke-miterlimit="10" d="M271.5,0.2l2.6,17.8l-14.9,19.7
		c0,0-23.3,1.5-26.8,1.1"/>
	<polyline display="inline" fill="none" stroke="#1D1D1B" stroke-miterlimit="10" points="300,29.1 297.8,29.2 294.5,29.2 
		274.1,18.1 	"/>
	<polyline display="inline" fill="none" stroke="#1D1D1B" stroke-miterlimit="10" points="300,46.7 297.8,45 297.1,50.4 	"/>
</g>
<g id="GrainLarge" display="none">
	<polyline display="inline" fill="none" stroke="#1D1D1B" stroke-miterlimit="10" points="-0.1,42.7 16.2,39.6 24.1,7.4 22.2,0.4 	
		"/>
	<line display="inline" fill="none" stroke="#1D1D1B" stroke-miterlimit="10" x1="23.1" y1="50" x2="16.2" y2="39.5"/>
	<polyline display="inline" fill="none" stroke="#1D1D1B" stroke-miterlimit="10" points="50.4,50 81.6,46.6 86.1,50 	"/>
	<line display="inline" fill="none" stroke="#1D1D1B" stroke-miterlimit="10" x1="189.2" y1="50" x2="187.6" y2="46.6"/>
	<polyline display="inline" fill="none" stroke="#1D1D1B" stroke-miterlimit="10" points="256,50 246.7,46.6 253.7,12.2 271.2,0.4 	
		"/>
	<line display="inline" fill="none" stroke="#1D1D1B" stroke-miterlimit="10" x1="300" y1="3" x2="292.4" y2="0.4"/>
	<line display="inline" fill="none" stroke="#1D1D1B" stroke-miterlimit="10" x1="253.7" y1="12.2" x2="235.8" y2="0.4"/>
	<polyline display="inline" fill="none" stroke="#1D1D1B" stroke-miterlimit="10" points="246.7,46.6 187.6,46.6 164.8,46.6 
		160.1,29 167.1,0.4 	"/>
	<polyline display="inline" fill="none" stroke="#1D1D1B" stroke-miterlimit="10" points="24.1,7.4 70.9,0.4 77.7,-0.6 78.8,0.4 
		100,20.6 81.6,46.6 	"/>
	<polyline display="inline" fill="none" stroke="#1D1D1B" stroke-miterlimit="10" points="127.4,0.4 125.1,1.2 123.8,0.4 	"/>
	<polyline display="inline" fill="none" stroke="#1D1D1B" stroke-miterlimit="10" points="160.1,29 100,20.6 125.1,1.2 	"/>
	<polyline display="inline" fill="none" stroke="#1D1D1B" stroke-miterlimit="10" points="164.8,46.6 164.8,46.6 151.4,50 	"/>
</g>
<g id="GrainsElongated" display="none">
	<polyline display="inline" fill="none" stroke="#1D1D1B" stroke-miterlimit="10" points="300,39 267.2,39.5 236.9,49.1 238.2,50 
		239.3,50.8 	"/>
	<polyline display="inline" fill="none" stroke="#1D1D1B" stroke-miterlimit="10" points="267.2,39.5 234.7,27.2 255.7,16.7 
		300,17.8 	"/>
	<polyline display="inline" fill="none" stroke="#1D1D1B" stroke-miterlimit="10" points="255.7,16.7 236.9,6.2 236.9,0.8 	"/>
	<line display="inline" fill="none" stroke="#1D1D1B" stroke-miterlimit="10" x1="300" y1="16.7" x2="274.7" y2="0.8"/>
	<polyline display="inline" fill="none" stroke="#1D1D1B" stroke-miterlimit="10" points="133.5,50.8 135.5,46.8 164.5,38.9 
		236.9,49.1 	"/>
	<polyline display="inline" fill="none" stroke="#1D1D1B" stroke-miterlimit="10" points="164.5,38.9 191.5,16.7 234.7,27.2 	"/>
	<polyline display="inline" fill="none" stroke="#1D1D1B" stroke-miterlimit="10" points="135.5,46.8 91.3,35 78.2,21.9 106.9,15.2 
		160.5,9.1 	"/>
	<polyline display="inline" fill="none" stroke="#1D1D1B" stroke-miterlimit="10" points="91.3,35 35.1,39.5 28.2,50.8 	"/>
	<line display="inline" fill="none" stroke="#1D1D1B" stroke-miterlimit="10" x1="113.5" y1="0.8" x2="106.9" y2="15.2"/>
	<polyline display="inline" fill="none" stroke="#1D1D1B" stroke-miterlimit="10" points="126.2,0.8 169.1,11.2 191.5,16.7 	"/>
	<polyline display="inline" fill="none" stroke="#1D1D1B" stroke-miterlimit="10" points="43.4,12.3 6.1,21.9 35.1,39.5 	"/>
	<polyline display="inline" fill="none" stroke="#1D1D1B" stroke-miterlimit="10" points="0,39.3 27.7,35 27.7,35 	"/>
	<line display="inline" fill="none" stroke="#1D1D1B" stroke-miterlimit="10" x1="236.9" y1="6.2" x2="169.1" y2="11.2"/>
	<line display="inline" fill="none" stroke="#1D1D1B" stroke-miterlimit="10" x1="6.1" y1="21.9" x2="0" y2="20.6"/>
	<polyline display="inline" fill="none" stroke="#1D1D1B" stroke-miterlimit="10" points="43.4,12.3 43.4,12.3 65.6,0.8 	"/>
	<polyline display="inline" fill="none" stroke="#1D1D1B" stroke-miterlimit="10" points="43.4,12.3 43.4,12.3 42.6,12.1 0,0 	"/>
	<line display="inline" fill="none" stroke="#1D1D1B" stroke-miterlimit="10" x1="42.5" y1="12.1" x2="78.2" y2="21.9"/>
	<rect display="inline" fill="none" width="300" height="50"/>
</g>
<g id="Dendrite" display="none">
	<path display="inline" fill="#FFFFFF" stroke="#1D1D1B" stroke-width="0.5" stroke-miterlimit="10" d="M105.7,50h-9.2l-1.8-4.3
		c-0.5-1.2-1.1-5.1,0.3-6c1.3-0.9,4.1,1.7,4.6,2.8l2.4,5.9c6.3-4.7,11.3-7.7,11.7-6.8C114,42.3,110.7,45.8,105.7,50z"/>
	<path display="inline" fill="#FFFFFF" stroke="#1D1D1B" stroke-width="0.5" stroke-miterlimit="10" d="M285.5,32.2l-1.3,6.8
		c-0.2,0.9-1.6,4.8-2.9,4.7c-0.5,0-1-2.7-1.3-2.9c-0.5-0.3-0.4-1.6-0.3-2.2l1.3-6.6c-4.4-0.2-7.6-0.7-7.5-1.3c0.1-0.6,3.4-1.1,8-1.3
		l1.3-6.8c-5.9-0.2-10.3-0.7-10.2-1.4c0.1-0.7,4.7-1.2,10.7-1.3l1.2-6.4c-6.2-0.1-10.9-0.7-10.8-1.4c0.1-0.7,5-1.3,11.4-1.4l1-5
		c0.2-0.9,1.5-3.6,2.7-3.5c1.3,0.1,2,2.9,1.8,3.8l-0.9,4.7c6.2,0.1,10.8,0.7,10.7,1.4c-0.1,0.7-4.9,1.3-11.2,1.4l-1.2,6.4
		c6.5,0.1,11.4,0.7,11.3,1.4c-0.1,0.7-5.2,1.3-11.8,1.4l-1.3,6.7c5.9,0.1,10.5,0.7,10.4,1.4C296.4,31.6,291.6,32.2,285.5,32.2z"/>
	<rect x="0" y="0" display="inline" fill="none" width="300" height="49.4"/>
	<path display="inline" fill="#FFFFFF" stroke="#1D1D1B" stroke-width="0.5" stroke-miterlimit="10" d="M26.7,22.4L19,20.9
		c-1-0.2-5.5-1.9-5.3-3.3c0-0.6,3-1.1,3.3-1.5c0.4-0.6,1.8-0.5,2.4-0.3l7.5,1.4c0.2-5,0.8-8.6,1.5-8.5c0.7,0.1,1.3,3.9,1.5,9.1
		l7.7,1.5c0.2-6.7,0.8-11.7,1.6-11.6c0.8,0.1,1.4,5.3,1.5,12.2l7.3,1.4c0.1-7.1,0.8-12.4,1.6-12.3c0.8,0.1,1.4,5.7,1.5,12.9l5.7,1.1
		c1,0.2,4.1,1.7,4,3.1c-0.1,1.4-3.3,2.3-4.4,2.1L51,27c-0.2,7-0.8,12.2-1.6,12.1c-0.8-0.1-1.4-5.6-1.5-12.7L40.6,25
		c-0.1,7.3-0.8,12.9-1.6,12.8c-0.8-0.1-1.5-6-1.5-13.4L29.9,23c-0.1,6.7-0.8,12-1.6,11.9C27.5,34.7,26.8,29.2,26.7,22.4z"/>
	<path display="inline" fill="#FFFFFF" stroke="#1D1D1B" stroke-width="0.5" stroke-miterlimit="10" d="M149.1,31.1l-9.1,0.3
		c-1.2,0-6.5-0.8-6.6-2.6c0-0.7,3.3-2.2,3.6-2.8c0.4-0.8,2.1-1.1,2.8-1.1l8.8-0.3c-0.4-6.3-0.2-10.8,0.6-10.9
		c0.8-0.1,2,4.4,2.9,10.8l9-0.3c-0.7-8.3-0.6-14.6,0.3-14.7c0.9-0.1,2.3,6.2,3.3,14.6l8.6-0.3c-0.7-8.7-0.7-15.5,0.2-15.6
		c0.9-0.1,2.4,6.6,3.4,15.4l6.7-0.2c1.2,0,4.9,1,4.9,2.7c0.1,1.8-3.5,3.7-4.8,3.7l-6.3,0.2c0.7,8.6,0.6,15.3-0.3,15.3
		c-0.9,0.1-2.4-6.5-3.4-15.2l-8.6,0.3c0.8,9.1,0.7,16.1-0.2,16.2c-0.9,0.1-2.5-6.9-3.5-16.1l-8.9,0.3c0.8,8.3,0.6,14.9-0.3,15
		C151.5,46.2,150,39.6,149.1,31.1z"/>
</g>
<g id="Deformed_dendrites" display="none">
	<path display="inline" fill="#FFFFFF" stroke="#1D1D1B" stroke-width="0.5" stroke-miterlimit="10" d="M103.5,50h-5.3l-1.6-6.5
		c-2.5,3-4.6,5.4-6,6.5c-0.7,0.6-1.2,0.8-1.3,0.5c0-0.1,0-0.3,0-0.5c0.4-1.5,3-5.5,6.3-9.9l-1.6-6.3c-0.3-1.2-0.6-5.1,0.2-6
		c0.8-0.9,2.5,1.7,2.8,2.8l1.5,5.9c3.8-4.7,6.9-7.7,7.1-6.8c0.3,0.8-2.5,5.3-6.3,10.3l2,8.1c4-5,7.3-8.2,7.5-7.3
		C109.3,41.5,106.9,45.4,103.5,50z"/>
	<path display="inline" fill="#FFFFFF" stroke="#1D1D1B" stroke-width="0.5" stroke-miterlimit="10" d="M66.7,31.3l-1.2,6.1
		c-0.2,0.8-1.6,3.9-2.9,3.1c-0.5-0.3-1.1-3.2-1.5-3.6c-0.5-0.6-0.5-1.8-0.4-2.3l1.2-5.8c-4.6-2.7-7.9-4.9-7.8-5.5
		c0.1-0.6,3.5,0.8,8.3,3.2l1.2-6c-6.2-3.4-10.7-6.4-10.6-7c0.1-0.6,4.8,1.4,11.1,4.6l1.2-5.7c-6.5-3.6-11.3-6.8-11.3-7.4
		c0.1-0.6,5.2,1.5,11.8,5l0.9-4.5c0.2-0.8,1.5-2.7,2.8-1.9c1.3,0.8,2.1,4,2,4.8l-0.8,4.2c6.4,3.6,11.2,6.7,11.1,7.3
		c-0.1,0.6-5.1-1.5-11.6-4.9l-1.2,5.7c6.7,3.7,11.8,7,11.7,7.7c-0.1,0.7-5.4-1.6-12.2-5.2l-1.2,5.9c6.2,3.4,10.9,6.5,10.9,7.2
		C77.9,36.7,72.9,34.6,66.7,31.3z"/>
	<path display="inline" fill="#FFFFFF" stroke="#1D1D1B" stroke-width="0.5" stroke-miterlimit="10" d="M216.7,40.5l-1.2,6.4
		c6.5,0.1,11.4,0.7,11.3,1.4c-0.1,0.7-5.2,1.3-11.8,1.4l0,0.3h-4.6l0.1-0.3c-5.9-0.2-10.3-0.7-10.2-1.4c0.1-0.7,4.7-1.2,10.7-1.3
		l1.2-6.4c-6.2-0.1-10.9-0.7-10.8-1.4c0.1-0.7,5-1.3,11.3-1.4l1-5c0.2-0.9,1.5-3.6,2.7-3.5c1.3,0.1,2,2.9,1.8,3.8l-0.9,4.7
		c6.2,0.1,10.8,0.7,10.7,1.4C227.8,39.9,223,40.5,216.7,40.5z"/>
	<path display="inline" fill="#FFFFFF" stroke="#1D1D1B" stroke-width="0.5" stroke-miterlimit="10" d="M179,14.3l15.1-3.4
		c2-0.5,11.6-1.8,13.2-0.6c0.6,0.5-3.8,2.7-3.8,3.2c0,0.7-2.6,1.4-3.8,1.7l-14.5,3.3c5.8,4.1,9.1,7.3,7.9,7.6
		c-1.3,0.3-7-2.3-13.7-6.3l-14.9,3.4c8,5.4,13,9.7,11.6,10.1c-1.4,0.4-8.9-3.4-17.6-8.7l-14.2,3.2c8.4,5.7,13.8,10.2,12.4,10.6
		c-1.5,0.4-9.4-3.6-18.5-9.3L127,31.6c-2,0.5-9,1.1-10.6-0.1c-1.6-1.2,2.9-3.7,4.9-4.2l10.4-2.3c-8.3-5.6-13.6-10.1-12.2-10.5
		c1.5-0.4,9.3,3.6,18.2,9.1l14.2-3.2c-8.8-5.9-14.5-10.6-13-11c1.5-0.4,9.8,3.8,19.1,9.7l14.7-3.3c-8.1-5.4-13.4-9.9-11.8-10.3
		C162.6,5,170.5,8.9,179,14.3z"/>
	<rect display="inline" fill="none" width="300" height="50"/>
	<path display="inline" fill="#FFFFFF" stroke="#1D1D1B" stroke-width="0.5" stroke-miterlimit="10" d="M30.9,34.1l-4.6-1.7
		c1.2,4.8,1.6,8.3,1,8.1c-0.7-0.2-2.2-4.1-3.7-9.1l-6.3-2.3c1.3,5,1.8,8.8,1.1,8.6c-0.7-0.2-2.3-4.4-3.8-9.6l-6.5-2.4
		c1.2,4.7,1.6,8.1,0.9,7.9c-0.7-0.2-2.3-4.2-3.6-8.9l-5.4-2v-3.3L4.5,21c-0.8-3.5-0.9-5.8-0.4-5.6C4.8,15.6,6,18.4,7.1,22l6.6,2.5
		c-1.1-4.6-1.5-7.9-0.9-7.7c0.6,0.2,2.1,4,3.5,8.7l6.3,2.4c-1.2-4.9-1.7-8.4-1-8.2c0.7,0.2,2.3,4.2,3.7,9.2l4.9,1.8
		c0.9,0.3,3.7,1.9,3.8,2.9C34.3,34.5,31.8,34.5,30.9,34.1z"/>
	<path display="inline" fill="#FFFFFF" stroke="#1D1D1B" stroke-width="0.5" stroke-miterlimit="10" d="M264.7,23.9l5.4-3
		c0.7-0.4,4-1.3,4.2,0.2c0.1,0.6-1.7,2.9-1.8,3.5c-0.1,0.8-1.1,1.5-1.5,1.8l-5.2,2.9c1,5.2,1.4,9.2,1,9.5c-0.5,0.3-1.7-3.2-3-8.3
		l-5.3,3c1.4,6.9,2.1,12.3,1.6,12.7c-0.5,0.4-2.1-4.6-3.8-11.4l-5.1,2.9c1.5,7.2,2.3,13,1.8,13.4c-0.5,0.4-2.2-4.9-3.9-12.1l-4,2.2
		c-0.7,0.4-3,0.7-3.3-0.8c-0.3-1.5,1.6-4.2,2.4-4.6l3.7-2.1c-1.5-7.2-2.3-12.8-1.7-13.2c0.5-0.4,2.2,4.8,3.9,12l5.1-2.9
		c-1.6-7.5-2.4-13.5-1.9-13.9c0.5-0.4,2.3,5.2,4.1,12.7l5.3-3c-1.5-6.9-2.2-12.6-1.7-12.9C261.4,11.8,263.1,16.9,264.7,23.9z"/>
</g>
<g id="EutecticPhaseDendritic" display="none">
	<path display="inline" fill="#9C9B9B" stroke="#1D1D1B" stroke-width="0.5" stroke-miterlimit="10" d="M85.2,40.7
		c0,0.6-1,2.5-1.3,3.8c-0.4,1.3-1.5,0-1.5,0h-8.8l-3.3,2.3l-1.7,1.9c0,0-0.1,0.6-0.4,1.4H57.2l0.6-1.7h5l3.1-1.2l1.2-2.7
		c0,0,0.4-1.2,3.5-2.9c3.1-1.7,3.4-1.2,5.4-1.2c1.9,0,2.5,0,3.5-0.4c1-0.4,0.2-0.8,0.2-0.8l-0.2-1.9c0,0,0.8-1.9,1-2.5
		c0.2-0.6,1,0.8,1,0.8l1.9,1.2c0,0,1.2,1.3,1.7,1.9C85.4,39.3,85.2,40.1,85.2,40.7z"/>
	<path display="inline" fill="#9C9B9B" stroke="#1D1D1B" stroke-width="0.5" stroke-miterlimit="10" d="M206.2,22.4l8.4,0.5
		c0,0,10-0.9,14-3.3c4-2.4,9.4,0.2,8.3-5.2c-1-5.4-1.1-7.7,0.5-9.3c1.7-1.8,8.1-3.3,9.8-1.4c1.4,1.5-2.5,11.3-3.3,7.6
		c-0.8-3.6-3.8-1.6-4.1-0.6c-0.4,1.4,1.4,5.5,1.4,5.5l-2.6,3.3c0,0-0.6,0-2.8,0.8c-2.2,0.8-5.8,2.8-5.8,2.8l-2.2,2.8
		c0,0-2.9-0.8-0.8,1.1c2.1,1.9,5.3,4.2,5.3,4.2l0,2.8c0,0,3.1,2.7,3.1,4c0,0.5-1.2,1.6-1.2,1.6l-3.5,4.5l-3.9,4.9l-2.1,0.1l-1.5-2.9
		c0,0,1.3-3.4,1.2-5.1c-0.1-1.6,0-3.1-0.5-4.5c-0.5-1.4-1.1-4.4-1.1-4.4l-2-2.1c0,0,0-0.5-3-2.4c-3-1.8-3-1.8-3-1.8l-3.2-0.5
		c0,0-2.8,1-3.7,0.8c-0.9-0.2-2.9-2.3-2.9-2.3L206.2,22.4z"/>
	<path display="inline" fill="#9C9B9B" stroke="#1D1D1B" stroke-width="0.5" stroke-miterlimit="10" d="M8.3,30.7
		C9.3,33.9,7,34.5,8,36.9c1,2.4,3.6,5.3,4.9,8.2c1.3,3,2,6.2,3.8,7.6c1.8,1.4,3.5,1.6,3,0.6c-0.5-1-0.4-0.5-1.3-3.2
		c-0.9-2.7-1.2-3.7-2.4-5.8c-1.2-2.1-1.5-1.5-1.3-3.7c0.2-2.2,0.7-3.6-0.6-5.6c-1.4-2-1.7-1.2-3.1-2.7C9.5,30.9,7.6,28.6,8.3,30.7z"
		/>
	<path display="inline" fill="#9C9B9B" stroke="#1D1D1B" stroke-width="0.5" stroke-miterlimit="10" d="M113,9.5
		c0,0-10.6-9.6-15.3-5c-4.7,4.6-11.3,4-12.9,15.4c-1.6,11.4,1,9.9,4.1,9.3c3.1-0.6,4.3-3.9,6.1-6.9c1.8-3,2-6.7,5.3-8.2
		c3.3-1.6,3.6,2,6.7,1.3C110.2,14.6,115.4,11.4,113,9.5z"/>
</g>
<g id="EutecticPhaseGraphiteLamellas">
	<path fill="#9C9B9B" stroke="#1D1D1B" stroke-width="0.5" stroke-miterlimit="10" d="M112.9,14c0,0.6-1,2.5-1.3,3.8
		c-0.4,1.3-1.5,0-1.5,0h-8.8l-3.3,2.3L96.2,22c0,0-0.1,0.6-0.4,1.4H84.9l0.6-1.7h5l3.1-1.2l1.2-2.7c0,0,0.4-1.2,3.5-2.9
		c3.1-1.7,3.4-1.2,5.4-1.2c1.9,0,2.5,0,3.5-0.4c1-0.4,0.2-0.8,0.2-0.8l-0.2-1.9c0,0,0.8-1.9,1-2.5c0.2-0.6,1,0.8,1,0.8l1.9,1.2
		c0,0,1.2,1.3,1.7,1.9C113.1,12.6,112.9,13.4,112.9,14z"/>
	<path fill="#9C9B9B" stroke="#1D1D1B" stroke-width="0.5" stroke-miterlimit="10" d="M206.2,22.4l8.4,0.5c0,0,10-0.9,14-3.3
		c4-2.4,9.4,0.2,8.3-5.2c-1-5.4-1.1-7.7,0.5-9.3c1.7-1.8,8.1-3.3,9.8-1.4c1.4,1.5-2.5,11.3-3.3,7.6c-0.8-3.6-3.8-1.6-4.1-0.6
		c-0.4,1.4,1.4,5.5,1.4,5.5l-2.6,3.3c0,0-0.6,0-2.8,0.8c-2.2,0.8-5.8,2.8-5.8,2.8l-2.2,2.8c0,0-2.9-0.8-0.8,1.1
		c2.1,1.9,5.3,4.2,5.3,4.2l0,2.8c0,0,3.1,2.7,3.1,4c0,0.5-1.2,1.6-1.2,1.6l-3.5,4.5l-3.9,4.9l-2.1,0.1l-1.5-2.9c0,0,1.3-3.4,1.2-5.1
		c-0.1-1.6,0-3.1-0.5-4.5c-0.5-1.4-1.1-4.4-1.1-4.4l-2-2.1c0,0,0-0.5-3-2.4c-3-1.8-3-1.8-3-1.8l-3.2-0.5c0,0-2.8,1-3.7,0.8
		c-0.9-0.2-2.9-2.3-2.9-2.3L206.2,22.4z"/>
	<path fill="#9C9B9B" stroke="#1D1D1B" stroke-width="0.5" stroke-miterlimit="10" d="M9.6,41.1c3.2,1,2.3,3.3,4.9,3.9
		c2.5,0.6,6.4,0.2,9.6,0.8c3.2,0.7,6.2,2,8.3,1.4c2.1-0.7,3.3-2,2.3-2.1c-1.1-0.2-0.7,0-3.4-0.8c-2.7-0.8-3.7-1.2-6.1-1.4
		c-2.4-0.2-2.1,0.3-3.7-1.1c-1.7-1.4-2.5-2.7-4.9-2.8c-2.4-0.1-1.9,0.7-4,0.9C10.5,40.2,7.6,40.4,9.6,41.1z"/>
	<path fill="#9C9B9B" stroke="#1D1D1B" stroke-width="0.5" stroke-miterlimit="10" d="M160.2,8.9c0,0-10.6-9.6-15.3-5
		c-4.7,4.6-11.3,4-12.9,15.4c-1.6,11.4,1,9.9,4.1,9.3c3.1-0.6,4.3-3.9,6.1-6.9c1.8-3,2-6.7,5.3-8.2c3.3-1.6,3.6,2,6.7,1.3
		C157.4,14,162.6,10.8,160.2,8.9z"/>
</g>
<g id="EutecticPhaseDeformedDendrite" display="none">
	<path display="inline" fill="#9C9B9B" stroke="#1D1D1B" stroke-width="0.5" stroke-miterlimit="10" d="M19.9,50.7
		c-0.2-2.9-1-3.7,0.4-4.6c1.5-1,4.8,2.1,5.3-0.3c0.5-2.4-0.9-3.6-1.4-4.2c-0.5-0.6-1.7-0.9-3.6-0.6C18.8,41.2,17,43,17,43l-1.1,3.2
		c0,0,0.5,1.6-0.3,2.6c-0.8,1-0.4-0.1-0.8,1c-0.1,0.4-0.5,0.7-0.9,1c-0.7,0.5-1.6,0.8-1.6,0.8s-0.9,0-2-0.4
		c-0.2-0.1-0.5-0.2-0.8-0.3c-1.3-0.6-3.3-1.4-3.3-1.4L2.9,49l-1.9-1.7l-0.5-0.4l-0.4-0.6v4.5"/>
	<path display="inline" fill="#9C9B9B" stroke="#1D1D1B" stroke-width="0.5" stroke-miterlimit="10" d="M300,33.2v11.5
		c-1.1-0.6-2.1-1.7-2.5-2.6c-0.7-1.5,2-1.8,0.6-3.3c-1.4-1.5-4.3-1.5-6.7-2.2s-5.1-1.2-5.8-2.7c-0.7-1.5-2-2.7,6.9-2.4
		C296.3,31.7,298.5,32.3,300,33.2z"/>
	<path display="inline" fill="#9C9B9B" stroke="#1D1D1B" stroke-width="0.5" stroke-miterlimit="10" d="M167.7,50.3h-24
		c-1.7-0.3-3.2-0.8-5.8-1.5c-4.1-1.1-3.5-0.9-5.2-1.1c-1.7-0.3,0.6-1.8,4.3-2.6c3.7-0.7,8.1,1.1,12.9,2.1c4.9,1,11.2,0.6,15.1,1.4
		C166.7,48.9,167.3,49.5,167.7,50.3z"/>
	<path display="inline" fill="#9C9B9B" stroke="#1D1D1B" stroke-width="0.5" stroke-miterlimit="10" d="M36.1,19.5
		c1.8,3.5-2.2,4.1-0.5,6.6c1.7,2.5,6.2,5.6,8.4,8.8c2.2,3.2,3.3,6.6,6.4,8.1c3,1.4,6,1.7,5.2,0.6c-0.8-1-0.7-0.6-2.3-3.4
		c-1.6-2.8-2-4-4.1-6.2c-2.1-2.2-2.5-1.6-2.3-3.9c0.3-2.3,1.3-3.8-1.1-6c-2.3-2.1-2.8-1.3-5.2-2.9C38.2,19.7,34.9,17.3,36.1,19.5z"
		/>
	<path display="inline" fill="#9C9B9B" stroke="#1D1D1B" stroke-width="0.5" stroke-miterlimit="10" d="M201.2,24.8
		c0,0,1.4,7.4,3.5,8.4c2.3,1.1,7.6-2.3,9.3-4.5c1.8-2.2,1.8-4,3.7-3.8c1.9,0.3,7.6,10,7.6,10s6.8,0.9,4-1.9
		c-2.8-2.9-4.3-10.6-4.3-10.6l-0.7-1.8l8.2-5.1c0,0,5.3-4,7.5-4.6c2.2-0.5,4.2,1.3,4.7,3c0.5,1.8,3,2,7.6-1.4
		c4.7-3.5,6.6-7.6,5.8-10c-0.9-2.4-1.5-3.4-4.6-2.1c-3.1,1.2-2.3,4.2-4.4,5.1C247,6.5,240.8,8,240.8,8s-2.4-1.9-6.7,1.5
		c-4.3,3.4-8.5,4-12.6,6.5c-4,2.5-6.3,6.1-6.3,6.1s-5.6,5.3-6.8,5c-1.2-0.2-3-6.2-5-6.7C202.2,20.1,200.2,22.3,201.2,24.8z"/>
	<rect x="0.2" y="1.1" display="inline" fill="none" width="299.8" height="49.6"/>
	<path display="inline" fill="#9C9B9B" stroke="#1D1D1B" stroke-width="0.5" stroke-miterlimit="10" d="M106.7,10.4
		c0,0-6.6-11.7-10.5-6.1c-4,5.5-8.7,4.8-11.3,18.5c-2.6,13.8-0.5,12,1.9,11.2c2.4-0.8,3.6-4.7,5.3-8.3c1.7-3.6,2.2-8.1,4.8-9.9
		c2.6-1.9,2.4,2.4,4.8,1.6C104,16.6,108.2,12.7,106.7,10.4z"/>
</g>
<g id="TwinLines__x28_Grain_Elongated_x29_" display="none">
	<path display="inline" fill="none" stroke="#1D1D1B" stroke-width="0.5" stroke-miterlimit="10" d="M78,50.4c0,0,56.5-2.7,56.5-2.7
		"/>
	
		<line display="inline" fill="none" stroke="#1D1D1B" stroke-width="0.5" stroke-miterlimit="10" x1="118.8" y1="14" x2="134.4" y2="47.7"/>
	
		<line display="inline" fill="none" stroke="#1D1D1B" stroke-width="0.5" stroke-miterlimit="10" x1="124.2" y1="14" x2="139.3" y2="45.5"/>
	
		<line display="inline" fill="none" stroke="#1D1D1B" stroke-width="0.5" stroke-miterlimit="10" x1="132.5" y1="12.5" x2="145.1" y2="44"/>
	
		<line display="inline" fill="none" stroke="#1D1D1B" stroke-width="0.5" stroke-miterlimit="10" x1="142.6" y1="38.4" x2="174.2" y2="29.7"/>
	
		<line display="inline" fill="none" stroke="#1D1D1B" stroke-width="0.5" stroke-miterlimit="10" x1="140.6" y1="32.8" x2="184.6" y2="22"/>
	
		<line display="inline" fill="none" stroke="#1D1D1B" stroke-width="0.5" stroke-miterlimit="10" x1="197.3" y1="50.6" x2="189.3" y2="42.4"/>
	
		<line display="inline" fill="none" stroke="#1D1D1B" stroke-width="0.5" stroke-miterlimit="10" x1="200.3" y1="44" x2="206.2" y2="50.6"/>
	
		<line display="inline" fill="none" stroke="#1D1D1B" stroke-width="0.5" stroke-miterlimit="10" x1="214.7" y1="8" x2="237.3" y2="25.8"/>
	
		<line display="inline" fill="none" stroke="#1D1D1B" stroke-width="0.5" stroke-miterlimit="10" x1="223.2" y1="7.4" x2="241.4" y2="23.7"/>
	
		<line display="inline" fill="none" stroke="#1D1D1B" stroke-width="0.5" stroke-miterlimit="10" x1="-0.5" y1="14.4" x2="6.8" y2="2.6"/>
	
		<line display="inline" fill="none" stroke="#1D1D1B" stroke-width="0.5" stroke-miterlimit="10" x1="11" y1="3.8" x2="0.1" y2="20.9"/>
	
		<line display="inline" fill="none" stroke="#1D1D1B" stroke-width="0.5" stroke-miterlimit="10" x1="274.1" y1="16.9" x2="270.1" y2="38.8"/>
	
		<line display="inline" fill="none" stroke="#1D1D1B" stroke-width="0.5" stroke-miterlimit="10" x1="279.1" y1="17.6" x2="279.1" y2="38.8"/>
	
		<line display="inline" fill="none" stroke="#1D1D1B" stroke-width="0.5" stroke-miterlimit="10" x1="31.2" y1="37.1" x2="50.9" y2="14.4"/>
	
		<line display="inline" fill="none" stroke="#1D1D1B" stroke-width="0.5" stroke-miterlimit="10" x1="54.5" y1="15.4" x2="43.4" y2="38.4"/>
	
		<line display="inline" fill="none" stroke="#1D1D1B" stroke-width="0.5" stroke-miterlimit="10" x1="48.3" y1="28.2" x2="79.8" y2="35.9"/>
</g>
<g id="TwinLines__x28_Grain_Large_x29_" display="none">
	
		<line display="inline" fill="none" stroke="#1D1D1B" stroke-width="0.5" stroke-miterlimit="10" x1="165.6" y1="6.4" x2="229.8" y2="45.7"/>
	
		<line display="inline" fill="none" stroke="#1D1D1B" stroke-width="0.5" stroke-miterlimit="10" x1="166.9" y1="1" x2="242.8" y2="46.3"/>
	
		<line display="inline" fill="none" stroke="#1D1D1B" stroke-width="0.5" stroke-miterlimit="10" x1="178.5" y1="0" x2="247.8" y2="38.4"/>
	
		<line display="inline" fill="none" stroke="#1D1D1B" stroke-width="0.5" stroke-miterlimit="10" x1="163" y1="16.8" x2="202.9" y2="45.7"/>
	
		<line display="inline" fill="none" stroke="#1D1D1B" stroke-width="0.5" stroke-miterlimit="10" x1="-0.8" y1="14.8" x2="18.1" y2="28.4"/>
	
		<line display="inline" fill="none" stroke="#1D1D1B" stroke-width="0.5" stroke-miterlimit="10" x1="-0.6" y1="10.9" x2="20.3" y2="21.1"/>
	
		<line display="inline" fill="none" stroke="#1D1D1B" stroke-width="0.5" stroke-miterlimit="10" x1="-0.6" y1="7.3" x2="21.2" y2="15.9"/>
	
		<line display="inline" fill="none" stroke="#1D1D1B" stroke-width="0.5" stroke-miterlimit="10" x1="6.3" y1="49.8" x2="17.4" y2="41.9"/>
	
		<line display="inline" fill="none" stroke="#1D1D1B" stroke-width="0.5" stroke-miterlimit="10" x1="91.5" y1="12.3" x2="107.3" y2="0"/>
	
		<line display="inline" fill="none" stroke="#1D1D1B" stroke-width="0.5" stroke-miterlimit="10" x1="101.4" y1="0" x2="88.3" y2="9.7"/>
	
		<line display="inline" fill="none" stroke="#1D1D1B" stroke-width="0.5" stroke-miterlimit="10" x1="255.5" y1="49.8" x2="299.9" y2="2.5"/>
	<polyline display="inline" fill="none" stroke="#1D1D1B" stroke-width="0.5" stroke-miterlimit="10" points="300.1,15.9 
		287.3,26.8 260.3,50 	"/>
</g>
<g id="TwinLines__x28_Grain_Small_x29_" display="none">
	
		<line display="inline" fill="none" stroke="#1D1D1B" stroke-width="0.5" stroke-miterlimit="10" x1="192.3" y1="46.7" x2="189.6" y2="50.3"/>
	
		<line display="inline" fill="none" stroke="#1D1D1B" stroke-width="0.5" stroke-miterlimit="10" x1="195.7" y1="48.2" x2="194.1" y2="50.3"/>
	
		<line display="inline" fill="none" stroke="#1D1D1B" stroke-width="0.5" stroke-miterlimit="10" x1="200" y1="50.1" x2="199.9" y2="50.3"/>
	
		<line display="inline" fill="none" stroke="#1D1D1B" stroke-width="0.5" stroke-miterlimit="10" x1="26" y1="10.3" x2="27.9" y2="31"/>
	
		<line display="inline" fill="none" stroke="#1D1D1B" stroke-width="0.5" stroke-miterlimit="10" x1="31.6" y1="31.6" x2="30.8" y2="11"/>
	
		<line display="inline" fill="none" stroke="#1D1D1B" stroke-width="0.5" stroke-miterlimit="10" x1="31.6" y1="11.1" x2="33.1" y2="31.6"/>
	
		<line display="inline" fill="none" stroke="#1D1D1B" stroke-width="0.5" stroke-miterlimit="10" x1="35.7" y1="11.7" x2="38.6" y2="32.6"/>
	<path display="inline" fill="none" stroke="#1D1D1B" stroke-width="0.5" stroke-miterlimit="10" d="M81.6,45.7c0,0-1.4,1.8-3.5,4.5
		"/>
	
		<line display="inline" fill="none" stroke="#1D1D1B" stroke-width="0.5" stroke-miterlimit="10" x1="85.3" y1="47.3" x2="83" y2="50.3"/>
	
		<line display="inline" fill="none" stroke="#1D1D1B" stroke-width="0.5" stroke-miterlimit="10" x1="89" y1="49" x2="88.1" y2="50.3"/>
	
		<line display="inline" fill="none" stroke="#1D1D1B" stroke-width="0.5" stroke-miterlimit="10" x1="90.6" y1="49.8" x2="90.3" y2="50.3"/>
	
		<line display="inline" fill="none" stroke="#1D1D1B" stroke-width="0.5" stroke-miterlimit="10" x1="121.1" y1="12.6" x2="134" y2="2.6"/>
	
		<line display="inline" fill="none" stroke="#1D1D1B" stroke-width="0.5" stroke-miterlimit="10" x1="137.6" y1="3.9" x2="123.2" y2="15.1"/>
	
		<line display="inline" fill="none" stroke="#1D1D1B" stroke-width="0.5" stroke-miterlimit="10" x1="139.1" y1="4.5" x2="123.9" y2="16"/>
	
		<line display="inline" fill="none" stroke="#1D1D1B" stroke-width="0.5" stroke-miterlimit="10" x1="155.3" y1="50.3" x2="153.9" y2="45.3"/>
	
		<line display="inline" fill="none" stroke="#1D1D1B" stroke-width="0.5" stroke-miterlimit="10" x1="161" y1="50.3" x2="158.3" y2="41.9"/>
	
		<line display="inline" fill="none" stroke="#1D1D1B" stroke-width="0.5" stroke-miterlimit="10" x1="138.7" y1="29.4" x2="172.7" y2="23.9"/>
	
		<line display="inline" fill="none" stroke="#1D1D1B" stroke-width="0.5" stroke-miterlimit="10" x1="141.4" y1="32.6" x2="173.1" y2="26.6"/>
	
		<line display="inline" fill="none" stroke="#1D1D1B" stroke-width="0.5" stroke-miterlimit="10" x1="246.1" y1="50.3" x2="245.4" y2="39.1"/>
	
		<line display="inline" fill="none" stroke="#1D1D1B" stroke-width="0.5" stroke-miterlimit="10" x1="249.8" y1="50.3" x2="247.1" y2="39.2"/>
	
		<line display="inline" fill="none" stroke="#1D1D1B" stroke-width="0.5" stroke-miterlimit="10" x1="252.5" y1="50.3" x2="248.8" y2="39.1"/>
	
		<line display="inline" fill="none" stroke="#1D1D1B" stroke-width="0.5" stroke-miterlimit="10" x1="87.4" y1="11.1" x2="86.8" y2="25.1"/>
	
		<line display="inline" fill="none" stroke="#1D1D1B" stroke-width="0.5" stroke-miterlimit="10" x1="90.6" y1="9.5" x2="89" y2="26.6"/>
	
		<line display="inline" fill="none" stroke="#1D1D1B" stroke-width="0.5" stroke-miterlimit="10" x1="92.6" y1="8.9" x2="99.8" y2="28.8"/>
	
		<line display="inline" fill="none" stroke="#1D1D1B" stroke-width="0.5" stroke-miterlimit="10" x1="93.8" y1="8.3" x2="103.3" y2="27.8"/>
	<rect x="-0.1" y="0.4" display="inline" fill="none" width="300.1" height="49.8"/>
	
		<line display="inline" fill="none" stroke="#1D1D1B" stroke-width="0.5" stroke-miterlimit="10" x1="206.4" y1="10.2" x2="213.4" y2="0.4"/>
	
		<line display="inline" fill="none" stroke="#1D1D1B" stroke-width="0.5" stroke-miterlimit="10" x1="217.3" y1="0.4" x2="214.1" y2="11.4"/>
	<path display="inline" fill="none" stroke="#1D1D1B" stroke-width="0.5" stroke-miterlimit="10" d="M300,4.9
		c-11.3,1.6-27.3,4-27.3,4"/>
	
		<line display="inline" fill="none" stroke="#1D1D1B" stroke-width="0.5" stroke-miterlimit="10" x1="300" y1="8.5" x2="273.1" y2="11.4"/>
	
		<line display="inline" fill="none" stroke="#1D1D1B" stroke-width="0.5" stroke-miterlimit="10" x1="300" y1="10.4" x2="273.3" y2="12.9"/>
	<path display="inline" fill="none" stroke="#1D1D1B" stroke-width="0.5" stroke-miterlimit="10" d="M274.1,15.8
		c1.1,0.1,17.2,5.8,25.9,8.9"/>
</g>
<g id="Inclusion__x28_Grain_Elongated_x29__1_" display="none">
	<rect display="inline" fill="none" width="300" height="50.3"/>
	<path display="inline" fill="#FFFFFF" stroke="#1D1D1B" stroke-width="0.5" stroke-miterlimit="10" d="M71.2,33.2
		c-3.6-1.6-6.6-2.8-8.5-2.9c-1.9-0.2-5.5,1-6.5,1.9c-1,0.9-3.3,3.9-1.6,4.7c1.7,0.8,4.2,3.2,6.2,2.9c2-0.3-0.8-5,2.4-4.2
		c3.2,0.7,2.7,0.1,5.5-0.2C71.3,35,73.5,34.3,71.2,33.2z"/>
	<path display="inline" fill="#FFFFFF" stroke="#1D1D1B" stroke-width="0.5" stroke-miterlimit="10" d="M180,17.4
		c-3.5-1.6-6.5-2.7-8.4-2.9c-1.9-0.2-5.4,1-6.4,1.9c-1,0.9-3.2,3.8-1.6,4.6c1.7,0.8,4.1,3.1,6.1,2.8c2-0.3-0.8-4.9,2.3-4.2
		c3.1,0.7,2.6,0.1,5.4-0.2C180.2,19.1,182.3,18.4,180,17.4z"/>
	<path display="inline" fill="#FFFFFF" stroke="#1D1D1B" stroke-width="0.5" stroke-miterlimit="10" d="M300,38.1v10.3
		c-0.9,1.1-1.6,2.3-2.5,2c-1.6-0.5-3-3.8-4.9-4.5c-1.9-0.8-4.3-0.3-4.8-2.8c-0.5-2.5,0-5.5,0.6-5.2c0.6,0.4,0.3,0.4,2.1,0.7
		c1.8,0.3,2.6,0.2,3.8,1.3c1.2,1.1,0.7,1.9,2.5,0.5C298.1,39.4,299.1,38.3,300,38.1z"/>
	<path display="inline" fill="#FFFFFF" stroke="#1D1D1B" stroke-width="0.5" stroke-miterlimit="10" d="M24.9,29.2
		c-0.3-3,3.9-3.9,3.3-6c-0.6-2.2-3.8-4.6-4.6-7.2c-0.8-2.7-0.5-5.7-3-6.7c-2.4-1.1-5.3-1-4.9-0.1c0.4,0.9,0.4,0.5,0.8,2.9
		c0.4,2.4,0.4,3.4,1.5,5.2c1.1,1.8,1.8,1.2,0.6,3.3c-1.2,2.1-2.8,3.5-1.4,5.3c1.4,1.7,2.3,0.9,4,2.2C22.9,29.2,25.1,31.1,24.9,29.2z
		"/>
</g>
<g id="Inclusion__x28_Grain_Large_x29_" display="none">
	<rect y="0.2" display="inline" fill="none" width="300" height="50.1"/>
	<path display="inline" fill="#FFFFFF" stroke="#1D1D1B" stroke-width="0.5" stroke-miterlimit="10" d="M164,4.7
		c1.6,2.2-4.8,2.9-3,4.4c1.8,1.6,7.6,3.3,9.9,5.2c2.3,1.9,2.9,4.1,7.1,4.9c4.2,0.7,8.7,0.6,7.8,0c-0.9-0.6-0.9-0.3-2.4-2.1
		c-1.5-1.8-1.8-2.5-4.3-3.8c-2.5-1.3-3.3-0.9-2.2-2.4c1.2-1.6,3.2-2.6,0.3-3.9c-2.9-1.2-3.9-0.6-7-1.5C167.2,4.7,163,3.4,164,4.7z"
		/>
	<path display="inline" fill="#FFFFFF" stroke="#1D1D1B" stroke-width="0.5" stroke-miterlimit="10" d="M248.7,4
		c0.1,1-5.1,0.6-6.8,0.4c-1.7-0.3-5.5-1.6-6.5-2.6c-0.4-0.4-0.8-0.9-1-1.6h7.1c0,0,0.1,0.1,0.1,0.2c1.1,1.6,5.1-0.8,6.8,0.1
		C250.1,1.3,248.6,3.1,248.7,4z"/>
	<path display="inline" fill="#FFFFFF" stroke="#1D1D1B" stroke-width="0.5" stroke-miterlimit="10" d="M61,28.7
		c4.6,2,0.6,3,4.4,4.4c3.8,1.4,11,2.6,15.8,4.4c4.8,1.7,8.7,3.8,13.1,4.2c4.4,0.4,7.9,0.1,6.2-0.5c-1.7-0.5-1.2-0.3-5.1-1.8
		c-3.9-1.6-5.2-2.2-9.2-3.3c-4-1.1-4-0.6-5.4-2.2c-1.5-1.6-1.5-2.7-5.7-3.7c-4.2-1-4.1-0.3-7.9-1C63.4,28.5,58,27.5,61,28.7z"/>
	<path display="inline" fill="#FFFFFF" stroke="#1D1D1B" stroke-width="0.5" stroke-miterlimit="10" d="M271.1,36.8
		c0,0-6.4,0.6-4.7,1.7c1.7,1.2,4.7,2.9,4.7,2.9h6.9c0,0,4-0.8,2.3-2.3c-1.7-1.5-1.9-2.6-3.4-2.3S271.1,36.8,271.1,36.8z"/>
	<path display="inline" fill="#FFFFFF" stroke="#1D1D1B" stroke-width="0.5" stroke-miterlimit="10" d="M4.6,25.2
		c0,0,9.4-0.4,10.4-1.7c1-1.4,4.9-2.4,1.7-4.2c-3.2-1.9-4.1-1.2-5.7-0.6c-1.5,0.6-1,1.2-1,1.9c0.1,0.7,1.3,1.2,0,2
		c-1.3,0.7-2.7,0.3-4.3,0.9C4.3,24,2.6,25.3,4.6,25.2z"/>
</g>
<g id="Inclusion__x28_Grain_Small_x29__1_" display="none">
	<path display="inline" fill="#FFFFFF" stroke="#1D1D1B" stroke-width="0.5" stroke-miterlimit="10" d="M71,50H53.9
		c0.4-0.6,0.9-1.2,1.3-1.5c1-0.9,4.6-2.1,6.5-1.9c1.9,0.2,4.9,1.3,8.5,2.9C70.6,49.7,70.9,49.9,71,50z"/>
	<path display="inline" fill="#FFFFFF" stroke="#1D1D1B" stroke-width="0.5" stroke-miterlimit="10" d="M180,17
		c-3.5-1.6-6.5-2.7-8.4-2.9c-1.9-0.2-5.4,1-6.4,1.9c-1,0.9-3.2,3.8-1.6,4.6c1.7,0.8,4.1,3.1,6.1,2.8c2-0.3-0.8-4.9,2.3-4.2
		c3.1,0.7,2.6,0.1,5.4-0.2C180.2,18.7,182.3,18,180,17z"/>
	<path display="inline" fill="#FFFFFF" stroke="#1D1D1B" stroke-width="0.5" stroke-miterlimit="10" d="M195.2,50h-12.5
		c-0.8-1.3-1.5-2.7-2.2-3.8c-1.8-3.2,4.8-4.8,4.8-4.8s4.4,0.6,6,0c1.5-0.6,1.8,2.3,3.5,6.5C195.1,48.6,195.2,49.3,195.2,50z"/>
	<path display="inline" fill="#FFFFFF" stroke="#1D1D1B" stroke-width="0.5" stroke-miterlimit="10" d="M254.4,16.5
		c-1.3,3.2-3.8,2.1-4.6,4.6c-0.8,2.5-0.5,6.5-1.4,9.7c-0.9,3.2-2.6,6.1-2,8.4c0.6,2.3,2,3.6,2.2,2.5c0.2-1.1,0-0.7,1-3.4
		c1-2.7,1.5-3.7,1.9-6.1c0.4-2.4-0.3-2.2,1.4-3.7c1.6-1.6,3.1-2.3,3.3-4.7c0.2-2.5-0.6-2-0.8-4.2C255.4,17.5,255.3,14.5,254.4,16.5z
		"/>
	<path display="inline" fill="#FFFFFF" stroke="#1D1D1B" stroke-width="0.5" stroke-miterlimit="10" d="M97.7,15.5
		c0,0-6,1.3-4.3,3.9c1.6,2.6,4.3,6.5,4.3,6.5h6.4c0,0,3.8-1.8,2.2-5.2c-1.6-3.4-1.8-5.7-3.2-5.2C101.7,16,97.7,15.5,97.7,15.5z"/>
	<path display="inline" fill="#FFFFFF" stroke="#1D1D1B" stroke-width="0.5" stroke-miterlimit="10" d="M24.9,28.8
		c-0.3-3,3.9-3.9,3.3-6c-0.6-2.2-3.8-4.6-4.6-7.2c-0.8-2.7-0.5-5.7-3-6.7c-2.4-1.1-5.3-1-4.9-0.1c0.4,0.9,0.4,0.5,0.8,2.9
		c0.4,2.4,0.4,3.4,1.5,5.2c1.1,1.8,1.8,1.2,0.6,3.3c-1.2,2.1-2.8,3.5-1.4,5.3c1.4,1.7,2.3,0.9,4,2.2C22.9,28.7,25.1,30.6,24.9,28.8z
		"/>
	<rect x="0" display="inline" fill="none" width="300.6" height="50"/>
</g>
<g id="Inclusion__x28_GraphiteLamellas_x29_" display="none">
	<path display="inline" fill="#FFFFFF" stroke="#1D1D1B" stroke-width="0.5" stroke-miterlimit="10" d="M71,50H53.9
		c0.4-0.6,0.9-1.2,1.3-1.5c1-0.9,4.6-2.1,6.5-1.9c1.9,0.2,4.9,1.3,8.5,2.9C70.6,49.7,70.9,49.9,71,50z"/>
	<path display="inline" fill="#FFFFFF" stroke="#1D1D1B" stroke-width="0.5" stroke-miterlimit="10" d="M180,17
		c-3.5-1.6-6.5-2.7-8.4-2.9c-1.9-0.2-5.4,1-6.4,1.9c-1,0.9-3.2,3.8-1.6,4.6c1.7,0.8,4.1,3.1,6.1,2.8c2-0.3-0.8-4.9,2.3-4.2
		c3.1,0.7,2.6,0.1,5.4-0.2C180.2,18.7,182.3,18,180,17z"/>
	<path display="inline" fill="#FFFFFF" stroke="#1D1D1B" stroke-width="0.5" stroke-miterlimit="10" d="M165.1,47.7h-12.5
		c-0.8-1.3-1.5-2.7-2.2-3.8c-1.8-3.2,4.8-4.8,4.8-4.8s4.4,0.6,6,0c1.5-0.6,1.8,2.3,3.5,6.5C165,46.3,165.1,47,165.1,47.7z"/>
	<path display="inline" fill="#FFFFFF" stroke="#1D1D1B" stroke-width="0.5" stroke-miterlimit="10" d="M273.9,10.6
		c-2.9,1.9-4.3-0.4-6.4,1.2c-2.1,1.6-4.1,5.1-6.7,7.2c-2.6,2.1-5.6,3.6-6.4,5.8c-0.8,2.2-0.4,4.1,0.4,3.3c0.8-0.8,0.4-0.6,2.8-2.2
		c2.4-1.6,3.3-2.2,5-4c1.7-1.8,1-1.9,3.2-2.3c2.2-0.4,3.8-0.1,5.4-2c1.6-1.9,0.6-2,1.7-3.9C274.1,12,275.7,9.4,273.9,10.6z"/>
	<path display="inline" fill="#FFFFFF" stroke="#1D1D1B" stroke-width="0.5" stroke-miterlimit="10" d="M97.7,15.5
		c0,0-6,1.3-4.3,3.9c1.6,2.6,4.3,6.5,4.3,6.5h6.4c0,0,3.8-1.8,2.2-5.2c-1.6-3.4-1.8-5.7-3.2-5.2C101.7,16,97.7,15.5,97.7,15.5z"/>
	<path display="inline" fill="#FFFFFF" stroke="#1D1D1B" stroke-width="0.5" stroke-miterlimit="10" d="M48.1,4.2
		c-2.6,1.5-5.1-1.9-6.8-0.5c-1.7,1.5-2.6,5.3-4.7,7.2c-2.1,1.9-4.9,2.9-4.9,5.5c0,2.6,1.3,5.2,1.9,4.5c0.6-0.7,0.2-0.6,2.3-1.9
		c2-1.4,2.9-1.7,4.1-3.5c1.2-1.8,0.4-2.2,2.8-1.9c2.4,0.2,4.4,1.1,5.4-0.9c1-2-0.1-2.4,0.3-4.5C48.9,6.1,49.7,3.2,48.1,4.2z"/>
	<rect x="0" display="inline" fill="none" width="300.6" height="50"/>
</g>
<g id="Slip_lines__x28_grain_Small_x29_" display="none">
	<g display="inline">
		<path d="M41.1,48c0,0,7.9-1.7,15.8-3.4c2-0.4,3.9-0.8,5.8-1.2c1.9-0.4,3.6-0.7,5.1-0.9c3-0.5,5-0.7,5-0.7l0,0.1
			c0,0-1.9,0.5-4.9,1.2c-1.5,0.3-3.2,0.7-5,1.1C61,44.4,59,44.8,57,45.2C49.1,46.6,41.2,48,41.1,48L41.1,48z"/>
	</g>
	<g display="inline">
		<path d="M44.9,50c0,0,7.3-1.6,14.5-3.2c1.8-0.4,3.6-0.8,5.3-1.2c1.7-0.3,3.3-0.6,4.7-0.8c2.8-0.4,4.6-0.7,4.6-0.7l0,0.1
			c0,0-1.8,0.5-4.5,1.2c-1.4,0.3-2.9,0.7-4.7,1c-1.7,0.3-3.5,0.6-5.4,1C52.3,48.7,45,50,44.9,50L44.9,50z"/>
	</g>
	<g display="inline">
		<path d="M66.6,49.8c0,0,4.5-0.9,9.1-1.7c1.1-0.2,2.3-0.4,3.3-0.6c1.1-0.2,2.1-0.3,2.9-0.4c1.7-0.2,2.9-0.2,2.9-0.2l0,0.1
			c0,0-1.1,0.3-2.8,0.7c-0.8,0.2-1.8,0.4-2.9,0.6c-1.1,0.2-2.2,0.3-3.4,0.4C71.2,49.3,66.6,49.9,66.6,49.8L66.6,49.8z"/>
	</g>
	<g display="inline">
		<path d="M214.4,11.9c0,0,3.5-0.8,8.7-1.9c2.6-0.5,5.7-1.1,8.9-1.8c3.3-0.6,6.7-1.3,10.2-2c3.5-0.6,7-1.3,10.3-1.9
			c3.3-0.6,6.3-1.1,9-1.6c5.2-0.9,8.8-1.4,8.8-1.4s-3.5,0.8-8.7,1.9c-2.6,0.5-5.7,1.1-8.9,1.8c-3.3,0.6-6.8,1.3-10.2,2
			c-3.5,0.6-7,1.3-10.3,1.9c-3.3,0.6-6.3,1.1-9,1.6C217.9,11.3,214.4,11.9,214.4,11.9z"/>
	</g>
	<g display="inline">
		<path d="M219.5,14.5c0,0,2.5-0.6,6.3-1.4c1.9-0.4,4.1-0.9,6.4-1.3c2.4-0.5,4.9-1,7.4-1.5c2.5-0.5,5-0.9,7.4-1.4
			c2.4-0.4,4.6-0.8,6.5-1.1c3.8-0.6,6.3-1,6.3-1s-2.5,0.6-6.3,1.4c-1.9,0.4-4.1,0.9-6.4,1.3c-2.4,0.5-4.9,1-7.4,1.5
			c-2.5,0.5-5,0.9-7.4,1.4c-2.4,0.4-4.6,0.8-6.5,1.1C222,14.1,219.5,14.5,219.5,14.5z"/>
	</g>
	<g display="inline">
		<g>
			<g>
				<g>
					<path fill="#202020" d="M270,8.4C270.1,8.4,270.1,8.3,270,8.4C270,8.4,270,8.4,270,8.4z"/>
					<polygon fill="#202020" points="269.1,8.8 269.1,8.7 268.9,8.8 					"/>
					<path fill="#202020" d="M268.1,9c0.1,0.1,0.3-0.1,0.5-0.1l0,0l0.1-0.1C268.5,8.8,268.3,9,268.1,9z"/>
					<path fill="#202020" d="M267.6,8.8c0,0-0.1,0.1,0.1,0C267.7,8.8,267.7,8.8,267.6,8.8C267.7,8.8,267.6,8.8,267.6,8.8z"/>
					<path fill="#202020" d="M267.7,8.8C267.8,8.8,267.6,8.8,267.7,8.8L267.7,8.8z"/>
					<path fill="#202020" d="M267.2,8.9l0.1-0.1C267.3,8.8,267.2,8.8,267.2,8.9C267.1,8.9,267.1,8.9,267.2,8.9z"/>
					<path fill="#202020" d="M267.1,9L267.1,9C267.2,9,267.2,9,267.1,9z"/>
					<path fill="#202020" d="M267.3,8.9L267.2,9C267.2,9,267.2,9,267.3,8.9C267.2,9,267.3,9,267.3,8.9z"/>
					<path fill="#202020" d="M267.4,8.9C267.5,8.9,267.6,8.9,267.4,8.9C267.7,8.9,267.7,8.9,267.4,8.9z"/>
					<path fill="#202020" d="M268.1,9.1l0.1,0l0.1-0.1C268.3,9.1,268.1,9.1,268.1,9.1z"/>
					<path fill="#202020" d="M266.4,9C266.4,9,266.5,9.1,266.4,9l0.2,0C266.5,9.1,266.4,9.1,266.4,9z"/>
					<path fill="#202020" d="M266.5,9.1l-0.1,0.1C266.5,9.2,266.5,9.1,266.5,9.1z"/>
					<polygon fill="#202020" points="267.1,9.2 267.3,9 267.1,9.2 					"/>
					<polygon fill="#202020" points="265.9,9.1 265.9,9.1 265.8,9.2 					"/>
					<path fill="#202020" d="M265.5,9.2c0.1-0.1-0.1-0.1,0-0.1c-0.1,0-0.2,0.1-0.2,0.1C265.3,9.2,265.4,9.2,265.5,9.2z"/>
					<path fill="#202020" d="M265.1,9.3c0,0,0.1,0,0.1-0.1C265.2,9.3,265.1,9.3,265.1,9.3z"/>
					<path fill="#202020" d="M266.1,9.2c0,0,0,0-0.1,0L266.1,9.2C266.1,9.2,266.1,9.2,266.1,9.2z"/>
					<path fill="#202020" d="M266.1,9.2L266.1,9.2c-0.1,0-0.1,0-0.1,0C265.9,9.2,266,9.2,266.1,9.2z"/>
					<path fill="#202020" d="M266.1,9.2C266.1,9.2,266.1,9.2,266.1,9.2C266.1,9.2,266.1,9.2,266.1,9.2z"/>
					<path fill="#202020" d="M266.7,9.2c-0.1,0.1-0.2,0.1-0.1,0.2C266.7,9.3,266.6,9.3,266.7,9.2z"/>
					<path fill="#202020" d="M266.2,9.3l0.2,0c0,0,0,0,0-0.1L266.2,9.3z"/>
					<polygon fill="#202020" points="266.1,9.3 266.2,9.3 266.1,9.3 					"/>
					<path fill="#202020" d="M265.4,9.3c-0.1,0-0.1,0.1-0.2,0.1C265.3,9.4,265.3,9.4,265.4,9.3C265.4,9.4,265.5,9.3,265.4,9.3z"/>
					<path fill="#202020" d="M265.7,9.3C265.7,9.3,265.7,9.3,265.7,9.3C265.7,9.3,265.7,9.3,265.7,9.3z"/>
					<path fill="#202020" d="M264.4,9.6C264.4,9.6,264.4,9.6,264.4,9.6C264.4,9.6,264.4,9.6,264.4,9.6L264.4,9.6z"/>
					<path fill="#202020" d="M265.5,9.4c0.1,0,0.1,0,0.1-0.1C265.5,9.4,265.5,9.4,265.5,9.4C265.4,9.4,265.4,9.4,265.5,9.4z"/>
					<path fill="#202020" d="M264.9,9.4c0,0,0.1,0,0.1,0C265,9.4,264.9,9.4,264.9,9.4z"/>
					<path fill="#202020" d="M265.7,9.3C265.7,9.3,265.7,9.3,265.7,9.3C265.7,9.3,265.7,9.3,265.7,9.3z"/>
					<path fill="#202020" d="M265.7,9.3C265.6,9.3,265.6,9.3,265.7,9.3C265.6,9.3,265.7,9.3,265.7,9.3
						C265.7,9.3,265.7,9.3,265.7,9.3z"/>
					<path fill="#202020" d="M264.2,10.1c0-0.1,0.2-0.2,0.3-0.1c0.1-0.1,0-0.3-0.2-0.4c0,0,0,0.1-0.1,0.1c0.1,0,0.4,0,0.2,0.1
						c-0.2,0.1-0.2,0-0.3,0c0.1,0.1-0.2,0.2-0.2,0.3L264.2,10.1C264.2,10,264.2,10.1,264.2,10.1z"/>
					<path fill="#202020" d="M264.7,9.5L264.7,9.5c0,0-0.1,0-0.2-0.1c-0.1,0.1-0.1,0.1-0.1,0.1L264.7,9.5L264.7,9.5z"/>
					<path fill="#202020" d="M265,9.5c0,0.1-0.2,0.1-0.1,0.2c0.2,0,0.1-0.1,0.2-0.1C264.9,9.6,265.2,9.5,265,9.5c0.1,0,0.1,0,0.2,0
						C265.1,9.4,265.1,9.4,265,9.5C265,9.4,265,9.4,265,9.5L265,9.5C265,9.4,265,9.4,265,9.5C265,9.4,265,9.4,265,9.5
						C265,9.4,265,9.4,265,9.5C265,9.4,265,9.5,265,9.5C264.9,9.5,265,9.4,265,9.5C265,9.4,265,9.4,265,9.5C265,9.4,265,9.4,265,9.5
						l-0.3,0.1C264.8,9.5,264.9,9.5,265,9.5z"/>
					<path fill="#202020" d="M266.6,9.5C266.5,9.5,266.5,9.5,266.6,9.5C266.5,9.5,266.5,9.5,266.6,9.5z"/>
					<path fill="#202020" d="M266.4,9.5c0,0,0,0,0.1-0.1c0.1,0,0,0,0,0.1c0,0,0.1-0.1,0-0.1L266.4,9.5c0-0.1-0.2-0.1-0.2-0.1
						C266.3,9.4,266.3,9.4,266.4,9.5z"/>
					<path fill="#202020" d="M265.7,9.5l-0.2,0.1l0.1,0l0,0C265.7,9.6,265.7,9.5,265.7,9.5z"/>
					<polygon fill="#202020" points="264.3,9.6 264.4,9.5 264.2,9.6 					"/>
					<polygon fill="#202020" points="264,9.6 264,9.6 263.9,9.6 					"/>
					<path fill="#202020" d="M246.2,14.1L246.2,14.1C246.2,14.1,246.2,14.1,246.2,14.1z"/>
					<path fill="#202020" d="M246.8,14L246.8,14C246.8,13.9,246.7,14,246.8,14z"/>
					<path fill="#202020" d="M256.2,11.2c-0.1,0-0.3-0.1-0.2,0l0,0.1C256.1,11.2,256.2,11.2,256.2,11.2z"/>
					<path fill="#202020" d="M251,12.7C251,12.7,251,12.7,251,12.7C251,12.7,251,12.7,251,12.7C251,12.7,251,12.7,251,12.7z"/>
					<path fill="#202020" d="M250.9,13l-0.1,0C250.8,13,250.9,13,250.9,13z"/>
					<path fill="#202020" d="M243.4,14.7L243.4,14.7C243.5,14.8,243.4,14.7,243.4,14.7z"/>
					<path fill="#202020" d="M260.8,10.3c-0.1,0-0.2,0-0.2,0C260.7,10.3,260.8,10.4,260.8,10.3z"/>
					<path fill="#202020" d="M246.3,13.3C246.3,13.3,246.2,13.3,246.3,13.3C246.3,13.3,246.3,13.3,246.3,13.3z"/>
					<path fill="#202020" d="M260.3,10.4C260.3,10.4,260.3,10.4,260.3,10.4c0.1,0,0.2,0,0.3-0.1C260.4,10.3,260.4,10.3,260.3,10.4z"
						/>
					<path fill="#202020" d="M233.1,16.7C233.1,16.7,233.1,16.7,233.1,16.7C233.1,16.8,233.1,16.8,233.1,16.7z"/>
					<path fill="#202020" d="M230,16.7c0,0,0.1,0,0.1,0C230.1,16.6,230,16.6,230,16.7z"/>
					<path fill="#202020" d="M262.7,9.9C262.8,9.8,262.7,9.8,262.7,9.9L262.7,9.9z"/>
					<path fill="#202020" d="M263.1,10.1C263.1,10.1,263.1,10.1,263.1,10.1C263.1,10.1,263.1,10.1,263.1,10.1z"/>
					<path fill="#202020" d="M259.7,10.9C259.7,10.9,259.7,10.9,259.7,10.9C259.7,10.9,259.7,10.9,259.7,10.9z"/>
					<path fill="#202020" d="M262.8,9.9C262.8,9.9,262.8,9.9,262.8,9.9C262.8,9.9,262.8,9.9,262.8,9.9z"/>
					<path fill="#202020" d="M262.8,9.8C262.8,9.8,262.9,9.8,262.8,9.8C262.9,9.8,262.9,9.8,262.8,9.8z"/>
					<path fill="#202020" d="M262.6,9.9c0,0,0.1,0,0.1,0C262.7,9.9,262.7,9.9,262.6,9.9C262.7,9.9,262.7,9.9,262.6,9.9z"/>
					<path fill="#202020" d="M238.6,15.4C238.6,15.4,238.6,15.4,238.6,15.4C238.5,15.5,238.5,15.5,238.6,15.4z"/>
					<polygon fill="#202020" points="254.6,12.3 254.6,12.3 254.6,12.3 					"/>
					<path fill="#202020" d="M254.4,12.4c0.1-0.1,0.1-0.1,0.2-0.1l-0.1-0.2L254.4,12.4z"/>
					<path fill="#202020" d="M245,14.3l0.2,0c-0.2,0.1-0.3,0.1-0.2,0.2c0-0.2,0.7-0.2,0.6-0.4l0.1,0c0,0,0,0-0.1,0
						c0.2,0.1,0.1-0.2,0.4-0.2c0.1,0,0.2,0,0.1,0.1l0.2-0.1c0.1,0,0.1,0,0,0l0.3-0.1l0,0c0,0,0.1-0.1,0.2-0.1c0.1,0,0,0,0,0.1
						l0.2-0.1c0.1,0-0.1,0.1-0.2,0.1c0.2,0.2,0.1-0.1,0.5,0l-0.2,0.1c0.1,0.1,0.3,0,0.5,0.1c-0.1,0-0.4-0.1-0.2-0.2
						c0.1,0,0.1,0,0.2-0.1c0,0.1,0.1,0,0.2,0l0,0.1c0.1-0.1,0.1-0.1,0.2-0.2c0.2,0,0.2,0,0.3,0.1c0.3,0-0.2-0.1,0.1-0.2
						c0.2,0,0.4-0.1,0.6-0.2c0.2,0,0,0.1,0,0.1l0.1-0.1c0,0,0,0,0,0c0.1-0.1,0-0.1,0.2-0.2c0-0.1,0.4,0.1,0.6-0.1c0.1,0,0,0.1,0,0.1
						c0.3-0.1,0.2-0.1,0.5-0.3l0.2,0c-0.2,0,0-0.2,0.2-0.3c-0.1,0-0.1,0-0.1-0.1l0.3-0.1c0,0,0,0.1,0,0.1c0,0,0,0,0,0
						c0.1,0,0.1,0.1,0,0.2c0,0-0.1,0-0.1,0c-0.1,0.1-0.1,0.2-0.1,0.2c0,0,0,0,0.1,0c0,0,0,0,0,0c0,0,0,0,0.1-0.1l0.1,0.1l0,0l0.4,0
						c0.2-0.2,0.4-0.4,0.8-0.5c-0.1,0.1,0,0.1,0,0.2c-0.1-0.1-0.3,0.1-0.5,0.1c0.1,0,0.1,0,0.1,0.1l0.4-0.2c0,0.1,0.1,0,0.2,0.1
						c-0.1-0.1,0.3-0.2,0.4-0.2c0,0.1,0,0.1-0.2,0.1c0.2,0.1,0.2-0.2,0.4-0.2c0,0-0.1,0-0.1,0c0.1-0.1,0.4-0.1,0.3,0l0,0
						c0.3,0,0.9-0.2,0.9-0.3c0,0,0,0.2,0,0.2l0.4-0.6c0,0.1,0.2,0.4,0,0.5c0.1,0,0.2,0,0.3-0.1c-0.1,0-0.2-0.1-0.1-0.2
						c0.2,0.1,0.1,0,0.4,0.1c-0.1,0,0-0.2,0.1-0.2c0,0,0,0.2,0,0.2l0.3-0.2c-0.1,0,0,0.2,0.1,0.2c0,0,0.2,0,0.3-0.1l-0.1,0
						c0.3,0,0.3-0.3,0.6-0.4c0,0,0,0.2,0.1,0.2c0.1-0.1,0.2-0.5,0.5-0.6l0.1,0l0.2-0.1c-0.1,0.2-0.4,0.5-0.6,0.7c0.1,0,0,0.1,0.2,0
						c0.1,0-0.1,0.1-0.1,0.1l0.4-0.1c0-0.1,0.3-0.2,0.3-0.3l-0.4,0.2c0-0.1,0.2-0.4,0.5-0.4c0.1,0,0,0.2,0,0.2c0,0,0.3-0.1,0.3-0.1
						l-0.1,0.1c0.2,0,0.2-0.2,0.5-0.1c0.1,0,0.2,0.1,0.2,0c-0.1-0.1-0.2-0.5-0.2-0.6c0,0,0.4,0,0.5,0.1c0.1,0.1-0.1,0.3,0,0.3
						c0,0,0.1-0.1,0.1-0.1c0.1,0,0,0.1,0.1,0.1c0-0.1,0.3-0.1,0.1-0.1c0.1-0.1,0.2,0,0.3-0.1c-0.1-0.1,0.1-0.3,0.3-0.3
						c0,0,0,0.1,0.1,0.1c0.3-0.1,0.5,0,0.8-0.1c0,0,0.2,0,0.1,0.1c0,0,0.1-0.1,0.2-0.1c0.2,0.1-0.2,0.1,0,0.1c0-0.1,0.2-0.1,0.3-0.2
						c-0.1-0.1-0.3,0-0.4,0.1c0-0.1,0.2-0.3,0.5-0.4c0.2-0.1,0.1,0.1,0.2,0c0.5-0.1,0.3-0.3,0.7-0.3c0.2,0.1,0,0.2,0.1,0.2
						c-0.2,0.1-0.3,0-0.5,0l0.2,0c-0.1,0-0.2,0.1-0.3,0.1c0.1,0.1,0.8-0.1,1.1-0.1c0.1,0,0.2-0.1,0.1-0.1l-0.1,0
						c-0.1,0,0.2-0.1,0-0.1c0.1-0.1,0.3-0.2,0.5-0.2l0.1,0.1c0,0-0.2,0-0.2,0c0.1-0.1,0.4,0.1,0.4-0.1l-0.2,0
						c0.1-0.1,0.3-0.2,0.5-0.2c-0.1-0.1,0,0-0.2-0.1c0.1,0.1-0.5,0.1-0.3,0.2c-0.2-0.1-0.2,0-0.5-0.1c0,0,0.1,0-0.1,0.1c0,0,0,0,0,0
						c0,0,0,0,0,0c0,0,0,0,0,0c0,0,0,0,0,0c0,0,0.1,0,0.1,0c-0.1,0.1-0.3,0.1-0.4,0.2c-0.1,0,0,0,0-0.1l-0.1,0.1
						c0-0.1-0.3-0.1-0.1-0.2l-0.2,0c-0.1,0-0.3,0-0.4,0.1c-0.1,0-0.2,0.1-0.2,0.1l-0.3,0.1l0,0c-0.3,0.1-0.6,0.2-1,0.2
						c-0.1,0-0.2,0.1-0.4,0.1l0-0.1c-0.1,0-0.4,0-0.5,0.1c-0.2-0.1-0.7,0.1-0.9,0.1l0,0.1c-0.2,0-0.3,0.1-0.5,0.2l0,0.1
						c-0.2,0.1-0.5,0-0.7,0.1c0,0,0.1,0,0.1,0c-0.4-0.1-0.7,0.3-1,0.2c-0.1,0-0.1,0-0.2,0c0,0,0,0,0,0c0,0,0,0,0,0c0,0-0.1,0-0.1,0
						c0,0,0.1,0,0.1,0c-0.1,0-0.1,0-0.2,0.1l-0.1-0.1c0,0,0,0,0,0c-0.1,0-0.1,0,0,0.1c0,0-0.1,0-0.1,0.1c-0.1-0.1-0.2,0.1-0.3,0
						c0,0.1-0.4,0.1-0.4,0.3c0,0,0,0,0,0c-0.1,0-0.2,0-0.3,0.1l-0.1-0.1l-0.2,0.2c-0.1,0-0.2-0.1-0.1-0.2c-0.3,0.2-0.2,0.1-0.5,0.3
						l0-0.1c-0.1,0-0.2,0.1-0.3,0.1c-0.2-0.1-1,0.2-1.6,0.2c0.1,0.2-0.3,0-0.3,0.1c0,0-0.1,0,0-0.1c-0.3,0.1-0.4,0-0.6,0.2
						c0,0,0-0.1,0-0.1c0,0-0.1,0.1-0.1,0c0,0,0,0,0.1-0.1c-0.3,0.1-0.3,0.2-0.3,0.3c-0.1,0-0.2,0-0.3,0.1c-0.1,0-0.1-0.1,0-0.1
						c-0.1,0-0.6,0.1-0.6,0.2c0,0-0.1,0-0.2,0c-0.2,0-0.2,0-0.4,0.1l0.1,0c-0.1,0.1-0.2,0.1-0.3,0.1l0,0c-0.4,0-0.2,0.1-0.6,0.1
						l0,0.1c0,0.2-0.4,0-0.6,0.1l0.1,0c-0.1,0.1-0.4-0.2-0.5-0.1c0,0,0,0,0.1,0c-0.3,0,0,0.1-0.3,0.2c-0.1,0,0-0.1-0.1-0.1
						c-0.1,0-0.4,0.3-0.7,0.2c0.1,0,0.1,0.1,0,0.1c-0.2,0-0.5-0.1-0.6,0.1c0,0,0,0,0,0c-0.1,0.1-0.4,0.1-0.5,0.2
						c-0.2-0.2-0.8,0.3-0.8,0l-0.4,0.1l0,0c-0.3,0-0.3,0.1-0.4,0.2c-0.1,0,0,0,0,0c-0.4,0-0.4,0-0.7,0.2l0-0.1
						c-0.1,0.1-0.6,0-0.9,0.2c0,0,0,0,0,0c-0.4,0.2-1,0-1.1,0.3l-0.3,0.1c0.4,0,0,0.1,0.1,0.2c-0.1,0-0.4,0-0.2-0.1l0,0
						c0-0.2-0.4,0-0.5-0.1c-0.7,0.1-1.4,0.2-2,0.3l0.1,0.1l-0.2,0c-0.1,0-0.1-0.1,0.1-0.1c-0.1,0-0.3,0.1-0.3,0.1
						c-0.3,0,0.1-0.2,0-0.1l-0.1,0l0,0c-0.1,0.1-0.1,0.1-0.3,0.2c-0.1,0-0.1-0.1-0.1-0.1c0,0,0,0-0.1,0l-0.3,0l0.1,0.1
						c-0.1,0.1-0.3,0-0.1,0.1c-0.2-0.1-1.1,0.2-1.2,0.1c-0.2,0.1-0.3,0.1-0.6,0.2c0.1,0,0.1,0.1-0.1,0.1c0-0.2-0.4,0-0.5-0.1
						c0.2,0.1-0.5,0.1-0.3,0.2c-0.2,0,0-0.1-0.2-0.1c-0.4,0.2-0.8,0.1-1.3,0.2c0,0,0.1,0.1,0,0.1l-0.3-0.1c-0.1,0,0,0.2-0.2,0.1
						c0,0,0.1,0,0,0.1c-0.9,0-1.8,0.5-2.8,0.4c0.1,0,0.1,0.1,0,0.1c0.1,0,0,0.1,0,0.1l-0.4,0c0,0.1-0.4,0.1-0.4,0.2l0.1,0
						c-0.1,0.2,0.3,0.2,0.3,0.4c0.2-0.2,0.5,0.1,0.8-0.1c0.1,0,0,0.1,0,0.1c0.1-0.1,0.1-0.1,0.3-0.1l0,0c0.5-0.1,0.7-0.1,1.2-0.2
						l-0.1-0.1c0.1,0,0.1,0,0.2,0c0.1-0.1-0.3,0.1-0.2-0.1c0.2,0.1,0.8-0.2,0.9,0c0.2,0-0.1-0.1,0.1-0.1l0.1,0l0-0.1
						c0.1,0,0.2,0,0.2,0.1c0,0-0.1,0-0.1,0c0.2,0,0.4-0.1,0.5-0.1l-0.2,0c0.5-0.1,1.1-0.2,1.5-0.4l0,0c0.3-0.1,0.3,0,0.7-0.1l0,0
						c0.1-0.1,0.2-0.1,0.3-0.1c-0.1,0.1,0.2,0,0.1,0.1c0.4-0.1,0.2-0.1,0.4-0.3l0.1,0c0.1-0.1,0.1-0.1,0.3-0.2
						c-0.1,0.1,0.1,0.1,0,0.2c0.4,0,0.6-0.3,0.8-0.1c0.2-0.2-0.4,0-0.3-0.1c-0.1,0,0.1-0.2,0.3-0.2c0.1,0,0.3,0.2,0.6,0.1
						c0,0,0,0-0.1,0c0.1,0,0.2-0.1,0.4-0.1c0.1-0.1,0.2,0,0.2-0.2l-0.3,0.1c0.2-0.1,0.3-0.2,0.6-0.2c0,0-0.1,0.1-0.1,0.1
						c0.1,0,0.2-0.1,0.2,0c0,0.1-0.4,0.1-0.5,0.2c0.1,0,0.3-0.2,0.3,0c0.1-0.2,0.3,0,0.5-0.2l0,0.1c0,0,0.1-0.1,0.2-0.1l-0.1,0.1
						c0.2-0.1,0.4,0,0.5-0.1c-0.4,0.1-0.1-0.1-0.3-0.1c0.4-0.2,0.3,0.1,0.8,0c-0.1,0-0.3,0-0.2-0.1c0.1,0,0.2,0,0.3,0
						c0.3-0.1-0.1-0.1,0.1-0.1c0.1,0.1,0.2-0.1,0.3-0.1l0,0.1c0.4,0,0.1-0.2,0.4-0.2l-0.1,0.1l0.2-0.1l0,0.1
						c0.2-0.1,0.2-0.1,0.4-0.1c-0.1,0,0-0.1,0.2-0.2c0.1,0,0,0.1,0.2,0c0,0.1-0.1,0.1-0.2,0.1c0,0,0,0.1,0,0.1c0.1,0,0.3,0,0.4-0.1
						c0,0-0.1,0-0.1,0l0.3-0.2c0.1,0,0,0,0,0.1c0.1,0,0.1-0.1,0.2-0.1c0,0.1,0,0.1-0.1,0.2l0.3-0.1c0,0,0.2,0,0.1,0.1
						c0.2,0,0.4-0.2,0.7-0.2c0,0,0,0,0.1-0.1c0.2,0,0.4,0,0.7-0.1l0.2,0.1c0.2-0.1-0.2-0.1,0.1-0.2c0.2-0.1,0.1,0.1,0.2,0.1
						c0.1-0.1,0.3-0.2,0.5-0.2C245.1,14.3,245.1,14.3,245,14.3z M247.5,13.8c0,0-0.1,0.1-0.2,0.1C247.4,13.7,247.4,13.8,247.5,13.8z
						 M251.4,12.8c0,0-0.1,0-0.2,0C251.2,12.8,251.3,12.8,251.4,12.8z M262,10.1C262,10.1,262,10.1,262,10.1
						C261.9,10.1,261.9,10.1,262,10.1z M262.2,10.1C262.3,10,262.3,10,262.2,10.1c0,0-0.1,0-0.1,0C262.1,10.1,262.2,10.1,262.2,10.1
						z M237.8,15.1L237.8,15.1C237.7,15.1,237.7,15.1,237.8,15.1z"/>
					<path fill="#202020" d="M250.9,13C250.9,13,250.9,13,250.9,13C250.9,13,250.9,13,250.9,13z"/>
					<path fill="#202020" d="M243.4,14.7C243.4,14.7,243.4,14.7,243.4,14.7C243.4,14.7,243.4,14.7,243.4,14.7L243.4,14.7z"/>
					<path fill="#202020" d="M258.8,11.4C258.8,11.4,258.8,11.4,258.8,11.4C258.7,11.4,258.8,11.4,258.8,11.4z"/>
					<path fill="#202020" d="M263.4,9.7l-0.1,0C263.4,9.7,263.4,9.7,263.4,9.7C263.4,9.7,263.4,9.7,263.4,9.7z"/>
					<path fill="#202020" d="M264.8,9.9C264.8,9.9,264.8,9.9,264.8,9.9L264.8,9.9C264.7,9.9,264.7,9.9,264.8,9.9z"/>
					<path fill="#202020" d="M263.6,9.9c0,0.1,0.1,0,0.2,0c0,0,0,0,0,0C263.8,9.8,263.7,9.9,263.6,9.9z"/>
					<path fill="#202020" d="M263.8,9.9C263.9,9.9,263.9,9.9,263.8,9.9C263.9,9.8,263.9,9.9,263.8,9.9z"/>
					<path fill="#202020" d="M262.5,10C262.6,10,262.5,9.9,262.5,10C262.6,9.8,262.3,10.1,262.5,10z"/>
					<polygon fill="#202020" points="263.7,10.1 263.7,10 263.6,10.1 					"/>
					<path fill="#202020" d="M262.9,10.2l0.2,0c0,0,0,0,0,0C263,10.2,262.9,10.2,262.9,10.2z"/>
					<path fill="#202020" d="M263.1,10.2c0.1,0,0.1,0,0.1,0C263.2,10.1,263.2,10.1,263.1,10.2z"/>
					<polygon fill="#202020" points="263.5,10.2 263.5,10.2 263.3,10.2 					"/>
					<path fill="#202020" d="M261.2,10.5l-0.2,0.1C261,10.6,261,10.6,261.2,10.5C261.1,10.6,261.2,10.6,261.2,10.5z"/>
					<path fill="#202020" d="M261.7,10.7C261.7,10.6,261.7,10.6,261.7,10.7L261.7,10.7L261.7,10.7z"/>
					<path fill="#202020" d="M261.2,10.8C261.2,10.8,261,10.9,261.2,10.8C261.2,10.8,261.4,10.8,261.2,10.8z"/>
					<polygon fill="#202020" points="258.5,11.2 258.6,11.2 258.5,11 					"/>
					<path fill="#202020" d="M256.2,12.1c0.2,0,0-0.1,0.2-0.1c0,0-0.2,0-0.1-0.1C256.2,12,256.1,12,256.2,12.1z"/>
					<path fill="#202020" d="M256.3,11.9C256.3,11.9,256.4,11.9,256.3,11.9C256.4,11.9,256.3,11.9,256.3,11.9z"/>
					<polygon fill="#202020" points="229.4,16.7 229.3,16.7 229.4,16.7 					"/>
					<path fill="#202020" d="M229.2,16.9L229.2,16.9l-0.1,0C229.1,16.9,229.2,16.8,229.2,16.9z"/>
					<path fill="#202020" d="M248,13.9L248,13.9c0,0-0.1,0-0.1,0L248,13.9z"/>
					<polygon fill="#202020" points="246.1,14.2 246.1,14.2 246,14.1 					"/>
					<path fill="#202020" d="M244.6,14.6c0.1,0,0.1,0,0.2-0.1C244.6,14.6,244.5,14.5,244.6,14.6z"/>
				</g>
			</g>
		</g>
	</g>
	<g display="inline">
		<path d="M229.1,19.5c0,0,1.5-0.4,3.8-1c1.2-0.3,2.5-0.6,3.9-0.9c1.4-0.3,3-0.6,4.5-1c1.5-0.3,3.1-0.6,4.5-0.9
			c1.4-0.3,2.8-0.5,4-0.7c2.3-0.4,3.9-0.6,3.9-0.6s-1.5,0.4-3.8,1c-1.2,0.3-2.5,0.6-3.9,0.9c-1.4,0.3-3,0.6-4.5,1
			c-1.5,0.3-3.1,0.6-4.5,0.9c-1.4,0.3-2.8,0.5-4,0.7C230.7,19.3,229.1,19.5,229.1,19.5z"/>
	</g>
	<g display="inline">
		<path d="M229.1,26.8c0,0,1.7-0.5,4.4-1.1c1.3-0.3,2.9-0.7,4.5-1c1.7-0.3,3.4-0.7,5.2-1.1c1.8-0.3,3.5-0.7,5.2-1
			c1.7-0.3,3.2-0.6,4.6-0.8c2.7-0.4,4.5-0.7,4.5-0.7s-1.7,0.5-4.4,1.1c-1.3,0.3-2.9,0.7-4.5,1c-1.7,0.3-3.4,0.7-5.2,1.1
			c-1.8,0.3-3.5,0.7-5.2,1c-1.7,0.3-3.2,0.6-4.6,0.8C230.9,26.6,229.1,26.8,229.1,26.8z"/>
	</g>
	<g display="inline">
		<path d="M237.5,28c0,0,1.2-0.4,3.1-0.8c0.9-0.2,2-0.5,3.2-0.8c1.2-0.3,2.4-0.5,3.7-0.8c1.3-0.2,2.5-0.5,3.7-0.7
			c1.2-0.2,2.3-0.4,3.2-0.5c1.9-0.3,3.2-0.4,3.2-0.4s-1.2,0.4-3.1,0.8c-0.9,0.2-2,0.5-3.2,0.8c-1.2,0.3-2.4,0.5-3.7,0.8
			c-1.3,0.2-2.5,0.5-3.7,0.7c-1.2,0.2-2.3,0.4-3.2,0.5C238.7,27.9,237.5,28,237.5,28z"/>
	</g>
	<g display="inline">
		<path d="M230.6,31.7c0,0,1.4-0.3,3.6-0.8c1.1-0.2,2.3-0.5,3.7-0.7c1.4-0.2,2.8-0.5,4.3-0.7c1.5-0.2,2.9-0.4,4.3-0.6
			c1.4-0.2,2.6-0.3,3.7-0.5c2.2-0.3,3.7-0.4,3.7-0.4s-1.4,0.4-3.6,0.8c-1.1,0.2-2.3,0.5-3.7,0.7c-1.4,0.2-2.8,0.5-4.3,0.7
			c-1.5,0.2-2.9,0.4-4.3,0.6c-1.4,0.2-2.6,0.3-3.7,0.5C232.1,31.6,230.6,31.7,230.6,31.7z"/>
	</g>
	<g display="inline">
		<path d="M248.6,31.3c0,0,4.8,0.5,9.5,1.2c1.2,0.1,2.4,0.3,3.5,0.4c1.1,0.2,2.1,0.4,3,0.5c1.8,0.4,2.9,0.7,2.9,0.7l0,0.1
			c0,0-1.2,0-3-0.2c-0.9-0.1-1.9-0.2-3-0.4c-1.1-0.2-2.3-0.4-3.5-0.6C253.3,32.2,248.6,31.4,248.6,31.3L248.6,31.3z"/>
	</g>
	<g display="inline">
		<path d="M101.4,29.9c0,0,7.4-0.1,14.8-0.3c1.9,0,3.7-0.1,5.4-0.1c1.7,0,3.4,0.1,4.7,0.1c2.8,0.1,4.6,0.3,4.6,0.3V30
			c0,0-1.9,0.2-4.6,0.3c-1.4,0-3,0.1-4.7,0.1c-1.7,0-3.6-0.1-5.4-0.1C108.8,30.1,101.4,30,101.4,29.9L101.4,29.9z"/>
	</g>
	<g display="inline">
		<path d="M99.8,32.3c0,0,2.5-0.1,6.1-0.3c1.8,0,4-0.1,6.3-0.2c2.3,0,4.8-0.1,7.2-0.1c2.5,0,4.9,0,7.2,0c2.3,0,4.5,0.1,6.3,0.1
			c3.7,0.1,6.1,0.2,6.1,0.2s-2.5,0.1-6.1,0.3c-1.8,0-4,0.1-6.3,0.2c-2.3,0-4.8,0.1-7.2,0.1c-2.5,0-4.9,0-7.2,0
			c-2.3,0-4.5-0.1-6.3-0.1C102.2,32.4,99.8,32.3,99.8,32.3z"/>
	</g>
	<g display="inline">
		<path d="M97.5,34.9c0,0,12.1-0.1,24.1-0.3c3,0,6-0.1,8.9-0.1c2.8,0,5.5,0.1,7.7,0.1c4.5,0.1,7.5,0.3,7.5,0.3V35c0,0-3,0.2-7.5,0.3
			c-2.3,0-4.9,0.1-7.7,0.1c-2.8,0-5.8-0.1-8.9-0.1C109.6,35.1,97.5,35,97.5,34.9L97.5,34.9z"/>
	</g>
	<g display="inline">
		<path d="M97.5,37.8c0,0,3.2-0.1,8.1-0.2c2.4,0,5.3-0.1,8.3-0.1c3,0,6.3,0,9.5,0c3.2,0,6.5,0,9.5,0c3,0,5.9,0.1,8.3,0.1
			c4.9,0.1,8.1,0.2,8.1,0.2s-3.2,0.1-8.1,0.2c-2.4,0-5.3,0.1-8.3,0.1c-3,0-6.3,0-9.5,0c-3.2,0-6.5,0-9.5,0c-3,0-5.9-0.1-8.3-0.1
			C100.8,37.9,97.5,37.8,97.5,37.8z"/>
	</g>
	<g display="inline">
		<path d="M223.5,32.7c0,0-3.4,3.9-6.9,7.8c-0.9,1-1.7,2-2.5,2.9c-0.8,0.9-1.6,1.7-2.3,2.4c-1.4,1.4-2.4,2.2-2.4,2.2l-0.1-0.1
			c0,0,0.8-1.1,2-2.6c0.6-0.7,1.4-1.6,2.2-2.5c0.8-0.9,1.8-1.8,2.7-2.7C219.8,36.3,223.4,32.6,223.5,32.7L223.5,32.7z"/>
	</g>
	<g display="inline">
		<path d="M222.5,29.3c0,0-1,1.2-2.4,3c-0.8,0.9-1.6,1.9-2.6,3c-1,1.1-2,2.2-3,3.4c-1,1.1-2.1,2.3-3.1,3.3c-1,1.1-2,2-2.8,2.9
			c-1.6,1.7-2.8,2.7-2.8,2.7s1-1.2,2.4-3c0.8-0.9,1.6-1.9,2.6-3c1-1.1,2-2.2,3-3.4c1-1.1,2.1-2.3,3.1-3.3c1-1.1,2-2,2.8-2.9
			C221.3,30.3,222.5,29.3,222.5,29.3z"/>
	</g>
	<g display="inline">
		<path d="M220.6,27.4c0,0-3.4,4-6.9,8c-0.9,1-1.7,2-2.5,2.9c-0.8,0.9-1.6,1.7-2.3,2.5c-1.4,1.4-2.4,2.3-2.4,2.3l-0.1-0.1
			c0,0,0.8-1.1,2-2.6c0.6-0.8,1.4-1.7,2.2-2.6c0.8-0.9,1.8-1.9,2.7-2.8C216.9,31.1,220.6,27.3,220.6,27.4L220.6,27.4z"/>
	</g>
	<g display="inline">
		<path d="M215.2,29.6c0,0-0.9,1.2-2.2,2.9c-0.7,0.9-1.5,1.9-2.4,2.9c-0.9,1.1-1.8,2.2-2.8,3.3c-1,1.1-1.9,2.2-2.9,3.2
			c-0.9,1-1.8,2-2.6,2.8c-1.5,1.6-2.6,2.6-2.6,2.6s0.9-1.2,2.2-2.9c0.7-0.9,1.5-1.9,2.4-2.9c0.9-1.1,1.8-2.2,2.8-3.3
			c1-1.1,1.9-2.2,2.9-3.2c0.9-1,1.8-2,2.6-2.8C214.2,30.6,215.2,29.6,215.2,29.6z"/>
	</g>
	<g display="inline">
		<path d="M215.9,24.9c0,0-0.1,0.3-0.4,0.7c-0.3,0.4-0.7,1.1-1.3,1.8c-0.3,0.4-0.6,0.8-0.9,1.2c-0.3,0.4-0.7,0.8-1.1,1.2
			c-0.8,0.8-1.6,1.8-2.3,2.8c-0.7,1-1.4,2-2.1,2.9c-0.7,0.9-1.4,1.7-2,2.4c-1.2,1.4-2.2,2.2-2.2,2.2l-0.1,0c0,0,0.6-1.1,1.7-2.6
			c0.5-0.7,1.2-1.6,1.9-2.5c0.8-0.9,1.5-1.8,2.4-2.7c0.9-0.9,1.6-1.8,2.3-2.8c0.3-0.5,0.6-0.9,0.9-1.4c0.3-0.4,0.6-0.8,0.9-1.1
			c0.6-0.7,1.1-1.2,1.5-1.6C215.6,25,215.9,24.8,215.9,24.9L215.9,24.9z"/>
	</g>
	<g display="inline">
		<path d="M216.3,20.8c0,0-5.5,6.8-11,13.6c-1.4,1.7-2.8,3.4-4,5c-1.3,1.6-2.6,3-3.7,4.3c-2.2,2.5-3.7,4-3.7,4l-0.1,0
			c0,0,1.3-1.8,3.3-4.4c1-1.3,2.2-2.8,3.5-4.4c1.3-1.6,2.8-3.2,4.2-4.9C210.5,27.4,216.2,20.8,216.3,20.8L216.3,20.8z"/>
	</g>
	<g display="inline">
		<path d="M215.6,18c0,0-0.7,1-1.8,2.5c-0.6,0.7-1.2,1.6-1.9,2.5c-0.7,0.9-1.5,1.9-2.2,2.8c-0.8,1-1.5,1.9-2.3,2.8
			c-0.7,0.9-1.5,1.7-2.1,2.4c-1.2,1.4-2.1,2.3-2.1,2.3s0.7-1,1.8-2.5c0.6-0.7,1.2-1.6,1.9-2.5c0.7-0.9,1.5-1.9,2.2-2.8
			c0.8-1,1.5-1.9,2.3-2.8c0.7-0.9,1.5-1.7,2.1-2.4C214.7,18.9,215.6,18,215.6,18z"/>
	</g>
	<g display="inline">
		<path d="M101.5,38.2c0,0-0.1,2.4-0.2,4.8c0,0.6,0,1.2-0.1,1.8c-0.1,0.6-0.1,1.1-0.2,1.5c-0.1,0.4-0.2,0.8-0.3,1.1
			c-0.1,0.3-0.1,0.4-0.1,0.4l-0.1,0c0,0,0-0.2-0.1-0.4c0-0.3,0-0.6-0.1-1.1c0-0.5,0-1,0.1-1.5c0.1-0.6,0.2-1.1,0.3-1.7
			C101,40.5,101.4,38.2,101.5,38.2L101.5,38.2z"/>
	</g>
	<g display="inline">
		<path d="M106.6,37.8c0,0-0.6,3.1-1.3,6.1c-0.2,0.8-0.3,1.5-0.5,2.3c-0.2,0.7-0.4,1.4-0.6,1.9c-0.2,0.6-0.4,1-0.5,1.3
			c-0.1,0.3-0.2,0.5-0.2,0.5l-0.1,0c0,0,0-0.2,0-0.5c0-0.3,0.1-0.8,0.2-1.4c0.1-0.6,0.2-1.3,0.4-2c0.2-0.7,0.4-1.5,0.6-2.2
			C105.6,40.8,106.5,37.8,106.6,37.8L106.6,37.8z"/>
	</g>
	<g display="inline">
		<path d="M112.2,37.8c0,0-1,2.4-2,4.8c-0.2,0.6-0.5,1.2-0.7,1.8c-0.3,0.5-0.5,1-0.8,1.5c-0.3,0.4-0.5,0.8-0.7,1
			c-0.2,0.2-0.3,0.4-0.3,0.4l-0.1,0c0,0,0-0.2,0.1-0.4c0.1-0.3,0.2-0.7,0.4-1.1c0.2-0.5,0.4-1,0.6-1.5c0.3-0.5,0.6-1.1,0.9-1.7
			C110.8,40.1,112.1,37.8,112.2,37.8L112.2,37.8z"/>
	</g>
	<g display="inline">
		<path d="M114.7,37.8c0,0-0.9,3.1-1.8,6.2c-0.2,0.8-0.4,1.6-0.7,2.3c-0.2,0.7-0.5,1.4-0.7,1.9c-0.2,0.6-0.4,1-0.6,1.3
			c-0.2,0.3-0.3,0.5-0.3,0.5l-0.1,0c0,0,0-0.2,0.1-0.6c0.1-0.4,0.2-0.9,0.3-1.4c0.1-0.6,0.3-1.3,0.6-2c0.2-0.7,0.5-1.5,0.8-2.2
			C113.4,40.8,114.6,37.8,114.7,37.8L114.7,37.8z"/>
	</g>
	<g display="inline">
		<path d="M118.4,37.8c0,0-0.8,3.1-1.6,6.2c-0.2,0.8-0.4,1.6-0.6,2.3c-0.2,0.7-0.5,1.4-0.7,1.9c-0.2,0.6-0.4,1-0.6,1.3
			c-0.2,0.3-0.2,0.5-0.2,0.5l-0.1,0c0,0,0-0.2,0.1-0.6c0-0.4,0.1-0.8,0.3-1.4c0.1-0.6,0.3-1.3,0.5-2c0.2-0.7,0.5-1.5,0.8-2.2
			C117.2,40.8,118.3,37.8,118.4,37.8L118.4,37.8z"/>
	</g>
	<g display="inline">
		<path d="M121.4,37.8c0,0-0.6,3-1.3,5.9c-0.2,0.7-0.3,1.5-0.5,2.2c-0.2,0.7-0.4,1.3-0.6,1.9c-0.2,0.5-0.4,1-0.5,1.3
			c-0.1,0.3-0.2,0.5-0.2,0.5l-0.1,0c0,0,0-0.2,0-0.5c0-0.3,0.1-0.8,0.2-1.4c0.1-0.6,0.2-1.2,0.4-1.9c0.2-0.7,0.4-1.4,0.6-2.1
			C120.5,40.7,121.4,37.8,121.4,37.8L121.4,37.8z"/>
	</g>
	<g display="inline">
		<path d="M125.2,38c0,0-0.8,3-1.6,6c-0.2,0.8-0.4,1.5-0.6,2.2c-0.2,0.7-0.5,1.3-0.7,1.9c-0.2,0.5-0.4,1-0.6,1.3
			c-0.2,0.3-0.2,0.5-0.2,0.5l-0.1,0c0,0,0-0.2,0.1-0.5c0-0.3,0.1-0.8,0.3-1.4c0.1-0.6,0.3-1.2,0.5-1.9c0.2-0.7,0.5-1.4,0.8-2.1
			C124,40.9,125.1,38,125.2,38L125.2,38z"/>
	</g>
	<g display="inline">
		<path d="M159.9,13.6c0,0-2.3,0-5.8,0c-1.7,0-3.7-0.1-5.9-0.1c-2.2-0.1-4.5-0.2-6.8-0.3c-2.3-0.1-4.6-0.2-6.8-0.4
			c-2.2-0.1-4.2-0.3-5.9-0.4c-3.4-0.2-5.7-0.5-5.7-0.5s2.3,0,5.8,0c1.7,0,3.7,0.1,5.9,0.1c2.2,0.1,4.5,0.2,6.8,0.3
			c2.3,0.1,4.6,0.2,6.8,0.4c2.2,0.1,4.2,0.3,5.9,0.4C157.6,13.4,159.9,13.6,159.9,13.6z"/>
	</g>
	<g display="inline">
		<path d="M158.7,15.9c0,0-2.2,0-5.6,0c-1.7,0-3.6,0-5.7-0.1c-2.1-0.1-4.3-0.1-6.5-0.2c-2.2-0.1-4.5-0.2-6.5-0.3
			c-2.1-0.1-4-0.2-5.7-0.3c-3.3-0.2-5.6-0.4-5.6-0.4s2.2,0,5.6,0c1.7,0,3.6,0,5.7,0.1c2.1,0.1,4.3,0.1,6.5,0.2
			c2.2,0.1,4.5,0.2,6.5,0.3c2.1,0.1,4,0.2,5.7,0.3C156.5,15.7,158.7,15.9,158.7,15.9z"/>
	</g>
	<g display="inline">
		<path d="M157.2,18.8c0,0-2.1-0.1-5.4-0.2c-1.6-0.1-3.5-0.2-5.5-0.3c-2-0.2-4.1-0.3-6.3-0.5c-2.1-0.2-4.3-0.4-6.3-0.6
			c-2-0.2-3.9-0.4-5.5-0.6c-3.2-0.4-5.3-0.7-5.3-0.7s2.1,0.1,5.4,0.2c1.6,0.1,3.5,0.2,5.5,0.3c2,0.2,4.1,0.3,6.3,0.5
			c2.1,0.2,4.3,0.4,6.3,0.6c2,0.2,3.9,0.4,5.5,0.6C155.1,18.5,157.2,18.8,157.2,18.8z"/>
	</g>
	<g display="inline">
		<path d="M135.9,20c0,0,0.2-0.9,0.5-2.3c0.3-1.3,0.8-3.1,1.3-4.9c0.5-1.7,1.1-3.5,1.6-4.8c0.5-1.3,0.9-2.1,0.9-2.1
			s-0.2,0.9-0.5,2.3c-0.3,1.3-0.8,3.1-1.3,4.9c-0.5,1.7-1.1,3.5-1.6,4.8C136.3,19.2,135.9,20,135.9,20z"/>
	</g>
	<g display="inline">
		<path d="M138,22c0,0,0.2-0.7,0.5-1.8c0.3-1.1,0.8-2.5,1.3-4c0.5-1.4,1.1-2.8,1.6-3.8c0.5-1,0.9-1.7,0.9-1.7s-0.2,0.7-0.5,1.8
			c-0.3,1.1-0.8,2.5-1.3,3.9c-0.5,1.4-1.1,2.8-1.6,3.8C138.4,21.4,138,22,138,22z"/>
	</g>
	<g display="inline">
		<path d="M140.9,22c0,0,0.2-0.9,0.7-2.3c0.2-0.7,0.5-1.5,0.8-2.3c0.3-0.8,0.7-1.7,1-2.6c0.4-0.9,0.7-1.8,1.1-2.6
			c0.4-0.8,0.7-1.6,1-2.2c0.6-1.3,1.1-2.1,1.1-2.1s-0.2,0.9-0.7,2.3c-0.2,0.7-0.5,1.5-0.8,2.3c-0.3,0.8-0.7,1.7-1,2.6
			c-0.4,0.9-0.7,1.8-1.1,2.6c-0.4,0.8-0.7,1.6-1,2.2C141.4,21.2,140.9,22,140.9,22z"/>
	</g>
	<g display="inline">
		<path d="M11.4,4.4c0,0-2.8,1.8-5.5,3.5c-0.7,0.4-1.4,0.9-2,1.3c-0.7,0.4-1.3,0.7-1.9,1c-0.6,0.3-1,0.5-1.4,0.6
			C0.2,10.8,0,10.9,0,10.9l0-0.1c0,0,0.2-0.1,0.4-0.4c0.3-0.2,0.7-0.5,1.2-0.9c0.5-0.4,1.1-0.7,1.8-1.1c0.7-0.4,1.4-0.7,2.1-1.1
			C8.4,5.8,11.3,4.3,11.4,4.4L11.4,4.4z"/>
	</g>
	<g display="inline">
		<path d="M0,17.8c0,0,4-2.7,8-5.3c1-0.7,2-1.3,3-2c1-0.6,1.9-1.1,2.7-1.6c1.6-0.9,2.7-1.4,2.7-1.4l0,0.1c0,0-0.9,0.8-2.4,1.8
			c-0.7,0.5-1.6,1.1-2.6,1.7c-1,0.6-2,1.2-3,1.8C4.2,15.5,0,17.9,0,17.8L0,17.8z"/>
	</g>
	<g display="inline">
		<path d="M20.4,10.7c0,0-5,3-10.1,5.9c-1.3,0.7-2.5,1.5-3.7,2.2c-1.2,0.7-2.3,1.2-3.3,1.7c-2,1-3.3,1.6-3.3,1.6L0,22
			c0,0,1.2-0.9,3.1-2c0.9-0.6,2-1.2,3.2-1.9c1.2-0.6,2.5-1.3,3.8-2C15.2,13.3,20.4,10.6,20.4,10.7L20.4,10.7z"/>
	</g>
	<g display="inline">
		<path d="M20.4,13.6c0,0-5,3.2-10.1,6.4c-1.3,0.8-2.5,1.6-3.7,2.4c-1.2,0.7-2.3,1.4-3.3,1.9C1.4,25.4,0,26,0,26L0,26
			c0,0,1.2-0.9,3.1-2.2c0.9-0.6,2-1.3,3.2-2.1c1.2-0.7,2.5-1.5,3.8-2.2C15.2,16.5,20.4,13.6,20.4,13.6L20.4,13.6z"/>
	</g>
	<g display="inline">
		<path d="M21.9,16.7c0,0-5.4,3-10.8,5.9c-1.4,0.7-2.7,1.5-4,2.2c-1.3,0.7-2.5,1.2-3.6,1.7C1.5,27.5,0,28,0,28L0,28
			c0,0,1.3-0.8,3.3-2c1-0.6,2.2-1.2,3.5-1.9c1.3-0.6,2.7-1.3,4.1-2C16.3,19.3,21.9,16.7,21.9,16.7L21.9,16.7z"/>
	</g>
</g>
<g id="Slip_lines__x28_grains_elongated" display="none">
	<g display="inline">
		<path d="M144.6,3.7c0,0,1.1-0.3,2.8-0.6c0.9-0.2,1.8-0.4,2.9-0.6c1.1-0.2,2.2-0.4,3.3-0.6c1.1-0.2,2.3-0.3,3.4-0.5
			c1.1-0.1,2.1-0.2,2.9-0.3c1.7-0.2,2.9-0.2,2.9-0.2s-1.1,0.3-2.8,0.6c-0.9,0.2-1.8,0.4-2.9,0.6c-1.1,0.2-2.2,0.4-3.3,0.6
			c-1.1,0.2-2.3,0.3-3.4,0.5c-1.1,0.1-2.1,0.2-2.9,0.3C145.8,3.6,144.6,3.7,144.6,3.7z"/>
	</g>
	<g display="inline">
		<path d="M153.2,5.7c0,0,0.2-0.1,0.5-0.2c0.3-0.1,0.8-0.2,1.4-0.4c0.6-0.2,1.3-0.3,2-0.4c0.8-0.1,1.6-0.2,2.4-0.3
			c3.2-0.4,6.4-0.8,6.4-0.8l0,0.1c0,0-3.2,0.7-6.4,1.3c-0.8,0.2-1.6,0.3-2.3,0.5c-0.8,0.1-1.5,0.2-2.1,0.2c-0.6,0-1.1,0.1-1.5,0.1
			C153.4,5.8,153.2,5.8,153.2,5.7L153.2,5.7z"/>
	</g>
	<g display="inline">
		<path d="M159.6,6.7c0,0,1.2-0.3,3-0.7c0.9-0.2,2-0.4,3.1-0.6c1.2-0.1,2.4-0.3,3.6-0.5c4.9-0.7,9.9-1.3,9.9-1.3l0,0.1
			c0,0-4.9,0.9-9.8,1.8c-1.2,0.2-2.5,0.4-3.6,0.6c-1.2,0.2-2.2,0.3-3.2,0.4C160.9,6.7,159.6,6.7,159.6,6.7L159.6,6.7z"/>
	</g>
	<g display="inline">
		<path d="M166,8.8c0,0,0.1-0.1,0.3-0.1c0.2-0.1,0.4-0.2,0.8-0.3c0.3-0.1,0.7-0.2,1.1-0.2c0.4,0,0.8,0,1.3-0.1
			c1.7-0.1,3.4-0.1,3.4-0.1l0,0.1c0,0-1.7,0.4-3.4,0.7c-0.4,0.1-0.8,0.2-1.2,0.2c-0.4,0-0.8,0.1-1.1,0c-0.3,0-0.6,0-0.8-0.1
			C166.1,8.9,166,8.9,166,8.8L166,8.8z"/>
	</g>
	<g display="inline">
		<path d="M189.9,19.9c0,0,3.4,0.5,8.4,1.4c2.5,0.4,5.5,1,8.6,1.5c3.1,0.6,6.5,1.2,9.9,1.8c3.3,0.6,6.7,1.3,9.8,1.9
			c3.1,0.6,6.1,1.2,8.6,1.7c5,1,8.3,1.8,8.3,1.8s-3.4-0.5-8.4-1.4c-2.5-0.4-5.5-0.9-8.6-1.5c-3.1-0.6-6.5-1.2-9.9-1.8
			c-3.3-0.6-6.7-1.3-9.8-1.9c-3.1-0.6-6.1-1.2-8.6-1.7C193.3,20.6,189.9,19.9,189.9,19.9z"/>
	</g>
	<g display="inline">
		<path d="M186.1,23.1c0,0,4,0.5,10,1.3c3,0.4,6.5,0.9,10.3,1.4c3.7,0.5,7.7,1.1,11.7,1.7c4,0.6,8,1.2,11.7,1.8
			c3.7,0.6,7.2,1.1,10.2,1.6c6,1,10,1.7,10,1.7s-4-0.5-10-1.3c-3-0.4-6.5-0.9-10.3-1.4c-3.7-0.5-7.7-1.1-11.7-1.7
			c-4-0.6-8-1.2-11.7-1.8c-3.7-0.6-7.2-1.1-10.2-1.6C190,23.8,186.1,23.1,186.1,23.1z"/>
	</g>
	<g display="inline">
		<path d="M182.6,25.9c0,0,4.8,0.5,11.9,1.3c3.6,0.4,7.8,0.9,12.2,1.5c4.5,0.6,9.2,1.2,14,1.8c4.8,0.6,9.5,1.3,14,1.9
			c4.5,0.6,8.6,1.2,12.2,1.7c7.1,1.1,11.9,1.8,11.9,1.8s-4.8-0.5-11.9-1.3c-3.6-0.4-7.8-0.9-12.2-1.5c-4.5-0.6-9.2-1.2-14-1.8
			c-4.8-0.6-9.5-1.3-14-1.9c-4.5-0.6-8.6-1.2-12.2-1.7C187.3,26.6,182.6,25.9,182.6,25.9z"/>
	</g>
	<g display="inline">
		<path d="M180,28.2c0,0,5.3,0.7,13.4,1.7c4,0.5,8.7,1.1,13.7,1.8c5,0.7,10.3,1.4,15.7,2.1c5.3,0.8,10.7,1.5,15.6,2.2
			c5,0.7,9.6,1.4,13.6,2c8,1.2,13.3,2.1,13.3,2.1s-5.3-0.7-13.4-1.7c-4-0.5-8.7-1.1-13.7-1.8c-5-0.7-10.3-1.4-15.7-2.1
			c-5.3-0.8-10.7-1.5-15.6-2.2c-5-0.7-9.6-1.4-13.6-2C185.3,29,180,28.2,180,28.2z"/>
	</g>
	<g display="inline">
		<path d="M177.5,30c0,0,1.1,0.1,3.1,0.4c2,0.2,4.8,0.6,8.2,1c3.4,0.4,7.4,1,11.6,1.5c4.2,0.6,8.8,1.2,13.3,1.8
			c4.5,0.6,9.1,1.3,13.3,1.9c4.2,0.6,8.2,1.2,11.6,1.7c3.4,0.5,6.2,1,8.2,1.3c2,0.3,3.1,0.5,3.1,0.5s-1.1-0.1-3.1-0.4
			c-2-0.2-4.8-0.6-8.2-1c-3.4-0.4-7.4-1-11.6-1.5c-4.2-0.6-8.8-1.2-13.3-1.8c-4.5-0.6-9.1-1.3-13.3-1.9c-4.2-0.6-8.2-1.2-11.6-1.7
			c-3.4-0.5-6.2-1-8.2-1.3C178.6,30.2,177.5,30,177.5,30z"/>
	</g>
	<g display="inline">
		<path d="M176.6,31.4c0,0,2.3,0.3,5.6,0.8c1.7,0.3,3.7,0.5,5.8,0.9c2.1,0.3,4.4,0.7,6.6,1.1c2.2,0.4,4.5,0.8,6.6,1.2
			c2.1,0.4,4.1,0.8,5.7,1.1c3.3,0.7,5.6,1.2,5.6,1.2s-2.3-0.3-5.6-0.7c-1.7-0.3-3.7-0.5-5.8-0.9c-2.1-0.3-4.4-0.7-6.6-1.1
			c-2.2-0.4-4.5-0.8-6.6-1.2c-2.1-0.4-4.1-0.8-5.7-1.1C178.8,31.9,176.6,31.4,176.6,31.4z"/>
	</g>
	<g display="inline">
		<path d="M173.3,34.1c0,0,1.1,0.2,3,0.5c1.9,0.3,4.7,0.8,8,1.4c3.3,0.6,7.1,1.3,11.3,2c4.1,0.8,8.5,1.6,12.9,2.4
			c4.4,0.8,8.8,1.7,12.9,2.5c4.1,0.8,7.9,1.6,11.2,2.2c3.3,0.7,6,1.2,7.9,1.6c1.9,0.4,3,0.6,3,0.6s-1.1-0.2-3-0.5
			c-1.9-0.3-4.7-0.8-8-1.4c-3.3-0.6-7.1-1.3-11.3-2c-4.1-0.8-8.5-1.6-12.9-2.4c-4.4-0.8-8.8-1.7-12.9-2.5c-4.1-0.8-7.9-1.6-11.2-2.2
			c-3.3-0.7-6-1.2-7.9-1.6C174.4,34.3,173.3,34.1,173.3,34.1z"/>
	</g>
	<g display="inline">
		<path d="M271.7,0.9c0,0,1.7,0.9,4.1,2.3c1.2,0.7,2.7,1.5,4.2,2.5c1.5,0.9,3.1,1.9,4.7,2.9c1.6,1,3.2,2,4.7,3
			c1.5,0.9,2.9,1.9,4.1,2.7c2.4,1.6,3.9,2.7,3.9,2.7s-1.7-0.9-4.1-2.3c-1.2-0.7-2.7-1.5-4.2-2.5c-1.5-0.9-3.1-1.9-4.7-2.9
			c-1.6-1-3.2-2-4.7-3c-1.5-1-2.9-1.9-4.1-2.7C273.2,2,271.7,0.9,271.7,0.9z"/>
	</g>
	<g display="inline">
		<path d="M267.3,1.6c0,0,1.6,0.8,3.9,2.1c1.2,0.7,2.5,1.4,3.9,2.2c1.4,0.8,3,1.7,4.5,2.6c1.5,0.9,3,1.9,4.4,2.7
			c1.4,0.9,2.7,1.7,3.8,2.4c2.2,1.4,3.7,2.5,3.7,2.5s-1.6-0.8-3.9-2.1c-1.2-0.7-2.5-1.4-3.9-2.2c-1.4-0.8-3-1.7-4.5-2.6
			c-1.5-0.9-3-1.9-4.4-2.7c-1.4-0.9-2.7-1.7-3.8-2.4C268.7,2.6,267.3,1.6,267.3,1.6z"/>
	</g>
	<g display="inline">
		<path d="M260.9,1.2c0,0,1.5,0.9,3.8,2.2c1.1,0.7,2.5,1.5,3.8,2.4c1.4,0.9,2.9,1.8,4.4,2.8c1.5,1,2.9,2,4.3,2.9
			c1.4,0.9,2.6,1.8,3.7,2.6c2.2,1.5,3.6,2.6,3.6,2.6s-1.5-0.9-3.8-2.2c-1.1-0.7-2.5-1.5-3.8-2.4c-1.4-0.9-2.9-1.8-4.4-2.8
			c-1.5-1-2.9-2-4.3-2.9c-1.4-0.9-2.6-1.8-3.7-2.6C262.3,2.3,260.9,1.2,260.9,1.2z"/>
	</g>
	<g display="inline">
		<path d="M255.8,1.2c0,0,1.5,0.8,3.8,2.2c1.1,0.7,2.4,1.4,3.8,2.3c1.4,0.9,2.9,1.8,4.4,2.7c1.5,0.9,2.9,1.9,4.3,2.8
			c1.4,0.9,2.6,1.8,3.7,2.5c2.2,1.5,3.6,2.5,3.6,2.5s-1.5-0.8-3.8-2.2c-1.1-0.7-2.4-1.4-3.8-2.3c-1.4-0.9-2.9-1.8-4.4-2.7
			c-1.5-0.9-2.9-1.9-4.3-2.8c-1.4-0.9-2.6-1.8-3.7-2.5C257.2,2.3,255.8,1.2,255.8,1.2z"/>
	</g>
	<g display="inline">
		<path d="M256.7,4.7c0,0,0.8,0.3,2,0.9c1.2,0.6,2.8,1.4,4.3,2.3c1.5,0.9,3.1,1.8,4.2,2.6c1.1,0.8,1.8,1.3,1.8,1.3s-0.8-0.3-2-0.9
			c-1.2-0.6-2.8-1.4-4.3-2.3c-1.5-0.9-3.1-1.8-4.2-2.6C257.4,5.3,256.7,4.7,256.7,4.7z"/>
	</g>
	<g display="inline">
		<path d="M248.8,0.9c0,0,1.3,0.8,3.3,2c1,0.6,2.1,1.4,3.3,2.2c1.2,0.8,2.5,1.7,3.7,2.5c1.3,0.9,2.5,1.8,3.7,2.6
			c1.2,0.8,2.2,1.7,3.2,2.4c1.8,1.4,3,2.4,3,2.4s-1.3-0.8-3.3-2c-1-0.6-2.1-1.4-3.3-2.2c-1.2-0.8-2.5-1.7-3.7-2.5
			c-1.3-0.9-2.5-1.8-3.7-2.6c-1.2-0.8-2.2-1.7-3.2-2.4C250,1.9,248.8,0.9,248.8,0.9z"/>
	</g>
	<g display="inline">
		<path d="M37.8,40.7c0,0,3.6-0.3,9.1-0.7c2.7-0.2,5.9-0.4,9.3-0.6c3.4-0.2,7-0.4,10.7-0.6c3.6-0.2,7.3-0.4,10.7-0.5
			c3.4-0.1,6.6-0.3,9.3-0.4c5.4-0.2,9.1-0.3,9.1-0.3s-3.6,0.3-9.1,0.7c-2.7,0.2-5.9,0.4-9.3,0.6c-3.4,0.2-7,0.4-10.7,0.6
			c-3.6,0.2-7.3,0.4-10.7,0.5c-3.4,0.1-6.6,0.3-9.3,0.4C41.5,40.6,37.8,40.7,37.8,40.7z"/>
	</g>
	<g display="inline">
		<path d="M36.4,43c0,0,4-0.4,9.9-0.8c3-0.2,6.4-0.5,10.1-0.7c3.7-0.2,7.7-0.5,11.6-0.8c4-0.2,7.9-0.4,11.6-0.7
			c3.7-0.2,7.2-0.4,10.2-0.5c5.9-0.3,9.9-0.4,9.9-0.4s-4,0.4-9.9,0.8c-3,0.2-6.4,0.5-10.1,0.7c-3.7,0.2-7.7,0.5-11.6,0.8
			c-4,0.2-7.9,0.4-11.6,0.7c-3.7,0.2-7.2,0.4-10.2,0.5C40.4,42.8,36.4,43,36.4,43z"/>
	</g>
	<g display="inline">
		<path d="M35.3,44.8c0,0,3.8-0.2,9.5-0.5c2.8-0.1,6.2-0.3,9.7-0.4c3.6-0.1,7.4-0.3,11.2-0.4c3.8-0.1,7.6-0.2,11.2-0.3
			c3.6-0.1,6.9-0.1,9.7-0.2c5.7-0.1,9.5-0.1,9.5-0.1s-3.8,0.2-9.5,0.5c-2.8,0.1-6.2,0.3-9.7,0.4c-3.6,0.1-7.4,0.3-11.2,0.4
			c-3.8,0.1-7.6,0.2-11.2,0.3c-3.6,0.1-6.9,0.1-9.7,0.2C39.1,44.8,35.3,44.8,35.3,44.8z"/>
	</g>
	<g display="inline">
		<path d="M31.7,47.3c0,0,3.9-0.2,9.7-0.4c2.9-0.1,6.3-0.2,9.9-0.4c3.6-0.1,7.5-0.2,11.4-0.3C66.5,46.1,70.4,46,74,46
			c3.6,0,7-0.1,9.9-0.1c5.8,0,9.7,0,9.7,0s-3.9,0.2-9.7,0.4c-2.9,0.1-6.3,0.2-9.9,0.4c-3.6,0.1-7.5,0.2-11.4,0.3
			c-3.9,0.1-7.7,0.2-11.4,0.2c-3.6,0-7,0.1-9.9,0.1C35.6,47.3,31.7,47.3,31.7,47.3z"/>
	</g>
	<g display="inline">
		<path d="M31.7,49.8c0,0,4.9-0.2,12.4-0.6c3.7-0.1,8-0.3,12.7-0.5c4.6-0.2,9.6-0.3,14.5-0.5c4.9-0.1,9.9-0.3,14.5-0.4
			c4.6-0.1,9-0.2,12.7-0.3c7.4-0.1,12.4-0.2,12.4-0.2s-4.9,0.2-12.4,0.6c-3.7,0.1-8,0.3-12.7,0.5c-4.6,0.2-9.6,0.3-14.5,0.5
			c-4.9,0.1-9.9,0.3-14.5,0.4c-4.6,0.1-9,0.2-12.7,0.3C36.7,49.7,31.7,49.8,31.7,49.8z"/>
	</g>
	<g display="inline">
		<path d="M73.2,1.8c0,0,0,0.1,0,0.3c0,0.2-0.1,0.5-0.2,0.9c-0.1,0.4-0.2,0.8-0.4,1.2c-0.2,0.4-0.4,0.8-0.7,1.3C71,7.2,70,9,70,9
			l-0.1,0c0,0,0.6-1.9,1.3-3.7c0.2-0.5,0.3-0.9,0.5-1.4c0.2-0.4,0.4-0.8,0.6-1.1c0.2-0.3,0.4-0.6,0.5-0.7C73,1.8,73.1,1.8,73.2,1.8
			L73.2,1.8z"/>
	</g>
	<g display="inline">
		<path d="M75.9,1.4c0,0,0,0.2-0.1,0.5c-0.1,0.3-0.2,0.7-0.3,1.3c-0.1,0.5-0.4,1.1-0.6,1.7c-0.3,0.6-0.6,1.3-0.9,1.9
			c-1.2,2.6-2.4,5.2-2.4,5.2l-0.1,0c0,0,0.9-2.7,1.9-5.4c0.2-0.7,0.5-1.4,0.7-2C74.4,4,74.6,3.5,74.9,3c0.3-0.5,0.5-0.9,0.6-1.1
			C75.7,1.6,75.8,1.4,75.9,1.4L75.9,1.4z"/>
	</g>
	<g display="inline">
		<path d="M78.4,1.4c0,0-0.2,1-0.6,2.4c-0.2,0.7-0.4,1.5-0.7,2.4c-0.3,0.8-0.7,1.7-1,2.6c-1.4,3.6-2.8,7.2-2.8,7.2l-0.1,0
			c0,0,1.1-3.7,2.3-7.4c0.3-0.9,0.6-1.8,0.9-2.7c0.3-0.9,0.6-1.6,0.9-2.3C77.8,2.3,78.3,1.4,78.4,1.4L78.4,1.4z"/>
	</g>
	<g display="inline">
		<path d="M80.5,1.4c0,0,0,0.1,0,0.4c0,0.2,0,0.6-0.1,1c0,0.4-0.1,0.9-0.3,1.3c-0.1,0.5-0.3,1-0.5,1.5c-0.6,2-1.3,4-1.3,4l-0.1,0
			c0,0,0.4-2.1,0.8-4.2c0.1-0.5,0.2-1,0.3-1.5c0.1-0.5,0.3-0.9,0.4-1.3C80,2.3,80.2,2,80.3,1.8C80.4,1.5,80.5,1.4,80.5,1.4L80.5,1.4
			z"/>
	</g>
	<g display="inline">
		<path d="M84.1,1.1c0,0,0,0.2-0.1,0.5c0,0.3-0.1,0.7-0.2,1.2c-0.1,0.5-0.3,1.1-0.5,1.6c-0.2,0.6-0.5,1.2-0.7,1.8c-1,2.5-2,5-2,5
			l-0.1,0c0,0,0.7-2.6,1.5-5.1c0.2-0.6,0.4-1.3,0.6-1.9C82.8,3.5,83,3,83.2,2.5c0.2-0.5,0.4-0.8,0.6-1.1C83.9,1.2,84,1.1,84.1,1.1
			L84.1,1.1z"/>
	</g>
	<g display="inline">
		<path d="M85.7,1.1c0,0,0,0.1,0.1,0.2c0.1,0.1,0.1,0.3,0.2,0.5c0.1,0.2,0.1,0.4,0.1,0.7c0,0.3-0.1,0.5-0.1,0.8
			c-0.1,1.1-0.3,2.1-0.3,2.1h-0.1c0,0-0.2-1.1-0.3-2.1c0-0.3-0.1-0.5-0.1-0.8c0-0.3,0-0.5,0.1-0.7c0.1-0.2,0.1-0.4,0.2-0.5
			C85.6,1.1,85.6,1.1,85.7,1.1L85.7,1.1z"/>
	</g>
	<g display="inline">
		<path d="M23.3,17.8c0,0-1.3,0.1-3.3,0c-1,0-2.1-0.1-3.4-0.1c-1.2-0.1-2.6-0.2-3.9-0.4c-5.3-0.5-10.5-1-10.5-1l0-0.1
			c0,0,5.3,0.2,10.6,0.5c1.3,0.1,2.6,0.1,3.9,0.2c1.2,0.1,2.4,0.2,3.4,0.3C22,17.5,23.3,17.7,23.3,17.8L23.3,17.8z"/>
	</g>
	<g display="inline">
		<path d="M28.7,16c0,0-1.6,0-4-0.2c-1.2-0.1-2.6-0.2-4.1-0.4c-1.5-0.2-3.1-0.4-4.6-0.7c-6.3-0.9-12.6-1.8-12.6-1.8l0-0.1
			c0,0,6.3,0.6,12.7,1.3c1.6,0.2,3.2,0.3,4.6,0.5c1.5,0.2,2.9,0.4,4,0.6C27.2,15.6,28.7,15.9,28.7,16L28.7,16z"/>
	</g>
	<g display="inline">
		<path d="M36.4,14.5c0,0-2.2-0.2-5.4-0.6c-1.6-0.2-3.5-0.5-5.5-0.8c-2-0.4-4.1-0.7-6.3-1.1c-8.5-1.5-17-3.1-17-3.1l0-0.1
			c0,0,8.6,1.3,17.1,2.5c2.1,0.3,4.3,0.6,6.3,0.9c2,0.3,3.9,0.7,5.5,1C34.3,13.9,36.4,14.4,36.4,14.5L36.4,14.5z"/>
	</g>
	<g display="inline">
		<path d="M41.2,12.9c0,0-2.4-0.2-5.9-0.7c-1.8-0.3-3.8-0.6-6.1-0.9c-2.2-0.4-4.6-0.8-6.9-1.3C12.9,8.3,3.5,6.6,3.5,6.6l0-0.1
			c0,0,9.5,1.5,18.9,2.9c2.4,0.4,4.7,0.7,6.9,1.1c2.2,0.4,4.3,0.8,6,1.1C38.9,12.3,41.2,12.8,41.2,12.9L41.2,12.9z"/>
	</g>
	<g display="inline">
		<path d="M31.2,8.3c0,0-1.9-0.2-4.8-0.6c-1.4-0.2-3.1-0.5-4.9-0.8c-1.8-0.3-3.7-0.7-5.6-1.1c-7.6-1.5-15.2-3-15.2-3l0-0.1
			c0,0,7.6,1.2,15.3,2.5c1.9,0.3,3.8,0.6,5.6,0.9c1.8,0.3,3.4,0.7,4.9,1C29.4,7.7,31.3,8.2,31.2,8.3L31.2,8.3z"/>
	</g>
	<g display="inline">
		<path d="M16,7.1c0,0-1-0.1-2.4-0.3c-0.7-0.1-1.5-0.3-2.4-0.5c-0.9-0.2-1.8-0.5-2.7-0.7c-3.7-1-7.3-2-7.3-2l0-0.1
			c0,0,3.7,0.7,7.4,1.5c0.9,0.2,1.9,0.4,2.7,0.5c0.9,0.2,1.7,0.4,2.3,0.6C15.1,6.7,16,7,16,7.1L16,7.1z"/>
	</g>
	<g display="inline">
		<path d="M116.9,43.9c0,0,0,0.4-0.1,1c-0.1,0.6-0.2,1.3-0.4,2c-0.2,0.7-0.5,1.4-0.8,1.9c-0.3,0.5-0.5,0.8-0.5,0.8s0-0.4,0.1-1
			c0.1-0.6,0.2-1.3,0.4-2c0.2-0.7,0.5-1.4,0.8-1.9C116.7,44.2,116.9,43.9,116.9,43.9z"/>
	</g>
	<g display="inline">
		<path d="M119,48.6c0,0,0.1,0.1,0.1,0.2c0.1,0.1,0.1,0.3,0,0.4c-0.1,0.1-0.2,0.2-0.3,0.3c-0.1,0.1-0.3,0.1-0.3,0.1
			s-0.1-0.1-0.1-0.2c-0.1-0.1-0.1-0.3,0-0.4c0.1-0.1,0.2-0.2,0.3-0.3C118.8,48.6,119,48.6,119,48.6z"/>
	</g>
	<g display="inline">
		<path d="M123.4,45.8c0,0,0,0.3,0,0.7c-0.1,0.4-0.2,0.9-0.4,1.4c-0.2,0.5-0.4,0.9-0.7,1.2c-0.2,0.3-0.4,0.5-0.4,0.5s0-0.3,0-0.7
			c0.1-0.4,0.2-0.9,0.4-1.4c0.2-0.5,0.5-0.9,0.7-1.2C123.2,46,123.4,45.8,123.4,45.8z"/>
	</g>
	<g display="inline">
		<path d="M274.8,16.5c0,0-0.5,1.2-1.4,3c-0.4,0.9-0.9,1.9-1.5,3c-0.6,1.1-1.2,2.2-1.8,3.4c-0.6,1.1-1.3,2.3-1.9,3.4
			c-0.6,1.1-1.2,2-1.7,2.9c-1,1.7-1.8,2.8-1.8,2.8s0.5-1.2,1.4-3c0.4-0.9,0.9-1.9,1.5-3c0.6-1.1,1.2-2.2,1.8-3.4
			c0.6-1.1,1.3-2.3,1.9-3.4c0.6-1.1,1.2-2,1.7-2.9C274.1,17.6,274.8,16.5,274.8,16.5z"/>
	</g>
	<g display="inline">
		<path d="M276.7,16.5c0,0-0.5,1.4-1.4,3.5c-0.4,1-0.9,2.2-1.5,3.5c-0.5,1.3-1.2,2.6-1.8,4c-0.6,1.4-1.2,2.7-1.9,4
			c-0.6,1.3-1.2,2.4-1.7,3.4c-1,2-1.7,3.3-1.7,3.3s0.5-1.4,1.4-3.5c0.4-1,0.9-2.2,1.5-3.5c0.5-1.3,1.2-2.6,1.8-4
			c0.6-1.4,1.2-2.7,1.9-4c0.6-1.3,1.2-2.4,1.7-3.4C276,17.8,276.7,16.5,276.7,16.5z"/>
	</g>
	<g display="inline">
		<path d="M279.2,16.4c0,0-0.3,1-0.8,2.6c-0.3,0.8-0.6,1.7-1,2.6c-0.4,1-0.8,2-1.2,3c-0.4,1-0.8,2-1.3,2.9c-0.4,0.9-0.8,1.8-1.2,2.5
			c-0.7,1.5-1.2,2.4-1.2,2.4s0.3-1,0.8-2.6c0.3-0.8,0.6-1.7,1-2.6c0.4-1,0.8-2,1.2-3c0.4-1,0.8-2,1.3-2.9c0.4-0.9,0.8-1.8,1.2-2.5
			C278.7,17.3,279.2,16.4,279.2,16.4z"/>
	</g>
	<g display="inline">
		<path d="M281.2,16.6c0,0,0,0.5-0.1,1.2c-0.1,0.7-0.3,1.6-0.5,2.5c-0.3,0.9-0.6,1.7-0.9,2.4c-0.3,0.6-0.5,1-0.5,1s0-0.5,0.1-1.2
			c0.1-0.7,0.3-1.6,0.5-2.5c0.3-0.9,0.6-1.7,0.9-2.4C281,17,281.2,16.6,281.2,16.6z"/>
	</g>
	<g display="inline">
		<path d="M283.1,17.3c0,0-0.1,0.8-0.4,2.1c-0.3,1.2-0.7,2.8-1.2,4.5c-0.5,1.6-1,3.2-1.5,4.4c-0.5,1.2-0.8,1.9-0.8,1.9
			s0.1-0.8,0.4-2.1c0.3-1.2,0.7-2.8,1.2-4.5c0.5-1.6,1-3.2,1.5-4.4C282.7,18.1,283.1,17.3,283.1,17.3z"/>
	</g>
	<g display="inline">
		<path d="M285.6,17.3c0,0,0,0.6-0.2,1.4c-0.1,0.8-0.4,1.9-0.7,2.9c-0.3,1-0.7,2.1-1,2.8c-0.3,0.8-0.6,1.2-0.6,1.2s0-0.6,0.2-1.4
			c0.1-0.8,0.4-1.9,0.7-2.9c0.3-1,0.7-2.1,1-2.8C285.3,17.8,285.6,17.3,285.6,17.3z"/>
	</g>
	<g display="inline">
		<path d="M287.9,16.8c0,0,0,0.3,0,0.7c0,0.4-0.1,0.9-0.2,1.5c-0.1,0.5-0.3,1-0.5,1.4c-0.2,0.4-0.4,0.6-0.4,0.6s0-0.3,0-0.7
			c0-0.4,0.1-0.9,0.2-1.5c0.1-0.5,0.3-1,0.5-1.4C287.8,17,287.9,16.8,287.9,16.8z"/>
	</g>
	<g display="inline">
		<path d="M289.2,16.8c0,0,0,0.8-0.2,2c-0.1,1.2-0.4,2.8-0.6,4.4c-0.3,1.6-0.6,3.2-1,4.3c-0.3,1.2-0.6,1.9-0.6,1.9s0-0.8,0.2-2
			c0.1-1.2,0.4-2.8,0.6-4.4c0.3-1.6,0.6-3.2,1-4.3C288.9,17.5,289.2,16.8,289.2,16.8z"/>
	</g>
	<g display="inline">
		<path d="M291.3,16.9c0,0-0.1,0.8-0.2,1.9c-0.2,1.1-0.5,2.6-0.8,4.1c-0.4,1.5-0.8,2.9-1.1,4c-0.4,1.1-0.6,1.8-0.6,1.8
			s0.1-0.8,0.2-1.9c0.2-1.1,0.5-2.6,0.8-4.1c0.4-1.5,0.8-2.9,1.1-4C291.1,17.6,291.3,16.9,291.3,16.9z"/>
	</g>
	<g display="inline">
		<path d="M266,21.5c0,0,2.1-0.1,5.3-0.2c1.6,0,3.5-0.1,5.4-0.1c2,0,4.1,0,6.2,0c2.1,0,4.2,0,6.2,0.1c2,0,3.8,0.1,5.4,0.1
			c3.2,0.1,5.3,0.2,5.3,0.2s-2.1,0.1-5.3,0.2c-1.6,0-3.5,0.1-5.4,0.1c-2,0-4.1,0-6.2,0c-2.1,0-4.2,0-6.2-0.1c-2,0-3.8-0.1-5.4-0.1
			C268.1,21.6,266,21.5,266,21.5z"/>
	</g>
	<g display="inline">
		<path d="M266.8,23.7c0,0,2-0.1,5.1-0.2c1.5,0,3.3-0.1,5.2-0.1c1.9,0,4,0,6,0c2,0,4.1,0,6,0c1.9,0,3.7,0.1,5.2,0.1
			c3.1,0.1,5.1,0.2,5.1,0.2s-2,0.1-5.1,0.2c-1.5,0-3.3,0.1-5.2,0.1c-1.9,0-4,0-6,0c-2,0-4.1,0-6,0c-1.9,0-3.7-0.1-5.2-0.1
			C268.9,23.8,266.8,23.7,266.8,23.7z"/>
	</g>
	<g display="inline">
		<path d="M261.1,25.7c0,0,2.2-0.1,5.4-0.2c1.6,0,3.5-0.1,5.5-0.1c2,0,4.2,0,6.3,0c2.2,0,4.3,0,6.3,0c2,0,3.9,0.1,5.5,0.1
			c3.2,0.1,5.4,0.2,5.4,0.2s-2.2,0.1-5.4,0.2c-1.6,0-3.5,0.1-5.5,0.1c-2,0-4.2,0-6.3,0c-2.2,0-4.3,0-6.3,0c-2,0-3.9-0.1-5.5-0.1
			C263.2,25.8,261.1,25.7,261.1,25.7z"/>
	</g>
	<g display="inline">
		<polygon points="265,42.1 271.7,45.6 271.5,45.5 271.5,45.5 271.7,45.5 271.7,45.6 278,49.6 271.3,46.2 271.5,46.3 271.5,46.3 
			271.4,46.3 271.3,46.2 		"/>
	</g>
	<g display="inline">
		<path d="M283.8,49.6c0,0-0.2,0-0.4-0.2c-0.2-0.1-0.6-0.3-1-0.5c-0.8-0.4-1.9-1-2.9-1.7c-1-0.7-2-1.4-2.8-2c-0.7-0.6-1.2-1-1.2-1
			s0.6,0.2,1.4,0.7c0.8,0.4,1.9,1,2.9,1.7c1,0.7,2,1.4,2.8,2C283.3,49.2,283.8,49.6,283.8,49.6z"/>
	</g>
	<g display="inline">
		<path d="M288.7,49.6c0,0-0.6-0.2-1.6-0.7c-0.9-0.4-2.1-1-3.3-1.7c-1.2-0.7-2.3-1.4-3.1-2c-0.8-0.6-1.3-1-1.3-1s0.6,0.2,1.6,0.7
			c0.9,0.4,2.1,1,3.3,1.7c1.2,0.7,2.3,1.4,3.1,2C288.2,49.2,288.7,49.6,288.7,49.6z"/>
	</g>
	<g display="inline">
		<path d="M263.4,46.9c0,0,1.3-0.3,3.4-0.6c1-0.2,2.2-0.4,3.5-0.5c1.3-0.2,2.6-0.4,4-0.5c1.4-0.2,2.7-0.3,4-0.4
			c1.3-0.1,2.5-0.2,3.5-0.3c2.1-0.2,3.4-0.2,3.4-0.2s-1.3,0.3-3.4,0.6c-1,0.2-2.2,0.4-3.5,0.5c-1.3,0.2-2.6,0.4-4,0.5
			c-1.4,0.2-2.7,0.3-4,0.4c-1.3,0.1-2.5,0.2-3.5,0.3C264.8,46.8,263.4,46.9,263.4,46.9z"/>
	</g>
	<g display="inline">
		<path d="M269.5,49.6c0,0,1.9-0.5,4.7-1.2c1.4-0.3,3-0.7,4.8-1.1c1.8-0.4,3.7-0.8,5.5-1.2c1.9-0.4,3.8-0.7,5.6-1.1
			c1.8-0.4,3.4-0.6,4.9-0.9c2.8-0.5,4.8-0.8,4.8-0.8s-1.9,0.5-4.7,1.2c-1.4,0.3-3,0.7-4.8,1.1c-1.8,0.4-3.7,0.8-5.5,1.2
			c-1.9,0.4-3.8,0.7-5.6,1.1c-1.8,0.3-3.4,0.6-4.9,0.9C271.4,49.3,269.5,49.6,269.5,49.6z"/>
	</g>
	<g display="inline">
		<path d="M282.8,49.6c0,0,0.5-0.2,1.2-0.4c0.7-0.2,1.7-0.4,2.7-0.5c1-0.1,2-0.2,2.8-0.2c0.8,0,1.3,0,1.3,0s-0.5,0.2-1.2,0.4
			c-0.7,0.2-1.7,0.4-2.7,0.5c-1,0.1-2,0.2-2.8,0.2C283.3,49.7,282.8,49.6,282.8,49.6z"/>
	</g>
	<g display="inline">
		<path d="M113.1,8.4c0,0,0.1,0,0.3,0.2c0.2,0.1,0.5,0.3,0.8,0.5c0.3,0.2,0.6,0.5,1,0.8c0.3,0.3,0.7,0.7,1,1
			c1.4,1.4,2.7,2.8,2.7,2.8l0,0.1c0,0-1.5-1.2-3.1-2.4c-0.4-0.3-0.8-0.6-1.1-0.9c-0.3-0.3-0.6-0.6-0.9-0.9c-0.2-0.3-0.4-0.5-0.5-0.7
			C113.1,8.6,113,8.5,113.1,8.4L113.1,8.4z"/>
	</g>
	<g display="inline">
		<path d="M114.8,5.5c0,0,0.6,0.3,1.3,0.8c0.8,0.5,1.8,1.2,2.7,2c1,0.8,1.9,1.6,2.6,2.2c0.7,0.6,1.1,1.1,1.1,1.1s-0.6-0.3-1.3-0.8
			c-0.8-0.5-1.8-1.2-2.7-2c-1-0.8-1.9-1.6-2.6-2.2C115.2,6,114.8,5.5,114.8,5.5z"/>
	</g>
	<g display="inline">
		<path d="M115.9,4c0,0,0.8,0.4,2,1.2c1.2,0.7,2.7,1.8,4.2,2.8c1.5,1.1,2.9,2.2,4,3.1c1.1,0.9,1.7,1.5,1.7,1.5s-0.8-0.4-2-1.2
			c-1.2-0.7-2.7-1.8-4.2-2.8c-1.5-1.1-2.9-2.2-4-3.1C116.6,4.6,115.9,4,115.9,4z"/>
	</g>
	<g display="inline">
		<path d="M118.8,0.9c0,0,0.8,0.6,1.9,1.5c0.5,0.5,1.2,1,1.9,1.6c0.7,0.6,1.4,1.3,2.1,2c0.7,0.7,1.4,1.4,2,2
			c0.6,0.6,1.2,1.3,1.7,1.8c1,1.1,1.6,1.8,1.6,1.8s-0.8-0.6-1.9-1.5c-0.5-0.5-1.2-1-1.9-1.6c-0.7-0.6-1.4-1.3-2.1-2
			c-0.7-0.7-1.4-1.4-2-2c-0.6-0.6-1.2-1.3-1.7-1.8C119.4,1.7,118.8,0.9,118.8,0.9z"/>
	</g>
	<g display="inline">
		<path d="M126.4,1.7c0,0,0.2,0.1,0.4,0.4c0.3,0.2,0.6,0.6,1,1c0.4,0.4,0.8,0.9,1.3,1.5c0.4,0.6,0.9,1.2,1.3,1.8
			c1.8,2.5,3.6,5,3.6,5l-0.1,0c0,0-2-2.3-4-4.7c-0.5-0.6-1-1.2-1.5-1.7c-0.4-0.6-0.8-1.1-1.1-1.6c-0.3-0.5-0.6-0.9-0.7-1.2
			C126.5,1.9,126.4,1.7,126.4,1.7L126.4,1.7z"/>
	</g>
	<g display="inline">
		<path d="M149.2,49.6c0,0-0.2-0.3-0.4-0.9c-0.2-0.5-0.4-1.2-0.6-1.9c-0.1-0.7-0.2-1.5-0.3-2c0-0.6,0-0.9,0-0.9s0.2,0.3,0.4,0.9
			c0.2,0.5,0.4,1.2,0.6,1.9c0.1,0.7,0.2,1.5,0.3,2C149.2,49.2,149.2,49.6,149.2,49.6z"/>
	</g>
	<g display="inline">
		<path d="M155.1,49.6c0,0-0.2-0.4-0.5-1.1c-0.3-0.7-0.6-1.6-0.9-2.5c-0.3-0.9-0.5-1.9-0.6-2.6c-0.1-0.7-0.1-1.2-0.1-1.2
			s0.2,0.4,0.5,1.1c0.3,0.7,0.6,1.6,0.9,2.5c0.3,0.9,0.5,1.9,0.6,2.6C155.1,49.1,155.1,49.6,155.1,49.6z"/>
	</g>
	<g display="inline">
		<path d="M160.4,49.6c0,0-0.3-0.5-0.7-1.2c-0.4-0.8-0.9-1.8-1.4-2.9c-0.4-1.1-0.8-2.1-1.1-3c-0.2-0.8-0.4-1.4-0.4-1.4
			s0.3,0.5,0.8,1.2c0.4,0.8,0.9,1.8,1.4,2.9c0.4,1.1,0.8,2.2,1.1,3C160.3,49,160.4,49.6,160.4,49.6z"/>
	</g>
	<g display="inline">
		<path d="M166.2,49.6c0,0-0.4-0.5-0.9-1.3c-0.5-0.8-1.2-1.9-1.8-3c-0.6-1.1-1.2-2.3-1.5-3.2c-0.4-0.9-0.6-1.5-0.6-1.5
			s0.4,0.5,0.9,1.3c0.5,0.8,1.2,1.9,1.8,3c0.6,1.1,1.2,2.3,1.5,3.2C166,49,166.2,49.6,166.2,49.6z"/>
	</g>
	<g display="inline">
		<path d="M143.3,44.8c0,0,0.1,0.3,0.2,0.8c0.1,0.5,0.1,1.1,0.1,1.7c0,0.6-0.1,1.2-0.2,1.7c-0.1,0.5-0.2,0.8-0.2,0.8
			s-0.1-0.3-0.2-0.8c-0.1-0.5-0.1-1.1-0.1-1.7c0-0.6,0.1-1.2,0.2-1.7C143.2,45.1,143.3,44.8,143.3,44.8z"/>
	</g>
	<g display="inline">
		<path d="M144.5,22.2c0,0,0.6,0.5,1.4,1.3c0.8,0.8,1.9,2,2.9,3.2c1,1.2,1.9,2.4,2.6,3.4c0.7,1,1.1,1.6,1.1,1.6s-0.6-0.5-1.4-1.3
			c-0.8-0.8-1.9-2-2.9-3.2c-1-1.2-1.9-2.4-2.6-3.4C144.9,22.9,144.5,22.2,144.5,22.2z"/>
	</g>
	<g display="inline">
		<path d="M146.6,20.9c0,0,0.8,0.6,1.9,1.7c0.5,0.5,1.2,1.1,1.9,1.8c0.7,0.7,1.4,1.4,2.1,2.1c0.7,0.7,1.4,1.5,2,2.2
			c0.6,0.7,1.2,1.4,1.7,2c1,1.2,1.6,2,1.6,2S157,32,155.9,31c-0.5-0.5-1.2-1.1-1.9-1.8c-0.7-0.7-1.4-1.4-2.1-2.1
			c-0.7-0.7-1.4-1.5-2-2.2c-0.6-0.7-1.2-1.4-1.7-2C147.3,21.8,146.6,20.9,146.6,20.9z"/>
	</g>
	<g display="inline">
		<path d="M150.6,20.9c0,0,0.6,0.5,1.5,1.3c0.9,0.8,2,1.9,3,3c1.1,1.1,2.1,2.3,2.8,3.3c0.7,0.9,1.2,1.6,1.2,1.6s-0.6-0.5-1.5-1.3
			c-0.9-0.8-2-1.9-3-3c-1.1-1.1-2.1-2.3-2.8-3.3C151.1,21.6,150.6,20.9,150.6,20.9z"/>
	</g>
	<g display="inline">
		<path d="M153.7,24.3c0,0,0.4-0.4,1-0.8c0.6-0.5,1.5-1,2.4-1.5c0.9-0.5,1.9-1,2.6-1.2c0.7-0.3,1.2-0.4,1.2-0.4s-0.4,0.4-1,0.8
			c-0.6,0.5-1.5,1-2.4,1.5c-0.9,0.5-1.9,1-2.6,1.2C154.2,24.2,153.7,24.3,153.7,24.3z"/>
	</g>
	<g display="inline">
		<path d="M156.5,26.5c0,0,0.6-0.5,1.6-1.1c1-0.6,2.4-1.4,3.8-2.1c1.4-0.7,2.8-1.3,3.9-1.8c1.1-0.4,1.8-0.7,1.8-0.7S167,21.4,166,22
			c-1,0.6-2.4,1.4-3.8,2.1c-1.4,0.7-2.8,1.3-3.9,1.8C157.3,26.3,156.5,26.5,156.5,26.5z"/>
	</g>
	<g display="inline">
		<path d="M160.2,30.8c0,0,0.9-0.6,2.2-1.4c0.7-0.4,1.4-0.9,2.3-1.4c0.8-0.5,1.7-1,2.6-1.5c0.9-0.5,1.8-1,2.7-1.4
			c0.9-0.4,1.7-0.8,2.4-1.2c1.4-0.7,2.4-1.1,2.4-1.1s-0.9,0.6-2.2,1.4c-0.7,0.4-1.4,0.9-2.3,1.4c-0.8,0.5-1.7,1-2.6,1.5
			c-0.9,0.5-1.8,1-2.7,1.4c-0.9,0.4-1.7,0.8-2.4,1.2C161.1,30.4,160.2,30.8,160.2,30.8z"/>
	</g>
	<g display="inline">
		<path d="M60.6,16.9c0,0-1.7,1.2-4.4,2.9c-1.3,0.8-2.9,1.8-4.6,2.8c-1.7,1-3.5,2.1-5.3,3.2c-1.8,1.1-3.6,2.1-5.3,3.1
			c-1.7,1-3.3,1.9-4.7,2.6c-2.8,1.5-4.6,2.5-4.6,2.5s1.7-1.2,4.4-2.9c1.3-0.8,2.9-1.8,4.6-2.8c1.7-1,3.5-2.1,5.3-3.2
			c1.8-1.1,3.6-2.1,5.3-3.1c1.7-1,3.3-1.9,4.7-2.6C58.8,17.9,60.6,16.9,60.6,16.9z"/>
	</g>
	<g display="inline">
		<path d="M57.3,16.1c0,0-1.6,1.1-4,2.7c-1.2,0.8-2.6,1.7-4.2,2.7c-1.5,0.9-3.2,2-4.8,3c-1.7,1-3.3,2-4.9,2.9
			c-1.5,0.9-3,1.7-4.3,2.5c-2.5,1.4-4.2,2.3-4.2,2.3s1.6-1.1,4-2.7c1.2-0.8,2.6-1.7,4.2-2.7c1.5-0.9,3.2-2,4.8-3
			c1.7-1,3.3-2,4.9-2.9c1.5-0.9,3-1.7,4.3-2.5C55.6,17,57.3,16.1,57.3,16.1z"/>
	</g>
	<g display="inline">
		<path d="M28.9,30.6c0,0,1.2-1,3.2-2.4c1-0.7,2.1-1.6,3.3-2.4c1.2-0.9,2.5-1.8,3.8-2.7c1.3-0.9,2.6-1.8,3.9-2.6
			c1.2-0.8,2.4-1.6,3.4-2.2c2-1.3,3.4-2.1,3.4-2.1s-1.2,1-3.2,2.4c-1,0.7-2.1,1.6-3.3,2.4c-1.2,0.9-2.5,1.8-3.8,2.7
			c-1.3,0.9-2.6,1.8-3.9,2.6c-1.2,0.8-2.4,1.6-3.4,2.2C30.3,29.8,28.9,30.6,28.9,30.6z"/>
	</g>
	<g display="inline">
		<path d="M27.2,29.9c0,0,1.2-1,3.1-2.3c0.9-0.7,2-1.5,3.2-2.3c1.2-0.8,2.4-1.7,3.7-2.6c1.3-0.9,2.5-1.7,3.8-2.5
			c1.2-0.8,2.4-1.5,3.3-2.1c2-1.2,3.3-2,3.3-2s-1.2,1-3.1,2.3c-0.9,0.7-2,1.5-3.2,2.3c-1.2,0.8-2.4,1.7-3.7,2.6
			c-1.3,0.9-2.5,1.7-3.8,2.5c-1.2,0.8-2.4,1.5-3.3,2.1C28.5,29.1,27.2,29.9,27.2,29.9z"/>
	</g>
	<g display="inline">
		<path d="M89.4,22.5c0,0,1.1,0.3,2.7,1c0.8,0.3,1.7,0.7,2.7,1.1c1,0.4,2,0.9,3,1.3c1,0.5,2.1,0.9,3,1.4c1,0.5,1.8,0.9,2.6,1.3
			c1.5,0.8,2.5,1.3,2.5,1.3s-1.1-0.3-2.7-1c-0.8-0.3-1.7-0.7-2.7-1.1c-1-0.4-2-0.9-3-1.3c-1-0.5-2.1-0.9-3-1.4
			c-1-0.5-1.8-0.9-2.6-1.3C90.4,23.1,89.4,22.5,89.4,22.5z"/>
	</g>
	<g display="inline">
		<path d="M99.9,24.1c0,0,0.8,0.3,2.1,0.8c1.2,0.5,2.8,1.3,4.4,2c1.6,0.8,3.1,1.7,4.3,2.3c1.1,0.7,1.9,1.2,1.9,1.2s-0.8-0.3-2.1-0.8
			c-1.2-0.5-2.8-1.3-4.4-2c-1.6-0.8-3.1-1.7-4.3-2.3C100.6,24.6,99.9,24.1,99.9,24.1z"/>
	</g>
	<g display="inline">
		<path d="M103.8,24.1c0,0,0.8,0.3,2.1,0.7c1.2,0.4,2.9,1.1,4.4,1.8c1.6,0.7,3.2,1.5,4.3,2.1c1.2,0.6,1.9,1.1,1.9,1.1
			s-0.8-0.3-2.1-0.7c-1.2-0.4-2.9-1.1-4.4-1.8c-1.6-0.7-3.2-1.5-4.3-2.1C104.6,24.6,103.8,24.1,103.8,24.1z"/>
	</g>
	<g display="inline">
		<path d="M87.8,26.2c0,0,1.4-0.2,3.4-0.5c1-0.1,2.2-0.3,3.5-0.4c1.3-0.2,2.6-0.3,4-0.4c1.4-0.1,2.7-0.2,4-0.3
			c1.3-0.1,2.5-0.1,3.5-0.2c2.1-0.1,3.4-0.1,3.4-0.1s-1.4,0.2-3.4,0.5c-1,0.1-2.2,0.3-3.5,0.4c-1.3,0.2-2.6,0.3-4,0.4
			c-1.4,0.1-2.7,0.2-4,0.3c-1.3,0.1-2.5,0.1-3.5,0.2C89.2,26.2,87.8,26.2,87.8,26.2z"/>
	</g>
	<g display="inline">
		<path d="M93.9,28.3c0,0,2.1-0.4,5.2-1c1.6-0.3,3.4-0.6,5.4-0.9c2-0.3,4.1-0.6,6.2-0.9c2.1-0.3,4.2-0.6,6.2-0.8
			c2-0.3,3.8-0.5,5.4-0.7c3.2-0.4,5.3-0.5,5.3-0.5s-2.1,0.4-5.2,1c-1.6,0.3-3.4,0.6-5.4,0.9c-2,0.3-4.1,0.6-6.2,0.9
			c-2.1,0.3-4.2,0.6-6.2,0.8c-2,0.3-3.8,0.5-5.4,0.7C96,28.1,93.9,28.3,93.9,28.3z"/>
	</g>
	<g display="inline">
		<path d="M98.6,29.2c0,0,1-0.2,2.6-0.5c0.8-0.1,1.7-0.3,2.6-0.4c1-0.1,2-0.3,3-0.4c1-0.1,2.1-0.2,3-0.3c1-0.1,1.9-0.1,2.7-0.2
			c1.6-0.1,2.6-0.1,2.6-0.1s-1,0.2-2.6,0.5c-0.8,0.1-1.7,0.3-2.6,0.4c-1,0.1-2,0.3-3,0.4c-1,0.1-2.1,0.2-3,0.3
			c-1,0.1-1.9,0.1-2.7,0.2C99.6,29.2,98.6,29.2,98.6,29.2z"/>
	</g>
</g>
<g id="Slip_lines__x28_Grain_Large" display="none">
	<g display="inline">
		<path d="M89.6,47.2c0,0,14.2-4,28.4-8.1c3.5-1,7.1-2,10.4-3c1.7-0.5,3.3-0.9,4.8-1.3c1.5-0.4,3-0.8,4.3-1.1c5.4-1.4,9-2.2,9-2.2
			l0,0.1c0,0-3.5,1.1-8.8,2.7c-1.3,0.4-2.8,0.8-4.3,1.2c-1.5,0.5-3.1,0.9-4.8,1.3c-3.3,0.9-6.9,1.9-10.5,2.8
			C103.9,43.5,89.6,47.3,89.6,47.2L89.6,47.2z"/>
	</g>
	<g display="inline">
		<path d="M98.3,51.3c0,0,3.4-1,8.5-2.5c2.6-0.7,5.6-1.6,8.8-2.5c3.2-0.9,6.6-1.8,10.1-2.8c3.4-0.9,6.9-1.8,10.1-2.7
			c3.2-0.8,6.2-1.6,8.8-2.2c5.2-1.3,8.6-2.1,8.6-2.1s-3.4,1-8.5,2.5c-2.6,0.7-5.6,1.6-8.8,2.5c-3.2,0.9-6.6,1.8-10.1,2.7
			c-3.4,0.9-6.9,1.8-10.1,2.7c-3.2,0.8-6.2,1.6-8.8,2.2C101.8,50.5,98.3,51.3,98.3,51.3z"/>
	</g>
	<g display="inline">
		<path d="M139.6,51c0,0,1-0.4,2.4-1c0.7-0.3,1.6-0.6,2.5-0.9c0.9-0.3,1.9-0.6,2.9-0.9c1-0.3,2-0.6,2.9-0.8c0.9-0.3,1.8-0.5,2.6-0.7
			c1.5-0.4,2.5-0.6,2.5-0.6s-1,0.4-2.4,1c-0.7,0.3-1.6,0.6-2.5,0.9c-0.9,0.3-1.9,0.6-2.9,0.9c-1,0.3-2,0.6-2.9,0.8
			c-0.9,0.3-1.8,0.5-2.6,0.7C140.6,50.8,139.6,51,139.6,51z"/>
	</g>
	<g display="inline">
		<path d="M121.9,50.1c0,0,5.8-1.6,11.7-3.1c1.5-0.4,2.9-0.8,4.3-1.1c1.4-0.3,2.7-0.6,3.8-0.8c2.2-0.4,3.7-0.6,3.7-0.6l0,0.1
			c0,0-1.4,0.5-3.6,1.1c-1.1,0.3-2.4,0.7-3.7,1c-1.4,0.3-2.9,0.6-4.3,1C127.9,49,122,50.2,121.9,50.1L121.9,50.1z"/>
	</g>
	<g display="inline">
		<path d="M254.1,18.3c0,0,11.5-0.1,22.9-0.3c2.9,0,5.7-0.1,8.4-0.1c2.7,0,5.2,0.1,7.3,0.1c4.3,0.1,7.2,0.3,7.2,0.3v0.1
			c0,0-2.9,0.2-7.2,0.3c-2.2,0-4.7,0.1-7.3,0.1c-2.7,0-5.6-0.1-8.4-0.1C265.6,18.6,254.1,18.4,254.1,18.3L254.1,18.3z"/>
	</g>
	<g display="inline">
		<path d="M253.4,22.4c0,0,2.9-0.1,7.3-0.3c2.2-0.1,4.7-0.1,7.5-0.2c2.7,0,5.6-0.1,8.6-0.1c2.9,0,5.8,0,8.6,0c2.7,0,5.3,0,7.5,0
			c4.4,0,7.3,0.1,7.3,0.1s-2.9,0.1-7.3,0.3c-2.2,0.1-4.7,0.1-7.5,0.2c-2.7,0-5.6,0.1-8.6,0.1c-2.9,0-5.8,0-8.6,0c-2.7,0-5.3,0-7.5,0
			C256.3,22.5,253.4,22.4,253.4,22.4z"/>
	</g>
	<g display="inline">
		<path d="M252.6,26.8c0,0,11.9-0.1,23.7-0.3c3,0,5.9-0.1,8.7-0.1c2.8,0,5.4,0.1,7.6,0.1c4.4,0.1,7.4,0.3,7.4,0.3v0.1
			c0,0-3,0.2-7.4,0.3c-2.2,0-4.8,0.1-7.6,0.1c-2.8,0-5.7-0.1-8.7-0.1C264.4,27,252.6,26.9,252.6,26.8L252.6,26.8z"/>
	</g>
	<g display="inline">
		<path d="M251.5,31.6c0,0,3-0.1,7.6-0.2c2.3,0,4.9-0.1,7.8-0.1c2.8,0,5.9,0,8.9,0c3,0,6.1,0,8.9,0c2.8,0,5.5,0.1,7.8,0.1
			c4.5,0.1,7.6,0.2,7.6,0.2s-3,0.1-7.6,0.2c-2.3,0-4.9,0.1-7.8,0.1c-2.8,0-5.9,0-8.9,0c-3,0-6.1,0-8.9,0c-2.8,0-5.5-0.1-7.8-0.1
			C254.5,31.7,251.5,31.6,251.5,31.6z"/>
	</g>
	<g display="inline">
		<path d="M261.7,32c0,0-0.2,4.7-0.4,9.3c-0.1,1.2-0.1,2.3-0.2,3.4c-0.1,1.1-0.2,2.1-0.3,3c-0.2,1.7-0.5,2.9-0.5,2.9l-0.1,0
			c0,0-0.1-1.2,0-2.9c0-0.9,0-1.9,0.1-3c0.1-1.1,0.2-2.3,0.3-3.4C261.2,36.6,261.7,32,261.7,32L261.7,32z"/>
	</g>
	<g display="inline">
		<path d="M270.3,31.6c0,0-0.9,4.8-1.9,9.6c-0.2,1.2-0.5,2.4-0.7,3.5c-0.3,1.1-0.5,2.1-0.8,3c-0.5,1.8-0.9,2.9-0.9,2.9l-0.1,0
			c0,0,0.1-1.2,0.4-3c0.2-0.9,0.3-2,0.6-3.1c0.3-1.1,0.6-2.3,0.9-3.5C268.9,36.3,270.2,31.6,270.3,31.6L270.3,31.6z"/>
	</g>
	<g display="inline">
		<path d="M279.7,31.6c0,0-1.3,4.8-2.7,9.6c-0.3,1.2-0.7,2.4-1,3.5c-0.3,1.1-0.7,2.1-1,3c-0.6,1.8-1.2,2.9-1.2,2.9l-0.1,0
			c0,0,0.2-1.2,0.7-3.1c0.2-0.9,0.5-2,0.8-3.1c0.4-1.1,0.8-2.3,1.2-3.5C278,36.3,279.6,31.6,279.7,31.6L279.7,31.6z"/>
	</g>
	<g display="inline">
		<path d="M283.9,31.6c0,0-1.1,4.8-2.2,9.6c-0.3,1.2-0.6,2.4-0.8,3.5c-0.3,1.1-0.6,2.1-0.9,3c-0.6,1.8-1,2.9-1,2.9l-0.1,0
			c0,0,0.2-1.2,0.5-3c0.2-0.9,0.4-2,0.7-3.1c0.3-1.1,0.7-2.3,1-3.5C282.4,36.3,283.8,31.6,283.9,31.6L283.9,31.6z"/>
	</g>
	<g display="inline">
		<path d="M290.1,31.6c0,0-0.9,4.8-1.8,9.6c-0.2,1.2-0.5,2.4-0.7,3.5c-0.2,1.1-0.5,2.1-0.8,3c-0.5,1.8-0.9,2.9-0.9,2.9l-0.1,0
			c0,0,0.1-1.2,0.4-3c0.2-0.9,0.3-2,0.6-3.1c0.3-1.1,0.6-2.3,0.9-3.5C288.8,36.3,290,31.6,290.1,31.6L290.1,31.6z"/>
	</g>
	<g display="inline">
		<path d="M295.2,31.6c0,0-0.6,4.8-1.4,9.6c-0.2,1.2-0.3,2.4-0.5,3.5c-0.2,1.1-0.4,2.2-0.6,3c-0.4,1.8-0.8,2.9-0.8,2.9l-0.1,0
			c0,0,0-1.2,0.2-3c0.1-0.9,0.2-2,0.4-3.1c0.2-1.1,0.5-2.3,0.7-3.5C294.2,36.3,295.1,31.6,295.2,31.6L295.2,31.6z"/>
	</g>
	<g display="inline">
		<path d="M300.1,38.6c0,0-0.4,3-0.9,6.1c-0.1,0.8-0.2,1.5-0.4,2.2c-0.1,0.7-0.3,1.4-0.5,1.9c-0.2,0.6-0.3,1-0.4,1.3
			c-0.1,0.3-0.2,0.5-0.2,0.5l-0.1,0c0,0,0-0.2,0-0.5c0-0.3,0.1-0.8,0.1-1.4c0.1-0.6,0.2-1.2,0.3-2c0.2-0.7,0.3-1.5,0.5-2.2
			C299.3,41.5,300,38.6,300.1,38.6L300.1,38.6z"/>
	</g>
	<g display="inline">
		<path d="M40.3,50.4c0,0-0.2-2.3-0.4-5.7c-0.1-1.7-0.2-3.7-0.3-5.8c-0.1-2.1-0.2-4.4-0.3-6.7c-0.1-2.3-0.1-4.6-0.2-6.7
			c-0.1-2.1-0.1-4.1-0.1-5.9c0-3.4,0-5.7,0-5.7s0.2,2.3,0.4,5.7c0.1,1.7,0.2,3.7,0.3,5.8c0.1,2.1,0.2,4.4,0.3,6.7
			c0.1,2.3,0.1,4.6,0.2,6.7c0.1,2.1,0.1,4.1,0.1,5.9C40.3,48.1,40.3,50.4,40.3,50.4z"/>
	</g>
	<g display="inline">
		<path d="M36.7,49.6c0,0-0.2-2.2-0.5-5.5c-0.1-1.7-0.3-3.6-0.4-5.7c-0.1-2.1-0.2-4.3-0.3-6.5c-0.1-2.2-0.2-4.4-0.2-6.5
			c-0.1-2.1-0.1-4-0.1-5.7c-0.1-3.3,0-5.5,0-5.5s0.2,2.2,0.5,5.5c0.1,1.7,0.3,3.6,0.4,5.7c0.1,2.1,0.2,4.3,0.3,6.5
			c0.1,2.2,0.2,4.4,0.2,6.5c0.1,2.1,0.1,4,0.1,5.7C36.7,47.4,36.7,49.6,36.7,49.6z"/>
	</g>
	<g display="inline">
		<path d="M32.4,48.6c0,0-0.1-2.1-0.1-5.3c0-1.6,0-3.5,0-5.5c0-2,0-4.1,0.1-6.3c0.1-2.1,0.1-4.3,0.2-6.3c0.1-2,0.2-3.9,0.2-5.5
			c0.2-3.2,0.3-5.3,0.3-5.3s0.1,2.1,0.1,5.3c0,1.6,0,3.5,0,5.5c0,2,0,4.1-0.1,6.3c-0.1,2.1-0.1,4.3-0.2,6.3c-0.1,2-0.2,3.9-0.2,5.5
			C32.5,46.5,32.4,48.6,32.4,48.6z"/>
	</g>
	<g display="inline">
		<path d="M28.4,27.8c0,0,1.3,0,3.3,0.1c1,0.1,2.1,0.1,3.4,0.2c1.2,0.1,2.5,0.2,3.9,0.3c1.3,0.1,2.6,0.3,3.8,0.4
			c1.2,0.1,2.4,0.3,3.3,0.4c2,0.3,3.3,0.5,3.3,0.5s-1.3,0-3.3-0.1c-1-0.1-2.1-0.1-3.4-0.2c-1.2-0.1-2.5-0.2-3.9-0.3
			c-1.3-0.1-2.6-0.3-3.8-0.4c-1.2-0.1-2.4-0.3-3.3-0.4C29.7,28,28.4,27.8,28.4,27.8z"/>
	</g>
	<g display="inline">
		<path d="M25.6,30.2c0,0,1.1,0,2.7,0.2c0.8,0.1,1.7,0.1,2.7,0.3c1,0.1,2.1,0.3,3.1,0.4c1.1,0.2,2.1,0.3,3.1,0.5
			c1,0.2,1.9,0.4,2.7,0.5c1.6,0.3,2.6,0.6,2.6,0.6s-1.1,0-2.7-0.2c-0.8-0.1-1.7-0.1-2.7-0.3c-1-0.1-2.1-0.3-3.1-0.4
			c-1.1-0.2-2.1-0.3-3.1-0.5c-1-0.2-1.9-0.4-2.7-0.5C26.7,30.5,25.6,30.2,25.6,30.2z"/>
	</g>
	<g display="inline">
		<path d="M25.9,33c0,0,1.3,0.1,3.3,0.3c1,0.1,2.2,0.3,3.4,0.4c1.2,0.2,2.6,0.4,3.9,0.6c1.3,0.2,2.6,0.4,3.9,0.7
			c1.2,0.2,2.4,0.5,3.4,0.7c2,0.4,3.3,0.8,3.3,0.8s-1.3-0.1-3.3-0.3c-1-0.1-2.2-0.3-3.4-0.4c-1.2-0.2-2.6-0.4-3.9-0.6
			c-1.3-0.2-2.6-0.5-3.9-0.7c-1.2-0.2-2.4-0.5-3.4-0.7C27.2,33.3,25.9,33,25.9,33z"/>
	</g>
	<g display="inline">
		<path d="M167.6,29c0,0,3.4-7.3,6.8-14.6c0.8-1.8,1.7-3.7,2.5-5.4c0.8-1.7,1.6-3.3,2.3-4.6c1.4-2.7,2.4-4.4,2.4-4.4l0.1,0
			c0,0-0.7,1.9-2,4.6c-0.6,1.4-1.3,3-2.2,4.7c-0.8,1.7-1.7,3.5-2.6,5.3C171.3,21.9,167.7,29.1,167.6,29L167.6,29z"/>
	</g>
	<g display="inline">
		<path d="M174.5,31.1c0,0,5-7.8,10-15.7c1.2-2,2.5-3.9,3.7-5.8c1.2-1.8,2.4-3.5,3.3-4.9c2-2.9,3.4-4.7,3.4-4.7l0.1,0c0,0-1.1,2-3,5
			c-0.9,1.5-2,3.2-3.2,5c-1.2,1.8-2.5,3.7-3.8,5.7C179.7,23.4,174.5,31.1,174.5,31.1L174.5,31.1z"/>
	</g>
	<g display="inline">
		<path d="M184.5,30.6c0,0,5.6-7.9,11.3-15.8c1.4-2,2.8-3.9,4.1-5.8c1.3-1.8,2.6-3.5,3.7-5c2.2-2.9,3.8-4.7,3.8-4.7l0.1,0
			c0,0-1.3,2.1-3.4,5c-1,1.5-2.3,3.2-3.6,5.1c-1.4,1.8-2.8,3.8-4.3,5.7C190.4,22.9,184.5,30.7,184.5,30.6L184.5,30.6z"/>
	</g>
	<g display="inline">
		<path d="M195.6,29.8c0,0,5-7.4,10-14.8c1.3-1.9,2.5-3.7,3.7-5.4c1.2-1.7,2.4-3.3,3.3-4.6c2-2.7,3.4-4.4,3.4-4.4l0.1,0
			c0,0-1.1,1.9-3,4.7c-0.9,1.4-2,3-3.2,4.8c-1.2,1.7-2.5,3.5-3.8,5.3C200.8,22.5,195.6,29.8,195.6,29.8L195.6,29.8z"/>
	</g>
</g>
<g id="Inclusionselongated__x28_All_Grains_x29_" display="none">
	<path display="inline" fill="#FFFFFF" stroke="#1D1D1B" stroke-width="0.5" stroke-miterlimit="10" d="M202.4,11.5
		c-14.8-2.1-27.2-3.8-35-4.5c-7.8-0.7-22.4-1.1-26.5-0.9c-4.2,0.2-13.2,1.4-6.3,2.4c6.9,1,17.3,3.3,25.4,3.7
		c8.1,0.4-3.7-3.3,9.4-1.9c13,1.4,10.9,0.9,22.3,1.6C203.1,12.6,211.9,12.8,202.4,11.5z"/>
	<path display="inline" fill="#FFFFFF" stroke="#1D1D1B" stroke-width="0.5" stroke-miterlimit="10" d="M191,36.6
		c-11.7,0.8-14.4-1-22.9-0.2c-8.6,0.7-18.6,2.7-29.2,3.6c-10.6,0.9-22.4,1.4-26.9,2.7c-4.6,1.3-4.9,2.6-1.5,2.2
		c3.4-0.4,1.9-0.3,11.4-1c9.5-0.7,13.4-0.9,20.7-1.8c7.3-0.9,5.1-1.1,13.1-1c8,0.1,13.4,0.6,20.4-0.4c7.1-1,4-1.2,9.2-2.3
		C190.7,37.5,198.5,36.1,191,36.6z"/>
	<path display="inline" fill="#FFFFFF" stroke="#1D1D1B" stroke-width="0.5" stroke-miterlimit="10" d="M275.7,42.4
		c-8-0.1-12.6,2.9-18.2,2.6c-5.6-0.4-10.5-2.5-17.5-3c-6.9-0.5-15.3-0.2-17-1.9c-1.6-1.7,0-3.7,2.2-3.5c2.1,0.2,1,0.3,7.5,0.5
		c6.4,0.2,9.1,0.1,13.5,0.9c4.4,0.7,2.4,1.3,8.8,0.3c6.4-0.9,11.2-2.2,15.3-1.2c4,0.9,1.3,1.6,3.9,2.7
		C276.8,41,280.8,42.5,275.7,42.4z"/>
	<path display="inline" fill="#FFFFFF" stroke="#1D1D1B" stroke-width="0.5" stroke-miterlimit="10" d="M86.6,11.2
		c0,0-4.9-4.4-15.7-4.1C60.1,7.4,51.7,6,38.3,8.6c-13.4,2.6-8.4,2.7-3.5,3.1c4.9,0.4,9.7-0.2,15.1-0.6c5.3-0.4,9.2-1.3,15.2-1.1
		c6,0.2,2.9,1.2,7.8,1.6C77.8,12,87.9,12.2,86.6,11.2z"/>
	<path display="inline" fill="#FFFFFF" stroke="#1D1D1B" stroke-width="0.5" stroke-miterlimit="10" d="M224.3,20.8
		c0,0,18.4-0.4,20.3-1.7c1.9-1.4,9.6-2.4,3.4-4.2c-6.2-1.9-8.1-1.2-11.1-0.6c-3,0.6-2,1.2-1.9,1.9c0.1,0.7,2.6,1.2,0,2
		c-2.5,0.7-5.3,0.3-8.3,0.9C223.7,19.6,220.3,20.9,224.3,20.8z"/>
	<path display="inline" fill="#FFFFFF" stroke="#1D1D1B" stroke-width="0.5" stroke-miterlimit="10" d="M83.2,22
		c0.7,3,2.2,5.4,5,6.7c2.8,1.3,13.6,3.3,18.5,3.7c4.9,0.4,19.6,0.9,19.3-0.5c-0.3-1.4,3.7-3.9-1.1-5.1c-4.8-1.2-16,2.2-19.2-0.1
		c-3.2-2.4-4.6-1.8-10.6-3.6C89.2,21.3,82.8,20.1,83.2,22z"/>
	<path display="inline" fill="#FFFFFF" stroke="#1D1D1B" stroke-width="0.5" stroke-miterlimit="10" d="M58.9,43.3
		c0,0-3.7-4.3-13.7-4.3c-10,0-17.5-1.5-30.3,0.5c-12.8,2.1-8.2,2.3-3.8,2.8c4.4,0.5,9,0.1,14-0.2c5-0.3,8.7-1,14.2-0.6
		c5.5,0.4,2.5,1.2,6.9,1.7C50.6,43.8,59.9,44.2,58.9,43.3z"/>
</g>
<g id="GraphiteLamellas" display="none">
	<path display="inline" stroke="#1D1D1B" stroke-width="0.5" stroke-miterlimit="10" d="M184.3,36.7c-14.8-2.1-27.2-3.8-35-4.5
		c-7.8-0.7-22.4-1.1-26.5-0.9c-4.2,0.2-13.2,1.4-6.3,2.4c6.9,1,17.3,3.3,25.4,3.7c8.1,0.4-3.7-3.3,9.4-1.9c13,1.4,10.9,0.9,22.3,1.6
		C185,37.8,193.8,38,184.3,36.7z"/>
	<path display="inline" stroke="#1D1D1B" stroke-width="0.5" stroke-miterlimit="10" d="M93.5,33.4c0,0-10.6-6.7-8.5-3.8
		s5.8,7.6,5.8,7.6l11,7.7c0,0,6.9,3.9,5.1,0.7c-1.8-3.1-1.6-4.3-4.1-5.7C100.2,38.4,93.5,33.4,93.5,33.4z"/>
	<path display="inline" stroke="#1D1D1B" stroke-width="0.5" stroke-miterlimit="10" d="M67.5,40.1c0,0-5.9,12.7-3.8,9.5
		c2-3.3,5.4-8.7,5.4-8.7l6.5-13.5c0,0,3.6-8.1,1.4-5c-2.1,3.1-2.7,3.4-4,6.4C71.6,31.6,67.5,40.1,67.5,40.1z"/>
	<path display="inline" stroke="#1D1D1B" stroke-width="0.5" stroke-miterlimit="10" d="M279.9,27.6c-11.2,1.8-13.6,0.7-21.9,2.1
		c-8.2,1.4-18,3.9-28.2,5.7c-10.3,1.8-21.5,3.3-26,4.8c-4.5,1.5-5,2.5-1.6,1.9c3.3-0.6,1.8-0.4,11-1.9c9.2-1.5,12.9-2,19.9-3.4
		c7.1-1.4,5-1.4,12.7-2.1c7.6-0.7,12.7-0.9,19.5-2.4c6.8-1.5,3.9-1.3,9-2.7C279.4,28.3,287,26.5,279.9,27.6z"/>
	<path display="inline" stroke="#1D1D1B" stroke-width="0.5" stroke-miterlimit="10" d="M230.4,12.9c0.4,1.7,1.2,3.1,2.8,3.8
		c1.6,0.8,7.7,1.9,10.5,2.1c2.8,0.2,11.2,0.5,11-0.3c-0.2-0.8,2.1-2.2-0.6-2.9c-2.7-0.7-9.1,1.3-10.9-0.1c-1.8-1.3-2.6-1-6-2
		C233.8,12.5,230.2,11.9,230.4,12.9z"/>
	<path display="inline" stroke="#1D1D1B" stroke-width="0.5" stroke-miterlimit="10" d="M2.4,35.1c1.1,0.9,3.5,1,8.6-0.4
		c5.1-1.4,24.9-8.3,34-11.7c9.1-3.4,36.3-13.9,35.9-14.3c-0.5-0.4,7.3-4.6-1.5-1.7c-8.7,2.9-29.9,12.8-35.6,14
		c-5.7,1.2-8.4,2.5-19.3,6C13.6,30.5,1.8,34.6,2.4,35.1z"/>
	<path display="inline" stroke="#1D1D1B" stroke-width="0.5" stroke-miterlimit="10" d="M229.6,4.3c-6.4,5.5-4.6,2.6-9.6,7
		c-5,4.4-12.7,11.9-18.9,17.5c-6.3,5.6-12.2,10.5-16.5,14.9c-4.3,4.4-6.6,7.3-4.5,5.4c2.1-1.9,1.3-1.3,6.7-5.9
		c5.3-4.6,7.3-6.3,12.1-10.7c4.7-4.4,4.1-4.1,7.4-6.4c3.3-2.4,4.9-3.2,9.7-7.7c4.8-4.5,3.8-4,7.9-7.9C227.8,6.4,233.6,0.7,229.6,4.3
		z"/>
	<path display="inline" stroke="#1D1D1B" stroke-width="0.5" stroke-miterlimit="10" d="M163.8,4.9c0.5,1.8,1.4,3.2,3.4,4
		c2,0.8,9.5,1.8,13,2c3.5,0.2,13.8,0.3,13.6-0.6c-0.2-0.8,2.7-2.4-0.7-3.1c-3.3-0.7-11.3,1.6-13.5,0.2c-2.2-1.4-3.2-1-7.4-2
		C168,4.4,163.5,3.7,163.8,4.9z"/>
	<path display="inline" stroke="#1D1D1B" stroke-width="0.5" stroke-miterlimit="10" d="M73.8,19.5c0,0-3.5-1.8-11.1,2.7
		C55,26.7,49,28.8,39.5,36.3c-9.5,7.5-6,5.6-2.5,4c3.5-1.6,6.9-4,10.7-6.5c3.8-2.5,6.5-4.8,10.8-6.9c4.3-2.2,2.1-0.2,5.5-1.7
		C67.5,23.6,74.7,19.7,73.8,19.5z"/>
	<path display="inline" stroke="#1D1D1B" stroke-width="0.5" stroke-miterlimit="10" d="M295.6,35.3c-2.8-4.6-3.4-7.2-5.4-10.4
		c-2-3.3-4.4-6.3-6.9-10.3c-2.5-4-5.3-8.9-6.4-9.9c-1.1-1-1.2-0.2-0.3,1.1c0.8,1.3,0.4,0.6,2.7,4.4c2.3,3.7,3.2,5.3,4.9,7.9
		c1.7,2.6,1.2,1.5,3.1,5.1c1.9,3.7,3.2,6.4,4.8,8.8c1.7,2.4,0.9,0.8,2.2,2.4C295.5,35.8,297.3,38.2,295.6,35.3z"/>
	<path display="inline" stroke="#1D1D1B" stroke-width="0.5" stroke-miterlimit="10" d="M80.2,18c0,0-3.1-5.4-2.8-3.7
		c0.4,1.7,1,4.6,1,4.6l3.1,5.9c0,0,2.1,3.3,1.9,1.6c-0.2-1.8,0.1-2.2-0.7-3.4C82.1,21.7,80.2,18,80.2,18z"/>
	<path display="inline" stroke="#1D1D1B" stroke-width="0.5" stroke-miterlimit="10" d="M197.9,43.9c0.3,0.9,0.9,1.7,2.2,2.1
		c1.3,0.4,6.3,0.8,8.6,0.8c2.3,0,9.2-0.1,9-0.6c-0.1-0.4,1.8-1.3-0.4-1.6c-2.2-0.3-7.5,1.1-9,0.4c-1.5-0.7-2.1-0.5-4.9-0.9
		C200.7,43.5,197.7,43.3,197.9,43.9z"/>
	<path display="inline" stroke="#1D1D1B" stroke-width="0.5" stroke-miterlimit="10" d="M113.3,5.3c0,0,7.3,16.9,9.3,18.1
		c2,1.2,5.8,8,5.2,1.6c-0.6-6.4-1.9-7.9-3.6-10.5c-1.7-2.6-1.9-1.4-2.5-1c-0.6,0.4-0.2,2.8-1.8,0.8c-1.6-2.1-2.3-4.8-4-7.4
		C114.2,4.3,111.7,1.7,113.3,5.3z"/>
	<path display="inline" stroke="#1D1D1B" stroke-width="0.5" stroke-miterlimit="10" d="M-0.3,8.2c0.3,0.9,1.2,1.6,3.1,1.9
		c1.9,0.3,9.3,0.3,12.7,0.2C19,10.2,29.2,9.5,29,9.1c-0.2-0.4,2.8-1.5-0.5-1.6c-3.3-0.1-11.3,1.6-13.4,1C13.1,7.9,12,8.2,8,7.9
		C3.9,7.7-0.5,7.6-0.3,8.2z"/>
</g>
</svg>
