<svg id="Deformed_dendrites" data-name="Deformed dendrites" xmlns="http://www.w3.org/2000/svg" viewBox="0 0 300 50"><defs><style>.cls-1{fill:#fff;stroke:#1d1d1b;stroke-miterlimit:10;stroke-width:0.5px;}.cls-2{fill:none;}</style></defs><title>M_DeformedDendrites</title><path class="cls-1" d="M103.51,50H98.25l-1.62-6.46a50.84,50.84,0,0,1-6,6.46c-0.74.61-1.2,0.81-1.29,0.51a1.1,1.1,0,0,1,0-.51c0.44-1.52,3-5.49,6.32-9.92l-1.6-6.35c-0.29-1.16-.65-5.13.16-6s2.5,1.67,2.79,2.83l1.49,5.91c3.83-4.69,6.9-7.67,7.14-6.85s-2.47,5.26-6.27,10.31l2,8.1c4-5,7.27-8.16,7.53-7.31S106.91,45.38,103.51,50Z"/><path class="cls-1" d="M66.65,31.28l-1.23,6.06c-0.17.81-1.61,3.86-2.92,3.07C62,40.08,61.4,37.19,61,36.76a3.2,3.2,0,0,1-.36-2.31l1.18-5.82C57.25,26,54,23.71,54.05,23.15s3.53,0.78,8.29,3.15l1.22-6c-6.16-3.45-10.71-6.43-10.64-7s4.84,1.38,11.13,4.63l1.16-5.71c-6.48-3.59-11.34-6.77-11.27-7.4s5.17,1.53,11.77,5l0.91-4.46c0.17-.81,1.46-2.74,2.77-1.94s2.13,4,2,4.82l-0.85,4.16c6.4,3.56,11.19,6.69,11.11,7.32S76.54,18.15,70,14.76l-1.16,5.7c6.71,3.69,11.82,7,11.74,7.67s-5.41-1.63-12.24-5.21l-1.2,5.9C73.32,32.18,78.11,35.34,78,36S72.92,34.6,66.65,31.28Z"/><path class="cls-1" d="M216.69,40.55L215.46,47c6.46,0.1,11.36.7,11.28,1.4s-5.24,1.29-11.81,1.36l0,0.26h-4.63l0.06-.29C204.39,49.55,200,49,200.1,48.33s4.68-1.23,10.74-1.35l1.24-6.44c-6.23-.13-10.9-0.71-10.82-1.4s5-1.26,11.35-1.35l1-5c0.18-.92,1.48-3.58,2.73-3.48s2,2.93,1.83,3.84l-0.91,4.69c6.16,0.14,10.76.71,10.67,1.4S223,40.45,216.69,40.55Z"/><path class="cls-1" d="M179,14.27l15.11-3.4c2-.46,11.62-1.75,13.18-0.56,0.65,0.49-3.78,2.69-3.77,3.16,0,0.67-2.56,1.45-3.76,1.72l-14.5,3.27c5.8,4.11,9.15,7.27,7.87,7.61s-7-2.31-13.7-6.3L164.5,23.13c8,5.41,13,9.7,11.56,10.07s-8.91-3.37-17.59-8.71l-14.25,3.2c8.44,5.66,13.83,10.24,12.38,10.63s-9.42-3.63-18.46-9.26L127,31.58c-2,.46-9,1.08-10.57-0.11s2.89-3.75,4.91-4.2l10.37-2.34c-8.32-5.6-13.61-10.11-12.16-10.49s9.29,3.56,18.24,9.12L152,20.35c-8.8-5.85-14.49-10.65-13-11s9.8,3.83,19.11,9.66l14.73-3.32C164.72,10.3,159.49,5.78,161,5.37S170.53,8.89,179,14.27Z"/><rect class="cls-2" width="300" height="50"/><path class="cls-1" d="M30.89,34.14l-4.58-1.71c1.18,4.81,1.62,8.31,1,8.09s-2.21-4.13-3.65-9.09l-6.27-2.34c1.27,5,1.76,8.79,1.08,8.57s-2.32-4.4-3.79-9.58l-6.5-2.43c1.19,4.65,1.6,8.14.9,7.91s-2.31-4.17-3.62-8.93L0,22.61V19.34L4.52,21c-0.76-3.45-.94-5.8-0.36-5.61S6,18.35,7.09,22l6.6,2.46c-1.11-4.63-1.52-7.94-.88-7.74s2.14,4,3.55,8.74l6.29,2.35c-1.21-4.88-1.66-8.43-1-8.22s2.25,4.2,3.69,9.22l4.92,1.83c0.89,0.34,3.66,1.92,3.83,2.89S31.79,34.47,30.89,34.14Z"/><path class="cls-1" d="M264.69,23.86l5.39-3c0.72-.41,4-1.31,4.23.2,0.1,0.62-1.71,2.94-1.8,3.49A3.2,3.2,0,0,1,271,26.3l-5.17,2.91c1,5.24,1.43,9.19,1,9.5s-1.72-3.18-3-8.33l-5.33,3c1.42,6.91,2.14,12.31,1.63,12.66s-2.12-4.57-3.78-11.44l-5.08,2.85c1.52,7.25,2.3,13,1.77,13.37S250.73,45.9,249,38.67l-4,2.24c-0.72.41-3,.69-3.28-0.82s1.64-4.24,2.36-4.64l3.7-2.08c-1.49-7.17-2.26-12.84-1.73-13.19s2.2,4.82,3.9,12l5.07-2.85c-1.6-7.49-2.43-13.53-1.89-13.9s2.31,5.16,4.07,12.67l5.25-3c-1.49-6.86-2.23-12.55-1.66-12.93S263.09,16.95,264.69,23.86Z"/></svg>