<svg id="Deformed_dendrites" data-name="Deformed dendrites" xmlns="http://www.w3.org/2000/svg" viewBox="0 0 300 150"><defs><style>.cls-1,.cls-2{fill:#fff;}.cls-1,.cls-3{stroke:#1d1d1b;stroke-miterlimit:10;stroke-width:0.5px;}.cls-3,.cls-4{fill:none;}</style></defs><title>M_DeformedDendrites</title><path class="cls-1" d="M109,128.77l-7.1,9.8c-1,1.32-5.91,7-7.45,7.12-0.63,0,.82-3.55.57-3.83s0.75-2.18,1.31-3l6.81-9.41c-5.55.54-9.17,0.38-8.59-.48s5.3-2.22,11.33-3.31l7-9.69c-7.5.88-12.67,0.9-12,0s7-2.58,14.87-3.87l6.69-9.24c-7.91,1-13.47,1-12.82,0s7.43-2.69,15.67-4l5.23-7.22c1-1.32,4.72-5.28,6.26-5.37s0.26,3.72-.69,5l-4.87,6.73c7.81-.95,13.27-1,12.62,0s-7.32,2.66-15.47,4l-6.67,9.22c8.22-1,14.06-1.12,13.4-.12s-7.76,2.77-16.27,4.09l-6.92,9.56c7.57-1,13-1,12.31,0S116.84,127.6,109,128.77Z"/><path class="cls-2" d="M220.54,108.45c-0.88.82-8.46,2.12-17.27,2.75l-9.91,8.68c9.11-.65,15.65-0.74,14.64.21s-9.54,2.74-19.16,3.77l-11.56,10.22c8.75-1,15-1.13,13.77,0s-9.7,3.27-18.88,4.54l-7,6.18-10.84,4.36,11.22-10c-5.94.14-9.37-.54-8.26-1.57s6.51-2.09,13.19-2.79l11.94-10.57c-7.73,0-12.51-.91-11.4-1.94s7.77-1.75,16-2.07l10.14-8.89c-7.8-.31-12.74-1.46-11.73-2.4s7.68-1.28,15.79-1.15l7-6.11c1.24-1.07,5.65-4,7.12-3.82s-0.48,3.28-1.68,4.32l-6.43,5.57C215.49,107.51,221.41,107.65,220.54,108.45Z"/><path class="cls-3" d="M220.54,108.45c-0.88.82-8.46,2.12-17.27,2.75l-9.91,8.68c9.11-.65,15.65-0.74,14.64.21s-9.54,2.74-19.16,3.77l-11.56,10.22c8.75-1,15-1.13,13.77,0s-9.7,3.27-18.88,4.54l-7,6.18-10.84,4.36,11.22-10c-5.94.14-9.37-.54-8.26-1.57s6.51-2.09,13.19-2.79l11.94-10.57c-7.73,0-12.51-.91-11.4-1.94s7.77-1.75,16-2.07l10.14-8.89c-7.8-.31-12.74-1.46-11.73-2.4s7.68-1.28,15.79-1.15l7-6.11c1.24-1.07,5.65-4,7.12-3.82s-0.48,3.28-1.68,4.32l-6.43,5.57C215.49,107.51,221.41,107.65,220.54,108.45Z"/><path class="cls-1" d="M68.93,89.25l2.17,8.62c0.29,1.16,1.08,6.62.27,7.5-0.33.36-1.78-2.17-2.09-2.17s-1-1.47-1.12-2.15l-2.08-8.27c-2.81,3.27-5,5.15-5.17,4.42s1.6-4,4.34-7.75l-2.14-8.52c-3.7,4.49-6.62,7.3-6.86,6.5s2.34-5,6-9.94l-2-8.12c-3.87,4.76-7,7.79-7.24,7S55.46,71,59.31,65.9l-1.6-6.34c-0.29-1.16-.65-5.13.16-6s2.5,1.67,2.79,2.82l1.49,5.91c3.83-4.69,6.9-7.67,7.15-6.85S66.83,60.7,63,65.75l2,8.1c4-5,7.27-8.17,7.53-7.31s-2.65,5.55-6.65,10.8L68,85.73c3.67-4.59,6.75-7.53,7-6.64S72.61,84.46,68.93,89.25Z"/><path class="cls-1" d="M66.65,31.24L65.42,37.3c-0.17.81-1.61,3.86-2.92,3.07C62,40,61.4,37.15,61,36.72a3.2,3.2,0,0,1-.36-2.31l1.18-5.82c-4.62-2.67-7.88-4.93-7.81-5.49s3.53,0.78,8.29,3.15l1.22-6c-6.16-3.45-10.71-6.43-10.64-7s4.84,1.38,11.13,4.63l1.16-5.71c-6.48-3.59-11.34-6.77-11.27-7.4s5.17,1.53,11.77,5l0.91-4.46c0.17-.81,1.46-2.74,2.77-1.94s2.13,4,2,4.82l-0.85,4.16C76.91,15.84,81.7,19,81.62,19.6S76.54,18.11,70,14.72l-1.16,5.7c6.71,3.69,11.82,7,11.74,7.67s-5.41-1.63-12.24-5.21l-1.2,5.9C73.32,32.14,78.11,35.3,78,36S72.92,34.56,66.65,31.24Z"/><path class="cls-2" d="M253.34,120.73L246.89,123c-0.87.31-4.13,0.37-3.29-1.89,0.35-.93,3.35-3.39,3.78-4.11a4.47,4.47,0,0,1,2.35-1.75l5.91-1.57c2.37-6.94,4.41-12,4.93-12.13S260,106.29,258,113l6.05-1.55c2.54-8.12,4.84-14.3,5.39-14.38s-0.77,5.9-2.95,13.77l5.74-1.4c2.1-7.39,4.14-13.13,4.69-13.19s-0.47,5.49-2.25,12.6l4.46-1c0.81-.19,3,0,2.65,1.23s-3.22,3.24-4.07,3.51l-4.36,1.4c-1.82,6.72-3.64,12-4.36,12.4s0-4.52,1.8-11.57l-6,2c-2.41,8.2-4.77,14.73-5.53,15.18s0.5-5.72,2.94-14.31L256,119.83c-2.72,8.63-5.4,15.68-6.19,16.14S250.54,129.77,253.34,120.73Z"/><path class="cls-3" d="M253.34,120.73L246.89,123c-0.87.31-4.13,0.37-3.29-1.89,0.35-.93,3.35-3.39,3.78-4.11a4.47,4.47,0,0,1,2.35-1.75l5.91-1.57c2.37-6.94,4.41-12,4.93-12.13S260,106.29,258,113l6.05-1.55c2.54-8.12,4.84-14.3,5.39-14.38s-0.77,5.9-2.95,13.77l5.74-1.4c2.1-7.39,4.14-13.13,4.69-13.19s-0.47,5.49-2.25,12.6l4.46-1c0.81-.19,3,0,2.65,1.23s-3.22,3.24-4.07,3.51l-4.36,1.4c-1.82,6.72-3.64,12-4.36,12.4s0-4.52,1.8-11.57l-6,2c-2.41,8.2-4.77,14.73-5.53,15.18s0.5-5.72,2.94-14.31L256,119.83c-2.72,8.63-5.4,15.68-6.19,16.14S250.54,129.77,253.34,120.73Z"/><path class="cls-1" d="M199.08,63.6l-1.32,6.83c-0.18.92-1.64,4.81-2.9,4.71-0.52,0-1-2.67-1.35-2.91s-0.41-1.61-.3-2.15l1.26-6.56c-4.44-.2-7.57-0.73-7.5-1.33s3.42-1.13,8-1.31l1.3-6.76C190.36,54,186,53.4,186.08,52.74s4.68-1.22,10.74-1.35l1.24-6.44c-6.23-.13-10.9-0.71-10.82-1.4s5-1.26,11.35-1.35l1-5c0.18-.92,1.47-3.58,2.73-3.48s2,2.92,1.82,3.84l-0.9,4.69c6.15,0.14,10.76.71,10.67,1.4s-4.92,1.25-11.2,1.35l-1.24,6.43c6.46,0.11,11.36.7,11.28,1.41s-5.24,1.29-11.81,1.36l-1.28,6.66c5.93,0.07,10.53.68,10.44,1.41S205.12,63.56,199.08,63.6Z"/><path class="cls-1" d="M20.73,110.61l-7.47-5.67c-1-.76-5.39-4.67-5.52-5.81-0.06-.47,2.63.76,2.82,0.59s1.62,0.65,2.22,1.1l7.17,5.44c-0.63-4.13-.68-6.8,0-6.33s1.85,4,2.91,8.52L30.2,114c-1-5.59-1.21-9.41-.49-8.9s2.19,5.28,3.47,11.17l7,5.35c-1.05-5.9-1.33-10-.59-9.48s2.29,5.61,3.59,11.76l5.5,4.18c1,0.76,4.06,3.72,4.19,4.86s-2.7,0-3.7-.73l-5.12-3.89c1,5.82,1.3,9.86.56,9.33s-2.26-5.53-3.56-11.62l-7-5.33c1.12,6.13,1.43,10.45.67,9.91S32.38,124.8,31,118.45l-7.28-5.53c1.06,5.65,1.29,9.66.5,9.1S21.91,116.42,20.73,110.61Z"/><path class="cls-1" d="M179,14.23l15.11-3.4c2-.46,11.62-1.75,13.18-0.56,0.65,0.49-3.78,2.69-3.77,3.16,0,0.67-2.56,1.45-3.76,1.72l-14.5,3.27c5.8,4.11,9.15,7.27,7.87,7.61s-7-2.31-13.7-6.3L164.5,23.09c8,5.41,13,9.7,11.56,10.07s-8.91-3.37-17.59-8.71l-14.25,3.2c8.44,5.66,13.83,10.24,12.38,10.63s-9.42-3.63-18.46-9.26L127,31.53c-2,.46-9,1.08-10.57-0.11s2.89-3.75,4.91-4.2l10.37-2.34c-8.32-5.6-13.61-10.11-12.16-10.49s9.29,3.56,18.24,9.12L152,20.31c-8.8-5.85-14.49-10.65-13-11s9.8,3.83,19.11,9.66l14.73-3.32C164.72,10.26,159.49,5.73,161,5.32S170.53,8.85,179,14.23Z"/><path class="cls-2" d="M118.34,69.77L107.4,72.13c-1.57.25-8.6,0.52-8.6-.57,0-.44,4.48-1.93,4.84-2.31,0.52-.56,2.58-1.1,3.45-1.28L117,65.31c-0.46-3.94.08-6.73,0.83-7.11s1.63,1.88,2.81,5.82l8.44-3.92c-1.7-5.79-1.78-10-1.17-10.54s1.91,2.86,4.21,8.72l6.36-4.85c-2.88-6.76-3.88-11.82-3.43-12.53s2.4,3.37,5.79,10.22l3.77-4.59c0.61-.89,2.88-2.55,3.89-0.79s0.25,6.19-.45,7l-3.93,4c5.39,8.39,9.82,15.66,9.09,16.17s-6.28-5.9-11.69-14l-6.89,4.48c4.6,8,8.41,15.15,7.47,15.56s-6.23-6-10.79-13.87l-8.88,3.49c3.15,6.63,5.58,12.62,4.41,12.91S121.4,76.25,118.34,69.77Z"/><path class="cls-3" d="M118.34,69.77L107.4,72.13c-1.57.25-8.6,0.52-8.6-.57,0-.44,4.48-1.93,4.84-2.31,0.52-.56,2.58-1.1,3.45-1.28L117,65.31c-0.46-3.94.08-6.73,0.83-7.11s1.63,1.88,2.81,5.82l8.44-3.92c-1.7-5.79-1.78-10-1.17-10.54s1.91,2.86,4.21,8.72l6.36-4.85c-2.88-6.76-3.88-11.82-3.43-12.53s2.4,3.37,5.79,10.22l3.77-4.59c0.61-.89,2.88-2.55,3.89-0.79s0.25,6.19-.45,7l-3.93,4c5.39,8.39,9.82,15.66,9.09,16.17s-6.28-5.9-11.69-14l-6.89,4.48c4.6,8,8.41,15.15,7.47,15.56s-6.23-6-10.79-13.87l-8.88,3.49c3.15,6.63,5.58,12.62,4.41,12.91S121.4,76.25,118.34,69.77Z"/><path class="cls-1" d="M300,66.16l-12.08,2.61c6.56,5.75,10.64,10.25,9.42,10.56s-7.45-3.73-14.62-9.43l-12.29,2.64c7,6,11.35,10.83,10.1,11.16s-7.88-4-15.34-10l-9.6,2.07c-1.75.38-7.72,0.73-9-.53s2.63-3.65,4.37-4l8.94-1.93c-6.85-6-11.17-10.68-9.92-11s7.77,3.94,15.16,9.87l12.25-2.64c-7.25-6.23-11.89-11.26-10.6-11.6s8.19,4.23,15.88,10.46l12.7-2.74c-6.71-5.7-11-10.45-9.63-10.8s7.51,3.64,14.26,9.1v6.25Z"/><rect class="cls-4" y="-0.04" width="300" height="150.08"/><path class="cls-1" d="M30.89,34.1l-4.58-1.71c1.18,4.81,1.62,8.31,1,8.09s-2.21-4.13-3.65-9.09L17.35,29c1.27,5,1.76,8.79,1.08,8.57s-2.32-4.4-3.79-9.58l-6.5-2.43c1.19,4.65,1.6,8.14.9,7.91s-2.31-4.17-3.62-8.93L0,22.57V19.3L4.52,21c-0.76-3.45-.94-5.8-0.36-5.61S6,18.31,7.09,22l6.6,2.46c-1.11-4.63-1.52-7.94-.88-7.74s2.14,4,3.55,8.74l6.29,2.35c-1.21-4.88-1.66-8.43-1-8.22s2.25,4.2,3.69,9.22l4.92,1.83c0.89,0.34,3.66,1.92,3.83,2.89S31.79,34.43,30.89,34.1Z"/><path class="cls-1" d="M264.69,23.82l5.39-3c0.72-.41,4-1.31,4.23.2,0.1,0.62-1.71,2.94-1.8,3.49A3.2,3.2,0,0,1,271,26.26l-5.17,2.91c1,5.24,1.43,9.19,1,9.5s-1.72-3.18-3-8.33l-5.33,3c1.42,6.91,2.14,12.31,1.63,12.66s-2.12-4.57-3.78-11.44l-5.08,2.85c1.52,7.25,2.3,13,1.77,13.37s-2.23-4.91-3.94-12.15l-4,2.24c-0.72.41-3,.69-3.28-0.82s1.64-4.24,2.36-4.64l3.7-2.08c-1.49-7.17-2.26-12.84-1.73-13.19s2.2,4.82,3.9,12l5.07-2.85c-1.6-7.49-2.43-13.53-1.89-13.9s2.31,5.16,4.07,12.67l5.25-3c-1.49-6.86-2.23-12.55-1.66-12.93S263.1,16.9,264.69,23.82Z"/></svg>