<svg id="Deformed_dendrites" data-name="Deformed dendrites" xmlns="http://www.w3.org/2000/svg" viewBox="0 0 500 150"><defs><style>.cls-1,.cls-2{stroke:#1d1d1b;stroke-miterlimit:10;stroke-width:0.5px;}.cls-2,.cls-3{fill:none;}</style></defs><title>M_DeformedDendrites</title><path class="cls-1" d="M129.06,128.77l-7.1,9.8c-1,1.32-5.91,7-7.45,7.12-0.63,0,.82-3.55.57-3.83s0.75-2.18,1.31-3l6.81-9.41c-5.55.54-9.17,0.38-8.59-.48s5.3-2.22,11.33-3.31l7-9.69c-7.5.88-12.67,0.9-12,0s7-2.58,14.87-3.87l6.69-9.24c-7.91,1-13.47,1-12.82,0s7.43-2.69,15.67-4l5.23-7.22c1-1.32,4.72-5.28,6.26-5.37s0.26,3.72-.69,5l-4.87,6.73c7.81-.95,13.27-1,12.62,0s-7.32,2.66-15.47,4l-6.67,9.22c8.22-1,14.06-1.12,13.4-.12s-7.76,2.77-16.27,4.09L132,124.77c7.57-1,13-1,12.31,0S136.85,127.6,129.06,128.77Z"/><path d="M240.55,108.45c-0.88.82-8.46,2.12-17.27,2.75l-9.91,8.68c9.11-.65,15.65-0.74,14.64.21s-9.54,2.74-19.16,3.77l-11.56,10.22c8.75-1,15-1.13,13.77,0s-9.7,3.27-18.88,4.54l-7,6.18-10.84,4.36,11.22-10c-5.94.14-9.37-.54-8.26-1.57s6.51-2.09,13.19-2.79l11.94-10.57c-7.73,0-12.51-.91-11.4-1.94s7.77-1.75,16-2.07l10.14-8.89c-7.8-.31-12.74-1.46-11.73-2.4s7.68-1.28,15.79-1.15l7-6.11c1.24-1.07,5.65-4,7.12-3.82s-0.48,3.28-1.68,4.32l-6.43,5.57C235.5,107.51,241.42,107.65,240.55,108.45Z"/><path class="cls-2" d="M240.55,108.45c-0.88.82-8.46,2.12-17.27,2.75l-9.91,8.68c9.11-.65,15.65-0.74,14.64.21s-9.54,2.74-19.16,3.77l-11.56,10.22c8.75-1,15-1.13,13.77,0s-9.7,3.27-18.88,4.54l-7,6.18-10.84,4.36,11.22-10c-5.94.14-9.37-.54-8.26-1.57s6.51-2.09,13.19-2.79l11.94-10.57c-7.73,0-12.51-.91-11.4-1.94s7.77-1.75,16-2.07l10.14-8.89c-7.8-.31-12.74-1.46-11.73-2.4s7.68-1.28,15.79-1.15l7-6.11c1.24-1.07,5.65-4,7.12-3.82s-0.48,3.28-1.68,4.32l-6.43,5.57C235.5,107.51,241.42,107.65,240.55,108.45Z"/><path class="cls-1" d="M88.94,89.25l2.17,8.62c0.29,1.16,1.08,6.62.27,7.5-0.33.36-1.78-2.17-2.09-2.17s-1-1.47-1.12-2.15l-2.08-8.27c-2.81,3.27-5,5.15-5.17,4.42s1.6-4,4.34-7.75L83.1,80.93c-3.7,4.49-6.62,7.3-6.86,6.5s2.34-5,6-9.94l-2-8.12c-3.87,4.76-7,7.79-7.24,7S75.47,71,79.33,65.9l-1.6-6.34c-0.29-1.16-.65-5.13.16-6s2.5,1.67,2.79,2.82l1.49,5.91c3.83-4.69,6.9-7.67,7.15-6.85S86.84,60.7,83,65.75l2,8.1c4-5,7.27-8.17,7.53-7.31s-2.65,5.55-6.65,10.8l2.11,8.4c3.67-4.59,6.75-7.53,7-6.64S92.62,84.46,88.94,89.25Z"/><path class="cls-1" d="M86.67,31.24L85.43,37.3c-0.17.81-1.61,3.86-2.92,3.07-0.54-.33-1.1-3.22-1.46-3.64a3.2,3.2,0,0,1-.36-2.31l1.18-5.82c-4.62-2.67-7.88-4.93-7.81-5.49s3.53,0.78,8.29,3.15l1.22-6c-6.16-3.45-10.71-6.43-10.64-7s4.84,1.38,11.13,4.63l1.16-5.71C78.76,8.55,73.89,5.37,74,4.74s5.17,1.53,11.77,5l0.91-4.46C86.8,4.42,88.09,2.5,89.4,3.3s2.13,4,2,4.82l-0.85,4.16c6.4,3.56,11.19,6.69,11.11,7.32S96.55,18.11,90,14.72l-1.16,5.7c6.71,3.69,11.82,7,11.74,7.67s-5.41-1.63-12.24-5.21l-1.2,5.9C93.33,32.14,98.12,35.3,98,36S92.94,34.56,86.67,31.24Z"/><path d="M273.36,120.73L266.9,123c-0.87.31-4.13,0.37-3.29-1.89,0.35-.93,3.35-3.39,3.78-4.11a4.47,4.47,0,0,1,2.35-1.75l5.91-1.57c2.37-6.94,4.41-12,4.93-12.13S280,106.29,278,113l6.05-1.55c2.54-8.12,4.84-14.3,5.39-14.38s-0.77,5.9-2.95,13.77l5.74-1.4c2.1-7.39,4.14-13.13,4.69-13.19s-0.47,5.49-2.25,12.6l4.46-1c0.81-.19,3,0,2.65,1.23s-3.22,3.24-4.07,3.51l-4.36,1.4c-1.82,6.72-3.64,12-4.36,12.4s0-4.52,1.8-11.57l-6,2C282.4,125,280,131.56,279.29,132s0.5-5.72,2.94-14.31L276,119.83c-2.72,8.63-5.4,15.68-6.19,16.14S270.55,129.77,273.36,120.73Z"/><path class="cls-2" d="M273.36,120.73L266.9,123c-0.87.31-4.13,0.37-3.29-1.89,0.35-.93,3.35-3.39,3.78-4.11a4.47,4.47,0,0,1,2.35-1.75l5.91-1.57c2.37-6.94,4.41-12,4.93-12.13S280,106.29,278,113l6.05-1.55c2.54-8.12,4.84-14.3,5.39-14.38s-0.77,5.9-2.95,13.77l5.74-1.4c2.1-7.39,4.14-13.13,4.69-13.19s-0.47,5.49-2.25,12.6l4.46-1c0.81-.19,3,0,2.65,1.23s-3.22,3.24-4.07,3.51l-4.36,1.4c-1.82,6.72-3.64,12-4.36,12.4s0-4.52,1.8-11.57l-6,2C282.4,125,280,131.56,279.29,132s0.5-5.72,2.94-14.31L276,119.83c-2.72,8.63-5.4,15.68-6.19,16.14S270.55,129.77,273.36,120.73Z"/><path class="cls-1" d="M219.1,63.6l-1.32,6.83c-0.18.92-1.64,4.81-2.9,4.71-0.52,0-1-2.67-1.35-2.91s-0.41-1.61-.3-2.15l1.26-6.56c-4.44-.2-7.57-0.73-7.5-1.33s3.42-1.13,8-1.31l1.3-6.76C210.37,54,206,53.4,206.09,52.74s4.68-1.22,10.74-1.35l1.24-6.44c-6.23-.13-10.9-0.71-10.82-1.4s5-1.26,11.35-1.35l1-5c0.18-.92,1.47-3.58,2.73-3.48s2,2.92,1.82,3.84l-0.9,4.69c6.15,0.14,10.76.71,10.67,1.4S229,44.86,222.68,45l-1.24,6.43c6.46,0.11,11.36.7,11.28,1.41s-5.24,1.29-11.81,1.36l-1.28,6.66c5.93,0.07,10.53.68,10.44,1.41S225.13,63.56,219.1,63.6Z"/><path class="cls-1" d="M40.74,110.61l-7.47-5.67c-1-.76-5.39-4.67-5.52-5.81-0.06-.47,2.63.76,2.82,0.59s1.62,0.65,2.22,1.1L40,106.25c-0.63-4.13-.68-6.8,0-6.33s1.85,4,2.91,8.52l7.38,5.6c-1-5.59-1.21-9.41-.49-8.9s2.19,5.28,3.47,11.17l7,5.35c-1.05-5.9-1.33-10-.59-9.48s2.29,5.61,3.59,11.76l5.5,4.18c1,0.76,4.06,3.72,4.19,4.86s-2.7,0-3.7-.73l-5.12-3.89c1,5.82,1.3,9.86.56,9.33s-2.26-5.53-3.56-11.62l-7-5.33c1.12,6.13,1.43,10.45.67,9.91s-2.36-5.86-3.69-12.21l-7.28-5.53c1.06,5.65,1.29,9.66.5,9.1S41.93,116.42,40.74,110.61Z"/><path class="cls-1" d="M199,14.23l15.11-3.4c2-.46,11.62-1.75,13.18-0.56,0.65,0.49-3.78,2.69-3.77,3.16,0,0.67-2.56,1.45-3.76,1.72l-14.5,3.27c5.8,4.11,9.15,7.27,7.87,7.61s-7-2.31-13.7-6.3l-14.93,3.37c8,5.41,13,9.7,11.56,10.07s-8.91-3.37-17.59-8.71l-14.25,3.2c8.44,5.66,13.83,10.24,12.38,10.63s-9.42-3.63-18.46-9.26L147,31.53c-2,.46-9,1.08-10.57-0.11s2.89-3.75,4.91-4.2l10.37-2.34c-8.32-5.6-13.61-10.11-12.16-10.49s9.29,3.56,18.24,9.12L172,20.31c-8.8-5.85-14.49-10.65-13-11s9.8,3.83,19.11,9.66l14.73-3.32c-8.13-5.36-13.36-9.88-11.81-10.29S190.54,8.85,199,14.23Z"/><path d="M138.36,69.77l-10.95,2.36c-1.57.25-8.6,0.52-8.6-.57,0-.44,4.48-1.93,4.84-2.31,0.52-.56,2.58-1.1,3.45-1.28L137,65.31c-0.46-3.94.08-6.73,0.83-7.11s1.63,1.88,2.81,5.82l8.44-3.92c-1.7-5.79-1.78-10-1.17-10.54s1.91,2.86,4.21,8.72l6.36-4.85c-2.88-6.76-3.88-11.82-3.43-12.53s2.4,3.37,5.79,10.22l3.77-4.59c0.61-.89,2.88-2.55,3.89-0.79s0.25,6.19-.45,7l-3.93,4c5.39,8.39,9.82,15.66,9.09,16.17s-6.28-5.9-11.69-14l-6.89,4.48c4.6,8,8.41,15.15,7.47,15.56s-6.23-6-10.79-13.87l-8.88,3.49c3.15,6.63,5.58,12.62,4.41,12.91S141.42,76.25,138.36,69.77Z"/><path class="cls-2" d="M138.36,69.77l-10.95,2.36c-1.57.25-8.6,0.52-8.6-.57,0-.44,4.48-1.93,4.84-2.31,0.52-.56,2.58-1.1,3.45-1.28L137,65.31c-0.46-3.94.08-6.73,0.83-7.11s1.63,1.88,2.81,5.82l8.44-3.92c-1.7-5.79-1.78-10-1.17-10.54s1.91,2.86,4.21,8.72l6.36-4.85c-2.88-6.76-3.88-11.82-3.43-12.53s2.4,3.37,5.79,10.22l3.77-4.59c0.61-.89,2.88-2.55,3.89-0.79s0.25,6.19-.45,7l-3.93,4c5.39,8.39,9.82,15.66,9.09,16.17s-6.28-5.9-11.69-14l-6.89,4.48c4.6,8,8.41,15.15,7.47,15.56s-6.23-6-10.79-13.87l-8.88,3.49c3.15,6.63,5.58,12.62,4.41,12.91S141.42,76.25,138.36,69.77Z"/><path d="M360.05,106.68l-4-6.9c-0.49-1-2-7-1.17-9.2,0.35-.92,2.24.57,2.6,0.18,0.51-.56,1.24.69,1.51,1.34l3.58,7.19c2.53-7,4.53-11.54,4.88-10.92s-1,6.22-3.31,13.48l4.37,5.64c2.88-8.32,5.28-14.09,5.71-13.54s-1.2,7.13-3.81,15.46l4.81,3.71c2.57-7.66,4.84-13.11,5.35-12.7s-0.86,6.4-3.16,13.93l4.22,1.7c0.8,0.23,2.93,1.58,2.44,2.87s-3.5,2.28-4.33,2.12l-4.09-1.18c-2.49,7.42-4.86,13.1-5.51,13.07s0.77-6.13,3.22-14l-5-3.1c-3,8.94-5.83,15.77-6.43,15.58s1.34-7.77,4.41-17.27l-4.54-4.95c-3.18,9.31-6.13,16.41-6.68,16S356.77,116.54,360.05,106.68Z"/><path class="cls-2" d="M360.05,106.68l-4-6.9c-0.49-1-2-7-1.17-9.2,0.35-.92,2.24.57,2.6,0.18,0.51-.56,1.24.69,1.51,1.34l3.58,7.19c2.53-7,4.53-11.54,4.88-10.92s-1,6.22-3.31,13.48l4.37,5.64c2.88-8.32,5.28-14.09,5.71-13.54s-1.2,7.13-3.81,15.46l4.81,3.71c2.57-7.66,4.84-13.11,5.35-12.7s-0.86,6.4-3.16,13.93l4.22,1.7c0.8,0.23,2.93,1.58,2.44,2.87s-3.5,2.28-4.33,2.12l-4.09-1.18c-2.49,7.42-4.86,13.1-5.51,13.07s0.77-6.13,3.22-14l-5-3.1c-3,8.94-5.83,15.77-6.43,15.58s1.34-7.77,4.41-17.27l-4.54-4.95c-3.18,9.31-6.13,16.41-6.68,16S356.77,116.54,360.05,106.68Z"/><path class="cls-1" d="M320.69,60.46l13-2.81c1.75-.38,10-1.3,11.26,0,0.53,0.52-3.34,2.55-3.35,3,0,0.67-2.24,1.35-3.28,1.57l-12.51,2.7c4.77,4.36,7.49,7.66,6.38,7.95s-5.85-2.59-11.41-6.86l-12.88,2.78c6.56,5.74,10.64,10.25,9.42,10.56s-7.45-3.74-14.62-9.44l-12.28,2.65c7,6,11.35,10.82,10.1,11.16s-7.88-4-15.34-10l-9.6,2.07c-1.75.38-7.73,0.73-9-.53s2.63-3.64,4.37-4l8.94-1.93c-6.85-6-11.18-10.69-9.92-11s7.76,3.95,15.16,9.88l12.25-2.65c-7.25-6.22-11.9-11.26-10.61-11.6s8.2,4.23,15.88,10.46l12.7-2.74c-6.71-5.7-11-10.45-9.63-10.8S313.68,54.72,320.69,60.46Z"/><rect class="cls-3" y="-0.04" width="500" height="150.08"/><path class="cls-1" d="M25.43,24.59L18.75,22.1c-0.9-.34-4.85-2.31-5-3.28-0.07-.4,2.29-0.23,2.44-0.44s1.42,0,2,.22L24.53,21c-0.76-3.45-.93-5.8-0.35-5.61S26,18.31,27.11,22l6.6,2.46c-1.12-4.63-1.52-7.94-.88-7.74s2.14,3.94,3.55,8.73l6.29,2.35c-1.21-4.87-1.66-8.43-1-8.22s2.25,4.2,3.69,9.22l4.92,1.83c0.9,0.34,3.67,1.92,3.84,2.89s-2.31.95-3.2,0.62l-4.58-1.71c1.18,4.81,1.62,8.31,1,8.09s-2.22-4.13-3.65-9.1L37.36,29c1.28,5.06,1.77,8.79,1.09,8.57S36.12,33.22,34.66,28l-6.51-2.43c1.2,4.65,1.61,8.14.9,7.91S26.75,29.35,25.43,24.59Z"/><path class="cls-1" d="M500,74.23a2.53,2.53,0,0,0-1-.68c-0.61.16-1.85-1.75-2.35-2.67l-6-11.08c-2.55,5.7-4.74,9.18-5.31,8.22s0.65-6.25,2.9-12.68L482,43.92c-3.29,7.79-6.17,12.88-6.8,11.82s1.23-8.07,4.3-16.43l-5.9-10.89c-3.42,8.24-6.48,13.72-7.13,12.63s1.35-8.56,4.61-17.27l-4.61-8.51c-0.84-1.55-2.86-7.1-2.09-8.66s4,1.48,4.86,3l4.3,7.92c3.39-8.12,6.4-13.51,7-12.41s-1.32,8.43-4.54,17l5.89,10.87c3.52-8.58,6.71-14.36,7.39-13.23s-1.46,8.91-4.86,17.9L490.57,49c3.21-7.91,6.26-13.24,7-12.07s-1.25,8.58-4.41,16.78l6.26,11.55c0.15,0.27.36,0.73,0.62,1.3"/><path class="cls-1" d="M440.75,46.2l5.1-7.28c0.69-1,4.3-5.15,5.49-5.11,0.49,0-.48,2.76-0.27,3s-0.49,1.68-.89,2.26l-4.89,7c4.31,0,7.14.38,6.73,1s-4,1.37-8.7,1.79l-5,7.19c5.82-.14,9.86.23,9.41,0.93s-5.34,1.53-11.44,2l-4.81,6.86c6.14-.19,10.47.19,10,0.92s-5.68,1.59-12.06,2l-3.75,5.36c-0.69,1-3.45,3.85-4.65,3.81s-0.37-3,.31-4l3.5-5c-6.06.17-10.32-.2-9.85-0.93s5.59-1.57,11.9-2l4.79-6.84c-6.38.22-10.93-.15-10.45-0.91s5.93-1.63,12.52-2l5-7.09c-5.87.23-10.11-.18-9.61-1S434.72,46.55,440.75,46.2Z"/><path class="cls-1" d="M284.7,23.82l5.39-3c0.72-.41,4-1.31,4.23.2,0.1,0.62-1.71,2.94-1.8,3.49A3.2,3.2,0,0,1,291,26.26l-5.17,2.91c1,5.24,1.43,9.19,1,9.5s-1.72-3.18-3-8.33l-5.33,3c1.42,6.91,2.14,12.31,1.63,12.66s-2.12-4.57-3.78-11.44l-5.08,2.85c1.52,7.25,2.3,13,1.77,13.37s-2.23-4.91-3.94-12.15l-4,2.24c-0.72.41-3,.69-3.28-0.82s1.64-4.24,2.36-4.64l3.7-2.08c-1.49-7.17-2.26-12.84-1.73-13.19s2.2,4.82,3.9,12l5.07-2.85c-1.6-7.49-2.43-13.53-1.89-13.9s2.31,5.16,4.07,12.67l5.25-3c-1.49-6.86-2.23-12.55-1.66-12.93S283.11,16.9,284.7,23.82Z"/><path class="cls-1" d="M345,32.07l-12.46-9.2c-1.67-1.24-8.93-7.64-9-9.6-0.05-.81,4.51,1.1,4.86.79,0.5-.45,2.77,1,3.76,1.72l12,8.83c-0.68-7.08-.49-11.67.61-10.93s2.82,6.78,4.21,14.48l12.32,9.09c-1.12-9.56-1.15-16.15.05-15.33s3.28,8.94,4.92,19l11.74,8.68c-1.24-10.09-1.31-17.16-.06-16.32s3.42,9.5,5.08,20l9.18,6.77c1.68,1.24,6.71,6.1,6.83,8.07s-4.73.26-6.39-1L384,60.86c1.2,10,1.26,16.91,0,16.06s-3.38-9.36-5-19.76L367.3,48.51c1.33,10.49,1.43,17.92.15,17.05s-3.52-9.92-5.2-20.78l-12.14-9c1.27,9.66,1.27,16.57-.06,15.67S346.51,42,345,32.07Z"/><path d="M447.15,120l8.89,6.06c1.3,0.9,7.15,6.17,7.15,8.36,0,0.9-4.08-.24-4.45.17-0.54.58-2.49-.5-3.31-1.07l-9.29-6.4c-1.41,6.58-3.18,10.81-4.1,10.24s-0.51-5.74.71-12.55L435,119.61c-3.2,7.73-6.5,12.9-7.39,12.37s1.27-6.48,4.63-14.2l-5.68-3.65c-4.81,7-9.35,11.77-10.11,11.34s2.92-5.75,8-12.62l-3.21-1.92a1.92,1.92,0,0,1,.26-2.94c1.29-1.2,3.61-1.92,4-1.71l2.45,1.37c4.36-7.23,7.49-12.93,7.75-12.89s-2.17,6.18-6,13.91l4.88,3c3-8.77,5.24-15.68,5.67-15.52s-0.78,7.78-3.2,17.11l6.84,4.52c1.3-9.16,2.48-16.36,3.13-16S447.91,110.32,447.15,120Z"/><path class="cls-2" d="M447.15,120l8.89,6.06c1.3,0.9,7.15,6.17,7.15,8.36,0,0.9-4.08-.24-4.45.17-0.54.58-2.49-.5-3.31-1.07l-9.29-6.4c-1.41,6.58-3.18,10.81-4.1,10.24s-0.51-5.74.71-12.55L435,119.61c-3.2,7.73-6.5,12.9-7.39,12.37s1.27-6.48,4.63-14.2l-5.68-3.65c-4.81,7-9.35,11.77-10.11,11.34s2.92-5.75,8-12.62l-3.21-1.92a1.92,1.92,0,0,1,.26-2.94c1.29-1.2,3.61-1.92,4-1.71l2.45,1.37c4.36-7.23,7.49-12.93,7.75-12.89s-2.17,6.18-6,13.91l4.88,3c3-8.77,5.24-15.68,5.67-15.52s-0.78,7.78-3.2,17.11l6.84,4.52c1.3-9.16,2.48-16.36,3.13-16S447.91,110.32,447.15,120Z"/><path class="cls-1" d="M413.08,29.31L415.57,36c0.33,0.9,1.42,5.18.8,5.94-0.26.32-1.67-1.58-1.93-1.55s-0.92-1.09-1.11-1.62l-2.38-6.41c-2.12,2.83-3.78,4.5-4,3.94S408,33,410,29.77l-2.46-6.6c-2.77,3.87-5,6.35-5.28,5.73s1.58-4.2,4.28-8.4l-2.34-6.3c-2.89,4.1-5.29,6.77-5.56,6.13s1.71-4.45,4.56-8.82L401.37,6.6c-0.33-.9-0.95-4-0.33-4.79s2.23,1.13,2.56,2l1.7,4.58c2.87-4,5.22-6.67,5.49-6s-1.68,4.38-4.49,8.71l2.34,6.28c3-4.28,5.49-7.09,5.77-6.43s-1.81,4.63-4.77,9.13l2.42,6.51c2.73-4,5.1-6.54,5.39-5.86S415.82,25.2,413.08,29.31Z"/><path d="M500.22,90.26l0.13,23.89c-0.78-3.36-1.64-7.8-2.45-12.64l-11.18-5.59c1.93,8.93,2.49,15.5,1.33,14.86s-3.87-8.08-6.41-16.86l-12.92-3.76c2.68,6.9,3.68,12.15,2.33,11.72s-4.83-6.19-8-12.86l-14.66-1.72c-2-.12-11.42-0.86-12.1-1.89C436,85,441.46,84,441.75,83.71c0.42-.48,3.23-0.62,4.48-0.6l14.5,1c-2-4.63-2.71-7.87-1.39-7.85s4.24,3.59,7,8.65L479.89,88c-2.17-7.42-2.95-12.71-1.59-12.53s4.31,6.17,6.8,14.2l11.66,4.91c-1.49-9.12-1.81-15.64-.52-15.27C497.21,79.57,498.79,83.93,500.22,90.26Z"/><path class="cls-2" d="M500.22,90.26l0.13,23.89c-0.78-3.36-1.64-7.8-2.45-12.64l-11.18-5.59c1.93,8.93,2.49,15.5,1.33,14.86s-3.87-8.08-6.41-16.86l-12.92-3.76c2.68,6.9,3.68,12.15,2.33,11.72s-4.83-6.19-8-12.86l-14.66-1.72c-2-.12-11.42-0.86-12.1-1.89C436,85,441.46,84,441.75,83.71c0.42-.48,3.23-0.62,4.48-0.6l14.5,1c-2-4.63-2.71-7.87-1.39-7.85s4.24,3.59,7,8.65L479.89,88c-2.17-7.42-2.95-12.71-1.59-12.53s4.31,6.17,6.8,14.2l11.66,4.91c-1.49-9.12-1.81-15.64-.52-15.27C497.21,79.57,498.79,83.93,500.22,90.26Z"/></svg>