<svg id="Dendrite" xmlns="http://www.w3.org/2000/svg" viewBox="0 0 300 150"><defs><style>.cls-1{stroke:#1d1d1b;stroke-miterlimit:10;stroke-width:0.5px;}.cls-2{fill:none;}</style></defs><title>M_Dendrites</title><path class="cls-1" d="M208.4,93.38l-3.21,8.55c-0.43,1.15-3.22,5.73-4.89,5.11-0.69-.26-0.8-3.95-1.21-4.4-0.59-.65-0.22-2.3,0-3l3.08-8.21c-5.95-2-10.06-4-9.83-4.72s4.86-.15,11.08,1.42l3.16-8.46c-8-2.54-13.74-5-13.48-5.86S199.7,74,207.9,76.27l3-8.06c-8.38-2.62-14.56-5.24-14.31-6.12s7,0.3,15.59,2.68l2.36-6.3c0.43-1.15,2.73-4.17,4.41-3.54s2.08,4.67,1.65,5.81l-2.2,5.87c8.27,2.61,14.36,5.19,14.1,6.06s-6.9-.28-15.39-2.62l-3,8c8.69,2.68,15.18,5.41,14.92,6.31s-7.33-.35-16.22-2.85l-3.13,8.34c8,2.43,14.06,5.05,13.78,6S216.55,95.71,208.4,93.38Z"/><path class="cls-1" d="M301.1,113.19a1.58,1.58,0,0,1-.8.28c-2.7.4-11.09-.92-20.77-3.27l-11.25,9.43c9.8,2.63,16.63,5.5,15.48,6.56s-10.07-.1-20.2-2.62L252,133.25c-1.55,1.3-9.32,6.5-11.27,5.82-0.81-.28,2-4.43,1.73-4.94-0.34-.73,1.52-2.59,2.44-3.36L256,121.48c-7.13-2.2-11.64-4.32-10.69-5.19s7.27-.24,15.15,1.46l11.42-9.57c-9.68-2.76-16.2-5.46-15.15-6.42s9.49,0.16,19.76,2.55l10.89-9.12c-10.22-2.84-17.23-5.71-16.15-6.7S281.3,88.73,292,91.3l8.27-6.94v8.43l-0.58.49,0.58,0.17v4.9c-1.67-.35-3.43-0.74-5.23-1.17l-10.86,9.1c7.82,2.14,13.88,4.32,16.09,5.73C301.1,112.51,301.4,112.92,301.1,113.19Z"/><path class="cls-1" d="M113.08,75.34L116.63,84c0.47,1.16,1.77,6.62.44,7.5-0.55.36-2.91-2.17-3.42-2.17-0.74,0-1.56-1.47-1.84-2.15l-3.4-8.27c-4.6,3.27-8.11,5.15-8.46,4.42s2.62-4,7.1-7.75L103.53,67c-6.05,4.49-10.83,7.3-11.22,6.5s3.82-5,9.81-9.94l-3.34-8.12c-6.34,4.76-11.44,7.79-11.85,7S91.05,57.1,97.35,52l-2.61-6.34c-0.48-1.16-1.07-5.13.26-6s4.08,1.67,4.56,2.82L102,48.38c6.27-4.69,11.3-7.67,11.69-6.85s-4,5.26-10.27,10.31l3.33,8.1c6.55-5,11.89-8.17,12.31-7.31s-4.34,5.55-10.88,10.8l3.45,8.4c6-4.59,11-7.53,11.47-6.64S119.11,70.55,113.08,75.34Z"/><path class="cls-1" d="M285.52,32.15L284.2,39c-0.18.92-1.64,4.81-2.9,4.71-0.52,0-1-2.67-1.35-2.91s-0.41-1.61-.3-2.15l1.26-6.56c-4.44-.2-7.57-0.73-7.5-1.33s3.42-1.13,8-1.31l1.3-6.76c-5.92-.15-10.29-0.72-10.21-1.38s4.68-1.22,10.74-1.35l1.24-6.44c-6.23-.13-10.9-0.71-10.82-1.4s5-1.26,11.35-1.35l1-5c0.18-.92,1.47-3.58,2.73-3.48s2,2.92,1.82,3.84l-0.9,4.69c6.15,0.14,10.76.71,10.67,1.4s-4.92,1.25-11.2,1.35l-1.24,6.43c6.46,0.11,11.36.7,11.28,1.41s-5.24,1.29-11.81,1.36l-1.28,6.66c5.93,0.07,10.53.68,10.44,1.41S291.56,32.12,285.52,32.15Z"/><path class="cls-1" d="M47.14,106.67L37.42,103c-1.31-.49-6.52-3.66-5.8-5.56,0.29-.78,4.49-0.91,5-1.37,0.74-.67,2.62-0.25,3.39,0l9.33,3.5c2.3-6.76,4.49-11.44,5.37-11.18S54.88,94,53.09,101l9.61,3.6c2.89-9.05,5.69-15.61,6.66-15.33s-0.25,7.47-2.78,16.78l9.16,3.44c3-9.52,6-16.55,7-16.26s-0.34,8-3,17.72l7.16,2.68c1.31,0.49,4.74,3.11,4,5s-5.3,2.37-6.61,1.88l-6.67-2.5c-3,9.41-5.9,16.32-6.89,16s0.31-7.84,3-17.49l-9.15-3.42c-3,9.88-6.14,17.25-7.17,17s0.4-8.34,3.24-18.43l-9.48-3.55c-2.76,9.08-5.74,16-6.81,15.67S44.49,115.94,47.14,106.67Z"/><rect class="cls-2" y="-0.04" width="300.3" height="150.08"/><path class="cls-1" d="M26.73,22.32L19,20.82c-1-.2-5.46-1.86-5.35-3.29,0-.59,3-1.15,3.31-1.53,0.39-.56,1.83-0.47,2.45-0.35l7.46,1.44c0.23-5,.83-8.61,1.51-8.52s1.29,3.89,1.49,9.1l7.68,1.48c0.18-6.73.81-11.7,1.57-11.6s1.39,5.32,1.53,12.2l7.32,1.41c0.14-7.08.81-12.39,1.59-12.3s1.43,5.68,1.54,12.9l5.72,1.1c1,0.2,4.07,1.67,4,3.1S57.41,28.22,56.37,28L51,27c-0.16,7-.81,12.23-1.59,12.12S48,33.53,47.92,26.39L40.61,25c-0.12,7.34-.8,12.92-1.6,12.82s-1.46-6-1.54-13.42L29.9,22.92c-0.08,6.74-.77,12-1.61,11.86S26.77,29.18,26.73,22.32Z"/><path class="cls-1" d="M148,31.11l-9.13.27c-1.23,0-6.52-.81-6.58-2.59,0-.74,3.35-2.24,3.61-2.79,0.38-.79,2.05-1.07,2.77-1.09l8.76-.26c-0.38-6.27-.15-10.81.65-10.89s2,4.43,2.88,10.79l9-.27c-0.66-8.33-.57-14.61.31-14.7s2.29,6.17,3.33,14.59l8.61-.26c-0.75-8.75-.67-15.46.24-15.56s2.38,6.6,3.43,15.45l6.73-.2c1.23,0,4.9,1,4.95,2.74S184,30,182.82,30.07l-6.26.19c0.72,8.65.64,15.25-.27,15.34s-2.36-6.49-3.4-15.23l-8.59.26c0.81,9.06.75,16.1-.19,16.2s-2.45-6.92-3.51-16.09l-8.9.27c0.78,8.31.65,14.92-.32,15S148.9,39.54,148,31.11Z"/></svg>