<svg id="Dendrite" xmlns="http://www.w3.org/2000/svg" viewBox="0 0 650 100"><defs><style>.cls-1,.cls-2{stroke:#1d1d1b;stroke-miterlimit:10;stroke-width:0.5px;}.cls-2{fill:#fff;}.cls-3{fill:none;}</style></defs><title>M_Dendrites</title><path class="cls-1" d="M232.53,72.7c-0.25.88-6.89-.28-15.38-2.62l-3,8c8.69,2.68,15.19,5.41,14.92,6.31s-7.33-.35-16.21-2.85l-3.13,8.34c8,2.43,14.06,5.05,13.78,6s-6.94-.17-15.09-2.5l-2.81,7.52h-6.76a5.63,5.63,0,0,1,.3-1.24l3.08-8.21c-6-2-10.06-3.95-9.83-4.73s4.85-.15,11.07,1.42l3.17-8.45c-8-2.55-13.74-5-13.49-5.86s6.57,0.22,14.77,2.44l3-8.06c-8.38-2.63-14.56-5.24-14.31-6.12s7,0.3,15.6,2.68l2.36-6.31C215,57.35,217.3,54.33,219,55s2.08,4.67,1.65,5.81l-2.2,5.87C226.71,69.25,232.8,71.83,232.53,72.7Z"/><path class="cls-1" d="M315.61,100c-1.09,1-9.92-.22-20.54-2.74l-4.44,3.72H280.56l6.82-5.71c-10.22-2.84-17.23-5.71-16.15-6.7s10.07,0.24,20.8,2.81l8.5-7.13c1.56-1.31,7.36-4.74,9.33-4s-0.67,5.23-2.22,6.52l-7.92,6.64C309.8,96.15,316.69,99,315.61,100Z"/><path class="cls-1" d="M113.08,75.38L116.63,84c0.47,1.16,1.77,6.62.44,7.5-0.55.36-2.91-2.17-3.42-2.17-0.74,0-1.56-1.47-1.84-2.15l-3.4-8.27c-4.6,3.27-8.11,5.15-8.46,4.42s2.62-4,7.1-7.75l-3.51-8.52c-6.05,4.49-10.83,7.3-11.22,6.5s3.82-5,9.81-9.94L98.78,55.5c-6.34,4.76-11.44,7.79-11.85,7S91.05,57.13,97.35,52l-2.61-6.34c-0.48-1.16-1.07-5.13.26-6s4.08,1.67,4.56,2.82L102,48.41c6.27-4.69,11.3-7.67,11.69-6.85s-4,5.26-10.27,10.31l3.33,8.1c6.55-5,11.89-8.17,12.31-7.31s-4.34,5.55-10.88,10.8l3.45,8.4c6-4.59,11-7.53,11.47-6.64S119.11,70.59,113.08,75.38Z"/><path class="cls-1" d="M488.77,64.91l-5,10.1c-0.67,1.36-4.6,6.82-6.51,6.18-0.78-.26-0.42-4.54-0.84-5-0.61-.73.06-2.66,0.45-3.46L481.68,63c-6.79-2-11.42-4.08-11-5s5.79-.43,13,1.09l4.91-10C479.39,46.55,472.86,44,473.27,43s7.78-.08,17.22,2.09l4.69-9.51c-9.6-2.63-16.59-5.35-16.17-6.39s8.29,0,18.17,2.32L500.83,24c0.67-1.36,3.82-5,5.72-4.34s1.84,5.32,1.18,6.67l-3.41,6.93c9.48,2.61,16.36,5.3,15.93,6.33s-8.16,0-17.93-2.26l-4.67,9.5c10,2.68,17.31,5.52,16.87,6.58s-8.67,0-18.88-2.49l-4.84,9.84c9.16,2.42,16,5.16,15.57,6.26S498.14,67.21,488.77,64.91Z"/><path class="cls-1" d="M374.41,76.89l-9.13.27c-1.23,0-6.52-.81-6.58-2.59,0-.74,3.35-2.24,3.61-2.79,0.38-.79,2.05-1.07,2.77-1.09l8.76-.26c-0.38-6.27-.15-10.81.65-10.89s2,4.43,2.88,10.79l9-.27c-0.66-8.33-.57-14.61.31-14.7s2.29,6.17,3.33,14.59l8.61-.26c-0.75-8.75-.67-15.46.24-15.56s2.38,6.6,3.43,15.45l6.73-.2c1.23,0,4.9,1,4.95,2.74s-3.53,3.7-4.75,3.73L403,76c0.72,8.65.64,15.25-.27,15.34s-2.36-6.49-3.4-15.23l-8.59.26c0.81,9.06.75,16.1-.19,16.2s-2.45-6.92-3.51-16.09l-8.9.27c0.78,8.31.65,14.92-.32,15S375.34,85.32,374.41,76.89Z"/><path class="cls-1" d="M285.52,32.19L284.2,39c-0.18.92-1.64,4.81-2.9,4.71-0.52,0-1-2.67-1.35-2.91s-0.41-1.61-.3-2.15l1.26-6.56c-4.44-.2-7.57-0.73-7.5-1.33s3.42-1.13,8-1.31l1.3-6.76c-5.92-.15-10.29-0.72-10.21-1.38s4.68-1.22,10.74-1.35l1.24-6.44c-6.23-.13-10.9-0.71-10.82-1.4s5-1.26,11.35-1.35l1-5c0.18-.92,1.47-3.58,2.73-3.48s2,2.92,1.82,3.84l-0.9,4.69c6.15,0.14,10.76.71,10.67,1.4s-4.92,1.25-11.2,1.35L287.87,20c6.46,0.11,11.36.7,11.28,1.41s-5.24,1.29-11.81,1.36l-1.28,6.66c5.93,0.07,10.53.68,10.44,1.41S291.56,32.15,285.52,32.19Z"/><path class="cls-1" d="M53.13,100.94H33.91c-1.44-1.12-2.66-2.44-2.29-3.43,0.29-.79,4.48-0.91,5-1.38,0.74-.66,2.61-0.24,3.38,0l9.34,3.5c2.29-6.76,4.49-11.44,5.37-11.18S54.89,93.95,53.13,100.94Z"/><path class="cls-1" d="M67.92,100.94h-4c2.43-7.06,4.6-11.83,5.43-11.58S69.51,94.28,67.92,100.94Z"/><path class="cls-1" d="M82.14,100.94H78.7c1.82-4.81,3.34-7.81,4-7.62S83.06,96.44,82.14,100.94Z"/><path class="cls-1" d="M564.28,39.68l-11-13.13c-1.48-1.77-7.39-10.59-6.61-12.81,0.32-.92,5,2.24,5.61,2,0.83-.39,2.94,1.73,3.81,2.78l10.56,12.6c2.5-8.11,4.91-13.23,5.9-12.15s0.27,8.26-1.66,17.22l10.88,13c3.13-11,6.21-18.41,7.3-17.22s-0.18,10.79-2.9,22.46l10.37,12.38c3.23-11.62,6.49-19.58,7.62-18.36S603.89,59.84,601,72l8.1,9.67c1.48,1.77,5.39,8.36,4.6,10.6s-5.94-.76-7.42-2.52l-7.55-9c-3.21,11.46-6.43,19.29-7.55,18.06s0.25-11.27,3.12-23.34L583.94,63.15c-3.31,12.09-6.7,20.47-7.86,19.2s0.34-11.94,3.4-24.52L568.77,45c-3,11.14-6.26,18.91-7.46,17.6S561.42,51.19,564.28,39.68Z"/><path class="cls-2" d="M535.55,100.94h-1.91c-0.19-.56-0.19-0.91,0-1S534.6,100.16,535.55,100.94Z"/><path class="cls-1" d="M554.14,100.94h-4.47c-2.66-4-4-6.8-3.41-7.12S550.12,96.37,554.14,100.94Z"/><path class="cls-1" d="M429.67,96.8l8.41,4.14h-16c-1.38-1.34-2.41-2.74-2.09-3.7s5.17-.47,5.74-0.95C426.56,95.59,428.76,96.35,429.67,96.8Z"/><path class="cls-1" d="M445.8,100.94h-4.73c2.2-7,4.31-11.68,5.29-11.27S447,94.56,445.8,100.94Z"/><path class="cls-1" d="M463.27,100.94h-4c1.83-5.33,3.4-8.59,4.17-8.27S464,96.12,463.27,100.94Z"/><path class="cls-2" d="M479.57,100.94h-2c0.66-1.27,1.2-1.91,1.56-1.76S479.55,99.92,479.57,100.94Z"/><path class="cls-1" d="M375.91,23.83l-7.77-1.5c-1-.2-5.46-1.86-5.35-3.29,0-.59,3-1.15,3.31-1.53,0.39-.56,1.83-0.47,2.45-0.35L376,18.6c0.23-5,.83-8.61,1.51-8.52s1.29,3.89,1.49,9.1l7.68,1.48c0.18-6.73.81-11.7,1.57-11.6s1.39,5.32,1.53,12.2l7.32,1.41c0.14-7.08.81-12.39,1.59-12.3s1.43,5.68,1.54,12.9l5.72,1.1c1,0.2,4.07,1.67,4,3.1s-3.32,2.27-4.36,2.07l-5.33-1c-0.16,7-.81,12.23-1.59,12.12S397.21,35,397.1,27.91l-7.3-1.4c-0.12,7.34-.8,12.92-1.6,12.82s-1.46-6-1.54-13.42l-7.57-1.46c-0.08,6.74-.77,12-1.61,11.86S376,30.69,375.91,23.83Z"/><rect class="cls-3" width="650" height="100.57"/><path class="cls-1" d="M26.73,22.35L19,20.85c-1-.2-5.46-1.86-5.35-3.29,0-.59,3-1.15,3.31-1.53,0.39-.56,1.83-0.47,2.45-0.35l7.46,1.44c0.23-5,.83-8.61,1.51-8.52s1.29,3.89,1.49,9.1l7.68,1.48c0.18-6.73.81-11.7,1.57-11.6s1.39,5.32,1.53,12.2l7.32,1.41c0.14-7.08.81-12.39,1.59-12.3s1.43,5.68,1.54,12.9l5.72,1.1c1,0.2,4.07,1.67,4,3.1s-3.32,2.27-4.36,2.07L51,27c-0.16,7-.81,12.23-1.59,12.12S48,33.57,47.92,26.43L40.61,25c-0.12,7.34-.8,12.92-1.6,12.82s-1.46-6-1.54-13.42L29.9,23c-0.08,6.74-.77,12-1.61,11.86S26.77,29.21,26.73,22.35Z"/><path class="cls-1" d="M149.06,30.74l-9.13.27c-1.23,0-6.52-.81-6.58-2.59,0-.74,3.35-2.24,3.61-2.79,0.38-.79,2.05-1.07,2.77-1.09l8.76-.26c-0.38-6.27-.15-10.81.65-10.89s2,4.43,2.88,10.79l9-.27c-0.66-8.33-.57-14.61.31-14.7s2.29,6.17,3.33,14.59l8.61-.26c-0.75-8.75-.67-15.46.24-15.56s2.38,6.6,3.43,15.45l6.73-.2c1.23,0,4.9,1,4.95,2.74s-3.53,3.7-4.75,3.73l-6.26.19c0.72,8.65.64,15.25-.27,15.34S175,38.74,174,30l-8.59.26c0.81,9.06.75,16.1-.19,16.2s-2.45-6.92-3.51-16.09l-8.9.27c0.78,8.31.65,14.92-.32,15S150,39.16,149.06,30.74Z"/></svg>