<svg id="Deformed_dendrites" data-name="Deformed dendrites" xmlns="http://www.w3.org/2000/svg" viewBox="0 0 500 50"><defs><style>.cls-1{stroke:#1d1d1b;stroke-miterlimit:10;stroke-width:0.5px;}</style></defs><title>M_DeformedDendrites</title><path class="cls-1" d="M80.28,50h-6l-1-3.86c-0.29-1.16-.65-5.13.16-6s2.5,1.67,2.79,2.82l1.48,5.91c3.84-4.69,6.91-7.67,7.15-6.84S83.16,46,80.28,50Z"/><path class="cls-1" d="M101.64,13.71c-0.07.64-5.09-1.49-11.61-4.88l-1.15,5.7c6.71,3.69,11.82,7,11.74,7.66S95.2,20.56,88.38,17l-1.2,5.91c6.16,3.36,10.95,6.52,10.87,7.2s-5.11-1.41-11.38-4.74l-1.23,6.06c-0.17.82-1.61,3.86-2.92,3.07-0.54-.33-1.1-3.22-1.46-3.65a3.2,3.2,0,0,1-.36-2.3l1.19-5.82C77.27,20,74,17.78,74.07,17.22s3.54,0.78,8.3,3.15l1.21-6C77.42,10.93,72.87,8,72.94,7.33S77.78,8.72,84.07,12l1.17-5.71A95.86,95.86,0,0,1,75-.07H77.7c2.08,0.89,4.89,2.25,8,3.89L86.52-.07H91a6,6,0,0,1,.39,2.31L90.53,6.39C96.93,10,101.72,13.08,101.64,13.71Z"/><path class="cls-1" d="M222.69,39.07l-1.24,6.43c6.46,0.11,11.36.7,11.28,1.41s-5.24,1.29-11.81,1.36L220.59,50H216l0.34-1.75c-5.92-.15-10.29-0.71-10.21-1.38s4.68-1.22,10.74-1.35l1.24-6.44c-6.23-.12-10.9-0.71-10.82-1.39s5-1.26,11.35-1.36l1-5c0.18-.92,1.47-3.58,2.73-3.48s2,2.92,1.82,3.84l-0.9,4.69c6.15,0.13,10.75.71,10.66,1.39S229,39,222.69,39.07Z"/><path class="cls-1" d="M181.18,18.36L196.29,15c2-.46,11.62-1.75,13.18-0.56,0.65,0.49-3.78,2.69-3.77,3.16,0,0.67-2.56,1.45-3.76,1.72l-14.5,3.27c5.8,4.11,9.15,7.27,7.87,7.61s-7-2.31-13.7-6.3l-14.93,3.37c8,5.41,13,9.7,11.56,10.07s-8.91-3.37-17.59-8.71l-14.25,3.2c8.44,5.66,13.83,10.24,12.38,10.63s-9.42-3.63-18.46-9.26l-11.13,2.51c-2,.46-9,1.08-10.57-0.11s2.89-3.75,4.91-4.2L133.89,29c-8.32-5.6-13.61-10.11-12.16-10.49S131,22.09,140,27.65l14.21-3.2c-8.8-5.85-14.49-10.65-13-11s9.8,3.83,19.11,9.66L175,19.75c-8.13-5.36-13.36-9.88-11.81-10.29S172.69,13,181.18,18.36Z"/><path class="cls-1" d="M25.43,18.71l-6.68-2.49c-0.9-.34-4.85-2.31-5-3.28-0.07-.4,2.29-0.23,2.44-0.44s1.42,0,2,.22l6.41,2.39c-0.76-3.45-.93-5.8-0.35-5.61s1.79,2.94,2.93,6.58l6.6,2.46c-1.12-4.63-1.52-7.94-.88-7.74s2.14,3.94,3.55,8.73l6.29,2.35c-1.21-4.87-1.66-8.43-1-8.22s2.25,4.2,3.69,9.22l4.92,1.83c0.9,0.34,3.67,1.92,3.84,2.89s-2.31.95-3.2,0.62L46.33,26.5c1.18,4.81,1.62,8.31,1,8.09s-2.22-4.13-3.65-9.1l-6.28-2.34c1.28,5.06,1.77,8.79,1.09,8.57s-2.32-4.39-3.79-9.58l-6.51-2.43c1.2,4.65,1.61,8.14.9,7.91S26.75,23.47,25.43,18.71Z"/><path class="cls-1" d="M493.13,47.82L494.3,50H488l0.18-.53L482,38c-2.88,6.82-5.45,11.59-6.46,11.94a0.2,0.2,0,0,1-.17,0,0.23,0.23,0,0,1-.16-0.12c-0.65-1.08,1.22-8.08,4.3-16.43l-5.9-10.89c-3.42,8.23-6.48,13.72-7.14,12.62s1.36-8.56,4.62-17.27l-4.61-8.5c-0.84-1.56-2.87-7.11-2.1-8.66s4,1.48,4.87,3l4.29,7.92c2.38-5.68,4.57-10,5.89-11.74,0.57-.74,1-1,1.17-0.67a1.48,1.48,0,0,1,.13.67c0,2.22-1.85,8.8-4.67,16.39l5.89,10.86c3.51-8.58,6.71-14.35,7.38-13.23s-1.45,8.92-4.85,17.9l6.1,11.26c3.2-7.91,6.25-13.25,7-12.08S496.28,39.61,493.13,47.82Z"/><path class="cls-1" d="M452,41.2c-0.42.65-4,1.37-8.7,1.78l-4.9,7H434l4.7-6.69c-5.87.22-10.11-.18-9.61-1s5.66-1.66,11.69-2l5.1-7.28c0.69-1,4.3-5.15,5.49-5.1,0.5,0-.47,2.76-0.27,3s-0.48,1.68-.89,2.25l-4.89,7C449.6,40.16,452.43,40.56,452,41.2Z"/><path class="cls-1" d="M269.11,16.67l5.39-3c0.72-.41,4-1.31,4.23.2,0.1,0.62-1.71,2.94-1.8,3.49a3.2,3.2,0,0,1-1.51,1.78L270.24,22c1,5.24,1.43,9.19,1,9.5s-1.72-3.18-3-8.33l-5.33,3c1.42,6.91,2.14,12.31,1.63,12.66s-2.12-4.57-3.78-11.44l-5.08,2.85c1.52,7.25,2.3,13,1.77,13.37s-2.23-4.91-3.94-12.15l-4,2.24c-0.72.41-3,.69-3.28-0.82s1.64-4.24,2.36-4.64l3.7-2.08C250.75,19,250,13.32,250.51,13s2.2,4.82,3.9,12l5.07-2.85c-1.6-7.49-2.43-13.53-1.89-13.9s2.31,5.16,4.07,12.67l5.25-3C265.43,11,264.68,5.35,265.25,5S267.52,9.75,269.11,16.67Z"/><path class="cls-1" d="M377.26,50l-10-7.35c0.34,2.68.6,5.16,0.78,7.35h-3.79c-0.71-3.22-1.41-7-2-11.07l-12.15-9c1.27,9.66,1.27,16.57,0,15.67s-3.55-9.48-5-19.42L332.57,17c-1.67-1.23-8.93-7.64-9-9.59,0-.81,4.52,1.09,4.86.78,0.51-.44,2.78,1,3.76,1.72l12,8.83c-0.68-7.07-.48-11.67.61-10.92s2.82,6.78,4.2,14.48l12.32,9.09c-1.12-9.57-1.15-16.15.06-15.33s3.28,8.94,4.92,19l11.74,8.68c-1.24-10.09-1.3-17.16-.06-16.32s3.42,9.5,5.07,20L386.43,50h-9.17Z"/><path class="cls-1" d="M415.57,30.11c0.34,0.9,1.42,5.18.81,5.94-0.26.32-1.67-1.58-1.93-1.55s-0.92-1.09-1.11-1.62l-2.39-6.41c-2.11,2.82-3.78,4.5-4,3.93s1-3.27,3.05-6.51l-2.45-6.6c-2.77,3.87-5,6.34-5.28,5.73s1.58-4.2,4.28-8.4l-2.34-6.3c-2.89,4.11-5.28,6.77-5.56,6.13s1.71-4.44,4.56-8.82l-1.83-4.91a6.86,6.86,0,0,1-.23-0.79h3.21l1,2.6c0.68-1,1.32-1.83,1.93-2.6h2.24c-0.8,1.49-1.89,3.32-3.17,5.28l2.34,6.28c3-4.27,5.49-7.09,5.77-6.43s-1.8,4.63-4.77,9.13l2.43,6.52c2.73-4,5.1-6.54,5.39-5.86s-1.65,4.47-4.38,8.58Z"/><path class="cls-1" d="M312,51.68c0,0.13.07,0.32,0.11,0.55h-3.71L307,46.59c-2.81,3.27-5,5.15-5.18,4.42s1.61-3.95,4.34-7.75L304,34.75c-3.7,4.49-6.62,7.3-6.86,6.5s2.34-5,6-9.94l-2-8.12c-3.88,4.76-7,7.79-7.25,7s2.52-5.33,6.37-10.43l-1.59-6.35c-0.29-1.15-.66-5.13.16-6s2.49,1.67,2.78,2.82l1.49,5.91c3.83-4.69,6.9-7.67,7.15-6.84s-2.47,5.25-6.28,10.31l2,8.1c4-5,7.27-8.17,7.52-7.32s-2.65,5.55-6.65,10.8l2.11,8.4c3.67-4.59,6.75-7.53,7-6.65s-2.45,5.37-6.13,10.16Z"/></svg>