<svg id="Dendrite" xmlns="http://www.w3.org/2000/svg" viewBox="0 0 300 100"><defs><style>.cls-1{stroke:#1d1d1b;stroke-miterlimit:10;stroke-width:0.5px;}.cls-2{fill:none;}</style></defs><title>M_Dendrites</title><path class="cls-1" d="M232.53,72.7c-0.25.88-6.89-.28-15.38-2.62l-3,8c8.69,2.68,15.19,5.41,14.92,6.31s-7.33-.35-16.21-2.85l-3.13,8.34c8,2.43,14.06,5.05,13.78,6s-6.94-.17-15.09-2.5l-2.81,7.52h-6.76a5.63,5.63,0,0,1,.3-1.24l3.08-8.21c-6-2-10.06-3.95-9.83-4.73s4.85-.15,11.07,1.42l3.17-8.45c-8-2.55-13.74-5-13.49-5.86s6.57,0.22,14.77,2.44l3-8.06c-8.38-2.63-14.56-5.24-14.31-6.12s7,0.3,15.6,2.68l2.36-6.31C215,57.35,217.3,54.33,219,55s2.08,4.67,1.65,5.81l-2.2,5.87C226.71,69.25,232.8,71.83,232.53,72.7Z"/><path class="cls-1" d="M300,93.1l-0.28.23L300,93.41v4.93c-1.58-.34-3.23-0.71-4.93-1.11l-4,3.35-0.44.37H280.56l0.44-.37,6.38-5.34c-10.22-2.84-17.23-5.71-16.15-6.7s10.07,0.24,20.8,2.81l8-6.69V93.1Z"/><path class="cls-1" d="M113.08,75.39L116.63,84c0.47,1.16,1.77,6.62.44,7.5-0.55.36-2.91-2.17-3.42-2.17-0.74,0-1.56-1.47-1.84-2.15l-3.4-8.27c-4.6,3.27-8.11,5.15-8.46,4.42s2.62-4,7.1-7.75l-3.51-8.52c-6.05,4.49-10.83,7.3-11.22,6.5s3.82-5,9.81-9.94l-3.34-8.12c-6.34,4.76-11.44,7.79-11.85,7S91.05,57.14,97.35,52L94.74,45.7c-0.48-1.16-1.07-5.13.26-6s4.08,1.67,4.56,2.82L102,48.42c6.27-4.69,11.3-7.67,11.69-6.85s-4,5.26-10.27,10.31l3.33,8.1c6.55-5,11.89-8.17,12.31-7.31s-4.34,5.55-10.88,10.8l3.45,8.4c6-4.59,11-7.53,11.47-6.64S119.11,70.6,113.08,75.39Z"/><path class="cls-1" d="M285.52,32.19L284.2,39c-0.18.92-1.64,4.81-2.9,4.71-0.52,0-1-2.67-1.35-2.91s-0.41-1.61-.3-2.15l1.26-6.56c-4.44-.2-7.57-0.73-7.5-1.33s3.42-1.13,8-1.31l1.3-6.76c-5.92-.15-10.29-0.72-10.21-1.38s4.68-1.22,10.74-1.35l1.24-6.44c-6.23-.13-10.9-0.71-10.82-1.4s5-1.26,11.35-1.35l1-5c0.18-.92,1.47-3.58,2.73-3.48s2,2.92,1.82,3.84l-0.9,4.69c6.15,0.14,10.76.71,10.67,1.4s-4.92,1.25-11.2,1.35L287.87,20c6.46,0.11,11.36.7,11.28,1.41s-5.24,1.29-11.81,1.36l-1.28,6.66c5.93,0.07,10.53.68,10.44,1.41S291.56,32.16,285.52,32.19Z"/><path class="cls-1" d="M53.13,100.94H33.91c-1.44-1.12-2.66-2.44-2.29-3.43,0.29-.79,4.48-0.91,5-1.38,0.74-.66,2.61-0.24,3.38,0l9.34,3.5c2.29-6.76,4.49-11.44,5.37-11.18S54.89,94,53.13,100.94Z"/><path class="cls-1" d="M67.92,100.94h-4c2.43-7.06,4.6-11.83,5.43-11.58S69.51,94.28,67.92,100.94Z"/><path class="cls-1" d="M82.14,100.94H78.7c1.82-4.81,3.34-7.81,4-7.62S83.06,96.44,82.14,100.94Z"/><rect class="cls-2" width="300" height="100.58"/><path class="cls-1" d="M26.73,22.36L19,20.86c-1-.2-5.46-1.86-5.35-3.29,0-.59,3-1.15,3.31-1.53,0.39-.56,1.83-0.47,2.45-0.35l7.46,1.44c0.23-5,.83-8.61,1.51-8.52s1.29,3.89,1.49,9.1l7.68,1.48c0.18-6.73.81-11.7,1.57-11.6s1.39,5.32,1.53,12.2l7.32,1.41c0.14-7.08.81-12.39,1.59-12.3s1.43,5.68,1.54,12.9l5.72,1.1c1,0.2,4.07,1.67,4,3.1s-3.32,2.27-4.36,2.07L51,27c-0.16,7-.81,12.23-1.59,12.12S48,33.57,47.92,26.44L40.61,25c-0.12,7.34-.8,12.92-1.6,12.82s-1.46-6-1.54-13.42L29.9,23c-0.08,6.74-.77,12-1.61,11.86S26.77,29.22,26.73,22.36Z"/><path class="cls-1" d="M149.06,30.75l-9.13.27c-1.23,0-6.52-.81-6.58-2.59,0-.74,3.35-2.24,3.61-2.79,0.38-.79,2.05-1.07,2.77-1.09l8.76-.26c-0.38-6.27-.15-10.81.65-10.89s2,4.43,2.88,10.79l9-.27c-0.66-8.33-.57-14.61.31-14.7s2.29,6.17,3.33,14.59l8.61-.26c-0.75-8.75-.67-15.46.24-15.56s2.38,6.6,3.43,15.45l6.73-.2c1.23,0,4.9,1,4.95,2.74s-3.53,3.7-4.75,3.73l-6.26.19c0.72,8.65.64,15.25-.27,15.34S175,38.75,174,30l-8.59.26c0.81,9.06.75,16.1-.19,16.2s-2.45-6.92-3.51-16.09l-8.9.27c0.78,8.31.65,14.92-.32,15S150,39.17,149.06,30.75Z"/></svg>