<svg id="Cracking_SimpleHorizontale" xmlns="http://www.w3.org/2000/svg" viewBox="0 0 300 50"><title>CP_CrackingSimpleHorizontale</title><path d="M8.42,24.36l13.92-3.9,13.93-3.85,0.16,0,0.2,0,6,1.12c2,0.36,4,.78,6,1.23l11.9,2.56,23.8,5.1H83.9l46.9-8.2,0.2,0,0.2,0,62.22,14.17H193l47.37-9.2-0.37.15,7.31-5,0.3-.21,0.37,0,7.9,0.85c2.63,0.28,5.25.68,7.88,1l0.12,0,0.07,0c9.81,3.66,19.63,7.28,29.42,11-10-3.07-20-6.25-30-9.38l0.19,0c-2.64-.23-5.28-0.41-7.91-0.71l-7.89-.89,0.67-.17-7.31,5L241,25.3l-0.2,0-47.37,9.2-0.21,0-0.21,0L130.76,20.36h0.39l-46.9,8.2-0.19,0-0.19,0-23.8-5.1-11.9-2.54c-2-.4-4-0.83-5.94-1.32L36.3,18.19h0.36L22.55,21.3Z"/></svg>