<svg id="Cracking_SimpleVertical" xmlns="http://www.w3.org/2000/svg" viewBox="0 0 500 150"><title>CP_CrackingSimpleVertical</title><path d="M83-1c0.13,1.72.29,3.45,0.4,5.17l0.35,5.17,0.35,5.17a23.87,23.87,0,0,1,.06,2.58c0,0.86,0,1.72,0,2.59l0,20.68v0.2l-0.07.18-21,58.13,0.05-.54L65,111l0.91,6.31,0.93,6.31c0.25,2.11.43,4.23,0.65,6.35l0.63,6.35q0.65,6.35,1.22,12.71-1.25-6.26-2.41-12.54l-1.18-6.27c-0.39-2.09-.8-4.18-1.16-6.28l-0.88-6.32-0.91-6.31L60.95,98.66l0-.28L61,98.13,82,40l-0.07.38,0-20.68c0-.86,0-1.72,0-2.58a23.87,23.87,0,0,1,0-2.59l0.33-5.17,0.33-5.17C82.69,2.46,82.84.73,83-1Z"/><path d="M148,149a15.3,15.3,0,0,1-1-2.86c-0.26-1-.51-2-0.74-2.93-0.47-2-.89-3.93-1.31-5.9-0.84-3.94-1.64-7.89-2.42-11.84-0.4-2-.78-4-1-5.95l-0.89-6-1.77-11.94,0-.31,0.12-.29L147,82l4-9.52,2-4.76,1-2.36,1-2.4,15.36-38.42v0.8l-1.21-3.23c-0.42-1.07-.84-2.14-1.18-3.25l-2.09-6.59-2.09-6.59-2-6.61,2.79,6.33,2.74,6.35L170,18.05c0.47,1.05.86,2.14,1.24,3.22l1.2,3.24,0.15,0.4-0.16.4L157.07,63.74l-1,2.4-1,2.41-2,4.76-4,9.52-8.08,19,0.08-.59,1.76,11.93c0.31,2,.59,4,0.92,6s0.58,4,.81,6c0.47,4,1,8,1.47,12l0.82,6c0.14,1,.29,2,0.46,3A15.21,15.21,0,0,0,148,149Z"/><path d="M250.64,149l4.6-23.46,1.11-5.87c0.34-2,.78-3.9,1.19-5.83,0.1-.48.2-1,0.27-1.43l0.05-.34a2.66,2.66,0,0,0,0-.27v-0.05a0.6,0.6,0,0,1,0,.08v-0.07l0-.19a2.46,2.46,0,0,0-.06-0.3l-0.15-.64-0.17-.71-0.37-1.43-1.57-5.75c-4.31-15.32-8.82-30.6-13.34-45.88l-0.16-.53,0.33-.45,19.1-25.76,4.77-6.44,2.38-3.23a39.14,39.14,0,0,1,2.49-3.15C274.58,13.23,278,9.1,281.48,5c-2.86,4.53-5.83,9-8.74,13.47a39.16,39.16,0,0,1-2.29,3.29L268.06,25l-4.77,6.44-19.1,25.76,0.17-1c4.52,15.28,9,30.56,13.35,45.91l1.58,5.78,0.38,1.46,0.18,0.74,0.09,0.37L260,111c0,0.14.07,0.32,0.08,0.43l0,0.19v0.07s0,0.21,0,.13v0.13a4.42,4.42,0,0,1-.05.47l-0.06.4-0.27,1.5c-0.37,2-.78,3.93-1.3,5.86l-1.51,5.79-3.09,11.55C252.81,141.34,251.72,145.17,250.64,149Z"/><path d="M410.3-.1q-3.45,5.54-7,11l-3.52,5.5c-1.18,1.82-2.32,3.68-3.54,5.48s-2.53,3.53-3.77,5.32l-3.74,5.34-7.49,10.67-0.21.31-0.36.11L339.49,56.88l0.75-.82-10.48,47.1-0.08-.71,12,25.75c0.51,1.07,1,2.13,1.49,3.22l1.36,3.28,2.72,6.57q2.73,6.56,5.4,13.15-3.34-6.28-6.58-12.6l-3.27-6.31-1.63-3.16c-0.54-1.05-1-2.14-1.51-3.21l-12-25.76L327.5,103l0.08-.37,10.48-47.1L338.2,55l0.61-.2L380,41.52l-0.57.42,7.49-10.67,3.74-5.34c1.26-1.77,2.49-3.56,3.72-5.35s2.64-3.46,3.95-5.19l4-5.17Q406.27,5,410.3-.1Z"/><path d="M454,146.34a15.8,15.8,0,0,0,.47-3l0.25-3c0.16-2,.29-4,0.41-6l0.32-6c0.12-2,.14-4,0.38-6s0.38-4,.56-6l0.52-6,1-12,0-.18,0.07-.16L470.69,67.9l-0.08.54-3.2-34.66-0.8-8.67-0.41-4.33c-0.19-1.44-.24-2.89-0.28-4.34-0.2-5.81-.47-11.61-0.6-17.42,0.94,5.74,1.74,11.49,2.6,17.24,0.22,1.44.44,2.87,0.52,4.32l0.39,4.33,0.8,8.67,3.2,34.66,0,0.28-0.11.26L460,98.94l0.08-.35-1,12-1,12c-0.13,2-.49,4-0.77,6l-0.91,6c-0.31,2-.64,4-1,6-0.18,1-.38,2-0.59,3A15.92,15.92,0,0,1,454,146.34Z"/><polygon points="338.91 57.12 316.69 41.11 340.14 55.26 338.91 57.12"/></svg>