<svg id="Cracking_Simple_Oblique" data-name="Cracking Simple Oblique" xmlns="http://www.w3.org/2000/svg" viewBox="0 0 500 50"><title>CP_CrackingSimpleOblique</title><path d="M169.14,1.91c-1.58.52-3.15,1.07-4.73,1.56L159.68,5l-4.74,1.51a22,22,0,0,1-2.4.64c-0.81.18-1.61,0.38-2.42,0.57l-19.29,4.71-0.09,0h-0.09l-80.1,6.51,0.29-.06-9.56,3.45L36.5,24.06l-2.39.86-2.38.88c-1.61.52-3.25,1-4.87,1.48L22,28.76q-4.87,1.48-9.77,2.89,4.66-2,9.36-4l4.69-2c1.57-.65,3.12-1.34,4.69-2l2.4-.84L35.75,22l4.78-1.73,9.56-3.45,0.14-.05h0.15l80.1-6.51-0.17,0,19.29-4.71c0.8-.2,1.61-0.39,2.41-0.6a22,22,0,0,1,2.42-.54l4.9-.85,4.9-.85C165.86,2.41,167.51,2.18,169.14,1.91Z"/><path d="M104.06,39.34c0.86-.47,1.79-0.81,2.69-1.19l2.73-1.09c1.83-.72,3.66-1.4,5.5-2.1l11-4.11c1.84-.69,3.68-1.37,5.55-1.92s3.73-1.19,5.6-1.79l11.19-3.59,0.09,0h0.09L201,15.79l52.49-8-0.28.08,2.54-1.13c0.84-.39,1.68-0.78,2.55-1.09l5.22-1.93,5.22-1.93L274,0,269.1,2.56l-4.94,2.56-4.94,2.56c-0.82.44-1.67,0.8-2.53,1.15L254.15,10,254,10l-0.15,0-52.49,8-52.54,7.72,0.18,0-11.18,3.59c-1.86.61-3.73,1.19-5.58,1.82s-3.73,1.18-5.62,1.7L115.31,36l-5.65,1.63-2.82.82C105.91,38.71,105,39,104.06,39.34Z"/><path d="M353.79,37.26l-7.34-3.69-3.65-1.86c-1.21-.63-2.47-1.18-3.6-1.89-0.29-.18-0.58-0.33-0.86-0.49s-0.23-.11-0.34-0.17l0,0,0,0h0l-0.12,0L337.58,29c-0.66-.16-1.28-0.28-1.92-0.42l-4-.82-8-1.61-32.15-6.33-1-.19,0.06-1,0.26-4.18c0-.7.1-1.39,0.12-2.09a11.81,11.81,0,0,1,.26-2.08c0.47-2.77,1-5.54,1.52-8.31,0.21,2.81.35,5.62,0.47,8.43a11.81,11.81,0,0,1,0,2.1c-0.07.7-.09,1.39-0.14,2.09l-0.26,4.18-0.9-1.16L324.06,24l8,1.61,4,0.82c0.69,0.15,1.41.3,2.08,0.46L338.44,27l0.12,0h0l0.08,0,0.08,0c0.2,0.09.44,0.2,0.58,0.27l0.94,0.49a32.32,32.32,0,0,1,3.48,2.23l3.37,2.35Q350.49,34.8,353.79,37.26Z"/><path d="M389,38.66c1.54-.34,3-0.83,4.53-1.26L398.08,36l4.51-1.34c1.51-.43,3-1,4.53-1.26s3-.72,4.57-1.07l4.57-1.1L425.39,29l0.07,0h0.06l30.56-3.73-0.23.05L477.06,18l5.3-1.84c0.88-.31,1.77-0.6,2.65-0.93a19.57,19.57,0,0,1,2.69-.81c3.63-.94,7.27-1.87,10.93-2.72-3.4,1.6-6.83,3.12-10.27,4.63a19.57,19.57,0,0,1-2.61,1c-0.89.29-1.77,0.61-2.65,0.91l-5.3,1.84-21.2,7.35-0.11,0h-0.12l-30.56,3.73,0.13,0-9.14,2.22-4.57,1.1c-1.52.37-3.05,0.72-4.57,1.11s-3.08.62-4.62,0.9l-4.65.8-4.66.73C392.17,38.3,390.6,38.55,389,38.66Z"/><path d="M378.92,41.24a1.84,1.84,0,0,0,.43-0.72c0.11-.26.18-0.53,0.27-0.8,0.17-.54.3-1.09,0.43-1.64s0.26-1.1.38-1.65a8.15,8.15,0,0,1,.43-1.63c0.23-.51.4-1,0.59-1.58l0.55-1.6c0.36-1.06.72-2.14,1-3.21l0.13-.41,0.36-.22,13.21-7.88-0.47,1.34-3.32-9L392.13,10c-0.14-.38-0.27-0.76-0.42-1.13a3.48,3.48,0,0,1-.31-1.17c-0.27-1.61-.53-3.23-0.71-4.87,0.92,1.37,1.78,2.77,2.61,4.17a3.48,3.48,0,0,1,.52,1.09c0.13,0.38.27,0.76,0.41,1.13L395,11.45l3.32,9,0.32,0.87-0.79.47-13.21,7.88,0.49-.63c-0.35,1.1-.7,2.18-1.07,3.26L383.55,34c-0.18.54-.4,1.07-0.57,1.62a7.1,7.1,0,0,1-.79,1.54c-0.3.5-.6,1-0.92,1.49s-0.67,1-1,1.43a7.5,7.5,0,0,1-.6.67A2,2,0,0,1,378.92,41.24Z"/></svg>