<svg id="Cracking_Simple_Oblique" data-name="Cracking Simple Oblique" xmlns="http://www.w3.org/2000/svg" viewBox="0 0 650 100"><title>CP_CrackingSimpleOblique</title><path d="M160.8,6.06c-1.54,1.06-3.07,2.15-4.62,3.2l-4.65,3.15-4.65,3.15c-0.77.54-1.57,1-2.38,1.47l-2.42,1.41L122.79,29.85l-0.16.1-0.19,0L42.34,45.77l0.52-.25-9.56,8.37-4.78,4.18-4.77,4.2c-1.63,1.35-3.3,2.66-5,4l-5,4q-5,4-10,7.92Q8.43,73.71,13,69.33l4.6-4.39c1.54-1.46,3.05-2.94,4.61-4.38L27,56.39l4.78-4.18,9.56-8.37,0.22-.2,0.29-.06L122,27.8l-0.35.13,19.29-11.42,2.4-1.44c0.79-.5,1.6-1,2.44-1.38l5-2.56,5-2.56C157.44,7.71,159.12,6.9,160.8,6.06Z"/><path d="M95.71,96.82a24.11,24.11,0,0,1,2.51-2.55l2.65-2.41c1.78-1.59,3.59-3.14,5.4-4.7l10.9-9.27c1.82-1.54,3.64-3.08,5.55-4.51L128.36,69l11.29-8.78,0.14-.11,0.17-.06,26.31-9.35L179.42,46,186,43.69c2.2-.77,4.36-1.57,6.55-2.38L245,22l-0.43.28,2.54-2.72c0.83-.92,1.67-1.84,2.56-2.7L255,11.7l5.33-5.2,5.37-5.17L260.88,7l-4.83,5.68-4.83,5.68c-0.8,1-1.66,1.85-2.52,2.74l-2.55,2.72L246,24l-0.25.09L193.32,43.41c-2.17.8-4.38,1.61-6.57,2.38l-6.58,2.34L167,52.8,140.7,62.15,141,62l-11.28,8.77c-1.87,1.47-3.76,2.92-5.62,4.41s-3.77,2.92-5.69,4.32L106.94,88l-5.7,4.31-2.83,2.18A24,24,0,0,0,95.71,96.82Z"/><path d="M345.44,91.78L333.51,76c-1-1.3-2-2.59-2.94-3.93l-0.71-1-0.36-.46a0.7,0.7,0,0,1-.2-0.25,3.74,3.74,0,0,0-.46-0.27l-0.49-.26-1.08-.56c-2.91-1.48-5.87-2.92-8.83-4.36q-17.75-8.6-35.59-17l-0.66-.31,0-.72,0.52-20.29c0-1.69.1-3.38,0.12-5.07A19.31,19.31,0,0,1,283,19l0.25-2.53c0.33-3.38.71-6.75,1.12-10.12,0.23,3.39.44,6.78,0.59,10.17l0.12,2.54a19.32,19.32,0,0,1,0,2.54C285,23.3,285,25,285,26.68L284.45,47l-0.64-1q17.83,8.46,35.61,17c3,1.44,5.92,2.88,8.87,4.38l1.11,0.58a13.41,13.41,0,0,1,1.19.69,4.25,4.25,0,0,1,.63.66l0.4,0.51,0.76,1c1,1.31,1.89,2.72,2.77,4.11Q340.45,83.26,345.44,91.78Z"/><path d="M380.69,95.16A18.38,18.38,0,0,0,383,93.93l2.24-1.37c1.49-.92,3-1.86,4.45-2.81l4.43-2.83c1.48-.93,2.92-1.95,4.46-2.78s3-1.75,4.55-2.62l4.54-2.65,9.05-5.34,0.12-.07,0.13,0,30.56-9-0.4.22,21.2-17.83,5.3-4.46,2.64-2.24A29.79,29.79,0,0,1,479,37.91c3.73-2.74,7.46-5.47,11.25-8.14-3.28,3.27-6.61,6.49-10,9.69a29.79,29.79,0,0,1-2.58,2.31L475.1,44l-5.3,4.46-21.2,17.83-0.18.15-0.22.07-30.56,9,0.25-.11L399.73,86.11c-1.49.92-3.1,1.66-4.66,2.46l-4.72,2.35c-1.58.77-3.17,1.53-4.77,2.26-0.8.37-1.61,0.72-2.42,1.07A18.54,18.54,0,0,1,380.69,95.16Z"/><path d="M549.32,11.11q5.56,3.76,11.08,7.59l5.5,3.84c0.92,0.64,1.84,1.27,2.74,1.94l2.64,2.06,21.28,16.32,1.33,1,0.66,0.51,0.17,0.13,0,0h0l0,0,0.09,0.06,0.35,0.24L598,46.74l5.54,3.78,11.08,7.56L636.71,73.2l0.46,0.31,0,0.56,0.16,3.47,0.08,1.73c0,0.29,0,.58.05,0.87a3.82,3.82,0,0,1,0,.87c-0.23,2.33-.45,4.65-0.78,7-0.54-2.29-1-4.59-1.41-6.88a3.82,3.82,0,0,1-.07-0.87c0-.29,0-0.58,0-0.87l-0.08-1.73L635,74.17,635.46,75,613.31,59.92l-11.08-7.56-5.54-3.78-2.77-1.89-0.35-.24-0.22-.15-0.17-.13-0.66-.51-1.33-1L569.92,28.32l-2.68-2c-0.88-.69-1.73-1.42-2.58-2.14l-5.14-4.32Q554.4,15.5,549.32,11.11Z"/><path d="M549.32,96.34a7.21,7.21,0,0,1-.91-1.8c-0.25-.63-0.47-1.26-0.7-1.9-0.44-1.27-.84-2.56-1.23-3.84-0.79-2.57-1.5-5.16-2.22-7.75a38.77,38.77,0,0,1-.94-3.91l-0.8-3.94L541,65.31l0.35,0.61L513.71,41l-13.8-12.48-3.45-3.12a32.66,32.66,0,0,1-3.3-3.29q-3.19-3.4-6.3-6.9,3.78,2.75,7.49,5.58a32.66,32.66,0,0,1,3.6,3l3.45,3.12,13.8,12.48,27.59,25,0.27,0.25,0.07,0.37,1.57,7.86c0.27,1.31.52,2.62,0.82,3.92s0.52,2.62.72,3.95l1.3,7.92q0.34,2,.72,3.95c0.13,0.66.26,1.31,0.41,2A7.11,7.11,0,0,0,549.32,96.34Z"/><path d="M370.57,101.43a6.58,6.58,0,0,0,.49-1.84c0.1-.63.18-1.27,0.26-1.9,0.16-1.27.29-2.54,0.42-3.82L372.1,90c0.13-1.27.17-2.56,0.41-3.82s0.39-2.53.58-3.79l0.54-3.8,1-7.61,0-.27,0.15-.22,13.21-19.1-0.19.8-3.32-21.94-0.83-5.48c-0.14-.91-0.27-1.83-0.43-2.74a19.13,19.13,0,0,1-.3-2.76c-0.26-3.7-.5-7.41-0.66-11.12,0.94,3.6,1.81,7.21,2.66,10.82a19.13,19.13,0,0,1,.53,2.73c0.12,0.92.27,1.83,0.41,2.74l0.83,5.48,3.32,21.94,0.07,0.44-0.25.36-13.21,19.1,0.19-.49-1,7.64-0.54,3.81c-0.18,1.27-.39,2.54-0.55,3.82a35.37,35.37,0,0,1-.78,3.78l-0.92,3.76c-0.33,1.25-.67,2.5-1,3.73q-0.28.93-.61,1.84A6.71,6.71,0,0,1,370.57,101.43Z"/></svg>