<svg id="Cracking_SimpleVertical" xmlns="http://www.w3.org/2000/svg" viewBox="0 0 300 50"><title>CP_CrackingSimpleVertical</title><path d="M65.11,0q0.56,1.51,1.06,3l1,3.05L68,12.34l1.8,12.5,1.8,12.5,0.9,6.25c0,2.13-.06,4.26-0.2,6.41h0c-0.74-2-1.37-4.06-2-6.09l-0.9-6.25-1.8-12.5-1.8-12.5L64.89,6.41,65,3.21Q65,1.61,65.11,0Z"/><path d="M144,0c-0.18.89-.36,1.78-0.56,2.65l0-.28c0.26,0.76.5,1.52,0.74,2.28l0.36,1.14A5.75,5.75,0,0,1,144.73,7l0.7,4.68,1.4,9.36-1.1-.94h1L146.84,21q1.11,7.24,2.3,14.46c0.4,2.4.81,4.81,1.26,7.2a6.18,6.18,0,0,1,.17.9l0,0.92,0.07,1.84c0,0.61,0,1.23.08,1.84A9.55,9.55,0,0,0,151,50h0a8.84,8.84,0,0,1-.9-1.66c-0.25-.57-0.49-1.15-0.72-1.73l-0.65-1.75L148.37,44a6,6,0,0,1-.16-0.91c-0.44-2.41-.86-4.82-1.26-7.24q-1.21-7.24-2.31-14.49l1.1,0.94h-1l-0.14-.94L143.23,12l-0.7-4.68a5.76,5.76,0,0,1-.16-1.17V4.92c0-.8,0-1.6,0-2.4V2.29l0,0C142.94,1.49,143.45.75,144,0Z"/><path d="M258.66,0c0.5,1,1,1.94,1.45,2.93s0.91,2,1.35,3L262.29,9c0.27,1.06.54,2.05,0.77,3.21l0,0.26,0,0.19a1,1,0,0,1,0,.14v0.05c0,0.1,0,.4-0.05.5l-0.14.84-0.31,1.6L262,19l-0.71,3.15-0.73,3.13-2.9,12.51L256.16,44c-0.81,2-1.62,4-2.54,6h0c0-2.19.21-4.34,0.37-6.51l1.45-6.26,2.9-12.51,0.73-3.13,0.7-3.12,0.66-3.13,0.3-1.55a3.94,3.94,0,0,0,.13-1.2c-0.18-.94-0.47-2-0.73-3s-0.56-2.06-.84-3.09C259.05,4.34,258.78,2.19,258.66,0Z"/><path d="M193.9,49.5c0.5-1.8,1.05-3.56,1.64-5.32a11.8,11.8,0,0,1,.47-1.3c0.22-.4.45-0.8,0.65-1.21l1.25-2.44,5-9.75-0.09.76L199.4,15.5l-1.71-7.37a8.34,8.34,0,0,1-.23-0.92l-0.07-1-0.14-1.91c-0.08-1.28-.15-2.56-0.19-3.84,0.53,1.17,1,2.35,1.52,3.53l0.71,1.78,0.35,0.89a8.34,8.34,0,0,1,.2.92L201.57,15,205,29.75l0.09,0.4-0.19.36-5,9.75-1.25,2.44c-0.22.4-.41,0.82-0.6,1.23a11.79,11.79,0,0,1-.78,1.14C196.18,46.56,195.07,48,193.9,49.5Z"/></svg>