<svg id="Cracking_Simple_Oblique" data-name="Cracking Simple Oblique" xmlns="http://www.w3.org/2000/svg" viewBox="0 0 500 150"><title>CP_CrackingSimpleOblique</title><path d="M170.68-.79L166.24,4l-4.48,4.76-4.48,4.76c-0.74.8-1.52,1.56-2.32,2.29l-2.37,2.24-18.86,18-0.19.18-0.25.08L55,61.29l0.57-.42L46.21,74.09,36.88,87.33c-1.6,2.17-3.26,4.31-4.89,6.46l-4.9,6.45q-4.89,6.46-9.84,12.88,4.39-6.81,8.86-13.57l4.45-6.77c1.49-2.25,3-4.52,4.46-6.76L44.39,72.8l9.35-13.22L54,59.28l0.36-.11,78.31-24.93-0.43.26,18.86-18,2.35-2.27c0.77-.77,1.56-1.52,2.39-2.22l4.95-4.26,4.95-4.26Z"/><path d="M107,142.6a32.11,32.11,0,0,1,2.33-3.8l2.53-3.68c1.71-2.44,3.46-4.84,5.21-7.25l10.59-14.37c1.77-2.39,3.55-4.78,5.43-7.08l5.55-7,11.11-14,0.13-.16,0.18-.11L175.9,70.4l12.9-7.4,6.45-3.7c2.16-1.22,4.26-2.48,6.4-3.75l51.13-30.39-0.39.4,2.48-4.3c0.81-1.44,1.62-2.88,2.51-4.28l5.27-8.42,5.27-8.42,5.31-8.4-4.63,8.79-4.67,8.77-4.67,8.77c-0.77,1.47-1.61,2.89-2.46,4.31l-2.49,4.29-0.15.25-0.25.15L202.78,57.46c-2.12,1.26-4.27,2.55-6.43,3.77l-6.45,3.7L177,72.34,151.22,87.14l0.31-.27-11.1,14c-1.84,2.33-3.7,4.65-5.52,7s-3.7,4.65-5.61,6.93L118,128.53l-5.6,6.94-2.76,3.5A32,32,0,0,0,107,142.6Z"/><path d="M351.19,134.64l-10.11-21.83-2.56-5.44c-0.88-1.8-1.66-3.64-2.47-5.45-0.2-.45-0.41-0.9-0.63-1.32-0.09-.19-0.26-0.47-0.22-0.42a4.4,4.4,0,0,0-.47-0.45c-0.67-.58-1.48-1.26-2.24-1.87l-4.68-3.75c-12.58-9.91-25.3-19.67-38-29.42l-0.45-.34V63.79l0.51-32.06,0.13-8c0-1.34.05-2.67,0.05-4a39.93,39.93,0,0,1,.19-4c0.41-5.34.77-10.68,1.25-16,0.32,5.35.5,10.7,0.74,16a39.93,39.93,0,0,1,.06,4c0,1.34,0,2.67-.08,4l-0.13,8-0.51,32.06-0.44-.9c12.72,9.76,25.44,19.51,38,29.44l4.71,3.77c0.79,0.65,1.53,1.25,2.37,2a8.46,8.46,0,0,1,.61.59,5.06,5.06,0,0,1,.53.87l0.68,1.39c0.87,1.83,1.69,3.66,2.41,5.54l2.19,5.61L347,123.36C348.43,127.11,349.81,130.88,351.19,134.64Z"/><path d="M385.65,140a16,16,0,0,0,2.34-1.91l2.19-2.09q2.19-2.1,4.33-4.24l4.27-4.31c1.43-1.43,2.79-2.93,4.3-4.27s3-2.75,4.43-4.13l4.4-4.16,8.77-8.36,0.13-.13,0.16-.08L450.86,92l-0.42.34,20.73-28.18,5.18-7,2.58-3.53c0.82-1.21,1.75-2.33,2.69-3.45,3.72-4.5,7.39-9,11.18-13.49-3.13,4.94-6.37,9.79-9.55,14.68-0.79,1.23-1.59,2.45-2.5,3.59l-2.6,3.52-5.18,7L452.24,93.68l-0.17.22-0.25.12-29.88,14.29,0.29-.2-8.78,8.38-8.82,8.33c-1.44,1.42-3,2.67-4.58,4l-4.68,3.88c-1.57,1.29-3.14,2.56-4.73,3.82-0.8.63-1.61,1.23-2.43,1.83A16.11,16.11,0,0,1,385.65,140Z"/><path d="M375.76,149.89a15.6,15.6,0,0,0,.48-3l0.25-3c0.16-2,.3-4,0.42-6l0.33-6c0.12-2,.14-4,0.38-6s0.38-4,.57-6l0.53-6,1-12,0-.18,0.07-.17,12.91-30.17-0.08.54L389.4,37.32l-0.81-8.67-0.42-4.33c-0.19-1.44-.24-2.89-0.29-4.34-0.21-5.81-.48-11.61-0.62-17.42C388.2,8.29,389,14,389.89,19.79c0.22,1.44.44,2.87,0.52,4.32l0.4,4.33,0.81,8.67,3.25,34.66,0,0.28-0.11.26-12.91,30.17,0.09-.35-1,12-1.06,12c-0.14,2-.5,4-0.78,6l-0.92,6c-0.32,2-.64,4-1,6-0.18,1-.38,2-0.6,3A15.73,15.73,0,0,1,375.76,149.89Z"/></svg>