<svg id="Cracking_SimpleVertical" xmlns="http://www.w3.org/2000/svg" viewBox="0 0 300 150"><title>CP_CrackingSimpleVertical</title><path d="M88-3c0.13,1.72.29,3.45,0.4,5.17l0.35,5.17,0.35,5.17a23.85,23.85,0,0,1,.06,2.58c0,0.86,0,1.72,0,2.59l0,20.68v0.2l-0.07.18-21,58.13,0.05-.54L70,109l0.91,6.31,0.93,6.31c0.25,2.11.43,4.23,0.65,6.35l0.63,6.35q0.65,6.35,1.22,12.71-1.25-6.26-2.41-12.54L70.7,128.2c-0.39-2.09-.8-4.18-1.16-6.28l-0.88-6.32-0.91-6.31L65.93,96.66l0-.28L66,96.13,87,38l-0.07.38,0-20.68c0-.86,0-1.72,0-2.58a23.85,23.85,0,0,1,0-2.59l0.33-5.17,0.33-5.17C87.68,0.46,87.83-1.26,88-3Z"/><path d="M153,147a15.29,15.29,0,0,1-1-2.86c-0.26-1-.51-2-0.74-2.93-0.47-2-.89-3.93-1.31-5.9-0.84-3.94-1.64-7.89-2.42-11.84-0.4-2-.78-4-1-5.95l-0.89-6-1.77-11.94,0-.31L143.9,99,152,80l4-9.52,2-4.76,1-2.36,1-2.4,15.36-38.42v0.8l-1.21-3.23c-0.42-1.07-.84-2.14-1.18-3.25l-2.09-6.59-2.09-6.59-2-6.61,2.79,6.33,2.74,6.35L175,16.05c0.47,1.05.86,2.14,1.24,3.22l1.2,3.24,0.15,0.4-0.16.4L162.06,61.74l-1,2.4-1,2.41-2,4.76-4,9.52-8.08,19,0.08-.59,1.76,11.93c0.31,2,.59,4,0.92,6s0.58,4,.81,6c0.47,4,1,8,1.47,12l0.82,6c0.14,1,.29,2,0.46,3A15.2,15.2,0,0,0,153,147Z"/><path d="M255.63,147l4.6-23.46,1.11-5.87c0.34-2,.78-3.9,1.19-5.83,0.1-.48.2-1,0.27-1.43l0.05-.34a2.67,2.67,0,0,0,0-.27v-0.05a0.61,0.61,0,0,1,0,.08v-0.07l0-.19a2.44,2.44,0,0,0-.06-0.3l-0.15-.64-0.17-.71-0.37-1.43-1.57-5.75c-4.31-15.32-8.82-30.6-13.34-45.88l-0.16-.53,0.33-.45,19.1-25.76,4.77-6.44,2.38-3.23a39.14,39.14,0,0,1,2.49-3.15c3.45-4.1,6.85-8.23,10.35-12.28-2.86,4.53-5.83,9-8.74,13.47a39.14,39.14,0,0,1-2.29,3.29L273,23l-4.77,6.44-19.1,25.76,0.17-1c4.52,15.28,9,30.56,13.35,45.91l1.58,5.78,0.38,1.46,0.18,0.74,0.09,0.37L265,109c0,0.14.07,0.32,0.08,0.43l0,0.19v0.07s0,0.21,0,.13v0.13a4.47,4.47,0,0,1-.05.47l-0.06.4-0.27,1.5c-0.37,2-.78,3.93-1.3,5.86l-1.51,5.79-3.09,11.55C257.8,139.34,256.71,143.17,255.63,147Z"/></svg>