<svg id="Cracking_SimpleVertical" xmlns="http://www.w3.org/2000/svg" viewBox="0 0 300 100"><title>CP_CrackingSimpleVertical</title><path d="M60.35,100.51l-0.52-2.13v0l0-.07q1-3.76,2-7.49c0.36-1.24.66-2.5,1.06-3.72s0.9-2.41,1.34-3.62L69.47,68.9,80,39.83l-0.07.38,0-20.68V14.36c0-.86-0.07-1.72,0-2.59l0.2-2.59Q80.45,4,81-1.15c0.33,3.45.64,6.89,0.9,10.34l0.2,2.58c0.08,0.86,0,1.72,0,2.58v5.17l0,20.68v0.2l-0.07.18L71.57,69.65,66.32,84.19c-0.44,1.21-.88,2.42-1.28,3.64s-1,2.36-1.56,3.54q-1.58,3.54-3.24,7v-0.1Z"/><path d="M138.26,100.51c1-3.27,2.09-6.53,3.2-9.77a47.64,47.64,0,0,1,1.77-4.81l2-4.71,4-9.43,2-4.71,0.5-1.18,0.47-1.16,1-2.38,15.19-38v0.8l-2.42-6.47-1.21-3.24L164.1,13.8c-0.21-.54-0.44-1.06-0.6-1.62-1.3-4.43-2.59-8.87-3.79-13.34,2,4.16,4,8.36,5.89,12.55,0.24,0.53.41,1.08,0.61,1.62l0.6,1.62L168,17.87l2.42,6.47,0.15,0.4-0.16.4-15.19,38-1,2.38-0.49,1.21-0.5,1.18-2,4.71-4,9.43-2,4.72a47.67,47.67,0,0,1-2.23,4.61C141.5,94.47,139.89,97.49,138.26,100.51Z"/><path d="M279.48,4.89q-2.07,3.45-4.21,6.86l-2.15,3.4c-0.36.56-.71,1.14-1.09,1.69s-0.81,1.06-1.21,1.6L261.27,31.3l-19.1,25.75,0.17-1,6.43,22.06,1.61,5.52c0.26,0.92.55,1.83,0.83,2.75s0.41,1.87.62,2.81c0.8,3.75,1.59,7.51,2.3,11.29Q252,95.13,250,89.74c-0.33-.9-0.69-1.79-1-2.7s-0.5-1.85-.78-2.76l-1.61-5.51-6.43-22-0.16-.54,0.33-.44L259.48,30,269,17.1c0.4-.54.76-1.1,1.18-1.62s0.87-1,1.3-1.53l2.63-3Q276.78,7.88,279.48,4.89Z"/></svg>