<svg id="Cracking_Simple_Oblique" data-name="Cracking Simple Oblique" xmlns="http://www.w3.org/2000/svg" viewBox="0 0 300 50"><title>CP_CrackingSimpleOblique</title><path d="M157.93,4c-1.58.52-3.15,1.07-4.73,1.56l-4.74,1.51-4.74,1.51a22,22,0,0,1-2.4.64c-0.81.18-1.61,0.38-2.42,0.57l-19.29,4.71-0.09,0h-0.09L39.34,21,39.63,21l-9.56,3.45-4.78,1.73L22.89,27l-2.38.88c-1.61.52-3.25,1-4.87,1.48l-4.87,1.47Q5.9,32.33,1,33.74q4.66-2,9.36-4l4.69-2c1.57-.65,3.12-1.34,4.69-2l2.4-.84,2.39-.86,4.78-1.73,9.56-3.45L39,18.83h0.15l80.1-6.51-0.17,0,19.29-4.71c0.8-.2,1.61-0.39,2.41-0.6a22,22,0,0,1,2.42-.54l4.9-.85L153,4.8C154.64,4.51,156.29,4.27,157.93,4Z"/><path d="M80.47,41.7c0.86-.47,1.79-0.81,2.69-1.19l2.73-1.09c1.83-.72,3.66-1.4,5.5-2.1l11-4.11c1.84-.69,3.68-1.37,5.55-1.92s3.73-1.19,5.6-1.79l11.19-3.59,0.09,0h0.09l52.53-7.71,52.49-8-0.28.08,2.54-1.13c0.84-.39,1.68-0.78,2.55-1.09L240,6.13,245.2,4.2l5.24-1.88-4.92,2.61-4.94,2.56L235.63,10c-0.82.44-1.67,0.8-2.53,1.15l-2.54,1.12-0.14.06-0.15,0-52.49,8-52.54,7.72,0.18,0-11.18,3.59c-1.86.61-3.73,1.19-5.58,1.82s-3.73,1.18-5.62,1.7l-11.31,3.2L86.08,40l-2.82.82C82.33,41.08,81.37,41.32,80.47,41.7Z"/><path d="M296,51.35l-7.34-3.69-3.65-1.86c-1.21-.63-2.47-1.18-3.6-1.89-0.29-.18-0.58-0.33-0.86-0.49s-0.23-.11-0.34-0.17l0,0,0,0h0l-0.12,0-0.25-.06c-0.66-.16-1.28-0.28-1.92-0.42l-4-.82-8-1.61L233.73,34l-1-.19,0.06-1,0.26-4.18c0-.7.1-1.39,0.12-2.09a11.81,11.81,0,0,1,.26-2.08c0.47-2.77,1-5.54,1.52-8.31,0.21,2.81.35,5.62,0.47,8.43a11.81,11.81,0,0,1,0,2.1c-0.07.7-.09,1.39-0.14,2.09l-0.26,4.18-0.9-1.16,32.16,6.33,8,1.61,4,0.82c0.69,0.15,1.41.3,2.08,0.46l0.25,0.06,0.12,0h0l0.08,0,0.08,0c0.2,0.09.44,0.2,0.58,0.27l0.94,0.49A32.32,32.32,0,0,1,286,44.16l3.37,2.35Q292.75,48.89,296,51.35Z"/></svg>