<svg id="Cracking_Simple_Oblique" data-name="Cracking Simple Oblique" xmlns="http://www.w3.org/2000/svg" viewBox="0 0 500 100"><title>CP_CrackingSimpleOblique</title><path d="M162.14,1.3c-1.54,1.06-3.07,2.15-4.62,3.2l-4.65,3.15-4.65,3.15c-0.77.54-1.57,1-2.38,1.47l-2.42,1.41L124.13,25.1l-0.16.1-0.19,0L43.68,41l0.52-.25-9.56,8.37-4.78,4.18-4.77,4.2c-1.63,1.35-3.3,2.66-5,4l-5,4q-5,4-10,7.92Q9.77,69,14.39,64.57L19,60.18c1.54-1.46,3.05-2.94,4.61-4.38l4.8-4.17,4.78-4.18,9.56-8.37,0.22-.2,0.29-.06L123.35,23l-0.35.13,19.29-11.42,2.4-1.44c0.79-.5,1.6-1,2.44-1.38l5-2.56,5-2.56C158.78,3,160.47,2.14,162.14,1.3Z"/><path d="M97.06,92.06a24.11,24.11,0,0,1,2.51-2.55l2.65-2.41c1.78-1.59,3.59-3.14,5.4-4.7l10.9-9.27c1.82-1.54,3.64-3.08,5.55-4.51l5.64-4.39L141,55.47l0.14-.11,0.17-.06,26.31-9.35,13.16-4.67,6.58-2.34c2.2-.77,4.36-1.57,6.55-2.38l52.41-19.28-0.43.28,2.54-2.72c0.83-.92,1.67-1.84,2.56-2.7l5.33-5.2,5.33-5.2L267-3.44l-4.79,5.71L257.4,8l-4.83,5.68c-0.8,1-1.66,1.85-2.52,2.74l-2.55,2.72-0.18.19-0.25.09L194.67,38.65c-2.17.8-4.38,1.61-6.57,2.38l-6.58,2.34L168.36,48,142,57.4l0.31-.17L131.07,66c-1.87,1.47-3.76,2.92-5.62,4.41s-3.77,2.92-5.69,4.32l-11.48,8.51-5.7,4.31-2.83,2.18A24,24,0,0,0,97.06,92.06Z"/><path d="M346.79,87L334.86,71.28c-1-1.3-2-2.59-2.94-3.93l-0.71-1-0.36-.46a0.7,0.7,0,0,1-.2-0.25,3.74,3.74,0,0,0-.46-0.27l-0.49-.26-1.08-.56c-2.91-1.48-5.87-2.92-8.83-4.36q-17.75-8.6-35.59-17l-0.66-.31,0-.72,0.52-20.29c0-1.69.1-3.38,0.12-5.07a19.31,19.31,0,0,1,.15-2.53l0.25-2.53c0.33-3.38.71-6.75,1.12-10.12,0.23,3.39.44,6.78,0.59,10.17l0.12,2.54a19.32,19.32,0,0,1,0,2.54c-0.07,1.69-.09,3.38-0.14,5.07L285.8,42.22l-0.64-1q17.83,8.46,35.61,17c3,1.44,5.92,2.88,8.87,4.38l1.11,0.58a13.41,13.41,0,0,1,1.19.69,4.25,4.25,0,0,1,.63.66L333,65l0.76,1c1,1.31,1.89,2.72,2.77,4.11Q341.79,78.5,346.79,87Z"/><path d="M382,90.4a18.38,18.38,0,0,0,2.32-1.23l2.24-1.37c1.49-.92,3-1.86,4.45-2.81l4.43-2.83c1.48-.93,2.92-1.95,4.46-2.78s3-1.75,4.55-2.62L409,74.11l9.05-5.34,0.12-.07,0.13,0,30.56-9-0.4.22L469.71,42l5.3-4.46,2.64-2.24a29.79,29.79,0,0,1,2.72-2.14c3.73-2.74,7.46-5.47,11.25-8.14-3.28,3.27-6.61,6.49-10,9.69A29.79,29.79,0,0,1,479.1,37l-2.66,2.22-5.3,4.46-21.2,17.83-0.18.15-0.22.07-30.56,9,0.25-.11L401.08,81.35c-1.49.92-3.1,1.66-4.66,2.46l-4.72,2.35c-1.58.77-3.17,1.53-4.77,2.26-0.8.37-1.61,0.72-2.42,1.07A18.54,18.54,0,0,1,382,90.4Z"/><path d="M371.92,96.67a6.58,6.58,0,0,0,.49-1.84c0.1-.63.18-1.27,0.26-1.9,0.16-1.27.29-2.54,0.42-3.82l0.36-3.83c0.13-1.27.17-2.56,0.41-3.82s0.39-2.53.58-3.79l0.54-3.8,1-7.61,0-.27,0.15-.22,13.21-19.1-0.19.8L385.9,25.52,385.07,20c-0.14-.91-0.27-1.83-0.43-2.74a19.13,19.13,0,0,1-.3-2.76c-0.26-3.7-.5-7.41-0.66-11.12,0.94,3.6,1.81,7.21,2.66,10.82a19.13,19.13,0,0,1,.53,2.73c0.12,0.92.27,1.83,0.41,2.74l0.83,5.48,3.32,21.94,0.07,0.44-0.25.36L378,67l0.19-.49-1,7.64L376.65,78c-0.18,1.27-.39,2.54-0.55,3.82a35.37,35.37,0,0,1-.78,3.78l-0.92,3.76c-0.33,1.25-.67,2.5-1,3.73q-0.28.93-.61,1.84A6.71,6.71,0,0,1,371.92,96.67Z"/></svg>