<svg id="Cracking_SimpleVertical" xmlns="http://www.w3.org/2000/svg" viewBox="0 0 650 150"><title>CP_CrackingSimpleVertical</title><path d="M99,0c0.13,1.72.29,3.45,0.4,5.17l0.35,5.17,0.35,5.17a23.87,23.87,0,0,1,.06,2.58c0,0.86,0,1.72,0,2.59l0,20.68v0.2l-0.07.18-21,58.13,0.05-.54L81,112l0.91,6.31,0.93,6.31c0.25,2.11.43,4.23,0.65,6.35l0.63,6.35q0.65,6.35,1.22,12.71-1.25-6.26-2.41-12.54l-1.18-6.27c-0.39-2.09-.8-4.18-1.16-6.28l-0.88-6.32-0.91-6.31L77,99.65l0-.28L77,99.12,98,41l-0.07.38,0-20.68c0-.86,0-1.72,0-2.58a23.87,23.87,0,0,1,0-2.59l0.33-5.17,0.33-5.17C98.7,3.45,98.86,1.72,99,0Z"/><path d="M164,150a15.29,15.29,0,0,1-1-2.86c-0.26-1-.51-2-0.74-2.93-0.47-2-.89-3.93-1.31-5.9-0.84-3.94-1.64-7.89-2.42-11.84-0.4-2-.78-4-1-5.95l-0.89-6-1.77-11.94,0-.31,0.12-.29L163,83l4-9.52,2-4.76,1-2.36,1-2.4,15.36-38.42v0.8L185.15,23c-0.42-1.07-.84-2.14-1.18-3.25l-2.09-6.59-2.09-6.59-2-6.61,2.79,6.33,2.74,6.35L186,19c0.47,1.05.86,2.14,1.24,3.22l1.2,3.24,0.15,0.4-0.16.4L173.08,64.73l-1,2.4-1,2.41-2,4.76-4,9.52-8.08,19,0.08-.59,1.76,11.93c0.31,2,.59,4,0.92,6s0.58,4,.81,6c0.47,4,1,8,1.47,12l0.82,6c0.14,1,.29,2,0.46,3A15.2,15.2,0,0,0,164,150Z"/><path d="M266.65,150l4.6-23.46,1.11-5.87c0.34-2,.78-3.9,1.19-5.83,0.1-.48.2-1,0.27-1.43l0.05-.34a2.66,2.66,0,0,0,0-.27v-0.05a0.6,0.6,0,0,1,0,.08v-0.07l0-.19a2.44,2.44,0,0,0-.06-0.3l-0.15-.64-0.17-.71-0.37-1.43-1.57-5.75c-4.31-15.32-8.82-30.6-13.34-45.88l-0.16-.53,0.33-.45,19.1-25.76,4.77-6.44,2.38-3.23a39.14,39.14,0,0,1,2.49-3.15C290.59,14.22,294,10.09,297.5,6c-2.86,4.53-5.83,9-8.74,13.47a39.14,39.14,0,0,1-2.29,3.29L284.07,26l-4.77,6.44L260.2,58.21l0.17-1c4.52,15.28,9,30.56,13.35,45.91l1.58,5.78,0.38,1.46,0.18,0.74,0.09,0.37,0.09,0.45c0,0.14.07,0.32,0.08,0.43l0,0.19v0.07s0,0.21,0,.13v0.13a4.44,4.44,0,0,1-.05.47l-0.06.4-0.27,1.5c-0.37,2-.78,3.93-1.3,5.86l-1.51,5.79-3.09,11.55C268.82,142.33,267.73,146.16,266.65,150Z"/><path d="M470,147.33a15.8,15.8,0,0,0,.47-3l0.25-3c0.16-2,.29-4,0.41-6l0.32-6c0.12-2,.14-4,0.38-6s0.38-4,.56-6l0.52-6,1-12V99.22l0.07-.16L486.7,68.89l-0.08.54-3.2-34.66-0.8-8.67-0.41-4.33c-0.19-1.44-.24-2.89-0.28-4.34-0.2-5.81-.47-11.61-0.6-17.42,0.94,5.74,1.74,11.49,2.6,17.24,0.22,1.44.44,2.87,0.52,4.32l0.39,4.33,0.8,8.67,3.2,34.66,0,0.28-0.11.26L476,99.93l0.08-.35-1,12-1,12c-0.13,2-.49,4-0.77,6l-0.91,6c-0.31,2-.64,4-1,6-0.18,1-.38,2-0.59,3A15.93,15.93,0,0,1,470,147.33Z"/><path d="M567,0c1.19,5.3,2.32,10.6,3.44,15.91l1.69,8c0.28,1.33.58,2.65,0.83,4l0.67,4,5.52,32,0.69,4,0.9,3.9,1.84,7.92,3.68,15.84,7.35,31.68,0.09,0.4-0.19.36-2.5,4.87-1.25,2.44c-0.21.41-.42,0.81-0.61,1.23a9.32,9.32,0,0,1-.66,1.2c-2,3.08-3.91,6.2-6,9.25,1.27-3.45,2.69-6.83,4-10.25a9.31,9.31,0,0,1,.59-1.23c0.22-.4.43-0.8,0.64-1.21l1.25-2.44,2.5-4.87-0.09.76-7.35-31.68-3.68-15.84-1.84-7.92-0.92-4-0.69-4-5.52-32-0.71-4c-0.21-1.34-.37-2.69-0.55-4l-1.07-8.07C568.35,10.76,567.64,5.39,567,0Z"/><path d="M514.49,151.5a16.76,16.76,0,0,1,.73-3c0.31-1,.63-2,1-3,0.66-2,1.36-3.94,2.07-5.9,1.4-3.92,2.89-7.81,4.37-11.7,0.74-1.95,1.47-3.89,2.34-5.79l2.47-5.73,5-11.45-0.09.52-3-47.46-1.5-23.73-0.37-5.93a53.26,53.26,0,0,1-.15-5.95q0-6,.14-11.92,0.87,5.9,1.63,11.81a53.26,53.26,0,0,1,.6,5.92L530,34.12l1.5,23.73,3,47.46,0,0.27-0.11.25-5,11.43c-0.82,1.91-1.65,3.81-2.45,5.73s-1.66,3.81-2.54,5.69L519.26,140l-2.54,5.69c-0.42,1-.83,1.9-1.22,2.87A16.68,16.68,0,0,0,514.49,151.5Z"/><path d="M379.16,154.64a15.8,15.8,0,0,0,.47-3l0.25-3c0.16-2,.29-4,0.41-6l0.32-6c0.12-2,.14-4,0.38-6s0.38-4,.56-6l0.52-6,1-12v-0.18l0.07-.16L395.88,76.2l-0.08.54-3.2-34.66-0.8-8.67-0.41-4.33c-0.19-1.44-.24-2.89-0.28-4.34-0.2-5.81-.47-11.61-0.6-17.42,0.94,5.74,1.74,11.49,2.6,17.24,0.22,1.44.44,2.87,0.52,4.32L394,33.2l0.8,8.67L398,76.53l0,0.28-0.11.26L385.2,107.24l0.08-.35-1,12-1,12c-0.13,2-.49,4-0.77,6l-0.91,6c-0.31,2-.64,4-1,6-0.18,1-.38,2-0.59,3A15.93,15.93,0,0,1,379.16,154.64Z"/></svg>