<svg id="Cracking_SimpleVertical" xmlns="http://www.w3.org/2000/svg" viewBox="0 0 650 100"><title>CP_CrackingSimpleVertical</title><path d="M71.61,99.84q0.9-3.68,1.88-7.32l1-3.64c0.17-.61.32-1.22,0.52-1.81l0.67-1.76,5.11-14.16L91,42.82l-0.07.38,0-20.68V17.35c0-.86-0.05-1.72,0-2.58l0.2-2.59Q91.47,7,92,1.84q0.53,5.17.94,10.34l0.2,2.58c0,0.86,0,1.72,0,2.59v5.17l0,20.68v0.2l-0.07.18L82.87,71.89,77.76,86.05l-0.61,1.78c-0.23.58-.5,1.15-0.76,1.73L74.83,93Q73.25,96.43,71.61,99.84Z"/><path d="M170.74,1.84q1.54,3.11,3,6.25l1.46,3.14c0.47,1.05,1,2.08,1.43,3.15,0.75,2.18,1.6,4.32,2.39,6.48l2.42,6.47,0.15,0.4-0.16.4L167,64.33l-1.81,4.52-1.9,4.51-3.8,9c-0.63,1.5-1.28,3-1.89,4.49a18.92,18.92,0,0,1-1,2.21l-1.12,2.17q-2.24,4.34-4.58,8.64,1.47-4.67,3-9.3l0.78-2.32a18.92,18.92,0,0,1,.86-2.28c0.66-1.48,1.28-3,1.91-4.48l3.8-9L163.1,68l1.81-4.52,14.46-36.19v0.8l-2.42-6.47c-0.82-2.15-1.58-4.32-2.44-6.46-0.38-1.09-.66-2.21-1-3.32l-1-3.33Q171.62,5.19,170.74,1.84Z"/><path d="M264.12,99.84q-2-4.91-3.83-9.86l-0.93-2.47c-0.31-.82-0.48-1.69-0.73-2.53l-1.48-5.06-5.9-20.22-0.15-.53,0.33-.44L270.51,33l9.55-12.88c0.4-.53.78-1.09,1.17-1.62s0.86-1,1.29-1.54l2.63-3q2.65-3,5.34-6-2.07,3.45-4.2,6.86l-2.14,3.4c-0.36.56-.7,1.14-1.1,1.68s-0.82,1.05-1.21,1.59l-9.55,12.88L253.2,60l0.17-1,5.9,20.22,1.48,5.06c0.24,0.85.56,1.67,0.74,2.53L262,89.47Q263.15,94.63,264.12,99.84Z"/><path d="M474.32,1.84q0.86,4.29,1.61,8.59c0.24,1.43.52,2.86,0.73,4.3s0.24,2.89.37,4.34l1.6,17.33,3.21,34.66,0,0.28-0.11.26-6,14.34q-0.38.89-.74,1.8a16.66,16.66,0,0,1-.85,1.76l-1.8,3.46q-1.81,3.46-3.69,6.89,1.14-3.74,2.36-7.45l1.22-3.71a16.66,16.66,0,0,1,.67-1.83q0.41-.88.78-1.78l6-14.34-0.08.54L476.41,36.6l-1.6-17.33c-0.13-1.44-.26-2.89-0.43-4.33s0-2.91-.07-4.36C474.27,7.67,474.28,4.75,474.32,1.84Z"/><path d="M578.65,99.84l-1.39-4.08-1.53-4.7-0.92-2.89c-0.32-1-.47-2.14-0.76-3.27l-1.71-7.36-0.93-4-0.48-2.08-0.24-1.05-0.2-1.14L567.36,51.2l-5.82-33.81c-0.17-1.16-.47-2.24-0.55-3.31l-0.27-3L560.3,6.13,560,1.84,561.13,6l1.26,4.78,0.76,2.94c0.28,1,.36,2.16.59,3.3l5.82,33.81,3.11,18.06,0.18,1,0.24,1.05L573.57,73l0.93,4,1.71,7.36c0.23,1.15.59,2.21,0.75,3.27l0.44,3,0.69,4.89Z"/><path d="M520.43,12.29s0.26,1.36.67,3.73c0.2,1.19.45,2.63,0.7,4.29L522.21,23c0.14,0.93.09,1.92,0.19,2.94L524.3,56l1.9,30.1c0,1,.21,2,0.17,2.95l-0.08,2.67L526.13,96l-0.18,3.79-0.66-3.74-0.7-4.29-0.41-2.64c-0.16-.93-0.11-1.92-0.2-2.94l-1.9-30.09L520.18,26c0-1-.2-2-0.18-2.94l0.08-2.67c0-1.68.11-3.14,0.16-4.34C520.34,13.66,520.43,12.29,520.43,12.29Z"/><path d="M388,98.34a7.59,7.59,0,0,0,.47-2c0.1-.67.17-1.35,0.25-2,0.15-1.35.28-2.71,0.39-4.07l0.34-4.08c0.12-1.36.15-2.73,0.39-4.07s0.38-2.7.56-4L390.95,74l1-8.11,0-.25,0.13-.21,12.73-20.37-0.16.74-3.2-23.41-0.8-5.85-0.41-2.92a21.68,21.68,0,0,1-.29-2.94c-0.24-3.94-.46-7.89-0.6-11.84,0.93,3.85,1.77,7.71,2.6,11.57a21.68,21.68,0,0,1,.51,2.91l0.39,2.93,0.8,5.85,3.2,23.41,0.05,0.4-0.21.34L394,66.62l0.16-.46-1,8.14-0.52,4.06c-0.17,1.36-.38,2.71-0.53,4.07a40.11,40.11,0,0,1-.76,4l-0.9,4c-0.32,1.33-.65,2.67-1,4q-0.27,1-.59,2A7.71,7.71,0,0,1,388,98.34Z"/></svg>