<svg id="Cracking_SimpleHorizontale" xmlns="http://www.w3.org/2000/svg" viewBox="0 0 500 50"><title>CP_CrackingSimpleHorizontale</title><path d="M10.44,26.12l23.68-5.48L57.82,15.2l0.14,0,0.17,0,10.12,1.7q5.06,0.85,10.1,1.81l20.17,3.72,40.35,7.41h-0.33L218,17.9l0.17,0,0.17,0L323.85,38.51h-0.36l80.3-13.38-0.34.12L415.84,18l0.28-.16,0.32,0,13.39,1.25c4.46,0.42,8.91.94,13.37,1.43h0.09l0.07,0,50.1,15.65-50.58-14,0.16,0c-4.47-.36-8.94-0.68-13.4-1.11l-13.38-1.28,0.6-.13L404.46,27l-0.16.09-0.18,0-80.3,13.38-0.18,0-0.18,0L218,19.87h0.34L138.84,31.8l-0.17,0-0.16,0L98.16,24.39,78,20.69q-5-.9-10.08-1.9l-10.06-2h0.31L34.3,21.47Z"/></svg>