<svg id="Cracking_SimpleVertical" xmlns="http://www.w3.org/2000/svg" viewBox="0 0 500 50"><title>CP_CrackingSimpleVertical</title><path d="M61.23,1l-0.08.55V1.49c0.37,1,.7,2,1,3.07l0.48,1.54a9.45,9.45,0,0,1,.41,1.55c0.1,1.06.29,2.11,0.43,3.16L64,14,65.78,26.6l1.81,12.63L68,42.38c0.13,1.05.33,2.1,0.44,3.16l-0.05,3.23c0,1.08-.08,2.16-0.13,3.24-0.75-2-1.37-4.1-2-6.16-0.19-1-.29-2.11-0.46-3.15l-0.45-3.16L63.58,26.92,61.76,14.29l-0.45-3.16C61.14,10.09,61,9,60.83,8a9.45,9.45,0,0,1,0-1.6l0-1.61c0-1.08.06-2.16,0.13-3.24v0h0Z"/><path d="M140.4,1c-0.25,1.25-.53,2.49-0.82,3.72l0-.37c0.29,1,.63,1.94.89,2.92,0.1,1,.28,2,0.42,3l0.89,6c0.59,4,1.18,8,1.81,11.92s1.27,7.94,1.94,11.89l0.52,3,0.27,1.48,0.16,0.73a7.26,7.26,0,0,1,0,.76l0.12,3,0.09,1.51A6.26,6.26,0,0,0,147,52a13.78,13.78,0,0,1-1.37-2.77c-0.39-1-.73-1.92-1.08-2.88a7.39,7.39,0,0,1-.24-0.73c-0.05-.25-0.07-0.5-0.11-0.75l-0.27-1.49-0.52-3c-0.68-4-1.32-7.95-1.95-11.92s-1.22-8-1.82-11.94l-0.89-6c-0.16-1-.27-2-0.48-3,0-1,0-2,0-3V4.26l0-.08C139,3.11,139.67,2,140.4,1Z"/><path d="M254.38,1s0.39,0.74,1,2.05c0.32,0.66.7,1.45,1.11,2.38l0.66,1.47c0.23,0.52.28,1.12,0.47,1.7,0.32,1.19.67,2.48,1,3.86l0.25,1.07L259,14.09l0.06,0.33,0,0.26v0.22a12.52,12.52,0,0,1-.18,1.25l-0.21,1.14c-0.3,1.52-.63,3.08-1,4.66s-0.73,3.18-1.09,4.78l-4.08,17.55c-0.07.3-.14,0.59-0.19,0.88a3.16,3.16,0,0,1-.22.83l-0.6,1.49c-0.37.94-.72,1.75-1,2.42-0.57,1.34-.93,2.1-0.93,2.1l0.1-2.29c0-.73.09-1.61,0.17-2.61L250,45.5a3.17,3.17,0,0,1,.17-0.85c0.08-.28.14-0.58,0.21-0.88l4.08-17.55c0.36-1.59.76-3.2,1.09-4.75s0.67-3.12,1-4.61l0.21-1.1c0.06-.34.13-0.77,0.15-1V14.73s0-.08,0,0h0a0,0,0,0,1,0,0l0-.22-0.11-.5-0.24-1c-0.34-1.35-.68-2.63-1-3.81-0.13-.6-0.39-1.14-0.46-1.7l-0.19-1.6c-0.13-1-.21-1.88-0.28-2.6C254.43,1.83,254.38,1,254.38,1Z"/><path d="M351.64,57.43c-1.34-1.92-2.6-3.88-3.84-5.84a7.1,7.1,0,0,1-.82-1.52c-0.22-.53-0.48-1-0.72-1.57l-1.46-3.14L339,32.81l1,0.64h-0.72l-0.3-.64L332.8,19.6,329.73,13l-1.54-3.3a7.69,7.69,0,0,1-.66-1.7L327,6.24l-0.11-.34,0.05-.15Q327.8,3.37,328.77,1q-0.14,2.55-.36,5.09l-0.05-.49,1,1.55a7.69,7.69,0,0,1,.88,1.6l1.53,3.31,3.07,6.6L341,31.87l-1-.64h0.72l0.3,0.64,5.84,12.54,1.46,3.14c0.25,0.52.48,1,.74,1.56a7.09,7.09,0,0,1,.64,1.61C350.35,52.94,351,55.17,351.64,57.43Z"/><path d="M458.21,1l-0.11.56v0c0.14,1,.23,2,0.34,3l0.13,1.52a7.7,7.7,0,0,1,.06,1.51c-0.13,1-.18,2-0.27,3l-0.25,3-1.06,12c-0.37,4-.76,8-1.19,12l-0.34,3c-0.13,1-.21,2-0.38,3s-0.59,2-.93,2.93A14.26,14.26,0,0,1,453,49.35a20.09,20.09,0,0,0,.06-3l-0.09-3c0.08-1,.26-2,0.35-3l0.33-3c0.43-4,.81-8,1.19-12l1.06-12,0.25-3c0.07-1,.19-2,0.22-3a7.69,7.69,0,0,1,.3-1.48L457,4.45c0.27-1,.53-2,0.84-3v0Z"/><path d="M399.31,49.68c0.5-1.8,1.05-3.56,1.64-5.32a11.8,11.8,0,0,1,.47-1.3c0.22-.4.45-0.8,0.65-1.21l1.25-2.44,5-9.75-0.09.76L404.8,15.68,403.09,8.3a8.34,8.34,0,0,1-.23-0.92l-0.07-1-0.14-1.91c-0.08-1.28-.15-2.56-0.19-3.84C403,1.85,403.5,3,404,4.21L404.7,6l0.35,0.89a8.34,8.34,0,0,1,.2.92L407,15.17l3.42,14.75,0.09,0.4-0.19.36-5,9.75L404,42.87c-0.22.4-.41,0.82-0.6,1.23a11.79,11.79,0,0,1-.78,1.14C401.59,46.74,400.48,48.22,399.31,49.68Z"/></svg>