<svg id="Cracking_Simple_Oblique" data-name="Cracking Simple Oblique" xmlns="http://www.w3.org/2000/svg" viewBox="0 0 650 50"><title>CP_CrackingSimpleOblique</title><path d="M161.8,6.67c-1.58.52-3.15,1.07-4.73,1.56l-4.74,1.51-4.74,1.51a22,22,0,0,1-2.4.64c-0.81.18-1.61,0.38-2.42,0.57l-19.29,4.71-0.09,0h-0.09L43.21,23.7l0.29-.06-9.56,3.45-4.78,1.73-2.39.86-2.38.88c-1.61.52-3.25,1-4.87,1.48l-4.87,1.47Q9.77,35,4.87,36.4q4.66-2,9.36-4l4.69-2c1.57-.65,3.12-1.34,4.69-2l2.4-.84,2.39-.86L33.18,25l9.56-3.45,0.14-.05H43L123.13,15,123,15l19.29-4.71c0.8-.2,1.61-0.39,2.41-0.6a22,22,0,0,1,2.42-.54l4.9-.85,4.9-.85C158.51,7.17,160.16,6.93,161.8,6.67Z"/><path d="M96.71,44.1c0.86-.47,1.79-0.81,2.69-1.19l2.73-1.09c1.83-.72,3.66-1.4,5.5-2.1l11-4.11c1.84-.69,3.68-1.37,5.55-1.92s3.73-1.19,5.6-1.79L141,28.31l0.09,0h0.09l52.53-7.71,52.49-8-0.28.08,2.54-1.13c0.84-.39,1.68-0.78,2.55-1.09l5.22-1.93,5.22-1.93,5.24-1.88-4.92,2.61-4.94,2.56-4.94,2.56c-0.82.44-1.67,0.8-2.53,1.15l-2.54,1.12-0.14.06-0.15,0-52.49,8-52.54,7.72,0.18,0L130.48,34c-1.86.61-3.73,1.19-5.58,1.82s-3.73,1.18-5.62,1.7L108,40.73l-5.65,1.63-2.82.82C98.56,43.47,97.61,43.71,96.71,44.1Z"/><path d="M346.44,42l-7.34-3.69-3.65-1.86c-1.21-.63-2.47-1.18-3.6-1.89-0.29-.18-0.58-0.33-0.86-0.49s-0.23-.11-0.34-0.17l0,0,0,0h0l-0.12,0-0.25-.06c-0.66-.16-1.28-0.28-1.92-0.42l-4-.82-8-1.61-32.15-6.33-1-.19,0.06-1,0.26-4.18c0-.7.1-1.39,0.12-2.09a11.81,11.81,0,0,1,.26-2.08c0.47-2.77,1-5.54,1.52-8.31,0.21,2.81.35,5.62,0.47,8.43a11.81,11.81,0,0,1,0,2.1c-0.07.7-.09,1.39-0.14,2.09l-0.26,4.18-0.9-1.16,32.16,6.33,8,1.61,4,0.82c0.69,0.15,1.41.3,2.08,0.46l0.25,0.06,0.12,0h0l0.08,0,0.08,0c0.2,0.09.44,0.2,0.58,0.27l0.94,0.49a32.32,32.32,0,0,1,3.48,2.23l3.37,2.35Q343.14,39.56,346.44,42Z"/><path d="M381.69,43.41c1.54-.34,3-0.83,4.53-1.26l4.51-1.35,4.51-1.34c1.51-.43,3-1,4.53-1.26s3-.72,4.57-1.07l4.57-1.1L418,33.8l0.07,0h0.06L448.74,30l-0.23.05,21.2-7.35,5.3-1.84c0.88-.31,1.77-0.6,2.65-0.93a19.57,19.57,0,0,1,2.69-.81c3.63-.94,7.27-1.87,10.93-2.72-3.4,1.6-6.83,3.12-10.27,4.63a19.57,19.57,0,0,1-2.61,1c-0.89.29-1.77,0.61-2.65,0.91l-5.3,1.84-21.2,7.35-0.11,0H449L418.45,36l0.13,0-9.14,2.22-4.57,1.1c-1.52.37-3.05,0.72-4.57,1.11s-3.08.62-4.62,0.9l-4.65.8-4.66.73C384.82,43.05,383.25,43.3,381.69,43.41Z"/><path d="M550.32,8.75q5.52,1.32,11,2.72l5.49,1.42c0.91,0.24,1.83.46,2.73,0.75l2.69,0.88,21.59,6.83,1.35,0.43,1.33,0.38,2.72,0.77,5.45,1.53,10.9,3.07,21.8,6.14,0.72,0.2,0.08,0.75L638.35,36l0.08,0.71a2.38,2.38,0,0,0,.05.36,0.67,0.67,0,0,1,0,.36c-0.23,1-.45,2-0.78,3-0.54-.91-1-1.82-1.4-2.74a0.67,0.67,0,0,1-.07-0.35,2.38,2.38,0,0,0,0-.36l-0.08-.71L636,34.86l0.81,1L615,29.67l-10.9-3.07-5.45-1.53-2.72-.77-1.39-.4-1.35-.43-21.59-6.83-2.71-.83c-0.9-.28-1.78-0.63-2.67-1l-5.31-2Q555.59,10.84,550.32,8.75Z"/><path d="M550.32,43.9a2.43,2.43,0,0,1-.78-0.54c-0.24-.22-0.45-0.45-0.67-0.68-0.43-.47-0.82-1-1.21-1.46-0.79-1-1.49-2-2.21-3.06a8.47,8.47,0,0,1-1-1.61c-0.26-.57-0.55-1.12-0.82-1.68L542,31.49l0.62,0.57L515.07,21.77l-13.8-5.15-3.45-1.29a20.51,20.51,0,0,1-3.37-1.5q-3.32-1.64-6.59-3.4,3.62,0.82,7.21,1.74a20.52,20.52,0,0,1,3.53,1.07l3.45,1.29,13.8,5.15L543.44,30l0.42,0.16,0.2,0.41,1.61,3.32c0.28,0.55.54,1.11,0.84,1.65a9.2,9.2,0,0,1,.74,1.69c0.43,1.16.9,2.3,1.36,3.45q0.35,0.86.74,1.7c0.13,0.28.26,0.56,0.42,0.82A2.29,2.29,0,0,0,550.32,43.9Z"/><path d="M371.57,46a1.84,1.84,0,0,0,.43-0.72c0.11-.26.18-0.53,0.27-0.8,0.17-.54.3-1.09,0.43-1.64s0.26-1.1.38-1.65a8.15,8.15,0,0,1,.43-1.63c0.23-.51.4-1,0.59-1.58l0.55-1.6c0.36-1.06.72-2.14,1-3.21l0.13-.41,0.36-.22,13.21-7.88L388.93,26l-3.32-9-0.83-2.26c-0.14-.38-0.27-0.76-0.42-1.13a3.48,3.48,0,0,1-.31-1.17c-0.27-1.61-.53-3.23-0.71-4.87,0.92,1.37,1.78,2.77,2.61,4.17a3.48,3.48,0,0,1,.52,1.09c0.13,0.38.27,0.76,0.41,1.13l0.83,2.26,3.32,9,0.32,0.87-0.79.47-13.21,7.88,0.49-.63c-0.35,1.1-.7,2.18-1.07,3.26l-0.56,1.62c-0.18.54-.4,1.07-0.57,1.62a7.1,7.1,0,0,1-.79,1.54c-0.3.5-.6,1-0.92,1.49s-0.67,1-1,1.43a7.5,7.5,0,0,1-.6.67A2,2,0,0,1,371.57,46Z"/></svg>