<svg id="Cracking_SimpleHorizontale" xmlns="http://www.w3.org/2000/svg" viewBox="0 0 650 150"><title>CP_CrackingSimpleHorizontale</title><path d="M23.5,70L82.81,55.21l0.16,0,0.18,0,12.66,2.41q6.33,1.21,12.63,2.52l25.25,5.14,50.5,10.25h-0.36L283.34,59l0.19,0,0.19,0,132,28.5h-0.39L515.82,69l-0.36.14,15.5-10,0.3-.19,0.35,0,16.75,1.73c2.79,0.3,5.58.59,8.37,0.93l8.36,1h0.1l0.08,0L628,84,564.74,64.31l0.18,0-8.39-.77c-2.8-.24-5.59-0.54-8.38-0.82L531.4,61l0.65-.15-15.5,10-0.17.11-0.19,0-100.5,18.5-0.2,0-0.2,0L283.29,61h0.37l-99.5,16.5-0.18,0-0.18,0L133.3,67.23,108,62.12q-6.32-1.25-12.62-2.6L82.84,56.79h0.35Z"/></svg>