<svg id="Cracking_SimpleHorizontale" xmlns="http://www.w3.org/2000/svg" viewBox="0 0 650 100"><title>CP_CrackingSimpleHorizontale</title><path d="M12.83,53.5L72.15,38.72l0.16,0,0.18,0,12.66,2.41q6.33,1.21,12.63,2.52L123,48.77,173.53,59h-0.36l99.5-16.5,0.19,0,0.19,0L405,71h-0.39l100.5-18.5-0.36.14,15.5-10,0.3-.19,0.35,0,16.75,1.73c2.79,0.3,5.58.59,8.37,0.93l8.36,1h0.1l0.08,0L617.33,67.5,554.07,47.82l0.18,0-8.39-.77c-2.8-.24-5.59-0.54-8.38-0.82L520.73,44.5l0.65-.15-15.5,10-0.17.11-0.19,0L405,73l-0.2,0-0.2,0-132-28.5H273L173.5,61l-0.18,0-0.18,0-50.5-10.25L97.38,45.62Q91.06,44.37,84.77,43L72.17,40.3h0.35Z"/></svg>