<svg id="Cracking_SimpleHorizontale" xmlns="http://www.w3.org/2000/svg" viewBox="0 0 650 50"><title>CP_CrackingSimpleHorizontale</title><path d="M15.83,23.67L75.15,8.88l0.16,0,0.18,0,12.66,2.41q6.33,1.21,12.63,2.52L126,18.94l50.5,10.25h-0.36l99.5-16.5,0.19,0,0.19,0,132,28.5h-0.39l100.5-18.5-0.36.14,15.5-10,0.3-.19,0.35,0,16.75,1.73c2.79,0.3,5.58.59,8.37,0.93l8.36,1h0.1l0.08,0,62.74,21.31L557.07,18l0.18,0-8.39-.77c-2.8-.24-5.59-0.54-8.38-0.82l-16.75-1.77,0.65-.15-15.5,10-0.17.11-0.19,0L408,43.15l-0.2,0-0.2,0-132-28.5H276l-99.5,16.5-0.18,0-0.18,0L125.63,20.9l-25.25-5.11q-6.32-1.25-12.62-2.6L75.17,10.46h0.35Z"/></svg>