<svg id="Cracking_SimpleVertical" xmlns="http://www.w3.org/2000/svg" viewBox="0 0 500 100"><title>CP_CrackingSimpleVertical</title><path d="M55.07,100.51l0-.17h0Q56,96.56,57,92.82l1-3.74c0.17-.62.33-1.25,0.56-1.85s0.47-1.2.68-1.81l5.24-14.53L75,41.83l-0.07.38,0-20.68V16.36c0-.86-0.07-1.72,0-2.58l0.2-2.59Q75.46,6,76,.85,76.5,6,76.9,11.18l0.21,2.58c0.06,0.86,0,1.72,0,2.58v5.17l0,20.68v0.2l-0.07.18L66.58,71.65,61.34,86.18c-0.23.6-.42,1.22-0.63,1.83S60.22,89.2,60,89.79l-1.6,3.53q-1.61,3.52-3.29,7h0v0.17Z"/><path d="M154.73,0.85q1.54,3.11,3,6.25l1.46,3.14c0.48,1.05,1,2.09,1.44,3.15s0.77,2.17,1.18,3.25L163,19.87l2.42,6.47,0.15,0.4-0.16.4-14.8,37-1.87,4.65-1.95,4.59-3.89,9.18L141,87.18a19.09,19.09,0,0,1-1.05,2.26l-1.15,2.22q-2.28,4.45-4.68,8.84c1-3.18,2-6.36,3.11-9.51l0.8-2.37a19.08,19.08,0,0,1,.89-2.33c0.67-1.52,1.3-3.06,2-4.58l3.89-9.18L146.71,68l1.85-4.6,14.8-37v0.8l-2.42-6.47-1.21-3.24c-0.39-1.08-.82-2.15-1.23-3.23s-0.65-2.21-1-3.32l-1-3.33Q155.61,4.2,154.73.85Z"/><path d="M274.49,6.89q-2.07,3.46-4.2,6.86l-2.15,3.4c-0.36.56-.71,1.14-1.09,1.69l-1.22,1.59L256.28,33.3l-19.1,25.75,0.17-1,6.24,21.4,1.56,5.35c0.24,0.9.56,1.77,0.79,2.67s0.39,1.82.59,2.73c0.78,3.64,1.53,7.29,2.22,11q-2.06-5.21-4-10.44c-0.32-.87-0.66-1.74-1-2.62s-0.49-1.79-.77-2.68l-1.56-5.35-6.24-21.38-0.16-.54,0.33-.44L254.49,32,264,19.1l1.17-1.63c0.41-.52.86-1,1.3-1.53l2.63-3Q271.79,9.87,274.49,6.89Z"/><path d="M322.62,100.51q0.78-5.45,1.65-10.88l0.88-5.43a27.22,27.22,0,0,1,.54-2.69l0.61-2.67,4.76-21.38,0.15-.67,0.61-.2L373,43.36l-0.57.42,15-21.34c1.24-1.78,2.51-3.55,3.74-5.34a31.07,31.07,0,0,1,1.93-2.62l2-2.56q4-5.13,8.19-10.18Q400,7.35,396.52,12.9l-1.72,2.78A31.08,31.08,0,0,1,393,18.39c-1.26,1.77-2.5,3.55-3.75,5.33l-15,21.34-0.21.31-0.36.11L332.5,58.72l0.75-.86-4.78,21.47L327.89,82a27.26,27.26,0,0,1-.65,2.67L325.74,90Q324.22,95.24,322.62,100.51Z"/><path d="M452,100.51v-0.17h0q1.2-3.94,2.49-7.84l1.29-3.9a17.32,17.32,0,0,1,.78-1.89l0.8-1.88,6.36-15.09-0.08.54L460.4,35.61l-1.6-17.33-0.41-4.33-0.06-4.36q-0.05-4.36,0-8.74,0.83,4.29,1.58,8.59l0.74,4.3L461,18.07l1.6,17.33,3.21,34.66,0,0.28-0.11.26-6.36,15.09-0.79,1.89a17.32,17.32,0,0,1-.82,1.88l-1.89,3.64q-1.9,3.64-3.88,7.25h0Z"/><polygon points="331.92 58.96 309.69 42.94 333.14 57.1 331.92 58.96"/></svg>