<svg id="Cracking_SimpleHorizontale" xmlns="http://www.w3.org/2000/svg" viewBox="0 0 500 100"><title>CP_CrackingSimpleHorizontale</title><path d="M10.44,52.46L34.12,47l23.69-5.43,0.14,0,0.17,0,10.12,1.7Q73.3,44.09,78.34,45l20.17,3.72,40.35,7.41h-0.33L218,44.24l0.17,0,0.17,0L323.85,64.85h-0.36l80.3-13.38-0.34.12,12.38-7.23,0.28-.16,0.32,0,13.39,1.25c4.46,0.42,8.91.94,13.37,1.43h0.09l0.07,0,50.1,15.65-50.58-14,0.16,0c-4.47-.36-8.94-0.68-13.4-1.11l-13.38-1.28,0.6-.13-12.38,7.23-0.16.09-0.18,0-80.3,13.38-0.18,0-0.18,0L218,46.21h0.34l-79.5,11.93-0.17,0-0.16,0L98.15,50.73,78,47q-5-.9-10.08-1.9l-10.06-2h0.31L34.3,47.82Z"/></svg>