<svg id="Cracking_Simple_Oblique" data-name="Cracking Simple Oblique" xmlns="http://www.w3.org/2000/svg" viewBox="0 0 650 150"><title>CP_CrackingSimpleOblique</title><path d="M169.33,4l-4.44,4.8-4.48,4.76-4.48,4.76c-0.74.8-1.52,1.56-2.32,2.29l-2.37,2.24-18.86,18L132.2,41l-0.25.08L53.64,66l0.57-.42L44.87,78.85,35.54,92.08c-1.6,2.17-3.26,4.31-4.89,6.46L25.75,105q-4.89,6.46-9.84,12.88,4.39-6.81,8.86-13.57l4.45-6.77c1.49-2.25,3-4.52,4.46-6.76L43,77.56,52.4,64.34,52.61,64,53,63.92,131.28,39l-0.43.26,18.86-18L152,18.94c0.77-.77,1.56-1.52,2.39-2.22l4.95-4.26,4.95-4.26Z"/><path d="M105.69,147.36a32.11,32.11,0,0,1,2.33-3.8l2.53-3.68c1.71-2.44,3.46-4.84,5.21-7.25l10.59-14.37c1.77-2.39,3.55-4.78,5.43-7.08l5.55-7,11.11-14,0.13-.16,0.18-.11,25.79-14.81,12.9-7.4,6.45-3.7c2.16-1.22,4.26-2.48,6.4-3.75l51.13-30.39-0.39.4,2.48-4.3c0.81-1.44,1.62-2.88,2.51-4.28l5.27-8.42,5.27-8.42,5.31-8.4-4.63,8.79L262.57,14l-4.67,8.77c-0.77,1.47-1.61,2.89-2.46,4.31L253,31.43l-0.15.25-0.25.15L201.43,62.22c-2.12,1.26-4.27,2.55-6.43,3.77l-6.45,3.7-12.9,7.4L149.87,91.9l0.31-.27-11.1,14c-1.84,2.33-3.7,4.65-5.52,7s-3.7,4.65-5.61,6.93l-11.33,13.77-5.6,6.94-2.76,3.5A32,32,0,0,0,105.69,147.36Z"/><path d="M349.85,139.4l-10.11-21.83-2.56-5.44c-0.88-1.8-1.66-3.64-2.47-5.45-0.2-.45-0.41-0.9-0.63-1.32-0.09-.19-0.26-0.47-0.22-0.42a4.4,4.4,0,0,0-.47-0.45c-0.67-.58-1.48-1.26-2.24-1.87l-4.68-3.75c-12.58-9.91-25.3-19.67-38-29.42L288,69.11V68.55l0.51-32.06,0.13-8c0-1.34.05-2.67,0.05-4a39.93,39.93,0,0,1,.19-4c0.41-5.34.77-10.68,1.25-16,0.32,5.35.5,10.7,0.74,16a39.93,39.93,0,0,1,.06,4c0,1.34,0,2.67-.08,4l-0.13,8-0.51,32.06-0.44-.9c12.72,9.76,25.44,19.51,38,29.44l4.71,3.77c0.79,0.65,1.53,1.25,2.37,2a8.46,8.46,0,0,1,.61.59,5.06,5.06,0,0,1,.53.87l0.68,1.39c0.87,1.83,1.69,3.66,2.41,5.54l2.19,5.61,4.31,11.24C347.08,131.86,348.46,135.63,349.85,139.4Z"/><path d="M384.31,144.74a16,16,0,0,0,2.34-1.91l2.19-2.09q2.19-2.1,4.33-4.24l4.27-4.31c1.43-1.43,2.79-2.93,4.3-4.27s3-2.75,4.43-4.13l4.4-4.16,8.77-8.36,0.13-.13,0.16-.08,29.88-14.29-0.42.34,20.73-28.18,5.18-7,2.58-3.53c0.82-1.21,1.75-2.33,2.69-3.45,3.72-4.5,7.39-9,11.18-13.49-3.13,4.94-6.37,9.79-9.55,14.68-0.79,1.23-1.59,2.45-2.5,3.59l-2.6,3.52-5.18,7L450.89,98.44l-0.17.22-0.25.12-29.88,14.29,0.29-.2-8.78,8.38-8.82,8.33c-1.44,1.42-3,2.67-4.58,4L394,137.45c-1.57,1.29-3.14,2.56-4.73,3.82-0.8.63-1.61,1.23-2.43,1.83A16.11,16.11,0,0,1,384.31,144.74Z"/><path d="M549.16,11.95c3.63,4.07,7.22,8.18,10.8,12.3l5.38,6.17c0.89,1,1.8,2,2.67,3.1l2.55,3.2,20.54,25.46,2.57,3.18,2.7,3,5.49,6.06,11,12.12,22,24.24,0.28,0.31v0.41l0.15,5.48,0.08,2.74c0,0.46,0,.91.05,1.37a9.31,9.31,0,0,1,0,1.37c-0.27,3.66-.45,7.32-0.79,11-0.55-3.64-.93-7.28-1.4-10.92a9.31,9.31,0,0,1-.07-1.37c0-.46,0-0.91,0-1.37L633,117l-0.15-5.48,0.29,0.72L611.2,88l-11-12.12-5.49-6.06-2.78-3.08-2.57-3.18L568.84,38.11l-2.59-3.17c-0.84-1.07-1.64-2.18-2.46-3.27l-4.89-6.56C555.63,20.74,552.38,16.36,549.16,11.95Z"/><path d="M549.16,146.6a16.56,16.56,0,0,1-.91-3c-0.24-1-.47-2-0.69-3.05-0.43-2-.82-4.08-1.21-6.13-0.78-4.09-1.47-8.2-2.18-12.3-0.35-2.05-.71-4.1-0.92-6.17l-0.78-6.19L541,97.37l0.19,0.5-27-39.43L500.68,38.73l-3.37-4.93a53.74,53.74,0,0,1-3.19-5.06q-3.06-5.14-6-10.36,3.78,4.65,7.48,9.36a53.74,53.74,0,0,1,3.56,4.8l3.37,4.93L516,57.19l27,39.43,0.15,0.22,0,0.27,1.52,12.37c0.26,2.06.51,4.12,0.8,6.18s0.5,4.13.7,6.19l1.25,12.41,0.7,6.2c0.12,1,.25,2.06.4,3.09A16.47,16.47,0,0,0,549.16,146.6Z"/><path d="M374.42,154.64a15.6,15.6,0,0,0,.48-3l0.25-3c0.16-2,.3-4,0.42-6l0.33-6c0.12-2,.14-4,0.38-6s0.38-4,.57-6l0.53-6,1-12,0-.18,0.07-.17L391.39,76.2l-0.08.54-3.25-34.66-0.81-8.67-0.42-4.33c-0.19-1.44-.24-2.89-0.29-4.34-0.21-5.81-.48-11.61-0.62-17.42,0.95,5.74,1.75,11.49,2.63,17.24,0.22,1.44.44,2.87,0.52,4.32l0.4,4.33,0.81,8.67,3.25,34.66,0,0.28-0.11.26-12.91,30.17,0.09-.35-1,12-1.06,12c-0.14,2-.5,4-0.78,6l-0.92,6c-0.32,2-.64,4-1,6-0.18,1-.38,2-0.6,3A15.73,15.73,0,0,1,374.42,154.64Z"/></svg>