<svg id="Cracking_SimpleVertical" xmlns="http://www.w3.org/2000/svg" viewBox="0 0 650 50"><title>CP_CrackingSimpleVertical</title><path d="M269.23,1s0,0.19,0,.48,0,0.32,0,.5l0,0.29c0,0.1-.11,0-0.15.08l-1.53.8L266,4a0.18,0.18,0,0,0-.07,0s0,0-.09,0l-0.25-.15-0.42-.26-0.39-.27s0-.19,0-0.47,0-.32,0-0.49l0-.29c0-.06,0-0.07.06-0.06a0.18,0.18,0,0,0,.08,0l1.53-.8,1.53-.8c0.07,0,.07-0.12.15-0.07l0.25,0.15c0.15,0.09.3,0.19,0.42,0.27S269.23,1,269.23,1Z"/><path d="M71.61,1L71.36,2.61l0-.15c0.34,1,.68,2.05,1,3.08l0.47,1.54a10.47,10.47,0,0,1,.24,1.58L74,15l1.81,12.63,1.81,12.62,0.45,3.16L78.29,45a9.24,9.24,0,0,1,.2,1.58c0,2.15,0,4.3-.17,6.47-0.73-2-1.35-4.1-2-6.16a9.24,9.24,0,0,1-.26-1.57l-0.23-1.58L75.4,40.53,73.59,27.91,71.78,15.28,70.87,9a10.47,10.47,0,0,1-.21-1.58l0-1.61c0-1.07,0-2.15.08-3.23V2.39Z"/><path d="M150.83,1c-0.33,1.61-.69,3.2-1.1,4.77l0.06-.45a11.88,11.88,0,0,1,.71,2.94l0.45,3,0.89,6,1.82,11.92c0.62,4,1.26,7.94,1.94,11.89l0.52,3,0.27,1.48a6.61,6.61,0,0,1,.15.74l0,0.76,0.13,3,0.09,1.52A6.73,6.73,0,0,0,157,53a13.79,13.79,0,0,1-1.36-2.78c-0.39-1-.72-1.92-1.07-2.88-0.08-.24-0.18-0.48-0.25-0.72a6.72,6.72,0,0,1-.12-0.75l-0.27-1.49-0.52-3c-0.68-4-1.32-7.95-1.95-11.92l-1.82-11.94-0.9-6-0.45-3a11.87,11.87,0,0,1-.19-3V5.21l0.06-.1C149,3.72,149.9,2.35,150.83,1Z"/><path d="M264.11,1s0.4,0.76,1,2.09c0.32,0.67.71,1.48,1.13,2.42L266.95,7c0.23,0.53.29,1.14,0.48,1.73l1,3.93c0.18,0.71.36,1.41,0.53,2.2a6,6,0,0,1,.12.71V16c0,0.15,0,.27,0,0.37-0.06.42-.13,0.8-0.2,1.2-0.6,3.11-1.33,6.38-2.09,9.63l-4.14,17.9c-0.07.31-.14,0.6-0.2,0.9a3.29,3.29,0,0,1-.23.85l-0.61,1.52c-0.37,1-.72,1.79-1,2.48C260,52.23,259.66,53,259.66,53s0-.85.12-2.33L260,48l0.13-1.63a3.29,3.29,0,0,1,.17-0.86c0.08-.29.15-0.59,0.22-0.89l4.14-17.9c0.76-3.25,1.48-6.5,2.07-9.55,0.07-.38.14-0.75,0.19-1.1a1.4,1.4,0,0,0,0-.75c-0.15-.69-0.33-1.41-0.51-2.1l-1-3.89c-0.13-.61-0.4-1.16-0.47-1.73L264.62,6c-0.13-1-.22-1.91-0.3-2.65C264.16,1.85,264.11,1,264.11,1Z"/><path d="M361.65,58.42c-1.37-2-2.66-4-3.93-6a7.18,7.18,0,0,1-.83-1.57c-0.24-.54-0.5-1.08-0.74-1.61L354.64,46l-6-12.88-6-12.88-3-6.44-1.5-3.22c-0.22-.55-0.56-1-0.75-1.61l-0.54-1.71-0.12-.39,0.06-.17C337.51,4.8,338.24,2.9,339,1c-0.12,2-.27,4.08-0.46,6.1l-0.06-.56,1,1.51c0.31,0.51.48,1.08,0.75,1.61l1.5,3.22,3,6.44,6,12.88,6,12.88,1.5,3.22c0.25,0.53.49,1.08,0.76,1.61a7.18,7.18,0,0,1,.67,1.65C360.31,53.82,361,56.1,361.65,58.42Z"/><path d="M468.63,1l-0.32,1.63,0-.1c0.1,1,.21,2,0.28,3l0.12,1.52c0,0.51-.11,1-0.13,1.5l-0.5,6-1.05,12c-0.37,4-.76,8-1.19,12l-0.34,3-0.18,1.5a7.34,7.34,0,0,1-.22,1.5c-0.3,1-.58,2-0.92,2.93A14.45,14.45,0,0,1,463,50.34a3.87,3.87,0,0,0,.08-0.75c0-.25,0-0.5,0-0.76,0-.5,0-1,0-1.51l-0.08-3a8.39,8.39,0,0,1,.15-1.49l0.18-1.49,0.33-3c0.43-4,.82-8,1.19-12l1.05-12,0.5-6c0.07-.5,0-1,0.12-1.5l0.37-1.48c0.24-1,.51-2,0.78-3l0-.1Z"/><path d="M575.49,50c0.5-1.8,1.05-3.56,1.64-5.32a11.8,11.8,0,0,1,.47-1.3c0.22-.4.45-0.8,0.65-1.21l1.25-2.44,5-9.75-0.09.76L581,16l-1.71-7.37A8.34,8.34,0,0,1,579,7.71l-0.07-1-0.14-1.91c-0.08-1.28-.15-2.56-0.19-3.84,0.53,1.17,1,2.35,1.52,3.53l0.71,1.78,0.35,0.89a8.34,8.34,0,0,1,.2.92l1.71,7.37,3.42,14.75,0.09,0.4-0.19.36-5,9.75-1.25,2.44c-0.22.4-.41,0.82-0.6,1.23a11.79,11.79,0,0,1-.78,1.14C577.77,47.06,576.66,48.55,575.49,50Z"/><path d="M525.95,1q0.47,1.82.86,3.65l0.39,1.83c0.12,0.61.27,1.22,0.36,1.83l0,0.26-0.13.27c-0.45.93-.85,1.9-1.27,2.85L525,14.55l-2.48,5.72-1.24,2.86-0.62,1.43L520,26l-2.38,5.76-4.76,11.53-1.19,2.88c-0.19.48-.41,1-0.58,1.45a8.33,8.33,0,0,1-.73,1.38l-0.79,1.34-0.75,1.38a20.11,20.11,0,0,0-1.36,2.81,15.31,15.31,0,0,1,.38-3.16c0.1-.52.2-1,0.31-1.55l0.4-1.54a8.28,8.28,0,0,1,.46-1.5c0.23-.47.41-1,0.61-1.43l1.19-2.88,4.76-11.53L518,25.14l0.61-1.46,0.62-1.43,1.24-2.86,2.48-5.72,1.24-2.86c0.41-1,.84-1.9,1.21-2.87l-0.09.53c0-.62.09-1.24,0.13-1.86l0.15-1.86Q525.72,2.87,525.95,1Z"/><path d="M405.77,52.25c0.5-1.8,1.05-3.56,1.64-5.32a11.8,11.8,0,0,1,.47-1.3c0.22-.4.45-0.8,0.65-1.21L409.78,42l5-9.75-0.09.76-3.42-14.75-1.71-7.37a8.34,8.34,0,0,1-.23-0.92l-0.07-1-0.14-1.91C409,5.82,409,4.54,408.93,3.25c0.53,1.17,1,2.35,1.52,3.53l0.71,1.78,0.35,0.89a8.34,8.34,0,0,1,.2.92l1.71,7.38,3.42,14.75L417,32.9l-0.19.36-5,9.75-1.25,2.44c-0.22.4-.41,0.82-0.6,1.23a11.79,11.79,0,0,1-.78,1.14C408.05,49.31,406.94,50.8,405.77,52.25Z"/></svg>