<svg id="Cracking_Simple_Oblique" data-name="Cracking Simple Oblique" xmlns="http://www.w3.org/2000/svg" viewBox="0 0 300 100"><title>CP_CrackingSimpleOblique</title><path d="M156.92,3.39c-1.54,1.06-3.07,2.15-4.62,3.2l-4.65,3.15L143,12.89c-0.77.54-1.57,1-2.38,1.47l-2.42,1.41L118.92,27.19l-0.16.1-0.19,0L38.46,43.11,39,42.85l-9.56,8.37-4.78,4.18-4.77,4.2c-1.63,1.35-3.3,2.66-5,4l-5,4q-5,4-10,7.92Q4.55,71,9.17,66.67l4.6-4.39c1.54-1.46,3.05-2.94,4.61-4.38l4.8-4.17L28,49.55l9.56-8.37,0.22-.2L38,40.92l80.1-15.78-0.35.13,19.29-11.42,2.4-1.44c0.79-.5,1.6-1,2.44-1.38l5-2.56,5-2.56C153.56,5,155.25,4.23,156.92,3.39Z"/><path d="M91.84,94.15a24.11,24.11,0,0,1,2.51-2.55L97,89.2c1.78-1.59,3.59-3.14,5.4-4.7l10.9-9.27c1.82-1.54,3.64-3.08,5.55-4.51l5.64-4.39,11.29-8.78,0.14-.11,0.17-.06L162.39,48l13.16-4.67L182.13,41c2.2-.77,4.36-1.57,6.55-2.38l52.41-19.28-0.43.28,2.54-2.72c0.83-.92,1.67-1.84,2.56-2.7L251.1,9l5.33-5.2,5.37-5.17L257,4.37,252.18,10l-4.83,5.68c-0.8,1-1.66,1.85-2.52,2.74l-2.55,2.72-0.18.19-0.25.09L189.45,40.75c-2.17.8-4.38,1.61-6.57,2.38l-6.58,2.34-13.16,4.67-26.31,9.35,0.31-.17-11.28,8.77c-1.87,1.47-3.76,2.92-5.62,4.41s-3.77,2.92-5.69,4.32l-11.48,8.51-5.7,4.31-2.83,2.18A24,24,0,0,0,91.84,94.15Z"/><path d="M308.16,125.25q-7.31-5.71-14.53-11.51c-1.2-1-2.42-1.91-3.61-2.89-0.59-.49-1.16-1-1.74-1.52a21.7,21.7,0,0,0-1.7-1.41c-1.26-.85-2.53-1.66-3.83-2.51l-3.89-2.5L247.66,83l-0.16-.11-0.12-.15L237.16,69.48c-0.86-1.1-1.69-2.22-2.57-3.3-0.43-.55-0.78-1.16-1.17-1.74l-1.13-1.77q-2.27-3.53-4.46-7.12,2.91,3,5.76,6.12L235,63.23c0.47,0.52,1,1,1.39,1.57,0.82,1.13,1.69,2.22,2.54,3.32l10.22,13.24-0.28-.26L280.06,101l3.89,2.51c1.28,0.83,2.61,1.68,3.91,2.56,0.72,0.5,1.28,1,1.88,1.52s1.19,1,1.76,1.51c1.14,1,2.24,2.13,3.36,3.19Q301.58,118.72,308.16,125.25Z"/></svg>