<svg id="Slip_lines_grain_Small_" data-name="Slip lines (grain Small)" xmlns="http://www.w3.org/2000/svg" viewBox="0 0 300 100"><defs><style>.cls-1{fill:#202020;}</style></defs><title>M_SlipLinesGrainSmall</title><path d="M42,48.66l15.76-3.4L63.54,44c1.85-.37,3.59-0.66,5.08-0.92,3-.49,5-0.73,5-0.73v0.07s-1.95.55-4.89,1.24c-1.47.33-3.19,0.73-5,1.1l-5.82,1.07L42,48.73V48.66Z"/><path d="M36.52,52.5l19.18-4.1,7-1.5c2.25-.45,4.37-0.82,6.18-1.14,3.63-.63,6.06-0.95,6.06-0.95v0.07s-2.37.64-6,1.46c-1.8.4-3.89,0.87-6.14,1.32L55.82,49,36.54,52.58V52.5Z"/><path d="M41.52,56.84l22-4.86,8.1-1.78c2.59-.54,5-1,7.1-1.38,4.16-.77,7-1.18,7-1.18l0,0.07s-2.73.73-6.85,1.69c-2.06.47-4.47,1-7.06,1.57l-8.13,1.6L41.53,56.91Z"/><path d="M43.11,60.09l18.17-4.21,6.67-1.54c2.14-.46,4.14-0.84,5.86-1.18,3.44-.65,5.75-1,5.75-1l0,0.07s-2.24.65-5.64,1.49c-1.7.41-3.68,0.89-5.82,1.36L61.4,56.46l-18.28,3.7Z"/><path d="M46.3,66.17l22.81-6.56,8.38-2.4c2.68-.74,5.2-1.38,7.35-1.93,4.32-1.09,7.22-1.72,7.22-1.72l0,0.07s-2.82.95-7.08,2.22c-2.13.63-4.62,1.37-7.3,2.11l-8.42,2.23L46.32,66.24Z"/><path d="M57.07,67.62s2.64-.83,6.62-2c2-.57,4.32-1.26,6.82-1.95l7.83-2.15,7.86-2.06c2.51-.66,4.86-1.22,6.88-1.72,4-1,6.73-1.59,6.73-1.59s-2.64.83-6.62,2c-2,.57-4.31,1.26-6.82,1.95l-7.84,2.15-7.86,2.06C68.17,65,65.81,65.53,63.8,66,59.77,67,57.07,67.62,57.07,67.62Z"/><path d="M58.56,75.48s2.29-.82,5.75-2c1.74-.56,3.75-1.25,5.93-1.93l6.82-2.13,6.85-2c2.18-.65,4.24-1.2,6-1.71,3.51-1,5.88-1.57,5.88-1.57s-2.29.82-5.75,2c-1.74.56-3.75,1.25-5.93,1.93l-6.82,2.13-6.85,2c-2.18.65-4.24,1.2-6,1.71C60.92,74.88,58.56,75.48,58.56,75.48Z"/><path d="M60.3,70.67l14.28-4.11,5.25-1.5c1.68-.45,3.26-0.82,4.62-1.15,2.72-.63,4.55-1,4.55-1L89,63s-1.75.64-4.42,1.46c-1.34.4-2.89,0.87-4.57,1.33l-5.29,1.33-14.42,3.6Z"/><path d="M63.61,78.78s5.75-1.73,11.53-3.39l4.23-1.24c1.36-.37,2.64-0.66,3.74-0.92,2.2-.49,3.69-0.73,3.69-0.73l0,0.07s-1.41.55-3.56,1.23c-1.08.33-2.33,0.73-3.69,1.09L75.3,76c-5.82,1.47-11.66,2.88-11.66,2.88Z"/><path d="M189.95,50.31l17.34,4.39,6.36,1.62c2,0.54,3.9,1.1,5.51,1.58,3.21,1,5.33,1.7,5.33,1.7l0,0.07s-2.2-.42-5.46-1.2c-1.63-.4-3.53-0.85-5.56-1.4l-6.32-1.79-17.2-4.89Z"/><path d="M182.8,51.2l21.08,5.38,7.74,2c2.46,0.66,4.75,1.33,6.71,1.89,3.92,1.15,6.5,2,6.5,2l0,0.07S222.15,62,218.18,61c-2-.49-4.29-1.05-6.76-1.71l-7.69-2.15-20.95-5.88Z"/><path d="M186,57.49l24.29,6,8.92,2.23c2.84,0.74,5.48,1.48,7.74,2.11,4.52,1.28,7.5,2.22,7.5,2.22l0,0.07s-3.07-.63-7.64-1.72c-2.28-.55-4.94-1.19-7.78-1.93l-8.87-2.4L186,57.56Z"/><path d="M186.21,61.19L206.32,66l7.38,1.77c2.35,0.59,4.53,1.2,6.4,1.71,3.73,1,6.2,1.83,6.2,1.83l0,0.07S223.74,70.88,220,70c-1.89-.44-4.09-0.94-6.44-1.53l-7.34-1.94-20-5.3Z"/><path d="M186.84,68.2l25.78,4.87,9.47,1.79c3,0.6,5.82,1.21,8.22,1.73,4.81,1.06,8,1.86,8,1.86v0.07S235,78,230.2,77.18c-2.42-.44-5.24-1-8.26-1.55l-9.43-2-25.68-5.38V68.2Z"/><path d="M197.07,74.62s3,0.5,7.53,1.34c2.25,0.43,4.89.91,7.7,1.47l8.81,1.76,8.79,1.86c2.81,0.59,5.41,1.2,7.66,1.69,4.48,1,7.45,1.75,7.45,1.75s-3-.5-7.53-1.34c-2.25-.43-4.89-0.9-7.7-1.47L221,79.92l-8.79-1.86c-2.81-.59-5.41-1.2-7.66-1.69C200,75.35,197.07,74.62,197.07,74.62Z"/><path d="M104,57.49l16.49-.26,6.05-.09c1.93,0,3.74.05,5.28,0.09,3.09,0.1,5.15.26,5.15,0.26v0.08s-2.06.16-5.15,0.26c-1.55,0-3.35.09-5.28,0.09l-6.05-.09L104,57.56V57.49Z"/><path d="M107.5,63.79l20.11-1.13,7.39-.41c2.36-.1,4.56-0.14,6.45-0.18,3.78-.06,6.3,0,6.3,0v0.07s-2.51.27-6.28,0.53c-1.89.12-4.08,0.27-6.44,0.37l-7.39.23-20.14.6V63.79Z"/><path d="M110.33,70.67l20.06-.55,7.37-.2c2.35,0,4.55,0,6.43,0,3.76,0,6.27.17,6.27,0.17v0.07s-2.51.2-6.27,0.35c-1.88.07-4.07,0.15-6.42,0.19l-7.37,0-20.07,0V70.67Z"/><path d="M109.26,75.44l19.23-1.26,7.06-.46c2.26-.12,4.36-0.17,6.17-0.23,3.61-.09,6-0.05,6-0.05v0.07s-2.4.29-6,.57c-1.8.13-3.9,0.3-6.16,0.41l-7.07.28-19.26.74V75.44Z"/><path d="M110.33,81.19l18.7-1.1,6.87-.4c2.19-.1,4.24-0.14,6-0.18,3.51-.06,5.86,0,5.86,0v0.07s-2.33.27-5.83,0.52c-1.75.12-3.8,0.26-6,.36l-6.87.22-18.72.57V81.19Z"/><path d="M122.22,84.92s5-.4,10.05-0.72l3.69-.26c1.18-.05,2.28-0.05,3.23-0.06,1.89,0,3.16.12,3.16,0.12v0.07s-1.25.22-3.13,0.4c-0.94.08-2,.19-3.22,0.24l-3.7.08c-5,.13-10.07.2-10.07,0.2V84.92Z"/><path d="M49.73,71.54S48.8,73,47.31,75c-0.76,1-1.63,2.22-2.62,3.46l-3.15,3.85-8.6,10.46-0.06,0L41.07,82l3-4c1-1.25,1.94-2.37,2.76-3.35,1.65-1.93,2.83-3.16,2.83-3.16Z"/><path d="M52.56,74.16s-0.78,1.27-2.07,3.08c-0.65.9-1.4,2-2.26,3.05l-2.74,3.38C41.78,88.28,38,92.85,38,92.85l-0.06,0S41.46,88,45,83.3l2.6-3.49c0.85-1.1,1.69-2.09,2.4-2.94,1.44-1.69,2.48-2.76,2.48-2.76Z"/><path d="M55.42,75.88s-0.75,1.25-2,3c-0.63.89-1.36,1.93-2.18,3l-2.66,3.33c-3.6,4.55-7.25,9.05-7.25,9.05l-0.06,0s3.39-4.71,6.84-9.37l2.51-3.44c0.83-1.08,1.64-2.05,2.33-2.89,1.4-1.67,2.41-2.72,2.41-2.72Z"/><path d="M60.07,78.68s-0.64,1.23-1.72,3c-0.55.87-1.18,1.9-1.9,3l-2.34,3.29c-3.17,4.49-6.4,8.94-6.4,8.94l-0.06,0s3-4.64,6-9.24l2.19-3.39c0.72-1.06,1.44-2,2.06-2.86C59.11,79.69,60,78.64,60,78.64Z"/><path d="M63,81.57s-0.07.18-.22,0.49-0.37.73-.65,1.24-0.64,1.07-1,1.67-0.89,1.19-1.35,1.8c-1.82,2.47-3.69,4.89-3.69,4.89l-0.06,0s1.6-2.61,3.26-5.19c0.41-.65.81-1.3,1.2-1.9S61.3,83.4,61.67,83s0.69-.81.93-1,0.38-.38.38-0.38Z"/><path d="M66.2,83.74s-0.05.16-.17,0.41-0.29.62-.51,1-0.52.89-.85,1.39-0.74,1-1.13,1.48c-1.52,2-3.09,4-3.09,4l-0.06,0s1.3-2.18,2.66-4.33c0.33-.54.66-1.09,1-1.59s0.68-.93,1-1.29,0.58-.66.79-0.85,0.33-.31.33-0.31Z"/><path d="M59.25,78.19S58.39,79.27,57,80.8c-0.7.76-1.52,1.64-2.43,2.55l-2.92,2.78c-4,3.81-8,7.57-8,7.57l-0.05-.05s3.78-4,7.6-7.94L54,82.8c0.91-.91,1.8-1.72,2.56-2.42,1.53-1.38,2.62-2.24,2.62-2.24Z"/><path d="M215.23,12.57s3.46-.78,8.68-1.86l8.91-1.81,10.23-2L253.3,5l9-1.58C267.51,2.52,271,2,271,2s-3.46.78-8.68,1.86l-8.91,1.81-10.23,2L232.94,9.53l-9,1.58C218.73,12,215.23,12.57,215.23,12.57Z"/><path d="M220.34,15.17s2.5-.6,6.26-1.41c1.88-.39,4.08-0.88,6.44-1.35L240.43,11l7.41-1.36c2.37-.44,4.58-0.79,6.48-1.12,3.8-.63,6.34-1,6.34-1s-2.5.6-6.26,1.41c-1.88.39-4.08,0.88-6.44,1.34l-7.39,1.46-7.41,1.36c-2.37.44-4.58,0.79-6.48,1.12C222.88,14.81,220.34,15.17,220.34,15.17Z"/><path class="cls-1" d="M270.89,9.1c0.06,0,0-.07,0-0.08S270.9,9.12,270.89,9.1Z"/><polygon class="cls-1" points="269.92 9.46 269.93 9.43 269.8 9.52 269.92 9.46"/><path class="cls-1" d="M269,9.65a1.15,1.15,0,0,0,.51-0.08l0,0,0.06-.11A3,3,0,0,1,269,9.65Z"/><path class="cls-1" d="M268.44,9.5s-0.1.06,0.12,0h0Z"/><path class="cls-1" d="M268.53,9.49c0.1,0-.07,0,0,0h0Z"/><path class="cls-1" d="M268.08,9.6l0.12-.07s-0.15,0-.11,0C268,9.56,268,9.58,268.08,9.6Z"/><path class="cls-1" d="M268,9.71l0.06,0S268,9.67,268,9.71Z"/><path class="cls-1" d="M268.18,9.62L268,9.68s0,0.05.06,0S268.12,9.65,268.18,9.62Z"/><path class="cls-1" d="M268.26,9.62c0.08,0,.17,0,0.05.07C268.56,9.62,268.51,9.55,268.26,9.62Z"/><path class="cls-1" d="M269,9.77h0.1l0.08-.06A0.61,0.61,0,0,0,269,9.77Z"/><path class="cls-1" d="M267.26,9.71a0.33,0.33,0,0,0,.07.08l0.09,0A0.26,0.26,0,0,1,267.26,9.71Z"/><path class="cls-1" d="M267.34,9.79l-0.14.07C267.33,9.84,267.35,9.82,267.34,9.79Z"/><polygon class="cls-1" points="267.98 9.84 268.2 9.71 267.94 9.85 267.98 9.84"/><polygon class="cls-1" points="266.72 9.82 266.79 9.75 266.66 9.86 266.72 9.82"/><path class="cls-1" d="M266.36,9.9c0.05-.06-0.1-0.06,0-0.1a0.77,0.77,0,0,0-.24.14A0.49,0.49,0,0,1,266.36,9.9Z"/><path class="cls-1" d="M266,10l0.12-.08Z"/><path class="cls-1" d="M267,9.9a0.16,0.16,0,0,0-.13,0l0.07,0.06H267Z"/><path class="cls-1" d="M266.9,9.91h0l-0.12,0Z"/><path class="cls-1" d="M267,9.9h0Z"/><path class="cls-1" d="M267.59,9.86c-0.08.05-.24,0.13-0.06,0.15S267.48,9.94,267.59,9.86Z"/><path class="cls-1" d="M267.06,10l0.16,0s0,0,0-.06Z"/><polygon class="cls-1" points="266.99 10.01 267.06 9.97 267 9.98 266.99 10.01"/><path class="cls-1" d="M266.23,10a0.63,0.63,0,0,1-.21.08l0.27,0S266.32,10,266.23,10Z"/><path class="cls-1" d="M266.56,10h0S266.56,10,266.56,10Z"/><path class="cls-1" d="M265.22,10.27h0Z"/><path class="cls-1" d="M266.3,10.08a0.19,0.19,0,0,0,.14-0.05l-0.15,0S266.28,10.09,266.3,10.08Z"/><path class="cls-1" d="M265.74,10.09h0.12A0.16,0.16,0,0,0,265.74,10.09Z"/><path class="cls-1" d="M266.52,10h0S266.51,10,266.52,10Z"/><path class="cls-1" d="M266.52,10l-0.08.06,0.1,0h0Z"/><path class="cls-1" d="M265.07,10.75a0.27,0.27,0,0,1,.32-0.12c0.14-.08,0-0.26-0.15-0.35,0,0,0,.05-0.14.12,0.06,0,.35,0,0.23.09a0.28,0.28,0,0,1-.27,0c0.1,0.06-.23.17-0.16,0.27l0.17-.08S265,10.74,265.07,10.75Z"/><path class="cls-1" d="M265.52,10.23l0.06,0a0.66,0.66,0,0,1-.23,0,0.17,0.17,0,0,0-.12.1l0.31-.05h0Z"/><path class="cls-1" d="M265.86,10.15c0,0.08-.18.14-0.07,0.19a0.44,0.44,0,0,0,.22-0.13c-0.29.08,0.08-.06-0.14-0.05l0.15-.05h-0.15s0,0,0,0h0v0c-0.09,0,0,0,0,0h0l-0.29.1Z"/><path class="cls-1" d="M267.4,10.19h0S267.37,10.19,267.4,10.19Z"/><path class="cls-1" d="M267.27,10.17a0.15,0.15,0,0,1,.1-0.05c0.06,0,0,0,0,.05s0.14-.08,0-0.09h0A0.5,0.5,0,0,1,267.1,10,0.48,0.48,0,0,0,267.27,10.17Z"/><path class="cls-1" d="M266.56,10.18l-0.24.08,0.14,0v0C266.59,10.25,266.55,10.21,266.56,10.18Z"/><polygon class="cls-1" points="265.18 10.24 265.2 10.16 265.08 10.29 265.18 10.24"/><polygon class="cls-1" points="264.87 10.31 264.87 10.25 264.79 10.3 264.87 10.31"/><path class="cls-1" d="M247.09,14.74l-0.07,0Z"/><path class="cls-1" d="M247.62,14.64v0S247.59,14.64,247.62,14.64Z"/><path class="cls-1" d="M257.07,11.91c-0.12,0-.25-0.1-0.22,0l0,0.06A0.38,0.38,0,0,1,257.07,11.91Z"/><path class="cls-1" d="M251.8,13.41h0l0.06-.08Z"/><path class="cls-1" d="M251.79,13.71l-0.15,0Z"/><path class="cls-1" d="M244.27,15.39l-0.07.09C244.33,15.45,244.26,15.43,244.27,15.39Z"/><path class="cls-1" d="M261.62,11a1,1,0,0,0-.23,0C261.5,11,261.6,11.06,261.62,11Z"/><path class="cls-1" d="M247.15,14s-0.06,0-.05.05S247.16,14,247.15,14Z"/><path class="cls-1" d="M261.12,11.06h0.05a0.92,0.92,0,0,1,.21-0.06A0.32,0.32,0,0,0,261.12,11.06Z"/><path class="cls-1" d="M234,17.44h0Z"/><path class="cls-1" d="M230.81,17.36l0.12,0Z"/><path class="cls-1" d="M263.58,10.54c0.07,0,0,0,0,0h0Z"/><path class="cls-1" d="M264,10.75a0,0,0,0,0,0,0A0.06,0.06,0,0,1,264,10.75Z"/><path class="cls-1" d="M260.54,11.62h0S260.55,11.63,260.54,11.62Z"/><path class="cls-1" d="M263.69,10.55h0Z"/><path class="cls-1" d="M263.67,10.52h0.06S263.73,10.5,263.67,10.52Z"/><path class="cls-1" d="M263.49,10.57l0.11,0h0Z"/><path class="cls-1" d="M239.44,16.13h0C239.36,16.17,239.39,16.16,239.44,16.13Z"/><polygon class="cls-1" points="255.46 12.98 255.46 12.97 255.45 12.97 255.46 12.98"/><path class="cls-1" d="M255.22,13.08a0.23,0.23,0,0,1,.23-0.11l-0.12-.18Z"/><path class="cls-1" d="M245.85,15L246,15c-0.18.14-.34,0.14-0.16,0.19,0-.22.66-0.16,0.64-0.38l0.12,0-0.07,0a1.36,1.36,0,0,0,.42-0.21c0.1,0,.18,0,0.11.05l0.21-.1c0.06,0,.06,0,0,0l0.33-.08h0a1.5,1.5,0,0,1,.19-0.15c0.09,0,0,0,0,.05l0.17-.09c0.09,0-.06.13-0.18,0.14,0.22,0.18.14-.08,0.54,0l-0.17.06a1.07,1.07,0,0,0,.48.06c-0.05,0-.43-0.11-0.24-0.21a0.35,0.35,0,0,0,.23-0.07c0,0.08.12,0,.25,0v0.1a0.48,0.48,0,0,0,.19-0.17,0.24,0.24,0,0,1,.26.11c0.26,0-.2-0.09.1-0.17a1.38,1.38,0,0,0,.6-0.19c0.16,0,0,.07,0,0.09l0.11-.11s0,0,0,0a0.43,0.43,0,0,1,.16-0.17,4.16,4.16,0,0,0,.58-0.08c0.06,0,0,.07,0,0.1a2.1,2.1,0,0,0,.46-0.27l0.22,0c-0.17,0,0-.17.16-0.28l-0.15-.06,0.26-.11s0,0.05,0,.1l0,0c0.1,0,.07.09,0,0.16l-0.11,0a0.25,0.25,0,0,0-.08.21l0.08,0s0,0,0,0a0.13,0.13,0,0,0,.07-0.05l0.08,0.1v0h0.37a2.6,2.6,0,0,1,.81-0.51c-0.08.1,0,.14,0,0.24a1.17,1.17,0,0,0-.52.13c0.11,0,.1,0,0.07.06l0.35-.17c0,0.08.09,0,.2,0.06-0.11-.14.26-0.16,0.4-0.24s0,0.11-.19.14a4.11,4.11,0,0,0,.45-0.18,0.09,0.09,0,0,0-.08,0c0.1-.07.36-0.08,0.31,0h0a1.68,1.68,0,0,0,.93-0.33,0.76,0.76,0,0,1,0,.2l0.44-.56c0,0.12.21,0.36,0,.48a0.57,0.57,0,0,0,.31-0.07c-0.05,0-.16-0.14-0.09-0.17a1.47,1.47,0,0,0,.39.11c-0.08,0,0-.21.08-0.22a0.54,0.54,0,0,1,0,.2l0.25-.24c-0.07,0,0,.15.09,0.19a1.54,1.54,0,0,1,.32-0.08l-0.13,0c0.33,0,.27-0.31.59-0.37,0,0,0,.25.12,0.23a1.45,1.45,0,0,1,.51-0.63L258,12l0.21-.1a4.4,4.4,0,0,1-.62.68,0.29,0.29,0,0,0,.23,0c0.07,0-.08.09-0.14,0.11l0.43-.05a2.75,2.75,0,0,1,.27-0.26l-0.44.2a0.55,0.55,0,0,1,.51-0.4c0.08,0,0,.2,0,0.23a0.57,0.57,0,0,1,.3-0.11l-0.12.08a1.2,1.2,0,0,1,.46-0.14,0.37,0.37,0,0,0,.23,0,0.68,0.68,0,0,1-.18-0.57,2.73,2.73,0,0,1,.48.09,1.74,1.74,0,0,1,0,.32,0.18,0.18,0,0,1,.08-0.1c0.08,0,0,.1.14,0.05,0-.11.32-0.06,0.06-0.11a1.65,1.65,0,0,1,.35-0.05c-0.07-.06.11-0.27,0.26-0.33a0.1,0.1,0,0,0,.06.07c0.32-.05.5,0,0.79-0.1,0,0,.18,0,0.13.08a0.36,0.36,0,0,1,.16-0.09c0.19,0.06-.2.06,0,0.14a0.81,0.81,0,0,1,.34-0.2,0.49,0.49,0,0,0-.42.11,0.61,0.61,0,0,1,.47-0.44c0.24-.08.12,0.06,0.16,0a3.58,3.58,0,0,1,.75-0.29c0.17,0.05,0,.17.09,0.22a1.86,1.86,0,0,1-.45,0h0.17a0.48,0.48,0,0,1-.26.08c0.14,0.05.78-.14,1.15-0.15,0.06,0,.16-0.09.1-0.12l-0.11,0c-0.12,0,.19-0.14,0-0.14a1,1,0,0,1,.51-0.19l0.06,0.09a0.22,0.22,0,0,0-.2,0,0.74,0.74,0,0,0,.42-0.08l-0.16,0a1.18,1.18,0,0,1,.5-0.23,1.41,1.41,0,0,0-.2-0.06c0.14,0.12-.48.09-0.27,0.2a2.06,2.06,0,0,0-.45-0.08s0.08,0-.08.06l0,0h0l0.09,0a1.75,1.75,0,0,1-.39.19c-0.1,0,0,0,0-.07l-0.12.08c0-.07-0.27-0.07-0.06-0.15l-0.2,0a0.72,0.72,0,0,0-.38.05c-0.1,0-.22.13-0.15,0.05l-0.3.11v0a2.79,2.79,0,0,1-1,.19,1.19,1.19,0,0,1-.38.1l0-.05a1.63,1.63,0,0,0-.46.1,1.87,1.87,0,0,0-.89.11V11.4a2.78,2.78,0,0,0-.5.16l0,0.07a3.86,3.86,0,0,1-.72.1,0.15,0.15,0,0,1,.14,0,7.52,7.52,0,0,0-1,.2,0.25,0.25,0,0,1-.18,0h0l-0.11,0,0.09,0-0.22.07-0.05-.07h0c-0.09,0-.06,0,0,0.1l-0.1.07c-0.09-.11-0.21.09-0.33,0a1.24,1.24,0,0,0-.43.28s0,0,0,0a0.48,0.48,0,0,0-.27.06l-0.06-.09-0.18.17c-0.14,0-.2-0.06-0.09-0.16-0.28.18-.23,0.09-0.46,0.26V12.51a0.59,0.59,0,0,1-.28.09c-0.23-.08-1,0.19-1.55.18,0.14,0.16-.26,0-0.25.11,0,0-.12,0,0-0.1a1.38,1.38,0,0,0-.57.17,0.34,0.34,0,0,1,0-.1,0.13,0.13,0,0,1-.11,0s0,0,.07-0.07a0.27,0.27,0,0,0-.26.33,0.25,0.25,0,0,0-.3.09c-0.06,0-.15-0.06,0-0.11a1.07,1.07,0,0,0-.58.16,0.23,0.23,0,0,0-.16,0,4.25,4.25,0,0,0-.44.08h0.06c-0.06.14-.17,0.06-0.33,0.11h0c-0.4,0-.16.08-0.56,0.05l0,0.07a1.14,1.14,0,0,1-.57.08l0.09,0a1.38,1.38,0,0,1-.51-0.15s0,0,.07,0c-0.34,0,0,.11-0.25.18-0.05,0,0-.15-0.13-0.13a2.14,2.14,0,0,1-.67.21c0.06,0,.11.06,0,0.12a1.12,1.12,0,0,0-.61.1l0,0a1.85,1.85,0,0,0-.47.23c-0.17-.24-0.78.29-0.82,0l-0.39.09v0a0.6,0.6,0,0,0-.41.19c-0.06,0,0,0,0,0a1,1,0,0,0-.7.23l0-.07a4.7,4.7,0,0,0-.91.15,0.06,0.06,0,0,1,0,0c-0.39.18-1,0-1.11,0.3L242,15.2c0.35,0,0,.13.13,0.15-0.13,0-.37,0-0.21-0.06h0a1.12,1.12,0,0,0-.46-0.07c-0.69.15-1.37,0.2-2,.33l0.1,0.1-0.23,0c-0.06,0-.1-0.07.06-0.1a0.27,0.27,0,0,0-.26.14c-0.32,0,.09-0.16,0-0.14l-0.13,0h0a0.47,0.47,0,0,1-.29.15,0.2,0.2,0,0,1-.13-0.05s0,0-.07,0l-0.28,0,0.13,0.07c-0.12.07-.27,0-0.12,0.13a4.59,4.59,0,0,0-1.19.13,1.41,1.41,0,0,1-.55.17c0.06,0,.11.1-0.08,0.13,0-.23-0.36,0-0.54-0.14,0.15,0.07-.52.13-0.28,0.23-0.16,0,0-.08-0.15-0.1a10.35,10.35,0,0,1-1.27.23s0.08,0.06,0,.12l-0.27-.09c-0.09,0,0,.18-0.23.11,0,0,.07,0,0,0.07a21.45,21.45,0,0,1-2.75.41c0.13,0,.05.05,0,0.07,0.06,0,0,.07,0,0.1l-0.4,0c0,0.12-.4.09-0.42,0.2l0.12,0c-0.14.15,0.28,0.22,0.28,0.37a3.35,3.35,0,0,0,.76-0.15c0.07,0,0,.06,0,0.09a0.37,0.37,0,0,1,.32-0.12l0,0a9,9,0,0,1,1.21-.15l-0.05-.07a0.52,0.52,0,0,1,.2,0c0.11-.14-0.32.06-0.23-0.09,0.18,0.12.8-.16,0.93,0,0.17,0-.07-0.08.1-0.11l0.06,0,0-.07a0.18,0.18,0,0,1,.2.07l-0.1,0a1.94,1.94,0,0,0,.47-0.1h-0.17a14.87,14.87,0,0,0,1.49-.38l0,0a4.32,4.32,0,0,1,.66-0.13h0a0.66,0.66,0,0,1,.27-0.11c-0.09.06,0.2,0,.08,0.11a0.73,0.73,0,0,0,.4-0.28l0.07,0a0.43,0.43,0,0,1,.26-0.15c-0.15.08,0.14,0.06,0,.17a2.68,2.68,0,0,1,.79-0.1c0.15-.2-0.37,0-0.27-0.07-0.1,0,.13-0.15.26-0.16a1.45,1.45,0,0,0,.58.09l-0.06,0a2,2,0,0,1,.39-0.07c0.06-.11.19,0,0.19-0.16l-0.29.09a1.06,1.06,0,0,1,.58-0.23,0.5,0.5,0,0,1-.14.11c0.09,0,.15-0.06.24,0a1.59,1.59,0,0,1-.51.23c0.1,0,.32-0.16.26,0a1.76,1.76,0,0,1,.51-0.22v0.08a0.51,0.51,0,0,1,.16-0.08l-0.1.12a2.35,2.35,0,0,1,.52-0.08c-0.35.07-.1-0.07-0.26-0.1,0.42-.19.29,0.14,0.78,0-0.06,0-.26,0-0.16-0.05a0.84,0.84,0,0,1,.29,0c0.32-.08-0.07-0.07.06-0.14s0.15-.07.29-0.13l0,0.08c0.38,0,.07-0.18.41-0.19l-0.12.13,0.17-.06,0,0.09a0.74,0.74,0,0,1,.43-0.11c-0.05,0,0-.14.16-0.18s0,0.09.18,0a0.15,0.15,0,0,1-.2.08s0,0.06,0,.09a1,1,0,0,0,.39-0.07h-0.09l0.32-.17c0.06,0,0,0,0,.08a1.83,1.83,0,0,1,.21-0.09,0.18,0.18,0,0,1-.13.19l0.31-.13s0.18,0,.14.07c0.19,0,.41-0.21.66-0.21a0.17,0.17,0,0,1,.08-0.05,1.61,1.61,0,0,0,.68-0.13l0.17,0.08c0.2-.07-0.23-0.1.1-0.21s0.11,0.08.2,0.09a0.69,0.69,0,0,1,.54-0.19A1.11,1.11,0,0,1,245.85,15Zm2.53-.57a0.21,0.21,0,0,1-.18.06C248.24,14.41,248.29,14.44,248.38,14.45Zm3.82-1a0.17,0.17,0,0,1-.16,0A0.35,0.35,0,0,1,252.21,13.48Zm10.65-2.72h0C262.74,10.75,262.78,10.76,262.86,10.76Zm0.23,0s0,0,0,0a0.18,0.18,0,0,1-.12,0A0.1,0.1,0,0,0,263.09,10.74Zm-24.48,5h0C238.56,15.82,238.59,15.79,238.61,15.76Z"/><path class="cls-1" d="M251.79,13.67a0.07,0.07,0,0,1,0,0S251.75,13.67,251.79,13.67Z"/><path class="cls-1" d="M244.28,15.38h0v0Z"/><path class="cls-1" d="M259.69,12.11l-0.1,0S259.62,12.12,259.69,12.11Z"/><path class="cls-1" d="M264.27,10.37l-0.14,0a0.27,0.27,0,0,1,.14,0S264.23,10.38,264.27,10.37Z"/><path class="cls-1" d="M265.64,10.58l0.06,0v0C265.6,10.54,265.54,10.58,265.64,10.58Z"/><path class="cls-1" d="M264.46,10.59c0,0.06.11,0,.21,0h0C264.67,10.49,264.56,10.54,264.46,10.59Z"/><path class="cls-1" d="M264.7,10.57l0.09,0S264.75,10.55,264.7,10.57Z"/><path class="cls-1" d="M263.37,10.64a0.27,0.27,0,0,0,0-.07C263.46,10.48,263.12,10.74,263.37,10.64Z"/><polygon class="cls-1" points="264.59 10.79 264.53 10.71 264.49 10.79 264.59 10.79"/><path class="cls-1" d="M263.77,10.89h0.17s0,0,0,0A0.45,0.45,0,0,0,263.77,10.89Z"/><path class="cls-1" d="M264,10.85a0.35,0.35,0,0,0,.13,0Z"/><polygon class="cls-1" points="264.37 10.86 264.32 10.85 264.2 10.87 264.37 10.86"/><path class="cls-1" d="M262,11.24l-0.17.06s0,0,.1,0S262,11.26,262,11.24Z"/><path class="cls-1" d="M262.59,11.34a0.17,0.17,0,0,1-.09,0v0.1Z"/><path class="cls-1" d="M262.07,11.47s-0.24.13,0,.08C262.07,11.52,262.24,11.46,262.07,11.47Z"/><polygon class="cls-1" points="259.36 11.9 259.41 11.88 259.37 11.73 259.36 11.9"/><path class="cls-1" d="M257.07,12.76c0.22,0,0-.11.23-0.1,0,0-.16,0-0.12-0.05C257.06,12.68,257,12.67,257.07,12.76Z"/><path class="cls-1" d="M257.18,12.61l0.06,0Z"/><polygon class="cls-1" points="230.29 17.37 230.15 17.37 230.25 17.4 230.29 17.37"/><path class="cls-1" d="M230.06,17.54l-0.05-.1-0.06.11A0.16,0.16,0,0,1,230.06,17.54Z"/><path class="cls-1" d="M248.8,14.58v0a0.15,0.15,0,0,0-.12,0Z"/><polygon class="cls-1" points="246.94 14.88 246.98 14.87 246.9 14.79 246.94 14.88"/><path class="cls-1" d="M245.42,15.31l0.2-.05C245.48,15.3,245.38,15.2,245.42,15.31Z"/><path d="M230,20.23s1.52-.43,3.82-1c1.15-.27,2.49-0.61,3.93-0.92l4.52-1,4.54-.88c1.45-.28,2.81-0.49,4-0.7,2.33-.39,3.9-0.58,3.9-0.58s-1.52.43-3.82,1c-1.15.27-2.49,0.61-3.93,0.92l-4.52,1-4.54.88c-1.45.28-2.81,0.49-4,.7C231.57,20,230,20.23,230,20.23Z"/><path d="M230,27.48s1.74-.47,4.38-1.08c1.32-.29,2.85-0.67,4.51-1l5.18-1.07,5.2-1c1.66-.31,3.22-0.55,4.55-0.78,2.67-.43,4.46-0.66,4.46-0.66s-1.74.47-4.38,1.08c-1.32.29-2.85,0.67-4.51,1l-5.18,1.07L239,26c-1.66.31-3.22,0.55-4.55,0.78C231.79,27.25,230,27.48,230,27.48Z"/><path d="M238.3,28.7s1.22-.37,3.08-0.83c0.93-.22,2-0.5,3.18-0.76s2.41-.52,3.66-0.78,2.5-.49,3.68-0.69,2.28-.37,3.22-0.53c1.89-.29,3.16-0.42,3.16-0.42s-1.22.37-3.08,0.83c-0.93.22-2,.5-3.18,0.76s-2.41.52-3.66,0.78-2.5.49-3.68,0.69-2.28.37-3.22,0.53C239.57,28.57,238.3,28.7,238.3,28.7Z"/><path d="M231.5,32.4s1.43-.35,3.59-0.79c1.08-.21,2.34-0.47,3.7-0.71s2.8-.48,4.25-0.72,2.9-.45,4.26-0.63,2.64-.33,3.73-0.47c2.19-.26,3.66-0.37,3.66-0.37s-1.43.35-3.59,0.79c-1.08.21-2.34,0.47-3.7,0.71s-2.8.48-4.25,0.72-2.9.45-4.26,0.63-2.64.33-3.73,0.47C233,32.28,231.5,32.4,231.5,32.4Z"/><path d="M261.82,78.78L281.76,73l7.32-2.11c2.34-.65,4.55-1.2,6.43-1.68,3.78-.94,6.32-1.47,6.32-1.47l0,0.07s-2.46.85-6.18,2c-1.86.56-4,1.21-6.38,1.86l-7.37,1.94-20.08,5.26Z"/><path d="M266.85,81.81s2.34-.75,5.87-1.79c1.77-.51,3.83-1.13,6-1.74l7-1.92,7-1.82c2.23-.58,4.32-1.07,6.11-1.52,3.58-.87,6-1.39,6-1.39s-2.34.75-5.87,1.79c-1.77.51-3.83,1.13-6,1.74l-7,1.91-7,1.82c-2.23.58-4.32,1.07-6.11,1.52C269.25,81.29,266.85,81.81,266.85,81.81Z"/><path d="M268.34,89.67s2.29-.82,5.75-2c1.74-.56,3.75-1.25,5.93-1.93l6.82-2.13,6.85-2c2.18-.65,4.24-1.2,6-1.71,3.51-1,5.88-1.57,5.88-1.57s-2.29.82-5.75,2c-1.74.56-3.75,1.25-5.93,1.93l-6.82,2.13-6.85,2c-2.18.65-4.24,1.2-6,1.71C270.7,89.07,268.34,89.67,268.34,89.67Z"/><path d="M270.08,84.86l14.28-4.11,5.25-1.5c1.68-.45,3.26-0.82,4.62-1.15,2.72-.63,4.55-1,4.55-1l0,0.07s-1.75.64-4.42,1.46c-1.33.4-2.89,0.87-4.57,1.33l-5.29,1.33-14.42,3.6Z"/><path d="M273.39,93s5.75-1.73,11.53-3.39l4.23-1.24c1.36-.37,2.64-0.66,3.74-0.92,2.2-.49,3.69-0.73,3.69-0.73l0,0.07S295.2,87.31,293,88c-1.08.33-2.33,0.73-3.69,1.09l-4.28,1.06C279.25,91.63,273.41,93,273.41,93Z"/><path d="M249.48,32s4.76,0.54,9.5,1.16l3.49,0.43c1.11,0.17,2.14.37,3,.55,1.76,0.37,2.92.7,2.92,0.7v0.07s-1.21,0-3-.18c-0.89-.09-1.94-0.2-3-0.36l-3.46-.61c-4.72-.8-9.43-1.67-9.43-1.67V32Z"/><path d="M-1.08,21.66s1.32-.42,3.33-1c1-.26,2.17-0.58,3.43-0.89s2.61-.62,4-0.93,2.7-.59,4-0.84,2.46-.46,3.48-0.65c2-.36,3.42-0.54,3.42-0.54s-1.32.42-3.33,1c-1,.26-2.17.58-3.43,0.89s-2.61.62-4,.92-2.7.59-4,.84-2.46.46-3.48,0.65C0.29,21.47-1.08,21.66-1.08,21.66Z"/><path d="M3.85,24.54s1.12-.43,2.82-1c0.85-.27,1.84-0.6,2.91-0.92s2.22-.64,3.37-1,2.3-.62,3.39-0.88,2.11-.49,3-0.69c1.75-.38,2.93-0.58,2.93-0.58s-1.12.43-2.82,1c-0.85.27-1.84,0.6-2.91,0.92s-2.22.64-3.37,1-2.3.62-3.39,0.88-2.11.49-3,.69C5,24.34,3.85,24.54,3.85,24.54Z"/><path d="M7.64,27.24s1.25-.46,3.15-1.08c1-.29,2.06-0.66,3.25-1s2.47-.71,3.76-1.07,2.57-.69,3.78-1,2.35-.55,3.32-0.78c1.95-.44,3.26-0.67,3.26-0.67s-1.25.47-3.15,1.08c-1,.29-2.06.66-3.25,1s-2.47.71-3.76,1.07-2.57.68-3.78,1-2.35.55-3.32,0.78C9,27,7.64,27.24,7.64,27.24Z"/><path d="M13.05,30s1-.46,2.65-1.06c0.8-.29,1.73-0.65,2.74-1s2.09-.71,3.17-1.06,2.17-.68,3.2-1,2-.54,2.82-0.77c1.66-.43,2.78-0.66,2.78-0.66s-1,.46-2.65,1.07c-0.8.29-1.73,0.65-2.74,1s-2.09.71-3.17,1.06-2.17.68-3.2,1-2,.54-2.82.77C14.17,29.75,13.05,30,13.05,30Z"/><path d="M160.76,14.28s-2.31,0-5.76,0c-1.73,0-3.75-.07-5.9-0.15l-6.76-.25-6.76-.35c-2.16-.11-4.17-0.27-5.89-0.38-3.45-.24-5.75-0.47-5.75-0.47s2.31,0,5.76,0c1.73,0,3.75.06,5.9,0.15l6.76,0.25,6.76,0.35c2.16,0.11,4.17.27,5.89,0.38C158.46,14.06,160.76,14.28,160.76,14.28Z"/><path d="M159.56,16.62s-2.23,0-5.58,0c-1.67,0-3.62,0-5.71-.12l-6.54-.22L135.19,16c-2.09-.1-4-0.25-5.7-0.35-3.34-.23-5.56-0.44-5.56-0.44s2.23,0,5.58,0c1.67,0,3.62,0,5.71.12l6.54,0.22,6.54,0.32c2.09,0.1,4,.25,5.7.35C157.34,16.41,159.56,16.62,159.56,16.62Z"/><path d="M158.09,19.49s-2.15-.06-5.36-0.24c-1.6-.1-3.48-0.19-5.48-0.35L141,18.43l-6.27-.58c-2-.18-3.86-0.41-5.46-0.57-3.2-.36-5.32-0.66-5.32-0.66s2.15,0.06,5.36.24c1.6,0.1,3.48.19,5.48,0.35L141,17.69l6.27,0.58c2,0.18,3.86.41,5.46,0.57C156,19.19,158.09,19.49,158.09,19.49Z"/><path d="M136.76,20.72s0.15-.91.46-2.25,0.78-3.11,1.31-4.86,1.12-3.48,1.61-4.77S141,6.72,141,6.72s-0.15.91-.46,2.25-0.78,3.11-1.31,4.86-1.13,3.48-1.61,4.77S136.76,20.72,136.76,20.72Z"/><path d="M138.89,22.72s0.15-.75.46-1.84,0.77-2.53,1.3-4,1.11-2.81,1.6-3.84,0.86-1.7.86-1.7-0.15.75-.46,1.85-0.77,2.53-1.3,3.95S140.23,20,139.75,21,138.89,22.72,138.89,22.72Z"/><path d="M141.74,22.72s0.25-.92.7-2.28c0.24-.67.5-1.46,0.81-2.3s0.66-1.72,1-2.6S145,13.8,145.37,13s0.73-1.56,1-2.21c0.62-1.28,1.09-2.12,1.09-2.12s-0.25.92-.7,2.28c-0.24.67-.49,1.46-0.81,2.3s-0.66,1.72-1,2.6-0.73,1.75-1.1,2.56-0.73,1.56-1,2.21C142.21,21.89,141.74,22.72,141.74,22.72Z"/></svg>