<svg id="Slip_lines_grains_elongated" data-name="Slip lines (grains elongated" xmlns="http://www.w3.org/2000/svg" viewBox="0 0 500 100"><title>M_SlipLinesGrainElongated</title><path d="M108.3,14.24L121,14l13.06-.17,15-.12,15,0,13.06,0.06,12.74,0.15-12.74.27L164,14.32l-15,.12-15,0L121,14.4Z"/><path d="M102.93,16.46L118,16.39l15.43,0,17.69,0.12,17.69,0.22L184.23,17l15.05,0.36-15.06.07-15.43,0-17.69-.12-17.69-.22L118,16.81Z"/><path d="M97.62,19.63l17.9,0.15L133.87,20l21,0.37,21,0.47,18.34,0.48,17.89,0.57-17.9-.15-18.35-.25-21-.37-21-.47-18.34-.48Z"/><path d="M112.64,22.88L127,23.06l14.76,0.29,16.92,0.41,16.92,0.51,14.75,0.51,14.39,0.6-14.4-.18-14.76-.29L158.7,24.5,141.79,24,127,23.48Z"/><path d="M123.33,25.38s0.78-.12,1.94-0.21S128,25,129.54,25s3.1,0.06,4.27.16,1.94,0.22,1.94.22-0.78.12-1.94,0.22-2.72.16-4.27,0.16-3.1-.07-4.27-0.16S123.33,25.38,123.33,25.38Z"/><path d="M129.54,50.33s2.28-.39,5.72-0.88c1.72-.23,3.72-0.53,5.87-0.8l6.74-.83,6.75-.73c2.16-.24,4.17-0.4,5.9-0.57,3.46-.31,5.77-0.46,5.77-0.46s-2.28.39-5.72,0.88c-1.72.23-3.72,0.53-5.87,0.8l-6.74.83-6.76.73c-2.16.24-4.17,0.4-5.9,0.57C131.85,50.19,129.54,50.33,129.54,50.33Z"/><path d="M138.42,52.11s1.3-.31,3.25-0.68c1-.18,2.12-0.4,3.35-0.61s2.54-.41,3.85-0.6,2.63-.37,3.86-0.52,2.39-.26,3.38-0.37c2-.2,3.31-0.27,3.31-0.27s-1.3.31-3.25,0.68c-1,.18-2.12.41-3.35,0.61s-2.54.41-3.85,0.6-2.63.37-3.86,0.51-2.39.26-3.38,0.37C139.75,52,138.42,52.11,138.42,52.11Z"/><path d="M146.39,54s1.4-.33,3.52-0.75c1.06-.19,2.29-0.44,3.62-0.67s2.74-.45,4.16-0.68,2.84-.42,4.17-0.59,2.58-.31,3.65-0.43c2.14-.23,3.58-0.33,3.58-0.33s-1.4.34-3.52,0.75c-1.06.19-2.29,0.45-3.62,0.67s-2.74.45-4.16,0.68-2.84.42-4.17,0.59S151,53.58,150,53.7C147.82,53.94,146.39,54,146.39,54Z"/><path d="M154.94,56.07l0.54-.18c0.34-.12.83-0.24,1.42-0.4s1.29-.29,2-0.42,1.56-.19,2.37-0.29c3.22-.42,6.45-0.78,6.45-0.78v0.07s-3.18.68-6.36,1.3c-0.8.16-1.59,0.34-2.34,0.47s-1.46.2-2.07,0.24-1.12.07-1.48,0.07H155V56.07Z"/><path d="M161.35,57s1.21-.35,3-0.73c0.92-.18,2-0.4,3.15-0.58l3.64-.47c4.95-.66,9.9-1.26,9.9-1.26v0.07s-4.91.92-9.83,1.78l-3.61.65c-1.16.18-2.24,0.29-3.17,0.39-1.87.18-3.12,0.22-3.12,0.22V57Z"/><path d="M167.76,59.17L168,59a7.26,7.26,0,0,1,.75-0.26,7.68,7.68,0,0,1,1.08-.22c0.4,0,.83,0,1.26-0.06,1.72-.1,3.44-0.14,3.44-0.14v0.07s-1.69.36-3.38,0.66c-0.42.08-.84,0.18-1.24,0.24a7.68,7.68,0,0,1-1.1,0,7.26,7.26,0,0,1-.79-0.08l-0.3-.06V59.17Z"/><path d="M193.7,69.24s3.37,0.52,8.42,1.38l8.61,1.51,9.85,1.81,9.84,1.91c3.14,0.61,6.06,1.23,8.57,1.73,5,1,8.34,1.79,8.34,1.79S244,78.85,238.91,78c-2.52-.44-5.46-0.93-8.61-1.51l-9.85-1.81-9.84-1.91L202,71C197,70,193.7,69.24,193.7,69.24Z"/><path d="M189.82,72.41s4,0.47,10,1.26l10.26,1.39,11.75,1.67,11.73,1.77,10.22,1.61c6,1,10,1.67,10,1.67s-4-.47-10-1.25l-10.26-1.39-11.75-1.67L210,75.7l-10.22-1.61C193.8,73.11,189.82,72.41,189.82,72.41Z"/><path d="M186.36,75.23l11.95,1.33L210.54,78l14,1.76,14,1.86,12.2,1.69,11.89,1.75L250.7,83.77,238.47,82.3l-14-1.76-14-1.86L198.25,77Z"/><path d="M183.78,77.52l13.35,1.66L210.8,81l15.66,2.14,15.65,2.24,13.64,2L269,89.45,255.69,87.8,242,86l-15.66-2.14-15.65-2.24-13.64-2Z"/><path d="M181.29,79.37l3.12,0.37,8.23,1,11.62,1.5L217.58,84l13.3,1.9,11.59,1.73L250.66,89l3.11,0.5-3.12-.37-8.23-1-11.62-1.5-13.31-1.8-13.3-1.9-11.59-1.73-8.19-1.29Z"/><path d="M178.33,81.78s2.26,0.27,5.64.75c1.69,0.26,3.66.52,5.77,0.87l6.6,1.08,6.58,1.17c2.1,0.37,4.05.78,5.73,1.09,3.35,0.66,5.57,1.17,5.57,1.17s-2.26-.26-5.64-0.75c-1.69-.26-3.66-0.52-5.77-0.87l-6.6-1.08L189.63,84c-2.1-.37-4.05-0.78-5.73-1.09C180.55,82.28,178.33,81.78,178.33,81.78Z"/><path d="M175.1,84.41l3,0.51,8,1.36,11.25,2,12.88,2.38,12.86,2.48,11.21,2.23L242.21,97l3,0.63-3-.51-8-1.36-11.25-2-12.88-2.38-12.86-2.48L186,86.69,178.1,85Z"/><path d="M273.42,47.41s1.68,1.15,4.14,2.94c1.22,0.91,2.67,1.94,4.18,3.09l4.74,3.61,4.68,3.69c1.5,1.18,2.86,2.32,4,3.28,2.35,1.94,3.88,3.27,3.88,3.27s-1.68-1.15-4.14-2.94c-1.22-.91-2.67-1.94-4.18-3.1L286,57.65,281.34,54c-1.5-1.18-2.86-2.32-4-3.28C275,48.74,273.42,47.41,273.42,47.41Z"/><path d="M269,48.2s1.59,1,3.92,2.67c1.16,0.83,2.52,1.76,4,2.81L281.39,57l4.43,3.37c1.41,1.07,2.7,2.12,3.82,3,2.22,1.77,3.66,3,3.66,3s-1.59-1-3.92-2.67c-1.16-.83-2.53-1.76-4-2.81l-4.48-3.29-4.42-3.37c-1.41-1.07-2.7-2.12-3.82-3C270.48,49.43,269,48.2,269,48.2Z"/><path d="M262.65,47.79s1.55,1.11,3.82,2.83c1.13,0.88,2.46,1.87,3.85,3l4.36,3.48,4.3,3.56c1.38,1.13,2.62,2.24,3.71,3.16,2.16,1.87,3.55,3.16,3.55,3.16s-1.55-1.11-3.82-2.83c-1.13-.88-2.46-1.87-3.85-3l-4.36-3.48-4.3-3.56c-1.37-1.14-2.62-2.24-3.71-3.16C264.05,49.08,262.65,47.79,262.65,47.79Z"/><path d="M257.59,47.79s1.55,1.07,3.81,2.73c1.12,0.85,2.46,1.81,3.85,2.88l4.36,3.37,4.3,3.45c1.37,1.1,2.62,2.17,3.71,3.06,2.15,1.81,3.55,3.07,3.55,3.07s-1.55-1.06-3.82-2.73c-1.12-.85-2.46-1.8-3.85-2.88l-4.36-3.37-4.3-3.45c-1.37-1.1-2.62-2.17-3.71-3.06C259,49,257.59,47.79,257.59,47.79Z"/><path d="M258.42,52.11s0.84,0.45,2,1.21c0.6,0.39,1.31.82,2,1.32s1.52,1,2.29,1.58,1.53,1.11,2.24,1.66,1.35,1.07,1.91,1.51c1.1,0.9,1.8,1.55,1.8,1.55s-0.84-.45-2-1.21c-0.6-.39-1.31-0.82-2-1.32s-1.51-1-2.29-1.58-1.53-1.11-2.24-1.66-1.35-1.07-1.91-1.51C259.12,52.76,258.42,52.11,258.42,52.11Z"/><path d="M250.59,47.41s1.34,1,3.29,2.57c1,0.8,2.11,1.7,3.3,2.72l3.74,3.17,3.67,3.25c1.17,1,2.23,2,3.15,2.89,1.83,1.71,3,2.89,3,2.89s-1.34-1-3.29-2.57c-1-.8-2.11-1.7-3.3-2.72l-3.73-3.17-3.67-3.25c-1.17-1-2.23-2-3.15-2.89C251.77,48.59,250.59,47.41,250.59,47.41Z"/><path d="M39.59,91s3.62-.32,9.06-0.7l9.29-.62,10.65-.62,10.66-.52,9.3-.39c5.45-.2,9.08-0.28,9.08-0.28s-3.62.32-9.06,0.7l-9.29.61-10.65.62L58,90.37l-9.3.39C43.22,91,39.59,91,39.59,91Z"/><path d="M38.18,93.32s4-.36,9.89-0.81l10.15-.73L69.86,91l11.64-.66,10.16-.5c5.95-.27,9.92-0.39,9.92-0.39s-4,.36-9.89.81L81.54,91l-11.64.76-11.64.66-10.16.5C42.15,93.2,38.18,93.32,38.18,93.32Z"/><path d="M37.06,95.14s3.79-.23,9.49-0.5l9.73-.41,11.16-.38,11.16-.29,9.74-.18c5.7-.08,9.5-0.07,9.5-0.07s-3.79.23-9.49,0.5l-9.73.41-11.16.38-11.16.28-9.74.18C40.86,95.15,37.06,95.14,37.06,95.14Z"/><path d="M33.51,97.67s3.86-.21,9.66-0.44l9.9-.35,11.35-.32,11.36-.22,9.91-.12c5.8,0,9.67,0,9.67,0s-3.86.21-9.66,0.44L75.8,97l-11.35.32-11.36.22-9.91.12C37.38,97.69,33.51,97.67,33.51,97.67Z"/><path d="M33.51,100.15l12.36-.6L58.54,99l14.53-.51,14.53-.41,12.68-.28,12.37-.18-12.36.6-12.67.51-14.53.5-14.53.41L45.88,100Z"/><path d="M75,50.35s0,0.14,0,.38-0.11.58-.2,1A12.19,12.19,0,0,1,74.28,53c-0.2.47-.44,1-0.67,1.45-0.88,2-1.83,3.94-1.83,3.94l-0.07,0s0.64-2.08,1.34-4.14c0.17-.52.32-1,0.5-1.52a12.19,12.19,0,0,1,.59-1.26c0.2-.36.37-0.66,0.52-0.85s0.22-.31.22-0.31Z"/><path d="M77.62,50s0,0.2-.09.55-0.18.84-.32,1.42-0.35,1.25-.59,2-0.57,1.44-.86,2.18c-1.15,3-2.37,5.93-2.37,5.93L73.3,62s0.91-3.06,1.87-6.11c0.23-.76.46-1.53,0.69-2.24s0.51-1.35.77-1.9,0.47-1,.64-1.31,0.27-.49.27-0.49Z"/><path d="M80.12,50S80,51,79.56,52.61c-0.2.78-.44,1.69-0.74,2.65s-0.68,2-1,3C76.4,62.31,75,66.36,75,66.36l-0.07,0s1.13-4.15,2.33-8.27c0.29-1,.57-2.07.86-3s0.64-1.84.92-2.6c0.58-1.51,1.06-2.48,1.06-2.48Z"/><path d="M82.31,50s0,0.15,0,.42,0,0.64-.08,1.09A14.61,14.61,0,0,1,82,53c-0.14.54-.32,1.11-0.49,1.68-0.64,2.29-1.35,4.56-1.35,4.56L80,59.2s0.39-2.35.84-4.69c0.1-.59.2-1.17,0.31-1.72a14.6,14.6,0,0,1,.44-1.46c0.16-.42.29-0.77,0.41-1s0.19-.38.19-0.38Z"/><path d="M85.87,49.55s0,0.19-.06.52-0.13.79-.24,1.34-0.28,1.18-.48,1.85-0.49,1.36-.74,2.06c-1,2.82-2,5.61-2,5.61l-0.07,0S83,58,83.76,55.14c0.19-.72.37-1.45,0.57-2.12s0.44-1.28.66-1.8,0.41-.95.56-1.24,0.24-.46.24-0.46Z"/><path d="M87.48,49.54a1.68,1.68,0,0,1,.09.21,3.73,3.73,0,0,1,.26,1.32c0,0.28-.06.59-0.09,0.89-0.1,1.21-.26,2.42-0.26,2.42H87.4s-0.17-1.21-.26-2.42c0-.3-0.08-0.6-0.09-0.89a3.73,3.73,0,0,1,.26-1.32,1.68,1.68,0,0,1,.09-0.21h0.07Z"/><path d="M308.79,6.32s1.54-.25,3.85-0.54c1.16-.13,2.5-0.31,3.95-0.46s3-.3,4.54-0.44,3.09-.25,4.54-0.35,2.81-.16,4-0.22c2.33-.11,3.88-0.12,3.88-0.12s-1.53.25-3.85,0.54c-1.16.13-2.5,0.31-3.95,0.46s-3,.3-4.54.44-3.09.25-4.54,0.35-2.81.16-4,.22C310.34,6.31,308.79,6.32,308.79,6.32Z"/><path d="M292.74,12.44s3-.46,7.59-1.06c2.28-.29,4.94-0.65,7.79-1l8.94-1L326,8.41c2.86-.31,5.53-0.53,7.81-0.76,4.58-.42,7.63-0.64,7.63-0.64s-3,.46-7.59,1.06c-2.28.28-4.94,0.65-7.79,1l-8.94,1-8.95.95c-2.86.3-5.53,0.53-7.81,0.76C295.79,12.22,292.74,12.44,292.74,12.44Z"/><path d="M289.28,15.27s3.34-.43,8.37-1l8.59-.92,9.85-1,9.86-.88c3.15-.28,6.09-0.49,8.61-0.7,5-.38,8.41-0.58,8.41-0.58s-3.34.44-8.37,1c-2.51.27-5.44,0.61-8.59,0.92l-9.85,1-9.86.88-8.61.69C292.64,15.07,289.28,15.27,289.28,15.27Z"/><path d="M284.18,19.42l2.79-.36,7.36-.94,10.41-1.23,11.94-1.33,12-1.23,10.43-1c3.05-.3,5.6-0.48,7.39-0.64l2.8-.24-2.79.36c-1.78.22-4.31,0.58-7.36,0.94L328.7,15l-11.94,1.33-12,1.23-10.43,1-7.39.64Z"/><path d="M281.18,21.92s1.22-.24,3.05-0.51c0.92-.12,2-0.29,3.14-0.43s2.38-.27,3.61-0.4,2.46-.23,3.62-0.31,2.24-.13,3.16-0.19c1.85-.09,3.1-0.09,3.1-0.09s-1.22.24-3.05,0.51c-0.92.12-2,.29-3.14,0.43s-2.38.27-3.61,0.4-2.46.23-3.62,0.31-2.24.13-3.16,0.19C282.42,21.92,281.18,21.92,281.18,21.92Z"/><path d="M276.11,24.13l13.44-1.59L303.33,21l15.81-1.68L335,17.75l13.81-1.31,13.48-1.18-13.44,1.59L335,18.39l-15.81,1.68L303.4,21.65,289.59,23Z"/><path d="M370.88,15.27s-2.32.45-5.81,1c-1.75.28-3.78,0.64-6,1l-6.85,1-6.87.93c-2.19.3-4.25,0.52-6,.74-3.52.41-5.87,0.63-5.87,0.63s2.32-.45,5.81-1c1.75-.28,3.78-0.64,6-1l6.85-1,6.87-.93c2.19-.3,4.25-0.52,6-0.74C368.53,15.48,370.88,15.27,370.88,15.27Z"/><path d="M373.56,17.93s-2.84.43-7.11,1c-2.14.26-4.62,0.6-7.3,0.91l-8.37,1-8.39.86c-2.68.28-5.18,0.48-7.32,0.68-4.29.37-7.15,0.56-7.15,0.56s2.84-.43,7.11-1c2.14-.26,4.62-0.6,7.3-0.91l8.37-1,8.39-.86c2.68-.28,5.18-0.48,7.32-0.68C370.7,18.12,373.56,17.93,373.56,17.93Z"/><path d="M375.6,21s-3.51.47-8.79,1.1l-9,1-10.35,1.09-10.36,1-9,.8c-5.3.44-8.84,0.68-8.84,0.68s3.51-.48,8.79-1.1l9-1,10.35-1.09,10.36-1,9-.8C372.06,21.19,375.6,21,375.6,21Z"/><path d="M378.53,22.88s-4,.46-10.08,1.06l-10.34,1-11.86,1-11.87.94L324,27.66c-6.06.42-10.11,0.64-10.11,0.64s4-.46,10.08-1.06l10.34-1,11.86-1,11.87-.94,10.36-.75C374.48,23.1,378.53,22.88,378.53,22.88Z"/><path d="M33.5,32.7s1.11-.76,2.85-1.77c0.87-.5,1.89-1.08,3-1.66l3.53-1.73c4.79-2.38,9.62-4.69,9.62-4.69l0,0.07s-4.67,2.61-9.37,5.16L39.7,30c-1.11.58-2.18,1.07-3.08,1.5-1.83.83-3.09,1.31-3.09,1.31Z"/><path d="M38.17,33.52s1.31-.87,3.33-2c1-.58,2.2-1.26,3.49-1.95l4.09-2.06c5.56-2.82,11.16-5.58,11.16-5.58l0,0.07S54.83,25,49.36,28l-4,2.22c-1.29.68-2.52,1.27-3.58,1.78-2.12,1-3.57,1.59-3.57,1.59Z"/><path d="M43,34.37s1.37-1,3.49-2.27c1.07-.65,2.31-1.41,3.66-2.17l4.3-2.32L66.14,21.3l0,0.07L54.73,28.13l-4.21,2.48c-1.36.77-2.65,1.43-3.75,2C44.55,33.75,43,34.43,43,34.43Z"/><path d="M50.44,35.68s1.13-.93,2.89-2.22c0.89-.63,1.92-1.38,3.06-2.13L60,29c4.91-3.13,9.86-6.2,9.86-6.2l0,0.06s-4.76,3.35-9.57,6.64L56.82,32c-1.14.75-2.23,1.41-3.16,2-1.88,1.12-3.18,1.79-3.18,1.79Z"/><path d="M91.74,41.67s-1.53-.47-3.77-1.3c-1.12-.43-2.42-0.92-3.79-1.49L79.91,37c-5.83-2.55-11.63-5.17-11.63-5.17l0-.07s5.93,2.31,11.83,4.69l4.34,1.73c1.37,0.58,2.64,1.17,3.72,1.66,2.16,1,3.57,1.78,3.57,1.78Z"/><path d="M93,40.33s-1.39-.45-3.42-1.24c-1-.41-2.19-0.88-3.44-1.43l-3.86-1.82c-5.27-2.46-10.5-5-10.5-5l0-.07S77.14,33,82.48,35.28l3.93,1.66c1.24,0.56,2.38,1.12,3.36,1.6,1.95,1,3.21,1.72,3.21,1.72Z"/><path d="M95.34,39.5s-1.55-.59-3.8-1.6c-1.12-.51-2.44-1.11-3.82-1.79l-4.29-2.23-11.69-6.1,0-.07,11.92,5.63,4.37,2.07c1.38,0.69,2.65,1.38,3.74,2,2.17,1.19,3.57,2.07,3.57,2.07Z"/><path d="M98.9,38.25s-1.54-.66-3.79-1.78c-1.12-.57-2.43-1.22-3.8-2L87,32.06,75.44,25.41l0-.07,11.86,6.19,4.35,2.28c1.37,0.75,2.63,1.5,3.71,2.14,2.15,1.29,3.54,2.23,3.54,2.23Z"/><path d="M103.26,36.74s-1.68-.64-4.13-1.73c-1.22-.55-2.65-1.19-4.16-1.93L90.3,30.69,77.56,24.16l0-.07,13,6.05,4.76,2.23c1.51,0.74,2.89,1.47,4.07,2.1,2.36,1.27,3.9,2.2,3.9,2.2Z"/><path d="M108.28,34.44s-1.83-.63-4.51-1.71c-1.34-.55-2.9-1.18-4.56-1.91l-5.14-2.37L80.07,22l0-.07,14.21,6,5.22,2.21c1.65,0.73,3.17,1.46,4.48,2.08,2.6,1.26,4.3,2.19,4.3,2.19Z"/><path d="M25.09,68.16s-1.33.07-3.31,0c-1,0-2.15-.06-3.39-0.15l-3.87-.36c-5.27-.47-10.53-1-10.53-1V66.59s5.29,0.21,10.57.48l3.88,0.18c1.24,0.09,2.39.22,3.37,0.33,2,0.24,3.28.49,3.28,0.49v0.07Z"/><path d="M30.5,66.38s-1.6,0-4-.23c-1.19-.11-2.58-0.22-4.06-0.41l-4.62-.66c-6.3-.87-12.59-1.82-12.59-1.82V63.2s6.33,0.61,12.66,1.3L22.56,65c1.48,0.18,2.85.41,4,.59,2.35,0.39,3.91.74,3.91,0.74v0.07Z"/><path d="M38.18,64.83S36,64.64,32.8,64.21c-1.61-.22-3.49-0.48-5.49-0.8L21,62.3,4,59.25V59.17L21.14,61.7l6.29,0.94c2,0.33,3.86.68,5.46,1,3.19,0.62,5.3,1.13,5.3,1.13v0.07Z"/><path d="M43,63.27s-2.39-.24-5.94-0.74C35.28,62.28,33.21,62,31,61.61l-6.92-1.26L5.25,56.91V56.84l18.92,2.92,6.95,1.08c2.21,0.37,4.27.77,6,1.11C40.68,62.64,43,63.2,43,63.2v0.07Z"/><path d="M42.08,60.09s-2.12-.19-5.29-0.6c-1.58-.22-3.43-0.46-5.39-0.78l-6.15-1.09-16.75-3V54.55L25.34,57l6.18,0.92c2,0.32,3.8.67,5.36,1C40,59.52,42.09,60,42.09,60v0.07Z"/><path d="M20.18,54.07s-1-.06-2.58-0.28c-0.77-.12-1.66-0.26-2.61-0.46S13,52.85,12,52.6c-4-1-8-2-8-2l0-.07s4.08,0.7,8.15,1.47c1,0.18,2,.36,3,0.55S17,53,17.72,53.21c1.5,0.42,2.47.79,2.47,0.79Z"/><path d="M327.92,57.27c3.42,1.42,6.8,2.91,10.18,4.41,1.7,0.74,3.37,1.53,5.05,2.29l5,2.31-0.07,0,5.15,1.25c1.72,0.42,3.43.82,5.14,1.27,3.42,0.87,6.84,1.75,10.25,2.71-3.47-.66-6.93-1.4-10.38-2.15-1.73-.36-3.45-0.77-5.17-1.16L348,67h0l0,0-5-2.37c-1.67-.8-3.35-1.57-5-2.39C334.53,60.6,331.21,59,327.92,57.27Z"/><path d="M331.92,55.07c3.44,1.43,6.85,2.91,10.25,4.41s6.79,3,10.18,4.57l-0.06,0c2.2,0.57,4.39,1.18,6.58,1.79l6.57,1.82L372,69.52c2.18,0.65,4.36,1.29,6.53,2-2.22-.51-4.42-1.05-6.63-1.59l-6.61-1.67-6.59-1.74c-2.2-.58-4.4-1.15-6.59-1.77H352c-3.37-1.58-6.75-3.12-10.1-4.74S335.24,56.75,331.92,55.07Z"/><path d="M335.55,52.31c3.86,1.65,7.68,3.37,11.5,5.11,1.92,0.85,3.81,1.76,5.71,2.64l5.7,2.66-0.09,0,6,1.09c2,0.37,4,.72,6,1.11,4,0.77,8,1.54,11.94,2.4-4-.56-8-1.19-12-1.84-2-.31-4-0.67-6-1l-6-1h0l0,0-5.68-2.71c-1.89-.91-3.79-1.8-5.67-2.73C343,56.1,339.27,54.24,335.55,52.31Z"/><path d="M341.44,50l7.48,4c2.24,1.22,4.87,2.6,7.69,4.06,1.42,0.72,2.88,1.48,4.4,2.12a6.75,6.75,0,0,0,1.1.37c0.39,0.09.83,0.08,1.25,0.16,0.87,0.12,1.7.26,2.54,0.39,3.35,0.58,6.69,1.21,9.83,1.79s6,1.2,8.54,1.69c5,1,8.31,1.78,8.31,1.78s-3.36-.52-8.39-1.36l-18.42-3.16-2.49-.41c-0.41-.08-0.82-0.08-1.26-0.18a6.68,6.68,0,0,1-1.28-.43c-1.56-.68-3-1.45-4.43-2.19-2.82-1.5-5.39-3-7.6-4.27C344.32,51.77,341.44,50,341.44,50Z"/><path d="M349.25,50q4.93,2.15,9.81,4.4c1.63,0.75,3.27,1.48,4.88,2.25l4.86,2.29-0.1,0c5,0.63,10,1.38,15,2.07s10,1.5,14.92,2.35c-5-.5-10-1.11-15-1.72s-10-1.27-15-2h-0.06l0,0-4.84-2.34c-1.62-.77-3.21-1.59-4.82-2.38Q354,52.43,349.25,50Z"/><path d="M356.29,50.33s1.77,0.6,4.39,1.58c1.31,0.5,2.84,1,4.47,1.68l5.11,2c0.87,0.34,1.74.67,2.59,1,0.43,0.15.86,0.3,1.27,0.43l0.3,0.08,0.08,0h0.14a3.76,3.76,0,0,1,.75,0c1.76,0.27,3.33.71,4.69,1,2.71,0.7,4.49,1.27,4.49,1.27L380,58.54c-1.37-.27-3-0.57-4.68-0.81a2.82,2.82,0,0,0-.57,0h-0.19a0.88,0.88,0,0,1-.25,0c-0.14,0-.24-0.06-0.36-0.08-0.45-.12-0.88-0.27-1.32-0.42-0.87-.3-1.75-0.62-2.63-0.94l-5.09-2c-1.62-.66-3.11-1.34-4.39-1.9C358,51.16,356.29,50.33,356.29,50.33Z"/><path d="M220.52,29.3s0.87-.12,2.17-0.21,3-.16,4.77-0.16,3.47,0.06,4.77.16,2.17,0.22,2.17.22-0.87.12-2.17,0.22-3,.16-4.77.16-3.47-.07-4.77-0.16S220.52,29.3,220.52,29.3Z"/><path d="M214.22,31.8s2.07-.12,5.17-0.21c1.55,0,3.36-.1,5.3-0.11l6.08,0,6.08,0c1.94,0,3.75.08,5.3,0.11,3.1,0.09,5.17.21,5.17,0.21s-2.07.12-5.17,0.21c-1.55,0-3.36.1-5.3,0.11l-6.08,0-6.08,0c-1.94,0-3.75-.08-5.3-0.11C216.29,31.92,214.22,31.8,214.22,31.8Z"/><path d="M225.85,35.56s2-.12,5-0.21c1.49,0,3.22-.1,5.08-0.11l5.83,0,5.83,0c1.86,0,3.6.08,5.08,0.11,3,0.09,5,.21,5,0.21s-2,.12-5,0.21c-1.49,0-3.22.1-5.08,0.11l-5.83,0-5.83,0c-1.86,0-3.6-.08-5.08-0.11C227.83,35.68,225.85,35.56,225.85,35.56Z"/><path d="M234.39,38.48s1.81-.12,4.52-0.21c1.36,0,2.94-.1,4.63-0.11l5.31,0,5.31,0c1.69,0,3.28.08,4.63,0.11,2.71,0.09,4.52.21,4.52,0.21s-1.81.12-4.52,0.21c-1.36,0-2.94.1-4.63,0.11l-5.31,0-5.31,0c-1.69,0-3.28-.08-4.63-0.11C236.2,38.6,234.39,38.48,234.39,38.48Z"/><path d="M383.57,27s1-.67,2.46-1.6c0.75-.45,1.62-1,2.57-1.55s2-1.13,3-1.7,2.06-1.12,3-1.62,1.9-.95,2.68-1.34c1.58-.77,2.66-1.23,2.66-1.23s-1,.67-2.46,1.6c-0.75.45-1.62,1-2.57,1.55s-2,1.13-3,1.7-2.06,1.12-3,1.62-1.9.95-2.68,1.34C384.65,26.52,383.57,27,383.57,27Z"/><path d="M388.39,28.29s1.21-.86,3.07-2.07c0.94-.59,2-1.31,3.2-2s2.45-1.49,3.72-2.26,2.55-1.5,3.76-2.18,2.35-1.29,3.32-1.83c2-1.05,3.29-1.71,3.29-1.71s-1.21.86-3.07,2.07c-0.94.59-2,1.31-3.2,2s-2.45,1.49-3.72,2.26-2.55,1.5-3.76,2.18-2.35,1.29-3.32,1.83C389.72,27.64,388.39,28.29,388.39,28.29Z"/><path d="M392.59,29.44s1.21-.73,3.06-1.75c0.93-.5,2-1.1,3.18-1.71s2.43-1.25,3.68-1.88,2.53-1.24,3.72-1.8,2.32-1.06,3.28-1.5c1.93-.86,3.24-1.38,3.24-1.38s-1.21.73-3.06,1.75c-0.93.5-2,1.1-3.18,1.71s-2.43,1.25-3.68,1.88-2.53,1.24-3.72,1.8-2.32,1.06-3.28,1.5C393.9,28.92,392.59,29.44,392.59,29.44Z"/><path d="M397.77,31.77s1.15-.86,2.92-2.07c0.89-.59,1.92-1.31,3-2s2.33-1.49,3.53-2.26,2.43-1.5,3.58-2.18,2.24-1.29,3.17-1.83c1.86-1.06,3.14-1.71,3.14-1.71s-1.15.86-2.92,2.07c-0.89.59-1.92,1.31-3,2s-2.33,1.49-3.53,2.26-2.43,1.5-3.58,2.18-2.24,1.3-3.17,1.83C399,31.12,397.77,31.77,397.77,31.77Z"/><path d="M403.34,33.28s0.52-.56,1.34-1.35,2-1.77,3.13-2.72,2.39-1.84,3.33-2.47,1.6-1,1.6-1-0.52.56-1.34,1.35-2,1.77-3.13,2.72-2.39,1.83-3.33,2.47S403.34,33.28,403.34,33.28Z"/><path d="M408,33.65s0.73-.8,1.87-1.94c0.58-.56,1.24-1.23,2-1.91s1.53-1.41,2.33-2.13,1.62-1.41,2.39-2.06,1.52-1.23,2.14-1.74c1.27-1,2.15-1.62,2.15-1.62s-0.72.8-1.87,1.94c-0.58.56-1.24,1.23-2,1.91s-1.53,1.41-2.33,2.13-1.62,1.41-2.39,2.06-1.52,1.23-2.14,1.74C408.93,33,408,33.65,408,33.65Z"/><path d="M410.95,34.44s0.32-.4.84-0.94A23.27,23.27,0,0,1,416,30.11c0.64-.38,1.1-0.6,1.1-0.6s-0.32.4-.83,0.94A23.27,23.27,0,0,1,412,33.83C411.41,34.22,410.95,34.44,410.95,34.44Z"/><path d="M253.77,44.81S251.45,44,248,42.58c-1.71-.7-3.72-1.48-5.85-2.38l-6.67-2.8-6.63-2.89c-2.12-.92-4.07-1.83-5.76-2.59-3.36-1.54-5.58-2.62-5.58-2.62s2.31,0.86,5.75,2.23c1.71,0.7,3.72,1.48,5.85,2.38l6.67,2.8,6.63,2.89c2.12,0.92,4.07,1.83,5.76,2.59C251.55,43.73,253.77,44.81,253.77,44.81Z"/><path d="M256.63,44.14s-2.06-1-5.12-2.5C250,40.87,248.2,40,246.31,39l-5.92-3.11-5.88-3.19c-1.88-1-3.6-2-5.09-2.85-3-1.69-4.92-2.87-4.92-2.87s2.06,1,5.12,2.49c1.52,0.78,3.31,1.65,5.2,2.65l5.92,3.11,5.87,3.19c1.88,1,3.6,2,5.09,2.85C254.68,43,256.63,44.14,256.63,44.14Z"/><path d="M260.67,41.63S259,41,256.47,39.9c-1.24-.55-2.71-1.16-4.26-1.87l-4.84-2.22-4.8-2.31c-1.53-.73-2.94-1.47-4.16-2.08-2.42-1.24-4-2.12-4-2.12s1.69,0.66,4.2,1.74c1.24,0.55,2.71,1.16,4.26,1.87l4.84,2.22,4.8,2.31c1.53,0.74,2.94,1.47,4.16,2.08C259.08,40.76,260.67,41.63,260.67,41.63Z"/><path d="M235.65,27s2.25,0.93,5.57,2.39c1.66,0.75,3.61,1.59,5.67,2.55l6.47,3L259.78,38c2.05,1,3.94,1.95,5.57,2.75,3.25,1.63,5.4,2.78,5.4,2.78s-2.25-.92-5.58-2.39c-1.66-.75-3.61-1.59-5.67-2.55l-6.47-3-6.42-3.08c-2.05-1-3.94-1.95-5.57-2.75C237.79,28.12,235.65,27,235.65,27Z"/><path d="M256.63,33.65s1.48,0.51,3.67,1.35c1.09,0.43,2.37.92,3.72,1.47s2.79,1.16,4.23,1.77,2.86,1.25,4.2,1.85,2.57,1.2,3.63,1.69c2.12,1,3.5,1.74,3.5,1.74s-1.48-.51-3.67-1.35c-1.09-.43-2.37-0.91-3.72-1.47s-2.79-1.16-4.23-1.77-2.86-1.25-4.2-1.85-2.57-1.2-3.63-1.69C258,34.37,256.63,33.65,256.63,33.65Z"/><path d="M114.42,99.41a10.42,10.42,0,0,1,.5-0.94,16.65,16.65,0,0,1,2.92-3.56,10.26,10.26,0,0,1,.83-0.67,10.26,10.26,0,0,1-.5.95,16.64,16.64,0,0,1-2.92,3.56A10.41,10.41,0,0,1,114.42,99.41Z"/><path d="M116.54,100.15a8.33,8.33,0,0,1,.51-0.81,13.1,13.1,0,0,1,2.89-2.88,8.2,8.2,0,0,1,.81-0.5,8.21,8.21,0,0,1-.51.81,13.1,13.1,0,0,1-2.89,2.88A8.33,8.33,0,0,1,116.54,100.15Z"/><path d="M119.4,100.15s0.28-.41.75-1a22.25,22.25,0,0,1,4-3.57c0.61-.41,1-0.65,1-0.65s-0.28.41-.75,1a22.26,22.26,0,0,1-4,3.57C119.84,99.91,119.4,100.15,119.4,100.15Z"/><path d="M442.38,66.45s-0.53,1.21-1.4,3c-0.45.88-.94,1.92-1.52,3s-1.19,2.25-1.82,3.4-1.28,2.3-1.9,3.36-1.22,2-1.73,2.89c-1,1.68-1.77,2.78-1.77,2.78s0.53-1.21,1.4-3c0.45-.88.94-1.92,1.52-3s1.19-2.25,1.82-3.4,1.28-2.3,1.9-3.36,1.22-2,1.73-2.89C441.64,67.54,442.38,66.45,442.38,66.45Z"/><path d="M444.25,66.49S443.74,67.9,442.9,70c-0.43,1-.92,2.25-1.47,3.53s-1.16,2.65-1.77,4-1.25,2.71-1.85,4-1.2,2.43-1.69,3.43c-1,2-1.74,3.31-1.74,3.31s0.51-1.41,1.35-3.48c0.43-1,.91-2.25,1.47-3.53s1.16-2.65,1.77-4,1.25-2.71,1.85-4,1.2-2.43,1.69-3.43C443.53,67.8,444.25,66.49,444.25,66.49Z"/><path d="M446.75,66.35s-0.3,1-.84,2.58c-0.28.76-.58,1.66-1,2.61s-0.77,2-1.17,3-0.84,2-1.26,2.92-0.83,1.78-1.17,2.52c-0.7,1.47-1.23,2.42-1.23,2.42s0.3-1,.84-2.58c0.28-.76.58-1.66,1-2.61s0.77-2,1.18-3,0.84-2,1.26-2.92,0.83-1.78,1.17-2.52C446.23,67.3,446.75,66.35,446.75,66.35Z"/><path d="M448.79,66.6s0,0.47-.11,1.16a19.77,19.77,0,0,1-1.4,4.82c-0.29.63-.52,1-0.52,1s0-.47.11-1.16a19.77,19.77,0,0,1,1.4-4.82C448.55,67,448.79,66.6,448.79,66.6Z"/><path d="M450.63,67.3s-0.13.83-.4,2.06-0.7,2.85-1.18,4.45-1,3.18-1.48,4.36-0.81,1.94-.81,1.94,0.13-.83.4-2.06,0.7-2.85,1.18-4.45,1-3.18,1.49-4.36S450.63,67.3,450.63,67.3Z"/><path d="M453.13,67.3s0,0.56-.19,1.37a28.18,28.18,0,0,1-1.72,5.75c-0.33.76-.6,1.24-0.6,1.24s0-.56.18-1.37a28.18,28.18,0,0,1,1.72-5.74C452.86,67.79,453.13,67.3,453.13,67.3Z"/><path d="M455.5,66.76a4.6,4.6,0,0,1,0,.7,6.73,6.73,0,0,1-.74,2.82,4.54,4.54,0,0,1-.38.59,4.53,4.53,0,0,1,0-.7,6.73,6.73,0,0,1,.74-2.82A4.6,4.6,0,0,1,455.5,66.76Z"/><path d="M456.75,66.76s0,0.81-.15,2-0.35,2.8-.64,4.39-0.65,3.16-1,4.33-0.58,1.94-.58,1.94,0-.81.15-2,0.36-2.8.64-4.39,0.65-3.16,1-4.33S456.75,66.76,456.75,66.76Z"/><path d="M458.92,66.84s-0.06.77-.23,1.9-0.46,2.63-.8,4.11-0.76,2.95-1.11,4-0.65,1.8-.65,1.8,0.06-.77.23-1.9,0.46-2.63.8-4.11,0.76-2.95,1.12-4S458.92,66.84,458.92,66.84Z"/><path d="M460.92,66.88s0,0.56-.19,1.39A29.2,29.2,0,0,1,459,74.12c-0.33.77-.6,1.27-0.6,1.27s0-.57.19-1.39a29.2,29.2,0,0,1,1.75-5.85C460.65,67.38,460.92,66.88,460.92,66.88Z"/><path d="M433.59,71.47s3-.12,7.45-0.21c2.23,0,4.84-.1,7.63-0.11l8.75,0,8.75,0.05c2.79,0,5.4.09,7.63,0.12,4.47,0.09,7.45.21,7.45,0.21s-3,.12-7.45.21c-2.23,0-4.84.1-7.63,0.11l-8.75,0-8.75-.05c-2.79,0-5.4-.09-7.63-0.12C436.56,71.6,433.59,71.47,433.59,71.47Z"/><path d="M434.38,73.7s2-.12,5.12-0.21c1.54,0,3.33-.1,5.25-0.11l6,0,6,0c1.92,0,3.71.08,5.25,0.11,3.07,0.09,5.12.21,5.12,0.21s-2,.12-5.12.21c-1.54,0-3.33.1-5.25,0.11l-6,0-6,0c-1.92,0-3.71-.08-5.25-0.11C436.42,73.82,434.38,73.7,434.38,73.7Z"/><path d="M428.63,75.65s2.16-.12,5.39-0.21c1.62,0,3.5-.1,5.53-0.11l6.33,0,6.33,0c2,0,3.91.08,5.53,0.11,3.23,0.09,5.39.21,5.39,0.21s-2.16.12-5.39,0.21c-1.62,0-3.5.1-5.53,0.11l-6.33,0-6.33,0c-2,0-3.91-.08-5.53-0.11C430.78,75.77,428.63,75.65,428.63,75.65Z"/><path d="M492.69,97.67s0.71,0,1.77.18,2.45,0.39,3.82.7,2.74,0.68,3.75,1,1.67,0.6,1.67.6-0.71,0-1.77-.18-2.45-.39-3.82-0.7-2.74-.68-3.75-1S492.69,97.67,492.69,97.67Z"/><path d="M494.32,96.55s0.61,0,1.51,0,2.1,0.09,3.29.22,2.37,0.34,3.26.54,1.46,0.39,1.46.39-0.61,0-1.51,0-2.1-.09-3.29-0.23-2.37-.34-3.26-0.54S494.32,96.55,494.32,96.55Z"/><path d="M446.75,30.75s0.81-.12,2-0.21,2.82-.16,4.43-0.16,3.22,0.06,4.43.16,2,0.22,2,.22-0.81.12-2,.22-2.82.16-4.43,0.16S450,31.05,448.77,31,446.75,30.75,446.75,30.75Z"/><path d="M440.13,32s2.07-.12,5.16-0.21c1.55,0,3.36-.1,5.29-0.11l6.07,0,6.07,0c1.94,0,3.74.08,5.29,0.11,3.1,0.09,5.16.21,5.16,0.21s-2.07.12-5.16,0.21c-1.55,0-3.36.1-5.29,0.11l-6.07,0-6.07,0c-1.94,0-3.74-.08-5.29-0.11C442.19,32.09,440.13,32,440.13,32Z"/><path d="M435.78,33.65s3.08-.12,7.71-0.21c2.31,0,5-.1,7.9-0.11l9.06,0,9.06,0c2.89,0,5.59.08,7.9,0.11,4.63,0.09,7.71.21,7.71,0.21s-3.08.12-7.71,0.21c-2.31,0-5,.1-7.9.11l-9.06,0-9.06,0c-2.89,0-5.59-.08-7.9-0.11C438.87,33.77,435.78,33.65,435.78,33.65Z"/><path d="M429.87,35.53s1.49-.16,3.73-0.3c1.12-.06,2.42-0.15,3.82-0.21s2.89-.11,4.38-0.15,3-.06,4.38-0.06,2.71,0,3.83,0c2.24,0,3.74.12,3.74,0.12s-1.49.16-3.73,0.3c-1.12.06-2.42,0.15-3.82,0.21s-2.89.11-4.38,0.15-3,.06-4.38.06-2.71,0-3.83,0C431.36,35.62,429.87,35.53,429.87,35.53Z"/><path d="M430.49,36.62s3.79-.21,9.49-0.42l9.73-.33,11.15-.3,11.16-.2,9.73-.11c5.7,0,9.5,0,9.5,0s-3.79.21-9.49,0.43L472,36l-11.15.3-11.16.2-9.73.11C434.29,36.66,430.49,36.62,430.49,36.62Z"/><path d="M430.49,39.26s2.49-.12,6.21-0.21c1.86,0,4-.1,6.37-0.11l7.3,0,7.3,0c2.33,0,4.5.08,6.37,0.11,3.73,0.09,6.21.21,6.21,0.21s-2.49.12-6.21,0.21c-1.86,0-4,.1-6.37.11l-7.3,0-7.3,0c-2.33,0-4.5-.08-6.37-0.11C433,39.38,430.49,39.26,430.49,39.26Z"/><path d="M420,41.63l3-.06,7.79-.15,11-.11,12.63,0,12.63,0,11,0.11c3.22,0,5.91.12,7.79,0.15l3,0.06-3,.06c-1.88,0-4.57.12-7.79,0.15L467,42l-12.63,0-12.63,0-11-.11-7.79-.15Z"/><path d="M426.47,43.23l2.9-.06L437,43l10.8-.11,12.38,0,12.38,0L483.35,43c3.16,0,5.79.12,7.64,0.15l2.9,0.06-2.9.06c-1.84,0-4.48.12-7.64,0.15l-10.8.11-12.38,0-12.38,0L437,43.44l-7.64-.15Z"/><path d="M425.5,45.66s1.88-.12,4.7-0.21c1.41,0,3.06-.1,4.82-0.11l5.52,0,5.52,0c1.76,0,3.41.08,4.82,0.11,2.82,0.09,4.7.21,4.7,0.21s-1.88.12-4.7,0.21c-1.41,0-3.06.1-4.82,0.11l-5.52,0L435,46c-1.76,0-3.41-.08-4.82-0.11C427.38,45.78,425.5,45.66,425.5,45.66Z"/><path d="M303.75,91.9s1.08,0.35,2.66,1c0.79,0.31,1.71.66,2.69,1.07s2,0.85,3,1.31,2.06,0.93,3,1.39,1.83,0.91,2.59,1.28c1.51,0.77,2.49,1.34,2.49,1.34s-1.08-.35-2.66-1c-0.79-.31-1.72-0.66-2.69-1.07s-2-.85-3-1.31-2.06-.93-3-1.39-1.83-.91-2.59-1.28C304.73,92.47,303.75,91.9,303.75,91.9Z"/><path d="M314.25,93.52s0.84,0.3,2.08.8,2.84,1.25,4.43,2S323.89,98,325,98.71s1.88,1.19,1.88,1.19-0.84-.29-2.08-0.8-2.84-1.25-4.43-2-3.14-1.65-4.28-2.33S314.25,93.52,314.25,93.52Z"/><path d="M318.18,93.52s0.84,0.25,2.08.7,2.85,1.11,4.44,1.82,3.16,1.49,4.31,2.11,1.9,1.09,1.9,1.09-0.84-.25-2.08-0.7-2.85-1.11-4.44-1.82-3.16-1.49-4.31-2.11S318.18,93.52,318.18,93.52Z"/><path d="M302.19,95.57s1.35-.25,3.39-0.53c1-.13,2.21-0.3,3.48-0.45s2.64-.29,4-0.42,2.73-.24,4-0.33,2.48-.15,3.5-0.21c2.05-.1,3.43-0.11,3.43-0.11s-1.35.25-3.39,0.53c-1,.13-2.21.3-3.48,0.45s-2.64.28-4,.42-2.73.24-4,.33-2.48.15-3.51,0.21C303.56,95.56,302.19,95.57,302.19,95.57Z"/><path d="M308.25,97.67s2.09-.42,5.24-1c1.58-.26,3.41-0.59,5.38-0.88l6.18-.93,6.19-.83c2-.27,3.83-0.46,5.41-0.66,3.17-.36,5.3-0.54,5.3-0.54s-2.09.42-5.24,1c-1.58.26-3.41,0.59-5.38,0.88l-6.18.93-6.19.83c-2,.27-3.83.46-5.41,0.66C310.38,97.48,308.25,97.67,308.25,97.67Z"/><path d="M312.92,98.64s1-.23,2.57-0.49c0.77-.12,1.67-0.28,2.64-0.41s2-.26,3-0.38,2.07-.21,3-0.29,1.89-.12,2.67-0.17c1.56-.08,2.61-0.07,2.61-0.07s-1,.23-2.57.49c-0.77.12-1.67,0.28-2.64,0.41s-2,.26-3,0.38-2.07.21-3,.29-1.89.12-2.67,0.17C314,98.64,312.92,98.64,312.92,98.64Z"/><path d="M114.85,58.78l0.31,0.15c0.2,0.1.45,0.26,0.76,0.46a9.66,9.66,0,0,1,1,.76c0.33,0.31.66,0.67,1,1,1.37,1.36,2.7,2.77,2.7,2.77l0,0.06s-1.55-1.16-3.05-2.38c-0.38-.3-0.77-0.59-1.12-0.88a9.66,9.66,0,0,1-.86-0.89c-0.23-.29-0.42-0.52-0.54-0.71s-0.18-.29-0.18-0.29Z"/><path d="M116.54,55.9s0.55,0.29,1.34.78,1.78,1.21,2.75,2,1.89,1.57,2.55,2.22S124.25,62,124.25,62s-0.55-.29-1.34-0.78-1.78-1.21-2.75-2-1.89-1.57-2.55-2.22S116.54,55.9,116.54,55.9Z"/><path d="M117.7,54.37s0.81,0.44,2,1.17,2.68,1.75,4.17,2.82,2.92,2.2,4,3.08S129.54,63,129.54,63s-0.81-.44-2-1.17S124.88,60,123.4,59s-2.92-2.2-4-3.08S117.7,54.37,117.7,54.37Z"/><path d="M120,50.58s0.78,0.59,1.88,1.54c0.54,0.48,1.19,1,1.86,1.64s1.37,1.28,2.07,2,1.38,1.36,2,2S129,59,129.5,59.55c1,1.08,1.58,1.84,1.58,1.84s-0.78-.59-1.88-1.54c-0.54-.48-1.19-1-1.86-1.64s-1.37-1.28-2.07-2-1.38-1.36-2-2-1.2-1.29-1.69-1.82C120.61,51.35,120,50.58,120,50.58Z"/><path d="M123.33,49.54S124,50.13,125,51.07s2.23,2.23,3.44,3.57,2.37,2.72,3.2,3.78S133,60.23,133,60.23s-0.69-.59-1.67-1.53-2.23-2.23-3.44-3.57-2.37-2.72-3.2-3.78S123.33,49.54,123.33,49.54Z"/><path d="M128.2,50.56s0.15,0.12.4,0.36,0.59,0.57,1,1,0.83,0.93,1.29,1.49,0.87,1.2,1.32,1.83c1.82,2.47,3.59,5,3.59,5l-0.06,0s-2-2.31-4-4.66c-0.5-.58-1-1.16-1.46-1.72s-0.83-1.12-1.14-1.6-0.57-.9-0.73-1.2-0.25-.47-0.25-0.47Z"/><path d="M149.75,93.16s0.36,0.37.85,1a24,24,0,0,1,2.92,4.7c0.31,0.69.48,1.18,0.48,1.18s-0.36-.37-0.85-1a24,24,0,0,1-2.92-4.7C149.92,93.65,149.75,93.16,149.75,93.16Z"/><path d="M154.79,91.54s0.5,0.41,1.19,1.08,1.56,1.6,2.39,2.58,1.6,2,2.14,2.78,0.87,1.36.87,1.36-0.5-.41-1.19-1.08-1.56-1.6-2.39-2.58-1.6-2-2.14-2.78S154.79,91.54,154.79,91.54Z"/><path d="M158.65,91.19s0.76,0.46,1.84,1.21,2.49,1.81,3.86,2.91,2.7,2.26,3.66,3.16S169.6,100,169.6,100s-0.76-.46-1.85-1.21-2.49-1.81-3.86-2.91-2.69-2.26-3.66-3.16S158.65,91.19,158.65,91.19Z"/><path d="M163.13,91s1,0.49,2.49,1.29c0.73,0.41,1.59.88,2.5,1.41s1.86,1.11,2.81,1.69,1.89,1.19,2.77,1.77,1.68,1.14,2.37,1.61c1.38,1,2.26,1.65,2.26,1.65s-1-.49-2.49-1.29c-0.73-.41-1.59-0.87-2.5-1.41s-1.86-1.11-2.81-1.69-1.89-1.19-2.77-1.77-1.68-1.14-2.37-1.61C164,91.72,163.13,91,163.13,91Z"/><path d="M145.11,94.62a9.51,9.51,0,0,1,.19,1,15.12,15.12,0,0,1-.11,4.39,9.38,9.38,0,0,1-.24,1,9.37,9.37,0,0,1-.19-1,15.12,15.12,0,0,1,.11-4.39A9.52,9.52,0,0,1,145.11,94.62Z"/><path d="M313.92,67.67s0.2,1.22.42,3.07c0.1,0.92.23,2,.33,3.15s0.2,2.39.29,3.62,0.15,2.47.2,3.62,0.06,2.24.09,3.17c0,1.86,0,3.1,0,3.1s-0.2-1.22-.42-3.07c-0.1-.92-0.23-2-0.33-3.15s-0.2-2.39-.29-3.62-0.15-2.47-.2-3.62-0.07-2.24-.09-3.17C313.88,68.91,313.92,67.67,313.92,67.67Z"/><path d="M316.11,67.73s0.33,1.27.75,3.19c0.19,1,.45,2.08.67,3.28s0.46,2.49.68,3.78,0.42,2.58.59,3.79,0.31,2.35.44,3.32c0.24,1.95.33,3.26,0.33,3.26s-0.34-1.27-.75-3.19c-0.19-1-.45-2.08-0.67-3.28s-0.45-2.49-.68-3.78-0.42-2.58-.59-3.79S316.58,72,316.45,71C316.21,69,316.11,67.73,316.11,67.73Z"/><path d="M319.57,67.81s0.53,1.29,1.24,3.24c0.34,1,.77,2.12,1.18,3.35s0.84,2.55,1.27,3.87,0.82,2.65,1.18,3.9,0.67,2.42,1,3.43c0.54,2,.84,3.37.84,3.37s-0.53-1.29-1.25-3.24c-0.34-1-.77-2.12-1.18-3.35s-0.84-2.55-1.27-3.87-0.82-2.65-1.18-3.9-0.67-2.42-1-3.43C319.88,69.17,319.57,67.81,319.57,67.81Z"/><path d="M321.59,72.76s2-.1,5-0.16c1.5,0,3.26-.07,5.14-0.06h5.89l5.89,0.11c1.88,0,3.63.12,5.13,0.17,3,0.12,5,.26,5,0.26s-2,.1-5,0.16c-1.5,0-3.26.07-5.14,0.06h-5.89l-5.89-.11c-1.88,0-3.63-.12-5.13-0.17C323.59,72.9,321.59,72.76,321.59,72.76Z"/><path d="M322.63,77.52s2.47-.24,6.18-0.5c1.86-.12,4-0.29,6.34-0.41l7.27-.39,7.28-.29c2.32-.1,4.49-0.13,6.35-0.18,3.72-.08,6.2-0.08,6.2-0.08s-2.47.24-6.18,0.5c-1.86.12-4,.29-6.34,0.41l-7.27.39-7.28.29c-2.32.09-4.49,0.13-6.35,0.18C325.12,77.52,322.63,77.52,322.63,77.52Z"/><path d="M325,81.78s2.62-.22,6.56-0.47c2-.11,4.26-0.27,6.72-0.38l7.71-.36,7.72-.26c2.46-.09,4.76-0.11,6.73-0.15,3.94-.07,6.57-0.05,6.57-0.05s-2.62.23-6.56,0.47c-2,.11-4.26.27-6.72,0.38l-7.71.36-7.72.26c-2.46.08-4.76,0.11-6.73,0.15C327.63,81.8,325,81.78,325,81.78Z"/><path d="M325.55,85.1s2-.22,5.11-0.46c1.53-.11,3.32-0.26,5.24-0.37l6-.35,6-.25c1.92-.08,3.71-0.1,5.25-0.14,3.08-.06,5.13,0,5.13,0s-2,.22-5.11.46c-1.53.11-3.32,0.27-5.24,0.37l-6,.35-6,.25c-1.92.08-3.71,0.1-5.25,0.14C327.6,85.12,325.55,85.1,325.55,85.1Z"/><path d="M23.56,2.76a1,1,0,0,1,0-.17,2,2,0,0,1,.14-0.38A1.8,1.8,0,0,1,24,1.78c0.14-.13.32-0.24,0.49-0.36,0.64-.51,1.33-1,1.33-1L25.9,0.49s-0.46.7-1,1.35c-0.12.17-.23,0.35-0.36,0.49a1.8,1.8,0,0,1-.43.31,2,2,0,0,1-.38.15l-0.17,0Z"/><path d="M25.85,3.58a1.31,1.31,0,0,1,0-.2A2.83,2.83,0,0,1,26,2.91a2.69,2.69,0,0,1,.28-0.59c0.14-.19.31-0.38,0.48-0.57C27.36,1,28.05.21,28.05,0.21l0.06,0s-0.41.93-.88,1.83c-0.11.23-.21,0.46-0.33,0.67a2.69,2.69,0,0,1-.43.49,2.83,2.83,0,0,1-.39.29l-0.17.09Z"/><path d="M29.73,4.33a2,2,0,0,1,.09-0.23,4.69,4.69,0,0,1,.3-0.56,4.79,4.79,0,0,1,.54-0.69c0.23-.22.5-0.43,0.76-0.65,1-.91,2.07-1.76,2.07-1.76l0.05,0.05s-0.82,1.09-1.69,2.13c-0.21.27-.41,0.54-0.63,0.78a4.79,4.79,0,0,1-.67.56,4.69,4.69,0,0,1-.55.32l-0.23.1Z"/><path d="M33.6,5.32A2.49,2.49,0,0,1,33.69,5,6,6,0,0,1,34,4.39a6.32,6.32,0,0,1,.55-0.84c0.24-.28.51-0.55,0.78-0.84,1-1.16,2.14-2.27,2.14-2.27l0.06,0s-0.84,1.32-1.73,2.6c-0.22.33-.42,0.66-0.64,1a6.32,6.32,0,0,1-.69.72,6,6,0,0,1-.57.45l-0.24.15Z"/><path d="M37.47,6.3A2.91,2.91,0,0,1,37.54,6a7.16,7.16,0,0,1,.25-0.75,7.57,7.57,0,0,1,.48-1c0.22-.34.47-0.68,0.72-1,1-1.41,2-2.79,2-2.79l0.06,0S40.3,2,39.51,3.55c-0.19.38-.37,0.77-0.56,1.12a7.57,7.57,0,0,1-.64.89,7.16,7.16,0,0,1-.54.58,2.91,2.91,0,0,1-.23.2Z"/><path d="M41.6,6.3A3,3,0,0,1,41.68,6,7.42,7.42,0,0,1,42,5.25a7.86,7.86,0,0,1,.52-1c0.23-.34.5-0.68,0.76-1,1-1.41,2.1-2.79,2.1-2.79l0.06,0S44.61,2,43.76,3.56c-0.21.38-.4,0.77-0.61,1.12a7.86,7.86,0,0,1-.68.89,7.42,7.42,0,0,1-.57.57,3,3,0,0,1-.24.2Z"/><path d="M48.33,3.43s-1.68,0-4.18-.25c-1.25-.11-2.71-0.24-4.27-0.43L35,2.06,21.75,0.16V0.09L35.08,1.46,40,2c1.56,0.19,3,.42,4.25.62,2.48,0.41,4.12.77,4.12,0.77V3.43Z"/><path d="M427.63,92.13s-1.09.6-2.75,1.41c-0.84.39-1.8,0.88-2.86,1.35s-2.18,1-3.31,1.47-2.27,1-3.35,1.39-2.09.8-2.95,1.13c-1.73.65-2.92,1-2.92,1s1.09-.6,2.75-1.41c0.84-.39,1.8-0.88,2.86-1.35s2.18-1,3.31-1.47,2.27-1,3.35-1.38,2.09-.8,2.95-1.13C426.45,92.5,427.63,92.13,427.63,92.13Z"/><path d="M413.92,100s0.95-.56,2.41-1.31c0.73-.36,1.58-0.81,2.51-1.25s1.92-.9,2.91-1.35,2-.88,2.95-1.27,1.84-.73,2.6-1c1.53-.59,2.58-0.92,2.58-0.92s-0.95.56-2.41,1.31c-0.73.36-1.58,0.81-2.51,1.25s-1.92.9-2.91,1.35-2,.88-2.95,1.27-1.84.73-2.6,1C415,99.67,413.92,100,413.92,100Z"/><path d="M432.49,92.86s-0.73.54-1.85,1.29-2.66,1.68-4.23,2.56S423.24,98.41,422,99s-2.06.91-2.06,0.91,0.73-.54,1.85-1.29,2.66-1.68,4.23-2.56,3.16-1.7,4.39-2.28S432.49,92.86,432.49,92.86Z"/><path d="M435.08,93.52s-0.59.5-1.52,1.2-2.2,1.55-3.51,2.37-2.65,1.57-3.68,2.09-1.75.83-1.75,0.83,0.59-.5,1.52-1.2,2.2-1.55,3.51-2.37,2.65-1.57,3.68-2.09S435.08,93.52,435.08,93.52Z"/><path d="M436.53,93.89s-0.49.48-1.27,1.13-1.86,1.47-3,2.24-2.26,1.48-3.15,2-1.51.78-1.51,0.78,0.49-.48,1.27-1.13,1.86-1.47,3-2.24,2.26-1.48,3.15-2S436.53,93.89,436.53,93.89Z"/></svg>