<svg id="Slip_lines_Grain_Large" data-name="Slip lines (Grain Large" xmlns="http://www.w3.org/2000/svg" viewBox="0 0 300 100"><title>M_SlipLinesGrainLarge</title><path d="M87.31,47.39l28.37-8.1c3.55-1,7.09-2,10.43-3,1.67-.45,3.27-0.92,4.81-1.31l4.32-1.13c5.36-1.38,9-2.2,9-2.2l0,0.07s-3.51,1.14-8.82,2.7l-4.29,1.25c-1.52.45-3.14,0.87-4.8,1.34-3.33.93-6.9,1.86-10.46,2.81L87.33,47.46Z"/><path d="M96.06,51.47s3.4-1,8.53-2.5l8.76-2.47,10.07-2.75,10.09-2.65,8.82-2.25c5.17-1.29,8.63-2.1,8.63-2.1s-3.4,1-8.53,2.5l-8.76,2.47-10.07,2.75-10.09,2.65-8.82,2.25C99.52,50.67,96.06,51.47,96.06,51.47Z"/><path d="M98.26,63.05s3.39-1.16,8.51-2.81l8.75-2.79,10.06-3.12,10.08-3,8.82-2.57c5.17-1.48,8.63-2.41,8.63-2.41s-3.39,1.16-8.51,2.81l-8.75,2.79L125.8,55.05l-10.08,3-8.82,2.57C101.72,62.12,98.26,63.05,98.26,63.05Z"/><path d="M100.83,56L121.92,50l7.74-2.18c2.48-.67,4.81-1.24,6.8-1.73,4-1,6.68-1.53,6.68-1.53l0,0.07s-2.6.87-6.54,2c-2,.57-4.27,1.24-6.75,1.91l-7.79,2-21.22,5.43Z"/><path d="M105.71,67.93l17-4.88L129,61.27c2-.54,3.89-1,5.5-1.39,3.23-.77,5.41-1.19,5.41-1.19l0,0.07s-2.09.73-5.27,1.7c-1.59.47-3.45,1-5.45,1.57l-6.3,1.61L105.73,68Z"/><path d="M136.37,64.26l15.85,18.81L158,90c1.83,2.22,3.5,4.33,4.94,6.14,2.86,3.62,4.69,6.1,4.69,6.1l-0.06,0s-2.08-2.27-5.09-5.77c-1.5-1.75-3.25-3.8-5.08-6l-5.67-7L136.31,64.31Z"/><path d="M161.07,100.71L145.23,83.54l-5.81-6.31c-1.83-2-3.51-4-4.94-5.62-2.86-3.32-4.7-5.59-4.7-5.59l0.06-.05s2.08,2.06,5.08,5.25c1.5,1.6,3.25,3.46,5.08,5.49l5.68,6.43,15.46,17.52Z"/><path d="M156.37,100.71L142.88,86.14l-5-5.35c-1.56-1.73-3-3.38-4.19-4.79-2.42-2.83-4-4.78-4-4.78l0.06-.05s1.78,1.73,4.35,4.43c1.28,1.36,2.77,2.93,4.33,4.66l4.82,5.47,13.11,14.92Z"/><path d="M152.27,100.71l-15-16.26-5.51-6c-1.74-1.93-3.32-3.76-4.68-5.33-2.71-3.15-4.44-5.31-4.44-5.31l0.06-.05s2,1.95,4.83,5c1.42,1.51,3.08,3.28,4.82,5.2l5.38,6.1,14.64,16.62Z"/><path d="M148.91,100.71L134.39,85l-5.33-5.76c-1.68-1.86-3.21-3.62-4.52-5.14-2.61-3-4.28-5.12-4.28-5.12l0.06-.05s1.91,1.87,4.67,4.78c1.37,1.46,3,3.16,4.66,5l5.19,5.88,14.13,16Z"/><path d="M142.64,100.71L128.19,85.38l-5.3-5.63c-1.67-1.82-3.19-3.55-4.5-5-2.6-3-4.26-5-4.26-5l0.06-.05s1.9,1.83,4.65,4.67c1.37,1.43,3,3.09,4.63,4.9L128.63,85l14.06,15.68Z"/><path d="M133.16,100.7L121.5,86.5l-4.28-5.22c-1.34-1.68-2.55-3.29-3.59-4.66-2.07-2.75-3.37-4.65-3.37-4.65l0.06,0s1.56,1.69,3.78,4.33c1.1,1.32,2.4,2.86,3.74,4.54L122,86.13l11.24,14.53Z"/><path d="M255.34,18.5l22.33-.26,8.2-.09c2.62,0,5.06.05,7.15,0.09,4.19,0.1,7,.26,7,0.26v0.07s-2.79.16-7,.26c-2.09,0-4.54.09-7.15,0.09l-8.2-.09-22.33-.26V18.5Z"/><path d="M253.88,22.56s2.88-.15,7.2-0.28c2.16-.05,4.68-0.14,7.39-0.18l8.47-.13,8.47,0c2.7,0,5.23,0,7.39,0,4.32,0,7.21.14,7.21,0.14s-2.88.15-7.2,0.28c-2.16.05-4.68,0.15-7.39,0.18l-8.47.13-8.47,0c-2.7,0-5.23,0-7.39,0C256.76,22.66,253.88,22.56,253.88,22.56Z"/><path d="M253.64,26.95l23.18-.26,8.51-.09c2.72,0,5.25.05,7.42,0.09,4.35,0.1,7.24.26,7.24,0.26V27s-2.9.16-7.24,0.26c-2.17,0-4.71.09-7.42,0.09l-8.51-.09L253.64,27V26.95Z"/><path d="M252.24,31.73s3-.12,7.46-0.21c2.24,0,4.85-.1,7.65-0.11l8.77,0,8.77,0c2.8,0,5.41.08,7.65,0.11,4.48,0.09,7.46.21,7.46,0.21s-3,.12-7.46.21c-2.24,0-4.85.1-7.65,0.11l-8.77,0-8.77,0c-2.8,0-5.41-.08-7.65-0.11C255.22,31.85,252.24,31.73,252.24,31.73Z"/><path d="M259.46,32.32L259,46.05l-0.18,5c-0.09,1.61-.22,3.11-0.33,4.39-0.24,2.57-.49,4.27-0.49,4.27H257.9s-0.07-1.72,0-4.3c0-1.29.06-2.79,0.14-4.4l0.36-5,1-13.7h0.07Z"/><path d="M268,31.74L265.7,47.15l-0.84,5.66c-0.3,1.8-.63,3.47-0.91,4.91-0.58,2.87-1.05,4.76-1.05,4.76h-0.07s0.16-1.95.54-4.85c0.2-1.45.43-3.14,0.72-4.94l1-5.63,2.8-15.33H268Z"/><path d="M277.41,31.74l-3.46,16.64-1.28,6.11c-0.44,1.94-.89,3.74-1.28,5.29-0.8,3.09-1.42,5.12-1.42,5.12l-0.07,0s0.31-2.11.91-5.24c0.31-1.56.67-3.39,1.1-5.33l1.45-6.07,4-16.52Z"/><path d="M281.61,31.74l-3.13,18-1.15,6.61c-0.4,2.1-.82,4.06-1.18,5.73-0.73,3.35-1.31,5.56-1.31,5.56h-0.07s0.26-2.27.8-5.66c0.28-1.69.6-3.66,1-5.76l1.33-6.57,3.65-17.89h0.07Z"/><path d="M287.82,31.74L285,51.2l-1.05,7.14c-0.36,2.28-.76,4.39-1.09,6.21-0.68,3.63-1.23,6-1.23,6h-0.07s0.23-2.45.71-6.11c0.25-1.83.54-4,.9-6.23l1.23-7.12,3.36-19.38h0.07Z"/><path d="M292.92,31.74l-2.29,20.57-0.85,7.55c-0.3,2.41-.63,4.65-0.91,6.57-0.58,3.84-1.06,6.39-1.06,6.39h-0.07s0.16-2.59.54-6.45c0.2-1.93.43-4.18,0.73-6.59l1-7.53,2.81-20.5h0.07Z"/><path d="M299.14,32.32l-2.85,21.24-1.05,7.8c-0.36,2.49-.76,4.8-1.09,6.78-0.68,4-1.23,6.59-1.23,6.59h-0.07s0.23-2.67.71-6.66c0.25-2,.54-4.32.9-6.81l1.23-7.77,3.37-21.17h0.07Z"/><path d="M38,50.58s-0.21-2.28-.43-5.7c-0.1-1.71-.24-3.71-0.34-5.84l-0.31-6.7-0.21-6.71c-0.07-2.14-.08-4.14-0.11-5.85,0-3.43,0-5.71,0-5.71s0.21,2.28.43,5.7c0.1,1.71.24,3.71,0.34,5.84l0.31,6.7L37.9,39C38,41.15,38,43.15,38,44.87,38,48.29,38,50.58,38,50.58Z"/><path d="M34.45,49.76s-0.22-2.2-.45-5.51c-0.1-1.65-.26-3.58-0.36-5.65l-0.33-6.48-0.23-6.49C33,23.56,33,21.63,32.94,20c-0.05-3.31,0-5.53,0-5.53s0.22,2.2.45,5.51c0.1,1.65.26,3.58,0.36,5.65l0.33,6.48,0.23,6.49c0.08,2.07.09,4,.13,5.66C34.47,47.55,34.45,49.76,34.45,49.76Z"/><path d="M30.09,48.76S30,46.62,30,43.43c0-1.6,0-3.46,0-5.46l0.07-6.26,0.17-6.26c0.05-2,.16-3.86.22-5.46,0.15-3.19.32-5.32,0.32-5.32s0.08,2.13.11,5.33c0,1.6,0,3.46,0,5.46l-0.07,6.26L30.63,38c-0.05,2-.16,3.86-0.22,5.46C30.26,46.63,30.09,48.76,30.09,48.76Z"/><path d="M26.08,27.94s1.32,0,3.3.11c1,0.06,2.14.11,3.37,0.21s2.54,0.21,3.85.33,2.62,0.27,3.85.42,2.37,0.32,3.35.44c2,0.28,3.26.53,3.26,0.53s-1.32,0-3.3-.11c-1-.06-2.14-0.11-3.37-0.21s-2.54-.21-3.85-0.33-2.62-.27-3.84-0.42-2.37-.32-3.35-0.44C27.38,28.19,26.08,27.94,26.08,27.94Z"/><path d="M23.37,30.34s1.08,0,2.69.17c0.8,0.08,1.74.15,2.75,0.27s2.07,0.25,3.14.4,2.13,0.31,3.12.48,1.92,0.36,2.71.5c1.59,0.31,2.63.58,2.63,0.58s-1.08,0-2.69-.17C36.92,32.5,36,32.43,35,32.31s-2.07-.25-3.14-0.4-2.13-.31-3.12-0.49-1.92-.36-2.71-0.5C24.42,30.61,23.37,30.34,23.37,30.34Z"/><path d="M23.67,33.15s1.34,0.1,3.35.34c1,0.13,2.17.26,3.41,0.44s2.57,0.39,3.9.6S37,35,38.21,35.22s2.39,0.48,3.38.68c2,0.42,3.28.75,3.28,0.75s-1.34-.1-3.35-0.34c-1-.13-2.17-0.26-3.41-0.44s-2.57-.39-3.9-0.6-2.65-.45-3.89-0.69-2.39-.48-3.38-0.68C25,33.49,23.67,33.15,23.67,33.15Z"/></svg>