<svg id="Slip_lines_grains_elongated" data-name="Slip lines (grains elongated" xmlns="http://www.w3.org/2000/svg" viewBox="0 0 500 150"><title>M_SlipLinesGrainElongated</title><path d="M104.46,14.35l12.74-.27,13.06-.17,15-.12,15,0,13.06,0.06L186,14l-12.74.27-13.06.17-15,.12-15,0L117.2,14.5Z"/><path d="M99.09,16.56l15.06-.07,15.43,0,17.69,0.12L165,16.87l15.43,0.26,15.05,0.36-15.06.07-15.43,0-17.69-.12-17.69-.22-15.43-.26Z"/><path d="M93.78,19.74l17.9,0.15L130,20.14l21,0.37,21,0.47,18.34,0.48L208.32,22l-17.9-.15-18.35-.25-21-.37-21-.47-18.34-.48Z"/><path d="M108.8,23l14.4,0.18L138,23.45l16.92,0.41,16.92,0.51,14.75,0.51,14.39,0.6-14.4-.18L171.78,25l-16.92-.41-16.92-.51-14.75-.51Z"/><path d="M119.49,25.49s0.78-.12,1.94-0.21,2.72-.16,4.27-0.16,3.1,0.06,4.27.16,1.94,0.22,1.94.22-0.78.12-1.94,0.22-2.72.16-4.27,0.16-3.1-.07-4.27-0.16S119.49,25.49,119.49,25.49Z"/><path d="M125.7,50.44s2.28-.39,5.72-0.88c1.72-.23,3.72-0.53,5.87-0.8l6.74-.83,6.75-.73c2.16-.24,4.17-0.4,5.9-0.57,3.46-.31,5.77-0.46,5.77-0.46s-2.28.39-5.72,0.88c-1.72.23-3.72,0.53-5.87,0.8l-6.74.83-6.76.73c-2.16.24-4.17,0.4-5.9,0.57C128,50.29,125.7,50.44,125.7,50.44Z"/><path d="M134.58,52.21s1.3-.31,3.25-0.68c1-.18,2.12-0.4,3.35-0.61s2.54-.41,3.85-0.6,2.63-.37,3.86-0.52,2.39-.26,3.38-0.37c2-.2,3.31-0.27,3.31-0.27s-1.3.31-3.25,0.68c-1,.18-2.12.41-3.35,0.61s-2.54.41-3.85,0.6-2.63.37-3.86,0.51-2.39.26-3.38,0.37C135.91,52.14,134.58,52.21,134.58,52.21Z"/><path d="M142.54,54.14s1.4-.33,3.52-0.75c1.06-.19,2.29-0.44,3.62-0.67s2.74-.45,4.16-0.68,2.84-.42,4.17-0.59,2.58-.31,3.65-0.43c2.14-.23,3.58-0.33,3.58-0.33s-1.4.34-3.52,0.75c-1.06.19-2.29,0.45-3.62,0.67s-2.74.45-4.16,0.68-2.84.42-4.17,0.59-2.58.31-3.65,0.43C144,54,142.54,54.14,142.54,54.14Z"/><path d="M151.1,56.18l0.54-.18c0.34-.12.83-0.24,1.42-0.4s1.29-.29,2-0.42,1.56-.19,2.37-0.29c3.22-.42,6.45-0.78,6.45-0.78v0.07s-3.18.68-6.36,1.3c-0.8.16-1.59,0.34-2.34,0.47s-1.46.2-2.07,0.24-1.12.07-1.48,0.07h-0.57V56.18Z"/><path d="M157.51,57.14s1.21-.35,3-0.73c0.92-.18,2-0.4,3.15-0.58l3.64-.47c4.95-.66,9.9-1.26,9.9-1.26v0.07s-4.91.92-9.83,1.78l-3.61.65c-1.16.18-2.24,0.29-3.17,0.39-1.87.18-3.12,0.22-3.12,0.22V57.14Z"/><path d="M163.92,59.28l0.28-.13a7.26,7.26,0,0,1,.75-0.26,7.68,7.68,0,0,1,1.08-.22c0.4,0,.83,0,1.26-0.06,1.72-.1,3.44-0.14,3.44-0.14v0.07s-1.69.36-3.38,0.66c-0.42.08-.84,0.18-1.24,0.24a7.68,7.68,0,0,1-1.1,0,7.26,7.26,0,0,1-.79-0.08l-0.3-.06V59.28Z"/><path d="M189.86,69.35s3.37,0.52,8.42,1.38l8.61,1.51L216.74,74,226.58,76c3.14,0.61,6.06,1.23,8.57,1.73,5,1,8.34,1.79,8.34,1.79s-3.37-.51-8.42-1.37c-2.52-.44-5.46-0.93-8.61-1.51l-9.85-1.81-9.84-1.91-8.57-1.73C193.19,70.1,189.86,69.35,189.86,69.35Z"/><path d="M186,72.52s4,0.47,10,1.26l10.26,1.39L218,76.83l11.73,1.77L240,80.21c6,1,10,1.67,10,1.67s-4-.47-10-1.25l-10.26-1.39L217.9,77.57,206.16,75.8l-10.22-1.61C190,73.22,186,72.52,186,72.52Z"/><path d="M182.51,75.34l11.95,1.33,12.23,1.47,14,1.76,14,1.86,12.2,1.69,11.89,1.75-11.95-1.33-12.23-1.47-14-1.76-14-1.86-12.2-1.69Z"/><path d="M179.94,77.62l13.35,1.66L207,81.08l15.66,2.14,15.65,2.24,13.64,2,13.29,2.07L251.84,87.9l-13.67-1.8L222.51,84l-15.65-2.24-13.64-2Z"/><path d="M177.44,79.47l3.12,0.37,8.23,1,11.62,1.5,13.31,1.8L227,86l11.59,1.73,8.19,1.29,3.11,0.5-3.12-.37-8.23-1-11.62-1.5-13.31-1.8L200.33,83l-11.59-1.73L180.55,80Z"/><path d="M174.49,81.88s2.26,0.27,5.64.75c1.69,0.26,3.66.52,5.77,0.87l6.6,1.08,6.58,1.17c2.1,0.37,4.05.78,5.73,1.09,3.35,0.66,5.57,1.17,5.57,1.17s-2.26-.26-5.64-0.75C203,87,201.07,86.74,199,86.39l-6.6-1.08-6.58-1.17c-2.1-.37-4.05-0.78-5.73-1.09C176.71,82.38,174.49,81.88,174.49,81.88Z"/><path d="M171.26,84.52l3,0.51,8,1.36,11.25,2,12.88,2.38,12.86,2.48,11.21,2.23,7.92,1.65,3,0.63-3-.51-8-1.36-11.25-2-12.88-2.38L193.38,89l-11.21-2.24-7.92-1.65Z"/><path d="M269.58,47.51s1.68,1.15,4.14,2.94c1.22,0.91,2.67,1.94,4.18,3.09l4.74,3.61,4.68,3.69c1.5,1.18,2.86,2.32,4,3.28,2.35,1.94,3.88,3.27,3.88,3.27s-1.68-1.15-4.14-2.94c-1.22-.91-2.67-1.94-4.18-3.1l-4.74-3.61-4.68-3.69c-1.5-1.18-2.86-2.32-4-3.28C271.11,48.85,269.58,47.51,269.58,47.51Z"/><path d="M265.19,48.31s1.59,1,3.92,2.67c1.16,0.83,2.52,1.76,4,2.81l4.48,3.29L282,60.45c1.41,1.07,2.7,2.12,3.82,3,2.22,1.77,3.66,3,3.66,3s-1.59-1-3.92-2.67C284.38,63,283,62,281.59,61l-4.48-3.29-4.42-3.37c-1.41-1.07-2.7-2.12-3.82-3C266.64,49.54,265.19,48.31,265.19,48.31Z"/><path d="M258.81,47.9s1.55,1.11,3.82,2.83c1.13,0.88,2.46,1.87,3.85,3l4.36,3.48,4.3,3.56c1.38,1.13,2.62,2.24,3.71,3.16,2.16,1.87,3.55,3.16,3.55,3.16s-1.55-1.11-3.82-2.83c-1.13-.88-2.46-1.87-3.85-3l-4.36-3.48-4.3-3.56c-1.37-1.14-2.62-2.24-3.71-3.16C260.21,49.19,258.81,47.9,258.81,47.9Z"/><path d="M253.74,47.9s1.55,1.07,3.81,2.73c1.12,0.85,2.46,1.81,3.85,2.88l4.36,3.37,4.3,3.45c1.37,1.1,2.62,2.17,3.71,3.06,2.15,1.81,3.55,3.07,3.55,3.07s-1.55-1.06-3.82-2.73c-1.12-.85-2.46-1.8-3.85-2.88l-4.36-3.37L261,54c-1.37-1.1-2.62-2.17-3.71-3.06C255.14,49.15,253.74,47.9,253.74,47.9Z"/><path d="M254.58,52.21s0.84,0.45,2,1.21c0.6,0.39,1.31.82,2,1.32s1.52,1,2.29,1.58,1.53,1.11,2.24,1.66,1.35,1.07,1.91,1.51c1.1,0.9,1.8,1.55,1.8,1.55s-0.84-.45-2-1.21c-0.6-.39-1.31-0.82-2-1.32s-1.51-1-2.29-1.58-1.53-1.11-2.24-1.66-1.35-1.07-1.91-1.51C255.28,52.86,254.58,52.21,254.58,52.21Z"/><path d="M246.74,47.51s1.34,1,3.29,2.57c1,0.8,2.11,1.7,3.3,2.72L257.07,56l3.67,3.25c1.17,1,2.23,2,3.15,2.89,1.83,1.71,3,2.89,3,2.89s-1.34-1-3.29-2.57c-1-.8-2.11-1.7-3.3-2.72l-3.73-3.17-3.67-3.25c-1.17-1-2.23-2-3.15-2.89C247.93,48.7,246.74,47.51,246.74,47.51Z"/><path d="M35.75,91.14s3.62-.32,9.06-0.7l9.29-.62,10.65-.62,10.66-.52,9.3-.39c5.45-.2,9.08-0.28,9.08-0.28s-3.62.32-9.06,0.7l-9.29.61L64.78,90l-10.66.52-9.3.39C39.38,91.06,35.75,91.14,35.75,91.14Z"/><path d="M34.34,93.43s4-.36,9.89-0.81l10.15-.73L66,91.13l11.64-.66L87.82,90c5.95-.27,9.92-0.39,9.92-0.39s-4,.36-9.89.81l-10.15.73-11.64.76-11.64.66L44.26,93C38.31,93.3,34.34,93.43,34.34,93.43Z"/><path d="M33.22,95.25S37,95,42.71,94.75l9.73-.41L63.6,94l11.16-.29,9.74-.18c5.7-.08,9.5-0.07,9.5-0.07s-3.79.23-9.49,0.5l-9.73.41-11.16.38L52.46,95l-9.74.18C37,95.26,33.22,95.25,33.22,95.25Z"/><path d="M29.67,97.77s3.86-.21,9.66-0.44l9.9-.35,11.35-.32,11.36-.22,9.91-.12c5.8,0,9.67,0,9.67,0s-3.86.21-9.66,0.44l-9.9.35L60.6,97.4l-11.36.22-9.91.12C33.54,97.8,29.67,97.77,29.67,97.77Z"/><path d="M29.67,100.25L42,99.65l12.67-.51,14.53-.51,14.53-.41,12.68-.28,12.37-.18-12.36.6-12.67.51-14.53.5-14.53.41L42,100.07Z"/><path d="M134.58,101.89s-2.31,0-5.76,0c-1.73,0-3.75-.07-5.9-0.15l-6.76-.25-6.76-.35c-2.16-.11-4.17-0.27-5.89-0.38-3.45-.24-5.75-0.47-5.75-0.47s2.31,0,5.76,0c1.73,0,3.75.06,5.9,0.15l6.76,0.25,6.76,0.35c2.16,0.11,4.17.27,5.89,0.38C132.28,101.67,134.58,101.89,134.58,101.89Z"/><path d="M133.38,104.24s-2.23,0-5.58,0c-1.67,0-3.62,0-5.71-.12l-6.54-.22-6.54-.32c-2.09-.1-4-0.25-5.7-0.35-3.34-.23-5.56-0.44-5.56-0.44s2.23,0,5.58,0c1.67,0,3.62,0,5.71.12l6.54,0.22,6.54,0.32c2.09,0.1,4,.25,5.7.35C131.15,104,133.38,104.24,133.38,104.24Z"/><path d="M131.91,107.11s-2.15-.06-5.36-0.24c-1.6-.1-3.48-0.19-5.48-0.35L114.8,106l-6.27-.58c-2-.18-3.86-0.41-5.46-0.57-3.2-.36-5.32-0.66-5.32-0.66s2.15,0.06,5.36.24c1.6,0.1,3.48.19,5.48,0.35l6.28,0.48,6.27,0.58c2,0.18,3.86.41,5.46,0.57C129.78,106.81,131.91,107.11,131.91,107.11Z"/><path d="M71.11,50.45s0,0.14,0,.38-0.11.58-.2,1a12.19,12.19,0,0,1-.42,1.33c-0.2.47-.44,1-0.67,1.45-0.88,2-1.83,3.94-1.83,3.94l-0.07,0s0.64-2.08,1.34-4.14c0.17-.52.32-1,0.5-1.52a12.19,12.19,0,0,1,.59-1.26c0.2-.36.37-0.66,0.52-0.85s0.22-.31.22-0.31Z"/><path d="M73.77,50.08s0,0.2-.09.55-0.18.84-.32,1.42-0.35,1.25-.59,2-0.57,1.44-.86,2.18c-1.15,3-2.37,5.93-2.37,5.93l-0.07,0S70.36,59,71.33,56c0.23-.76.46-1.53,0.69-2.24s0.51-1.35.77-1.9,0.47-1,.64-1.31,0.27-.49.27-0.49Z"/><path d="M76.28,50.07s-0.17,1.07-.56,2.64c-0.2.78-.44,1.69-0.74,2.65s-0.68,2-1,3c-1.38,4.07-2.83,8.12-2.83,8.12l-0.07,0s1.13-4.15,2.33-8.27c0.29-1,.57-2.07.86-3s0.64-1.84.92-2.6c0.58-1.51,1.06-2.48,1.06-2.48Z"/><path d="M78.47,50.07s0,0.15,0,.42,0,0.64-.08,1.09a14.61,14.61,0,0,1-.26,1.5c-0.14.54-.32,1.11-0.49,1.68C77,57,76.28,59.32,76.28,59.32l-0.07,0S76.59,57,77,54.62c0.1-.59.2-1.17,0.31-1.72a14.6,14.6,0,0,1,.44-1.46c0.16-.42.29-0.77,0.41-1s0.19-.38.19-0.38Z"/><path d="M82,49.66s0,0.19-.06.52-0.13.79-.24,1.34-0.28,1.18-.48,1.85-0.49,1.36-.74,2.06c-1,2.82-2,5.61-2,5.61l-0.07,0s0.73-2.9,1.53-5.77c0.19-.72.37-1.45,0.57-2.12s0.44-1.28.66-1.8,0.41-.95.56-1.24,0.24-.46.24-0.46Z"/><path d="M83.64,49.65a1.68,1.68,0,0,1,.09.21A3.73,3.73,0,0,1,84,51.18c0,0.28-.06.59-0.09,0.89-0.1,1.21-.26,2.42-0.26,2.42H83.56s-0.17-1.21-.26-2.42c0-.3-0.08-0.6-0.09-0.89a3.73,3.73,0,0,1,.26-1.32,1.68,1.68,0,0,1,.09-0.21h0.07Z"/><path d="M251.19,114.27s2.39-.06,6-0.07c1.79,0,3.89,0,6.13,0l7,0.12,7,0.22c2.24,0.07,4.33.19,6.13,0.26,3.59,0.18,6,.35,6,0.35s-2.39.06-6,.07c-1.79,0-3.89,0-6.13,0l-7-.12-7-.22c-2.24-.07-4.33-0.19-6.13-0.26C253.58,114.44,251.19,114.27,251.19,114.27Z"/><path d="M244.26,115.88s3,0,7.56.18c2.27,0.09,4.91.15,7.75,0.28l8.88,0.41,8.87,0.51c2.83,0.16,5.47.37,7.74,0.51,4.53,0.32,7.54.6,7.54,0.6s-3,0-7.56-.18c-2.27-.09-4.91-0.15-7.75-0.28l-8.88-.41-8.87-.51c-2.83-.16-5.47-0.37-7.74-0.51C247.28,116.15,244.26,115.88,244.26,115.88Z"/><path d="M238.91,117.12s3.53,0.16,8.82.5l9,0.61L267.11,119l10.34,0.88,9,0.84c5.27,0.52,8.79.92,8.79,0.92s-3.53-.16-8.82-0.5l-9-.61L267,119.76l-10.34-.88-9-.84C242.42,117.53,238.91,117.12,238.91,117.12Z"/><path d="M230.55,119.07l2.86,0.14,7.54,0.39,10.65,0.65,12.21,0.83L276,122l10.64,0.88c3.11,0.26,5.7.53,7.52,0.69l2.85,0.27-2.86-.14c-1.82-.1-4.42-0.2-7.54-0.39L276,122.66l-12.21-.83-12.2-.93L240.92,120l-7.52-.69Z"/><path d="M223.14,120.79l11.93,0.72,12.22,0.84,14,1,14,1.14,12.2,1.07,11.89,1.14L287.44,126l-12.22-.84-14-1-14-1.14L235,121.94Z"/><path d="M215.51,122.57l13.76,1.24,14.09,1.37,16.15,1.65,16.14,1.75,14.07,1.6,13.72,1.66-13.76-1.24-14.09-1.37-16.15-1.65-16.14-1.75-14.07-1.6Z"/><path d="M210.33,123.78l3.66,0.33,9.64,1c4,0.43,8.64.88,13.62,1.45l15.6,1.77,15.58,1.9c5,0.6,9.61,1.25,13.58,1.76l9.6,1.32,3.64,0.53-3.66-.33-9.64-1c-4-.43-8.64-0.88-13.62-1.45l-15.6-1.77-15.58-1.9c-5-.61-9.61-1.25-13.58-1.76L214,124.3Z"/><path d="M212.64,127.2l3.23,0.27c2.05,0.19,5,.42,8.51.77s7.63,0.72,12,1.2l13.76,1.48,13.75,1.61c4.39,0.51,8.48,1.07,12,1.5s6.42,0.87,8.47,1.14l3.21,0.46-3.23-.27c-2.05-.19-5-0.42-8.51-0.77s-7.63-.72-12-1.2L250,131.91,236.3,130.3c-4.39-.51-8.48-1.07-12-1.5s-6.42-.87-8.47-1.14Z"/><path d="M216.67,130l2.62,0.25c1.66,0.18,4,.4,6.9.74s6.18,0.69,9.74,1.15l11.15,1.43,11.13,1.56c3.55,0.49,6.86,1,9.7,1.45s5.19,0.84,6.85,1.1l2.59,0.45-2.62-.25c-1.66-.18-4-0.4-6.9-0.74s-6.18-.69-9.74-1.15l-11.15-1.43L235.81,133c-3.55-.5-6.86-1-9.7-1.45s-5.19-.84-6.85-1.1Z"/><path d="M291.16,112.49s0.46,0.5,1.09,1.28,1.41,1.88,2.15,3,1.41,2.28,1.88,3.17,0.73,1.52.73,1.52-0.46-.5-1.1-1.28-1.41-1.88-2.15-3-1.41-2.28-1.88-3.17S291.16,112.49,291.16,112.49Z"/><path d="M295.25,112.49s0.61,0.64,1.45,1.64,1.92,2.38,2.95,3.78,2,2.86,2.69,4,1.11,1.89,1.11,1.89-0.61-.64-1.45-1.64-1.92-2.38-2.95-3.79-2-2.86-2.69-4S295.25,112.49,295.25,112.49Z"/><path d="M299.36,112.49s0.68,0.77,1.63,2c0.46,0.61,1,1.31,1.59,2.08s1.16,1.6,1.74,2.44,1.15,1.68,1.67,2.49,1,1.57,1.39,2.22c0.8,1.31,1.28,2.22,1.28,2.22s-0.68-.77-1.63-2c-0.46-.61-1-1.31-1.59-2.08s-1.16-1.6-1.74-2.44-1.15-1.68-1.67-2.49-1-1.57-1.39-2.22C299.84,113.4,299.36,112.49,299.36,112.49Z"/><path d="M305.41,114.27s0.85,1,2,2.62c0.59,0.8,1.3,1.73,2,2.74s1.48,2.1,2.24,3.2,1.49,2.2,2.17,3.25,1.29,2,1.82,2.88c1.05,1.7,1.7,2.86,1.7,2.86s-0.85-1-2-2.62c-0.59-.8-1.3-1.73-2-2.74s-1.48-2.1-2.24-3.2-1.49-2.2-2.17-3.25-1.29-2-1.82-2.88C306.06,115.43,305.41,114.27,305.41,114.27Z"/><path d="M308.66,112.31s0.65,0.78,1.54,2c0.44,0.62,1,1.33,1.5,2.11s1.09,1.63,1.64,2.47,1.08,1.71,1.57,2.52,0.92,1.59,1.3,2.24c0.74,1.32,1.19,2.24,1.19,2.24s-0.65-.78-1.54-2c-0.44-.62-1-1.33-1.5-2.11s-1.09-1.63-1.64-2.47-1.08-1.71-1.57-2.52-0.92-1.59-1.3-2.24C309.11,113.23,308.66,112.31,308.66,112.31Z"/><path d="M304.94,6.43s1.54-.25,3.85-0.54c1.16-.13,2.5-0.31,3.95-0.46s3-.3,4.54-0.44,3.09-.25,4.54-0.35,2.81-.16,4-0.22c2.33-.11,3.88-0.12,3.88-0.12s-1.53.25-3.85,0.54c-1.16.13-2.5,0.31-3.95,0.46s-3,.3-4.54.44-3.09.25-4.54,0.35-2.81.16-4,.22C306.5,6.42,304.94,6.43,304.94,6.43Z"/><path d="M288.89,12.55s3-.46,7.59-1.06c2.28-.29,4.94-0.65,7.79-1l8.94-1,8.95-.95C325,8.21,327.68,8,330,7.76c4.58-.42,7.63-0.64,7.63-0.64s-3,.46-7.59,1.06c-2.28.28-4.94,0.65-7.79,1l-8.94,1-8.95.95c-2.86.3-5.53,0.53-7.81,0.76C292,12.33,288.89,12.55,288.89,12.55Z"/><path d="M285.44,15.37s3.34-.43,8.37-1l8.59-.92,9.85-1,9.86-.88c3.15-.28,6.09-0.49,8.61-0.7,5-.38,8.41-0.58,8.41-0.58s-3.34.44-8.37,1c-2.51.27-5.44,0.61-8.59,0.92l-9.85,1-9.86.88-8.61.69C288.8,15.17,285.44,15.37,285.44,15.37Z"/><path d="M280.34,19.53l2.79-.36,7.36-.94L300.89,17l11.94-1.33,12-1.23,10.43-1c3.05-.3,5.6-0.48,7.39-0.64l2.8-.24-2.79.36c-1.78.22-4.31,0.58-7.36,0.94l-10.41,1.23-11.94,1.33-12,1.23-10.43,1-7.39.64Z"/><path d="M277.34,22s1.22-.24,3.05-0.51c0.92-.12,2-0.29,3.14-0.43s2.38-.27,3.61-0.4,2.46-.23,3.62-0.31,2.24-.13,3.16-0.19c1.85-.09,3.1-0.09,3.1-0.09s-1.22.24-3.05,0.51c-0.92.12-2,.29-3.14,0.43s-2.38.27-3.61,0.4-2.46.23-3.62,0.31-2.24.13-3.16,0.19C278.58,22,277.34,22,277.34,22Z"/><path d="M272.27,24.24l13.44-1.59,13.78-1.53,15.81-1.68,15.82-1.58,13.81-1.31,13.48-1.18L345,17,331.19,18.5l-15.81,1.68-15.82,1.58-13.81,1.31Z"/><path d="M367,15.37s-2.32.45-5.81,1c-1.75.28-3.78,0.64-6,1l-6.85,1-6.87.93c-2.19.3-4.25,0.52-6,.74-3.52.41-5.87,0.63-5.87,0.63s2.32-.45,5.81-1c1.75-.28,3.78-0.64,6-1l6.85-1,6.87-.93c2.19-.3,4.25-0.52,6-0.74C364.69,15.59,367,15.37,367,15.37Z"/><path d="M369.72,18s-2.84.43-7.11,1c-2.14.26-4.62,0.6-7.3,0.91l-8.37,1-8.39.86c-2.68.28-5.18,0.48-7.32,0.68-4.29.37-7.15,0.56-7.15,0.56s2.84-.43,7.11-1c2.14-.26,4.62-0.6,7.3-0.91l8.37-1,8.39-.86c2.68-.28,5.18-0.48,7.32-0.68C366.85,18.23,369.72,18,369.72,18Z"/><path d="M371.76,21.06s-3.51.47-8.79,1.1l-9,1-10.35,1.09-10.36,1-9,.8c-5.3.44-8.84,0.68-8.84,0.68s3.51-.48,8.79-1.1l9-1,10.35-1.09,10.36-1,9-.8C368.22,21.29,371.76,21.06,371.76,21.06Z"/><path d="M374.69,23s-4,.46-10.08,1.06l-10.34,1-11.86,1L330.55,27l-10.36.75c-6.06.42-10.11,0.64-10.11,0.64s4-.46,10.08-1.06l10.34-1,11.86-1,11.87-.94,10.36-.75C370.64,23.2,374.69,23,374.69,23Z"/><path d="M29.65,32.8S30.77,32,32.5,31c0.87-.5,1.89-1.08,3-1.66L39,27.64C43.82,25.27,48.64,23,48.64,23l0,0.07S44,25.63,39.3,28.18l-3.44,1.89c-1.11.58-2.18,1.07-3.08,1.5-1.83.83-3.09,1.31-3.09,1.31Z"/><path d="M34.32,33.62s1.31-.87,3.33-2c1-.58,2.2-1.26,3.49-1.95l4.09-2.06C50.8,24.75,56.39,22,56.39,22l0,0.07s-5.44,3.05-10.91,6l-4,2.22C40.21,31,39,31.59,37.93,32.1c-2.12,1-3.57,1.59-3.57,1.59Z"/><path d="M39.15,34.47s1.37-1,3.49-2.27c1.07-.65,2.31-1.41,3.66-2.17l4.3-2.32L62.3,21.4l0,0.07L50.89,28.23l-4.21,2.48c-1.36.77-2.65,1.43-3.75,2-2.22,1.14-3.75,1.82-3.75,1.82Z"/><path d="M46.6,35.79s1.13-.93,2.89-2.22c0.89-.63,1.92-1.38,3.06-2.13l3.62-2.28C61.07,26,66,23,66,23l0,0.06s-4.76,3.35-9.57,6.64L53,32.08c-1.14.75-2.23,1.41-3.16,2-1.88,1.12-3.18,1.79-3.18,1.79Z"/><path d="M87.9,41.77s-1.53-.47-3.77-1.3C83,40,81.71,39.56,80.34,39l-4.27-1.89c-5.83-2.55-11.63-5.17-11.63-5.17l0-.07s5.93,2.31,11.83,4.69l4.34,1.73c1.37,0.58,2.64,1.17,3.72,1.66,2.16,1,3.57,1.78,3.57,1.78Z"/><path d="M89.11,40.43s-1.39-.45-3.42-1.24c-1-.41-2.19-0.88-3.44-1.43L78.4,35.94c-5.27-2.46-10.5-5-10.5-5l0-.07s5.37,2.22,10.72,4.49L82.57,37c1.24,0.56,2.38,1.12,3.36,1.6,1.95,1,3.21,1.72,3.21,1.72Z"/><path d="M91.5,39.6S90,39,87.69,38c-1.12-.51-2.44-1.11-3.82-1.79L79.58,34l-11.69-6.1,0-.07,11.92,5.63,4.37,2.07c1.38,0.69,2.65,1.38,3.74,2,2.17,1.19,3.57,2.07,3.57,2.07Z"/><path d="M95.06,38.36s-1.54-.66-3.79-1.78c-1.12-.57-2.43-1.22-3.8-2L83.2,32.17,71.6,25.52l0-.07,11.86,6.19,4.35,2.28c1.37,0.75,2.63,1.5,3.71,2.14,2.15,1.29,3.54,2.23,3.54,2.23Z"/><path d="M99.42,36.84s-1.68-.64-4.13-1.73c-1.22-.55-2.65-1.19-4.16-1.93l-4.68-2.39L73.72,24.27l0-.07,13,6.05,4.76,2.23c1.51,0.74,2.89,1.47,4.07,2.1,2.36,1.27,3.9,2.2,3.9,2.2Z"/><path d="M104.44,34.54s-1.83-.63-4.51-1.71c-1.34-.55-2.9-1.18-4.56-1.91l-5.14-2.37-14-6.48,0-.07,14.21,6,5.22,2.21c1.65,0.73,3.17,1.46,4.48,2.08,2.6,1.26,4.3,2.19,4.3,2.19Z"/><path d="M21.25,68.26s-1.33.07-3.31,0c-1,0-2.15-.06-3.39-0.15l-3.87-.36c-5.27-.47-10.53-1-10.53-1V66.7s5.29,0.21,10.57.48l3.88,0.18c1.24,0.09,2.39.22,3.37,0.33,2,0.24,3.28.49,3.28,0.49v0.07Z"/><path d="M26.65,66.49s-1.6,0-4-.23c-1.19-.11-2.58-0.22-4.06-0.41L14,65.19c-6.3-.87-12.59-1.82-12.59-1.82V63.3s6.33,0.61,12.66,1.3l4.65,0.48c1.48,0.18,2.85.41,4,.59,2.35,0.39,3.91.74,3.91,0.74v0.07Z"/><path d="M34.34,64.93s-2.16-.19-5.38-0.62c-1.61-.22-3.49-0.48-5.49-0.8L17.2,62.4l-17-3.05V59.28L17.3,61.81l6.29,0.94c2,0.33,3.86.68,5.46,1,3.19,0.62,5.3,1.13,5.3,1.13v0.07Z"/><path d="M39.16,63.38s-2.39-.24-5.94-0.74c-1.78-.26-3.85-0.55-6.06-0.93l-6.92-1.26L1.4,57V56.95l18.92,2.92,6.95,1.08c2.21,0.37,4.27.77,6,1.11,3.52,0.69,5.86,1.25,5.86,1.25v0.07Z"/><path d="M38.23,60.2s-2.12-.19-5.29-0.6c-1.58-.22-3.43-0.46-5.39-0.78L21.4,57.72l-16.75-3V54.65L21.5,57.13,27.68,58c2,0.32,3.8.67,5.36,1,3.13,0.61,5.2,1.11,5.2,1.11V60.2Z"/><path d="M16.34,54.18s-1-.06-2.58-0.28c-0.77-.12-1.66-0.26-2.61-0.46s-1.95-.47-3-0.72c-4-1-8-2-8-2l0-.07s4.08,0.7,8.15,1.47c1,0.18,2,.36,3,0.55s1.82,0.44,2.57.64c1.5,0.42,2.47.79,2.47,0.79Z"/><path d="M324.08,57.38c3.42,1.42,6.8,2.91,10.18,4.41,1.7,0.74,3.37,1.53,5.05,2.29l5,2.31-0.07,0,5.15,1.25c1.72,0.42,3.43.82,5.14,1.27,3.42,0.87,6.84,1.75,10.25,2.71-3.47-.66-6.93-1.4-10.38-2.15-1.73-.36-3.45-0.77-5.17-1.16l-5.16-1.18h0l0,0-5-2.37c-1.67-.8-3.35-1.57-5-2.39C330.69,60.71,327.36,59.08,324.08,57.38Z"/><path d="M328.08,55.18c3.44,1.43,6.85,2.91,10.25,4.41s6.79,3,10.18,4.57l-0.06,0c2.2,0.57,4.39,1.18,6.58,1.79l6.57,1.82,6.55,1.89c2.18,0.65,4.36,1.29,6.53,2-2.22-.51-4.42-1.05-6.63-1.59l-6.61-1.67-6.59-1.74c-2.2-.58-4.4-1.15-6.59-1.77H348.2c-3.37-1.58-6.75-3.12-10.1-4.74S331.4,56.85,328.08,55.18Z"/><path d="M331.71,52.42c3.86,1.65,7.68,3.37,11.5,5.11,1.92,0.85,3.81,1.76,5.71,2.64l5.7,2.66-0.09,0,6,1.09c2,0.37,4,.72,6,1.11,4,0.77,8,1.54,11.94,2.4-4-.56-8-1.19-12-1.84-2-.31-4-0.67-6-1l-6-1h0l0,0-5.68-2.71c-1.89-.91-3.79-1.8-5.67-2.73C339.19,56.2,335.43,54.35,331.71,52.42Z"/><path d="M337.6,50.06l7.48,4c2.24,1.22,4.87,2.6,7.69,4.06,1.42,0.72,2.88,1.48,4.4,2.12a6.75,6.75,0,0,0,1.1.37c0.39,0.09.83,0.08,1.25,0.16,0.87,0.12,1.7.26,2.54,0.39,3.35,0.58,6.69,1.21,9.83,1.79s6,1.2,8.54,1.69c5,1,8.31,1.78,8.31,1.78s-3.36-.52-8.39-1.36l-18.42-3.16-2.49-.41c-0.41-.08-0.82-0.08-1.26-0.18a6.68,6.68,0,0,1-1.28-.43c-1.56-.68-3-1.45-4.43-2.19-2.82-1.5-5.39-3-7.6-4.27C340.48,51.88,337.6,50.06,337.6,50.06Z"/><path d="M345.41,50.06q4.93,2.15,9.81,4.4c1.63,0.75,3.27,1.48,4.88,2.25L365,59l-0.1,0c5,0.63,10,1.38,15,2.07s10,1.5,14.92,2.35c-5-.5-10-1.11-15-1.72s-10-1.27-15-2h-0.06l0,0-4.84-2.34c-1.62-.77-3.21-1.59-4.82-2.38Q350.19,52.54,345.41,50.06Z"/><path d="M352.44,50.44s1.77,0.6,4.39,1.58c1.31,0.5,2.84,1,4.47,1.68l5.11,2c0.87,0.34,1.74.67,2.59,1,0.43,0.15.86,0.3,1.27,0.43l0.3,0.08,0.08,0h0.14a3.76,3.76,0,0,1,.75,0c1.76,0.27,3.33.71,4.69,1,2.71,0.7,4.49,1.27,4.49,1.27l-4.59-.85c-1.37-.27-3-0.57-4.68-0.81a2.82,2.82,0,0,0-.57,0h-0.19a0.88,0.88,0,0,1-.25,0c-0.14,0-.24-0.06-0.36-0.08-0.45-.12-0.88-0.27-1.32-0.42-0.87-.3-1.75-0.62-2.63-0.94l-5.09-2c-1.62-.66-3.11-1.34-4.39-1.9C354.12,51.26,352.44,50.44,352.44,50.44Z"/><path d="M84.76,128.37s-1.72.76-4.34,1.77c-1.32.49-2.85,1.08-4.51,1.65l-5.23,1.71-14.25,4.63,0-.07,14.08-5.13,5.17-1.88c1.66-.57,3.23-1.06,4.57-1.48,2.69-.82,4.51-1.28,4.51-1.28Z"/><path d="M90.26,128.47s-1.69.83-4.27,2c-1.29.55-2.8,1.2-4.44,1.84l-5.16,1.93-14.06,5.24,0-.07,13.87-5.73,5.09-2.1c1.64-.64,3.18-1.19,4.51-1.67,2.65-.93,4.46-1.47,4.46-1.47Z"/><path d="M97.09,128.37s-2.36,1.14-5.94,2.72c-1.8.78-3.89,1.69-6.16,2.62l-7.13,2.83-19.43,7.68,0-.07L77.63,136l7.06-3c2.27-.93,4.4-1.75,6.23-2.45,3.66-1.4,6.14-2.24,6.14-2.24Z"/><path d="M100.93,128.47s-2.11,1.25-5.33,3c-1.62.87-3.5,1.88-5.54,2.92l-6.44,3.18-17.55,8.64,0-.07L83.34,137l6.36-3.34c2-1,4-2,5.63-2.76,3.31-1.58,5.57-2.54,5.57-2.54Z"/><path d="M105.43,128.82s-1.06.8-2.71,1.88c-0.83.53-1.8,1.16-2.86,1.78l-3.38,1.87c-4.59,2.57-9.22,5.08-9.22,5.08l0-.06s4.46-2.8,9-5.54l3.29-2c1.06-.62,2.08-1.16,3-1.62,1.75-.91,3-1.44,3-1.44Z"/><path d="M110.59,128.47s-1.7,1.12-4.33,2.69c-1.32.77-2.85,1.68-4.52,2.6l-5.28,2.81-14.38,7.65,0-.07L96.18,136l5.19-3c1.67-.92,3.25-1.74,4.61-2.44,2.72-1.39,4.58-2.23,4.58-2.23Z"/><path d="M113.26,128.37s-0.72.69-1.88,1.62c-0.59.45-1.27,1-2,1.51s-1.61,1-2.44,1.57c-3.31,2.16-6.65,4.27-6.65,4.27l0-.06s3.16-2.38,6.35-4.7c0.79-.59,1.58-1.19,2.34-1.72s1.5-1,2.13-1.36c1.28-.76,2.18-1.19,2.18-1.19Z"/><path d="M115.58,128.81s-1.1,1.09-2.84,2.61c-0.88.75-1.9,1.64-3,2.54l-3.59,2.76c-4.87,3.77-9.78,7.49-9.78,7.49l0-.06s4.7-4,9.45-7.9l3.47-2.9c1.13-.9,2.21-1.7,3.14-2.39,1.87-1.36,3.17-2.2,3.17-2.2Z"/><path d="M216.67,29.4s0.87-.12,2.17-0.21,3-.16,4.77-0.16,3.47,0.06,4.77.16,2.17,0.22,2.17.22-0.87.12-2.17,0.22-3,.16-4.77.16-3.47-.07-4.77-0.16S216.67,29.4,216.67,29.4Z"/><path d="M210.37,31.91s2.07-.12,5.17-0.21c1.55,0,3.36-.1,5.3-0.11l6.08,0,6.08,0c1.94,0,3.75.08,5.3,0.11,3.1,0.09,5.17.21,5.17,0.21s-2.07.12-5.17,0.21c-1.55,0-3.36.1-5.3,0.11l-6.08,0-6.08,0c-1.94,0-3.75-.08-5.3-0.11C212.44,32,210.37,31.91,210.37,31.91Z"/><path d="M222,35.66s2-.12,5-0.21c1.49,0,3.22-.1,5.08-0.11l5.83,0,5.83,0c1.86,0,3.6.08,5.08,0.11,3,0.09,5,.21,5,0.21s-2,.12-5,0.21c-1.49,0-3.22.1-5.08,0.11l-5.83,0L232,36c-1.86,0-3.6-.08-5.08-0.11C224,35.78,222,35.66,222,35.66Z"/><path d="M230.55,38.59s1.81-.12,4.52-0.21c1.36,0,2.94-.1,4.63-0.11l5.31,0,5.31,0c1.69,0,3.28.08,4.63,0.11,2.71,0.09,4.52.21,4.52,0.21s-1.81.12-4.52,0.21c-1.36,0-2.94.1-4.63,0.11L245,39l-5.31,0c-1.69,0-3.28-.08-4.63-0.11C232.36,38.71,230.55,38.59,230.55,38.59Z"/><path d="M413.31,95.53s1.18,0,2.94.14c0.88,0.07,1.9.13,3,.24s2.26,0.23,3.43.37,2.33,0.29,3.42.45,2.1,0.34,3,.48c1.74,0.3,2.89.56,2.89,0.56s-1.18,0-2.94-.14c-0.88-.07-1.9-0.13-3-0.24s-2.26-.23-3.43-0.37-2.33-.29-3.42-0.46-2.1-.34-3-0.48C414.46,95.79,413.31,95.53,413.31,95.53Z"/><path d="M402.74,97.77s4,0.3,10,.83l10.21,1,11.69,1.17L446.3,102l10.18,1.18c6,0.71,9.93,1.25,9.93,1.25s-4-.3-10-0.83l-10.21-1-11.69-1.17-11.68-1.27L412.67,99C406.71,98.31,402.74,97.77,402.74,97.77Z"/><path d="M388.74,97.77l12.84,1.6,13.15,1.74,15.06,2.07,15,2.17,13.12,2,12.78,2-12.84-1.6L444.75,106l-15.06-2.08-15-2.17-13.12-2Z"/><path d="M380.74,97.77l14.38,2.09,14.72,2.24,16.86,2.65,16.85,2.75L458.24,110l14.31,2.51-14.38-2.09-14.72-2.24-16.86-2.65-16.85-2.75-14.69-2.47Z"/><path d="M374.69,100.25L390,102.38l15.69,2.28,18,2.69,18,2.79,15.66,2.5,15.26,2.54-15.32-2.12-15.69-2.28-18-2.69-18-2.79-15.66-2.5Z"/><path d="M367,101.1l14.1,2.1,14.44,2.25,16.54,2.66,16.52,2.76,14.4,2.48,14,2.52-14.1-2.1-14.44-2.25L412,108.86l-16.52-2.76-14.4-2.48Z"/><path d="M365.33,103.17l14.06,2.17,14.39,2.32,16.49,2.74,16.47,2.84,14.35,2.55,14,2.58L441,116.2l-14.39-2.32-16.49-2.74-16.47-2.84-14.35-2.55Z"/><path d="M376.61,107.71l11.6,1.94,11.87,2.09,13.59,2.47,13.57,2.57,11.83,2.31,11.52,2.36L439,119.52l-11.87-2.09L413.53,115,400,112.38l-11.83-2.31Z"/><path d="M385.12,112.31s1.13,0.13,2.8.41c0.83,0.15,1.81.31,2.85,0.52s2.14,0.44,3.25.68,2.2,0.51,3.23.77,2,0.53,2.8.75c1.63,0.46,2.71.82,2.71,0.82s-1.13-.13-2.8-0.41c-0.83-.15-1.81-0.31-2.85-0.52s-2.14-.44-3.25-0.68-2.2-.51-3.23-0.77-2-.53-2.8-0.75C386.2,112.67,385.12,112.31,385.12,112.31Z"/><path d="M379.73,27.09s1-.67,2.46-1.6c0.75-.45,1.62-1,2.57-1.55s2-1.13,3-1.7,2.06-1.12,3-1.62,1.9-.95,2.68-1.34C395,18.5,396.13,18,396.13,18s-1,.67-2.46,1.6c-0.75.45-1.62,1-2.57,1.55s-2,1.13-3,1.7-2.06,1.12-3,1.62-1.9.95-2.68,1.34C380.81,26.62,379.73,27.09,379.73,27.09Z"/><path d="M384.55,28.4s1.21-.86,3.07-2.07c0.94-.59,2-1.31,3.2-2s2.45-1.49,3.72-2.26,2.55-1.5,3.76-2.18,2.35-1.29,3.32-1.83c2-1.05,3.29-1.71,3.29-1.71s-1.21.86-3.07,2.07c-0.94.59-2,1.31-3.2,2s-2.45,1.49-3.72,2.26-2.55,1.5-3.76,2.18-2.35,1.29-3.32,1.83C385.88,27.75,384.55,28.4,384.55,28.4Z"/><path d="M388.74,29.54s1.21-.73,3.06-1.75c0.93-.5,2-1.1,3.18-1.71s2.43-1.25,3.68-1.88,2.53-1.24,3.72-1.8,2.32-1.06,3.28-1.5c1.93-.86,3.24-1.38,3.24-1.38s-1.21.73-3.06,1.75c-0.93.5-2,1.1-3.18,1.71s-2.43,1.25-3.68,1.88-2.53,1.24-3.72,1.8-2.32,1.06-3.28,1.5C390.06,29,388.74,29.54,388.74,29.54Z"/><path d="M393.93,31.88s1.15-.86,2.92-2.07c0.89-.59,1.92-1.31,3-2s2.33-1.49,3.53-2.26,2.43-1.5,3.58-2.18,2.24-1.29,3.17-1.83c1.86-1.06,3.14-1.71,3.14-1.71s-1.15.86-2.92,2.07c-0.89.59-1.92,1.31-3,2s-2.33,1.49-3.53,2.26-2.43,1.5-3.58,2.18-2.24,1.3-3.17,1.83C395.21,31.23,393.93,31.88,393.93,31.88Z"/><path d="M399.5,33.38s0.52-.56,1.34-1.35,2-1.77,3.13-2.72,2.39-1.84,3.33-2.47,1.6-1,1.6-1-0.52.56-1.34,1.35-2,1.77-3.13,2.72-2.39,1.83-3.33,2.47S399.5,33.38,399.5,33.38Z"/><path d="M404.21,33.75s0.73-.8,1.87-1.94c0.58-.56,1.24-1.23,2-1.91s1.53-1.41,2.33-2.13,1.62-1.41,2.39-2.06,1.52-1.23,2.14-1.74c1.27-1,2.15-1.62,2.15-1.62s-0.72.8-1.87,1.94c-0.58.56-1.24,1.23-2,1.91s-1.53,1.41-2.33,2.13-1.62,1.41-2.39,2.06-1.52,1.23-2.14,1.74C405.09,33.13,404.21,33.75,404.21,33.75Z"/><path d="M407.1,34.54s0.32-.4.84-0.94a23.27,23.27,0,0,1,4.26-3.39c0.64-.38,1.1-0.6,1.1-0.6s-0.32.4-.83,0.94a23.27,23.27,0,0,1-4.26,3.39C407.56,34.32,407.1,34.54,407.1,34.54Z"/><path d="M249.92,44.92s-2.31-.86-5.75-2.23c-1.71-.7-3.72-1.48-5.85-2.38l-6.67-2.8L225,34.61c-2.12-.92-4.07-1.83-5.76-2.59-3.36-1.54-5.58-2.62-5.58-2.62s2.31,0.86,5.75,2.23c1.71,0.7,3.72,1.48,5.85,2.38l6.67,2.8,6.63,2.89c2.12,0.92,4.07,1.83,5.76,2.59C247.71,43.84,249.92,44.92,249.92,44.92Z"/><path d="M252.79,44.24s-2.06-1-5.12-2.5c-1.52-.78-3.31-1.65-5.2-2.65L236.55,36l-5.88-3.19c-1.88-1-3.6-2-5.09-2.85-3-1.69-4.92-2.87-4.92-2.87s2.06,1,5.12,2.49c1.52,0.78,3.31,1.65,5.2,2.65l5.92,3.11,5.87,3.19c1.88,1,3.6,2,5.09,2.85C250.84,43.07,252.79,44.24,252.79,44.24Z"/><path d="M256.83,41.74s-1.69-.66-4.19-1.74c-1.24-.55-2.71-1.16-4.26-1.87l-4.84-2.22-4.8-2.31c-1.53-.73-2.94-1.47-4.16-2.08-2.42-1.24-4-2.12-4-2.12s1.69,0.66,4.2,1.74C236,31.69,237.46,32.3,239,33l4.84,2.22,4.8,2.31c1.53,0.74,2.94,1.47,4.16,2.08C255.24,40.86,256.83,41.74,256.83,41.74Z"/><path d="M231.8,27.09S234,28,237.38,29.48C239,30.23,241,31.07,243.05,32l6.47,3,6.42,3.08c2.05,1,3.94,1.95,5.57,2.75,3.25,1.63,5.4,2.78,5.4,2.78s-2.25-.92-5.58-2.39c-1.66-.75-3.61-1.59-5.67-2.55l-6.47-3-6.42-3.08c-2.05-1-3.94-1.95-5.57-2.75C233.95,28.23,231.8,27.09,231.8,27.09Z"/><path d="M252.79,33.75s1.48,0.51,3.67,1.35c1.09,0.43,2.37.92,3.72,1.47s2.79,1.16,4.23,1.77,2.86,1.25,4.2,1.85,2.57,1.2,3.63,1.69c2.12,1,3.5,1.74,3.5,1.74s-1.48-.51-3.67-1.35c-1.09-.43-2.37-0.91-3.72-1.47s-2.79-1.16-4.23-1.77-2.86-1.25-4.2-1.85-2.57-1.2-3.63-1.69C254.18,34.48,252.79,33.75,252.79,33.75Z"/><path d="M110.58,108.34s0.15-.91.46-2.25,0.78-3.11,1.31-4.86,1.12-3.48,1.61-4.77,0.87-2.13.87-2.13-0.15.91-.46,2.25-0.78,3.11-1.31,4.86-1.13,3.48-1.61,4.77S110.58,108.34,110.58,108.34Z"/><path d="M112.7,110.34s0.15-.75.46-1.84,0.77-2.53,1.3-4,1.11-2.81,1.6-3.84,0.86-1.7.86-1.7-0.15.75-.46,1.85-0.77,2.53-1.3,3.95-1.11,2.81-1.6,3.84S112.7,110.34,112.7,110.34Z"/><path d="M115.56,110.34s0.25-.92.7-2.28c0.24-.67.5-1.46,0.81-2.3s0.66-1.72,1-2.6,0.73-1.75,1.1-2.56,0.73-1.56,1-2.21c0.62-1.28,1.09-2.12,1.09-2.12s-0.25.92-.7,2.28c-0.24.67-.49,1.46-0.81,2.3s-0.66,1.72-1,2.6-0.73,1.75-1.1,2.56-0.73,1.56-1,2.21C116,109.51,115.56,110.34,115.56,110.34Z"/><path d="M438.54,66.55s-0.53,1.21-1.4,3c-0.45.88-.94,1.92-1.52,3s-1.19,2.25-1.82,3.4-1.28,2.3-1.9,3.36-1.22,2-1.73,2.89c-1,1.68-1.77,2.78-1.77,2.78s0.53-1.21,1.4-3c0.45-.88.94-1.92,1.52-3s1.19-2.25,1.82-3.4,1.28-2.3,1.9-3.36,1.22-2,1.73-2.89C437.8,67.64,438.54,66.55,438.54,66.55Z"/><path d="M440.41,66.6s-0.51,1.41-1.35,3.48c-0.43,1-.92,2.25-1.47,3.53s-1.16,2.65-1.77,4-1.25,2.71-1.85,4S432.76,84,432.27,85c-1,2-1.74,3.31-1.74,3.31s0.51-1.41,1.35-3.48c0.43-1,.91-2.25,1.47-3.53s1.16-2.65,1.77-4,1.25-2.71,1.85-4,1.2-2.43,1.69-3.43C439.68,67.9,440.41,66.6,440.41,66.6Z"/><path d="M442.91,66.45s-0.3,1-.84,2.58c-0.28.76-.58,1.66-1,2.61s-0.77,2-1.17,3-0.84,2-1.26,2.92-0.83,1.78-1.17,2.52c-0.7,1.47-1.23,2.42-1.23,2.42s0.3-1,.84-2.58c0.28-.76.58-1.66,1-2.61s0.77-2,1.18-3,0.84-2,1.26-2.92,0.83-1.78,1.17-2.52C442.39,67.41,442.91,66.45,442.91,66.45Z"/><path d="M444.94,66.7s0,0.47-.11,1.16a19.77,19.77,0,0,1-1.4,4.82c-0.29.63-.52,1-0.52,1s0-.47.11-1.16a19.77,19.77,0,0,1,1.4-4.82C444.7,67.11,444.94,66.7,444.94,66.7Z"/><path d="M446.78,67.4s-0.13.83-.4,2.06-0.7,2.85-1.18,4.45-1,3.18-1.48,4.36-0.81,1.94-.81,1.94,0.13-.83.4-2.06,0.7-2.85,1.18-4.45,1-3.18,1.49-4.36S446.78,67.4,446.78,67.4Z"/><path d="M449.28,67.4s0,0.56-.19,1.37a28.18,28.18,0,0,1-1.72,5.75c-0.33.76-.6,1.24-0.6,1.24s0-.56.18-1.37a28.18,28.18,0,0,1,1.72-5.74C449,67.89,449.28,67.4,449.28,67.4Z"/><path d="M451.66,66.86a4.6,4.6,0,0,1,0,.7,6.73,6.73,0,0,1-.74,2.82,4.54,4.54,0,0,1-.38.59,4.53,4.53,0,0,1,0-.7,6.73,6.73,0,0,1,.74-2.82A4.6,4.6,0,0,1,451.66,66.86Z"/><path d="M452.91,66.86s0,0.81-.15,2-0.35,2.8-.64,4.39-0.65,3.16-1,4.33-0.58,1.94-.58,1.94,0-.81.15-2,0.36-2.8.64-4.39,0.65-3.16,1-4.33S452.91,66.86,452.91,66.86Z"/><path d="M455.08,66.94s-0.06.77-.23,1.9-0.46,2.63-.8,4.11-0.76,2.95-1.11,4-0.65,1.8-.65,1.8,0.06-.77.23-1.9,0.46-2.63.8-4.11,0.76-2.95,1.12-4S455.08,66.94,455.08,66.94Z"/><path d="M457.08,67s0,0.56-.19,1.39a29.2,29.2,0,0,1-1.75,5.85c-0.33.77-.6,1.27-0.6,1.27s0-.57.19-1.39a29.2,29.2,0,0,1,1.75-5.85C456.81,67.49,457.08,67,457.08,67Z"/><path d="M429.74,71.58s3-.12,7.45-0.21c2.23,0,4.84-.1,7.63-0.11l8.75,0,8.75,0.05c2.79,0,5.4.09,7.63,0.12,4.47,0.09,7.45.21,7.45,0.21s-3,.12-7.45.21c-2.23,0-4.84.1-7.63,0.11l-8.75,0-8.75-.05c-2.79,0-5.4-.09-7.63-0.12C432.72,71.7,429.74,71.58,429.74,71.58Z"/><path d="M430.53,73.81s2-.12,5.12-0.21c1.54,0,3.33-.1,5.25-0.11l6,0,6,0c1.92,0,3.71.08,5.25,0.11,3.07,0.09,5.12.21,5.12,0.21s-2,.12-5.12.21c-1.54,0-3.33.1-5.25,0.11l-6,0-6,0c-1.92,0-3.71-.08-5.25-0.11C432.58,73.93,430.53,73.81,430.53,73.81Z"/><path d="M424.78,75.76s2.16-.12,5.39-0.21c1.62,0,3.5-.1,5.53-0.11l6.33,0,6.33,0c2,0,3.91.08,5.53,0.11,3.23,0.09,5.39.21,5.39,0.21s-2.16.12-5.39,0.21c-1.62,0-3.5.1-5.53,0.11l-6.33,0-6.33,0c-2,0-3.91-.08-5.53-0.11C426.94,75.88,424.78,75.76,424.78,75.76Z"/><path d="M488,104.65s0.74,0.12,1.83.36,2.51,0.64,3.92,1.09,2.8,1,3.82,1.4,1.69,0.77,1.69.77-0.74-.12-1.83-0.36-2.51-.64-3.92-1.09-2.8-1-3.82-1.4S488,104.65,488,104.65Z"/><path d="M487.41,100.25s0.88,0.21,2.18.6,3,1,4.68,1.61,3.34,1.34,4.56,1.91,2,1,2,1-0.88-.21-2.18-0.6-3-1-4.68-1.61-3.34-1.34-4.56-1.91S487.41,100.25,487.41,100.25Z"/><path d="M488.84,97.77s0.71,0,1.77.18,2.45,0.39,3.82.7,2.74,0.68,3.75,1,1.67,0.6,1.67.6-0.71,0-1.77-.18-2.45-.39-3.82-0.7-2.74-.68-3.75-1S488.84,97.77,488.84,97.77Z"/><path d="M490.48,96.65s0.61,0,1.51,0,2.1,0.09,3.29.22,2.37,0.34,3.26.54,1.46,0.39,1.46.39-0.61,0-1.51,0-2.1-.09-3.29-0.23-2.37-.34-3.26-0.54S490.48,96.65,490.48,96.65Z"/><path d="M442.91,30.85s0.81-.12,2-0.21,2.82-.16,4.43-0.16,3.22,0.06,4.43.16,2,0.22,2,.22-0.81.12-2,.22-2.82.16-4.43,0.16-3.22-.07-4.43-0.16S442.91,30.85,442.91,30.85Z"/><path d="M436.28,32.08s2.07-.12,5.16-0.21c1.55,0,3.36-.1,5.29-0.11l6.07,0,6.07,0c1.94,0,3.74.08,5.29,0.11,3.1,0.09,5.16.21,5.16,0.21s-2.07.12-5.16,0.21c-1.55,0-3.36.1-5.29,0.11l-6.07,0-6.07,0c-1.94,0-3.74-.08-5.29-0.11C438.35,32.2,436.28,32.08,436.28,32.08Z"/><path d="M431.94,33.75s3.08-.12,7.71-0.21c2.31,0,5-.1,7.9-0.11l9.06,0,9.06,0c2.89,0,5.59.08,7.9,0.11,4.63,0.09,7.71.21,7.71,0.21s-3.08.12-7.71,0.21c-2.31,0-5,.1-7.9.11l-9.06,0-9.06,0c-2.89,0-5.59-.08-7.9-0.11C435,33.87,431.94,33.75,431.94,33.75Z"/><path d="M426,35.64s1.49-.16,3.73-0.3c1.12-.06,2.42-0.15,3.82-0.21S436.46,35,438,35s3-.06,4.38-0.06,2.71,0,3.83,0c2.24,0,3.74.12,3.74,0.12s-1.49.16-3.73,0.3c-1.12.06-2.42,0.15-3.82,0.21s-2.89.11-4.38,0.15-3,.06-4.38.06-2.71,0-3.83,0C427.52,35.72,426,35.64,426,35.64Z"/><path d="M426.65,36.73s3.79-.21,9.49-0.42l9.73-.33,11.15-.3,11.16-.2,9.73-.11c5.7,0,9.5,0,9.5,0s-3.79.21-9.49,0.43l-9.73.33-11.15.3-11.16.2-9.73.11C430.45,36.76,426.65,36.73,426.65,36.73Z"/><path d="M426.65,39.37s2.49-.12,6.21-0.21c1.86,0,4-.1,6.37-0.11l7.3,0,7.3,0c2.33,0,4.5.08,6.37,0.11,3.73,0.09,6.21.21,6.21,0.21s-2.49.12-6.21,0.21c-1.86,0-4,.1-6.37.11l-7.3,0-7.3,0c-2.33,0-4.5-.08-6.37-0.11C429.13,39.49,426.65,39.37,426.65,39.37Z"/><path d="M416.12,41.74l3-.06,7.79-.15,11-.11,12.63,0,12.63,0,11,0.11c3.22,0,5.91.12,7.79,0.15l3,0.06-3,.06c-1.88,0-4.57.12-7.79,0.15l-11,.11-12.63,0-12.63,0-11-.11-7.79-.15Z"/><path d="M422.62,43.34l2.9-.06,7.64-.15L444,43l12.38,0,12.38,0,10.8,0.11c3.16,0,5.79.12,7.64,0.15l2.9,0.06-2.9.06c-1.84,0-4.48.12-7.64,0.15l-10.8.11-12.38,0-12.38,0-10.8-.11-7.64-.15Z"/><path d="M421.66,45.76s1.88-.12,4.7-0.21c1.41,0,3.06-.1,4.82-0.11l5.52,0,5.52,0c1.76,0,3.41.08,4.82,0.11,2.82,0.09,4.7.21,4.7,0.21s-1.88.12-4.7,0.21c-1.41,0-3.06.1-4.82,0.11l-5.52,0-5.52,0c-1.76,0-3.41-.08-4.82-0.11C423.54,45.88,421.66,45.76,421.66,45.76Z"/><path d="M300.91,99s1.09,0.49,2.68,1.3c0.79,0.42,1.72.88,2.7,1.41s2,1.12,3.05,1.7,2.06,1.2,3,1.78,1.83,1.15,2.58,1.62c1.5,1,2.47,1.66,2.47,1.66s-1.09-.49-2.68-1.3c-0.79-.42-1.72-0.88-2.7-1.41s-2-1.12-3.05-1.7-2.06-1.2-3-1.78-1.83-1.15-2.58-1.62C301.88,99.71,300.91,99,300.91,99Z"/><path d="M311.41,101.1s0.86,0.41,2.09,1.11c0.61,0.36,1.34.76,2.09,1.22s1.55,1,2.35,1.47,1.58,1,2.3,1.55,1.39,1,2,1.42c1.14,0.85,1.86,1.46,1.86,1.46s-0.86-.41-2.09-1.11c-0.61-.36-1.34-0.76-2.09-1.22s-1.55-1-2.35-1.48-1.58-1-2.3-1.55-1.39-1-2-1.42C312.14,101.72,311.41,101.1,311.41,101.1Z"/><path d="M315.34,101.1s0.85,0.36,2.1,1,2.87,1.48,4.46,2.4,3.15,1.9,4.3,2.68,1.88,1.34,1.88,1.34-0.85-.36-2.1-1-2.87-1.48-4.46-2.4-3.15-1.9-4.3-2.68S315.34,101.1,315.34,101.1Z"/><path d="M299.35,103.75s1.35-.28,3.38-0.62c1-.16,2.2-0.36,3.48-0.54s2.64-.36,4-0.53,2.73-.32,4-0.44,2.48-.21,3.51-0.31c2.06-.16,3.43-0.2,3.43-0.2s-1.35.29-3.38,0.62c-1,.16-2.2.37-3.48,0.54s-2.64.36-4,.53-2.73.32-4,.44-2.48.21-3.51,0.31C300.72,103.7,299.35,103.75,299.35,103.75Z"/><path d="M305.41,106.46s2.08-.51,5.23-1.18c1.57-.32,3.4-0.73,5.38-1.11l6.18-1.19,6.2-1.09c2-.35,3.83-0.62,5.42-0.88,3.18-.49,5.3-0.76,5.3-0.76s-2.08.51-5.23,1.18c-1.57.32-3.4,0.73-5.38,1.11l-6.18,1.19-6.2,1.09c-2,.35-3.83.62-5.42,0.88C307.54,106.19,305.41,106.46,305.41,106.46Z"/><path d="M310.08,107.71s1-.26,2.56-0.57c0.77-.14,1.67-0.33,2.64-0.49s2-.32,3-0.47,2.07-.28,3.05-0.39,1.89-.18,2.67-0.26c1.57-.13,2.62-0.16,2.62-0.16s-1,.27-2.56.57c-0.77.14-1.67,0.33-2.64,0.49s-2,.32-3,0.47-2.07.28-3.05,0.38-1.89.18-2.67,0.26C311.13,107.69,310.08,107.71,310.08,107.71Z"/><path d="M111,58.89L111.32,59c0.2,0.1.45,0.26,0.76,0.46a9.66,9.66,0,0,1,1,.76c0.33,0.31.66,0.67,1,1,1.37,1.36,2.7,2.77,2.7,2.77l0,0.06s-1.55-1.16-3.05-2.38c-0.38-.3-0.77-0.59-1.12-0.88a9.66,9.66,0,0,1-.86-0.89c-0.23-.29-0.42-0.52-0.54-0.71S111,58.95,111,58.95Z"/><path d="M112.7,56s0.55,0.29,1.34.78,1.78,1.21,2.75,2,1.89,1.57,2.55,2.22,1.07,1.12,1.07,1.12-0.55-.29-1.34-0.78-1.78-1.21-2.75-2-1.89-1.57-2.55-2.22S112.7,56,112.7,56Z"/><path d="M113.86,54.48s0.81,0.44,2,1.17,2.68,1.75,4.17,2.82,2.92,2.2,4,3.08,1.72,1.52,1.72,1.52-0.81-.44-2-1.17-2.68-1.75-4.16-2.82-2.92-2.2-4-3.08S113.86,54.48,113.86,54.48Z"/><path d="M116.16,50.69s0.78,0.59,1.88,1.54c0.54,0.48,1.19,1,1.86,1.64s1.37,1.28,2.07,2,1.38,1.36,2,2,1.2,1.29,1.69,1.82c1,1.08,1.58,1.84,1.58,1.84s-0.78-.59-1.88-1.54c-0.54-.48-1.19-1-1.86-1.64s-1.37-1.28-2.07-2-1.38-1.36-2-2-1.2-1.29-1.69-1.82C116.77,51.45,116.16,50.69,116.16,50.69Z"/><path d="M119.49,49.65s0.69,0.59,1.67,1.53,2.23,2.23,3.44,3.57,2.37,2.72,3.2,3.78,1.35,1.82,1.35,1.82-0.69-.59-1.67-1.53-2.23-2.23-3.44-3.57-2.37-2.72-3.2-3.78S119.49,49.65,119.49,49.65Z"/><path d="M124.35,50.67s0.15,0.12.4,0.36,0.59,0.57,1,1,0.83,0.93,1.29,1.49,0.87,1.2,1.32,1.83c1.82,2.47,3.59,5,3.59,5l-0.06,0s-2-2.31-4-4.66c-0.5-.58-1-1.16-1.46-1.72s-0.83-1.12-1.14-1.6-0.57-.9-0.73-1.2-0.25-.47-0.25-0.47Z"/><path d="M145.91,94.34s0.38,1.25.87,3.14c0.23,0.95.53,2.05,0.8,3.24s0.55,2.46.82,3.73,0.52,2.55.74,3.75,0.4,2.33.56,3.29c0.31,1.93.46,3.23,0.46,3.23s-0.38-1.25-.87-3.14c-0.23-.95-0.53-2.05-0.8-3.24s-0.55-2.46-.82-3.73-0.52-2.55-.74-3.75-0.4-2.33-.56-3.29C146.06,95.64,145.91,94.34,145.91,94.34Z"/><path d="M150.95,92.63s0.53,1.42,1.23,3.57c0.34,1.08.76,2.33,1.17,3.69s0.83,2.8,1.25,4.26,0.81,2.91,1.17,4.28,0.66,2.66.94,3.76c0.53,2.2.83,3.69,0.83,3.69s-0.53-1.42-1.23-3.57c-0.34-1.08-.76-2.33-1.17-3.69s-0.83-2.8-1.25-4.26-0.81-2.91-1.17-4.28-0.66-2.66-.94-3.76C151.24,94.12,150.95,92.63,150.95,92.63Z"/><path d="M154.81,91.59s0.79,1.6,1.9,4c0.54,1.22,1.2,2.64,1.86,4.17l2.06,4.82,2,4.85c0.63,1.55,1.16,3,1.65,4.26,0.94,2.5,1.51,4.2,1.51,4.2s-0.8-1.6-1.9-4c-0.54-1.22-1.21-2.64-1.86-4.17l-2.05-4.82L158,100c-0.63-1.55-1.16-3-1.65-4.26C155.38,93.28,154.81,91.59,154.81,91.59Z"/><path d="M159.28,91.14s1.06,1.7,2.56,4.29c0.74,1.3,1.63,2.8,2.54,4.44l2.83,5.13,2.75,5.18c0.88,1.65,1.65,3.22,2.33,4.55,1.35,2.68,2.19,4.49,2.19,4.49s-1.06-1.7-2.56-4.29c-0.74-1.3-1.63-2.8-2.54-4.44l-2.83-5.13-2.75-5.18c-0.88-1.65-1.65-3.22-2.33-4.55C160.13,93,159.28,91.14,159.28,91.14Z"/><path d="M141.27,95.25s0.11,1.19.19,3c0,0.89.08,1.93,0.09,3s0,2.3,0,3.49,0,2.38-.07,3.49-0.1,2.15-.14,3c-0.11,1.78-.24,3-0.24,3s-0.11-1.19-.19-3c0-.89-0.08-1.93-0.09-3s0-2.3,0-3.49,0-2.38.07-3.49,0.1-2.15.14-3C141.14,96.44,141.27,95.25,141.27,95.25Z"/><path d="M310.08,67.78s0.2,1.22.42,3.07c0.1,0.92.23,2,.33,3.15s0.2,2.39.29,3.62,0.15,2.47.2,3.62,0.06,2.24.09,3.17c0,1.86,0,3.1,0,3.1s-0.2-1.22-.42-3.07c-0.1-.92-0.23-2-0.33-3.15s-0.2-2.39-.29-3.62-0.15-2.47-.2-3.62-0.07-2.24-.09-3.17C310,69,310.08,67.78,310.08,67.78Z"/><path d="M312.27,67.83s0.33,1.27.75,3.19c0.19,1,.45,2.08.67,3.28s0.46,2.49.68,3.78,0.42,2.58.59,3.79,0.31,2.35.44,3.32c0.24,1.95.33,3.26,0.33,3.26s-0.34-1.27-.75-3.19c-0.19-1-.45-2.08-0.67-3.28s-0.45-2.49-.68-3.78-0.42-2.58-.59-3.79-0.31-2.35-.44-3.32C312.37,69.14,312.27,67.83,312.27,67.83Z"/><path d="M315.73,67.92s0.53,1.29,1.24,3.24c0.34,1,.77,2.12,1.18,3.35s0.84,2.55,1.27,3.87,0.82,2.65,1.18,3.9,0.67,2.42,1,3.43c0.54,2,.84,3.37.84,3.37s-0.53-1.29-1.25-3.24c-0.34-1-.77-2.12-1.18-3.35s-0.84-2.55-1.27-3.87-0.82-2.65-1.18-3.9-0.67-2.42-1-3.43C316,69.28,315.73,67.92,315.73,67.92Z"/><path d="M317.74,72.87s2-.1,5-0.16c1.5,0,3.26-.07,5.14-0.06h5.89l5.89,0.11c1.88,0,3.63.12,5.13,0.17,3,0.12,5,.26,5,0.26s-2,.1-5,0.16c-1.5,0-3.26.07-5.14,0.06h-5.89l-5.89-.11c-1.88,0-3.63-.12-5.13-0.17C319.75,73,317.74,72.87,317.74,72.87Z"/><path d="M318.79,77.62s2.47-.24,6.18-0.5c1.86-.12,4-0.29,6.34-0.41l7.27-.39,7.28-.29c2.32-.1,4.49-0.13,6.35-0.18,3.72-.08,6.2-0.08,6.2-0.08s-2.47.24-6.18,0.5c-1.86.12-4,.29-6.34,0.41l-7.27.39-7.28.29c-2.32.09-4.49,0.13-6.35,0.18C321.27,77.63,318.79,77.62,318.79,77.62Z"/><path d="M321.16,81.89s2.62-.22,6.56-0.47c2-.11,4.26-0.27,6.72-0.38l7.71-.36,7.72-.26c2.46-.09,4.76-0.11,6.73-0.15,3.94-.07,6.57-0.05,6.57-0.05s-2.62.23-6.56,0.47c-2,.11-4.26.27-6.72,0.38l-7.71.36-7.72.26c-2.46.08-4.76,0.11-6.73,0.15C323.79,81.9,321.16,81.89,321.16,81.89Z"/><path d="M321.71,85.21s2-.22,5.11-0.46c1.53-.11,3.32-0.26,5.24-0.37l6-.35,6-.25c1.92-.08,3.71-0.1,5.25-0.14,3.08-.06,5.13,0,5.13,0s-2,.22-5.11.46c-1.53.11-3.32,0.27-5.24,0.37l-6,.35-6,.25c-1.92.08-3.71,0.1-5.25,0.14C323.76,85.23,321.71,85.21,321.71,85.21Z"/><path d="M19.71,2.87a1,1,0,0,1,0-.17,2,2,0,0,1,.14-0.38,1.8,1.8,0,0,1,.3-0.44c0.14-.13.32-0.24,0.49-0.36C21.32,1,22,.54,22,0.54L22.06,0.6s-0.46.7-1,1.35c-0.12.17-.23,0.35-0.36,0.49a1.8,1.8,0,0,1-.43.31,2,2,0,0,1-.38.15l-0.17,0Z"/><path d="M22,3.69a1.31,1.31,0,0,1,0-.2A2.83,2.83,0,0,1,22.13,3a2.69,2.69,0,0,1,.28-0.59c0.14-.19.31-0.38,0.48-0.57,0.63-.79,1.32-1.54,1.32-1.54l0.06,0s-0.41.93-.88,1.83c-0.11.23-.21,0.46-0.33,0.67a2.69,2.69,0,0,1-.43.49,2.83,2.83,0,0,1-.39.29l-0.17.09Z"/><path d="M25.88,4.44A2,2,0,0,1,26,4.2a4.69,4.69,0,0,1,.3-0.56A4.79,4.79,0,0,1,26.82,3c0.23-.22.5-0.43,0.76-0.65,1-.91,2.07-1.76,2.07-1.76L29.7,0.6S28.88,1.68,28,2.72C27.8,3,27.59,3.26,27.38,3.5a4.79,4.79,0,0,1-.67.56,4.69,4.69,0,0,1-.55.32l-0.23.1Z"/><path d="M29.76,5.42a2.49,2.49,0,0,1,.09-0.27,6,6,0,0,1,.31-0.66,6.32,6.32,0,0,1,.55-0.84c0.24-.28.51-0.55,0.78-0.84,1-1.16,2.14-2.27,2.14-2.27l0.06,0S32.85,1.91,32,3.19c-0.22.33-.42,0.66-0.64,1a6.32,6.32,0,0,1-.69.72,6,6,0,0,1-.57.45l-0.24.15Z"/><path d="M33.63,6.41a2.91,2.91,0,0,1,.07-0.3,7.16,7.16,0,0,1,.25-0.75,7.57,7.57,0,0,1,.48-1c0.22-.34.47-0.68,0.72-1,1-1.41,2-2.79,2-2.79l0.06,0s-0.73,1.55-1.52,3.06C35.48,4,35.3,4.43,35.1,4.78a7.57,7.57,0,0,1-.64.89,7.16,7.16,0,0,1-.54.58,2.91,2.91,0,0,1-.23.2Z"/><path d="M37.75,6.41a3,3,0,0,1,.08-0.3,7.42,7.42,0,0,1,.28-0.75,7.86,7.86,0,0,1,.52-1c0.23-.34.5-0.68,0.76-1,1-1.41,2.1-2.79,2.1-2.79l0.06,0s-0.8,1.55-1.65,3.07c-0.21.38-.4,0.77-0.61,1.12a7.86,7.86,0,0,1-.68.89,7.42,7.42,0,0,1-.57.57,3,3,0,0,1-.24.2Z"/><path d="M44.48,3.54s-1.68,0-4.18-.25C39,3.17,37.59,3,36,2.85l-4.87-.69L17.91,0.27V0.19L31.24,1.57l4.89,0.51c1.56,0.19,3,.42,4.25.62,2.48,0.41,4.12.77,4.12,0.77V3.54Z"/><path d="M436.29,139.31s1.27-.46,3.19-1.07c1-.29,2.08-0.65,3.29-1s2.5-.7,3.8-1.06,2.6-.68,3.82-1,2.37-.54,3.35-0.77c2-.43,3.3-0.66,3.3-0.66s-1.27.46-3.19,1.07c-1,.29-2.08.65-3.29,1s-2.5.7-3.8,1.06-2.6.68-3.82,1-2.37.54-3.35,0.77C437.61,139.08,436.29,139.31,436.29,139.31Z"/><path d="M442,143.36s2.05-.86,5.16-2.07c1.56-.59,3.37-1.31,5.32-2l6.13-2.24,6.16-2.15c2-.69,3.82-1.28,5.4-1.81,3.17-1,5.3-1.67,5.3-1.67s-2.05.86-5.16,2.07c-1.56.59-3.36,1.31-5.32,2l-6.13,2.24-6.16,2.15c-2,.69-3.82,1.28-5.4,1.81C444.17,142.72,442,143.36,442,143.36Z"/><path d="M440.41,141.39s1.78-.74,4.48-1.76c1.35-.5,2.92-1.11,4.62-1.71l5.32-1.88,5.36-1.79c1.71-.57,3.32-1.05,4.7-1.49,2.76-.85,4.61-1.36,4.61-1.36s-1.78.74-4.48,1.76c-1.35.5-2.92,1.11-4.62,1.71l-5.32,1.88-5.36,1.79c-1.71.57-3.32,1.05-4.7,1.49C442.27,140.88,440.41,141.39,440.41,141.39Z"/><path d="M449.29,144.31s2-.89,5-2.15c1.51-.61,3.26-1.36,5.16-2.11l5.94-2.34,6-2.25c1.91-.72,3.71-1.34,5.24-1.89,3.08-1.09,5.15-1.75,5.15-1.75s-2,.89-5,2.15c-1.51.61-3.26,1.36-5.16,2.11l-5.94,2.34-6,2.25c-1.91.72-3.71,1.34-5.24,1.89C451.36,143.64,449.29,144.31,449.29,144.31Z"/><path d="M454.54,146.33s1.81-.89,4.56-2.15c1.38-.62,3-1.37,4.71-2.11l5.44-2.35,5.47-2.26c1.75-.72,3.4-1.34,4.8-1.9,2.82-1.09,4.72-1.76,4.72-1.76s-1.81.89-4.56,2.15c-1.38.62-3,1.37-4.71,2.11l-5.44,2.35-5.47,2.26c-1.75.72-3.4,1.34-4.8,1.9C456.44,145.65,454.54,146.33,454.54,146.33Z"/></svg>