<svg id="Slip_lines_grain_Small_" data-name="Slip lines (grain Small)" xmlns="http://www.w3.org/2000/svg" viewBox="0 0 500 50"><defs><style>.cls-1{fill:#202020;}</style></defs><title>M_SlipLinesGrainSmall</title><path d="M41,46.9l15.76-3.4,5.79-1.24c1.85-.37,3.59-0.66,5.08-0.92,3-.49,5-0.73,5-0.73v0.07s-1.95.55-4.89,1.24c-1.47.33-3.19,0.73-5,1.1l-5.82,1.07L41,47V46.9Z"/><path d="M44.76,48.89l14.55-3.18,5.34-1.16c1.71-.34,3.32-0.61,4.69-0.84C72.1,43.26,74,43.05,74,43.05v0.07s-1.79.52-4.51,1.17c-1.36.31-2.95,0.68-4.66,1l-5.38,1L44.78,49V48.89Z"/><path d="M66.44,48.76s4.53-.88,9.08-1.7c1.13-.21,2.27-0.44,3.33-0.62s2.07-.27,2.94-0.37c1.73-.17,2.89-0.19,2.89-0.19v0.07s-1.12.34-2.81,0.71C81,46.83,80,47,79,47.21s-2.22.29-3.36,0.44c-4.57.63-9.16,1.18-9.16,1.18V48.76Z"/><path d="M214.19,10.8s3.46-.78,8.68-1.86l8.91-1.81,10.23-2,10.25-1.9,9-1.58c5.25-.9,8.76-1.45,8.76-1.45s-3.46.78-8.68,1.86l-8.91,1.81-10.23,2L231.9,7.77l-9,1.58C217.7,10.26,214.19,10.8,214.19,10.8Z"/><path d="M219.3,13.41s2.5-.6,6.26-1.41c1.88-.39,4.08-0.88,6.44-1.35L239.4,9.2l7.41-1.36c2.37-.44,4.58-0.79,6.48-1.12,3.8-.63,6.34-1,6.34-1s-2.5.6-6.26,1.41c-1.88.39-4.08,0.88-6.44,1.34l-7.39,1.46-7.41,1.36c-2.37.44-4.58,0.79-6.48,1.12C221.85,13,219.3,13.41,219.3,13.41Z"/><path class="cls-1" d="M269.85,7.34c0.06,0,0-.07,0-0.08S269.86,7.36,269.85,7.34Z"/><polygon class="cls-1" points="268.89 7.69 268.9 7.66 268.76 7.76 268.89 7.69"/><path class="cls-1" d="M268,7.88a1.15,1.15,0,0,0,.51-0.08l0,0,0.06-.11A3,3,0,0,1,268,7.88Z"/><path class="cls-1" d="M267.4,7.74s-0.1.06,0.12,0h0Z"/><path class="cls-1" d="M267.5,7.72c0.1,0-.07,0,0,0h0Z"/><path class="cls-1" d="M267,7.84l0.12-.07s-0.15,0-.11,0C266.93,7.8,267,7.82,267,7.84Z"/><path class="cls-1" d="M266.94,7.95l0.06,0S267,7.91,266.94,7.95Z"/><path class="cls-1" d="M267.14,7.86L267,7.92s0,0.05.06,0S267.09,7.89,267.14,7.86Z"/><path class="cls-1" d="M267.23,7.86c0.08,0,.17,0,0.05.07C267.52,7.86,267.47,7.79,267.23,7.86Z"/><path class="cls-1" d="M267.93,8H268L268.11,8A0.61,0.61,0,0,0,267.93,8Z"/><path class="cls-1" d="M266.23,7.95a0.33,0.33,0,0,0,.07.08l0.09,0A0.26,0.26,0,0,1,266.23,7.95Z"/><path class="cls-1" d="M266.3,8l-0.13.07C266.3,8.08,266.32,8.06,266.3,8Z"/><polygon class="cls-1" points="266.94 8.08 267.16 7.95 266.9 8.09 266.94 8.08"/><polygon class="cls-1" points="265.68 8.06 265.75 7.99 265.62 8.1 265.68 8.06"/><path class="cls-1" d="M265.32,8.14c0.05-.06-0.1-0.06,0-0.1a0.77,0.77,0,0,0-.24.14A0.49,0.49,0,0,1,265.32,8.14Z"/><path class="cls-1" d="M264.92,8.25L265,8.17Z"/><path class="cls-1" d="M265.92,8.14a0.16,0.16,0,0,0-.13,0l0.07,0.06h0.06Z"/><path class="cls-1" d="M265.87,8.15h0l-0.12,0Z"/><path class="cls-1" d="M265.93,8.14h0Z"/><path class="cls-1" d="M266.56,8.1c-0.08.05-.24,0.13-0.06,0.15S266.44,8.18,266.56,8.1Z"/><path class="cls-1" d="M266,8.21l0.16,0s0,0,0-.06Z"/><polygon class="cls-1" points="265.95 8.24 266.02 8.21 265.96 8.21 265.95 8.24"/><path class="cls-1" d="M265.19,8.26a0.63,0.63,0,0,1-.21.08l0.27,0S265.29,8.24,265.19,8.26Z"/><path class="cls-1" d="M265.52,8.21h0S265.53,8.23,265.52,8.21Z"/><path class="cls-1" d="M264.18,8.51h0Z"/><path class="cls-1" d="M265.27,8.32a0.19,0.19,0,0,0,.14-0.05l-0.15,0S265.25,8.33,265.27,8.32Z"/><path class="cls-1" d="M264.7,8.33h0.12A0.16,0.16,0,0,0,264.7,8.33Z"/><path class="cls-1" d="M265.48,8.21h0S265.47,8.2,265.48,8.21Z"/><path class="cls-1" d="M265.48,8.21l-0.08.06,0.1,0h0Z"/><path class="cls-1" d="M264,9a0.27,0.27,0,0,1,.32-0.12c0.14-.08,0-0.26-0.15-0.35,0,0,0,.05-0.14.12,0.06,0,.35,0,0.23.09a0.28,0.28,0,0,1-.27,0c0.1,0.06-.23.17-0.16,0.27L264,8.92S264,9,264,9Z"/><path class="cls-1" d="M264.49,8.46l0.06,0a0.66,0.66,0,0,1-.23,0,0.17,0.17,0,0,0-.12.1l0.31-.05h0Z"/><path class="cls-1" d="M264.82,8.39c0,0.08-.18.14-0.07,0.19A0.44,0.44,0,0,0,265,8.44c-0.29.08,0.08-.06-0.14-0.05L265,8.34h-0.15s0,0,0,0h0v0c-0.09,0,0,0,0,0h0l-0.29.1Z"/><path class="cls-1" d="M266.37,8.43h0S266.33,8.43,266.37,8.43Z"/><path class="cls-1" d="M266.24,8.41a0.15,0.15,0,0,1,.1-0.05c0.06,0,0,0,0,.05s0.14-.08,0-0.09h0a0.5,0.5,0,0,1-.27-0.07A0.48,0.48,0,0,0,266.24,8.41Z"/><path class="cls-1" d="M265.53,8.42l-0.24.08,0.14,0v0C265.55,8.49,265.52,8.45,265.53,8.42Z"/><polygon class="cls-1" points="264.15 8.48 264.17 8.4 264.05 8.53 264.15 8.48"/><polygon class="cls-1" points="263.83 8.55 263.83 8.49 263.75 8.54 263.83 8.55"/><path class="cls-1" d="M246.06,13L246,13Z"/><path class="cls-1" d="M246.58,12.88v0S246.56,12.88,246.58,12.88Z"/><path class="cls-1" d="M256,10.15c-0.12,0-.25-0.1-0.22,0l0,0.06A0.38,0.38,0,0,1,256,10.15Z"/><path class="cls-1" d="M250.77,11.65h0l0.06-.08Z"/><path class="cls-1" d="M250.75,11.94l-0.15,0Z"/><path class="cls-1" d="M243.23,13.63l-0.07.09C243.29,13.69,243.23,13.67,243.23,13.63Z"/><path class="cls-1" d="M260.58,9.24a1,1,0,0,0-.23,0C260.47,9.26,260.57,9.3,260.58,9.24Z"/><path class="cls-1" d="M246.11,12.21s-0.06,0-.05.05S246.13,12.23,246.11,12.21Z"/><path class="cls-1" d="M260.09,9.3h0.05a0.92,0.92,0,0,1,.21-0.06A0.32,0.32,0,0,0,260.09,9.3Z"/><path class="cls-1" d="M232.92,15.67h0Z"/><path class="cls-1" d="M229.77,15.6l0.12,0Z"/><path class="cls-1" d="M262.55,8.78c0.07,0,0,0,0,0h0Z"/><path class="cls-1" d="M262.93,9a0,0,0,0,0,0,0A0.06,0.06,0,0,1,262.93,9Z"/><path class="cls-1" d="M259.5,9.86h0S259.52,9.87,259.5,9.86Z"/><path class="cls-1" d="M262.66,8.79h0Z"/><path class="cls-1" d="M262.64,8.76h0.06S262.69,8.74,262.64,8.76Z"/><path class="cls-1" d="M262.45,8.8l0.11,0h0Z"/><path class="cls-1" d="M238.4,14.37h0C238.32,14.41,238.35,14.39,238.4,14.37Z"/><polygon class="cls-1" points="254.42 11.22 254.43 11.21 254.42 11.21 254.42 11.22"/><path class="cls-1" d="M254.19,11.32a0.23,0.23,0,0,1,.23-0.11L254.3,11Z"/><path class="cls-1" d="M244.82,13.25l0.18,0c-0.18.14-.34,0.14-0.16,0.19,0-.22.66-0.16,0.64-0.38l0.12,0-0.07,0a1.36,1.36,0,0,0,.42-0.21c0.1,0,.18,0,0.11.05l0.21-.1c0.06,0,.06,0,0,0l0.33-.08h0a1.5,1.5,0,0,1,.19-0.15c0.09,0,0,0,0,.05l0.17-.09c0.09,0-.06.13-0.18,0.14,0.22,0.18.14-.08,0.54,0l-0.17.06a1.06,1.06,0,0,0,.48.06c-0.05,0-.43-0.11-0.24-0.2a0.35,0.35,0,0,0,.23-0.07c0,0.08.12,0,.25,0v0.1a0.48,0.48,0,0,0,.19-0.17,0.24,0.24,0,0,1,.26.11c0.26,0-.2-0.09.1-0.17a1.38,1.38,0,0,0,.6-0.19c0.16,0,0,.07,0,0.09l0.11-.11s0,0,0,0a0.43,0.43,0,0,1,.16-0.17,4.16,4.16,0,0,0,.58-0.08c0.06,0,0,.07,0,0.1a2.11,2.11,0,0,0,.46-0.27l0.22,0c-0.17,0,0-.17.16-0.28l-0.15-.06,0.26-.11s0,0.05,0,.1l0,0c0.1,0,.07.09,0,0.16l-0.11,0a0.25,0.25,0,0,0-.08.21l0.08,0s0,0,0,0a0.13,0.13,0,0,0,.07-0.05l0.08,0.1v0h0.37a2.6,2.6,0,0,1,.81-0.51c-0.08.1,0,.14,0,0.24a1.17,1.17,0,0,0-.52.13c0.11,0,.1,0,0.07.06l0.35-.17c0,0.08.09,0,.2,0.06-0.11-.14.26-0.16,0.4-0.24s0,0.11-.19.14a4.11,4.11,0,0,0,.45-0.18,0.09,0.09,0,0,0-.08,0c0.1-.07.36-0.08,0.31,0h0a1.68,1.68,0,0,0,.93-0.33,0.77,0.77,0,0,1,0,.2l0.44-.56c0,0.12.21,0.36,0,.48a0.57,0.57,0,0,0,.31-0.07c-0.05,0-.16-0.14-0.09-0.17a1.47,1.47,0,0,0,.39.11c-0.08,0,0-.21.08-0.22a0.55,0.55,0,0,1,0,.2l0.25-.24c-0.07,0,0,.15.09,0.19a1.53,1.53,0,0,1,.32-0.08l-0.13,0c0.33,0,.27-0.31.59-0.37,0,0,0,.25.12,0.23a1.45,1.45,0,0,1,.51-0.63l0.07,0,0.21-.1a4.4,4.4,0,0,1-.62.68,0.29,0.29,0,0,0,.23,0c0.07,0-.08.09-0.14,0.11l0.43-.05a2.74,2.74,0,0,1,.27-0.26l-0.44.2a0.55,0.55,0,0,1,.51-0.4c0.08,0,0,.2,0,0.23a0.57,0.57,0,0,1,.3-0.11l-0.12.08a1.2,1.2,0,0,1,.46-0.14,0.37,0.37,0,0,0,.23,0,0.68,0.68,0,0,1-.18-0.57,2.73,2.73,0,0,1,.48.09,1.74,1.74,0,0,1,0,.32,0.19,0.19,0,0,1,.08-0.1c0.08,0,0,.1.14,0.05,0-.11.32-0.06,0.06-0.11a1.65,1.65,0,0,1,.35-0.05c-0.07-.06.11-0.27,0.26-0.33a0.1,0.1,0,0,0,.06.07c0.32-.05.5,0,0.79-0.1,0,0,.18,0,0.13.08a0.36,0.36,0,0,1,.16-0.09c0.19,0.06-.2.06,0,0.14a0.81,0.81,0,0,1,.34-0.2,0.49,0.49,0,0,0-.42.11,0.61,0.61,0,0,1,.47-0.44c0.24-.08.12,0.06,0.16,0a3.58,3.58,0,0,1,.75-0.29c0.17,0.05,0,.17.09,0.22a1.86,1.86,0,0,1-.45,0h0.17a0.48,0.48,0,0,1-.26.08c0.14,0.05.78-.14,1.15-0.15,0.06,0,.16-0.09.1-0.12l-0.11,0c-0.12,0,.19-0.14,0-0.14a1,1,0,0,1,.51-0.19L263.14,9a0.22,0.22,0,0,0-.2,0,0.74,0.74,0,0,0,.42-0.08l-0.16,0a1.18,1.18,0,0,1,.5-0.23,1.41,1.41,0,0,0-.2-0.06c0.14,0.12-.48.09-0.27,0.2a2.06,2.06,0,0,0-.45-0.08s0.08,0-.09.06l0,0h0l0.09,0a1.75,1.75,0,0,1-.39.19c-0.1,0,0,0,0-.07L262.23,9C262.2,9,262,9,262.16,8.88l-0.2,0a0.72,0.72,0,0,0-.38.05c-0.1,0-.22.13-0.15,0.05l-0.3.11v0a2.79,2.79,0,0,1-1,.19,1.2,1.2,0,0,1-.38.1l0-.05a1.63,1.63,0,0,0-.46.1,1.87,1.87,0,0,0-.89.11V9.64a2.78,2.78,0,0,0-.5.16l0,0.07a3.86,3.86,0,0,1-.72.1,0.15,0.15,0,0,1,.14,0,7.53,7.53,0,0,0-1,.2,0.25,0.25,0,0,1-.18,0h0l-0.11,0,0.09,0-0.22.07-0.05-.07h0c-0.09,0-.06,0,0,0.1l-0.1.07c-0.09-.11-0.21.09-0.33,0a1.24,1.24,0,0,0-.43.28s0,0,0,0a0.48,0.48,0,0,0-.27.06l-0.06-.09-0.18.17c-0.14,0-.2-0.06-0.09-0.16-0.28.18-.23,0.09-0.46,0.26V10.75a0.59,0.59,0,0,1-.28.09c-0.23-.08-1,0.19-1.55.18,0.14,0.16-.26,0-0.25.11,0,0-.12,0,0-0.1a1.38,1.38,0,0,0-.57.17,0.34,0.34,0,0,1,0-.1,0.13,0.13,0,0,1-.11,0s0,0,.07-0.07a0.27,0.27,0,0,0-.26.33,0.25,0.25,0,0,0-.3.09c-0.06,0-.15-0.06,0-0.11a1.07,1.07,0,0,0-.58.16,0.23,0.23,0,0,0-.16,0,4.25,4.25,0,0,0-.44.08h0.06c-0.06.14-.17,0.06-0.33,0.11h0c-0.4,0-.16.08-0.56,0.05l0,0.07a1.14,1.14,0,0,1-.57.08l0.09,0a1.38,1.38,0,0,1-.51-0.15s0,0,.07,0c-0.34,0,0,.11-0.25.18-0.05,0,0-.15-0.13-0.13a2.13,2.13,0,0,1-.67.21c0.06,0,.11.06,0,0.12a1.12,1.12,0,0,0-.61.1l0,0a1.85,1.85,0,0,0-.47.23c-0.17-.24-0.78.29-0.82,0l-0.39.09v0a0.6,0.6,0,0,0-.41.19c-0.06,0,0,0,0,0a1,1,0,0,0-.7.23l0-.07a4.7,4.7,0,0,0-.91.15,0.06,0.06,0,0,1,0,0c-0.39.18-1,0-1.11,0.3l-0.26.13c0.35,0,0,.13.13,0.15-0.13,0-.37,0-0.21-0.06h0a1.12,1.12,0,0,0-.46-0.07c-0.69.15-1.37,0.2-2,.33l0.1,0.1-0.23,0c-0.06,0-.1-0.07.06-0.1a0.27,0.27,0,0,0-.26.14c-0.32,0,.1-0.16,0-0.14l-0.13,0h0a0.47,0.47,0,0,1-.29.15A0.2,0.2,0,0,1,237.6,14s0,0-.07,0l-0.28,0,0.13,0.07c-0.12.07-.27,0-0.12,0.13a4.59,4.59,0,0,0-1.19.13,1.41,1.41,0,0,1-.55.17c0.06,0,.11.1-0.08,0.13,0-.23-0.36,0-0.54-0.14,0.15,0.07-.52.13-0.28,0.23-0.16,0,0-.08-0.15-0.1a10.35,10.35,0,0,1-1.27.23s0.08,0.06,0,.12l-0.27-.09c-0.09,0,0,.18-0.23.11,0,0,.07,0,0,0.07a21.45,21.45,0,0,1-2.75.41c0.13,0,.05.05,0,0.07,0.06,0,0,.07,0,0.1l-0.4,0c0,0.12-.4.09-0.42,0.2l0.12,0c-0.14.15,0.28,0.22,0.28,0.37a3.34,3.34,0,0,0,.76-0.15c0.07,0,0,.06,0,0.09a0.37,0.37,0,0,1,.32-0.12l0,0a9,9,0,0,1,1.21-.15l-0.05-.07a0.52,0.52,0,0,1,.2,0c0.11-.14-0.32.06-0.23-0.09,0.18,0.12.8-.16,0.93,0,0.17,0-.07-0.08.11-0.11l0.06,0,0-.07a0.18,0.18,0,0,1,.2.07l-0.1,0a1.94,1.94,0,0,0,.47-0.1h-0.17a14.87,14.87,0,0,0,1.49-.38l0,0a4.32,4.32,0,0,1,.66-0.13h0a0.66,0.66,0,0,1,.27-0.11c-0.09.06,0.2,0,.08,0.11a0.73,0.73,0,0,0,.4-0.28l0.07,0a0.43,0.43,0,0,1,.26-0.15c-0.15.08,0.14,0.06,0,.17a2.68,2.68,0,0,1,.79-0.1c0.15-.2-0.37,0-0.27-0.07-0.1,0,.13-0.15.26-0.16a1.45,1.45,0,0,0,.58.09l-0.06,0a2,2,0,0,1,.39-0.07c0.06-.11.19,0,0.19-0.16l-0.29.09a1.06,1.06,0,0,1,.58-0.23,0.5,0.5,0,0,1-.14.11c0.09,0,.15-0.06.24,0a1.59,1.59,0,0,1-.51.23c0.1,0,.32-0.16.26,0a1.76,1.76,0,0,1,.51-0.22v0.08a0.51,0.51,0,0,1,.16-0.08l-0.1.12a2.35,2.35,0,0,1,.52-0.08c-0.35.07-.1-0.07-0.26-0.1,0.42-.19.29,0.14,0.78,0-0.06,0-.26,0-0.16-0.05a0.84,0.84,0,0,1,.29,0c0.32-.08-0.07-0.07.06-0.14s0.15-.07.29-0.13l0,0.08c0.38,0,.07-0.18.41-0.19l-0.12.13L241,14l0,0.09a0.74,0.74,0,0,1,.43-0.11c-0.05,0,0-.14.16-0.18s0,0.09.18,0a0.15,0.15,0,0,1-.2.08s0,0.06,0,.09a1,1,0,0,0,.39-0.07h-0.09l0.32-.17c0.06,0,0,0,0,.08a1.83,1.83,0,0,1,.21-0.09,0.18,0.18,0,0,1-.13.19l0.31-.13s0.18,0,.14.07c0.19,0,.41-0.21.66-0.21a0.17,0.17,0,0,1,.08-0.05,1.61,1.61,0,0,0,.68-0.13l0.17,0.08c0.2-.07-0.23-0.1.1-0.21s0.11,0.08.2,0.09A0.69,0.69,0,0,1,245,13.2,1.11,1.11,0,0,1,244.82,13.25Zm2.53-.57a0.21,0.21,0,0,1-.18.06C247.21,12.65,247.26,12.68,247.35,12.69Zm3.82-1a0.17,0.17,0,0,1-.16,0A0.35,0.35,0,0,1,251.17,11.72ZM261.82,9h0C261.7,9,261.74,9,261.82,9Zm0.23,0s0,0,0,0a0.18,0.18,0,0,1-.12,0A0.1,0.1,0,0,0,262.06,9Zm-24.48,5h0C237.53,14.05,237.55,14,237.58,14Z"/><path class="cls-1" d="M250.76,11.91a0.07,0.07,0,0,1,0,0S250.71,11.9,250.76,11.91Z"/><path class="cls-1" d="M243.25,13.62h0v0Z"/><path class="cls-1" d="M258.66,10.35l-0.1,0S258.58,10.36,258.66,10.35Z"/><path class="cls-1" d="M263.24,8.61l-0.14,0a0.27,0.27,0,0,1,.14,0S263.19,8.62,263.24,8.61Z"/><path class="cls-1" d="M264.6,8.82l0.06,0v0C264.56,8.78,264.5,8.82,264.6,8.82Z"/><path class="cls-1" d="M263.43,8.83c0,0.06.11,0,.21,0h0C263.63,8.73,263.53,8.78,263.43,8.83Z"/><path class="cls-1" d="M263.66,8.81l0.09,0S263.71,8.79,263.66,8.81Z"/><path class="cls-1" d="M262.34,8.88a0.28,0.28,0,0,0,0-.07C262.42,8.72,262.08,9,262.34,8.88Z"/><polygon class="cls-1" points="263.55 9.03 263.5 8.95 263.45 9.03 263.55 9.03"/><path class="cls-1" d="M262.73,9.13h0.17s0,0,0,0A0.45,0.45,0,0,0,262.73,9.13Z"/><path class="cls-1" d="M262.94,9.08a0.36,0.36,0,0,0,.13,0Z"/><polygon class="cls-1" points="263.33 9.09 263.28 9.09 263.16 9.11 263.33 9.09"/><path class="cls-1" d="M261,9.47l-0.17.06s0,0,.1,0S261,9.49,261,9.47Z"/><path class="cls-1" d="M261.55,9.58a0.17,0.17,0,0,1-.09,0v0.1Z"/><path class="cls-1" d="M261,9.71s-0.24.13,0,.08C261,9.76,261.21,9.7,261,9.71Z"/><polygon class="cls-1" points="258.32 10.13 258.37 10.12 258.33 9.96 258.32 10.13"/><path class="cls-1" d="M256,11c0.22,0,0-.11.23-0.1,0,0-.16,0-0.12-0.05C256,10.92,256,10.91,256,11Z"/><path class="cls-1" d="M256.15,10.85l0.06,0Z"/><polygon class="cls-1" points="229.26 15.61 229.12 15.6 229.22 15.64 229.26 15.61"/><path class="cls-1" d="M229,15.78l-0.05-.1-0.06.11A0.16,0.16,0,0,1,229,15.78Z"/><path class="cls-1" d="M247.77,12.82v0a0.15,0.15,0,0,0-.12,0Z"/><polygon class="cls-1" points="245.91 13.12 245.94 13.11 245.86 13.03 245.91 13.12"/><path class="cls-1" d="M244.38,13.55l0.2-.05C244.45,13.54,244.34,13.44,244.38,13.55Z"/><path d="M229,18.47s1.52-.43,3.82-1c1.15-.27,2.49-0.61,3.93-0.92l4.52-1,4.54-.88c1.45-.28,2.81-0.49,4-0.7,2.33-.39,3.9-0.58,3.9-0.58s-1.52.43-3.82,1c-1.15.27-2.49,0.61-3.93,0.92l-4.52,1-4.54.88c-1.45.28-2.81,0.49-4,.7C230.53,18.27,229,18.47,229,18.47Z"/><path d="M229,25.72s1.74-.47,4.38-1.08c1.32-.29,2.85-0.67,4.51-1L243,22.56l5.2-1c1.66-.31,3.22-0.55,4.55-0.78,2.67-.43,4.46-0.66,4.46-0.66s-1.74.47-4.38,1.08c-1.32.29-2.85,0.67-4.51,1l-5.18,1.07-5.2,1c-1.66.31-3.22,0.55-4.55,0.78C230.75,25.48,229,25.72,229,25.72Z"/><path d="M237.26,26.94s1.22-.37,3.08-0.83c0.93-.22,2-0.5,3.18-0.76s2.41-.52,3.66-0.78,2.5-.49,3.68-0.69,2.28-.37,3.22-0.53c1.89-.29,3.16-0.42,3.16-0.42s-1.22.37-3.08,0.83c-0.93.22-2,.5-3.18,0.76s-2.41.52-3.66,0.78-2.5.49-3.68,0.69-2.28.37-3.22,0.53C238.54,26.8,237.26,26.94,237.26,26.94Z"/><path d="M230.46,30.63s1.43-.35,3.59-0.79c1.08-.21,2.34-0.47,3.7-0.71s2.8-.48,4.25-0.72,2.9-.45,4.26-0.63,2.64-.33,3.73-0.47c2.19-.26,3.66-0.37,3.66-0.37s-1.43.35-3.59,0.79c-1.08.21-2.34,0.47-3.7,0.71s-2.8.48-4.25,0.72-2.9.45-4.26,0.63-2.64.33-3.73,0.47C231.93,30.52,230.46,30.63,230.46,30.63Z"/><path d="M339.44,27.45s5.39,0.32,10.77.71l4,0.27c1.26,0.11,2.43.27,3.43,0.4,2,0.28,3.33.56,3.33,0.56v0.07s-1.36,0-3.38,0c-1-.05-2.19-0.1-3.45-0.22l-3.94-.45c-5.36-.58-10.72-1.23-10.72-1.23V27.45Z"/><path d="M336.19,31.54l15.5-.26,5.69-.09c1.82,0,3.51.05,5,.09,2.91,0.1,4.84.26,4.84,0.26v0.08s-1.94.16-4.84,0.26c-1.45,0-3.15.09-5,.09l-5.69-.09-15.5-.26V31.54Z"/><path d="M336.19,34.44L350,34.18l5.08-.09c1.62,0,3.14.05,4.44,0.09,2.6,0.1,4.33.26,4.33,0.26v0.07s-1.73.16-4.33,0.26c-1.3,0-2.81.09-4.44,0.09L350,34.78l-13.85-.26V34.44Z"/><path d="M339.44,37.27s5.45-.17,10.89-0.26l4-.09c1.28,0,2.47.05,3.49,0.09,2,0.1,3.4.26,3.4,0.26v0.08s-1.36.16-3.4,0.26c-1,0-2.21.09-3.49,0.09l-4-.09c-5.45-.1-10.89-0.26-10.89-0.26V37.27Z"/><path d="M339.44,39.43l13.08,1.64,4.8,0.61c1.53,0.22,2.95.48,4.16,0.7,2.43,0.46,4,.85,4,0.85V43.3s-1.65-.08-4.11-0.33c-1.23-.14-2.66-0.29-4.19-0.52l-4.78-.79-13-2.15V39.43Z"/><path d="M339.44,43.22s4.76,0.54,9.5,1.16l3.49,0.43c1.11,0.17,2.14.37,3,.55,1.76,0.37,2.92.7,2.92,0.7v0.07s-1.21,0-3-.18c-0.89-.09-1.94-0.2-3-0.36L348.85,45c-4.72-.8-9.43-1.67-9.43-1.67V43.22Z"/><path d="M248.44,30.22s4.76,0.54,9.5,1.16l3.49,0.43c1.11,0.17,2.14.37,3,.55,1.76,0.37,2.92.7,2.92,0.7v0.07s-1.21,0-3-.18c-0.89-.09-1.94-0.2-3-0.36L257.85,32c-4.72-.8-9.43-1.67-9.43-1.67V30.22Z"/><path d="M342.23,47.13s4.76,0.54,9.5,1.16l3.49,0.43c1.11,0.17,2.14.37,3,.55,1.76,0.37,2.92.7,2.92,0.7V50s-1.21,0-3-.18c-0.89-.09-1.94-0.2-3-0.36l-3.46-.61c-4.72-.8-9.43-1.67-9.43-1.67V47.13Z"/><path d="M309.06,16.23s1.32-.42,3.33-1c1-.26,2.17-0.58,3.43-0.89s2.61-.62,4-0.93,2.7-.59,4-0.84,2.46-.46,3.48-0.65c2-.36,3.42-0.54,3.42-0.54s-1.32.42-3.33,1c-1,.26-2.17.58-3.43,0.89s-2.61.62-4,.92-2.7.59-4,.84-2.46.46-3.48,0.65C310.44,16,309.06,16.23,309.06,16.23Z"/><path d="M314,19.11s1.12-.43,2.82-1c0.85-.27,1.84-0.6,2.91-0.92s2.22-.64,3.37-1,2.3-.62,3.39-0.88,2.11-.49,3-0.69c1.75-.38,2.93-0.58,2.93-0.58s-1.12.43-2.82,1c-0.85.27-1.84,0.6-2.91,0.92s-2.22.64-3.37,1-2.3.62-3.39,0.88-2.11.49-3,.69C315.18,18.91,314,19.11,314,19.11Z"/><path d="M317.79,21.81s1.25-.46,3.15-1.08c1-.29,2.06-0.66,3.25-1s2.47-.71,3.76-1.07,2.57-.69,3.78-1,2.35-.55,3.32-0.78c1.95-.44,3.26-0.67,3.26-0.67s-1.25.47-3.15,1.08c-1,.29-2.06.66-3.25,1s-2.47.71-3.76,1.07-2.57.68-3.78,1-2.35.55-3.32,0.78C319.11,21.58,317.79,21.81,317.79,21.81Z"/><path d="M323.2,24.55s1-.46,2.65-1.06c0.8-.29,1.73-0.65,2.74-1s2.09-.71,3.17-1.06,2.17-.68,3.2-1,2-.54,2.82-0.77c1.66-.43,2.78-0.66,2.78-0.66s-1,.46-2.65,1.07c-0.8.29-1.73,0.65-2.74,1s-2.09.71-3.17,1.06-2.17.68-3.2,1-2,.54-2.82.77C324.32,24.32,323.2,24.55,323.2,24.55Z"/><path d="M451.56,29.39l14.83-.26,5.44-.09c1.74,0,3.36.05,4.75,0.09,2.78,0.1,4.63.26,4.63,0.26v0.08s-1.85.16-4.63,0.26c-1.39,0-3,.09-4.75.09l-5.44-.09-14.83-.26V29.39Z"/><path d="M449.91,31.83s2.46-.14,6.14-0.25c1.84,0,4-.13,6.29-0.16l7.21-.1h7.22c2.3,0,4.45.05,6.29,0.07,3.68,0.07,6.14.17,6.14,0.17s-2.46.14-6.14,0.25c-1.84,0-4,.13-6.29.16l-7.21.1h-7.22c-2.3,0-4.45-.05-6.29-0.07C452.37,31.94,449.91,31.83,449.91,31.83Z"/><path d="M448.11,34.44l25.18-.26,9.25-.09c3,0,5.7.05,8.06,0.09,4.72,0.1,7.87.26,7.87,0.26v0.08s-3.15.16-7.87,0.26c-2.36,0-5.11.09-8.06,0.09l-9.25-.09-25.18-.26V34.44Z"/><path d="M446.17,37.31s3.49-.12,8.72-0.21l8.94-.11,10.24,0,10.24,0,8.94,0.11c5.23,0.09,8.72.21,8.72,0.21s-3.49.12-8.72,0.21l-8.94.11-10.24,0-10.24,0-8.94-.11C449.65,37.43,446.17,37.31,446.17,37.31Z"/><path d="M339.44,43.22s4.76,0.54,9.5,1.16l3.49,0.43c1.11,0.17,2.14.37,3,.55,1.76,0.37,2.92.7,2.92,0.7v0.07s-1.21,0-3-.18c-0.89-.09-1.94-0.2-3-0.36L348.85,45c-4.72-.8-9.43-1.67-9.43-1.67V43.22Z"/><path d="M223.28,31.6s-3.41,3.93-6.87,7.81l-2.53,2.86c-0.83.89-1.64,1.69-2.33,2.38-1.4,1.36-2.4,2.21-2.4,2.21l-0.06-.05s0.77-1.06,2-2.56c0.63-.74,1.37-1.61,2.19-2.51L216,39c3.6-3.75,7.25-7.45,7.25-7.45Z"/><path d="M222.27,28.18s-1,1.23-2.45,3c-0.76.88-1.62,1.93-2.58,3s-2,2.25-3,3.4-2.09,2.29-3.09,3.34-2,2-2.76,2.86c-1.63,1.66-2.76,2.73-2.76,2.73s1-1.23,2.45-3c0.76-.88,1.62-1.93,2.58-3s2-2.25,3-3.4,2.09-2.29,3.09-3.34,2-2,2.75-2.86C221.14,29.24,222.27,28.18,222.27,28.18Z"/><path d="M220.44,26.28s-3.41,4-6.87,8L211,37.25c-0.83.92-1.64,1.74-2.33,2.45-1.4,1.4-2.4,2.28-2.4,2.28l-0.06-.05s0.77-1.09,2-2.63c0.63-.76,1.37-1.66,2.2-2.58l2.66-2.82c3.61-3.86,7.26-7.68,7.26-7.68Z"/><path d="M215,28.49s-0.87,1.19-2.24,2.92c-0.7.86-1.49,1.87-2.37,2.93s-1.83,2.18-2.79,3.3-1.93,2.22-2.86,3.24-1.81,2-2.55,2.78c-1.51,1.61-2.56,2.65-2.56,2.65s0.87-1.19,2.24-2.92c0.7-.86,1.49-1.87,2.37-2.93s1.83-2.18,2.79-3.3,1.93-2.22,2.86-3.24,1.81-2,2.55-2.78C214,29.53,215,28.49,215,28.49Z"/><path d="M215.75,23.81s-0.15.27-.44,0.73-0.72,1.09-1.27,1.82c-0.28.36-.58,0.76-0.93,1.15s-0.74.79-1.14,1.2a18.13,18.13,0,0,0-2.26,2.79c-0.67,1-1.43,2-2.12,2.9s-1.4,1.72-2,2.39c-1.23,1.36-2.15,2.19-2.15,2.19l-0.06,0s0.62-1.07,1.7-2.55c0.53-.75,1.18-1.6,1.93-2.47s1.54-1.8,2.41-2.67a18.13,18.13,0,0,0,2.27-2.78c0.33-.47.62-0.94,0.94-1.36s0.64-.79.94-1.14c0.6-.69,1.14-1.24,1.52-1.62s0.62-.58.62-0.58Z"/><path d="M216.11,19.76l-11,13.65-4,5c-1.31,1.58-2.58,3-3.66,4.26-2.17,2.47-3.7,4-3.7,4l-0.06,0s1.27-1.79,3.3-4.38c1-1.29,2.2-2.8,3.51-4.38L204.66,33l11.39-13.31Z"/><path d="M215.37,16.94s-0.68,1-1.76,2.53c-0.55.74-1.17,1.62-1.88,2.54s-1.46,1.88-2.22,2.85-1.55,1.91-2.29,2.79-1.46,1.69-2.06,2.39c-1.22,1.38-2.09,2.27-2.09,2.27s0.67-1,1.76-2.53c0.55-.74,1.17-1.62,1.88-2.54s1.46-1.88,2.22-2.85,1.55-1.91,2.29-2.79,1.46-1.69,2.06-2.39C214.51,17.83,215.37,16.94,215.37,16.94Z"/><path d="M451.6,37.66s-0.06,2.39-.18,4.78c0,0.6,0,1.2-.07,1.75a14.75,14.75,0,0,1-.23,1.51c-0.1.44-.18,0.81-0.27,1.06s-0.13.4-.13,0.4h-0.07s0-.15-0.06-0.42,0-.64-0.07-1.09a14.74,14.74,0,0,1,.05-1.53c0.06-.56.16-1.15,0.25-1.74,0.32-2.37.7-4.73,0.7-4.73h0.07Z"/><path d="M456.69,37.32s-0.6,3.08-1.26,6.15c-0.16.77-.3,1.54-0.47,2.26s-0.38,1.37-.57,1.93-0.37,1-.51,1.34-0.22.5-.22,0.5l-0.07,0s0-.2,0-0.55,0.1-.83.18-1.42,0.23-1.26.4-2,0.42-1.46.65-2.21c0.85-3,1.77-6,1.77-6Z"/><path d="M462.31,37.33s-1,2.41-2,4.79c-0.25.6-.48,1.2-0.73,1.76s-0.54,1-.79,1.46-0.48.76-.66,1-0.28.36-.28,0.36l-0.07,0s0-.16.11-0.44,0.2-.67.35-1.13,0.38-1,.63-1.54,0.59-1.11.9-1.68c1.2-2.3,2.46-4.57,2.46-4.57Z"/><path d="M464.82,37.32S464,40.46,463,43.57c-0.22.78-.43,1.57-0.66,2.29s-0.49,1.39-.73,1.95-0.45,1-.62,1.34-0.26.5-.26,0.5l-0.07,0s0-.21.08-0.56,0.17-.85.3-1.45,0.33-1.28.56-2,0.54-1.48.83-2.23c1.1-3.05,2.27-6.08,2.27-6.08Z"/><path d="M468.53,37.32s-0.77,3.1-1.6,6.19c-0.2.77-.39,1.55-0.59,2.27s-0.45,1.37-.68,1.93-0.42,1-.58,1.34-0.25.5-.25,0.5l-0.07,0s0-.2.07-0.55,0.14-.84.26-1.43,0.3-1.27.51-2,0.5-1.46.77-2.22c1-3,2.11-6,2.11-6Z"/><path d="M471.58,37.32s-0.6,3-1.27,5.95c-0.16.74-.31,1.49-0.47,2.18s-0.38,1.32-.58,1.86-0.37,1-.51,1.29-0.22.48-.22,0.48l-0.07,0s0-.19,0-0.53,0.1-.81.18-1.37,0.23-1.21.4-1.91,0.42-1.41.65-2.14c0.86-2.92,1.78-5.81,1.78-5.81Z"/><path d="M475.29,37.54s-0.77,3-1.6,6c-0.2.75-.39,1.5-0.59,2.2s-0.45,1.33-.68,1.87-0.42,1-.58,1.29-0.25.48-.25,0.48l-0.07,0s0-.2.07-0.54,0.14-.82.26-1.39,0.3-1.23.51-1.92,0.5-1.42.77-2.15c1-2.93,2.11-5.84,2.11-5.84Z"/><path d="M159.72,12.52s-2.31,0-5.76,0c-1.73,0-3.75-.07-5.9-0.15l-6.76-.25-6.76-.35c-2.16-.11-4.17-0.27-5.89-0.38-3.45-.24-5.75-0.47-5.75-0.47s2.31,0,5.76,0c1.73,0,3.75.06,5.9,0.15l6.76,0.25,6.76,0.35c2.16,0.11,4.17.27,5.89,0.38C157.43,12.29,159.72,12.52,159.72,12.52Z"/><path d="M158.52,14.86s-2.23,0-5.58,0c-1.67,0-3.62,0-5.71-.12l-6.54-.22-6.54-.32c-2.09-.1-4-0.25-5.7-0.35-3.34-.23-5.56-0.44-5.56-0.44s2.23,0,5.58,0c1.67,0,3.62,0,5.71.12l6.54,0.22,6.54,0.32c2.09,0.1,4,.25,5.7.35C156.3,14.65,158.52,14.86,158.52,14.86Z"/><path d="M157.06,17.73s-2.15-.06-5.36-0.24c-1.6-.1-3.48-0.19-5.48-0.35l-6.28-.48-6.27-.58c-2-.18-3.86-0.41-5.46-0.57-3.2-.36-5.32-0.66-5.32-0.66s2.15,0.06,5.36.24c1.6,0.1,3.48.19,5.48,0.35L140,15.92l6.27,0.58c2,0.18,3.86.41,5.46,0.57C154.93,17.43,157.06,17.73,157.06,17.73Z"/><path d="M135.73,19s0.15-.91.46-2.25,0.78-3.11,1.31-4.86,1.12-3.48,1.61-4.77S140,5,140,5s-0.15.91-.46,2.25-0.78,3.11-1.31,4.86-1.13,3.48-1.61,4.77S135.73,19,135.73,19Z"/><path d="M137.85,21s0.15-.75.46-1.84,0.77-2.53,1.3-4,1.11-2.81,1.6-3.84,0.86-1.7.86-1.7-0.15.75-.46,1.85-0.77,2.53-1.3,3.95-1.11,2.81-1.6,3.84S137.85,21,137.85,21Z"/><path d="M140.71,21s0.25-.92.7-2.28c0.24-.67.5-1.46,0.81-2.3s0.66-1.72,1-2.6,0.73-1.75,1.1-2.56,0.73-1.56,1-2.21c0.62-1.28,1.09-2.12,1.09-2.12s-0.25.92-.7,2.28c-0.24.67-.49,1.46-0.81,2.3s-0.66,1.72-1,2.6-0.73,1.75-1.1,2.56-0.73,1.56-1,2.21C141.18,20.13,140.71,21,140.71,21Z"/><path d="M104.35,28.93s0.29,5.39.51,10.78l0.18,4c0,1.26,0,2.44,0,3.46-0.05,2-.18,3.38-0.18,3.38h-0.08s-0.19-1.34-.34-3.36c-0.06-1-.14-2.19-0.17-3.45s0-2.61,0-4c0-5.4,0-10.79,0-10.79h0.08Z"/><path d="M108.79,24.39l1.87,14.1,0.68,5.18c0.19,1.66.31,3.21,0.42,4.54,0.2,2.66.24,4.44,0.24,4.44h-0.07s-0.36-1.75-.76-4.39c-0.19-1.32-.42-2.86-0.61-4.51l-0.5-5.2L108.71,24.4h0.07Z"/><path d="M106.33,25.85s0.84,5.93,1.61,11.87l0.59,4.36c0.16,1.39.25,2.7,0.34,3.82,0.15,2.24.16,3.75,0.16,3.75H109s-0.33-1.47-.68-3.69c-0.17-1.11-.37-2.41-0.53-3.8l-0.41-4.38c-0.58-6-1.09-11.93-1.09-11.93h0.07Z"/><path d="M408,43.21s-0.18-1.54-.36-3.86c-0.08-1.16-.19-2.51-0.27-4s-0.15-3-.22-4.55-0.11-3.1-.13-4.55,0-2.81,0-4c0-2.33.06-3.88,0.06-3.88s0.18,1.54.36,3.86c0.08,1.16.19,2.51,0.27,4s0.15,3,.22,4.55,0.11,3.1.13,4.55,0,2.81,0,4C408,41.66,408,43.21,408,43.21Z"/><path d="M405.55,42.66s-0.18-1.49-.37-3.73c-0.08-1.12-.2-2.43-0.29-3.83s-0.16-2.9-.24-4.4-0.12-3-.15-4.4,0-2.72,0-3.84c0-2.25,0-3.75,0-3.75s0.19,1.49.37,3.73c0.08,1.12.2,2.43,0.29,3.83s0.16,2.9.24,4.4,0.12,3,.15,4.4,0,2.72,0,3.84C405.6,41.15,405.55,42.66,405.55,42.66Z"/><path d="M402.59,42s-0.09-1.45-.14-3.62c0-1.08,0-2.35,0-3.71s0-2.8,0-4.25,0.07-2.89.13-4.24,0.14-2.62.19-3.7c0.13-2.17.28-3.61,0.28-3.61s0.09,1.45.14,3.62c0,1.08.05,2.35,0,3.71s0,2.8,0,4.25-0.07,2.89-.13,4.24-0.14,2.62-.19,3.7C402.74,40.53,402.59,42,402.59,42Z"/><path d="M399.87,27.85s0.9,0,2.24,0,3.13,0.14,4.9.31,3.55,0.41,4.87.63,2.2,0.43,2.2.43-0.9,0-2.24,0-3.13-.14-4.9-0.31-3.55-.41-4.87-0.63S399.87,27.85,399.87,27.85Z"/><path d="M398,29.48s0.74,0,1.84,0,2.55,0.2,4,.4,2.88,0.47,4,.72,1.78,0.47,1.78.47-0.74,0-1.84,0-2.55-.2-4-0.4-2.88-.47-4-0.72S398,29.48,398,29.48Z"/><path d="M398.23,31.39s0.92,0,2.28.16,3.17,0.36,5,.66,3.59,0.66,4.92,1,2.21,0.58,2.21.58-0.92,0-2.28-.16-3.17-.36-5-0.66-3.59-.66-4.92-1S398.23,31.39,398.23,31.39Z"/><path d="M11.19,3.33S8.44,5.09,5.64,6.8C5,7.24,4.26,7.68,3.6,8.08s-1.3.71-1.86,1-1,.47-1.37.59l-0.54.2,0-.07S0,9.62.24,9.4s0.7-.53,1.2-0.88S2.55,7.79,3.21,7.4s1.4-.74,2.13-1.11c2.89-1.54,5.81-3,5.81-3Z"/><path d="M-0.21,16.76s4-2.7,8-5.35l3-2c1-.6,1.88-1.12,2.67-1.56C15,7,16.14,6.51,16.14,6.51l0,0.06s-0.94.78-2.42,1.82c-0.75.51-1.61,1.12-2.57,1.72l-3,1.81C4,14.4-.17,16.82-0.17,16.82Z"/><path d="M20.22,9.6s-5,3-10.07,5.93L6.46,17.7c-1.19.67-2.34,1.24-3.31,1.74-2,1-3.31,1.55-3.31,1.55l0-.07s1.2-.85,3.06-2c0.94-.57,2-1.24,3.22-1.91l3.79-2C15,12.24,20.18,9.53,20.18,9.53Z"/><path d="M20.22,12.55s-5,3.25-10.06,6.43l-3.7,2.36c-1.19.73-2.34,1.36-3.31,1.91C1.19,24.32-.17,25-0.17,25l0-.06S1,24,2.85,22.74c0.94-.62,2-1.34,3.22-2.07l3.79-2.2c5.15-3,10.33-6,10.33-6Z"/><path d="M21.75,15.66s-5.4,3-10.84,5.89l-4,2.16c-1.28.66-2.51,1.23-3.55,1.73C1.27,26.41-.17,27-0.17,27l0-.07s1.3-.85,3.31-2c1-.57,2.18-1.23,3.47-1.89l4.07-2c5.52-2.74,11.08-5.42,11.08-5.42Z"/></svg>