<svg id="Slip_lines_grain_Small_" data-name="Slip lines (grain Small)" xmlns="http://www.w3.org/2000/svg" viewBox="0 0 500 100"><defs><style>.cls-1{fill:#202020;}</style></defs><title>M_SlipLinesGrainSmall</title><path d="M42.24,50.21L58,46.81l5.79-1.24c1.85-.37,3.59-0.66,5.08-0.92,3-.49,5-0.73,5-0.73V44s-1.95.55-4.89,1.24c-1.47.33-3.19,0.73-5,1.1L58.12,47.4,42.26,50.29V50.21Z"/><path d="M36.78,54.06L56,50l7-1.5c2.25-.45,4.37-0.82,6.18-1.14,3.63-.63,6.06-0.95,6.06-0.95v0.07s-2.37.64-6,1.46c-1.8.4-3.89,0.87-6.14,1.32l-7.08,1.32L36.79,54.13V54.06Z"/><path d="M41.77,58.39l22-4.86,8.1-1.78c2.59-.54,5-1,7.1-1.38,4.16-.77,7-1.18,7-1.18l0,0.07S83.25,50,79.13,51c-2.06.47-4.47,1-7.06,1.57l-8.13,1.6L41.78,58.47Z"/><path d="M43.36,61.64l18.17-4.21,6.67-1.54c2.14-.46,4.14-0.84,5.86-1.18,3.44-.65,5.75-1,5.75-1l0,0.07s-2.24.65-5.64,1.49c-1.7.41-3.68,0.89-5.82,1.36L61.66,58l-18.28,3.7Z"/><path d="M46.55,67.73l22.81-6.56,8.38-2.4c2.68-.74,5.2-1.38,7.35-1.93,4.32-1.09,7.22-1.72,7.22-1.72l0,0.07s-2.82.95-7.08,2.22c-2.13.63-4.62,1.37-7.3,2.11l-8.42,2.23L46.57,67.8Z"/><path d="M57.32,69.18s2.64-.83,6.62-2c2-.57,4.32-1.26,6.82-1.95l7.83-2.15L86.46,61c2.51-.66,4.86-1.22,6.88-1.72,4-1,6.73-1.59,6.73-1.59s-2.64.83-6.62,2c-2,.57-4.31,1.26-6.82,1.95l-7.84,2.15-7.86,2.06c-2.51.66-4.86,1.22-6.88,1.72C60,68.58,57.32,69.18,57.32,69.18Z"/><path d="M58.81,77s2.29-.82,5.75-2c1.74-.56,3.75-1.25,5.93-1.93L77.31,71l6.85-2c2.18-.65,4.24-1.2,6-1.71,3.51-1,5.88-1.57,5.88-1.57s-2.29.82-5.75,2c-1.74.56-3.75,1.25-5.93,1.93l-6.82,2.13-6.85,2c-2.18.65-4.24,1.2-6,1.71C61.18,76.44,58.81,77,58.81,77Z"/><path d="M60.55,72.23l14.28-4.11,5.25-1.5c1.68-.45,3.26-0.82,4.62-1.15,2.72-.63,4.55-1,4.55-1l0,0.07s-1.75.64-4.42,1.46c-1.34.4-2.89,0.87-4.57,1.33L75,68.7,60.57,72.3Z"/><path d="M63.87,80.33s5.75-1.73,11.53-3.39l4.23-1.24c1.36-.37,2.64-0.66,3.74-0.92,2.2-.49,3.69-0.73,3.69-0.73l0,0.07s-1.41.55-3.56,1.23c-1.08.33-2.33,0.73-3.69,1.09l-4.28,1.06C69.73,79,63.89,80.41,63.89,80.41Z"/><path d="M190.2,51.87l17.34,4.39,6.36,1.62c2,0.54,3.9,1.1,5.51,1.58,3.21,1,5.33,1.7,5.33,1.7l0,0.07s-2.2-.42-5.46-1.2c-1.63-.4-3.53-0.85-5.56-1.4l-6.32-1.79-17.2-4.89Z"/><path d="M183.06,52.76l21.08,5.38,7.74,2c2.46,0.66,4.75,1.33,6.71,1.89,3.92,1.15,6.5,2,6.5,2l0,0.07s-2.67-.55-6.63-1.51c-2-.49-4.29-1.05-6.76-1.71L204,58.71,183,52.83Z"/><path d="M186.24,59l24.29,6,8.92,2.23c2.84,0.74,5.48,1.48,7.74,2.11,4.52,1.28,7.5,2.22,7.5,2.22l0,0.07S231.6,71.09,227,70c-2.28-.55-4.94-1.19-7.78-1.93l-8.87-2.4-24.16-6.56Z"/><path d="M186.46,62.74l20.11,4.8L214,69.3c2.35,0.59,4.53,1.2,6.4,1.71,3.73,1,6.2,1.83,6.2,1.83l0,0.07s-2.55-.47-6.33-1.33c-1.89-.44-4.09-0.94-6.44-1.53l-7.34-1.94-20-5.3Z"/><path d="M187.09,69.76l25.78,4.87,9.47,1.79c3,0.6,5.82,1.21,8.22,1.73,4.81,1.06,8,1.86,8,1.86v0.07s-3.25-.48-8.09-1.35c-2.42-.44-5.24-1-8.26-1.55l-9.43-2-25.68-5.38V69.76Z"/><path d="M197.32,76.17s3,0.5,7.53,1.34c2.25,0.43,4.89.91,7.7,1.47l8.81,1.76,8.79,1.86c2.81,0.59,5.41,1.2,7.66,1.69,4.48,1,7.45,1.75,7.45,1.75s-3-.5-7.53-1.34c-2.25-.43-4.89-0.9-7.7-1.47l-8.81-1.77-8.79-1.86c-2.81-.59-5.41-1.2-7.66-1.69C200.29,76.91,197.32,76.17,197.32,76.17Z"/><path d="M104.28,59l16.49-.26,6.05-.09c1.93,0,3.74.05,5.28,0.09,3.09,0.1,5.15.26,5.15,0.26v0.08s-2.06.16-5.15,0.26c-1.55,0-3.35.09-5.28,0.09l-6.05-.09-16.49-.26V59Z"/><path d="M107.75,65.35l20.11-1.13,7.39-.41c2.36-.1,4.56-0.14,6.45-0.18,3.78-.06,6.3,0,6.3,0v0.07s-2.51.27-6.28,0.53c-1.89.12-4.08,0.27-6.44,0.37l-7.39.23-20.14.6V65.35Z"/><path d="M110.58,72.23l20.06-.55,7.37-.2c2.35,0,4.55,0,6.43,0,3.76,0,6.27.17,6.27,0.17v0.07s-2.51.2-6.27,0.35c-1.88.07-4.07,0.15-6.42,0.19l-7.37,0-20.07,0V72.23Z"/><path d="M109.51,77l19.23-1.26,7.06-.46c2.26-.12,4.36-0.17,6.17-0.23,3.61-.09,6-0.05,6-0.05v0.07s-2.4.29-6,.57c-1.8.13-3.9,0.3-6.16,0.41l-7.07.28-19.26.74V77Z"/><path d="M110.58,82.75l18.7-1.1,6.87-.4c2.19-.1,4.24-0.14,6-0.18,3.51-.06,5.86,0,5.86,0v0.07s-2.33.27-5.83,0.52c-1.75.12-3.8,0.26-6,.36l-6.87.22-18.72.57V82.75Z"/><path d="M122.47,86.47s5-.4,10.05-0.72l3.69-.26c1.18-.05,2.28-0.05,3.23-0.06,1.89,0,3.16.12,3.16,0.12v0.07s-1.25.22-3.13,0.4c-0.94.08-2,.19-3.22,0.24l-3.7.08c-5,.13-10.07.2-10.07,0.2V86.47Z"/><path d="M50,73.09s-0.93,1.43-2.42,3.48c-0.76,1-1.63,2.22-2.62,3.46l-3.15,3.85-8.6,10.46-0.06,0,8.19-10.79,3-4c1-1.25,1.94-2.37,2.76-3.35C48.75,74.28,49.92,73,49.92,73Z"/><path d="M52.81,75.71S52,77,50.74,78.79c-0.65.9-1.4,2-2.26,3.05l-2.74,3.38c-3.71,4.61-7.48,9.19-7.48,9.19l-0.06,0s3.5-4.78,7.06-9.51l2.6-3.49c0.85-1.1,1.69-2.09,2.4-2.94,1.44-1.69,2.48-2.76,2.48-2.76Z"/><path d="M55.67,77.43s-0.75,1.25-2,3c-0.63.89-1.36,1.93-2.18,3L48.83,86.8c-3.6,4.55-7.25,9.05-7.25,9.05l-0.06,0s3.39-4.71,6.84-9.37L50.87,83c0.83-1.08,1.64-2.05,2.33-2.89,1.4-1.67,2.41-2.72,2.41-2.72Z"/><path d="M60.32,80.24s-0.64,1.23-1.72,3c-0.55.87-1.18,1.9-1.9,3l-2.34,3.29C51.19,94,48,98.42,48,98.42l-0.06,0s3-4.64,6-9.24l2.19-3.39c0.72-1.06,1.44-2,2.06-2.86,1.24-1.65,2.15-2.69,2.15-2.69Z"/><path d="M63.29,83.13s-0.07.18-.22,0.49-0.37.73-.65,1.24-0.64,1.07-1,1.67-0.89,1.19-1.35,1.8c-1.82,2.47-3.69,4.89-3.69,4.89l-0.06,0s1.6-2.61,3.26-5.19c0.41-.65.81-1.3,1.2-1.9s0.82-1.12,1.19-1.56,0.69-.81.93-1,0.38-.38.38-0.38Z"/><path d="M66.45,85.29s-0.05.16-.17,0.41-0.29.62-.51,1-0.52.89-.85,1.39-0.74,1-1.13,1.48c-1.52,2-3.09,4-3.09,4l-0.06,0s1.3-2.18,2.66-4.33c0.33-.54.66-1.09,1-1.59s0.68-.93,1-1.29,0.58-.66.79-0.85,0.33-.31.33-0.31Z"/><path d="M59.5,79.75s-0.86,1.08-2.25,2.61c-0.7.76-1.52,1.64-2.43,2.55L51.9,87.69c-4,3.81-8,7.57-8,7.57l-0.05-.05s3.78-4,7.6-7.94l2.8-2.91c0.91-.91,1.8-1.72,2.56-2.42,1.53-1.38,2.62-2.24,2.62-2.24Z"/><path d="M215.48,14.12s3.46-.78,8.68-1.86l8.91-1.81,10.23-2,10.25-1.9,9-1.58c5.25-.9,8.76-1.45,8.76-1.45s-3.46.78-8.68,1.86L253.68,7.2l-10.23,2-10.25,1.89-9,1.58C219,13.58,215.48,14.12,215.48,14.12Z"/><path d="M220.59,16.73s2.5-.6,6.26-1.41c1.88-.39,4.08-0.88,6.44-1.35l7.39-1.46,7.41-1.36c2.37-.44,4.58-0.79,6.48-1.12,3.8-.63,6.34-1,6.34-1s-2.5.6-6.26,1.41c-1.88.39-4.08,0.88-6.44,1.34l-7.39,1.46-7.41,1.36c-2.37.44-4.58,0.79-6.48,1.12C223.13,16.37,220.59,16.73,220.59,16.73Z"/><path class="cls-1" d="M271.14,10.66c0.06,0,0-.07,0-0.08S271.15,10.67,271.14,10.66Z"/><polygon class="cls-1" points="270.17 11.01 270.19 10.98 270.05 11.08 270.17 11.01"/><path class="cls-1" d="M269.24,11.2a1.15,1.15,0,0,0,.51-0.08l0,0,0.06-.11A3,3,0,0,1,269.24,11.2Z"/><path class="cls-1" d="M268.69,11.06s-0.1.06,0.12,0h0Z"/><path class="cls-1" d="M268.79,11c0.1,0-.07,0,0,0h0Z"/><path class="cls-1" d="M268.34,11.16l0.12-.07s-0.15,0-.11,0C268.22,11.11,268.25,11.13,268.34,11.16Z"/><path class="cls-1" d="M268.23,11.27l0.06,0S268.26,11.23,268.23,11.27Z"/><path class="cls-1" d="M268.43,11.17l-0.14.06s0,0.05.06,0S268.37,11.21,268.43,11.17Z"/><path class="cls-1" d="M268.51,11.17c0.08,0,.17,0,0.05.07C268.81,11.18,268.76,11.11,268.51,11.17Z"/><path class="cls-1" d="M269.21,11.33h0.1l0.08-.06A0.61,0.61,0,0,0,269.21,11.33Z"/><path class="cls-1" d="M267.52,11.27a0.33,0.33,0,0,0,.07.08l0.09,0A0.26,0.26,0,0,1,267.52,11.27Z"/><path class="cls-1" d="M267.59,11.35l-0.13.07C267.58,11.4,267.6,11.37,267.59,11.35Z"/><polygon class="cls-1" points="268.23 11.4 268.45 11.26 268.19 11.41 268.23 11.4"/><polygon class="cls-1" points="266.97 11.38 267.04 11.3 266.91 11.42 266.97 11.38"/><path class="cls-1" d="M266.61,11.46c0.05-.06-0.1-0.06,0-0.1a0.77,0.77,0,0,0-.24.14A0.49,0.49,0,0,1,266.61,11.46Z"/><path class="cls-1" d="M266.21,11.57l0.12-.08Z"/><path class="cls-1" d="M267.21,11.46a0.16,0.16,0,0,0-.13,0l0.07,0.06h0.06Z"/><path class="cls-1" d="M267.15,11.47h0l-0.12,0Z"/><path class="cls-1" d="M267.22,11.46h0Z"/><path class="cls-1" d="M267.84,11.41c-0.08.05-.24,0.13-0.06,0.15S267.73,11.5,267.84,11.41Z"/><path class="cls-1" d="M267.31,11.53l0.16,0s0,0,0-.06Z"/><polygon class="cls-1" points="267.24 11.56 267.31 11.53 267.25 11.53 267.24 11.56"/><path class="cls-1" d="M266.48,11.58a0.63,0.63,0,0,1-.21.08l0.27,0S266.57,11.56,266.48,11.58Z"/><path class="cls-1" d="M266.81,11.53h0S266.81,11.54,266.81,11.53Z"/><path class="cls-1" d="M265.47,11.82h0Z"/><path class="cls-1" d="M266.55,11.64a0.19,0.19,0,0,0,.14-0.05l-0.15,0S266.53,11.65,266.55,11.64Z"/><path class="cls-1" d="M266,11.65h0.12A0.16,0.16,0,0,0,266,11.65Z"/><path class="cls-1" d="M266.77,11.53h0S266.76,11.52,266.77,11.53Z"/><path class="cls-1" d="M266.77,11.53l-0.08.06,0.1,0h0Z"/><path class="cls-1" d="M265.32,12.31a0.27,0.27,0,0,1,.32-0.12c0.14-.08,0-0.26-0.15-0.35,0,0,0,.05-0.14.12,0.06,0,.35,0,0.23.09a0.28,0.28,0,0,1-.27,0c0.1,0.06-.23.17-0.16,0.27l0.17-.08S265.26,12.3,265.32,12.31Z"/><path class="cls-1" d="M265.77,11.78l0.06,0a0.66,0.66,0,0,1-.23,0,0.17,0.17,0,0,0-.12.1l0.31-.05h0Z"/><path class="cls-1" d="M266.11,11.7c0,0.08-.18.14-0.07,0.19a0.44,0.44,0,0,0,.22-0.13c-0.29.08,0.08-.06-0.14-0.05l0.15-.05h-0.15s0,0,0,0h0v0c-0.09,0,0,0,0,0h0l-0.29.1Z"/><path class="cls-1" d="M267.65,11.75h0S267.62,11.75,267.65,11.75Z"/><path class="cls-1" d="M267.53,11.73a0.15,0.15,0,0,1,.1-0.05c0.06,0,0,0,0,.05s0.14-.08,0-0.09h0a0.5,0.5,0,0,1-.27-0.07A0.48,0.48,0,0,0,267.53,11.73Z"/><path class="cls-1" d="M266.81,11.74l-0.24.08,0.14,0v0C266.84,11.8,266.8,11.77,266.81,11.74Z"/><polygon class="cls-1" points="265.44 11.8 265.45 11.72 265.33 11.85 265.44 11.8"/><polygon class="cls-1" points="265.12 11.87 265.12 11.8 265.04 11.86 265.12 11.87"/><path class="cls-1" d="M247.35,16.3l-0.07,0Z"/><path class="cls-1" d="M247.87,16.2v0S247.85,16.2,247.87,16.2Z"/><path class="cls-1" d="M257.32,13.47c-0.12,0-.25-0.1-0.22,0l0,0.06A0.38,0.38,0,0,1,257.32,13.47Z"/><path class="cls-1" d="M252.06,15h0l0.06-.08Z"/><path class="cls-1" d="M252,15.26l-0.15,0Z"/><path class="cls-1" d="M244.52,16.95l-0.07.09C244.58,17,244.52,17,244.52,16.95Z"/><path class="cls-1" d="M261.87,12.56a1,1,0,0,0-.23,0C261.75,12.58,261.85,12.62,261.87,12.56Z"/><path class="cls-1" d="M247.4,15.53s-0.06,0-.05.05S247.41,15.54,247.4,15.53Z"/><path class="cls-1" d="M261.38,12.62h0.05a0.92,0.92,0,0,1,.21-0.06A0.32,0.32,0,0,0,261.38,12.62Z"/><path class="cls-1" d="M234.2,19h0Z"/><path class="cls-1" d="M231.06,18.91l0.12,0Z"/><path class="cls-1" d="M263.83,12.1c0.07,0,0,0,0,0h0Z"/><path class="cls-1" d="M264.22,12.3a0,0,0,0,0,0,0A0.06,0.06,0,0,1,264.22,12.3Z"/><path class="cls-1" d="M260.79,13.18h0S260.8,13.19,260.79,13.18Z"/><path class="cls-1" d="M263.94,12.11h0Z"/><path class="cls-1" d="M263.92,12.08H264S264,12.06,263.92,12.08Z"/><path class="cls-1" d="M263.74,12.12l0.11,0h0Z"/><path class="cls-1" d="M239.69,17.68h0C239.61,17.72,239.64,17.71,239.69,17.68Z"/><polygon class="cls-1" points="255.71 14.54 255.72 14.53 255.7 14.53 255.71 14.54"/><path class="cls-1" d="M255.48,14.64a0.23,0.23,0,0,1,.23-0.11l-0.12-.18Z"/><path class="cls-1" d="M246.1,16.57l0.18,0c-0.18.14-.34,0.14-0.16,0.19,0-.22.66-0.16,0.64-0.38l0.12,0-0.07,0a1.36,1.36,0,0,0,.42-0.21c0.1,0,.18,0,0.11.05l0.21-.1c0.06,0,.06,0,0,0l0.33-.08h0a1.5,1.5,0,0,1,.19-0.15c0.09,0,0,0,0,.05l0.17-.09c0.09,0-.06.13-0.18,0.14,0.22,0.18.14-.08,0.54,0l-0.17.06a1.07,1.07,0,0,0,.48.06c-0.05,0-.43-0.11-0.24-0.21a0.35,0.35,0,0,0,.23-0.07c0,0.08.12,0,.25,0V16a0.48,0.48,0,0,0,.19-0.17,0.24,0.24,0,0,1,.26.11c0.26,0-.2-0.09.1-0.17a1.38,1.38,0,0,0,.6-0.19c0.16,0,0,.07,0,0.09l0.11-.11s0,0,0,0a0.43,0.43,0,0,1,.16-0.17,4.16,4.16,0,0,0,.58-0.08c0.06,0,0,.07,0,0.1a2.1,2.1,0,0,0,.46-0.27l0.22,0c-0.17,0,0-.17.16-0.28l-0.15-.06,0.26-.11s0,0.05,0,.1l0,0c0.1,0,.07.09,0,0.16l-0.11,0a0.25,0.25,0,0,0-.08.21l0.08,0s0,0,0,0a0.13,0.13,0,0,0,.07-0.05l0.08,0.1v0h0.37a2.6,2.6,0,0,1,.81-0.51c-0.08.1,0,.14,0,0.24a1.17,1.17,0,0,0-.52.13c0.11,0,.1,0,0.07.06l0.35-.17c0,0.08.09,0,.2,0.06-0.11-.14.26-0.16,0.4-0.24s0,0.11-.19.14a4.11,4.11,0,0,0,.45-0.18,0.09,0.09,0,0,0-.08,0c0.1-.07.36-0.08,0.31,0h0a1.68,1.68,0,0,0,.93-0.33,0.77,0.77,0,0,1,0,.2l0.44-.56c0,0.12.21,0.36,0,.48a0.57,0.57,0,0,0,.31-0.07c-0.05,0-.16-0.14-0.09-0.17a1.47,1.47,0,0,0,.39.11c-0.08,0,0-.21.08-0.22a0.55,0.55,0,0,1,0,.2l0.25-.24c-0.07,0,0,.15.09,0.19a1.53,1.53,0,0,1,.32-0.08l-0.13,0c0.33,0,.27-0.31.59-0.37,0,0,0,.25.12,0.23a1.45,1.45,0,0,1,.51-0.63l0.07,0,0.21-.1a4.4,4.4,0,0,1-.62.68,0.29,0.29,0,0,0,.23,0c0.07,0-.08.09-0.14,0.11l0.43-.05a2.74,2.74,0,0,1,.27-0.26l-0.44.2a0.55,0.55,0,0,1,.51-0.4c0.08,0,0,.2,0,0.23a0.57,0.57,0,0,1,.3-0.11l-0.12.08a1.2,1.2,0,0,1,.46-0.14,0.37,0.37,0,0,0,.23,0,0.68,0.68,0,0,1-.18-0.57,2.73,2.73,0,0,1,.48.09,1.74,1.74,0,0,1,0,.32,0.18,0.18,0,0,1,.08-0.1c0.08,0,0,.1.14,0.05,0-.11.32-0.06,0.06-0.11a1.65,1.65,0,0,1,.35-0.05c-0.07-.06.11-0.27,0.26-0.33a0.1,0.1,0,0,0,.06.07c0.32-.05.5,0,0.79-0.1,0,0,.18,0,0.13.08a0.36,0.36,0,0,1,.16-0.09c0.19,0.06-.2.06,0,0.14a0.81,0.81,0,0,1,.34-0.2,0.49,0.49,0,0,0-.42.11,0.61,0.61,0,0,1,.47-0.44c0.24-.08.12,0.06,0.16,0a3.59,3.59,0,0,1,.75-0.29c0.17,0.05,0,.17.09,0.22a1.86,1.86,0,0,1-.45,0h0.17a0.48,0.48,0,0,1-.26.08c0.14,0.05.78-.14,1.15-0.15,0.06,0,.16-0.09.1-0.12l-0.11,0c-0.12,0,.19-0.14,0-0.14a1,1,0,0,1,.51-0.19l0.06,0.09a0.22,0.22,0,0,0-.2,0,0.74,0.74,0,0,0,.42-0.08l-0.16,0A1.18,1.18,0,0,1,265,12a1.41,1.41,0,0,0-.2-0.06c0.14,0.12-.48.09-0.27,0.2a2.06,2.06,0,0,0-.45-0.08s0.08,0-.09.06l0,0h0l0.09,0a1.75,1.75,0,0,1-.39.19c-0.1,0,0,0,0-.07l-0.12.08c0-.07-0.27-0.07-0.06-0.15l-0.2,0a0.72,0.72,0,0,0-.38.05c-0.1,0-.22.13-0.15,0.05l-0.3.11v0a2.79,2.79,0,0,1-1,.19,1.19,1.19,0,0,1-.38.1l0-.05a1.62,1.62,0,0,0-.46.1,1.87,1.87,0,0,0-.89.11V13a2.78,2.78,0,0,0-.5.16l0,0.07a3.87,3.87,0,0,1-.72.1,0.15,0.15,0,0,1,.14,0,7.52,7.52,0,0,0-1,.2,0.25,0.25,0,0,1-.18,0h0l-0.11,0,0.09,0-0.22.07-0.05-.07h0c-0.09,0-.06,0,0,0.1l-0.1.07c-0.09-.11-0.21.09-0.33,0a1.24,1.24,0,0,0-.43.28s0,0,0,0a0.48,0.48,0,0,0-.27.06l-0.06-.09-0.18.17c-0.14,0-.2-0.06-0.09-0.16-0.28.18-.23,0.09-0.46,0.26V14.07a0.59,0.59,0,0,1-.28.09c-0.23-.08-1,0.19-1.55.18,0.14,0.16-.26,0-0.25.11,0,0-.12,0,0-0.1a1.38,1.38,0,0,0-.57.17,0.34,0.34,0,0,1,0-.1,0.13,0.13,0,0,1-.11,0s0,0,.07-0.07a0.27,0.27,0,0,0-.26.33,0.25,0.25,0,0,0-.3.09c-0.06,0-.15-0.06,0-0.11a1.07,1.07,0,0,0-.58.16,0.23,0.23,0,0,0-.16,0,4.25,4.25,0,0,0-.44.08h0.06c-0.06.14-.17,0.06-0.33,0.11h0c-0.4,0-.16.08-0.56,0.05l0,0.07a1.14,1.14,0,0,1-.57.08l0.09,0a1.38,1.38,0,0,1-.51-0.15s0,0,.07,0c-0.34,0,0,.11-0.25.18-0.05,0,0-.15-0.13-0.13a2.14,2.14,0,0,1-.67.21c0.06,0,.11.06,0,0.12a1.12,1.12,0,0,0-.61.1l0,0a1.85,1.85,0,0,0-.47.23c-0.17-.24-0.78.29-0.82,0l-0.39.09v0a0.6,0.6,0,0,0-.41.19c-0.06,0,0,0,0,0a1,1,0,0,0-.7.23l0-.07a4.7,4.7,0,0,0-.91.15,0.06,0.06,0,0,1,0,0c-0.39.18-1,0-1.11,0.3l-0.26.13c0.35,0,0,.13.13,0.15-0.13,0-.37,0-0.21-0.06h0a1.12,1.12,0,0,0-.46-0.07c-0.69.15-1.37,0.2-2,.33l0.1,0.1-0.23,0c-0.06,0-.1-0.07.06-0.1a0.27,0.27,0,0,0-.26.14c-0.32,0,.1-0.16,0-0.14l-0.13,0h0a0.47,0.47,0,0,1-.29.15,0.2,0.2,0,0,1-.13-0.05s0,0-.07,0l-0.28,0,0.13,0.07c-0.12.07-.27,0-0.12,0.13a4.59,4.59,0,0,0-1.19.13,1.41,1.41,0,0,1-.55.17c0.06,0,.11.1-0.08,0.13,0-.23-0.36,0-0.54-0.14,0.15,0.07-.52.13-0.28,0.23-0.16,0,0-.08-0.15-0.1a10.35,10.35,0,0,1-1.27.23s0.08,0.06,0,.12l-0.27-.09c-0.09,0,0,.18-0.23.11,0,0,.07,0,0,0.07a21.46,21.46,0,0,1-2.75.41c0.13,0,.05.05,0,0.07,0.06,0,0,.07,0,0.1l-0.4,0c0,0.12-.4.09-0.42,0.2l0.12,0c-0.14.15,0.28,0.22,0.28,0.37a3.35,3.35,0,0,0,.76-0.15c0.07,0,0,.06,0,0.09a0.37,0.37,0,0,1,.32-0.12l0,0a9,9,0,0,1,1.21-.15L233,19.11a0.52,0.52,0,0,1,.2,0c0.11-.14-0.32.06-0.23-0.09,0.18,0.12.8-.16,0.93,0,0.17,0-.07-0.08.11-0.11l0.06,0,0-.07a0.18,0.18,0,0,1,.2.07l-0.1,0a1.94,1.94,0,0,0,.47-0.1H234.5a14.88,14.88,0,0,0,1.49-.38l0,0a4.32,4.32,0,0,1,.66-0.13h0a0.66,0.66,0,0,1,.27-0.11c-0.09.06,0.2,0,.08,0.11a0.73,0.73,0,0,0,.4-0.28l0.07,0a0.43,0.43,0,0,1,.26-0.15c-0.15.08,0.14,0.06,0,.17a2.67,2.67,0,0,1,.79-0.1c0.15-.2-0.37,0-0.27-0.07-0.1,0,.13-0.15.26-0.16a1.45,1.45,0,0,0,.58.09l-0.06,0a2,2,0,0,1,.39-0.07c0.06-.11.19,0,0.19-0.16l-0.29.09a1.06,1.06,0,0,1,.58-0.23,0.5,0.5,0,0,1-.14.11c0.09,0,.15-0.06.24,0a1.59,1.59,0,0,1-.51.23c0.1,0,.32-0.16.26,0a1.76,1.76,0,0,1,.51-0.22v0.08a0.51,0.51,0,0,1,.16-0.08l-0.1.12a2.35,2.35,0,0,1,.52-0.08c-0.35.07-.1-0.07-0.26-0.1,0.42-.19.29,0.14,0.78,0-0.06,0-.26,0-0.16-0.05a0.84,0.84,0,0,1,.29,0c0.32-.08-0.07-0.07.06-0.14s0.15-.07.29-0.13l0,0.08c0.38,0,.07-0.18.41-0.19l-0.12.13,0.17-.06,0,0.09a0.74,0.74,0,0,1,.43-0.11c-0.05,0,0-.14.16-0.18s0,0.09.18,0a0.15,0.15,0,0,1-.2.08s0,0.06,0,.09a1,1,0,0,0,.39-0.07H243l0.32-.17c0.06,0,0,0,0,.08a1.83,1.83,0,0,1,.21-0.09,0.18,0.18,0,0,1-.13.19l0.31-.13s0.18,0,.14.07c0.19,0,.41-0.21.66-0.21a0.17,0.17,0,0,1,.08-0.05,1.61,1.61,0,0,0,.68-0.13l0.17,0.08c0.2-.07-0.23-0.1.1-0.21s0.11,0.08.2,0.09a0.69,0.69,0,0,1,.54-0.19A1.11,1.11,0,0,1,246.1,16.57Zm2.53-.57a0.21,0.21,0,0,1-.18.06C248.49,16,248.55,16,248.63,16Zm3.82-1a0.17,0.17,0,0,1-.16,0A0.35,0.35,0,0,1,252.46,15Zm10.65-2.72h0C263,12.31,263,12.31,263.11,12.31Zm0.23,0s0,0,0,0a0.18,0.18,0,0,1-.12,0A0.1,0.1,0,0,0,263.34,12.3Zm-24.48,5h0C238.82,17.37,238.84,17.35,238.86,17.32Z"/><path class="cls-1" d="M252,15.23a0.07,0.07,0,0,1,0,0S252,15.22,252,15.23Z"/><path class="cls-1" d="M244.53,16.93h0v0Z"/><path class="cls-1" d="M259.94,13.66l-0.1,0S259.87,13.67,259.94,13.66Z"/><path class="cls-1" d="M264.53,11.92l-0.14,0a0.27,0.27,0,0,1,.14,0S264.48,11.93,264.53,11.92Z"/><path class="cls-1" d="M265.89,12.14l0.06,0v0C265.85,12.1,265.79,12.14,265.89,12.14Z"/><path class="cls-1" d="M264.71,12.15c0,0.06.11,0,.21,0h0C264.92,12,264.81,12.1,264.71,12.15Z"/><path class="cls-1" d="M264.95,12.13l0.09,0S265,12.11,264.95,12.13Z"/><path class="cls-1" d="M263.62,12.2a0.28,0.28,0,0,0,0-.07C263.71,12,263.37,12.29,263.62,12.2Z"/><polygon class="cls-1" points="264.84 12.34 264.79 12.27 264.74 12.35 264.84 12.34"/><path class="cls-1" d="M264,12.45h0.17s0,0,0,0A0.45,0.45,0,0,0,264,12.45Z"/><path class="cls-1" d="M264.22,12.4a0.36,0.36,0,0,0,.13,0Z"/><polygon class="cls-1" points="264.62 12.41 264.57 12.4 264.45 12.42 264.62 12.41"/><path class="cls-1" d="M262.26,12.79l-0.17.06s0,0,.1,0S262.29,12.81,262.26,12.79Z"/><path class="cls-1" d="M262.84,12.9a0.17,0.17,0,0,1-.09,0V13Z"/><path class="cls-1" d="M262.33,13s-0.24.13,0,.08C262.32,13.08,262.49,13,262.33,13Z"/><polygon class="cls-1" points="259.61 13.45 259.66 13.44 259.62 13.28 259.61 13.45"/><path class="cls-1" d="M257.32,14.32c0.22,0,0-.11.23-0.1,0,0-.16,0-0.12-0.05C257.31,14.23,257.24,14.23,257.32,14.32Z"/><path class="cls-1" d="M257.43,14.17l0.06,0Z"/><polygon class="cls-1" points="230.55 18.93 230.4 18.92 230.5 18.96 230.55 18.93"/><path class="cls-1" d="M230.31,19.1l-0.05-.1-0.06.11A0.16,0.16,0,0,1,230.31,19.1Z"/><path class="cls-1" d="M249.05,16.13v0a0.15,0.15,0,0,0-.12,0Z"/><polygon class="cls-1" points="247.19 16.43 247.23 16.43 247.15 16.35 247.19 16.43"/><path class="cls-1" d="M245.67,16.87l0.2-.05C245.74,16.86,245.63,16.75,245.67,16.87Z"/><path d="M230.25,21.78s1.52-.43,3.82-1c1.15-.27,2.49-0.61,3.93-0.92l4.52-1,4.54-.88c1.45-.28,2.81-0.49,4-0.7,2.33-.39,3.9-0.58,3.9-0.58s-1.52.43-3.82,1c-1.15.27-2.49,0.61-3.93,0.92l-4.52,1-4.54.88c-1.45.28-2.81,0.49-4,.7C231.82,21.58,230.25,21.78,230.25,21.78Z"/><path d="M230.25,29s1.74-.47,4.38-1.08c1.32-.29,2.85-0.67,4.51-1l5.18-1.07,5.2-1c1.66-.31,3.22-0.55,4.55-0.78,2.67-.43,4.46-0.66,4.46-0.66s-1.74.47-4.38,1.08c-1.32.29-2.85,0.67-4.51,1l-5.18,1.07-5.2,1c-1.66.31-3.22,0.55-4.55,0.78C232,28.8,230.25,29,230.25,29Z"/><path d="M238.55,30.26s1.22-.37,3.08-0.83c0.93-.22,2-0.5,3.18-0.76s2.41-.52,3.66-0.78,2.5-.49,3.68-0.69,2.28-.37,3.22-0.53c1.89-.29,3.16-0.42,3.16-0.42s-1.22.37-3.08,0.83c-0.93.22-2,.5-3.18,0.76s-2.41.52-3.66,0.78-2.5.49-3.68,0.69-2.28.37-3.22,0.53C239.82,30.12,238.55,30.26,238.55,30.26Z"/><path d="M231.75,34s1.43-.35,3.59-0.79c1.08-.21,2.34-0.47,3.7-0.71s2.8-.48,4.25-0.72,2.9-.45,4.26-0.63,2.64-.33,3.73-0.47c2.19-.26,3.66-0.37,3.66-0.37s-1.43.35-3.59,0.79c-1.08.21-2.34,0.47-3.7,0.71s-2.8.48-4.25,0.72-2.9.45-4.26,0.63-2.64.33-3.73,0.47C233.22,33.84,231.75,34,231.75,34Z"/><path d="M262.07,80.33L282,74.56l7.32-2.11c2.34-.65,4.55-1.2,6.43-1.68,3.78-.94,6.32-1.47,6.32-1.47l0,0.07s-2.46.85-6.18,2c-1.86.56-4,1.21-6.38,1.86l-7.37,1.94-20.08,5.26Z"/><path d="M267.1,83.37s2.34-.75,5.87-1.79c1.77-.51,3.83-1.13,6-1.74l7-1.92,7-1.82c2.23-.58,4.32-1.07,6.11-1.52,3.58-.87,6-1.39,6-1.39s-2.34.75-5.87,1.79c-1.77.51-3.83,1.13-6,1.74l-7,1.91-7,1.82c-2.23.58-4.32,1.07-6.11,1.52C269.5,82.85,267.1,83.37,267.1,83.37Z"/><path d="M268.59,91.22s2.29-.82,5.75-2c1.74-.56,3.75-1.25,5.93-1.93l6.82-2.13,6.85-2c2.18-.65,4.24-1.2,6-1.71,3.51-1,5.88-1.57,5.88-1.57s-2.29.82-5.75,2c-1.74.56-3.75,1.25-5.93,1.93l-6.82,2.13-6.85,2c-2.18.65-4.24,1.2-6,1.71C271,90.63,268.59,91.22,268.59,91.22Z"/><path d="M270.33,86.42l14.28-4.11,5.25-1.5c1.68-.45,3.26-0.82,4.62-1.15,2.72-.63,4.55-1,4.55-1l0,0.07s-1.75.64-4.42,1.46c-1.33.4-2.89,0.87-4.57,1.33l-5.29,1.33-14.42,3.6Z"/><path d="M273.65,94.52s5.75-1.73,11.53-3.39l4.23-1.24c1.36-.37,2.64-0.66,3.74-0.92,2.2-.49,3.69-0.73,3.69-0.73l0,0.07s-1.41.55-3.56,1.23c-1.08.33-2.33,0.73-3.69,1.09l-4.28,1.06c-5.82,1.47-11.66,2.88-11.66,2.88Z"/><path d="M340.73,30.77s5.39,0.32,10.77.71l4,0.27c1.26,0.11,2.43.27,3.43,0.4,2,0.28,3.33.56,3.33,0.56v0.07s-1.36,0-3.38,0c-1-.05-2.19-0.1-3.45-0.22l-3.94-.45c-5.36-.58-10.72-1.23-10.72-1.23V30.77Z"/><path d="M337.47,34.86l15.5-.26,5.69-.09c1.82,0,3.51.05,5,.09,2.91,0.1,4.84.26,4.84,0.26v0.08s-1.94.16-4.84,0.26c-1.45,0-3.15.09-5,.09L353,35.19l-15.5-.26V34.86Z"/><path d="M337.47,37.76l13.85-.26,5.08-.09c1.62,0,3.14.05,4.44,0.09,2.6,0.1,4.33.26,4.33,0.26v0.07s-1.73.16-4.33,0.26c-1.3,0-2.81.09-4.44,0.09l-5.08-.09-13.85-.26V37.76Z"/><path d="M340.72,40.59s5.45-.17,10.89-0.26l4-.09c1.28,0,2.47.05,3.49,0.09,2,0.1,3.4.26,3.4,0.26v0.08s-1.36.16-3.4,0.26c-1,0-2.21.09-3.49,0.09l-4-.09c-5.45-.1-10.89-0.26-10.89-0.26V40.59Z"/><path d="M340.73,42.75l13.08,1.64,4.8,0.61c1.53,0.22,2.95.48,4.16,0.7,2.43,0.46,4,.85,4,0.85v0.07s-1.65-.08-4.11-0.33c-1.23-.14-2.66-0.29-4.19-0.52L353.72,45l-13-2.15V42.75Z"/><path d="M340.73,46.54s4.76,0.54,9.5,1.16l3.49,0.43c1.11,0.17,2.14.37,3,.55,1.76,0.37,2.92.7,2.92,0.7v0.07s-1.21,0-3-.18c-0.89-.09-1.94-0.2-3-0.36l-3.46-.61c-4.72-.8-9.43-1.67-9.43-1.67V46.54Z"/><path d="M249.73,33.54s4.76,0.54,9.5,1.16l3.49,0.43c1.11,0.17,2.14.37,3,.55,1.76,0.37,2.92.7,2.92,0.7v0.07s-1.21,0-3-.18c-0.89-.09-1.94-0.2-3-0.36l-3.46-.61c-4.72-.8-9.43-1.67-9.43-1.67V33.54Z"/><path d="M343.51,50.45s4.76,0.54,9.5,1.16L356.51,52c1.11,0.17,2.14.37,3,.55,1.76,0.37,2.92.7,2.92,0.7v0.07s-1.21,0-3-.18c-0.89-.09-1.94-0.2-3-0.36l-3.46-.61c-4.72-.8-9.43-1.67-9.43-1.67V50.45Z"/><path d="M417.75,23.45s1.32-.42,3.33-1c1-.26,2.17-0.58,3.43-0.89s2.61-.62,4-0.93,2.7-.59,4-0.84,2.46-.46,3.48-0.65c2-.36,3.42-0.54,3.42-0.54s-1.32.42-3.33,1c-1,.26-2.17.58-3.43,0.89s-2.61.62-4,.92-2.7.59-4,.84-2.46.46-3.48,0.65C419.13,23.27,417.75,23.45,417.75,23.45Z"/><path d="M422.69,26.33s1.12-.43,2.82-1c0.85-.27,1.84-0.6,2.91-0.92s2.22-.64,3.37-1,2.3-.62,3.39-0.88,2.11-.49,3-0.69c1.75-.38,2.93-0.58,2.93-0.58s-1.12.43-2.82,1c-0.85.27-1.84,0.6-2.91,0.92s-2.22.64-3.37,1-2.3.62-3.39,0.88-2.11.49-3,.69C423.87,26.13,422.69,26.33,422.69,26.33Z"/><path d="M426.48,29s1.25-.46,3.15-1.08c1-.29,2.06-0.66,3.25-1s2.47-.71,3.76-1.07,2.57-.69,3.78-1,2.35-.55,3.32-0.78c1.95-.44,3.26-0.67,3.26-0.67s-1.25.47-3.15,1.08c-1,.29-2.06.66-3.25,1s-2.47.71-3.76,1.07-2.57.68-3.78,1-2.35.55-3.32,0.78C427.79,28.8,426.48,29,426.48,29Z"/><path d="M431.89,31.78s1-.46,2.65-1.06c0.8-.29,1.73-0.65,2.74-1s2.09-.71,3.17-1.06,2.17-.68,3.2-1,2-.54,2.82-0.77c1.66-.43,2.78-0.66,2.78-0.66s-1,.46-2.65,1.07c-0.8.29-1.73,0.65-2.74,1s-2.09.71-3.17,1.06-2.17.68-3.2,1-2,.54-2.82.77C433,31.55,431.89,31.78,431.89,31.78Z"/><path d="M452.85,32.71l14.83-.26,5.44-.09c1.74,0,3.36.05,4.75,0.09,2.78,0.1,4.63.26,4.63,0.26v0.08s-1.85.16-4.63,0.26c-1.39,0-3,.09-4.75.09L467.67,33l-14.83-.26V32.71Z"/><path d="M451.2,35.15s2.46-.14,6.14-0.25c1.84,0,4-.13,6.29-0.16l7.21-.1h7.22c2.3,0,4.45.05,6.29,0.07,3.68,0.07,6.14.17,6.14,0.17s-2.46.14-6.14,0.25c-1.84,0-4,.13-6.29.16l-7.21.1h-7.22c-2.3,0-4.45-.05-6.29-0.07C453.66,35.26,451.2,35.15,451.2,35.15Z"/><path d="M449.39,37.75l25.18-.26,9.25-.09c3,0,5.7.05,8.06,0.09,4.72,0.1,7.87.26,7.87,0.26v0.08s-3.15.16-7.87,0.26c-2.36,0-5.11.09-8.06,0.09l-9.25-.09-25.18-.26V37.75Z"/><path d="M447.45,40.63s3.49-.12,8.72-0.21l8.94-.11,10.24,0,10.24,0,8.94,0.11c5.23,0.09,8.72.21,8.72,0.21s-3.49.12-8.72,0.21L485.6,41l-10.24,0-10.24,0-8.94-.11C450.94,40.75,447.45,40.63,447.45,40.63Z"/><path d="M340.73,46.54s4.76,0.54,9.5,1.16l3.49,0.43c1.11,0.17,2.14.37,3,.55,1.76,0.37,2.92.7,2.92,0.7v0.07s-1.21,0-3-.18c-0.89-.09-1.94-0.2-3-0.36l-3.46-.61c-4.72-.8-9.43-1.67-9.43-1.67V46.54Z"/><path d="M407.46,66.05s-0.66,1.65-1.73,4.09c-0.55,1.21-1.16,2.64-1.86,4.14L401.65,79l-2.3,4.67c-0.73,1.49-1.47,2.86-2.07,4-1.23,2.36-2.11,3.9-2.11,3.9s0.66-1.65,1.73-4.09c0.55-1.21,1.16-2.64,1.86-4.14L401,78.67l2.3-4.67c0.73-1.49,1.47-2.86,2.07-4C406.58,67.6,407.46,66.05,407.46,66.05Z"/><path d="M409.73,66.12s-0.64,1.93-1.68,4.79c-0.53,1.43-1.12,3.1-1.81,4.88l-2.15,5.56-2.24,5.52c-0.71,1.76-1.43,3.39-2,4.79-1.21,2.8-2.07,4.64-2.07,4.64s0.64-1.93,1.67-4.79c0.53-1.43,1.12-3.1,1.81-4.88l2.15-5.56,2.24-5.52c0.71-1.76,1.43-3.39,2-4.79C408.87,68,409.73,66.12,409.73,66.12Z"/><path d="M412.76,65.92s-0.39,1.43-1.06,3.55c-0.35,1.05-.73,2.29-1.17,3.6s-0.94,2.7-1.43,4.1-1,2.77-1.52,4.07-1,2.49-1.4,3.52c-0.84,2.05-1.45,3.4-1.45,3.4s0.39-1.43,1.06-3.55c0.35-1.05.72-2.29,1.17-3.6s0.94-2.7,1.43-4.1,1-2.77,1.52-4.07,1-2.49,1.4-3.52C412.14,67.27,412.76,65.92,412.76,65.92Z"/><path d="M415.22,66.26s0,0.64-.18,1.57-0.39,2.17-.69,3.39-0.68,2.42-1,3.31S412.76,76,412.76,76s0-.64.18-1.57,0.39-2.17.69-3.39,0.68-2.42,1-3.31S415.22,66.26,415.22,66.26Z"/><path d="M417.46,67.24s-0.18,1.14-.53,2.83c-0.19.84-.38,1.83-0.64,2.88s-0.53,2.16-.82,3.28-0.6,2.22-.91,3.25-0.62,2-.87,2.82c-0.53,1.64-.94,2.73-0.94,2.73s0.18-1.14.53-2.83c0.19-.84.38-1.83,0.64-2.88s0.53-2.16.82-3.28,0.6-2.22.91-3.25,0.62-2,.87-2.82C417,68.32,417.46,67.24,417.46,67.24Z"/><path d="M420.49,67.24s-0.08.75-.27,1.87-0.51,2.58-.89,4-0.82,2.88-1.2,3.95-0.68,1.76-.68,1.76,0.08-.75.27-1.87,0.51-2.58.89-4,0.82-2.88,1.2-3.95S420.49,67.24,420.49,67.24Z"/><path d="M423.37,66.48a8.1,8.1,0,0,1,0,.94,12.71,12.71,0,0,1-.9,3.92,8,8,0,0,1-.41.84,8,8,0,0,1,0-.94,12.71,12.71,0,0,1,.9-3.92A8.1,8.1,0,0,1,423.37,66.48Z"/><path d="M424.89,66.48s-0.06,1.12-.23,2.79c-0.1.83-.19,1.8-0.34,2.84s-0.31,2.14-.47,3.24-0.37,2.2-.56,3.23-0.41,2-.57,2.8c-0.35,1.64-.65,2.72-0.65,2.72s0.06-1.12.23-2.79c0.1-.83.19-1.8,0.34-2.84s0.31-2.14.48-3.24,0.37-2.2.56-3.23,0.41-2,.57-2.8C424.59,67.57,424.89,66.48,424.89,66.48Z"/><path d="M427.51,66.6s-0.09,1.05-.32,2.61c-0.13.78-.25,1.69-0.43,2.66s-0.37,2-.58,3-0.44,2.05-.67,3-0.47,1.85-.66,2.61c-0.41,1.52-.74,2.53-0.74,2.53s0.09-1.05.32-2.61c0.13-.78.25-1.69,0.43-2.66s0.37-2,.58-3,0.44-2.05.67-3,0.47-1.85.66-2.61C427.18,67.6,427.51,66.6,427.51,66.6Z"/><path d="M429.94,66.66s-0.08.77-.27,1.9-0.52,2.62-.9,4.1-0.83,2.94-1.21,4-0.69,1.79-.69,1.79,0.08-.77.27-1.9,0.52-2.62.91-4.1,0.83-2.94,1.21-4S429.94,66.66,429.94,66.66Z"/><path d="M396.79,73s3.61-.12,9-0.21l9.26-.11,10.61,0,10.61,0.05,9.26,0.12c5.42,0.09,9,.21,9,0.21s-3.61.12-9,.21l-9.26.11-10.61,0-10.61-.05-9.26-.12C400.4,73.16,396.79,73,396.79,73Z"/><path d="M397.75,76.13s2.48-.12,6.21-0.21c1.86,0,4-.1,6.36-0.11l7.29,0,7.29,0c2.33,0,4.5.08,6.36,0.11,3.72,0.09,6.21.21,6.21,0.21s-2.48.12-6.21,0.21c-1.86,0-4,.1-6.36.11l-7.29,0-7.29,0c-2.33,0-4.5-.08-6.36-0.11C400.23,76.25,397.75,76.13,397.75,76.13Z"/><path d="M390.78,78.84s2.61-.12,6.54-0.21c2,0,4.25-.1,6.7-0.11l7.68,0,7.68,0c2.45,0,4.74.08,6.7,0.11,3.92,0.09,6.54.21,6.54,0.21S430,79,426.08,79c-2,0-4.25.1-6.7,0.11l-7.68,0-7.68,0c-2.45,0-4.74-.08-6.7-0.11C393.39,79,390.78,78.84,390.78,78.84Z"/><path d="M452.88,41s-0.06,2.39-.18,4.78c0,0.6,0,1.2-.07,1.75A14.75,14.75,0,0,1,452.4,49c-0.1.44-.18,0.81-0.27,1.06s-0.13.4-.13,0.4h-0.07s0-.15-0.06-0.42,0-.64-0.07-1.09a14.74,14.74,0,0,1,.05-1.53c0.06-.56.16-1.15,0.25-1.74,0.32-2.37.7-4.73,0.7-4.73h0.07Z"/><path d="M458,40.64s-0.6,3.08-1.26,6.15c-0.16.77-.3,1.54-0.47,2.26s-0.38,1.37-.57,1.93-0.37,1-.51,1.34-0.22.5-.22,0.5l-0.07,0s0-.2,0-0.55,0.1-.83.18-1.42,0.23-1.26.4-2,0.42-1.46.65-2.21c0.85-3,1.77-6,1.77-6Z"/><path d="M463.6,40.64s-1,3.85-2,7.68c-0.25,1-.48,1.92-0.73,2.82s-0.55,1.71-.8,2.41c-0.51,1.4-.94,2.3-0.94,2.3l-0.07,0s0.13-1,.44-2.45c0.17-.72.36-1.57,0.62-2.46s0.59-1.83.9-2.77c1.2-3.77,2.47-7.53,2.47-7.53Z"/><path d="M466.11,40.64s-0.85,5-1.77,10.06l-0.65,3.69c-0.24,1.17-.51,2.26-0.74,3.19-0.48,1.86-.89,3.08-0.89,3.08H462s0.1-1.28.38-3.18c0.15-.95.32-2.05,0.56-3.23l0.83-3.66c1.11-5,2.28-10,2.28-10h0.07Z"/><path d="M469.82,40.63s-0.76,5-1.6,10l-0.59,3.66c-0.22,1.16-.47,2.24-0.69,3.16-0.45,1.84-.84,3.06-0.84,3.06H466s0.08-1.27.32-3.15c0.13-.94.29-2,0.5-3.2l0.77-3.63c1-4.95,2.11-9.88,2.11-9.88h0.07Z"/><path d="M472.87,40.63s-0.6,4.8-1.27,9.59l-0.47,3.52c-0.18,1.12-.4,2.16-0.58,3-0.39,1.77-.73,2.94-0.73,2.94h-0.07s0-1.22.22-3c0.1-.9.22-2,0.4-3.07L471,50.13c0.86-4.76,1.78-9.51,1.78-9.51h0.07Z"/><path d="M476.58,41s-0.77,4.84-1.6,9.67l-0.59,3.55c-0.22,1.13-.47,2.17-0.69,3.06-0.45,1.78-.84,3-0.84,3H472.8s0.08-1.23.32-3.06c0.14-.91.29-2,0.5-3.1l0.77-3.52c1-4.79,2.11-9.57,2.11-9.57h0.07Z"/><path d="M161,15.83s-2.31,0-5.76,0c-1.73,0-3.75-.07-5.9-0.15l-6.76-.25L135.82,15c-2.16-.11-4.17-0.27-5.89-0.38-3.45-.24-5.75-0.47-5.75-0.47s2.31,0,5.76,0c1.73,0,3.75.06,5.9,0.15l6.76,0.25L149.37,15c2.16,0.11,4.17.27,5.89,0.38C158.71,15.61,161,15.83,161,15.83Z"/><path d="M159.81,18.18s-2.23,0-5.58,0c-1.67,0-3.62,0-5.71-.12L142,17.82l-6.54-.32c-2.09-.1-4-0.25-5.7-0.35-3.34-.23-5.56-0.44-5.56-0.44s2.23,0,5.58,0c1.67,0,3.62,0,5.71.12L142,17.08l6.54,0.32c2.09,0.1,4,.25,5.7.35C157.59,18,159.81,18.18,159.81,18.18Z"/><path d="M158.35,21S156.2,21,153,20.81c-1.6-.1-3.48-0.19-5.48-0.35L141.23,20,135,19.41c-2-.18-3.86-0.41-5.46-0.57-3.2-.36-5.32-0.66-5.32-0.66s2.15,0.06,5.36.24c1.6,0.1,3.48.19,5.48,0.35l6.28,0.48,6.27,0.58c2,0.18,3.86.41,5.46,0.57C156.22,20.75,158.35,21,158.35,21Z"/><path d="M137,22.28s0.15-.91.46-2.25,0.78-3.11,1.31-4.86,1.12-3.48,1.61-4.77,0.87-2.13.87-2.13-0.15.91-.46,2.25-0.78,3.11-1.31,4.86-1.13,3.48-1.61,4.77S137,22.28,137,22.28Z"/><path d="M139.14,24.28s0.15-.75.46-1.84,0.77-2.53,1.3-4,1.11-2.81,1.6-3.84,0.86-1.7.86-1.7-0.15.75-.46,1.85-0.77,2.53-1.3,3.95-1.11,2.81-1.6,3.84S139.14,24.28,139.14,24.28Z"/><path d="M142,24.28s0.25-.92.7-2.28c0.24-.67.5-1.46,0.81-2.3s0.66-1.72,1-2.6,0.73-1.75,1.1-2.56,0.73-1.56,1-2.21c0.62-1.28,1.09-2.12,1.09-2.12s-0.25.92-.7,2.28c-0.24.67-.49,1.46-0.81,2.3s-0.66,1.72-1,2.6-0.73,1.75-1.1,2.56-0.73,1.56-1,2.21C142.47,23.45,142,24.28,142,24.28Z"/><path d="M12.07,36.21s-0.18-1.54-.36-3.86c-0.08-1.16-.19-2.51-0.27-4s-0.15-3-.22-4.55-0.11-3.1-.13-4.55,0-2.81,0-4c0-2.33.06-3.88,0.06-3.88s0.18,1.54.36,3.86c0.08,1.16.19,2.51,0.27,4s0.15,3,.22,4.55,0.11,3.1.13,4.55,0,2.81,0,4C12.13,34.65,12.07,36.21,12.07,36.21Z"/><path d="M9.65,35.65s-0.18-1.49-.37-3.73C9.19,30.8,9.07,29.49,9,28.09s-0.16-2.9-.24-4.4-0.12-3-.15-4.4,0-2.72,0-3.84c0-2.25,0-3.75,0-3.75s0.19,1.49.37,3.73c0.08,1.12.2,2.43,0.29,3.83s0.16,2.9.24,4.4,0.12,3,.15,4.4,0,2.72,0,3.84C9.7,34.15,9.65,35.65,9.65,35.65Z"/><path d="M6.69,35s-0.09-1.45-.14-3.62c0-1.08,0-2.35,0-3.71s0-2.8,0-4.25,0.07-2.89.13-4.24,0.14-2.62.19-3.7c0.13-2.17.28-3.61,0.28-3.61s0.09,1.45.14,3.62c0,1.08.05,2.35,0,3.71s0,2.8,0,4.25-0.07,2.89-.13,4.24S7,30.28,7,31.36C6.84,33.53,6.69,35,6.69,35Z"/><path d="M4,20.85s0.9,0,2.24,0,3.13,0.14,4.9.31,3.55,0.41,4.87.63,2.2,0.43,2.2.43-0.9,0-2.24,0-3.13-.14-4.9-0.31S7.5,21.5,6.17,21.28,4,20.85,4,20.85Z"/><path d="M2.13,22.48s0.74,0,1.84,0,2.55,0.2,4,.4,2.88,0.47,4,.72,1.78,0.47,1.78.47-0.74,0-1.84,0-2.55-.2-4-0.4-2.88-.47-4-0.72S2.13,22.48,2.13,22.48Z"/><path d="M2.33,24.39s0.92,0,2.28.16,3.17,0.36,5,.66,3.59,0.66,4.92,1,2.21,0.58,2.21.58-0.92,0-2.28-.16-3.17-.36-5-0.66-3.59-.66-4.92-1S2.33,24.39,2.33,24.39Z"/></svg>