<svg id="Slip_lines_grain_Small_" data-name="Slip lines (grain Small)" xmlns="http://www.w3.org/2000/svg" viewBox="0 0 300 150"><defs><style>.cls-1{fill:#202020;}</style></defs><title>M_SlipLinesGrainSmall</title><path d="M42.49,50l15.76-3.4L64,45.4c1.85-.37,3.59-0.66,5.08-0.92,3-.49,5-0.73,5-0.73v0.07s-1.95.55-4.89,1.24c-1.47.33-3.19,0.73-5,1.1l-5.82,1.07L42.51,50.12V50Z"/><path d="M37,53.89l19.18-4.1,7-1.5c2.25-.45,4.37-0.82,6.18-1.14,3.63-.63,6.06-0.95,6.06-0.95v0.07s-2.37.64-6,1.46c-1.8.4-3.89,0.87-6.14,1.32l-7.08,1.32L37,54V53.89Z"/><path d="M42,58.23l22-4.86,8.1-1.78c2.59-.54,5-1,7.1-1.38,4.16-.77,7-1.18,7-1.18l0,0.07s-2.73.73-6.85,1.69c-2.06.47-4.47,1-7.06,1.57L64.19,54,42,58.3Z"/><path d="M43.61,61.48l18.17-4.21,6.67-1.54c2.14-.46,4.14-0.84,5.86-1.18,3.44-.65,5.75-1,5.75-1l0,0.07s-2.24.65-5.64,1.49c-1.7.41-3.68,0.89-5.82,1.36l-6.71,1.36-18.28,3.7Z"/><path d="M46.8,67.56L69.61,61,78,58.59c2.68-.74,5.2-1.38,7.35-1.93,4.32-1.09,7.22-1.72,7.22-1.72l0,0.07s-2.82.95-7.08,2.22c-2.13.63-4.62,1.37-7.3,2.11l-8.42,2.23L46.82,67.63Z"/><path d="M57.57,69s2.64-.83,6.62-2c2-.57,4.32-1.26,6.82-1.95l7.83-2.15,7.86-2.06c2.51-.66,4.86-1.22,6.88-1.72,4-1,6.73-1.59,6.73-1.59s-2.64.83-6.62,2c-2,.57-4.31,1.26-6.82,1.95L79,63.65,71.18,65.7c-2.51.66-4.86,1.22-6.88,1.72C60.27,68.41,57.57,69,57.57,69Z"/><path d="M59.06,76.86s2.29-.82,5.75-2c1.74-.56,3.75-1.25,5.93-1.93l6.82-2.13,6.85-2c2.18-.65,4.24-1.2,6-1.71,3.51-1,5.88-1.57,5.88-1.57s-2.29.82-5.75,2c-1.74.56-3.75,1.25-5.93,1.93l-6.82,2.13-6.85,2c-2.18.65-4.24,1.2-6,1.71C61.42,76.27,59.06,76.86,59.06,76.86Z"/><path d="M60.8,72.06l14.28-4.11,5.25-1.5C82,66,83.6,65.62,85,65.3c2.72-.63,4.55-1,4.55-1l0,0.07s-1.75.64-4.42,1.46c-1.34.4-2.89,0.87-4.57,1.33l-5.29,1.33-14.42,3.6Z"/><path d="M64.12,80.17s5.75-1.73,11.53-3.39l4.23-1.24c1.36-.37,2.64-0.66,3.74-0.92,2.2-.49,3.69-0.73,3.69-0.73l0,0.07s-1.41.55-3.56,1.23c-1.08.33-2.33,0.73-3.69,1.09L75.8,77.35C70,78.83,64.14,80.24,64.14,80.24Z"/><path d="M178.74,120.57s-0.76,1.05-2,2.54c-0.63.74-1.36,1.6-2.18,2.49l-2.64,2.72c-3.58,3.72-7.21,7.39-7.21,7.39l-0.06-.05s3.39-3.89,6.82-7.74l2.51-2.84c0.82-.89,1.63-1.68,2.32-2.36,1.39-1.35,2.38-2.19,2.38-2.19Z"/><path d="M180.94,122.14s-1,1.35-2.68,3.28c-0.83,1-1.8,2.08-2.88,3.25l-3.44,3.59L162.54,142l-0.06-.05,9-10.12,3.31-3.71c1.08-1.16,2.12-2.22,3-3.12,1.8-1.79,3.07-2.93,3.07-2.93Z"/><path d="M206.75,130.58v0Z"/><path d="M190.45,51.7l17.34,4.39,6.36,1.62c2,0.54,3.9,1.1,5.51,1.58,3.21,1,5.33,1.7,5.33,1.7L225,61s-2.2-.42-5.46-1.2c-1.63-.4-3.53-0.85-5.56-1.4l-6.32-1.79-17.2-4.89Z"/><path d="M183.31,52.59L204.39,58l7.74,2c2.46,0.66,4.75,1.33,6.71,1.89,3.92,1.15,6.5,2,6.5,2l0,0.07s-2.67-.55-6.63-1.51c-2-.49-4.29-1.05-6.76-1.71l-7.69-2.15-20.95-5.88Z"/><path d="M186.49,58.88l24.29,6,8.92,2.23c2.84,0.74,5.48,1.48,7.74,2.11,4.52,1.28,7.5,2.22,7.5,2.22l0,0.07s-3.07-.63-7.64-1.72c-2.28-.55-4.94-1.19-7.78-1.93l-8.87-2.4-24.16-6.56Z"/><path d="M186.71,62.57l20.11,4.8,7.38,1.77c2.35,0.59,4.53,1.2,6.4,1.71,3.73,1,6.2,1.83,6.2,1.83l0,0.07s-2.55-.47-6.33-1.33c-1.89-.44-4.09-0.94-6.44-1.53L206.68,68l-20-5.3Z"/><path d="M187.34,69.59l25.78,4.87,9.47,1.79c3,0.6,5.82,1.21,8.22,1.73,4.81,1.06,8,1.86,8,1.86v0.07s-3.25-.48-8.09-1.35c-2.42-.44-5.24-1-8.26-1.55L213,75l-25.68-5.38V69.59Z"/><path d="M197.57,76s3,0.5,7.53,1.34c2.25,0.43,4.89.91,7.7,1.47l8.81,1.76,8.79,1.86c2.81,0.59,5.41,1.2,7.66,1.69,4.48,1,7.45,1.75,7.45,1.75s-3-.5-7.53-1.34c-2.25-.43-4.89-0.9-7.7-1.47l-8.81-1.77-8.79-1.86c-2.81-.59-5.41-1.2-7.66-1.69C200.54,76.74,197.57,76,197.57,76Z"/><path d="M104.52,58.88L121,58.61l6.05-.09c1.93,0,3.74.05,5.28,0.09,3.09,0.1,5.15.26,5.15,0.26V59s-2.06.16-5.15,0.26c-1.55,0-3.35.09-5.28,0.09L121,59.21,104.52,59V58.88Z"/><path d="M108,65.18L128.11,64l7.39-.41c2.36-.1,4.56-0.14,6.45-0.18,3.78-.06,6.3,0,6.3,0v0.07s-2.51.27-6.28,0.53c-1.89.12-4.08,0.27-6.44,0.37l-7.39.23-20.14.6V65.18Z"/><path d="M110.83,72.06l20.06-.55,7.37-.2c2.35,0,4.55,0,6.43,0,3.76,0,6.27.17,6.27,0.17v0.07s-2.51.2-6.27,0.35c-1.88.07-4.07,0.15-6.42,0.19l-7.37,0-20.07,0V72.06Z"/><path d="M109.76,76.83L129,75.56l7.06-.46c2.26-.12,4.36-0.17,6.17-0.23,3.61-.09,6-0.05,6-0.05V74.9s-2.4.29-6,.57c-1.8.13-3.9,0.3-6.16,0.41l-7.07.28-19.26.74V76.83Z"/><path d="M110.83,82.58l18.7-1.1,6.87-.4c2.19-.1,4.24-0.14,6-0.18,3.51-.06,5.86,0,5.86,0V81s-2.33.27-5.83,0.52c-1.75.12-3.8,0.26-6,.36l-6.87.22-18.72.57V82.58Z"/><path d="M122.72,86.31s5-.4,10.05-0.72l3.69-.26c1.18-.05,2.28-0.05,3.23-0.06,1.89,0,3.16.12,3.16,0.12v0.07s-1.25.22-3.13,0.4c-0.94.08-2,.19-3.22,0.24l-3.7.08c-5,.13-10.07.2-10.07,0.2V86.31Z"/><path d="M50.23,72.92s-0.93,1.43-2.42,3.48c-0.76,1-1.63,2.22-2.62,3.46L42,83.71l-8.6,10.46-0.06,0,8.19-10.79,3-4c1-1.25,1.94-2.37,2.76-3.35,1.65-1.93,2.83-3.16,2.83-3.16Z"/><path d="M53.06,75.54S52.27,76.81,51,78.62c-0.65.9-1.4,2-2.26,3.05L46,85.05c-3.71,4.61-7.48,9.19-7.48,9.19l-0.06,0s3.5-4.78,7.06-9.51l2.6-3.49c0.85-1.1,1.69-2.09,2.4-2.94C52,76.57,53,75.5,53,75.5Z"/><path d="M55.92,77.26s-0.75,1.25-2,3c-0.63.89-1.36,1.93-2.18,3l-2.66,3.33c-3.6,4.55-7.25,9.05-7.25,9.05l-0.06,0s3.39-4.71,6.84-9.37l2.51-3.44c0.83-1.08,1.64-2.05,2.33-2.89,1.4-1.67,2.41-2.72,2.41-2.72Z"/><path d="M60.57,80.07s-0.64,1.23-1.72,3c-0.55.87-1.18,1.9-1.9,3l-2.34,3.29c-3.17,4.49-6.4,8.94-6.4,8.94l-0.06,0s3-4.64,6-9.24l2.19-3.39c0.72-1.06,1.44-2,2.06-2.86C59.61,81.07,60.51,80,60.51,80Z"/><path d="M63.54,83s-0.07.18-.22,0.49-0.37.73-.65,1.24-0.64,1.07-1,1.67-0.89,1.19-1.35,1.8C58.46,90.62,56.58,93,56.58,93l-0.06,0s1.6-2.61,3.26-5.19c0.41-.65.81-1.3,1.2-1.9s0.82-1.12,1.19-1.56,0.69-.81.93-1,0.38-.38.38-0.38Z"/><path d="M66.7,85.12s-0.05.16-.17,0.41-0.29.62-.51,1-0.52.89-.85,1.39-0.74,1-1.13,1.48c-1.52,2-3.09,4-3.09,4l-0.06,0s1.3-2.18,2.66-4.33c0.33-.54.66-1.09,1-1.59s0.68-.93,1-1.29,0.58-.66.79-0.85,0.33-.31.33-0.31Z"/><path d="M59.75,79.58s-0.86,1.08-2.25,2.61c-0.7.76-1.52,1.64-2.43,2.55l-2.92,2.78c-4,3.81-8,7.57-8,7.57L44.13,95s3.78-4,7.6-7.94l2.8-2.91c0.91-.91,1.8-1.72,2.56-2.42,1.53-1.38,2.62-2.24,2.62-2.24Z"/><path d="M215.73,14s3.46-.78,8.68-1.86l8.91-1.81,10.23-2L253.8,6.4l9-1.58c5.25-.9,8.76-1.45,8.76-1.45s-3.46.78-8.68,1.86L253.93,7,243.69,9l-10.25,1.89-9,1.58C219.24,13.41,215.73,14,215.73,14Z"/><path d="M220.84,16.56s2.5-.6,6.26-1.41c1.88-.39,4.08-0.88,6.44-1.35l7.39-1.46L248.35,11c2.37-.44,4.58-0.79,6.48-1.12,3.8-.63,6.34-1,6.34-1s-2.5.6-6.26,1.41c-1.88.39-4.08,0.88-6.44,1.34l-7.39,1.46-7.41,1.36c-2.37.44-4.58,0.79-6.48,1.12C223.38,16.2,220.84,16.56,220.84,16.56Z"/><path class="cls-1" d="M271.39,10.49c0.06,0,0-.07,0-0.08S271.4,10.51,271.39,10.49Z"/><polygon class="cls-1" points="270.42 10.84 270.44 10.81 270.3 10.91 270.42 10.84"/><path class="cls-1" d="M269.49,11A1.15,1.15,0,0,0,270,11l0,0,0.06-.11A3,3,0,0,1,269.49,11Z"/><path class="cls-1" d="M268.94,10.89s-0.1.06,0.12,0h0Z"/><path class="cls-1" d="M269,10.87c0.1,0-.07,0,0,0h0Z"/><path class="cls-1" d="M268.59,11l0.12-.07s-0.15,0-.11,0C268.47,10.94,268.5,11,268.59,11Z"/><path class="cls-1" d="M268.48,11.1l0.06,0S268.51,11.06,268.48,11.1Z"/><path class="cls-1" d="M268.68,11l-0.14.06s0,0.05.06,0S268.62,11,268.68,11Z"/><path class="cls-1" d="M268.76,11c0.08,0,.17,0,0.05.07C269.06,11,269,10.94,268.76,11Z"/><path class="cls-1" d="M269.46,11.16h0.1l0.08-.06A0.61,0.61,0,0,0,269.46,11.16Z"/><path class="cls-1" d="M267.77,11.1a0.33,0.33,0,0,0,.07.08l0.09,0A0.26,0.26,0,0,1,267.77,11.1Z"/><path class="cls-1" d="M267.84,11.18l-0.13.07C267.83,11.23,267.85,11.21,267.84,11.18Z"/><polygon class="cls-1" points="268.48 11.23 268.7 11.09 268.44 11.24 268.48 11.23"/><polygon class="cls-1" points="267.22 11.21 267.29 11.13 267.16 11.25 267.22 11.21"/><path class="cls-1" d="M266.86,11.29c0.05-.06-0.1-0.06,0-0.1a0.77,0.77,0,0,0-.24.14A0.49,0.49,0,0,1,266.86,11.29Z"/><path class="cls-1" d="M266.46,11.4l0.12-.08Z"/><path class="cls-1" d="M267.46,11.29a0.16,0.16,0,0,0-.13,0l0.07,0.06h0.06Z"/><path class="cls-1" d="M267.4,11.3h0l-0.12,0Z"/><path class="cls-1" d="M267.47,11.29h0Z"/><path class="cls-1" d="M268.09,11.24c-0.08.05-.24,0.13-0.06,0.15S268,11.33,268.09,11.24Z"/><path class="cls-1" d="M267.56,11.36l0.16,0s0,0,0-.06Z"/><polygon class="cls-1" points="267.49 11.39 267.56 11.36 267.5 11.36 267.49 11.39"/><path class="cls-1" d="M266.73,11.41a0.63,0.63,0,0,1-.21.08l0.27,0S266.82,11.39,266.73,11.41Z"/><path class="cls-1" d="M267.06,11.36h0S267.06,11.38,267.06,11.36Z"/><path class="cls-1" d="M265.72,11.66h0Z"/><path class="cls-1" d="M266.8,11.47a0.19,0.19,0,0,0,.14-0.05l-0.15,0S266.78,11.48,266.8,11.47Z"/><path class="cls-1" d="M266.24,11.48h0.12A0.16,0.16,0,0,0,266.24,11.48Z"/><path class="cls-1" d="M267,11.36h0S267,11.35,267,11.36Z"/><path class="cls-1" d="M267,11.36l-0.08.06,0.1,0h0Z"/><path class="cls-1" d="M265.57,12.14a0.27,0.27,0,0,1,.32-0.12c0.14-.08,0-0.26-0.15-0.35,0,0,0,.05-0.14.12,0.06,0,.35,0,0.23.09a0.28,0.28,0,0,1-.27,0c0.1,0.06-.23.17-0.16,0.27l0.17-.08S265.51,12.13,265.57,12.14Z"/><path class="cls-1" d="M266,11.61l0.06,0a0.66,0.66,0,0,1-.23,0,0.17,0.17,0,0,0-.12.1L266,11.6h0Z"/><path class="cls-1" d="M266.36,11.54c0,0.08-.18.14-0.07,0.19a0.44,0.44,0,0,0,.22-0.13c-0.29.08,0.08-.06-0.14-0.05l0.15-.05h-0.15s0,0,0,0h0v0c-0.09,0,0,0,0,0h0l-0.29.1Z"/><path class="cls-1" d="M267.9,11.58h0S267.87,11.58,267.9,11.58Z"/><path class="cls-1" d="M267.78,11.56a0.15,0.15,0,0,1,.1-0.05c0.06,0,0,0,0,.05s0.14-.08,0-0.09h0a0.5,0.5,0,0,1-.27-0.07A0.48,0.48,0,0,0,267.78,11.56Z"/><path class="cls-1" d="M267.06,11.57l-0.24.08,0.14,0v0C267.09,11.64,267.05,11.6,267.06,11.57Z"/><polygon class="cls-1" points="265.69 11.63 265.7 11.55 265.58 11.68 265.69 11.63"/><polygon class="cls-1" points="265.37 11.7 265.37 11.64 265.29 11.69 265.37 11.7"/><path class="cls-1" d="M247.6,16.13l-0.07,0Z"/><path class="cls-1" d="M248.12,16v0S248.09,16,248.12,16Z"/><path class="cls-1" d="M257.57,13.3c-0.12,0-.25-0.1-0.22,0l0,0.06A0.38,0.38,0,0,1,257.57,13.3Z"/><path class="cls-1" d="M252.3,14.8h0l0.06-.08Z"/><path class="cls-1" d="M252.29,15.09l-0.15,0Z"/><path class="cls-1" d="M244.77,16.78l-0.07.09C244.83,16.84,244.77,16.82,244.77,16.78Z"/><path class="cls-1" d="M262.12,12.39a1,1,0,0,0-.23,0C262,12.41,262.1,12.45,262.12,12.39Z"/><path class="cls-1" d="M247.65,15.36s-0.06,0-.05.05S247.66,15.38,247.65,15.36Z"/><path class="cls-1" d="M261.63,12.45h0.05a0.92,0.92,0,0,1,.21-0.06A0.32,0.32,0,0,0,261.63,12.45Z"/><path class="cls-1" d="M234.45,18.82h0Z"/><path class="cls-1" d="M231.31,18.74l0.12,0Z"/><path class="cls-1" d="M264.08,11.93c0.07,0,0,0,0,0h0Z"/><path class="cls-1" d="M264.47,12.14a0,0,0,0,0,0,0A0.06,0.06,0,0,1,264.47,12.14Z"/><path class="cls-1" d="M261,13h0S261.05,13,261,13Z"/><path class="cls-1" d="M264.19,11.94h0Z"/><path class="cls-1" d="M264.17,11.91h0.06S264.23,11.89,264.17,11.91Z"/><path class="cls-1" d="M264,12l0.11,0h0Z"/><path class="cls-1" d="M239.94,17.52h0C239.86,17.55,239.89,17.54,239.94,17.52Z"/><polygon class="cls-1" points="255.96 14.37 255.96 14.36 255.95 14.36 255.96 14.37"/><path class="cls-1" d="M255.73,14.47a0.23,0.23,0,0,1,.23-0.11l-0.12-.18Z"/><path class="cls-1" d="M246.35,16.4l0.18,0c-0.18.14-.34,0.14-0.16,0.19,0-.22.66-0.16,0.64-0.38l0.12,0-0.07,0a1.36,1.36,0,0,0,.42-0.21c0.1,0,.18,0,0.11.05l0.21-.1c0.06,0,.06,0,0,0l0.33-.08h0a1.5,1.5,0,0,1,.19-0.15c0.09,0,0,0,0,.05l0.17-.09c0.09,0-.06.13-0.18,0.14,0.22,0.18.14-.08,0.54,0l-0.17.06a1.06,1.06,0,0,0,.48.06c-0.05,0-.43-0.11-0.24-0.21a0.35,0.35,0,0,0,.23-0.07c0,0.08.12,0,.25,0v0.1a0.48,0.48,0,0,0,.19-0.17,0.24,0.24,0,0,1,.26.11c0.26,0-.2-0.09.1-0.17a1.38,1.38,0,0,0,.6-0.19c0.16,0,0,.07,0,0.09l0.11-.11s0,0,0,0a0.43,0.43,0,0,1,.16-0.17,4.16,4.16,0,0,0,.58-0.08c0.06,0,0,.07,0,0.1a2.11,2.11,0,0,0,.46-0.27l0.22,0c-0.17,0,0-.17.16-0.28l-0.15-.06,0.26-.11s0,0.05,0,.1l0,0c0.1,0,.07.09,0,0.16l-0.11,0a0.25,0.25,0,0,0-.08.21l0.08,0s0,0,0,0a0.13,0.13,0,0,0,.07-0.05l0.08,0.1v0h0.37a2.6,2.6,0,0,1,.81-0.51c-0.08.1,0,.14,0,0.24a1.17,1.17,0,0,0-.52.13c0.11,0,.1,0,0.07.06l0.35-.17c0,0.08.09,0,.2,0.06-0.11-.14.26-0.16,0.4-0.24s0,0.11-.19.14a4.11,4.11,0,0,0,.45-0.18,0.09,0.09,0,0,0-.08,0c0.1-.07.36-0.08,0.31,0h0a1.68,1.68,0,0,0,.93-0.33,0.77,0.77,0,0,1,0,.2l0.44-.56c0,0.12.21,0.36,0,.48a0.57,0.57,0,0,0,.31-0.07c-0.05,0-.16-0.14-0.09-0.17a1.47,1.47,0,0,0,.39.11c-0.08,0,0-.21.08-0.22a0.55,0.55,0,0,1,0,.2l0.25-.24c-0.07,0,0,.15.09,0.19a1.54,1.54,0,0,1,.32-0.08l-0.13,0c0.33,0,.27-0.31.59-0.37,0,0,0,.25.12,0.23a1.45,1.45,0,0,1,.51-0.63l0.07,0,0.21-.1a4.4,4.4,0,0,1-.62.68,0.29,0.29,0,0,0,.23,0c0.07,0-.08.09-0.14,0.11l0.43-.05a2.74,2.74,0,0,1,.27-0.26l-0.44.2a0.55,0.55,0,0,1,.51-0.4c0.08,0,0,.2,0,0.23a0.57,0.57,0,0,1,.3-0.11l-0.12.08a1.2,1.2,0,0,1,.46-0.14,0.37,0.37,0,0,0,.23,0,0.68,0.68,0,0,1-.18-0.57,2.73,2.73,0,0,1,.48.09,1.74,1.74,0,0,1,0,.32,0.18,0.18,0,0,1,.08-0.1c0.08,0,0,.1.14,0.05,0-.11.32-0.06,0.06-0.11a1.65,1.65,0,0,1,.35-0.05c-0.07-.06.11-0.27,0.26-0.33A0.1,0.1,0,0,0,261,13c0.32-.05.5,0,0.79-0.1,0,0,.18,0,0.13.08a0.36,0.36,0,0,1,.16-0.09c0.19,0.06-.2.06,0,0.14a0.81,0.81,0,0,1,.34-0.2,0.49,0.49,0,0,0-.42.11,0.61,0.61,0,0,1,.47-0.44c0.24-.08.12,0.06,0.16,0a3.59,3.59,0,0,1,.75-0.29c0.17,0.05,0,.17.09,0.22a1.86,1.86,0,0,1-.45,0h0.17a0.48,0.48,0,0,1-.26.08c0.14,0.05.78-.14,1.15-0.15,0.06,0,.16-0.09.1-0.12l-0.11,0c-0.12,0,.19-0.14,0-0.14a1,1,0,0,1,.51-0.19l0.06,0.09a0.22,0.22,0,0,0-.2,0,0.74,0.74,0,0,0,.42-0.08l-0.16,0a1.18,1.18,0,0,1,.5-0.23,1.41,1.41,0,0,0-.2-0.06c0.14,0.12-.48.09-0.27,0.2a2.06,2.06,0,0,0-.45-0.08s0.08,0-.09.06l0,0h0l0.09,0a1.75,1.75,0,0,1-.39.19c-0.1,0,0,0,0-.07l-0.12.08c0-.07-0.27-0.07-0.06-0.15l-0.2,0a0.72,0.72,0,0,0-.38.05c-0.1,0-.22.13-0.15,0.05l-0.3.11v0a2.79,2.79,0,0,1-1,.19,1.19,1.19,0,0,1-.38.1l0-.05a1.62,1.62,0,0,0-.46.1,1.87,1.87,0,0,0-.89.11v0.08a2.78,2.78,0,0,0-.5.16l0,0.07a3.86,3.86,0,0,1-.72.1,0.15,0.15,0,0,1,.14,0,7.53,7.53,0,0,0-1,.2,0.25,0.25,0,0,1-.18,0h0l-0.11,0,0.09,0-0.22.07-0.05-.07h0c-0.09,0-.06,0,0,0.1l-0.1.07c-0.09-.11-0.21.09-0.33,0a1.24,1.24,0,0,0-.43.28s0,0,0,0a0.48,0.48,0,0,0-.27.06l-0.06-.09-0.18.17c-0.14,0-.2-0.06-0.09-0.16-0.28.18-.23,0.09-0.46,0.26V13.9a0.59,0.59,0,0,1-.28.09c-0.23-.08-1,0.19-1.55.18,0.14,0.16-.26,0-0.25.11,0,0-.12,0,0-0.1a1.38,1.38,0,0,0-.57.17,0.34,0.34,0,0,1,0-.1,0.13,0.13,0,0,1-.11,0s0,0,.07-0.07a0.27,0.27,0,0,0-.26.33,0.25,0.25,0,0,0-.3.09c-0.06,0-.15-0.06,0-0.11a1.07,1.07,0,0,0-.58.16,0.23,0.23,0,0,0-.16,0,4.25,4.25,0,0,0-.44.08h0.06c-0.06.14-.17,0.06-0.33,0.11h0c-0.4,0-.16.08-0.56,0.05l0,0.07a1.14,1.14,0,0,1-.57.08l0.09,0a1.38,1.38,0,0,1-.51-0.15s0,0,.07,0c-0.34,0,0,.11-0.25.18-0.05,0,0-.15-0.13-0.13a2.14,2.14,0,0,1-.67.21c0.06,0,.11.06,0,0.12a1.12,1.12,0,0,0-.61.1l0,0a1.85,1.85,0,0,0-.47.23c-0.17-.24-0.78.29-0.82,0l-0.39.09v0a0.6,0.6,0,0,0-.41.19c-0.06,0,0,0,0,0a1,1,0,0,0-.7.23l0-.07a4.7,4.7,0,0,0-.91.15,0.06,0.06,0,0,1,0,0c-0.39.18-1,0-1.11,0.3l-0.26.13c0.35,0,0,.13.13,0.15-0.13,0-.37,0-0.21-0.06h0a1.12,1.12,0,0,0-.46-0.07c-0.69.15-1.37,0.2-2,.33l0.1,0.1-0.23,0c-0.06,0-.1-0.07.06-0.1a0.27,0.27,0,0,0-.26.14c-0.32,0,.1-0.16,0-0.14l-0.13,0h0a0.47,0.47,0,0,1-.29.15,0.2,0.2,0,0,1-.13-0.05s0,0-.07,0l-0.28,0,0.13,0.07c-0.12.07-.27,0-0.12,0.13a4.59,4.59,0,0,0-1.19.13,1.41,1.41,0,0,1-.55.17c0.06,0,.11.1-0.08,0.13,0-.23-0.36,0-0.54-0.14,0.15,0.07-.52.13-0.28,0.23-0.16,0,0-.08-0.15-0.1a10.35,10.35,0,0,1-1.27.23s0.08,0.06,0,.12L234.45,18c-0.09,0,0,.18-0.23.11,0,0,.07,0,0,0.07a21.45,21.45,0,0,1-2.75.41c0.13,0,.05.05,0,0.07,0.06,0,0,.07,0,0.1l-0.4,0c0,0.12-.4.09-0.42,0.2l0.12,0c-0.14.15,0.28,0.22,0.28,0.37a3.34,3.34,0,0,0,.76-0.15c0.07,0,0,.06,0,0.09a0.37,0.37,0,0,1,.32-0.12l0,0a9,9,0,0,1,1.21-.15l-0.05-.07a0.52,0.52,0,0,1,.2,0c0.11-.14-0.32.06-0.23-0.09,0.18,0.12.8-.16,0.93,0,0.17,0-.07-0.08.11-0.11l0.06,0,0-.07a0.18,0.18,0,0,1,.2.07l-0.1,0a1.94,1.94,0,0,0,.47-0.1h-0.17a14.87,14.87,0,0,0,1.49-.38l0,0a4.32,4.32,0,0,1,.66-0.13h0a0.66,0.66,0,0,1,.27-0.11c-0.09.06,0.2,0,.08,0.11a0.73,0.73,0,0,0,.4-0.28l0.07,0a0.43,0.43,0,0,1,.26-0.15c-0.15.08,0.14,0.06,0,.17a2.67,2.67,0,0,1,.79-0.1c0.15-.2-0.37,0-0.27-0.07-0.1,0,.13-0.15.26-0.16a1.45,1.45,0,0,0,.58.09l-0.06,0a2,2,0,0,1,.39-0.07c0.06-.11.19,0,0.19-0.16l-0.29.09a1.06,1.06,0,0,1,.58-0.23,0.5,0.5,0,0,1-.14.11c0.09,0,.15-0.06.24,0a1.59,1.59,0,0,1-.51.23c0.1,0,.32-0.16.26,0a1.76,1.76,0,0,1,.51-0.22v0.08a0.51,0.51,0,0,1,.16-0.08l-0.1.12a2.35,2.35,0,0,1,.52-0.08c-0.35.07-.1-0.07-0.26-0.1,0.42-.19.29,0.14,0.78,0-0.06,0-.26,0-0.16-0.05a0.84,0.84,0,0,1,.29,0c0.32-.08-0.07-0.07.06-0.14s0.15-.07.29-0.13l0,0.08c0.38,0,.07-0.18.41-0.19l-0.12.13,0.17-.06,0,0.09a0.74,0.74,0,0,1,.43-0.11c-0.05,0,0-.14.16-0.18s0,0.09.18,0a0.15,0.15,0,0,1-.2.08s0,0.06,0,.09a1,1,0,0,0,.39-0.07h-0.09l0.32-.17c0.06,0,0,0,0,.08a1.83,1.83,0,0,1,.21-0.09,0.18,0.18,0,0,1-.13.19L244,16.9s0.18,0,.14.07c0.19,0,.41-0.21.66-0.21a0.17,0.17,0,0,1,.08-0.05,1.61,1.61,0,0,0,.68-0.13l0.17,0.08c0.2-.07-0.23-0.1.1-0.21s0.11,0.08.2,0.09a0.69,0.69,0,0,1,.54-0.19A1.11,1.11,0,0,1,246.35,16.4Zm2.53-.57a0.21,0.21,0,0,1-.18.06C248.74,15.8,248.8,15.83,248.88,15.84Zm3.82-1a0.17,0.17,0,0,1-.16,0A0.35,0.35,0,0,1,252.71,14.87Zm10.65-2.72h0C263.24,12.14,263.28,12.14,263.36,12.14Zm0.23,0s0,0,0,0a0.18,0.18,0,0,1-.12,0A0.1,0.1,0,0,0,263.59,12.13Zm-24.48,5h0C239.07,17.2,239.09,17.18,239.11,17.15Z"/><path class="cls-1" d="M252.29,15.06a0.07,0.07,0,0,1,0,0S252.25,15.05,252.29,15.06Z"/><path class="cls-1" d="M244.78,16.77h0v0Z"/><path class="cls-1" d="M260.19,13.5l-0.1,0S260.12,13.51,260.19,13.5Z"/><path class="cls-1" d="M264.78,11.75l-0.14,0a0.27,0.27,0,0,1,.14,0S264.73,11.77,264.78,11.75Z"/><path class="cls-1" d="M266.14,12l0.06,0v0C266.1,11.93,266,12,266.14,12Z"/><path class="cls-1" d="M265,12c0,0.06.11,0,.21,0h0C265.17,11.88,265.06,11.93,265,12Z"/><path class="cls-1" d="M265.2,12l0.09,0S265.25,11.94,265.2,12Z"/><path class="cls-1" d="M263.87,12a0.28,0.28,0,0,0,0-.07C264,11.87,263.62,12.13,263.87,12Z"/><polygon class="cls-1" points="265.09 12.17 265.04 12.1 264.99 12.18 265.09 12.17"/><path class="cls-1" d="M264.27,12.28h0.17s0,0,0,0A0.45,0.45,0,0,0,264.27,12.28Z"/><path class="cls-1" d="M264.47,12.23a0.36,0.36,0,0,0,.13,0Z"/><polygon class="cls-1" points="264.87 12.24 264.82 12.24 264.7 12.26 264.87 12.24"/><path class="cls-1" d="M262.51,12.62l-0.17.06s0,0,.1,0S262.54,12.64,262.51,12.62Z"/><path class="cls-1" d="M263.09,12.73a0.17,0.17,0,0,1-.09,0v0.1Z"/><path class="cls-1" d="M262.58,12.86s-0.24.13,0,.08C262.57,12.91,262.74,12.85,262.58,12.86Z"/><polygon class="cls-1" points="259.86 13.28 259.91 13.27 259.87 13.11 259.86 13.28"/><path class="cls-1" d="M257.57,14.15c0.22,0,0-.11.23-0.1,0,0-.16,0-0.12-0.05C257.56,14.07,257.49,14.06,257.57,14.15Z"/><path class="cls-1" d="M257.68,14l0.06,0Z"/><polygon class="cls-1" points="230.8 18.76 230.65 18.75 230.75 18.79 230.8 18.76"/><path class="cls-1" d="M230.56,18.93l-0.05-.1-0.06.11A0.16,0.16,0,0,1,230.56,18.93Z"/><path class="cls-1" d="M249.3,16v0a0.15,0.15,0,0,0-.12,0Z"/><polygon class="cls-1" points="247.44 16.27 247.48 16.26 247.4 16.18 247.44 16.27"/><path class="cls-1" d="M245.92,16.7l0.2-.05C246,16.69,245.88,16.59,245.92,16.7Z"/><path d="M230.5,21.61s1.52-.43,3.82-1c1.15-.27,2.49-0.61,3.93-0.92l4.52-1,4.54-.88c1.45-.28,2.81-0.49,4-0.7,2.33-.39,3.9-0.58,3.9-0.58s-1.52.43-3.82,1c-1.15.27-2.49,0.61-3.93,0.92l-4.52,1-4.54.88c-1.45.28-2.81,0.49-4,.7C232.07,21.42,230.5,21.61,230.5,21.61Z"/><path d="M230.5,28.86s1.74-.47,4.38-1.08c1.32-.29,2.85-0.67,4.51-1l5.18-1.07,5.2-1c1.66-.31,3.22-0.55,4.55-0.78,2.67-.43,4.46-0.66,4.46-0.66s-1.74.47-4.38,1.08c-1.32.29-2.85,0.67-4.51,1l-5.18,1.07-5.2,1c-1.66.31-3.22,0.55-4.55,0.78C232.29,28.63,230.5,28.86,230.5,28.86Z"/><path d="M238.8,30.09s1.22-.37,3.08-0.83c0.93-.22,2-0.5,3.18-0.76s2.41-.52,3.66-0.78,2.5-.49,3.68-0.69,2.28-.37,3.22-0.53c1.89-.29,3.16-0.42,3.16-0.42s-1.22.37-3.08,0.83c-0.93.22-2,.5-3.18,0.76s-2.41.52-3.66,0.78-2.5.49-3.68,0.69-2.28.37-3.22,0.53C240.07,30,238.8,30.09,238.8,30.09Z"/><path d="M232,33.78s1.43-.35,3.59-0.79c1.08-.21,2.34-0.47,3.7-0.71s2.8-.48,4.25-0.72,2.9-.45,4.26-0.63,2.64-.33,3.73-0.47c2.19-.26,3.66-0.37,3.66-0.37s-1.43.35-3.59,0.79c-1.08.21-2.34,0.47-3.7,0.71s-2.8.48-4.25,0.72-2.9.45-4.26,0.63-2.64.33-3.73,0.47C233.47,33.67,232,33.78,232,33.78Z"/><path d="M269.17,121.38s3.18,0,6.35.09c0.79,0,1.59,0,2.33,0s1.43,0.11,2,.2,1.08,0.17,1.43.25l0.54,0.12v0.07l-0.55.06c-0.35,0-.85.06-1.44,0.09s-1.29,0-2,0-1.53-.14-2.32-0.22c-3.16-.27-6.32-0.61-6.32-0.61v-0.07Z"/><path d="M264.42,125s5.39,0.32,10.77.71l4,0.27c1.26,0.11,2.43.27,3.43,0.4,2,0.28,3.33.56,3.33,0.56V127s-1.36,0-3.38,0c-1-.05-2.19-0.1-3.45-0.22l-3.94-.45c-5.36-.58-10.72-1.23-10.72-1.23V125Z"/><path d="M261.17,129.11l15.5-.26,5.69-.09c1.82,0,3.51.05,5,.09,2.91,0.1,4.84.26,4.84,0.26v0.08s-1.94.16-4.84,0.26c-1.45,0-3.15.09-5,.09l-5.69-.09-15.5-.26v-0.08Z"/><path d="M261.17,132l13.85-.26,5.08-.09c1.62,0,3.14.05,4.44,0.09,2.6,0.1,4.33.26,4.33,0.26v0.07s-1.73.16-4.33,0.26c-1.3,0-2.81.09-4.44,0.09l-5.08-.09-13.85-.26V132Z"/><path d="M264.42,134.85s5.45-.17,10.89-0.26l4-.09c1.28,0,2.47.05,3.49,0.09,2,0.1,3.4.26,3.4,0.26v0.07s-1.36.16-3.4,0.26c-1,0-2.21.09-3.49,0.09l-4-.09c-5.45-.1-10.89-0.26-10.89-0.26v-0.07Z"/><path d="M264.42,137l13.08,1.64,4.8,0.61c1.53,0.22,2.95.48,4.16,0.7,2.43,0.46,4,.85,4,0.85v0.07s-1.65-.08-4.11-0.33c-1.23-.14-2.66-0.29-4.19-0.52l-4.78-.79-13-2.15V137Z"/><path d="M264.42,140.8s4.76,0.54,9.5,1.16l3.49,0.43c1.11,0.17,2.14.37,3,.55,1.76,0.37,2.92.7,2.92,0.7v0.07s-1.21,0-3-.18c-0.89-.09-1.94-0.2-3-0.36l-3.46-.61c-4.72-.8-9.43-1.67-9.43-1.67V140.8Z"/><path d="M185.36,119.37q0.09,2.86,0,5.71v0.11l-0.08.1c-2.55,3-5.35,5.81-8,8.71l-8.14,8.61-0.06-.05,7.81-8.9c2.64-2.94,5.15-6,7.92-8.8l-0.09.21q0.2-2.85.56-5.69h0.07Z"/><path d="M187.37,120.54c0.16,1.07.3,2.14,0.42,3.22s0.22,2.15.33,3.22v0.14l-0.1.12c-1.24,1.48-2.55,2.91-3.87,4.32l-3.94,4.25-7.9,8.49-0.06-.05,7.58-8.78,3.8-4.38c1.26-1.47,2.54-2.92,3.87-4.32l-0.09.26c0-1.08-.1-2.16-0.11-3.24s0-2.16,0-3.24h0.07Z"/><path d="M191.89,122.8c0.16,1.22.28,2.45,0.39,3.67s0.19,2.45.28,3.67v0.13l-0.09.12c-1.12,1.45-2.29,2.86-3.47,4.26l-3.51,4.23-7,8.45-0.06,0,6.71-8.71,3.36-4.35c1.11-1.45,2.24-2.9,3.4-4.32l-0.08.25c0-1.23-.05-2.46-0.06-3.69s0-2.46.05-3.69h0.07Z"/><path d="M195.27,126c0.22,1.09.39,2.19,0.52,3.29s0.25,2.2.3,3.31v0.16l-0.09.11c-2.67,3.09-5.3,6.22-8,9.29l-0.06,0c2.46-3.26,5-6.48,7.45-9.73l-0.08.27c-0.11-1.1-.15-2.21-0.18-3.32s0-2.22,0-3.33h0.07Z"/><path d="M190.48,122.12a22.73,22.73,0,0,1-.24,3.06c-0.14,1-.38,2-0.61,3l0,0.08,0,0c-1.4,1.8-2.8,3.6-4.22,5.38l-0.06,0c1.24-1.91,2.5-3.81,3.77-5.7l-0.05.13c0.14-1,.28-2,0.51-3a22.73,22.73,0,0,1,.88-2.94h0.07Z"/><path d="M204.32,134.14c-0.9.27-1.8,0.49-2.71,0.66s-1.82.35-2.74,0.45l0.24-.14c-2.22,2.55-4.41,5.13-6.65,7.67l-0.06,0c2-2.72,4.09-5.39,6.13-8.09l0.08-.11,0.16,0c0.91-.16,1.83-0.25,2.75-0.33s1.85-.12,2.78-0.12v0.07Z"/><path d="M206.75,135.71c-0.78.34-1.58,0.63-2.38,0.92s-1.6.55-2.42,0.78l0.2-.14c-0.65.9-1.36,1.75-2.06,2.62l-2.08,2.6-4.18,5.18-0.06,0,3.86-5.43,1.94-2.7c0.65-.9,1.27-1.82,2-2.69l0.08-.11,0.12,0c0.82-.22,1.65-0.39,2.47-0.59s1.66-.34,2.51-0.45Z"/><path d="M209.27,137.07a28.06,28.06,0,0,1-3.12,3.16l0.05-.05c-1,1.22-2.11,2.41-3.15,3.63l-3.17,3.61-0.06,0,2.87-3.85c1-1.27,1.92-2.56,2.89-3.83l0,0,0,0a28,28,0,0,1,3.58-2.62Z"/><path d="M262.32,80.17L279.5,74.4l6.31-2.11c2-.65,3.93-1.2,5.56-1.68,3.27-.94,5.47-1.48,5.47-1.48l0,0.07s-2.11.84-5.31,2c-1.61.55-3.48,1.21-5.5,1.86L279.68,75l-17.34,5.27Z"/><path d="M266.66,83.2s2-.75,5.05-1.79c1.53-.51,3.3-1.13,5.21-1.74l6-1.91,6-1.82c1.92-.58,3.73-1.07,5.28-1.52,3.1-.87,5.18-1.39,5.18-1.39s-2,.75-5.05,1.79c-1.53.51-3.3,1.13-5.21,1.74l-6,1.91-6,1.82c-1.92.58-3.73,1.07-5.28,1.52C268.74,82.68,266.66,83.2,266.66,83.2Z"/><path d="M268,91.05s2-.82,4.95-2c1.49-.56,3.23-1.25,5.1-1.92L283.88,85l5.91-2c1.89-.65,3.66-1.21,5.18-1.71,3-1,5.09-1.57,5.09-1.57s-2,.82-4.95,2c-1.49.56-3.23,1.25-5.1,1.92l-5.88,2.13-5.91,2c-1.89.65-3.66,1.21-5.18,1.71C270,90.46,268,91.05,268,91.05Z"/><path d="M269.45,86.25s6.14-2.09,12.3-4.11l4.52-1.5c1.45-.45,2.82-0.82,4-1.15,2.35-.63,3.95-1,3.95-1l0,0.07s-1.5.63-3.79,1.45c-1.15.4-2.49,0.87-3.94,1.32l-4.57,1.33c-6.22,1.84-12.46,3.61-12.46,3.61Z"/><path d="M272.31,94.36s5-1.73,9.92-3.39l3.65-1.24c1.17-.37,2.28-0.66,3.23-0.92,1.91-.49,3.2-0.73,3.2-0.73l0,0.07s-1.2.54-3,1.23c-0.93.33-2,.73-3.18,1.09l-3.7,1.07c-5,1.48-10.08,2.89-10.08,2.89Z"/><path d="M250,33.37s4.76,0.54,9.5,1.16L263,35c1.11,0.17,2.14.37,3,.55,1.76,0.37,2.92.7,2.92,0.7v0.07s-1.21,0-3-.18c-0.89-.09-1.94-0.2-3-0.36l-3.46-.61c-4.72-.8-9.43-1.67-9.43-1.67V33.37Z"/><path d="M161.26,15.66s-2.31,0-5.76,0c-1.73,0-3.75-.07-5.9-0.15l-6.76-.25-6.76-.35c-2.16-.11-4.17-0.27-5.89-0.38-3.45-.24-5.75-0.47-5.75-0.47s2.31,0,5.76,0c1.73,0,3.75.06,5.9,0.15l6.76,0.25,6.76,0.35c2.16,0.11,4.17.27,5.89,0.38C159,15.44,161.26,15.66,161.26,15.66Z"/><path d="M160.06,18s-2.23,0-5.58,0c-1.67,0-3.62,0-5.71-.12l-6.54-.22-6.54-.32c-2.09-.1-4-0.25-5.7-0.35-3.34-.23-5.56-0.44-5.56-0.44s2.23,0,5.58,0c1.67,0,3.62,0,5.71.12l6.54,0.22,6.54,0.32c2.09,0.1,4,.25,5.7.35C157.84,17.8,160.06,18,160.06,18Z"/><path d="M158.6,20.88s-2.15-.06-5.36-0.24c-1.6-.1-3.48-0.19-5.48-0.35l-6.28-.48-6.27-.58c-2-.18-3.86-0.41-5.46-0.57-3.2-.36-5.32-0.66-5.32-0.66s2.15,0.06,5.36.24c1.6,0.1,3.48.19,5.48,0.35l6.28,0.48,6.27,0.58c2,0.18,3.86.41,5.46,0.57C156.47,20.58,158.6,20.88,158.6,20.88Z"/><path d="M137.26,22.11s0.15-.91.46-2.25S138.5,16.75,139,15s1.12-3.48,1.61-4.77,0.87-2.13.87-2.13-0.15.91-.46,2.25-0.78,3.11-1.31,4.86-1.13,3.48-1.61,4.77S137.26,22.11,137.26,22.11Z"/><path d="M139.39,24.11s0.15-.75.46-1.84,0.77-2.53,1.3-4,1.11-2.81,1.6-3.84,0.86-1.7.86-1.7-0.15.75-.46,1.85-0.77,2.53-1.3,3.95-1.11,2.81-1.6,3.84S139.39,24.11,139.39,24.11Z"/><path d="M142.25,24.11s0.25-.92.7-2.28c0.24-.67.5-1.46,0.81-2.3s0.66-1.72,1-2.6,0.73-1.75,1.1-2.56,0.73-1.56,1-2.21c0.62-1.28,1.09-2.12,1.09-2.12s-0.25.92-.7,2.28c-0.24.67-.49,1.46-0.81,2.3s-0.66,1.72-1,2.6-0.73,1.75-1.1,2.56-0.73,1.56-1,2.21C142.72,23.28,142.25,24.11,142.25,24.11Z"/><path d="M68,150s-0.18-1.54-.36-3.86c-0.08-1.16-.19-2.51-0.27-4s-0.15-3-.22-4.55-0.11-3.1-.13-4.55,0-2.81,0-4c0-2.33.06-3.88,0.06-3.88s0.18,1.54.36,3.86c0.08,1.16.19,2.51,0.27,4s0.15,3,.22,4.55,0.11,3.1.13,4.55,0,2.81,0,4C68.08,148.49,68,150,68,150Z"/><path d="M65.61,149.48s-0.18-1.49-.37-3.73c-0.08-1.12-.2-2.43-0.29-3.83s-0.16-2.9-.24-4.4-0.12-3-.15-4.4,0-2.72,0-3.84c0-2.25,0-3.75,0-3.75s0.19,1.49.37,3.73c0.08,1.12.2,2.43,0.29,3.83s0.16,2.9.24,4.4,0.12,3,.15,4.4,0,2.72,0,3.84C65.66,148,65.61,149.48,65.61,149.48Z"/><path d="M62.65,148.8s-0.09-1.45-.14-3.62c0-1.08,0-2.35,0-3.71s0-2.8,0-4.25,0.07-2.89.13-4.24,0.14-2.62.19-3.7c0.13-2.17.28-3.61,0.28-3.61s0.09,1.45.14,3.62c0,1.08.05,2.35,0,3.71s0,2.8,0,4.25-0.07,2.89-.13,4.24-0.14,2.62-.19,3.7C62.8,147.36,62.65,148.8,62.65,148.8Z"/><path d="M59.93,134.68s0.9,0,2.24,0,3.13,0.14,4.9.31,3.55,0.41,4.87.63,2.2,0.43,2.2.43-0.9,0-2.24,0-3.13-.14-4.9-0.31-3.55-.41-4.87-0.63S59.93,134.68,59.93,134.68Z"/><path d="M58.09,136.31s0.74,0,1.84,0,2.55,0.2,4,.4,2.88,0.47,4,.72,1.78,0.47,1.78.47-0.74,0-1.84,0-2.55-.2-4-0.4-2.88-.47-4-0.72S58.09,136.31,58.09,136.31Z"/><path d="M58.29,138.22s0.92,0,2.28.16,3.17,0.36,5,.66,3.59,0.66,4.92,1,2.21,0.58,2.21.58-0.92,0-2.28-.16-3.17-.36-5-0.66-3.59-.66-4.92-1S58.29,138.22,58.29,138.22Z"/><path d="M145.56,111.14s0.36-.3.92-0.67a19.13,19.13,0,0,1,4.46-2.12c0.65-.2,1.11-0.29,1.11-0.29s-0.36.3-.92,0.68a19.13,19.13,0,0,1-4.46,2.12C146,111.05,145.56,111.14,145.56,111.14Z"/><path d="M139.21,109.75s0.69-.46,1.75-1.09,2.51-1.39,4-2.11,3-1.37,4.12-1.82S151,104,151,104s-0.69.46-1.75,1.09-2.51,1.39-4,2.11-3,1.37-4.12,1.82S139.21,109.75,139.21,109.75Z"/><path d="M138.15,108.38s0.43-.34,1.1-0.78a27,27,0,0,1,5.27-2.58c0.76-.26,1.29-0.39,1.29-0.39s-0.43.34-1.1,0.78a27,27,0,0,1-5.27,2.58C138.68,108.25,138.15,108.38,138.15,108.38Z"/><path d="M136.7,107.4a4.47,4.47,0,0,1,.48-0.49,6.51,6.51,0,0,1,2.55-1.32,4.41,4.41,0,0,1,.68-0.11,4.4,4.4,0,0,1-.48.49,6.51,6.51,0,0,1-2.55,1.32A4.47,4.47,0,0,1,136.7,107.4Z"/><path d="M136.17,106.71s0.63-.51,1.61-1.2,2.33-1.56,3.71-2.37,2.79-1.57,3.87-2.1,1.83-.83,1.83-0.83-0.63.51-1.61,1.2-2.33,1.56-3.71,2.37-2.79,1.57-3.87,2.09S136.17,106.71,136.17,106.71Z"/><path d="M135.31,105.47s0.6-.46,1.55-1.08,2.23-1.39,3.55-2.11,2.67-1.38,3.71-1.83,1.75-.71,1.75-0.71-0.6.46-1.55,1.08-2.23,1.39-3.55,2.11-2.67,1.38-3.71,1.83S135.31,105.47,135.31,105.47Z"/><path d="M149.79,116.57s-1.37-1.57-3.34-4c-1-1.21-2.14-2.6-3.35-4.13l-3.77-4.79-3.69-4.85c-1.18-1.54-2.24-3-3.17-4.27-1.84-2.51-3-4.23-3-4.23s1.37,1.57,3.34,4c1,1.21,2.15,2.6,3.35,4.13l3.77,4.79,3.69,4.85c1.18,1.55,2.24,3,3.17,4.27C148.61,114.85,149.79,116.57,149.79,116.57Z"/><path d="M151.21,114.77s-1-1.05-2.35-2.69c-0.68-.82-1.5-1.77-2.33-2.81s-1.72-2.16-2.6-3.28-1.74-2.26-2.53-3.34-1.52-2.09-2.15-3c-1.24-1.74-2-2.94-2-2.94s1,1.05,2.35,2.69c0.68,0.82,1.5,1.77,2.33,2.81s1.72,2.16,2.6,3.28,1.74,2.26,2.53,3.34,1.52,2.09,2.15,3C150.43,113.57,151.21,114.77,151.21,114.77Z"/><path d="M155.21,116.73s-1-1.11-2.47-2.84c-0.72-.87-1.57-1.87-2.45-3s-1.81-2.28-2.74-3.46-1.83-2.38-2.67-3.51-1.6-2.2-2.26-3.11c-1.31-1.83-2.13-3.1-2.13-3.1s1,1.11,2.47,2.84c0.72,0.87,1.57,1.87,2.45,3s1.81,2.28,2.74,3.46,1.83,2.38,2.67,3.51,1.6,2.2,2.26,3.11C154.38,115.47,155.21,116.73,155.21,116.73Z"/></svg>