<svg id="Slip_lines_Grain_Large" data-name="Slip lines (Grain Large" xmlns="http://www.w3.org/2000/svg" viewBox="0 0 650 100"><defs><style>.cls-1{fill:none;stroke:#000;stroke-miterlimit:10;}</style></defs><title>M_SlipLinesGrainLarge</title><path d="M465.13,67.48s-0.91,1.68-2.38,4.12c-0.75,1.22-1.61,2.64-2.59,4.13L457,80.35l-8.54,12.59-0.06,0L456.53,80l3-4.72c1-1.49,1.93-2.86,2.74-4,1.64-2.33,2.82-3.84,2.82-3.84Z"/><path d="M468.71,69.22s-1.12,2-2.92,5c-0.91,1.47-2,3.18-3.14,5l-3.76,5.61L448.64,100l-0.06,0,9.82-15.54,3.61-5.7c1.18-1.8,2.32-3.46,3.29-4.88,2-2.83,3.35-4.67,3.35-4.67Z"/><path d="M508.33,75.09l0,0.21,0,0.16,0-.16,0-.21,0-.21,0-.16,0,0.16Z"/><path d="M474.45,64.1c0.24,1.38.49,2.76,0.7,4.15s0.42,2.77.62,4.16l0,0.11-0.07.11c-1.41,2.33-2.89,4.62-4.4,6.89l-4.5,6.83-9,13.65-0.06,0,8.64-13.89,4.32-6.94c1.44-2.32,2.89-4.62,4.42-6.88l-0.05.22c-0.14-1.39-.29-2.79-0.4-4.19s-0.22-2.8-.32-4.2h0.07Z"/><path d="M477.67,65.31c0.46,1.52.91,3.05,1.33,4.59s0.81,3.08,1.22,4.61l0,0.14-0.08.14c-1.3,2.14-2.65,4.24-4,6.33l-4.07,6.3L463.91,100l-0.06,0,7.81-12.81,3.92-6.4c1.3-2.14,2.61-4.27,4-6.37l0,0.28c-0.33-1.56-.69-3.11-1-4.67s-0.62-3.12-.9-4.69Z"/><path d="M484.79,67.48c0.5,1.74,1,3.49,1.41,5.25s0.87,3.52,1.25,5.28l0,0.14-0.07.13c-1,1.83-2.06,3.63-3.1,5.44l-3.11,5.44L475,100l-0.07,0,5.9-11,3-5.51c1-1.84,2-3.69,3-5.51l0,0.27c-0.39-1.77-.72-3.55-1.07-5.32s-0.64-3.57-.91-5.36Z"/><path d="M490.5,71.33q0.79,2.33,1.44,4.69c0.44,1.57.87,3.15,1.23,4.74l0,0.15-0.07.12L484,96.6l-0.07,0,8.56-15.9,0,0.28c-0.42-1.58-.77-3.17-1.11-4.77s-0.65-3.2-.9-4.82Z"/><path d="M482.57,66.83c0.17,1.5.21,3,.25,4.5s-0.05,3-.12,4.49V75.9l0,0.06c-1.55,3-3.1,6-4.68,8.92l-0.07,0c1.37-3.07,2.78-6.12,4.18-9.16l0,0.13c0-1.5-.05-3,0-4.5s0.18-3,.4-4.49h0.08Z"/><path d="M505.67,80.85q-1.88.82-3.81,1.51c-1.28.47-2.57,0.92-3.87,1.31l0.21-.17-7.63,12.87-0.07,0,7-13.2,0.07-.12,0.15-.05c1.29-.45,2.6-0.82,3.91-1.19s2.64-.7,4-1Z"/><path d="M495.35,100c0.5-1.25,1-2.49,1.62-3.7s1.15-2.43,1.79-3.61l3.86-7.07,0-.07,0.06,0,6.85-3,0,0.07-6.69,3.37,0.1-.1L499.43,93c-0.6,1.2-1.26,2.37-1.92,3.54s-1.36,2.32-2.1,3.45Z"/><path d="M503.15,100c0.4-1,.85-2,1.32-2.91s1-1.9,1.49-2.82l3.25-5.48v0l0,0,4.29-4.9,0.06,0-4,5.16,0,0-3,5.63c-0.51.93-1.06,1.84-1.63,2.74s-1.16,1.79-1.79,2.65Z"/><path d="M88.79,46.7l28.37-8.1c3.55-1,7.09-2,10.43-3,1.67-.45,3.27-0.92,4.81-1.31l4.32-1.13c5.36-1.38,9-2.2,9-2.2l0,0.07s-3.51,1.14-8.82,2.7L132.59,35c-1.52.45-3.14,0.87-4.8,1.34-3.33.93-6.9,1.86-10.46,2.81L88.81,46.78Z"/><path d="M97.54,50.79s3.4-1,8.53-2.5l8.76-2.47,10.07-2.75L135,40.42l8.82-2.25c5.17-1.29,8.63-2.1,8.63-2.1s-3.4,1-8.53,2.5L135.16,41l-10.07,2.75L115,46.45l-8.82,2.25C101,50,97.54,50.79,97.54,50.79Z"/><path d="M99.74,62.37s3.39-1.16,8.51-2.81L117,56.77l10.06-3.12,10.08-3L146,48.06c5.17-1.48,8.63-2.41,8.63-2.41s-3.39,1.16-8.51,2.81l-8.75,2.79-10.06,3.12-10.08,3L108.37,60C103.21,61.44,99.74,62.37,99.74,62.37Z"/><path d="M102.31,55.3l21.08-5.94,7.74-2.18c2.48-.67,4.81-1.24,6.8-1.73,4-1,6.68-1.53,6.68-1.53l0,0.07s-2.6.87-6.54,2c-2,.57-4.27,1.24-6.75,1.91l-7.79,2-21.22,5.43Z"/><path d="M107.19,67.25l17-4.88,6.25-1.79c2-.54,3.89-1,5.5-1.39,3.23-.77,5.41-1.19,5.41-1.19l0,0.07s-2.09.73-5.27,1.7c-1.59.47-3.45,1-5.45,1.57L124.37,63l-17.16,4.37Z"/><path d="M137.85,63.58l15.85,18.81,5.81,6.91c1.83,2.22,3.5,4.33,4.94,6.14,2.86,3.62,4.69,6.1,4.69,6.1l-0.06,0S167,99.31,164,95.82c-1.5-1.75-3.25-3.8-5.08-6l-5.67-7L137.79,63.62Z"/><path d="M162.55,100L146.71,82.85l-5.81-6.31c-1.83-2-3.51-4-4.94-5.62-2.86-3.32-4.7-5.59-4.7-5.59l0.06-.05s2.08,2.06,5.08,5.25c1.5,1.6,3.25,3.46,5.08,5.49l5.68,6.43L162.61,100Z"/><path d="M157.85,100L144.36,85.45l-5-5.35c-1.56-1.73-3-3.38-4.19-4.79-2.42-2.83-4-4.78-4-4.78l0.06-.05s1.78,1.73,4.35,4.43c1.28,1.36,2.77,2.93,4.33,4.66L144.8,85,157.91,100Z"/><path d="M153.75,100l-15-16.26-5.51-6c-1.74-1.93-3.32-3.76-4.68-5.33-2.71-3.15-4.44-5.31-4.44-5.31l0.06-.05s2,1.95,4.83,5c1.42,1.51,3.08,3.28,4.82,5.2l5.38,6.1L153.81,100Z"/><path d="M150.39,100L135.87,84.36l-5.33-5.76c-1.68-1.86-3.21-3.62-4.52-5.14-2.61-3-4.28-5.12-4.28-5.12l0.06-.05s1.91,1.87,4.67,4.78c1.37,1.46,3,3.16,4.66,5L136.32,84l14.13,16Z"/><path d="M144.12,100L129.67,84.69l-5.3-5.63c-1.67-1.82-3.19-3.55-4.5-5-2.6-3-4.26-5-4.26-5l0.06-.05s1.9,1.83,4.65,4.67c1.37,1.43,3,3.09,4.63,4.9l5.17,5.75L144.18,100Z"/><path d="M134.64,100L123,85.82l-4.28-5.22c-1.34-1.68-2.55-3.29-3.59-4.66-2.07-2.75-3.37-4.65-3.37-4.65l0.06,0s1.56,1.69,3.78,4.33c1.1,1.32,2.4,2.86,3.74,4.54l4.13,5.33L134.7,100Z"/><path d="M356.78,22.23l34.86,15.94c4.36,2,8.72,4,12.79,5.87,2,1,4,1.85,5.87,2.75l5.23,2.51c6.47,3.12,10.75,5.29,10.75,5.29l0,0.07s-4.41-1.87-11-4.82L410,47.44c-1.88-.84-3.84-1.78-5.88-2.72-4.08-1.88-8.4-4-12.73-6L356.75,22.3Z"/><path d="M359.73,15.71l33.39,15.18c4.17,1.9,8.36,3.78,12.25,5.6,1.95,0.91,3.84,1.76,5.62,2.62l5,2.39c6.2,3,10.29,5.05,10.29,5.05l0,0.07S422,44.84,415.75,42l-5.06-2.28c-1.8-.8-3.68-1.7-5.63-2.59-3.91-1.79-8-3.77-12.19-5.73L359.7,15.78Z"/><path d="M365.81,10.4L401,25.94c4.4,1.94,8.81,3.87,12.92,5.73,2.05,0.93,4.05,1.8,5.92,2.68l5.29,2.45C431.69,39.84,436,42,436,42L436,42s-4.45-1.82-11.08-4.69L419.57,35c-1.9-.82-3.88-1.73-5.94-2.65-4.12-1.84-8.48-3.86-12.86-5.86l-35-16Z"/><path d="M371.55,2L383,7.48l11.72,5.74,13.4,6.65,13.35,6.74,11.62,5.94,11.29,5.89-11.48-5.51L421.2,27.19l-13.4-6.65L394.45,13.8,382.84,7.86Z"/><path d="M256.82,17.82l28-.26c3.5,0,7-.09,10.29-0.07,1.64,0,3.23,0,4.74,0l4.24,0.06c5.26,0.1,8.76.26,8.76,0.26v0.08s-3.5.16-8.76,0.26l-4.24.06c-1.51,0-3.09,0-4.74,0-3.29,0-6.79,0-10.29-.07l-28-.26V17.82Z"/><path d="M255.36,21.88l3.1-.08,8.18-.2,11.57-.18,13.26-.13,13.26,0,11.57,0,8.18,0.1,3.1,0-3.1.08-8.18.2-11.57.18L291.48,22l-13.26,0-11.57,0-8.18-.1Z"/><path d="M255.12,26.26L299.51,26c5.55,0,11.1-.09,16.3-0.07h7.5L330,26c8.32,0.1,13.87.26,13.87,0.26v0.08s-5.55.16-13.87,0.26l-6.72.06h-7.5c-5.2,0-10.75,0-16.3-.07l-44.39-.26V26.26Z"/><path d="M253.72,31L268,30.84l14.67-.11,16.81,0,16.81,0L331,30.84,345.29,31,331,31.26l-14.67.11-16.81,0-16.81,0L268,31.26Z"/><path d="M361.39,3.87L374.51,9l4.82,1.9c1.53,0.63,2.93,1.27,4.14,1.82,2.4,1.11,4,1.93,4,1.93l0,0.07s-1.69-.53-4.17-1.45c-1.24-.47-2.68-1-4.21-1.65l-4.75-2.07L361.36,3.94Z"/><path d="M379.52,0.11l2.72,1.23,7.17,3.27L399.5,9.33,411,14.8l11.49,5.56,10,4.92c2.93,1.44,5.34,2.69,7,3.54l2.67,1.35-2.72-1.23c-1.73-.79-4.21-1.89-7.17-3.27l-10.09-4.71-11.53-5.47L399.22,9.91,389.23,5l-7-3.54Z"/><path d="M393,0s3.67,1.73,9.12,4.4L411.42,9l10.63,5.35,10.59,5.44,9.2,4.81c5.38,2.84,8.93,4.78,8.93,4.78s-3.67-1.73-9.13-4.4l-9.31-4.6L421.72,15,411.13,9.56l-9.2-4.81C396.55,1.92,393,0,393,0Z"/><path d="M409.15,1.31s1.6,0.69,4,1.8c1.17,0.57,2.56,1.21,4,1.94l4.57,2.3,4.52,2.38c1.45,0.76,2.77,1.52,3.91,2.14,2.28,1.28,3.77,2.18,3.77,2.18s-1.6-.69-4-1.8c-1.17-.57-2.56-1.2-4-1.94L421.36,8l-4.52-2.38c-1.44-.76-2.77-1.52-3.91-2.14C410.64,2.22,409.15,1.31,409.15,1.31Z"/><path d="M260.94,31.64l-0.48,13.73-0.18,5c-0.09,1.61-.22,3.11-0.33,4.39-0.24,2.57-.49,4.27-0.49,4.27h-0.07s-0.07-1.72,0-4.3c0-1.29.06-2.79,0.14-4.4l0.36-5,1-13.7h0.07Z"/><path d="M269.47,31.05l-2.28,15.41-0.84,5.66c-0.3,1.8-.63,3.47-0.91,4.91-0.58,2.87-1.05,4.76-1.05,4.76h-0.07s0.16-1.95.54-4.85c0.2-1.45.43-3.14,0.72-4.94l1-5.63L269.39,31h0.07Z"/><path d="M278.89,31.06l-3.46,16.64-1.28,6.11c-0.44,1.94-.89,3.74-1.28,5.29-0.8,3.09-1.42,5.12-1.42,5.12l-0.07,0s0.31-2.11.91-5.24c0.31-1.56.67-3.39,1.1-5.33l1.45-6.07,4-16.52Z"/><path d="M283.09,31.05L280,49l-1.15,6.61c-0.4,2.1-.82,4.06-1.18,5.73-0.73,3.35-1.31,5.56-1.31,5.56h-0.07s0.26-2.27.8-5.66c0.28-1.69.6-3.66,1-5.76l1.33-6.57L283,31h0.07Z"/><path d="M289.3,31.05l-2.85,19.46-1.05,7.14c-0.36,2.28-.76,4.39-1.09,6.21-0.68,3.63-1.23,6-1.23,6H283s0.23-2.45.71-6.11c0.25-1.83.54-4,.9-6.23l1.23-7.12L289.22,31h0.07Z"/><path d="M294.41,31.05l-2.29,20.57-0.85,7.55c-0.3,2.41-.63,4.65-0.91,6.57-0.58,3.84-1.06,6.39-1.06,6.39h-0.07s0.16-2.59.54-6.45c0.2-1.93.43-4.18,0.73-6.59l1-7.53L294.33,31h0.07Z"/><path d="M300.62,31.64l-2.85,21.24-1.05,7.8c-0.36,2.49-.76,4.8-1.09,6.78-0.68,4-1.23,6.59-1.23,6.59h-0.07s0.23-2.67.71-6.66c0.25-2,.54-4.32.9-6.81l1.23-7.77,3.37-21.17h0.07Z"/><path d="M39.5,49.89s-0.21-2.28-.43-5.7c-0.1-1.71-.24-3.71-0.34-5.84l-0.31-6.7-0.21-6.71c-0.07-2.14-.08-4.14-0.11-5.85,0-3.43,0-5.71,0-5.71s0.21,2.28.43,5.7c0.1,1.71.24,3.71,0.34,5.84l0.31,6.7,0.21,6.71c0.07,2.14.08,4.14,0.11,5.85C39.53,47.61,39.5,49.89,39.5,49.89Z"/><path d="M35.93,49.07s-0.22-2.2-.45-5.51c-0.1-1.65-.26-3.58-0.36-5.65l-0.33-6.48-0.23-6.49c-0.08-2.07-.09-4-0.13-5.66-0.05-3.31,0-5.53,0-5.53s0.22,2.2.45,5.51c0.1,1.65.26,3.58,0.36,5.65l0.33,6.48,0.23,6.49c0.08,2.07.09,4,.13,5.66C36,46.86,35.93,49.07,35.93,49.07Z"/><path d="M31.58,48.07s-0.08-2.13-.1-5.33c0-1.6,0-3.46,0-5.46L31.54,31l0.17-6.26c0.05-2,.16-3.86.22-5.46,0.15-3.19.32-5.32,0.32-5.32s0.08,2.13.11,5.33c0,1.6,0,3.46,0,5.46L32.29,31l-0.17,6.26c-0.05,2-.16,3.86-0.22,5.46C31.74,45.94,31.58,48.07,31.58,48.07Z"/><path d="M27.57,27.25s1.32,0,3.3.11c1,0.06,2.14.11,3.37,0.21s2.54,0.21,3.85.33,2.62,0.27,3.85.42,2.37,0.32,3.35.44c2,0.28,3.26.53,3.26,0.53s-1.32,0-3.3-.11c-1-.06-2.14-0.11-3.37-0.21s-2.54-.21-3.85-0.33-2.62-.27-3.84-0.42-2.37-.32-3.35-0.44C28.86,27.5,27.57,27.25,27.57,27.25Z"/><path d="M24.85,29.66s1.08,0,2.69.17c0.8,0.08,1.74.15,2.75,0.27s2.07,0.25,3.14.4,2.13,0.31,3.12.48,1.92,0.36,2.71.5c1.59,0.31,2.63.58,2.63,0.58s-1.08,0-2.69-.17c-0.8-.08-1.74-0.15-2.75-0.27s-2.07-.25-3.14-0.4-2.13-.31-3.12-0.49-1.92-.36-2.71-0.5C25.9,29.92,24.85,29.66,24.85,29.66Z"/><path d="M25.15,32.47s1.34,0.1,3.35.34c1,0.13,2.17.26,3.41,0.44s2.57,0.39,3.9.6,2.65,0.45,3.89.69,2.39,0.48,3.38.68c2,0.42,3.28.75,3.28,0.75S45,35.87,43,35.63c-1-.13-2.17-0.26-3.41-0.44s-2.57-.39-3.9-0.6S33,34.14,31.8,33.9s-2.39-.48-3.38-0.68C26.45,32.81,25.15,32.47,25.15,32.47Z"/><path d="M566.31,14.6l22,1.17,8.09,0.43c2.58,0.17,5,.38,7,0.55,4.12,0.37,6.86.71,6.86,0.71v0.07s-2.76,0-6.9-.19c-2.07-.09-4.48-0.2-7.06-0.37l-8.08-.62-22-1.69V14.6Z"/><path d="M567.38,20.62l29.13-.26c3.64,0,7.28-.09,10.69-0.07,1.71,0,3.36,0,4.92,0l4.41,0.06c5.46,0.1,9.1.26,9.1,0.26V20.7s-3.64.16-9.1,0.26l-4.41.06c-1.56,0-3.21,0-4.92,0-3.41,0-7.05,0-10.69-.07l-29.13-.26V20.62Z"/><path d="M567.38,24.45l24.54-.26,9-.09c2.88,0,5.56.05,7.86,0.09,4.6,0.1,7.67.26,7.67,0.26v0.08s-3.07.16-7.67,0.26c-2.3,0-5,.09-7.86.09l-9-.09-24.54-.26V24.45Z"/><path d="M568.13,29.07l22.31-.26,8.19-.09c2.61,0,5.05.05,7.15,0.09,4.18,0.1,7,.26,7,0.26v0.07s-2.79.16-7,.26c-2.09,0-4.53.09-7.15,0.09l-8.19-.09-22.31-.26V29.07Z"/><path d="M568.14,32.26l26.74,2.53,9.82,0.94c3.13,0.33,6,.69,8.55,1,5,0.62,8.32,1.13,8.32,1.13v0.07s-3.36-.19-8.38-0.61c-2.51-.22-5.44-0.48-8.57-0.8l-9.8-1.12-26.69-3.05V32.26Z"/><path d="M568.14,37.84l19.41,1.82,7.13,0.68c2.27,0.24,4.39.53,6.2,0.76,3.62,0.49,6,.91,6,0.91v0.07s-2.44-.1-6.09-0.39c-1.82-.16-3.95-0.33-6.22-0.58l-7.11-.86-19.36-2.35V37.84Z"/><path d="M568.94,42.55l19.41,1.82,7.13,0.68c2.27,0.24,4.39.53,6.2,0.76,3.62,0.49,6,.91,6,0.91V46.8s-2.44-.1-6.09-0.39c-1.82-.16-3.95-0.33-6.22-0.58L588.29,45l-19.36-2.35V42.55Z"/><path d="M568.94,37.84l19.41,1.82,7.13,0.68c2.27,0.24,4.39.53,6.2,0.76,3.62,0.49,6,.91,6,0.91v0.07s-2.44-.1-6.09-0.39c-1.82-.16-3.95-0.33-6.22-0.58l-7.11-.86-19.36-2.35V37.84Z"/><path d="M565.12,0l3.09,28.63c0.38,3.58.79,7.15,1.11,10.51,0.16,1.68.34,3.3,0.46,4.84l0.37,4.34c0.43,5.38.62,9,.62,9h-0.07s-0.52-3.57-1.14-8.93L569.06,44c-0.18-1.54-.32-3.16-0.49-4.84-0.34-3.36-.64-6.94-1-10.53L565,0h0.07Z"/><path d="M558.24,0.43l4.31,27.46c0.54,3.43,1.1,6.86,1.56,10.09,0.23,1.61.48,3.17,0.67,4.65l0.55,4.17c0.66,5.17,1,8.63,1,8.63h-0.07s-0.67-3.41-1.52-8.55l-0.68-4.15c-0.25-1.47-.45-3-0.7-4.64-0.49-3.22-.94-6.67-1.42-10.11L558.16,0.44h0.07Z"/><path d="M551.23,9.67l6.57,22.82,2.41,8.38c0.74,2.68,1.38,5.2,1.93,7.36,1.09,4.32,1.72,7.22,1.72,7.22l-0.07,0s-0.95-2.82-2.23-7.08c-0.63-2.14-1.37-4.63-2.11-7.31l-2.23-8.43-6.07-23Z"/><path d="M378.86,85.18a9.12,9.12,0,0,1,.79-0.61,14.43,14.43,0,0,1,3.87-1.84,9,9,0,0,1,1-.22,9,9,0,0,1-.79.61A14.43,14.43,0,0,1,379.83,85,9.11,9.11,0,0,1,378.86,85.18Z"/><path d="M373.35,84s0.59-.41,1.5-1,2.17-1.23,3.44-1.85,2.58-1.18,3.58-1.56,1.69-.58,1.69-0.58-0.59.42-1.5,1-2.17,1.23-3.44,1.85S376,83,375,83.39,373.35,84,373.35,84Z"/><path d="M370,80.26s0.52-.41,1.33-1,1.93-1.23,3.07-1.85,2.32-1.19,3.23-1.57,1.53-.59,1.53-0.59-0.52.41-1.33,1-1.93,1.23-3.07,1.85-2.32,1.19-3.23,1.57S370,80.26,370,80.26Z"/><path d="M382.53,89.89s-1.2-1.35-2.92-3.43c-0.85-1-1.87-2.25-2.92-3.58l-3.28-4.15-3.2-4.21c-1-1.34-1.93-2.63-2.74-3.72-1.58-2.19-2.59-3.69-2.59-3.69s1.2,1.35,2.93,3.43c0.85,1,1.87,2.25,2.92,3.58L374,78.27l3.2,4.21c1,1.34,1.93,2.63,2.74,3.72C381.52,88.39,382.53,89.89,382.53,89.89Z"/><path d="M383.77,88.33s-0.85-.9-2.06-2.32c-0.59-.71-1.31-1.53-2-2.43s-1.5-1.87-2.26-2.84-1.51-2-2.19-2.9-1.31-1.82-1.85-2.58c-1.07-1.52-1.73-2.57-1.73-2.57s0.85,0.9,2.06,2.31c0.59,0.71,1.31,1.53,2,2.43s1.5,1.87,2.26,2.84,1.51,2,2.19,2.9S381.49,85,382,85.75C383.1,87.28,383.77,88.33,383.77,88.33Z"/><rect class="cls-1" y="-0.03" width="649.97" height="100.03"/></svg>