<svg id="Slip_lines_Grain_Large" data-name="Slip lines (Grain Large" xmlns="http://www.w3.org/2000/svg" viewBox="0 0 500 50"><title>M_SlipLinesGrainLarge</title><path d="M89.51,46.33l28.37-8.1c3.55-1,7.09-2,10.43-3,1.67-.45,3.27-0.92,4.81-1.31l4.32-1.13c5.36-1.38,9-2.2,9-2.2l0,0.07s-3.51,1.14-8.82,2.7l-4.29,1.25c-1.52.45-3.14,0.87-4.8,1.34-3.33.93-6.9,1.86-10.46,2.81L89.53,46.4Z"/><path d="M98.26,50.41s3.4-1,8.53-2.5l8.76-2.47,10.07-2.75L135.71,40l8.82-2.25c5.17-1.29,8.63-2.1,8.63-2.1s-3.4,1-8.53,2.5l-8.76,2.47-10.07,2.75-10.09,2.65-8.82,2.25C101.72,49.61,98.26,50.41,98.26,50.41Z"/><path d="M139.51,50.09s1-.42,2.41-1c0.73-.26,1.58-0.58,2.5-0.88s1.9-.62,2.89-0.93,2-.59,2.91-0.84,1.81-.46,2.56-0.66c1.51-.36,2.53-0.55,2.53-0.55s-1,.42-2.41,1c-0.73.26-1.58,0.58-2.5,0.88s-1.9.62-2.89,0.93-2,.59-2.91.84-1.81.46-2.56,0.66C140.54,49.9,139.51,50.09,139.51,50.09Z"/><path d="M121.86,49.23s5.83-1.58,11.68-3.1L137.82,45c1.38-.33,2.67-0.59,3.78-0.82,2.22-.43,3.73-0.64,3.73-0.64l0,0.07s-1.43.51-3.61,1.14c-1.09.3-2.36,0.67-3.74,1l-4.33,1c-5.89,1.33-11.8,2.59-11.8,2.59Z"/><path d="M357.5,21.85l26.23,11.92c3.28,1.49,6.57,3,9.62,4.4,1.53,0.72,3,1.39,4.41,2.07l3.93,1.9c4.86,2.37,8.05,4,8.05,4l0,0.07s-3.33-1.37-8.27-3.56l-4-1.78c-1.42-.63-2.89-1.34-4.42-2-3.07-1.41-6.31-3-9.56-4.53l-26-12.4Z"/><path d="M360.45,15.34l33.39,15.18c4.17,1.9,8.36,3.78,12.25,5.6,1.95,0.91,3.84,1.76,5.62,2.62l5,2.39c6.2,3,10.29,5.05,10.29,5.05l0,0.07s-4.23-1.78-10.51-4.58l-5.06-2.28c-1.8-.8-3.68-1.7-5.63-2.59-3.91-1.79-8-3.77-12.19-5.73L360.42,15.4Z"/><path d="M366.53,10l35.21,15.54c4.4,1.94,8.81,3.87,12.92,5.73,2.05,0.93,4.05,1.8,5.92,2.68l5.29,2.45c6.54,3,10.86,5.17,10.86,5.17l0,0.07s-4.45-1.82-11.08-4.69l-5.34-2.33c-1.9-.82-3.88-1.73-5.94-2.65-4.12-1.84-8.48-3.86-12.86-5.86l-35-16Z"/><path d="M372.26,1.59l10.79,5.17,11,5.39,12.59,6.25,12.55,6.34,10.91,5.59,10.6,5.54L429.94,30.7l-11-5.39-12.59-6.25-12.55-6.34L382.87,7.13Z"/><path d="M254,17.44l29.78-.26c3.72,0,7.45-.09,10.94-0.07,1.75,0,3.43,0,5,0l4.51,0.06c5.58,0.1,9.31.26,9.31,0.26v0.08s-3.72.16-9.31,0.26l-4.51.06c-1.6,0-3.29,0-5,0-3.49,0-7.21,0-10.94-.07L254,17.51V17.44Z"/><path d="M253.3,21.5L265,21.22,277,21l13.77-.13,13.77,0,12,0,11.72,0.14-11.72.28-12,.18-13.77.13-13.77,0-12,0Z"/><path d="M252.51,25.89l46.06-.26c5.76,0,11.51-.09,16.91-0.07h7.78l7,0.06c8.64,0.1,14.39.26,14.39,0.26V26s-5.76.16-14.39,0.26l-7,.06h-7.78c-5.4,0-11.15,0-16.91-.07L252.51,26V25.89Z"/><path d="M251.4,30.67l14.78-.21,15.15-.11,17.37,0,17.37,0,15.15,0.11L346,30.67l-14.78.21L316.07,31,298.7,31l-17.37,0-15.15-.11Z"/><path d="M362.1,3.5l13.13,5.16,4.82,1.9c1.53,0.63,2.93,1.27,4.14,1.82,2.4,1.11,4,1.93,4,1.93l0,0.07s-1.69-.53-4.17-1.45c-1.24-.47-2.68-1-4.21-1.65L375,9.22,362.07,3.57Z"/><path d="M380.24-.27L383,1l7.17,3.27,10.09,4.71,11.53,5.47L423.24,20l10,4.92c2.93,1.44,5.34,2.69,7,3.54l2.67,1.35-2.72-1.23c-1.73-.79-4.21-1.89-7.17-3.27L423,20.57,411.43,15.1,399.94,9.53l-10-4.92-7-3.54Z"/><path d="M393.71-.4s3.29,1.54,8.18,3.93l8.34,4.11,9.53,4.79,9.48,4.88,8.24,4.32c4.81,2.55,8,4.3,8,4.3s-3.29-1.54-8.19-3.93L429,17.88l-9.53-4.79-9.48-4.88L401.7,3.9C396.89,1.35,393.71-.4,393.71-0.4Z"/><path d="M409.86,0.94s1.6,0.69,4,1.8c1.17,0.57,2.56,1.21,4,1.94L422.42,7l4.52,2.38c1.45,0.76,2.77,1.52,3.91,2.14,2.28,1.28,3.77,2.18,3.77,2.18s-1.6-.69-4-1.8c-1.17-.57-2.56-1.2-4-1.94l-4.57-2.3-4.52-2.38c-1.44-.76-2.77-1.52-3.91-2.14C411.36,1.84,409.86.94,409.86,0.94Z"/><path d="M261.66,31.1s-0.18,4.67-.43,9.33c-0.05,1.17-.09,2.33-0.16,3.43s-0.21,2.11-.31,3c-0.23,1.74-.48,2.89-0.48,2.89h-0.07s-0.07-1.18,0-2.93c0-.88,0-1.9.13-3s0.22-2.25.34-3.41c0.44-4.65,1-9.3,1-9.3h0.07Z"/><path d="M270.18,30.67s-0.92,4.8-1.9,9.59l-0.7,3.52c-0.25,1.12-.54,2.15-0.78,3-0.5,1.76-.93,2.92-0.93,2.92l-0.07,0s0.11-1.23.42-3c0.16-.9.35-2,0.6-3.07l0.88-3.48c1.17-4.74,2.41-9.47,2.41-9.47Z"/><path d="M279.6,30.68s-1.3,4.81-2.67,9.61l-1,3.53c-0.34,1.12-.71,2.14-1,3-0.64,1.76-1.16,2.9-1.16,2.9l-0.07,0s0.21-1.24.66-3.05c0.24-.91.5-2,0.85-3.08l1.16-3.47c1.55-4.74,3.17-9.45,3.17-9.45Z"/><path d="M283.8,30.67s-1.07,4.81-2.2,9.6l-0.81,3.52c-0.29,1.12-.61,2.15-0.88,3-0.56,1.76-1,2.91-1,2.91l-0.07,0s0.15-1.23.52-3c0.19-.9.41-2,0.7-3.08l1-3.48c1.32-4.74,2.71-9.46,2.71-9.46Z"/><path d="M290,30.67s-0.88,4.8-1.82,9.59l-0.68,3.52c-0.24,1.12-.52,2.15-0.76,3-0.49,1.77-.9,2.92-0.9,2.92l-0.07,0s0.1-1.23.4-3c0.16-.9.33-2,0.58-3.07l0.85-3.48c1.13-4.74,2.34-9.47,2.34-9.47Z"/><path d="M295.12,30.67s-0.65,4.79-1.36,9.57l-0.51,3.51c-0.19,1.12-.42,2.15-0.61,3-0.4,1.77-.76,2.93-0.76,2.93h-0.07s0-1.22.25-3c0.11-.9.24-2,0.43-3.07l0.68-3.48c0.91-4.75,1.88-9.49,1.88-9.49h0.07Z"/><path d="M301.33,31.1s-0.77,4.69-1.6,9.37l-0.59,3.44c-0.22,1.09-.47,2.1-0.69,3-0.45,1.73-.84,2.86-0.84,2.86h-0.07s0.08-1.2.33-3c0.14-.88.29-1.91,0.5-3l0.77-3.4c1-4.64,2.12-9.26,2.12-9.26h0.07Z"/><path d="M40.21,49.52s-0.21-2.28-.43-5.7c-0.1-1.71-.24-3.71-0.34-5.84l-0.31-6.7-0.21-6.71c-0.07-2.14-.08-4.14-0.11-5.85,0-3.43,0-5.71,0-5.71s0.21,2.28.43,5.7c0.1,1.71.24,3.71,0.34,5.84l0.31,6.7,0.21,6.71c0.07,2.14.08,4.14,0.11,5.85C40.25,47.23,40.21,49.52,40.21,49.52Z"/><path d="M36.65,48.7s-0.22-2.2-.45-5.51c-0.1-1.65-.26-3.58-0.36-5.65l-0.33-6.48-0.23-6.49c-0.08-2.07-.09-4-0.13-5.66-0.05-3.31,0-5.53,0-5.53s0.22,2.2.45,5.51c0.1,1.65.26,3.58,0.36,5.65L36.25,31l0.23,6.49c0.08,2.07.09,4,.13,5.66C36.67,46.48,36.65,48.7,36.65,48.7Z"/><path d="M32.29,47.69s-0.08-2.13-.1-5.33c0-1.6,0-3.46,0-5.46l0.07-6.26,0.17-6.26c0.05-2,.16-3.86.22-5.46,0.15-3.19.32-5.32,0.32-5.32s0.08,2.13.11,5.33c0,1.6,0,3.46,0,5.46L33,30.66l-0.17,6.26c-0.05,2-.16,3.86-0.22,5.46C32.45,45.57,32.29,47.69,32.29,47.69Z"/><path d="M28.28,26.88s1.32,0,3.3.11c1,0.06,2.14.11,3.37,0.21s2.54,0.21,3.85.33,2.62,0.27,3.85.42S45,28.25,46,28.38c2,0.28,3.26.53,3.26,0.53s-1.32,0-3.3-.11c-1-.06-2.14-0.11-3.37-0.21s-2.54-.21-3.85-0.33-2.62-.27-3.84-0.42-2.37-.32-3.35-0.44C29.58,27.12,28.28,26.88,28.28,26.88Z"/><path d="M25.57,29.28s1.08,0,2.69.17c0.8,0.08,1.74.15,2.75,0.27s2.07,0.25,3.14.4,2.13,0.31,3.12.48,1.92,0.36,2.71.5c1.59,0.31,2.63.58,2.63,0.58s-1.08,0-2.69-.17c-0.8-.08-1.74-0.15-2.75-0.27S35.1,31,34,30.85s-2.13-.31-3.12-0.49S29,30,28.2,29.86C26.62,29.55,25.57,29.28,25.57,29.28Z"/><path d="M25.86,32.09s1.34,0.1,3.35.34c1,0.13,2.17.26,3.41,0.44s2.57,0.39,3.9.6,2.65,0.45,3.89.69,2.39,0.48,3.38.68c2,0.42,3.28.75,3.28,0.75s-1.34-.1-3.35-0.34c-1-.13-2.17-0.26-3.41-0.44s-2.57-.39-3.9-0.6-2.65-.45-3.89-0.69-2.39-.48-3.38-0.68C27.17,32.43,25.86,32.09,25.86,32.09Z"/><path d="M494.37,27.75a9.12,9.12,0,0,1,.79-0.61A14.43,14.43,0,0,1,499,25.3a9,9,0,0,1,1-.22,9,9,0,0,1-.79.61,14.43,14.43,0,0,1-3.87,1.84A9.12,9.12,0,0,1,494.37,27.75Z"/><path d="M488.86,26.54s0.59-.41,1.5-1,2.17-1.23,3.44-1.85,2.58-1.18,3.58-1.56,1.69-.58,1.69-0.58-0.59.42-1.5,1-2.17,1.23-3.44,1.85-2.58,1.18-3.58,1.56S488.86,26.54,488.86,26.54Z"/><path d="M485.47,22.82s0.52-.41,1.33-1,1.93-1.23,3.07-1.85,2.32-1.19,3.23-1.57,1.53-.59,1.53-0.59-0.52.41-1.33,1-1.93,1.23-3.07,1.85-2.32,1.19-3.23,1.57S485.47,22.82,485.47,22.82Z"/><path d="M498,32.46s-1.2-1.35-2.92-3.43c-0.85-1-1.87-2.25-2.92-3.58l-3.28-4.15-3.2-4.21c-1-1.34-1.93-2.63-2.74-3.72-1.58-2.19-2.59-3.69-2.59-3.69s1.2,1.35,2.93,3.43c0.85,1,1.87,2.25,2.92,3.58l3.28,4.15,3.2,4.21c1,1.34,1.93,2.63,2.74,3.72C497,31,498,32.46,498,32.46Z"/><path d="M499.27,30.89s-0.85-.9-2.06-2.32c-0.59-.71-1.31-1.53-2-2.43s-1.5-1.87-2.26-2.84-1.51-2-2.19-2.9-1.31-1.82-1.85-2.58c-1.07-1.52-1.73-2.57-1.73-2.57s0.85,0.9,2.06,2.31c0.59,0.71,1.31,1.53,2,2.43s1.5,1.87,2.26,2.84,1.51,2,2.19,2.9,1.31,1.82,1.85,2.58C498.61,29.84,499.27,30.89,499.27,30.89Z"/></svg>