<svg id="Slip_lines_grains_elongated" data-name="Slip lines (grains elongated" xmlns="http://www.w3.org/2000/svg" viewBox="0 0 650 150"><title>M_SlipLinesGrainElongated</title><path d="M107,14l12.74-.27,13.06-.17,15-.12,15,0,13.06,0.06,12.74,0.15-12.74.27-13.06.17-15,.12-15,0-13.06-.06Z"/><path d="M101.68,16.22l15.06-.07,15.43,0,17.69,0.12,17.69,0.22L183,16.79,198,17.15,183,17.21l-15.43,0-17.69-.12-17.69-.22-15.43-.26Z"/><path d="M96.37,19.4l17.9,0.15,18.35,0.25,21,0.37,21,0.47L193,21.12l17.89,0.57L193,21.54l-18.35-.25-21-.37-21-.47L114.26,20Z"/><path d="M111.39,22.65l14.4,0.18,14.76,0.29,16.92,0.41L174.38,24l14.75,0.51,14.39,0.6L189.13,25l-14.76-.29-16.92-.41-16.92-.51-14.75-.51Z"/><path d="M122.08,25.15s0.78-.12,1.94-0.21,2.72-.16,4.27-0.16,3.1,0.06,4.27.16,1.94,0.22,1.94.22-0.78.12-1.94,0.22-2.72.16-4.27,0.16-3.1-.07-4.27-0.16S122.08,25.15,122.08,25.15Z"/><path d="M128.29,50.1s2.28-.39,5.72-0.88c1.72-.23,3.72-0.53,5.87-0.8l6.74-.83,6.75-.73c2.16-.24,4.17-0.4,5.9-0.57,3.46-.31,5.77-0.46,5.77-0.46s-2.28.39-5.72,0.88c-1.72.23-3.72,0.53-5.87,0.8l-6.74.83-6.76.73c-2.16.24-4.17,0.4-5.9,0.57C130.6,50,128.29,50.1,128.29,50.1Z"/><path d="M137.17,51.87s1.3-.31,3.25-0.68c1-.18,2.12-0.4,3.35-0.61s2.54-.41,3.85-0.6,2.63-.37,3.86-0.52,2.39-.26,3.38-0.37c2-.2,3.31-0.27,3.31-0.27s-1.3.31-3.25,0.68c-1,.18-2.12.41-3.35,0.61s-2.54.41-3.85,0.6-2.63.37-3.86,0.51-2.39.26-3.38,0.37C138.5,51.8,137.17,51.87,137.17,51.87Z"/><path d="M145.13,53.8s1.4-.33,3.52-0.75c1.06-.19,2.29-0.44,3.62-0.67s2.74-.45,4.16-0.68,2.84-.42,4.17-0.59,2.58-.31,3.65-0.43c2.14-.23,3.58-0.33,3.58-0.33s-1.4.34-3.52,0.75c-1.06.19-2.29,0.45-3.62,0.67s-2.74.45-4.16,0.68-2.84.42-4.17,0.59-2.58.31-3.65,0.43C146.57,53.7,145.13,53.8,145.13,53.8Z"/><path d="M153.69,55.84l0.54-.18c0.34-.12.83-0.24,1.42-0.4s1.29-.29,2-0.42,1.56-.19,2.37-0.29c3.22-.42,6.45-0.78,6.45-0.78v0.07s-3.18.68-6.36,1.3c-0.8.16-1.59,0.34-2.34,0.47s-1.46.2-2.07,0.24-1.12.07-1.48,0.07H153.7V55.84Z"/><path d="M160.1,56.8s1.21-.35,3-0.73c0.92-.18,2-0.4,3.15-0.58l3.64-.47c4.95-.66,9.9-1.26,9.9-1.26v0.07s-4.91.92-9.83,1.78l-3.61.65c-1.16.18-2.24,0.29-3.17,0.39-1.87.18-3.12,0.22-3.12,0.22V56.8Z"/><path d="M166.51,58.94l0.28-.13a7.26,7.26,0,0,1,.75-0.26,7.68,7.68,0,0,1,1.08-.22c0.4,0,.83,0,1.26-0.06,1.72-.1,3.44-0.14,3.44-0.14v0.07s-1.69.36-3.38,0.66c-0.42.08-.84,0.18-1.24,0.24a7.68,7.68,0,0,1-1.1,0,7.26,7.26,0,0,1-.79-0.08l-0.3-.06V58.94Z"/><path d="M192.45,69s3.37,0.52,8.42,1.38l8.61,1.51,9.85,1.81,9.84,1.91c3.14,0.61,6.06,1.23,8.57,1.73,5,1,8.34,1.79,8.34,1.79s-3.37-.51-8.42-1.37c-2.52-.44-5.46-0.93-8.61-1.51l-9.85-1.81-9.84-1.91-8.57-1.73C195.78,69.76,192.45,69,192.45,69Z"/><path d="M188.57,72.18s4,0.47,10,1.26l10.26,1.39,11.75,1.67,11.73,1.77,10.22,1.61c6,1,10,1.67,10,1.67s-4-.47-10-1.25L232.23,78.9l-11.75-1.67-11.73-1.77-10.22-1.61C192.55,72.88,188.57,72.18,188.57,72.18Z"/><path d="M185.1,75l11.95,1.33,12.23,1.47,14,1.76,14,1.86,12.2,1.69,11.89,1.75-11.95-1.33-12.23-1.47-14-1.76-14-1.86L197,76.75Z"/><path d="M182.53,77.28l13.35,1.66,13.67,1.8,15.66,2.14,15.65,2.24,13.64,2,13.29,2.07-13.35-1.66-13.67-1.8L225.1,83.62l-15.65-2.24-13.64-2Z"/><path d="M180,79.13l3.12,0.37,8.23,1L203,82l13.31,1.8,13.3,1.9,11.59,1.73,8.19,1.29,3.11,0.5-3.12-.37-8.23-1-11.62-1.5-13.31-1.8-13.3-1.9-11.59-1.73-8.19-1.29Z"/><path d="M177.08,81.54s2.26,0.27,5.64.75c1.69,0.26,3.66.52,5.77,0.87l6.6,1.08,6.58,1.17c2.1,0.37,4.05.78,5.73,1.09,3.35,0.66,5.57,1.17,5.57,1.17s-2.26-.26-5.64-0.75c-1.69-.26-3.66-0.52-5.77-0.87L195,85l-6.58-1.17c-2.1-.37-4.05-0.78-5.73-1.09C179.3,82,177.08,81.54,177.08,81.54Z"/><path d="M173.85,84.18l3,0.51,8,1.36,11.25,2L209,90.44l12.86,2.48L233,95.15,241,96.8l3,0.63-3-.51-8-1.36-11.25-2-12.88-2.38L196,88.69l-11.21-2.24-7.92-1.65Z"/><path d="M272.17,47.17s1.68,1.15,4.14,2.94c1.22,0.91,2.67,1.94,4.18,3.09l4.74,3.61,4.68,3.69c1.5,1.18,2.86,2.32,4,3.28,2.35,1.94,3.88,3.27,3.88,3.27s-1.68-1.15-4.14-2.94c-1.22-.91-2.67-1.94-4.18-3.1l-4.74-3.61-4.68-3.69c-1.5-1.18-2.86-2.32-4-3.28C273.7,48.51,272.17,47.17,272.17,47.17Z"/><path d="M267.78,48s1.59,1,3.92,2.67c1.16,0.83,2.52,1.76,4,2.81l4.48,3.29,4.43,3.37c1.41,1.07,2.7,2.12,3.82,3,2.22,1.77,3.66,3,3.66,3s-1.59-1-3.92-2.67c-1.16-.83-2.53-1.76-4-2.81l-4.48-3.29L275.27,54c-1.41-1.07-2.7-2.12-3.82-3C269.23,49.2,267.78,48,267.78,48Z"/><path d="M261.4,47.56s1.55,1.11,3.82,2.83c1.13,0.88,2.46,1.87,3.85,3l4.36,3.48,4.3,3.56c1.38,1.13,2.62,2.24,3.71,3.16,2.16,1.87,3.55,3.16,3.55,3.16s-1.55-1.11-3.82-2.83c-1.13-.88-2.46-1.87-3.85-3L273,57.44l-4.3-3.56c-1.37-1.14-2.62-2.24-3.71-3.16C262.8,48.85,261.4,47.56,261.4,47.56Z"/><path d="M256.33,47.56s1.55,1.07,3.81,2.73c1.12,0.85,2.46,1.81,3.85,2.88l4.36,3.37,4.3,3.45c1.37,1.1,2.62,2.17,3.71,3.06,2.15,1.81,3.55,3.07,3.55,3.07s-1.55-1.06-3.82-2.73c-1.12-.85-2.46-1.8-3.85-2.88l-4.36-3.37-4.3-3.45c-1.37-1.1-2.62-2.17-3.71-3.06C257.73,48.81,256.33,47.56,256.33,47.56Z"/><path d="M257.17,51.87s0.84,0.45,2,1.21c0.6,0.39,1.31.82,2,1.32s1.52,1,2.29,1.58,1.53,1.11,2.24,1.66,1.35,1.07,1.91,1.51c1.1,0.9,1.8,1.55,1.8,1.55s-0.84-.45-2-1.21c-0.6-.39-1.31-0.82-2-1.32s-1.51-1-2.29-1.58-1.53-1.11-2.24-1.66-1.35-1.07-1.91-1.51C257.87,52.52,257.17,51.87,257.17,51.87Z"/><path d="M249.33,47.17s1.34,1,3.29,2.57c1,0.8,2.11,1.7,3.3,2.72l3.74,3.17,3.67,3.25c1.17,1,2.23,2,3.15,2.89,1.83,1.71,3,2.89,3,2.89s-1.34-1-3.29-2.57c-1-.8-2.11-1.7-3.3-2.72l-3.73-3.17L255.5,53c-1.17-1-2.23-2-3.15-2.89C250.52,48.36,249.33,47.17,249.33,47.17Z"/><path d="M38.34,90.8s3.62-.32,9.06-0.7l9.29-.62,10.65-.62L78,88.34l9.3-.39c5.45-.2,9.08-0.28,9.08-0.28s-3.62.32-9.06,0.7L78,89l-10.65.62-10.66.52-9.3.39C42,90.72,38.34,90.8,38.34,90.8Z"/><path d="M36.93,93.09s4-.36,9.89-0.81L57,91.54l11.64-.76,11.64-.66,10.16-.5c5.95-.27,9.92-0.39,9.92-0.39s-4,.36-9.89.81l-10.15.73-11.64.76L57,92.19l-10.16.5C40.9,93,36.93,93.09,36.93,93.09Z"/><path d="M35.81,94.91s3.79-.23,9.49-0.5L55,94l11.16-.38,11.16-.29,9.74-.18c5.7-.08,9.5-0.07,9.5-0.07s-3.79.23-9.49,0.5L77.36,94l-11.16.38L55,94.66l-9.74.18C39.61,94.92,35.81,94.91,35.81,94.91Z"/><path d="M32.26,97.43s3.86-.21,9.66-0.44l9.9-.35,11.35-.32,11.36-.22L84.44,96c5.8,0,9.67,0,9.67,0s-3.86.21-9.66,0.44l-9.9.35-11.35.32-11.36.22-9.91.12C36.13,97.46,32.26,97.43,32.26,97.43Z"/><path d="M32.26,99.91l12.36-.6,12.67-.51,14.53-.51,14.53-.41L99,97.61l12.37-.18L99,98l-12.67.51L71.84,99l-14.53.41-12.68.28Z"/><path d="M137.17,101.55s-2.31,0-5.76,0c-1.73,0-3.75-.07-5.9-0.15l-6.76-.25-6.76-.35c-2.16-.11-4.17-0.27-5.89-0.38-3.45-.24-5.75-0.47-5.75-0.47s2.31,0,5.76,0c1.73,0,3.75.06,5.9,0.15l6.76,0.25,6.76,0.35c2.16,0.11,4.17.27,5.89,0.38C134.87,101.33,137.17,101.55,137.17,101.55Z"/><path d="M136,103.9s-2.23,0-5.58,0c-1.67,0-3.62,0-5.71-.12l-6.54-.22-6.54-.32c-2.09-.1-4-0.25-5.7-0.35-3.34-.23-5.56-0.44-5.56-0.44s2.23,0,5.58,0c1.67,0,3.62,0,5.71.12l6.54,0.22,6.54,0.32c2.09,0.1,4,.25,5.7.35C133.74,103.69,136,103.9,136,103.9Z"/><path d="M134.5,106.77s-2.15-.06-5.36-0.24c-1.6-.1-3.48-0.19-5.48-0.35l-6.28-.48-6.27-.58c-2-.18-3.86-0.41-5.46-0.57-3.2-.36-5.32-0.66-5.32-0.66s2.15,0.06,5.36.24c1.6,0.1,3.48.19,5.48,0.35l6.28,0.48,6.27,0.58c2,0.18,3.86.41,5.46,0.57C132.37,106.47,134.5,106.77,134.5,106.77Z"/><path d="M73.7,50.11s0,0.14,0,.38-0.11.58-.2,1A12.19,12.19,0,0,1,73,52.8c-0.2.47-.44,1-0.67,1.45-0.88,2-1.83,3.94-1.83,3.94l-0.07,0S71.1,56.09,71.8,54c0.17-.52.32-1,0.5-1.52a12.19,12.19,0,0,1,.59-1.26c0.2-.36.37-0.66,0.52-0.85s0.22-.31.22-0.31Z"/><path d="M76.36,49.74s0,0.2-.09.55-0.18.84-.32,1.42-0.35,1.25-.59,2-0.57,1.44-.86,2.18c-1.15,3-2.37,5.93-2.37,5.93l-0.07,0s0.91-3.06,1.87-6.11c0.23-.76.46-1.53,0.69-2.24s0.51-1.35.77-1.9,0.47-1,.64-1.31,0.27-.49.27-0.49Z"/><path d="M78.87,49.73s-0.17,1.07-.56,2.64c-0.2.78-.44,1.69-0.74,2.65s-0.68,2-1,3c-1.38,4.07-2.83,8.12-2.83,8.12l-0.07,0S74.76,62,76,57.83c0.29-1,.57-2.07.86-3s0.64-1.84.92-2.6c0.58-1.51,1.06-2.48,1.06-2.48Z"/><path d="M81.06,49.73s0,0.15,0,.42,0,0.64-.08,1.09a14.61,14.61,0,0,1-.26,1.5c-0.14.54-.32,1.11-0.49,1.68C79.58,56.71,78.87,59,78.87,59L78.8,59s0.39-2.35.84-4.69c0.1-.59.2-1.17,0.31-1.72a14.6,14.6,0,0,1,.44-1.46c0.16-.42.29-0.77,0.41-1s0.19-.38.19-0.38Z"/><path d="M84.62,49.32s0,0.19-.06.52-0.13.79-.24,1.34S84,52.36,83.83,53s-0.49,1.36-.74,2.06c-1,2.82-2,5.61-2,5.61l-0.07,0s0.73-2.9,1.53-5.77c0.19-.72.37-1.45,0.57-2.12s0.44-1.28.66-1.8,0.41-.95.56-1.24,0.24-.46.24-0.46Z"/><path d="M86.23,49.31a1.68,1.68,0,0,1,.09.21,3.73,3.73,0,0,1,.26,1.32c0,0.28-.06.59-0.09,0.89-0.1,1.21-.26,2.42-0.26,2.42H86.15s-0.17-1.21-.26-2.42c0-.3-0.08-0.6-0.09-0.89a3.73,3.73,0,0,1,.26-1.32,1.68,1.68,0,0,1,.09-0.21h0.07Z"/><path d="M253.78,113.93s2.39-.06,6-0.07c1.79,0,3.89,0,6.13,0l7,0.12,7,0.22c2.24,0.07,4.33.19,6.13,0.26,3.59,0.18,6,.35,6,0.35s-2.39.06-6,.07c-1.79,0-3.89,0-6.13,0l-7-.12-7-.22c-2.24-.07-4.33-0.19-6.13-0.26C256.17,114.1,253.78,113.93,253.78,113.93Z"/><path d="M246.85,115.54s3,0,7.56.18c2.27,0.09,4.91.15,7.75,0.28l8.88,0.41,8.87,0.51c2.83,0.16,5.47.37,7.74,0.51,4.53,0.32,7.54.6,7.54,0.6s-3,0-7.56-.18c-2.27-.09-4.91-0.15-7.75-0.28l-8.88-.41-8.87-.51c-2.83-.16-5.47-0.37-7.74-0.51C249.87,115.81,246.85,115.54,246.85,115.54Z"/><path d="M241.5,116.78s3.53,0.16,8.82.5l9,0.61,10.35,0.78L280,119.56l9,0.84c5.27,0.52,8.79.92,8.79,0.92s-3.53-.16-8.82-0.5l-9-.61-10.35-.78-10.34-.88-9-.84C245,117.19,241.5,116.78,241.5,116.78Z"/><path d="M233.14,118.73l2.86,0.14,7.54,0.39,10.65,0.65,12.21,0.83,12.2,0.93,10.64,0.88c3.11,0.26,5.7.53,7.52,0.69l2.85,0.27-2.86-.14c-1.82-.1-4.42-0.2-7.54-0.39l-10.65-.65-12.21-.83-12.2-.93-10.64-.88L236,119Z"/><path d="M225.73,120.45l11.93,0.72L249.88,122l14,1,14,1.14,12.2,1.07L302,126.42,290,125.7l-12.22-.84-14-1-14-1.14-12.2-1.07Z"/><path d="M218.1,122.23l13.76,1.24L246,124.83l16.15,1.65,16.14,1.75,14.07,1.6L306,131.48l-13.76-1.24-14.09-1.37L262,127.23l-16.14-1.75-14.07-1.6Z"/><path d="M212.92,123.44l3.66,0.33,9.64,1c4,0.43,8.64.88,13.62,1.45l15.6,1.77,15.58,1.9c5,0.6,9.61,1.25,13.58,1.76l9.6,1.32,3.64,0.53-3.66-.33-9.64-1c-4-.43-8.64-0.88-13.62-1.45l-15.6-1.77L239.74,127c-5-.61-9.61-1.25-13.58-1.76l-9.6-1.32Z"/><path d="M215.23,126.86l3.23,0.27c2.05,0.19,5,.42,8.51.77s7.63,0.72,12,1.2l13.76,1.48,13.75,1.61c4.39,0.51,8.48,1.07,12,1.5s6.42,0.87,8.47,1.14l3.21,0.46-3.23-.27c-2.05-.19-5-0.42-8.51-0.77s-7.63-.72-12-1.2l-13.76-1.48L238.89,130c-4.39-.51-8.48-1.07-12-1.5s-6.42-.87-8.47-1.14Z"/><path d="M219.26,129.61l2.62,0.25c1.66,0.18,4,.4,6.9.74s6.18,0.69,9.74,1.15l11.15,1.43,11.13,1.56c3.55,0.49,6.86,1,9.7,1.45s5.19,0.84,6.85,1.1l2.59,0.45-2.62-.25c-1.66-.18-4-0.4-6.9-0.74s-6.18-.69-9.74-1.15l-11.15-1.43-11.13-1.56c-3.55-.5-6.86-1-9.7-1.45s-5.19-.84-6.85-1.1Z"/><path d="M293.75,112.15s0.46,0.5,1.09,1.28,1.41,1.88,2.15,3,1.41,2.28,1.88,3.17,0.73,1.52.73,1.52-0.46-.5-1.1-1.28-1.41-1.88-2.15-3-1.41-2.28-1.88-3.17S293.75,112.15,293.75,112.15Z"/><path d="M297.84,112.15s0.61,0.64,1.45,1.64,1.92,2.38,2.95,3.78,2,2.86,2.69,4,1.11,1.89,1.11,1.89-0.61-.64-1.45-1.64-1.92-2.38-2.95-3.79-2-2.86-2.69-4S297.84,112.15,297.84,112.15Z"/><path d="M302,112.15s0.68,0.77,1.63,2c0.46,0.61,1,1.31,1.59,2.08s1.16,1.6,1.74,2.44,1.15,1.68,1.67,2.49,1,1.57,1.39,2.22c0.8,1.31,1.28,2.22,1.28,2.22s-0.68-.77-1.63-2c-0.46-.61-1-1.31-1.59-2.08s-1.16-1.6-1.74-2.44-1.15-1.68-1.67-2.49-1-1.57-1.39-2.22C302.43,113.06,302,112.15,302,112.15Z"/><path d="M308,113.93s0.85,1,2,2.62c0.59,0.8,1.3,1.73,2,2.74s1.48,2.1,2.24,3.2,1.49,2.2,2.17,3.25,1.29,2,1.82,2.88c1.05,1.7,1.7,2.86,1.7,2.86s-0.85-1-2-2.62c-0.59-.8-1.3-1.73-2-2.74s-1.48-2.1-2.24-3.2-1.49-2.2-2.17-3.25-1.29-2-1.82-2.88C308.65,115.09,308,113.93,308,113.93Z"/><path d="M311.25,112s0.65,0.78,1.54,2c0.44,0.62,1,1.33,1.5,2.11s1.09,1.63,1.64,2.47,1.08,1.71,1.57,2.52,0.92,1.59,1.3,2.24c0.74,1.32,1.19,2.24,1.19,2.24s-0.65-.78-1.54-2c-0.44-.62-1-1.33-1.5-2.11s-1.09-1.63-1.64-2.47-1.08-1.71-1.57-2.52-0.92-1.59-1.3-2.24C311.7,112.89,311.25,112,311.25,112Z"/><path d="M307.53,6.09s1.54-.25,3.85-0.54c1.16-.13,2.5-0.31,3.95-0.46s3-.3,4.54-0.44,3.09-.25,4.54-0.35,2.81-.16,4-0.22C330.7,4,332.26,4,332.26,4s-1.53.25-3.85,0.54c-1.16.13-2.5,0.31-3.95,0.46s-3,.3-4.54.44-3.09.25-4.54,0.35-2.81.16-4,.22C309.09,6.08,307.53,6.09,307.53,6.09Z"/><path d="M291.48,12.21s3-.46,7.59-1.06c2.28-.29,4.94-0.65,7.79-1l8.94-1,8.95-.95c2.86-.31,5.53-0.53,7.81-0.76,4.58-.42,7.63-0.64,7.63-0.64s-3,.46-7.59,1.06c-2.28.28-4.94,0.65-7.79,1l-8.94,1-8.95.95c-2.86.3-5.53,0.53-7.81,0.76C294.54,12,291.48,12.21,291.48,12.21Z"/><path d="M288,15s3.34-.43,8.37-1l8.59-.92,9.85-1,9.86-.88c3.15-.28,6.09-0.49,8.61-0.7,5-.38,8.41-0.58,8.41-0.58s-3.34.44-8.37,1c-2.51.27-5.44,0.61-8.59,0.92l-9.85,1-9.86.88-8.61.69C291.39,14.83,288,15,288,15Z"/><path d="M282.93,19.19l2.79-.36,7.36-.94,10.41-1.23,11.94-1.33,12-1.23,10.43-1c3.05-.3,5.6-0.48,7.39-0.64l2.8-.24-2.79.36c-1.78.22-4.31,0.58-7.36,0.94l-10.41,1.23L315.5,16.07l-12,1.23-10.43,1-7.39.64Z"/><path d="M279.93,21.69s1.22-.24,3.05-0.51c0.92-.12,2-0.29,3.14-0.43s2.38-.27,3.61-0.4,2.46-.23,3.62-0.31,2.24-.13,3.16-0.19c1.85-.09,3.1-0.09,3.1-0.09s-1.22.24-3.05,0.51c-0.92.12-2,.29-3.14,0.43s-2.38.27-3.61,0.4-2.46.23-3.62,0.31-2.24.13-3.16,0.19C281.17,21.68,279.93,21.69,279.93,21.69Z"/><path d="M274.86,23.9L288.3,22.3l13.78-1.53,15.81-1.68,15.82-1.58,13.81-1.31L361,15l-13.44,1.59-13.78,1.53L318,19.84l-15.82,1.58-13.81,1.31Z"/><path d="M369.63,15s-2.32.45-5.81,1c-1.75.28-3.78,0.64-6,1l-6.85,1-6.87.93c-2.19.3-4.25,0.52-6,.74-3.52.41-5.87,0.63-5.87,0.63s2.32-.45,5.81-1c1.75-.28,3.78-0.64,6-1l6.85-1,6.87-.93c2.19-.3,4.25-0.52,6-0.74C367.28,15.25,369.63,15,369.63,15Z"/><path d="M372.31,17.7s-2.84.43-7.11,1c-2.14.26-4.62,0.6-7.3,0.91l-8.37,1-8.39.86c-2.68.28-5.18,0.48-7.32,0.68-4.29.37-7.15,0.56-7.15,0.56s2.84-.43,7.11-1c2.14-.26,4.62-0.6,7.3-0.91l8.37-1,8.39-.86c2.68-.28,5.18-0.48,7.32-0.68C369.44,17.89,372.31,17.7,372.31,17.7Z"/><path d="M374.35,20.72s-3.51.47-8.79,1.1l-9,1-10.35,1.09-10.36,1-9,.8c-5.3.44-8.84,0.68-8.84,0.68s3.51-.48,8.79-1.1l9-1,10.35-1.09,10.36-1,9-.8C370.81,21,374.35,20.72,374.35,20.72Z"/><path d="M377.28,22.65s-4,.46-10.08,1.06l-10.34,1-11.86,1-11.87.94-10.36.75c-6.06.42-10.11,0.64-10.11,0.64s4-.46,10.08-1.06l10.34-1,11.86-1L356.81,24l10.36-.75C373.23,22.86,377.28,22.65,377.28,22.65Z"/><path d="M32.24,32.46s1.11-.76,2.85-1.77c0.87-.5,1.89-1.08,3-1.66l3.53-1.73c4.79-2.38,9.62-4.69,9.62-4.69l0,0.07s-4.67,2.61-9.37,5.16l-3.44,1.89c-1.11.58-2.18,1.07-3.08,1.5-1.83.83-3.09,1.31-3.09,1.31Z"/><path d="M36.91,33.28s1.31-.87,3.33-2c1-.58,2.2-1.26,3.49-1.95l4.09-2.06C53.39,24.41,59,21.65,59,21.65l0,0.07s-5.44,3.05-10.91,6L44.1,30c-1.29.68-2.52,1.27-3.58,1.78-2.12,1-3.57,1.59-3.57,1.59Z"/><path d="M41.74,34.13s1.37-1,3.49-2.27c1.07-.65,2.31-1.41,3.66-2.17l4.3-2.32,11.71-6.31,0,0.07L53.48,27.89l-4.21,2.48c-1.36.77-2.65,1.43-3.75,2-2.22,1.14-3.75,1.82-3.75,1.82Z"/><path d="M49.19,35.45s1.13-.93,2.89-2.22c0.89-.63,1.92-1.38,3.06-2.13l3.62-2.28c4.91-3.13,9.86-6.2,9.86-6.2l0,0.06S63.89,26,59.09,29.31l-3.52,2.43c-1.14.75-2.23,1.41-3.16,2-1.88,1.12-3.18,1.79-3.18,1.79Z"/><path d="M90.49,41.43S89,41,86.72,40.13c-1.12-.43-2.42-0.92-3.79-1.49l-4.27-1.89C72.82,34.19,67,31.57,67,31.57l0-.07S73,33.82,78.89,36.19l4.34,1.73c1.37,0.58,2.64,1.17,3.72,1.66,2.16,1,3.57,1.78,3.57,1.78Z"/><path d="M91.7,40.09s-1.39-.45-3.42-1.24c-1-.41-2.19-0.88-3.44-1.43L81,35.6c-5.27-2.46-10.5-5-10.5-5l0-.07s5.37,2.22,10.72,4.49l3.93,1.66c1.24,0.56,2.38,1.12,3.36,1.6,1.95,1,3.21,1.72,3.21,1.72Z"/><path d="M94.09,39.26s-1.55-.59-3.8-1.6c-1.12-.51-2.44-1.11-3.82-1.79l-4.29-2.23-11.69-6.1,0-.07L82.44,33.1l4.37,2.07c1.38,0.69,2.65,1.38,3.74,2,2.17,1.19,3.57,2.07,3.57,2.07Z"/><path d="M97.65,38s-1.54-.66-3.79-1.78c-1.12-.57-2.43-1.22-3.8-2l-4.26-2.44L74.19,25.18l0-.07L86.08,31.3l4.35,2.28c1.37,0.75,2.63,1.5,3.71,2.14C96.3,37,97.69,38,97.69,38Z"/><path d="M102,36.5s-1.68-.64-4.13-1.73c-1.22-.55-2.65-1.19-4.16-1.93L89,30.45,76.31,23.93l0-.07,13,6.05,4.76,2.23c1.51,0.74,2.89,1.47,4.07,2.1,2.36,1.27,3.9,2.2,3.9,2.2Z"/><path d="M107,34.2s-1.83-.63-4.51-1.71c-1.34-.55-2.9-1.18-4.56-1.91L92.82,28.2l-14-6.48,0-.07,14.21,6,5.22,2.21c1.65,0.73,3.17,1.46,4.48,2.08,2.6,1.26,4.3,2.19,4.3,2.19Z"/><path d="M23.84,67.92s-1.33.07-3.31,0c-1,0-2.15-.06-3.39-0.15l-3.87-.36c-5.27-.47-10.53-1-10.53-1V66.36s5.29,0.21,10.57.48L17.2,67c1.24,0.09,2.39.22,3.37,0.33,2,0.24,3.28.49,3.28,0.49v0.07Z"/><path d="M29.24,66.15s-1.6,0-4-.23c-1.19-.11-2.58-0.22-4.06-0.41l-4.62-.66C10.29,64,4,63,4,63V63s6.33,0.61,12.66,1.3l4.65,0.48c1.48,0.18,2.85.41,4,.59,2.35,0.39,3.91.74,3.91,0.74v0.07Z"/><path d="M36.93,64.59S34.76,64.4,31.54,64c-1.61-.22-3.49-0.48-5.49-0.8l-6.26-1.11L2.74,59V58.94l17.13,2.53,6.29,0.94c2,0.33,3.86.68,5.46,1,3.19,0.62,5.3,1.13,5.3,1.13v0.07Z"/><path d="M41.75,63s-2.39-.24-5.94-0.74C34,62,32,61.75,29.74,61.37l-6.92-1.26L4,56.68V56.61l18.92,2.92,6.95,1.08c2.21,0.37,4.27.77,6,1.11C39.43,62.41,41.76,63,41.76,63V63Z"/><path d="M40.82,59.86s-2.12-.19-5.29-0.6C34,59,32.11,58.8,30.14,58.48L24,57.38l-16.75-3V54.31l16.83,2.48,6.18,0.92c2,0.32,3.8.67,5.36,1,3.13,0.61,5.2,1.11,5.2,1.11v0.07Z"/><path d="M18.93,53.84s-1-.06-2.58-0.28c-0.77-.12-1.66-0.26-2.61-0.46s-1.95-.47-3-0.72c-4-1-8-2-8-2l0-.07S6.84,51,10.9,51.78c1,0.18,2,.36,3,0.55s1.82,0.44,2.57.64c1.5,0.42,2.47.79,2.47,0.79Z"/><path d="M326.67,57c3.42,1.42,6.8,2.91,10.18,4.41,1.7,0.74,3.37,1.53,5.05,2.29l5,2.31-0.07,0L352,67.28c1.72,0.42,3.43.82,5.14,1.27,3.42,0.87,6.84,1.75,10.25,2.71-3.47-.66-6.93-1.4-10.38-2.15-1.73-.36-3.45-0.77-5.17-1.16l-5.16-1.18h0l0,0-5-2.37c-1.67-.8-3.35-1.57-5-2.39C333.28,60.37,330,58.74,326.67,57Z"/><path d="M330.67,54.84c3.44,1.43,6.85,2.91,10.25,4.41s6.79,3,10.18,4.57l-0.06,0c2.2,0.57,4.39,1.18,6.58,1.79l6.57,1.82,6.55,1.89c2.18,0.65,4.36,1.29,6.53,2-2.22-.51-4.42-1.05-6.63-1.59L364,68l-6.59-1.74c-2.2-.58-4.4-1.15-6.59-1.77h-0.06c-3.37-1.58-6.75-3.12-10.1-4.74S334,56.51,330.67,54.84Z"/><path d="M334.3,52.08c3.86,1.65,7.68,3.37,11.5,5.11,1.92,0.85,3.81,1.76,5.71,2.64l5.7,2.66-0.09,0,6,1.09c2,0.37,4,.72,6,1.11,4,0.77,8,1.54,11.94,2.4-4-.56-8-1.19-12-1.84-2-.31-4-0.67-6-1l-6-1h0l0,0-5.68-2.71c-1.89-.91-3.79-1.8-5.67-2.73C341.78,55.86,338,54,334.3,52.08Z"/><path d="M340.19,49.72l7.48,4c2.24,1.22,4.87,2.6,7.69,4.06,1.42,0.72,2.88,1.48,4.4,2.12a6.75,6.75,0,0,0,1.1.37c0.39,0.09.83,0.08,1.25,0.16,0.87,0.12,1.7.26,2.54,0.39,3.35,0.58,6.69,1.21,9.83,1.79s6,1.2,8.54,1.69c5,1,8.31,1.78,8.31,1.78s-3.36-.52-8.39-1.36l-18.42-3.16L362,61.18c-0.41-.08-0.82-0.08-1.26-0.18a6.68,6.68,0,0,1-1.28-.43c-1.56-.68-3-1.45-4.43-2.19-2.82-1.5-5.39-3-7.6-4.27C343.07,51.54,340.19,49.72,340.19,49.72Z"/><path d="M348,49.72q4.93,2.15,9.81,4.4c1.63,0.75,3.27,1.48,4.88,2.25l4.86,2.29-0.1,0c5,0.63,10,1.38,15,2.07s10,1.5,14.92,2.35c-5-.5-10-1.11-15-1.72s-10-1.27-15-2h-0.06l0,0L362.42,57c-1.62-.77-3.21-1.59-4.82-2.38Q352.78,52.2,348,49.72Z"/><path d="M355,50.1s1.77,0.6,4.39,1.58c1.31,0.5,2.84,1,4.47,1.68l5.11,2c0.87,0.34,1.74.67,2.59,1,0.43,0.15.86,0.3,1.27,0.43l0.3,0.08,0.08,0h0.14a3.76,3.76,0,0,1,.75,0c1.76,0.27,3.33.71,4.69,1,2.71,0.7,4.49,1.27,4.49,1.27l-4.59-.85c-1.37-.27-3-0.57-4.68-0.81a2.82,2.82,0,0,0-.57,0H373.3a0.88,0.88,0,0,1-.25,0c-0.14,0-.24-0.06-0.36-0.08-0.45-.12-0.88-0.27-1.32-0.42-0.87-.3-1.75-0.62-2.63-0.94l-5.09-2c-1.62-.66-3.11-1.34-4.39-1.9C356.71,50.92,355,50.1,355,50.1Z"/><path d="M87.35,128s-1.72.76-4.34,1.77c-1.32.49-2.85,1.08-4.51,1.65l-5.23,1.71L59,137.79l0-.07,14.08-5.13,5.17-1.88c1.66-.57,3.23-1.06,4.57-1.48,2.69-.82,4.51-1.28,4.51-1.28Z"/><path d="M92.85,128.13s-1.69.83-4.27,2c-1.29.55-2.8,1.2-4.44,1.84L79,133.86,64.92,139.1l0-.07,13.87-5.73,5.09-2.1c1.64-.64,3.18-1.19,4.51-1.67,2.65-.93,4.46-1.47,4.46-1.47Z"/><path d="M99.68,128s-2.36,1.14-5.94,2.72c-1.8.78-3.89,1.69-6.16,2.62l-7.13,2.83L61,143.87l0-.07,19.23-8.17,7.06-3c2.27-.93,4.4-1.75,6.23-2.45,3.66-1.4,6.14-2.24,6.14-2.24Z"/><path d="M103.52,128.13s-2.11,1.25-5.33,3c-1.62.87-3.5,1.88-5.54,2.92l-6.44,3.18-17.55,8.64,0-.07,17.31-9.1,6.36-3.34c2-1,4-2,5.63-2.76,3.31-1.58,5.57-2.54,5.57-2.54Z"/><path d="M108,128.48s-1.06.8-2.71,1.88c-0.83.53-1.8,1.16-2.86,1.78L99.07,134c-4.59,2.57-9.22,5.08-9.22,5.08l0-.06s4.46-2.8,9-5.54l3.29-2c1.06-.62,2.08-1.16,3-1.62,1.75-.91,3-1.44,3-1.44Z"/><path d="M113.18,128.13s-1.7,1.12-4.33,2.69c-1.32.77-2.85,1.68-4.52,2.6l-5.28,2.81-14.38,7.65,0-.07,14.12-8.11,5.19-3c1.67-.92,3.25-1.74,4.61-2.44,2.72-1.39,4.58-2.23,4.58-2.23Z"/><path d="M115.85,128s-0.72.69-1.88,1.62c-0.59.45-1.27,1-2,1.51s-1.61,1-2.44,1.57c-3.31,2.16-6.65,4.27-6.65,4.27l0-.06s3.16-2.38,6.35-4.7c0.79-.59,1.58-1.19,2.34-1.72s1.5-1,2.13-1.36c1.28-.76,2.18-1.19,2.18-1.19Z"/><path d="M118.17,128.47s-1.1,1.09-2.84,2.61c-0.88.75-1.9,1.64-3,2.54l-3.59,2.76c-4.87,3.77-9.78,7.49-9.78,7.49l0-.06s4.7-4,9.45-7.9l3.47-2.9c1.13-.9,2.21-1.7,3.14-2.39,1.87-1.36,3.17-2.2,3.17-2.2Z"/><path d="M219.26,29.06s0.87-.12,2.17-0.21,3-.16,4.77-0.16,3.47,0.06,4.77.16,2.17,0.22,2.17.22-0.87.12-2.17,0.22-3,.16-4.77.16-3.47-.07-4.77-0.16S219.26,29.06,219.26,29.06Z"/><path d="M213,31.57s2.07-.12,5.17-0.21c1.55,0,3.36-.1,5.3-0.11l6.08,0,6.08,0c1.94,0,3.75.08,5.3,0.11,3.1,0.09,5.17.21,5.17,0.21s-2.07.12-5.17,0.21c-1.55,0-3.36.1-5.3,0.11l-6.08,0-6.08,0c-1.94,0-3.75-.08-5.3-0.11C215,31.69,213,31.57,213,31.57Z"/><path d="M224.59,35.32s2-.12,5-0.21c1.49,0,3.22-.1,5.08-0.11l5.83,0,5.83,0c1.86,0,3.6.08,5.08,0.11,3,0.09,5,.21,5,0.21s-2,.12-5,0.21c-1.49,0-3.22.1-5.08,0.11l-5.83,0-5.83,0c-1.86,0-3.6-.08-5.08-0.11C226.58,35.44,224.59,35.32,224.59,35.32Z"/><path d="M233.14,38.25s1.81-.12,4.52-0.21c1.36,0,2.94-.1,4.63-0.11l5.31,0,5.31,0c1.69,0,3.28.08,4.63,0.11,2.71,0.09,4.52.21,4.52,0.21s-1.81.12-4.52,0.21c-1.36,0-2.94.1-4.63,0.11l-5.31,0-5.31,0c-1.69,0-3.28-.08-4.63-0.11C235,38.37,233.14,38.25,233.14,38.25Z"/><path d="M415.9,95.19s1.18,0,2.94.14c0.88,0.07,1.9.13,3,.24s2.26,0.23,3.43.37,2.33,0.29,3.42.45,2.1,0.34,3,.48c1.74,0.3,2.89.56,2.89,0.56s-1.18,0-2.94-.14c-0.88-.07-1.9-0.13-3-0.24s-2.26-.23-3.43-0.37-2.33-.29-3.42-0.46-2.1-.34-3-0.48C417,95.45,415.9,95.19,415.9,95.19Z"/><path d="M405.33,97.43s4,0.3,10,.83l10.21,1,11.69,1.17,11.68,1.27,10.18,1.18c6,0.71,9.93,1.25,9.93,1.25s-4-.3-10-0.83l-10.21-1-11.69-1.17-11.68-1.27-10.18-1.18C409.3,98,405.33,97.43,405.33,97.43Z"/><path d="M391.33,97.43L404.18,99l13.15,1.74,15.06,2.07,15,2.17,13.12,2,12.78,2-12.84-1.6-13.15-1.74-15.06-2.08-15-2.17-13.12-2Z"/><path d="M383.33,97.43l14.38,2.09,14.72,2.24,16.86,2.65,16.85,2.75,14.69,2.47,14.31,2.51-14.38-2.09L446,107.82l-16.86-2.65-16.85-2.75-14.69-2.47Z"/><path d="M377.28,99.91L392.6,102l15.69,2.28,18,2.69,18,2.79,15.66,2.5,15.26,2.54-15.32-2.12-15.69-2.28-18-2.69-18-2.79-15.66-2.5Z"/><path d="M369.63,100.76l14.1,2.1,14.44,2.25,16.54,2.66,16.52,2.76,14.4,2.48,14,2.52-14.1-2.1-14.44-2.25-16.54-2.66-16.52-2.76-14.4-2.48Z"/><path d="M367.92,102.83L382,105l14.39,2.32,16.49,2.74,16.47,2.84,14.35,2.55,14,2.58-14.06-2.17-14.39-2.32-16.49-2.74L396.26,108l-14.35-2.55Z"/><path d="M379.2,107.37l11.6,1.94,11.87,2.09,13.59,2.47,13.57,2.57,11.83,2.31,11.52,2.36-11.6-1.94-11.87-2.09-13.59-2.48L402.55,112l-11.83-2.31Z"/><path d="M387.71,112s1.13,0.13,2.8.41c0.83,0.15,1.81.31,2.85,0.52s2.14,0.44,3.25.68,2.2,0.51,3.23.77,2,0.53,2.8.75c1.63,0.46,2.71.82,2.71,0.82s-1.13-.13-2.8-0.41c-0.83-.15-1.81-0.31-2.85-0.52s-2.14-.44-3.25-0.68-2.2-.51-3.23-0.77-2-.53-2.8-0.75C388.79,112.33,387.71,112,387.71,112Z"/><path d="M382.32,26.75s1-.67,2.46-1.6c0.75-.45,1.62-1,2.57-1.55s2-1.13,3-1.7,2.06-1.12,3-1.62,1.9-.95,2.68-1.34c1.58-.77,2.66-1.23,2.66-1.23s-1,.67-2.46,1.6c-0.75.45-1.62,1-2.57,1.55s-2,1.13-3,1.7-2.06,1.12-3,1.62-1.9.95-2.68,1.34C383.4,26.28,382.32,26.75,382.32,26.75Z"/><path d="M387.14,28.06s1.21-.86,3.07-2.07c0.94-.59,2-1.31,3.2-2s2.45-1.49,3.72-2.26,2.55-1.5,3.76-2.18,2.35-1.29,3.32-1.83c2-1.05,3.29-1.71,3.29-1.71s-1.21.86-3.07,2.07c-0.94.59-2,1.31-3.2,2s-2.45,1.49-3.72,2.26-2.55,1.5-3.76,2.18-2.35,1.29-3.32,1.83C388.47,27.41,387.14,28.06,387.14,28.06Z"/><path d="M391.33,29.2s1.21-.73,3.06-1.75c0.93-.5,2-1.1,3.18-1.71s2.43-1.25,3.68-1.88,2.53-1.24,3.72-1.8,2.32-1.06,3.28-1.5c1.93-.86,3.24-1.38,3.24-1.38s-1.21.73-3.06,1.75c-0.93.5-2,1.1-3.18,1.71s-2.43,1.25-3.68,1.88-2.53,1.24-3.72,1.8-2.32,1.06-3.28,1.5C392.65,28.68,391.33,29.2,391.33,29.2Z"/><path d="M396.52,31.54s1.15-.86,2.92-2.07c0.89-.59,1.92-1.31,3-2s2.33-1.49,3.53-2.26,2.43-1.5,3.58-2.18,2.24-1.29,3.17-1.83c1.86-1.06,3.14-1.71,3.14-1.71s-1.15.86-2.92,2.07c-0.89.59-1.92,1.31-3,2s-2.33,1.49-3.53,2.26S404,27.32,402.83,28s-2.24,1.3-3.17,1.83C397.8,30.89,396.52,31.54,396.52,31.54Z"/><path d="M402.09,33s0.52-.56,1.34-1.35,2-1.77,3.13-2.72,2.39-1.84,3.33-2.47,1.6-1,1.6-1-0.52.56-1.34,1.35-2,1.77-3.13,2.72S404.64,31.4,403.7,32,402.09,33,402.09,33Z"/><path d="M406.8,33.41s0.73-.8,1.87-1.94c0.58-.56,1.24-1.23,2-1.91s1.53-1.41,2.33-2.13,1.62-1.41,2.39-2.06,1.52-1.23,2.14-1.74c1.27-1,2.15-1.62,2.15-1.62s-0.72.8-1.87,1.94c-0.58.56-1.24,1.23-2,1.91s-1.53,1.41-2.33,2.13-1.62,1.41-2.39,2.06-1.52,1.23-2.14,1.74C407.68,32.79,406.8,33.41,406.8,33.41Z"/><path d="M409.69,34.2s0.32-.4.84-0.94a23.27,23.27,0,0,1,4.26-3.39c0.64-.38,1.1-0.6,1.1-0.6s-0.32.4-.83,0.94a23.27,23.27,0,0,1-4.26,3.39C410.15,34,409.69,34.2,409.69,34.2Z"/><path d="M559,17.7s-2,.84-5.13,2c-1.55.57-3.35,1.27-5.3,2l-6.1,2.17-6.13,2.08c-2,.67-3.8,1.23-5.37,1.75-3.15,1-5.27,1.61-5.27,1.61s2-.84,5.13-2c1.55-.57,3.35-1.27,5.3-2l6.1-2.17,6.13-2.08c2-.66,3.8-1.23,5.37-1.75C556.88,18.31,559,17.7,559,17.7Z"/><path d="M522.4,33.41s2.73-1,6.85-2.43c2.07-.7,4.46-1.55,7.05-2.4l8.11-2.67,8.14-2.58c2.6-.83,5-1.54,7.12-2.18,4.18-1.25,7-2,7-2s-2.73,1-6.85,2.43c-2.07.7-4.46,1.55-7.05,2.4l-8.11,2.67L536.5,29.2c-2.6.82-5,1.54-7.12,2.18C525.2,32.63,522.4,33.41,522.4,33.41Z"/><path d="M525.7,36.39s3.4-1.28,8.52-3.12l8.77-3.1,10.08-3.48,10.11-3.38L572,20.42c5.18-1.67,8.66-2.72,8.66-2.72s-3.4,1.28-8.52,3.12l-8.77,3.1L553.3,27.4,543.2,30.78l-8.84,2.88C529.17,35.34,525.7,36.39,525.7,36.39Z"/><path d="M540.4,35.89s3.17-1.36,8-3.31l8.19-3.3,9.41-3.7L575.4,22l8.27-3.08c4.85-1.78,8.1-2.91,8.1-2.91s-3.17,1.36-8,3.31l-8.19,3.3-9.41,3.7-9.45,3.61L548.5,33C543.65,34.76,540.4,35.89,540.4,35.89Z"/><path d="M557.6,34.2s2.57-1.25,6.47-3c2-.88,4.22-1.94,6.67-3l7.68-3.39,7.72-3.3c2.46-1.06,4.78-2,6.76-2.81,4-1.63,6.64-2.65,6.64-2.65s-2.57,1.25-6.47,3c-2,.88-4.22,1.94-6.67,3l-7.68,3.39L571,28.73c-2.46,1.05-4.78,2-6.76,2.81C560.27,33.17,557.6,34.2,557.6,34.2Z"/><path d="M559,37.41s1-.68,2.61-1.63c0.8-.46,1.72-1,2.72-1.59s2.08-1.15,3.16-1.74,2.17-1.15,3.2-1.66,2-1,2.83-1.38c1.67-.79,2.81-1.26,2.81-1.26s-1,.69-2.61,1.63c-0.8.46-1.71,1-2.72,1.59s-2.08,1.15-3.16,1.74-2.17,1.15-3.2,1.66-2,1-2.83,1.38C560.14,36.94,559,37.41,559,37.41Z"/><path d="M572.87,35.32s1.92-1.21,4.85-2.94c1.47-.85,3.17-1.88,5-2.92l5.79-3.28L594.36,23c1.86-1,3.63-1.92,5.13-2.72,3-1.57,5.05-2.57,5.05-2.57s-1.92,1.21-4.85,2.94c-1.47.85-3.17,1.88-5,2.92l-5.79,3.28L583.05,30c-1.86,1-3.63,1.92-5.13,2.72C574.91,34.33,572.87,35.32,572.87,35.32Z"/><path d="M574.58,39s1.95-1.43,4.92-3.51c1.49-1,3.22-2.25,5.1-3.51l5.89-4,5.95-3.87c1.9-1.24,3.7-2.35,5.23-3.32,3.07-1.92,5.15-3.16,5.15-3.16s-1.95,1.43-4.92,3.51c-1.49,1-3.22,2.25-5.1,3.51l-5.89,4L585,32.55c-1.9,1.24-3.7,2.35-5.23,3.32C576.66,37.8,574.58,39,574.58,39Z"/><path d="M570.91,43c1,0.61,1.92,1.24,2.85,1.9s1.87,1.31,2.78,2l0.33,0.25-0.3.29c-1.35,1.32-2.7,2.63-4.1,3.89-0.69.64-1.42,1.25-2.12,1.87s-1.44,1.22-2.19,1.8q0.92-1.08,1.9-2.11c0.65-.68,1.29-1.37,2-2,1.32-1.35,2.69-2.64,4.06-3.93l0,0.54q-1.34-1.06-2.64-2.18C572.6,44.55,571.75,43.78,570.91,43Z"/><path d="M569.52,56.32c0.68-.84,1.37-1.66,2.1-2.45s1.44-1.6,2.18-2.37c1.48-1.55,3-3.07,4.56-4.54v0.43c-1.06-1.14-2.12-2.28-3.11-3.48,1.22,1,2.38,2,3.53,3.05l0.22,0.2-0.21.23c-1.45,1.58-3,3.11-4.49,4.61-0.77.75-1.55,1.48-2.35,2.2S570.35,55.63,569.52,56.32Z"/><path d="M579.42,44.46a3.14,3.14,0,0,0,.31.68c0.12,0.22.25,0.43,0.39,0.64l0.8,1.26,0.1,0.15-0.12.17c-0.95,1.32-1.95,2.59-3,3.84a42.82,42.82,0,0,1-3.32,3.56,42.81,42.81,0,0,1,2.77-4c1-1.28,2-2.53,3.11-3.74l0,0.32c-0.23-.45-0.43-0.91-0.62-1.38-0.09-.24-0.18-0.48-0.25-0.72A2.21,2.21,0,0,1,579.42,44.46Z"/><path d="M578,54.75a37.45,37.45,0,0,1,2.42-4q1.32-1.91,2.79-3.71l0,0.26c-0.29-.79-0.55-1.59-0.77-2.41,0.45,0.72.87,1.45,1.26,2.19l0.06,0.12-0.09.14q-1.24,2-2.64,3.82A37.45,37.45,0,0,1,578,54.75Z"/><path d="M585.33,44.46q1,1.47,1.92,3l0.08,0.14-0.11.16c-1,1.5-2,3-3.09,4.4a53.42,53.42,0,0,1-3.43,4.15,53.42,53.42,0,0,1,2.85-4.57c1-1.47,2.08-2.92,3.19-4.32l0,0.31Q586,46.13,585.33,44.46Z"/><path d="M584.5,56.92a44.26,44.26,0,0,1,2-4.71q1.13-2.3,2.44-4.5v0.24c-0.33-.8-0.64-1.62-0.92-2.45,0.49,0.73.95,1.47,1.38,2.22l0.06,0.1-0.06.14q-1,2.34-2.26,4.59A44.12,44.12,0,0,1,584.5,56.92Z"/><path d="M591.77,45.83A22.63,22.63,0,0,1,593,48.09l0,0.09,0,0.13c-0.37,1.2-.8,2.38-1.27,3.54a26.68,26.68,0,0,1-1.66,3.4,26.68,26.68,0,0,1,1-3.65c0.41-1.19.87-2.36,1.38-3.5v0.21A22.64,22.64,0,0,1,591.77,45.83Z"/><path d="M615.32,26.51s-2.71-.32-6.76-0.89c-2-.3-4.39-0.62-6.92-1l-7.92-1.24L585.82,22c-2.52-.43-4.87-0.88-6.88-1.24-4-.75-6.7-1.31-6.7-1.31s2.71,0.32,6.76.89c2,0.3,4.39.62,6.92,1l7.91,1.25,7.9,1.34c2.52,0.43,4.87.88,6.88,1.24C612.65,26,615.32,26.51,615.32,26.51Z"/><path d="M609.5,27.72s-3.1-.38-7.73-1l-7.91-1.16-9-1.41-9-1.51c-2.88-.48-5.57-1-7.87-1.39-4.6-.84-7.66-1.45-7.66-1.45s3.1,0.38,7.73,1c2.31,0.34,5,.71,7.91,1.16l9,1.41,9,1.51,7.87,1.39C606.44,27.1,609.5,27.72,609.5,27.72Z"/><path d="M593.78,30.51s-1.27-.22-3.14-0.64c-0.93-.22-2-0.46-3.19-0.75s-2.4-.62-3.64-1-2.46-.69-3.61-1-2.21-.7-3.13-1c-1.83-.6-3-1.05-3-1.05s1.27,0.22,3.14.64c0.93,0.22,2,.46,3.19.75s2.4,0.62,3.64,1,2.46,0.69,3.61,1,2.21,0.7,3.13,1C592.58,30.06,593.78,30.51,593.78,30.51Z"/><path d="M252.51,44.58s-2.31-.86-5.75-2.23c-1.71-.7-3.72-1.48-5.85-2.38l-6.67-2.8-6.63-2.89c-2.12-.92-4.07-1.83-5.76-2.59-3.36-1.54-5.58-2.62-5.58-2.62s2.31,0.86,5.75,2.23c1.71,0.7,3.72,1.48,5.85,2.38l6.67,2.8,6.63,2.89c2.12,0.92,4.07,1.83,5.76,2.59C250.3,43.5,252.51,44.58,252.51,44.58Z"/><path d="M255.38,43.9s-2.06-1-5.12-2.5c-1.52-.78-3.31-1.65-5.2-2.65l-5.92-3.11-5.88-3.19c-1.88-1-3.6-2-5.09-2.85-3-1.69-4.92-2.87-4.92-2.87s2.06,1,5.12,2.49c1.52,0.78,3.31,1.65,5.2,2.65L239.49,35l5.87,3.19c1.88,1,3.6,2,5.09,2.85C253.43,42.73,255.38,43.9,255.38,43.9Z"/><path d="M259.42,41.4s-1.69-.66-4.19-1.74c-1.24-.55-2.71-1.16-4.26-1.87l-4.84-2.22-4.8-2.31c-1.53-.73-2.94-1.47-4.16-2.08-2.42-1.24-4-2.12-4-2.12s1.69,0.66,4.2,1.74c1.24,0.55,2.71,1.16,4.26,1.87l4.84,2.22,4.8,2.31c1.53,0.74,2.94,1.47,4.16,2.08C257.83,40.52,259.42,41.4,259.42,41.4Z"/><path d="M234.39,26.75s2.25,0.93,5.57,2.39c1.66,0.75,3.61,1.59,5.67,2.55l6.47,3,6.42,3.08c2.05,1,3.94,1.95,5.57,2.75,3.25,1.63,5.4,2.78,5.4,2.78s-2.25-.92-5.58-2.39c-1.66-.75-3.61-1.59-5.67-2.55l-6.47-3-6.42-3.08c-2.05-1-3.94-1.95-5.57-2.75C236.54,27.89,234.39,26.75,234.39,26.75Z"/><path d="M255.38,33.41s1.48,0.51,3.67,1.35c1.09,0.43,2.37.92,3.72,1.47S265.57,37.4,267,38s2.86,1.25,4.2,1.85,2.57,1.2,3.63,1.69c2.12,1,3.5,1.74,3.5,1.74s-1.48-.51-3.67-1.35c-1.09-.43-2.37-0.91-3.72-1.47s-2.79-1.16-4.23-1.77-2.86-1.25-4.2-1.85-2.57-1.2-3.63-1.69C256.77,34.14,255.38,33.41,255.38,33.41Z"/><path d="M113.17,108s0.15-.91.46-2.25,0.78-3.11,1.31-4.86,1.12-3.48,1.61-4.77,0.87-2.13.87-2.13-0.15.91-.46,2.25-0.78,3.11-1.31,4.86-1.13,3.48-1.61,4.77S113.17,108,113.17,108Z"/><path d="M115.29,110s0.15-.75.46-1.84,0.77-2.53,1.3-4,1.11-2.81,1.6-3.84,0.86-1.7.86-1.7-0.15.75-.46,1.85-0.77,2.53-1.3,3.95-1.11,2.81-1.6,3.84S115.29,110,115.29,110Z"/><path d="M118.15,110s0.25-.92.7-2.28c0.24-.67.5-1.46,0.81-2.3s0.66-1.72,1-2.6,0.73-1.75,1.1-2.56,0.73-1.56,1-2.21c0.62-1.28,1.09-2.12,1.09-2.12s-0.25.92-.7,2.28c-0.24.67-.49,1.46-0.81,2.3s-0.66,1.72-1,2.6-0.73,1.75-1.1,2.56-0.73,1.56-1,2.21C118.62,109.17,118.15,110,118.15,110Z"/><path d="M441.13,66.21s-0.53,1.21-1.4,3c-0.45.88-.94,1.92-1.52,3s-1.19,2.25-1.82,3.4-1.28,2.3-1.9,3.36-1.22,2-1.73,2.89c-1,1.68-1.77,2.78-1.77,2.78s0.53-1.21,1.4-3c0.45-.88.94-1.92,1.52-3s1.19-2.25,1.82-3.4,1.28-2.3,1.9-3.36,1.22-2,1.73-2.89C440.39,67.3,441.13,66.21,441.13,66.21Z"/><path d="M443,66.26s-0.51,1.41-1.35,3.48c-0.43,1-.92,2.25-1.47,3.53s-1.16,2.65-1.77,4-1.25,2.71-1.85,4-1.2,2.43-1.69,3.43c-1,2-1.74,3.31-1.74,3.31s0.51-1.41,1.35-3.48c0.43-1,.91-2.25,1.47-3.53s1.16-2.65,1.77-4,1.25-2.71,1.85-4,1.2-2.43,1.69-3.43C442.27,67.56,443,66.26,443,66.26Z"/><path d="M445.5,66.11s-0.3,1-.84,2.58c-0.28.76-.58,1.66-1,2.61s-0.77,2-1.17,3-0.84,2-1.26,2.92-0.83,1.78-1.17,2.52c-0.7,1.47-1.23,2.42-1.23,2.42s0.3-1,.84-2.58c0.28-.76.58-1.66,1-2.61s0.77-2,1.18-3,0.84-2,1.26-2.92,0.83-1.78,1.17-2.52C445,67.07,445.5,66.11,445.5,66.11Z"/><path d="M447.53,66.36s0,0.47-.11,1.16a19.77,19.77,0,0,1-1.4,4.82c-0.29.63-.52,1-0.52,1s0-.47.11-1.16A19.77,19.77,0,0,1,447,67.4C447.29,66.77,447.53,66.36,447.53,66.36Z"/><path d="M449.38,67.06s-0.13.83-.4,2.06-0.7,2.85-1.18,4.45-1,3.18-1.48,4.36-0.81,1.94-.81,1.94,0.13-.83.4-2.06,0.7-2.85,1.18-4.45,1-3.18,1.49-4.36S449.38,67.06,449.38,67.06Z"/><path d="M451.88,67.06s0,0.56-.19,1.37A28.18,28.18,0,0,1,450,74.17c-0.33.76-.6,1.24-0.6,1.24s0-.56.18-1.37a28.18,28.18,0,0,1,1.72-5.74C451.61,67.55,451.88,67.06,451.88,67.06Z"/><path d="M454.25,66.52a4.6,4.6,0,0,1,0,.7,6.73,6.73,0,0,1-.74,2.82,4.54,4.54,0,0,1-.38.59,4.53,4.53,0,0,1,0-.7,6.73,6.73,0,0,1,.74-2.82A4.6,4.6,0,0,1,454.25,66.52Z"/><path d="M455.5,66.52s0,0.81-.15,2-0.35,2.8-.64,4.39-0.65,3.16-1,4.33-0.58,1.94-.58,1.94,0-.81.15-2,0.36-2.8.64-4.39,0.65-3.16,1-4.33S455.5,66.52,455.5,66.52Z"/><path d="M457.67,66.6s-0.06.77-.23,1.9-0.46,2.63-.8,4.11-0.76,2.95-1.11,4-0.65,1.8-.65,1.8,0.06-.77.23-1.9,0.46-2.63.8-4.11,0.76-2.95,1.12-4S457.67,66.6,457.67,66.6Z"/><path d="M459.67,66.65s0,0.56-.19,1.39a29.2,29.2,0,0,1-1.75,5.85c-0.33.77-.6,1.27-0.6,1.27s0-.57.19-1.39a29.2,29.2,0,0,1,1.75-5.85C459.4,67.15,459.67,66.65,459.67,66.65Z"/><path d="M432.33,71.24s3-.12,7.45-0.21c2.23,0,4.84-.1,7.63-0.11l8.75,0,8.75,0.05c2.79,0,5.4.09,7.63,0.12,4.47,0.09,7.45.21,7.45,0.21s-3,.12-7.45.21c-2.23,0-4.84.1-7.63,0.11l-8.75,0-8.75-.05c-2.79,0-5.4-.09-7.63-0.12C435.31,71.36,432.33,71.24,432.33,71.24Z"/><path d="M433.13,73.47s2-.12,5.12-0.21c1.54,0,3.33-.1,5.25-0.11l6,0,6,0c1.92,0,3.71.08,5.25,0.11,3.07,0.09,5.12.21,5.12,0.21s-2,.12-5.12.21c-1.54,0-3.33.1-5.25,0.11l-6,0-6,0c-1.92,0-3.71-.08-5.25-0.11C435.17,73.59,433.13,73.47,433.13,73.47Z"/><path d="M427.38,75.42s2.16-.12,5.39-0.21c1.62,0,3.5-.1,5.53-0.11l6.33,0,6.33,0c2,0,3.91.08,5.53,0.11,3.23,0.09,5.39.21,5.39,0.21s-2.16.12-5.39,0.21c-1.62,0-3.5.1-5.53,0.11l-6.33,0-6.33,0c-2,0-3.91-.08-5.53-0.11C429.53,75.54,427.38,75.42,427.38,75.42Z"/><path d="M495.85,107.37s3.37,0.17,8.42.51l8.62,0.62,9.87,0.79,9.86,0.89c3.15,0.28,6.08.6,8.6,0.85,5,0.52,8.38.93,8.38,0.93s-3.37-.17-8.42-0.51c-2.52-.18-5.47-0.37-8.62-0.62l-9.87-.8-9.86-.89-8.6-.85C499.2,107.78,495.85,107.37,495.85,107.37Z"/><path d="M492.63,104.09s2.84,0.13,7.1.42c2.13,0.16,4.61.31,7.27,0.54l8.32,0.7,8.31,0.79c2.65,0.25,5.13.54,7.25,0.76,4.24,0.47,7.06.84,7.06,0.84s-2.84-.13-7.1-0.42c-2.13-.16-4.61-0.31-7.27-0.54l-8.32-.7-8.31-.79c-2.65-.25-5.13-0.54-7.25-0.76C495.45,104.46,492.63,104.09,492.63,104.09Z"/><path d="M490,99.91s3.44,0.2,8.58.59l8.79,0.71,10.06,0.89,10.06,1,8.77,0.93c5.13,0.57,8.54,1,8.54,1s-3.44-.2-8.58-0.59l-8.79-.71-10.06-.89-10.06-1-8.77-.93C493.41,100.35,490,99.91,490,99.91Z"/><path d="M495.85,97.43s2.05,0,5.12.18c1.54,0.09,3.33.15,5.25,0.28l6,0.41,6,0.5c1.91,0.16,3.7.36,5.23,0.51,3.06,0.32,5.09.6,5.09,0.6s-2.05,0-5.12-.18c-1.54-.09-3.33-0.15-5.25-0.28l-6-.41-6-.51c-1.91-.16-3.7-0.36-5.23-0.51C497.88,97.71,495.85,97.43,495.85,97.43Z"/><path d="M502.5,96.31s2.12,0,5.29,0c1.59,0,3.44,0,5.42.06l6.21,0.16,6.2,0.25c2,0.08,3.83.21,5.41,0.29,3.17,0.2,5.28.39,5.28,0.39s-2.12.05-5.29,0c-1.59,0-3.44,0-5.42-.06l-6.21-.16-6.2-.26c-2-.08-3.83-0.21-5.41-0.29C504.61,96.5,502.5,96.31,502.5,96.31Z"/><path d="M498,93.58s3.23,0,8.06,0l8.26,0.14L523.83,94l9.47,0.35c3,0.11,5.84.27,8.26,0.37,4.83,0.24,8.05.46,8.05,0.46s-3.23,0-8.06,0c-2.42,0-5.24-.06-8.26-0.15l-9.47-.25-9.47-.35L506.09,94C501.25,93.8,498,93.58,498,93.58Z"/><path d="M520.75,100.76s1.36,0,3.39.05c1,0,2.2.07,3.47,0.15s2.62,0.17,4,.26,2.7,0.22,4,.35,2.44,0.28,3.45.39c2,0.25,3.36.47,3.36,0.47s-1.36,0-3.39-.05c-1,0-2.2-.07-3.47-0.15s-2.62-.17-4-0.26-2.7-.22-4-0.35-2.44-.28-3.45-0.39C522.09,101,520.75,100.76,520.75,100.76Z"/><path d="M559,81.55s1.23,0.62,3,1.62c0.89,0.51,1.94,1.09,3,1.74s2.27,1.36,3.44,2.07,2.32,1.45,3.4,2.15,2.06,1.38,2.92,1.94c1.7,1.15,2.8,2,2.8,2s-1.23-.62-3-1.62c-0.89-.51-1.94-1.08-3-1.74s-2.27-1.36-3.44-2.07-2.32-1.45-3.39-2.15-2.06-1.37-2.92-1.94C560.1,82.37,559,81.55,559,81.55Z"/><path d="M562.67,81.55s1.19,0.62,2.93,1.62c0.86,0.51,1.88,1.09,2.95,1.74s2.2,1.36,3.33,2.07,2.24,1.45,3.28,2.15,2,1.37,2.82,1.94c1.64,1.15,2.7,2,2.7,2s-1.19-.62-2.93-1.62c-0.86-.51-1.88-1.09-2.95-1.74s-2.2-1.36-3.33-2.07-2.24-1.45-3.28-2.15-2-1.37-2.82-1.94C563.73,82.37,562.67,81.55,562.67,81.55Z"/><path d="M568.31,83.4s1,0.43,2.4,1.16c0.7,0.37,1.54.79,2.41,1.27s1.8,1,2.72,1.54,1.83,1.09,2.67,1.62,1.62,1,2.29,1.48C582.14,91.36,583,92,583,92s-1-.43-2.4-1.16c-0.7-.37-1.54-0.79-2.41-1.27s-1.8-1-2.72-1.54-1.83-1.09-2.67-1.62-1.62-1-2.29-1.48C569.17,84,568.31,83.4,568.31,83.4Z"/><path d="M566.66,79.21s1.23,0.7,3,1.83c0.89,0.57,1.94,1.22,3,2s2.27,1.52,3.44,2.31,2.32,1.61,3.39,2.39,2.06,1.52,2.91,2.15c1.69,1.27,2.78,2.17,2.78,2.17s-1.23-.7-3-1.82c-0.89-.57-1.94-1.22-3-2s-2.27-1.52-3.44-2.31-2.32-1.61-3.39-2.39-2.06-1.52-2.91-2.15C567.76,80.11,566.66,79.21,566.66,79.21Z"/><path d="M570.91,79.21s1.11,0.7,2.72,1.83c0.8,0.57,1.74,1.22,2.73,2s2,1.52,3.07,2.31,2.07,1.61,3,2.38,1.83,1.52,2.58,2.14c1.5,1.27,2.46,2.17,2.46,2.17s-1.11-.7-2.72-1.83c-0.8-.57-1.74-1.22-2.73-2s-2-1.52-3.07-2.31-2.07-1.61-3-2.38-1.83-1.52-2.58-2.14C571.87,80.1,570.91,79.21,570.91,79.21Z"/><path d="M572.87,78.46s1.23,0.75,3,1.95c0.89,0.61,1.94,1.3,3,2.07s2.26,1.61,3.43,2.45,2.31,1.7,3.37,2.52,2,1.6,2.9,2.27c1.68,1.34,2.77,2.29,2.77,2.29s-1.23-.75-3-1.95c-0.89-.61-1.94-1.3-3-2.07s-2.26-1.61-3.43-2.45-2.31-1.7-3.37-2.52-2-1.6-2.9-2.27C574,79.4,572.87,78.46,572.87,78.46Z"/><path d="M576.33,78.46s1.19,0.75,2.93,1.95c0.86,0.61,1.88,1.3,2.94,2.07s2.19,1.61,3.32,2.45,2.23,1.7,3.26,2.52,2,1.6,2.8,2.26c1.63,1.34,2.67,2.28,2.67,2.28s-1.19-.75-2.93-1.95c-0.86-.61-1.88-1.3-2.94-2.07s-2.19-1.61-3.32-2.45-2.23-1.7-3.26-2.52-2-1.6-2.8-2.26C577.38,79.4,576.33,78.46,576.33,78.46Z"/><path d="M580.67,78.46s1.16,0.75,2.86,2c0.84,0.61,1.83,1.3,2.87,2.08s2.14,1.61,3.23,2.45,2.17,1.7,3.18,2.52,1.92,1.6,2.72,2.26c1.58,1.34,2.6,2.28,2.6,2.28s-1.17-.75-2.86-1.95c-0.84-.61-1.83-1.3-2.87-2.07s-2.14-1.61-3.23-2.45S587,83.82,586,83s-1.92-1.6-2.72-2.26C581.68,79.4,580.67,78.46,580.67,78.46Z"/><path d="M582.13,76.2s0.91,0.63,2.22,1.64c0.65,0.51,1.42,1.1,2.21,1.75S588.2,81,589,81.67s1.66,1.45,2.42,2.14,1.45,1.37,2.06,1.93c1.19,1.15,1.94,2,1.94,2s-0.91-.63-2.22-1.64c-0.65-.51-1.42-1.09-2.21-1.75s-1.64-1.36-2.47-2.08-1.66-1.45-2.42-2.15-1.45-1.37-2.06-1.93C582.89,77,582.13,76.2,582.13,76.2Z"/><path d="M588.79,78.46s0.81,0.56,2,1.47c0.57,0.46,1.25,1,2,1.58s1.44,1.23,2.18,1.88,1.46,1.31,2.12,1.95,1.27,1.24,1.8,1.76c1,1,1.69,1.79,1.69,1.79s-0.81-.56-2-1.47c-0.57-.46-1.25-1-2-1.58s-1.44-1.23-2.18-1.88-1.45-1.31-2.12-1.95-1.27-1.24-1.8-1.76C589.44,79.2,588.79,78.46,588.79,78.46Z"/><path d="M588,75.15s1.11,0.81,2.72,2.09c0.8,0.65,1.74,1.39,2.72,2.21s2,1.71,3.06,2.6,2.05,1.81,3,2.67,1.81,1.69,2.56,2.39c1.49,1.41,2.44,2.4,2.44,2.4s-1.11-.81-2.72-2.09c-0.79-.65-1.74-1.39-2.72-2.21s-2-1.71-3.06-2.6-2.05-1.81-3-2.67-1.81-1.69-2.56-2.39C589,76.14,588,75.15,588,75.15Z"/><path d="M615.32,138.19s1.14,0.64,2.79,1.69c0.82,0.53,1.79,1.13,2.8,1.81s2.09,1.41,3.16,2.15,2.13,1.5,3.11,2.22,1.89,1.42,2.67,2c1.55,1.19,2.55,2,2.55,2s-1.14-.64-2.79-1.68c-0.82-.53-1.79-1.13-2.8-1.81s-2.09-1.41-3.16-2.15-2.13-1.5-3.11-2.22-1.89-1.42-2.67-2C616.32,139,615.32,138.19,615.32,138.19Z"/><path d="M619,136.84s0.73,0.36,1.78,1,2.42,1.47,3.75,2.38,2.63,1.88,3.57,2.64,1.54,1.32,1.54,1.32-0.73-.36-1.79-1-2.42-1.47-3.75-2.38-2.62-1.88-3.57-2.64S619,136.84,619,136.84Z"/><path d="M621.62,134.85s0.82,0.41,2,1.09,2.74,1.64,4.26,2.65,3,2.08,4.08,2.91,1.78,1.44,1.78,1.44-0.82-.41-2-1.08-2.74-1.64-4.26-2.65-3-2.08-4.08-2.91S621.62,134.85,621.62,134.85Z"/><path d="M625.59,132.74s0.65,0.24,1.6.67,2.17,1.05,3.36,1.73,2.36,1.42,3.21,2,1.39,1,1.39,1-0.65-.24-1.6-0.66-2.17-1.06-3.36-1.73-2.36-1.42-3.2-2S625.59,132.74,625.59,132.74Z"/><path d="M629.67,131.53s0.61,0.32,1.48.87,2,1.33,3.08,2.16,2.13,1.71,2.88,2.41,1.22,1.21,1.22,1.21-0.61-.32-1.49-0.87-2-1.33-3.08-2.16-2.13-1.72-2.88-2.42S629.67,131.53,629.67,131.53Z"/><path d="M445.5,30.51s0.81-.12,2-0.21,2.82-.16,4.43-0.16,3.22,0.06,4.43.16,2,0.22,2,.22-0.81.12-2,.22-2.82.16-4.43,0.16-3.22-.07-4.43-0.16S445.5,30.51,445.5,30.51Z"/><path d="M438.88,31.74s2.07-.12,5.16-0.21c1.55,0,3.36-.1,5.29-0.11l6.07,0,6.07,0c1.94,0,3.74.08,5.29,0.11,3.1,0.09,5.16.21,5.16,0.21s-2.07.12-5.16,0.21c-1.55,0-3.36.1-5.29,0.11l-6.07,0-6.07,0c-1.94,0-3.74-.08-5.29-0.11C440.94,31.86,438.88,31.74,438.88,31.74Z"/><path d="M434.53,33.41s3.08-.12,7.71-0.21c2.31,0,5-.1,7.9-0.11l9.06,0,9.06,0c2.89,0,5.59.08,7.9,0.11,4.63,0.09,7.71.21,7.71,0.21s-3.08.12-7.71,0.21c-2.31,0-5,.1-7.9.11l-9.06,0-9.06,0c-2.89,0-5.59-.08-7.9-0.11C437.62,33.53,434.53,33.41,434.53,33.41Z"/><path d="M428.62,35.3s1.49-.16,3.73-0.3c1.12-.06,2.42-0.15,3.82-0.21s2.89-.11,4.38-0.15,3-.06,4.38-0.06,2.71,0,3.83,0c2.24,0,3.74.12,3.74,0.12s-1.49.16-3.73,0.3c-1.12.06-2.42,0.15-3.82,0.21s-2.89.11-4.38,0.15-3,.06-4.38.06-2.71,0-3.83,0C430.11,35.38,428.62,35.3,428.62,35.3Z"/><path d="M429.24,36.39s3.79-.21,9.49-0.42l9.73-.33,11.15-.3,11.16-.2L480.5,35c5.7,0,9.5,0,9.5,0s-3.79.21-9.49,0.43l-9.73.33-11.15.3-11.16.2-9.73.11C433,36.42,429.24,36.39,429.24,36.39Z"/><path d="M429.24,39s2.49-.12,6.21-0.21c1.86,0,4-.1,6.37-0.11l7.3,0,7.3,0c2.33,0,4.5.08,6.37,0.11C466.51,38.91,469,39,469,39s-2.49.12-6.21,0.21c-1.86,0-4,.1-6.37.11l-7.3,0-7.3,0c-2.33,0-4.5-.08-6.37-0.11C431.72,39.15,429.24,39,429.24,39Z"/><path d="M418.71,41.4l3-.06,7.79-.15,11-.11,12.63,0,12.63,0,11,0.11c3.22,0,5.91.12,7.79,0.15l3,0.06-3,.06c-1.88,0-4.57.12-7.79,0.15l-11,.11-12.63,0-12.63,0-11-.11-7.79-.15Z"/><path d="M425.21,43l2.9-.06,7.64-.15,10.8-.11,12.38,0,12.38,0,10.8,0.11c3.16,0,5.79.12,7.64,0.15l2.9,0.06-2.9.06c-1.84,0-4.48.12-7.64,0.15l-10.8.11-12.38,0-12.38,0-10.8-.11-7.64-.15Z"/><path d="M424.25,45.42s1.88-.12,4.7-0.21c1.41,0,3.06-.1,4.82-0.11l5.52,0,5.52,0c1.76,0,3.41.08,4.82,0.11,2.82,0.09,4.7.21,4.7,0.21s-1.88.12-4.7,0.21c-1.41,0-3.06.1-4.82,0.11l-5.52,0-5.52,0c-1.76,0-3.41-.08-4.82-0.11C426.13,45.54,424.25,45.42,424.25,45.42Z"/><path d="M625.59,64.15s1.11-.19,2.79-0.38c0.84-.08,1.82-0.21,2.87-0.3s2.17-.17,3.29-0.25,2.24-.13,3.3-0.16,2,0,2.88-.06c1.69,0,2.82,0,2.82,0s-1.11.19-2.79,0.38c-0.84.08-1.82,0.21-2.87,0.3s-2.17.17-3.29,0.25-2.24.12-3.3,0.16-2,0-2.88.06C626.72,64.2,625.59,64.15,625.59,64.15Z"/><path d="M621.41,66.67s1.45-.14,3.64-0.26c1.09,0,2.36-.13,3.73-0.17s2.82-.08,4.28-0.1,2.91,0,4.28,0,2.64,0.05,3.73.07c2.18,0.06,3.64.16,3.64,0.16s-1.45.14-3.64,0.26c-1.09,0-2.36.13-3.73,0.17s-2.82.07-4.28,0.1-2.91,0-4.28,0-2.64-.05-3.73-0.07C622.86,66.77,621.41,66.67,621.41,66.67Z"/><path d="M618,68.93s1.45-.12,3.62-0.21c1.09,0,2.36-.1,3.71-0.12s2.81,0,4.26,0,2.9,0,4.26,0,2.63,0.09,3.71.12c2.17,0.09,3.62.21,3.62,0.21s-1.45.12-3.62,0.21c-1.09,0-2.36.1-3.71,0.12s-2.81,0-4.26,0-2.9,0-4.26,0-2.63-.09-3.71-0.12C619.46,69,618,68.93,618,68.93Z"/><path d="M618,70.63s1-.12,2.59-0.21c0.78,0,1.68-.1,2.65-0.12s2,0,3,0,2.07,0,3,0,1.88,0.09,2.65.12c1.55,0.09,2.59.21,2.59,0.21s-1,.12-2.59.21c-0.78,0-1.68.1-2.65,0.12s-2,0-3,0-2.07,0-3,0-1.87-.09-2.65-0.12C619,70.74,618,70.63,618,70.63Z"/><path d="M621.62,73.38s0.85-.12,2.11-0.21,3-.16,4.65-0.16,3.38,0.06,4.65.16,2.11,0.22,2.11.22-0.85.12-2.11,0.22-3,.16-4.65.16-3.38-.07-4.65-0.16S621.62,73.38,621.62,73.38Z"/><path d="M303.5,98.67s1.09,0.49,2.68,1.3c0.79,0.42,1.72.88,2.7,1.41s2,1.12,3.05,1.7,2.06,1.2,3,1.78,1.83,1.15,2.58,1.62c1.5,1,2.47,1.66,2.47,1.66s-1.09-.49-2.68-1.3c-0.79-.42-1.72-0.88-2.7-1.41s-2-1.12-3.05-1.7-2.06-1.2-3-1.78-1.83-1.15-2.58-1.62C304.47,99.37,303.5,98.67,303.5,98.67Z"/><path d="M314,100.76s0.86,0.41,2.09,1.11c0.61,0.36,1.34.76,2.09,1.22s1.55,1,2.35,1.47,1.58,1,2.3,1.55,1.39,1,2,1.42c1.14,0.85,1.86,1.46,1.86,1.46s-0.86-.41-2.09-1.11c-0.61-.36-1.34-0.76-2.09-1.22s-1.55-1-2.35-1.48-1.58-1-2.3-1.55-1.39-1-2-1.42C314.73,101.38,314,100.76,314,100.76Z"/><path d="M317.93,100.76s0.85,0.36,2.1,1,2.87,1.48,4.46,2.4,3.15,1.9,4.3,2.68,1.88,1.34,1.88,1.34-0.85-.36-2.1-1-2.87-1.48-4.46-2.4-3.15-1.9-4.3-2.68S317.93,100.76,317.93,100.76Z"/><path d="M301.94,103.41s1.35-.28,3.38-0.62c1-.16,2.2-0.36,3.48-0.54s2.64-.36,4-0.53,2.73-.32,4-0.44,2.48-.21,3.51-0.31c2.06-.16,3.43-0.2,3.43-0.2s-1.35.29-3.38,0.62c-1,.16-2.2.37-3.48,0.54s-2.64.36-4,.53-2.73.32-4,.44-2.48.21-3.51,0.31C303.31,103.36,301.94,103.41,301.94,103.41Z"/><path d="M308,106.12s2.08-.51,5.23-1.18c1.57-.32,3.4-0.73,5.38-1.11l6.18-1.19,6.2-1.09c2-.35,3.83-0.62,5.42-0.88,3.18-.49,5.3-0.76,5.3-0.76s-2.08.51-5.23,1.18c-1.57.32-3.4,0.73-5.38,1.11l-6.18,1.19-6.2,1.09c-2,.35-3.83.62-5.42,0.88C310.13,105.85,308,106.12,308,106.12Z"/><path d="M312.67,107.37s1-.26,2.56-0.57c0.77-.14,1.67-0.33,2.64-0.49s2-.32,3-0.47,2.07-.28,3.05-0.39,1.89-.18,2.67-0.26c1.57-.13,2.62-0.16,2.62-0.16s-1,.27-2.56.57c-0.77.14-1.67,0.33-2.64,0.49s-2,.32-3,0.47-2.07.28-3.05,0.38-1.89.18-2.67,0.26C313.72,107.35,312.67,107.37,312.67,107.37Z"/><path d="M509.83,133.94s0.62,0.81,1.48,2.06c0.42,0.63.93,1.36,1.44,2.16s1,1.66,1.57,2.52,1,1.74,1.49,2.57,0.87,1.62,1.23,2.28c0.7,1.35,1.12,2.28,1.12,2.28s-0.62-.8-1.48-2.06c-0.42-.63-0.93-1.36-1.44-2.16s-1-1.66-1.57-2.52-1-1.74-1.49-2.57-0.87-1.62-1.23-2.28C510.25,134.87,509.83,133.94,509.83,133.94Z"/><path d="M514,133.94s0.65,0.89,1.55,2.26c0.44,0.69,1,1.49,1.5,2.36s1.09,1.81,1.64,2.75,1.08,1.9,1.56,2.8,0.91,1.76,1.29,2.48c0.74,1.46,1.18,2.47,1.18,2.47s-0.65-.88-1.55-2.26c-0.44-.69-1-1.49-1.5-2.36s-1.09-1.81-1.64-2.75-1.08-1.9-1.56-2.8-0.91-1.76-1.29-2.48C514.44,134.95,514,133.94,514,133.94Z"/><path d="M516.49,133s0.68,0.89,1.62,2.26c0.46,0.69,1,1.49,1.58,2.37s1.15,1.82,1.73,2.76,1.14,1.9,1.65,2.81,1,1.76,1.37,2.49c0.79,1.47,1.26,2.48,1.26,2.48s-0.68-.88-1.62-2.26c-0.46-.69-1-1.49-1.58-2.37s-1.15-1.82-1.73-2.76-1.14-1.9-1.65-2.81-1-1.76-1.37-2.49C517,134,516.49,133,516.49,133Z"/><path d="M520.75,133s0.67,0.86,1.59,2.2c0.45,0.68,1,1.45,1.55,2.31s1.13,1.77,1.7,2.69,1.12,1.86,1.62,2.74,1,1.72,1.35,2.43c0.77,1.43,1.23,2.42,1.23,2.42s-0.67-.86-1.59-2.2c-0.45-.68-1-1.45-1.55-2.31s-1.13-1.77-1.7-2.69-1.12-1.86-1.62-2.74-1-1.72-1.35-2.43C521.21,134,520.75,133,520.75,133Z"/><path d="M525.27,132.23s0.62,0.8,1.47,2.06c0.42,0.63.92,1.36,1.43,2.16s1,1.66,1.56,2.52,1,1.74,1.48,2.56,0.86,1.61,1.22,2.28c0.7,1.34,1.11,2.27,1.11,2.27s-0.62-.8-1.47-2.05c-0.42-.63-0.92-1.36-1.43-2.16s-1-1.66-1.56-2.52-1-1.74-1.48-2.56-0.86-1.61-1.22-2.28C525.68,133.15,525.27,132.23,525.27,132.23Z"/><path d="M528.55,132.23s0.51,0.64,1.21,1.64,1.57,2.37,2.39,3.77,1.58,2.83,2.11,3.93,0.84,1.86.84,1.86-0.51-.64-1.21-1.64-1.57-2.37-2.39-3.77-1.58-2.84-2.11-3.93S528.55,132.23,528.55,132.23Z"/><path d="M113.6,58.55l0.31,0.15c0.2,0.1.45,0.26,0.76,0.46a9.66,9.66,0,0,1,1,.76c0.33,0.31.66,0.67,1,1,1.37,1.36,2.7,2.77,2.7,2.77l0,0.06s-1.55-1.16-3.05-2.38c-0.38-.3-0.77-0.59-1.12-0.88a9.66,9.66,0,0,1-.86-0.89c-0.23-.29-0.42-0.52-0.54-0.71s-0.18-.29-0.18-0.29Z"/><path d="M115.29,55.67s0.55,0.29,1.34.78,1.78,1.21,2.75,2,1.89,1.57,2.55,2.22S123,61.76,123,61.76s-0.55-.29-1.34-0.78-1.78-1.21-2.75-2-1.89-1.57-2.55-2.22S115.29,55.67,115.29,55.67Z"/><path d="M116.45,54.14s0.81,0.44,2,1.17,2.68,1.75,4.17,2.82,2.92,2.2,4,3.08,1.72,1.52,1.72,1.52-0.81-.44-2-1.17-2.68-1.75-4.16-2.82-2.92-2.2-4-3.08S116.45,54.14,116.45,54.14Z"/><path d="M118.75,50.35s0.78,0.59,1.88,1.54c0.54,0.48,1.19,1,1.86,1.64s1.37,1.28,2.07,2,1.38,1.36,2,2,1.2,1.29,1.69,1.82c1,1.08,1.58,1.84,1.58,1.84s-0.78-.59-1.88-1.54c-0.54-.48-1.19-1-1.86-1.64s-1.37-1.28-2.07-2-1.38-1.36-2-2-1.2-1.29-1.69-1.82C119.36,51.11,118.75,50.35,118.75,50.35Z"/><path d="M122.08,49.31s0.69,0.59,1.67,1.53,2.23,2.23,3.44,3.57,2.37,2.72,3.2,3.78S131.75,60,131.75,60s-0.69-.59-1.67-1.53-2.23-2.23-3.44-3.57-2.37-2.72-3.2-3.78S122.08,49.31,122.08,49.31Z"/><path d="M126.95,50.33s0.15,0.12.4,0.36,0.59,0.57,1,1,0.83,0.93,1.29,1.49,0.87,1.2,1.32,1.83c1.82,2.47,3.59,5,3.59,5l-0.06,0s-2-2.31-4-4.66c-0.5-.58-1-1.16-1.46-1.72s-0.83-1.12-1.14-1.6-0.57-.9-0.73-1.2-0.25-.47-0.25-0.47Z"/><path d="M148.5,94s0.38,1.25.87,3.14c0.23,0.95.53,2.05,0.8,3.24s0.55,2.46.82,3.73,0.52,2.55.74,3.75,0.4,2.33.56,3.29c0.31,1.93.46,3.23,0.46,3.23s-0.38-1.25-.87-3.14c-0.23-.95-0.53-2.05-0.8-3.24s-0.55-2.46-.82-3.73-0.52-2.55-.74-3.75-0.4-2.33-.56-3.29C148.65,95.3,148.5,94,148.5,94Z"/><path d="M153.54,92.29s0.53,1.42,1.23,3.57c0.34,1.08.76,2.33,1.17,3.69s0.83,2.8,1.25,4.26,0.81,2.91,1.17,4.28,0.66,2.66.94,3.76c0.53,2.2.83,3.69,0.83,3.69s-0.53-1.42-1.23-3.57c-0.34-1.08-.76-2.33-1.17-3.69s-0.83-2.8-1.25-4.26-0.81-2.91-1.17-4.28-0.66-2.66-.94-3.76C153.83,93.78,153.54,92.29,153.54,92.29Z"/><path d="M157.4,91.25s0.79,1.6,1.9,4c0.54,1.22,1.2,2.64,1.86,4.17l2.06,4.82,2,4.85c0.63,1.55,1.16,3,1.65,4.26,0.94,2.5,1.51,4.2,1.51,4.2s-0.8-1.6-1.9-4c-0.54-1.22-1.21-2.64-1.86-4.17l-2.05-4.82-2-4.85c-0.63-1.55-1.16-3-1.65-4.26C158,92.94,157.4,91.25,157.4,91.25Z"/><path d="M161.88,90.8s1.06,1.7,2.56,4.29c0.74,1.3,1.63,2.8,2.54,4.44l2.83,5.13,2.75,5.18c0.88,1.65,1.65,3.22,2.33,4.55,1.35,2.68,2.19,4.49,2.19,4.49s-1.06-1.7-2.56-4.29c-0.74-1.3-1.63-2.8-2.54-4.44L169.15,105l-2.75-5.18c-0.88-1.65-1.65-3.22-2.33-4.55C162.72,92.61,161.88,90.8,161.88,90.8Z"/><path d="M143.86,94.91s0.11,1.19.19,3c0,0.89.08,1.93,0.09,3s0,2.3,0,3.49,0,2.38-.07,3.49-0.1,2.15-.14,3c-0.11,1.78-.24,3-0.24,3s-0.11-1.19-.19-3c0-.89-0.08-1.93-0.09-3s0-2.3,0-3.49,0-2.38.07-3.49,0.1-2.15.14-3C143.73,96.1,143.86,94.91,143.86,94.91Z"/><path d="M312.67,67.44s0.2,1.22.42,3.07c0.1,0.92.23,2,.33,3.15s0.2,2.39.29,3.62,0.15,2.47.2,3.62,0.06,2.24.09,3.17c0,1.86,0,3.1,0,3.1s-0.2-1.22-.42-3.07c-0.1-.92-0.23-2-0.33-3.15s-0.2-2.39-.29-3.62-0.15-2.47-.2-3.62-0.07-2.24-.09-3.17C312.63,68.68,312.67,67.44,312.67,67.44Z"/><path d="M314.86,67.49s0.33,1.27.75,3.19c0.19,1,.45,2.08.67,3.28s0.46,2.49.68,3.78,0.42,2.58.59,3.79,0.31,2.35.44,3.32c0.24,1.95.33,3.26,0.33,3.26s-0.34-1.27-.75-3.19c-0.19-1-.45-2.08-0.67-3.28s-0.45-2.49-.68-3.78-0.42-2.58-.59-3.79-0.31-2.35-.44-3.32C315,68.8,314.86,67.49,314.86,67.49Z"/><path d="M318.32,67.58s0.53,1.29,1.24,3.24c0.34,1,.77,2.12,1.18,3.35S321.59,76.73,322,78s0.82,2.65,1.18,3.9,0.67,2.42,1,3.43c0.54,2,.84,3.37.84,3.37s-0.53-1.29-1.25-3.24c-0.34-1-.77-2.12-1.18-3.35s-0.84-2.55-1.27-3.87-0.82-2.65-1.18-3.9-0.67-2.42-1-3.43C318.62,68.94,318.32,67.58,318.32,67.58Z"/><path d="M320.33,72.53s2-.1,5-0.16c1.5,0,3.26-.07,5.14-0.06h5.89l5.89,0.11c1.88,0,3.63.12,5.13,0.17,3,0.12,5,.26,5,0.26s-2,.1-5,0.16c-1.5,0-3.26.07-5.14,0.06h-5.89L330.47,73c-1.88,0-3.63-.12-5.13-0.17C322.34,72.67,320.33,72.53,320.33,72.53Z"/><path d="M321.38,77.28s2.47-.24,6.18-0.5c1.86-.12,4-0.29,6.34-0.41l7.27-.39,7.28-.29c2.32-.1,4.49-0.13,6.35-0.18,3.72-.08,6.2-0.08,6.2-0.08s-2.47.24-6.18,0.5c-1.86.12-4,.29-6.34,0.41l-7.27.39-7.28.29c-2.32.09-4.49,0.13-6.35,0.18C323.86,77.29,321.38,77.28,321.38,77.28Z"/><path d="M323.75,81.55s2.62-.22,6.56-0.47c2-.11,4.26-0.27,6.72-0.38l7.71-.36,7.72-.26c2.46-.09,4.76-0.11,6.73-0.15,3.94-.07,6.57-0.05,6.57-0.05s-2.62.23-6.56,0.47c-2,.11-4.26.27-6.72,0.38l-7.71.36-7.72.26c-2.46.08-4.76,0.11-6.73,0.15C326.38,81.56,323.75,81.55,323.75,81.55Z"/><path d="M324.3,84.87s2-.22,5.11-0.46c1.53-.11,3.32-0.26,5.24-0.37l6-.35,6-.25c1.92-.08,3.71-0.1,5.25-0.14,3.08-.06,5.13,0,5.13,0s-2,.22-5.11.46c-1.53.11-3.32,0.27-5.24,0.37l-6,.35-6,.25c-1.92.08-3.71,0.1-5.25,0.14C326.35,84.89,324.3,84.87,324.3,84.87Z"/><path d="M22.3,2.53a1,1,0,0,1,0-.17A2,2,0,0,1,22.47,2a1.8,1.8,0,0,1,.3-0.44c0.14-.13.32-0.24,0.49-0.36,0.64-.51,1.33-1,1.33-1l0.05,0.05s-0.46.7-1,1.35c-0.12.17-.23,0.35-0.36,0.49a1.8,1.8,0,0,1-.43.31,2,2,0,0,1-.38.15l-0.17,0Z"/><path d="M24.59,3.35a1.31,1.31,0,0,1,0-.2,2.83,2.83,0,0,1,.11-0.47A2.69,2.69,0,0,1,25,2.09c0.14-.19.31-0.38,0.48-0.57C26.11,0.73,26.8,0,26.8,0l0.06,0S26.45,1,26,1.85c-0.11.23-.21,0.46-0.33,0.67a2.69,2.69,0,0,1-.43.49,2.83,2.83,0,0,1-.39.29l-0.17.09Z"/><path d="M28.47,4.1a2,2,0,0,1,.09-0.23,4.69,4.69,0,0,1,.3-0.56,4.79,4.79,0,0,1,.54-0.69c0.23-.22.5-0.43,0.76-0.65,1-.91,2.07-1.76,2.07-1.76l0.05,0.05S31.47,1.34,30.6,2.38c-0.21.27-.41,0.54-0.63,0.78a4.79,4.79,0,0,1-.67.56,4.69,4.69,0,0,1-.55.32l-0.23.1Z"/><path d="M32.35,5.08a2.49,2.49,0,0,1,.09-0.27,6,6,0,0,1,.31-0.66,6.32,6.32,0,0,1,.55-0.84c0.24-.28.51-0.55,0.78-0.84,1-1.16,2.14-2.27,2.14-2.27l0.06,0s-0.84,1.32-1.73,2.6c-0.22.33-.42,0.66-0.64,1a6.32,6.32,0,0,1-.69.72,6,6,0,0,1-.57.45l-0.24.15Z"/><path d="M36.22,6.07a2.91,2.91,0,0,1,.07-0.3A7.16,7.16,0,0,1,36.54,5,7.57,7.57,0,0,1,37,4c0.22-.34.47-0.68,0.72-1,1-1.41,2-2.79,2-2.79l0.06,0S39,1.8,38.26,3.31c-0.19.38-.37,0.77-0.56,1.12a7.57,7.57,0,0,1-.64.89,7.16,7.16,0,0,1-.54.58,2.91,2.91,0,0,1-.23.2Z"/><path d="M40.34,6.07a3,3,0,0,1,.08-0.3A7.42,7.42,0,0,1,40.71,5a7.86,7.86,0,0,1,.52-1c0.23-.34.5-0.68,0.76-1,1-1.41,2.1-2.79,2.1-2.79l0.06,0S43.36,1.8,42.5,3.32c-0.21.38-.4,0.77-0.61,1.12a7.86,7.86,0,0,1-.68.89,7.42,7.42,0,0,1-.57.57,3,3,0,0,1-.24.2Z"/><path d="M47.07,3.2s-1.68,0-4.18-.25c-1.25-.11-2.71-0.24-4.27-0.43l-4.87-.69L20.5-.07V-0.15L33.83,1.23l4.89,0.51c1.56,0.19,3,.42,4.25.62,2.48,0.41,4.12.77,4.12,0.77V3.2Z"/></svg>