<svg id="Slip_lines_grains_elongated" data-name="Slip lines (grains elongated" xmlns="http://www.w3.org/2000/svg" viewBox="0 0 650 50"><title>M_SlipLinesGrainElongated</title><path d="M147.88,2.77s1.12-.29,2.82-0.64c0.85-.16,1.84-0.38,2.9-0.56s2.2-.37,3.34-0.55,2.28-.33,3.36-0.47,2.08-.23,2.94-0.33C165,0.05,166.12,0,166.12,0S165,0.29,163.3.64c-0.85.16-1.84,0.38-2.9,0.56s-2.2.37-3.34,0.55-2.28.33-3.36,0.46-2.08.23-2.94,0.33C149,2.72,147.88,2.77,147.88,2.77Z"/><path d="M156.43,4.81L157,4.63c0.34-.12.83-0.24,1.42-0.4s1.29-.29,2-0.42,1.56-.19,2.37-0.29c3.22-.42,6.45-0.78,6.45-0.78V2.81s-3.18.68-6.36,1.3c-0.8.16-1.59,0.34-2.34,0.47s-1.46.2-2.07,0.24-1.12.07-1.48,0.07h-0.57V4.81Z"/><path d="M162.84,5.77s1.21-.35,3-0.73c0.92-.18,2-0.4,3.15-0.58L172.66,4c4.95-.66,9.9-1.26,9.9-1.26V2.81s-4.91.92-9.83,1.78l-3.61.65C168,5.41,166.9,5.52,166,5.63c-1.87.18-3.12,0.22-3.12,0.22V5.77Z"/><path d="M169.25,7.91l0.28-.13a7.26,7.26,0,0,1,.75-0.26,7.68,7.68,0,0,1,1.08-.22c0.4,0,.83,0,1.26-0.06,1.72-.1,3.44-0.14,3.44-0.14V7.19s-1.69.36-3.38,0.66c-0.42.08-.84,0.18-1.24,0.24a7.68,7.68,0,0,1-1.1,0A7.26,7.26,0,0,1,169.56,8L169.26,8V7.91Z"/><path d="M193.19,19s3.37,0.52,8.42,1.38l8.61,1.51,9.85,1.81,9.84,1.91c3.14,0.61,6.06,1.23,8.57,1.73,5,1,8.34,1.79,8.34,1.79s-3.37-.51-8.42-1.37c-2.52-.44-5.46-0.93-8.61-1.51l-9.85-1.81-9.84-1.91-8.57-1.73C196.52,19.73,193.19,19,193.19,19Z"/><path d="M189.31,22.15s4,0.47,10,1.26l10.26,1.39,11.75,1.67,11.73,1.77,10.22,1.61c6,1,10,1.67,10,1.67s-4-.47-10-1.25L233,28.88,221.23,27.2l-11.73-1.77-10.22-1.61C193.29,22.85,189.31,22.15,189.31,22.15Z"/><path d="M185.84,25l11.95,1.33L210,27.77l14,1.76,14,1.86,12.2,1.69,11.89,1.75-11.95-1.33L238,32l-14-1.76-14-1.86-12.2-1.69Z"/><path d="M183.27,27.26l13.35,1.66,13.67,1.8,15.66,2.14,15.65,2.24,13.64,2,13.29,2.07-13.35-1.66-13.67-1.8L225.84,33.6,210.2,31.36l-13.64-2Z"/><path d="M180.77,29.11l3.12,0.37,8.23,1L203.75,32l13.31,1.8,13.3,1.9L242,37.41l8.19,1.29,3.11,0.5-3.12-.37-8.23-1-11.62-1.5L217,34.52l-13.3-1.9-11.59-1.73-8.19-1.29Z"/><path d="M179.82,30.52s2.26,0.27,5.64.75c1.69,0.26,3.66.52,5.77,0.87l6.6,1.08,6.58,1.17c2.1,0.37,4.05.78,5.73,1.09,3.35,0.66,5.57,1.17,5.57,1.17s-2.26-.26-5.64-0.75c-1.69-.26-3.66-0.52-5.77-0.87L197.7,34l-6.58-1.17c-2.1-.37-4.05-0.78-5.73-1.09C182,31,179.82,30.52,179.82,30.52Z"/><path d="M176.59,33.15l3,0.51,8,1.36,11.25,2,12.88,2.38,12.86,2.48,11.21,2.23,7.92,1.65,3,0.63-3-.51-8-1.36-11.25-2-12.88-2.38-12.86-2.48L187.5,35.43l-7.92-1.65Z"/><path d="M274.91,0s1.67,0.9,4.12,2.32c1.22,0.72,2.66,1.54,4.17,2.47l4.74,2.9,4.69,3c1.5,0.95,2.86,1.89,4.05,2.66,2.36,1.58,3.9,2.68,3.9,2.68s-1.67-.9-4.12-2.32c-1.22-.72-2.66-1.54-4.17-2.47l-4.74-2.9-4.69-3c-1.5-1-2.86-1.89-4.05-2.66C276.45,1.12,274.91,0,274.91,0Z"/><path d="M270.53,0.66s1.58,0.81,3.9,2.1c1.15,0.66,2.52,1.4,3.95,2.24l4.48,2.64,4.43,2.72c1.42,0.87,2.71,1.73,3.83,2.44,2.23,1.45,3.68,2.46,3.68,2.46s-1.58-.81-3.9-2.1c-1.15-.66-2.52-1.4-3.94-2.24l-4.48-2.64L278,5.56c-1.41-.87-2.71-1.73-3.83-2.44C272,1.68,270.53.66,270.53,0.66Z"/><path d="M264.14,0.33s1.54,0.87,3.8,2.24c1.12,0.7,2.45,1.48,3.84,2.38l4.36,2.79,4.31,2.88c1.38,0.92,2.63,1.82,3.72,2.57,2.16,1.52,3.57,2.59,3.57,2.59s-1.54-.86-3.8-2.24c-1.12-.7-2.45-1.48-3.84-2.38l-4.36-2.79-4.31-2.88c-1.38-.92-2.63-1.82-3.72-2.57C265.55,1.39,264.14.33,264.14,0.33Z"/><path d="M259.07,0.33s1.54,0.83,3.8,2.16c1.12,0.67,2.45,1.43,3.84,2.3l4.36,2.7,4.3,2.78c1.38,0.89,2.63,1.76,3.72,2.49,2.16,1.48,3.57,2.51,3.57,2.51s-1.54-.83-3.8-2.16c-1.12-.67-2.45-1.43-3.84-2.3l-4.36-2.7-4.3-2.79c-1.37-.89-2.63-1.76-3.72-2.49C260.48,1.36,259.07.33,259.07,0.33Z"/><path d="M259.91,3.81s0.83,0.34,2,.92,2.78,1.42,4.32,2.3,3.05,1.83,4.16,2.58,1.82,1.3,1.82,1.3-0.83-.34-2-0.92-2.78-1.42-4.32-2.3-3.05-1.83-4.16-2.58S259.91,3.81,259.91,3.81Z"/><path d="M252.07,0s1.33,0.78,3.27,2c1,0.63,2.1,1.35,3.3,2.16s2.46,1.68,3.73,2.55,2.51,1.77,3.68,2.62,2.24,1.67,3.16,2.35c1.84,1.39,3,2.37,3,2.37s-1.33-.78-3.27-2c-1-.63-2.1-1.35-3.3-2.16s-2.46-1.68-3.73-2.55-2.51-1.77-3.68-2.62S256,3.08,255.11,2.39C253.27,1,252.07,0,252.07,0Z"/><path d="M41.08,39.77s3.62-.32,9.06-0.7l9.29-.62,10.65-.62,10.66-.52,9.3-.39c5.45-.2,9.08-0.28,9.08-0.28s-3.62.32-9.06,0.7L80.77,38l-10.65.62-10.66.52-9.3.39C44.71,39.7,41.08,39.77,41.08,39.77Z"/><path d="M39.67,42.06s4-.36,9.89-0.81l10.15-.73,11.64-.76L83,39.1l10.16-.5c5.95-.27,9.92-0.39,9.92-0.39s-4,.36-9.89.81L83,39.75l-11.64.76-11.64.66-10.16.5C43.64,41.94,39.67,42.06,39.67,42.06Z"/><path d="M38.55,43.88s3.79-.23,9.49-0.5L57.77,43l11.16-.38,11.16-.29,9.74-.18c5.7-.08,9.5-0.07,9.5-0.07s-3.79.23-9.49,0.5L80.11,43l-11.16.38-11.16.28-9.74.18C42.35,43.89,38.55,43.88,38.55,43.88Z"/><path d="M35,46.4s3.86-.21,9.66-0.44l9.9-.35,11.35-.32,11.36-.22,9.91-.12c5.8,0,9.67,0,9.67,0s-3.86.21-9.66,0.44l-9.9.35L65.93,46l-11.36.22-9.91.12C38.87,46.43,35,46.4,35,46.4Z"/><path d="M35,48.89l12.36-.6L60,47.78l14.53-.51,14.53-.41,12.68-.28,12.37-.18-12.36.6-12.67.51L74.58,48,60,48.43l-12.68.28Z"/><path d="M76.44,0.88s0,0.13,0,.35-0.11.52-.2,0.88a10,10,0,0,1-.42,1.19c-0.2.42-.44,0.85-0.66,1.28-0.88,1.75-1.82,3.48-1.82,3.48L73.21,8s0.64-1.86,1.34-3.69c0.17-.46.32-0.93,0.5-1.35a10,10,0,0,1,.59-1.11c0.2-.31.37-0.57,0.51-0.74s0.22-.27.22-0.27Z"/><path d="M79.1,0.55s0,0.18-.09.49-0.18.75-.32,1.27-0.36,1.12-.6,1.75S77.52,5.33,77.23,6c-1.15,2.64-2.37,5.25-2.37,5.25l-0.07,0s0.91-2.73,1.88-5.44c0.23-.68.46-1.36,0.7-2s0.51-1.2.76-1.68,0.46-.88.64-1.15S79,0.52,79,.52Z"/><path d="M81.61,0.55s-0.17,1-.56,2.36c-0.2.7-.44,1.51-0.74,2.36s-0.68,1.74-1,2.64c-1.38,3.61-2.83,7.19-2.83,7.19l-0.07,0s1.14-3.69,2.34-7.36c0.29-.92.57-1.85,0.86-2.7s0.64-1.63.91-2.3c0.58-1.33,1.05-2.19,1.05-2.19Z"/><path d="M83.8,0.54s0,0.14,0,.38,0,0.57-.09,1a11.69,11.69,0,0,1-.26,1.34c-0.14.48-.32,1-0.49,1.48-0.64,2-1.35,4-1.35,4l-0.07,0s0.39-2.1.84-4.17c0.1-.52.2-1,0.31-1.53a11.7,11.7,0,0,1,.44-1.29c0.16-.37.29-0.68,0.41-0.89s0.19-.33.19-0.33Z"/><path d="M87.36,0.18s0,0.17-.06.47-0.13.71-.25,1.2-0.28,1.05-.49,1.65-0.49,1.21-.74,1.83c-1,2.49-2,5-2,5l-0.07,0s0.73-2.58,1.53-5.14c0.19-.64.37-1.29,0.57-1.89s0.44-1.13.66-1.59,0.41-.83.56-1.09,0.24-.4.24-0.4Z"/><path d="M89,0.16a1.42,1.42,0,0,1,.09.18,3.14,3.14,0,0,1,.17.49,3,3,0,0,1,.09.69c0,0.25-.06.52-0.09,0.79C89.13,3.38,89,4.45,89,4.45H88.89s-0.17-1.07-.26-2.15c0-.27-0.08-0.54-0.09-0.79A3,3,0,0,1,88.63.83,3.14,3.14,0,0,1,88.8.35,1.42,1.42,0,0,1,88.89.16H89Z"/><path d="M26.58,16.9s-1.33.07-3.31,0c-1,0-2.15-.06-3.39-0.15L16,16.41c-5.27-.47-10.53-1-10.53-1V15.33s5.29,0.21,10.57.48L19.94,16c1.24,0.09,2.39.22,3.37,0.33,2,0.24,3.28.49,3.28,0.49V16.9Z"/><path d="M32,15.12s-1.6,0-4-.23c-1.19-.11-2.58-0.22-4.06-0.41l-4.62-.66C13,13,6.74,12,6.74,12V11.94s6.33,0.61,12.66,1.3L24,13.71c1.48,0.18,2.85.41,4,.59C30.44,14.7,32,15,32,15v0.07Z"/><path d="M39.67,13.57S37.5,13.37,34.28,13c-1.61-.22-3.49-0.48-5.49-0.8L22.53,11,5.49,8V7.91l17.13,2.53,6.29,0.94c2,0.33,3.86.68,5.46,1,3.19,0.62,5.3,1.13,5.3,1.13v0.07Z"/><path d="M44.49,12s-2.39-.24-5.94-0.74c-1.78-.26-3.85-0.55-6.06-0.93L25.57,9.09,6.74,5.65V5.58L25.67,8.5l6.95,1.08c2.21,0.37,4.27.77,6,1.11,3.52,0.69,5.86,1.25,5.86,1.25V12Z"/><path d="M34.5,7.41s-2.12-.19-5.29-0.6C27.63,6.6,25.79,6.35,23.82,6L17.67,4.94l-16.75-3V1.87L17.77,4.34l6.18,0.92c2,0.32,3.8.67,5.36,1,3.13,0.61,5.2,1.11,5.2,1.11V7.41Z"/><path d="M17.71,6.22s-1-.06-2.58-0.28c-0.77-.12-1.66-0.26-2.61-0.46s-1.95-.47-3-0.72c-4-1-8-2-8-2l0-.07s4.08,0.7,8.15,1.47c1,0.18,2,.36,3,0.55s1.82,0.44,2.57.64c1.5,0.42,2.47.79,2.47,0.79Z"/><path d="M329.41,6c3.42,1.42,6.8,2.91,10.18,4.41,1.7,0.74,3.37,1.53,5.05,2.29l5,2.31-0.07,0,5.15,1.25c1.72,0.42,3.43.82,5.14,1.27,3.42,0.87,6.84,1.75,10.25,2.71-3.47-.66-6.93-1.4-10.38-2.15-1.73-.36-3.45-0.77-5.17-1.16l-5.16-1.18h0l0,0-5-2.37c-1.67-.8-3.35-1.57-5-2.39C336,9.34,332.69,7.72,329.41,6Z"/><path d="M333.41,3.81c3.44,1.43,6.85,2.91,10.25,4.41s6.79,3,10.18,4.57l-0.06,0c2.2,0.57,4.39,1.18,6.58,1.79l6.57,1.82,6.55,1.89c2.18,0.65,4.36,1.29,6.53,2-2.22-.51-4.42-1.05-6.63-1.59L366.77,17l-6.59-1.74c-2.2-.58-4.4-1.15-6.59-1.77h-0.06c-3.37-1.58-6.75-3.12-10.1-4.74S336.73,5.49,333.41,3.81Z"/><path d="M337,1c3.86,1.65,7.68,3.37,11.5,5.11,1.92,0.85,3.81,1.76,5.71,2.64l5.7,2.66-0.09,0,6,1.09c2,0.37,4,.72,6,1.11,4,0.77,8,1.54,11.94,2.4-4-.56-8-1.19-12-1.84-2-.31-4-0.67-6-1l-6-1h0l0,0L354,9.42c-1.89-.91-3.79-1.8-5.67-2.73C344.53,4.84,340.76,3,337,1Z"/><path d="M342.93,0l7.56,3.72c2.26,1.13,4.92,2.4,7.76,3.76,1.43,0.66,2.91,1.36,4.43,1.94l0.57,0.2,0.53,0.11c0.41,0,.83.07,1.26,0.14,0.86,0.11,1.67.24,2.52,0.36l9.76,1.64c3.11,0.53,6,1.1,8.49,1.56,5,0.94,8.26,1.64,8.26,1.64s-3.34-.46-8.33-1.22L367.44,11c-0.83-.13-1.67-0.27-2.48-0.38-0.4-.06-0.82-0.11-1.23-0.15-0.2,0-.47-0.09-0.69-0.15l-0.6-.22c-1.58-.61-3-1.33-4.47-2-2.85-1.38-5.44-2.79-7.68-4C345.84,1.72,342.93,0,342.93,0Z"/><path d="M350.74,0q4.93,2,9.81,4l4.88,2.06,4.86,2.1-0.1,0c5,0.57,10,1.26,15,1.9s10,1.39,14.92,2.19c-5-.45-10-1-15-1.55s-10-1.16-15-1.84h-0.05l0,0L365.17,6.7l-4.82-2.19Q355.52,2.32,350.74,0Z"/><path d="M357.78,0.37s1.77,0.55,4.4,1.44c1.31,0.46,2.85,1,4.48,1.54l5.13,1.79c0.87,0.31,1.74.62,2.6,0.91,0.43,0.14.86,0.28,1.27,0.39L376,6.51c0.07,0,.06,0,0,0l0.2,0a4.51,4.51,0,0,1,.74.05c1.75,0.25,3.31.66,4.67,1,2.7,0.65,4.48,1.18,4.48,1.18l-4.57-.76c-1.36-.24-3-0.51-4.66-0.73a4.13,4.13,0,0,0-.57,0h-0.13a0.84,0.84,0,0,1-.29,0l-0.36-.07C375,7,374.61,6.85,374.17,6.71c-0.88-.27-1.75-0.57-2.63-0.87L366.44,4c-1.62-.61-3.12-1.24-4.41-1.76C359.46,1.14,357.78.37,357.78,0.37Z"/><path d="M418.64,44.17s1.18,0,2.94.14c0.88,0.07,1.9.13,3,.24s2.26,0.23,3.43.37,2.33,0.29,3.42.45,2.1,0.34,3,.48c1.74,0.3,2.89.56,2.89,0.56s-1.18,0-2.94-.14c-0.88-.07-1.9-0.13-3-0.24s-2.26-.23-3.43-0.37-2.33-.29-3.42-0.46-2.1-.34-3-0.48C419.79,44.43,418.64,44.17,418.64,44.17Z"/><path d="M430.16,48.72s-1.39,0-3.47-.15c-1-.08-2.25-0.14-3.55-0.25s-2.68-.24-4.06-0.38-2.76-.3-4-0.47-2.49-.35-3.52-0.49c-2.06-.31-3.43-0.57-3.43-0.57s1.39,0,3.47.15c1,0.08,2.25.14,3.55,0.25s2.68,0.24,4.06.38,2.76,0.3,4,.47,2.49,0.35,3.52.49C428.79,48.46,430.16,48.72,430.16,48.72Z"/><path d="M410.47,48.72s-1,0-2.59-.15c-0.77-.08-1.68-0.14-2.64-0.25s-2-.24-3-0.38-2-.3-3-0.47-1.84-.35-2.61-0.49c-1.52-.31-2.53-0.57-2.53-0.57s1,0,2.59.15c0.77,0.08,1.68.14,2.64,0.25s2,0.24,3,.38,2,0.3,3,.47,1.84,0.35,2.61.49C409.46,48.46,410.47,48.72,410.47,48.72Z"/><path d="M400.49,48.72s-0.92,0-2.29-.15-3.18-.35-5-0.64-3.59-.64-4.93-1-2.22-.57-2.22-0.57,0.92,0,2.29.15,3.18,0.35,5,.64,3.59,0.64,4.93,1S400.49,48.72,400.49,48.72Z"/><path d="M120.16,43a8.52,8.52,0,0,1-.07,1,13.42,13.42,0,0,1-1.2,4,8.39,8.39,0,0,1-.48.84,8.4,8.4,0,0,1,.07-1,13.42,13.42,0,0,1,1.2-4A8.53,8.53,0,0,1,120.16,43Z"/><path d="M122.24,47.65a1.16,1.16,0,0,1,.14.24,0.56,0.56,0,0,1-.27.74,0.22,0.22,0,0,1-.4-0.15,0.56,0.56,0,0,1,.28-0.74A1.16,1.16,0,0,1,122.24,47.65Z"/><path d="M126.64,44.92a4.35,4.35,0,0,1,0,.68,6.31,6.31,0,0,1-1.07,2.61,4.29,4.29,0,0,1-.44.51,4.29,4.29,0,0,1,0-.68,6.31,6.31,0,0,1,1.07-2.61A4.35,4.35,0,0,1,126.64,44.92Z"/><path d="M443.87,17.19s-0.53,1.21-1.4,3c-0.45.88-.94,1.92-1.52,3s-1.19,2.25-1.82,3.4-1.28,2.3-1.9,3.36-1.22,2-1.73,2.89c-1,1.68-1.77,2.78-1.77,2.78s0.53-1.21,1.4-3c0.45-.88.94-1.92,1.52-3s1.19-2.25,1.82-3.4,1.28-2.3,1.9-3.36,1.22-2,1.73-2.89C443.13,18.28,443.87,17.19,443.87,17.19Z"/><path d="M445.74,17.23s-0.51,1.41-1.35,3.48c-0.43,1-.92,2.25-1.47,3.53s-1.16,2.65-1.77,4-1.25,2.71-1.85,4-1.2,2.43-1.69,3.43c-1,2-1.74,3.31-1.74,3.31s0.51-1.41,1.35-3.48c0.43-1,.91-2.25,1.47-3.53s1.16-2.65,1.77-4,1.25-2.71,1.85-4,1.2-2.43,1.69-3.43C445,18.54,445.74,17.23,445.74,17.23Z"/><path d="M448.24,17.09s-0.3,1-.84,2.58c-0.28.76-.58,1.66-1,2.61s-0.77,2-1.17,3-0.84,2-1.26,2.92-0.83,1.78-1.17,2.52c-0.7,1.47-1.23,2.42-1.23,2.42s0.3-1,.84-2.58c0.28-.76.58-1.66,1-2.61s0.77-2,1.18-3,0.84-2,1.26-2.92,0.83-1.78,1.17-2.52C447.72,18,448.24,17.09,448.24,17.09Z"/><path d="M450.27,17.34s0,0.47-.11,1.16a19.77,19.77,0,0,1-1.4,4.82c-0.29.63-.52,1-0.52,1s0-.47.11-1.16a19.77,19.77,0,0,1,1.4-4.82C450,17.74,450.27,17.34,450.27,17.34Z"/><path d="M452.12,18s-0.13.83-.4,2.06-0.7,2.85-1.18,4.45-1,3.18-1.48,4.36-0.81,1.94-.81,1.94,0.13-.83.4-2.06,0.7-2.85,1.18-4.45,1-3.18,1.49-4.36S452.12,18,452.12,18Z"/><path d="M454.62,18s0,0.56-.19,1.37a28.18,28.18,0,0,1-1.72,5.75c-0.33.76-.6,1.24-0.6,1.24s0-.56.18-1.37A28.18,28.18,0,0,1,454,19.28C454.35,18.53,454.62,18,454.62,18Z"/><path d="M457,17.5a4.6,4.6,0,0,1,0,.7,6.73,6.73,0,0,1-.74,2.82,4.54,4.54,0,0,1-.38.59,4.53,4.53,0,0,1,0-.7,6.73,6.73,0,0,1,.74-2.82A4.6,4.6,0,0,1,457,17.5Z"/><path d="M458.24,17.5s0,0.81-.15,2-0.35,2.8-.64,4.39-0.65,3.16-1,4.33-0.58,1.94-.58,1.94,0-.81.15-2,0.36-2.8.64-4.39,0.65-3.16,1-4.33S458.24,17.5,458.24,17.5Z"/><path d="M460.41,17.58s-0.06.77-.23,1.9-0.46,2.63-.8,4.11-0.76,2.95-1.11,4-0.65,1.8-.65,1.8,0.06-.77.23-1.9,0.46-2.63.8-4.11,0.76-2.95,1.12-4S460.41,17.58,460.41,17.58Z"/><path d="M462.41,17.62s0,0.56-.19,1.39a29.2,29.2,0,0,1-1.75,5.85c-0.33.77-.6,1.27-0.6,1.27s0-.57.19-1.39a29.2,29.2,0,0,1,1.75-5.85C462.14,18.12,462.41,17.62,462.41,17.62Z"/><path d="M435.07,22.21s3-.12,7.45-0.21c2.23,0,4.84-.1,7.63-0.11l8.75,0,8.75,0.05c2.79,0,5.4.09,7.63,0.12,4.47,0.09,7.45.21,7.45,0.21s-3,.12-7.45.21c-2.23,0-4.84.1-7.63,0.11l-8.75,0-8.75-.05c-2.79,0-5.4-.09-7.63-0.12C438.05,22.34,435.07,22.21,435.07,22.21Z"/><path d="M435.87,24.44s2-.12,5.12-0.21c1.54,0,3.33-.1,5.25-0.11l6,0,6,0c1.92,0,3.71.08,5.25,0.11,3.07,0.09,5.12.21,5.12,0.21s-2,.12-5.12.21c-1.54,0-3.33.1-5.25,0.11l-6,0-6,0c-1.92,0-3.71-.08-5.25-0.11C437.91,24.56,435.87,24.44,435.87,24.44Z"/><path d="M430.12,26.39s2.16-.12,5.39-0.21c1.62,0,3.5-.1,5.53-0.11l6.33,0,6.33,0c2,0,3.91.08,5.53,0.11,3.23,0.09,5.39.21,5.39,0.21s-2.16.12-5.39,0.21c-1.62,0-3.5.1-5.53,0.11l-6.33,0-6.33,0c-2,0-3.91-.08-5.53-0.11C432.27,26.51,430.12,26.39,430.12,26.39Z"/><path d="M498.59,46.4s2.05,0,5.12.18c1.54,0.09,3.33.15,5.25,0.28l6,0.41,6,0.5c1.91,0.16,3.7.36,5.23,0.51,3.06,0.32,5.09.6,5.09,0.6s-2.05,0-5.12-.18c-1.54-.09-3.33-0.15-5.25-0.28l-6-.41-6-.51c-1.91-.16-3.7-0.36-5.23-0.51C500.62,46.68,498.59,46.4,498.59,46.4Z"/><path d="M505.24,45.29s2.12,0,5.29,0c1.59,0,3.44,0,5.42.06l6.21,0.16,6.2,0.25c2,0.08,3.83.21,5.41,0.29,3.17,0.2,5.28.39,5.28,0.39s-2.12.05-5.29,0c-1.59,0-3.44,0-5.42-.06l-6.21-.16-6.2-.26c-2-.08-3.83-0.21-5.41-0.29C507.35,45.48,505.24,45.29,505.24,45.29Z"/><path d="M500.78,42.55s3.23,0,8.06,0l8.26,0.14L526.57,43,536,43.33c3,0.11,5.84.27,8.26,0.37,4.83,0.24,8.05.46,8.05,0.46s-3.23,0-8.06,0c-2.42,0-5.24-.06-8.26-0.15l-9.47-.25-9.47-.35L508.83,43C504,42.77,500.78,42.55,500.78,42.55Z"/><path d="M561.74,30.52s1.23,0.62,3,1.62c0.89,0.51,1.94,1.09,3,1.74s2.27,1.36,3.44,2.07,2.32,1.45,3.4,2.15,2.06,1.38,2.92,1.94c1.7,1.15,2.8,2,2.8,2s-1.23-.62-3-1.62c-0.89-.51-1.94-1.08-3-1.74s-2.27-1.36-3.44-2.07-2.32-1.45-3.39-2.15-2.06-1.37-2.92-1.94C562.84,31.34,561.74,30.52,561.74,30.52Z"/><path d="M565.41,30.52s1.19,0.62,2.93,1.62c0.86,0.51,1.88,1.09,2.95,1.74s2.2,1.36,3.33,2.07,2.24,1.45,3.28,2.15,2,1.37,2.82,1.94c1.64,1.15,2.7,2,2.7,2s-1.19-.62-2.93-1.62c-0.86-.51-1.88-1.09-2.95-1.74s-2.2-1.36-3.33-2.07-2.24-1.45-3.28-2.15-2-1.37-2.82-1.94C566.47,31.34,565.41,30.52,565.41,30.52Z"/><path d="M571.05,32.38s1,0.43,2.4,1.16c0.7,0.37,1.54.79,2.41,1.27s1.8,1,2.72,1.54,1.83,1.09,2.67,1.62,1.62,1,2.29,1.48c1.33,0.88,2.19,1.53,2.19,1.53s-1-.43-2.4-1.16c-0.7-.37-1.54-0.79-2.41-1.27s-1.8-1-2.72-1.54-1.83-1.09-2.67-1.62-1.62-1-2.29-1.48C571.91,33,571.05,32.38,571.05,32.38Z"/><path d="M569.4,28.18s1.23,0.7,3,1.83c0.89,0.57,1.94,1.22,3,2s2.27,1.52,3.44,2.31,2.32,1.61,3.39,2.39,2.06,1.52,2.91,2.15C586.9,40.07,588,41,588,41s-1.23-.7-3-1.82c-0.89-.57-1.94-1.22-3-2s-2.27-1.52-3.44-2.31-2.32-1.61-3.39-2.39S573,31,572.19,30.35C570.5,29.08,569.4,28.18,569.4,28.18Z"/><path d="M573.65,28.18s1.11,0.7,2.72,1.83c0.8,0.57,1.74,1.22,2.73,2s2,1.52,3.07,2.31,2.07,1.61,3,2.38,1.83,1.52,2.58,2.14c1.5,1.27,2.46,2.17,2.46,2.17s-1.11-.7-2.72-1.83c-0.8-.57-1.74-1.22-2.73-2s-2-1.52-3.07-2.31-2.07-1.61-3-2.38-1.83-1.52-2.58-2.14C574.61,29.08,573.65,28.18,573.65,28.18Z"/><path d="M575.61,27.43s1.23,0.75,3,1.95c0.89,0.61,1.94,1.3,3,2.07s2.26,1.61,3.43,2.45,2.31,1.7,3.37,2.52,2,1.6,2.9,2.27C593,40,594.13,41,594.13,41s-1.23-.75-3-1.95c-0.89-.61-1.94-1.3-3-2.07s-2.26-1.61-3.43-2.45-2.31-1.7-3.37-2.52-2-1.6-2.9-2.27C576.7,28.37,575.61,27.43,575.61,27.43Z"/><path d="M579.07,27.43s1.19,0.75,2.93,1.95c0.86,0.61,1.88,1.3,2.94,2.07s2.19,1.61,3.32,2.45,2.23,1.7,3.26,2.52,2,1.6,2.8,2.26C595.94,40,597,41,597,41s-1.19-.75-2.93-1.95c-0.86-.61-1.88-1.3-2.94-2.07s-2.19-1.61-3.32-2.45-2.23-1.7-3.26-2.52-2-1.6-2.8-2.26C580.12,28.37,579.07,27.43,579.07,27.43Z"/><path d="M583.41,27.43s1.16,0.75,2.86,2c0.84,0.61,1.83,1.3,2.87,2.08s2.14,1.61,3.23,2.45,2.17,1.7,3.18,2.52,1.92,1.6,2.72,2.26c1.58,1.34,2.6,2.28,2.6,2.28S599.7,40.22,598,39c-0.84-.61-1.83-1.3-2.87-2.07s-2.14-1.61-3.23-2.45-2.17-1.7-3.18-2.52-1.92-1.6-2.72-2.26C584.43,28.37,583.41,27.43,583.41,27.43Z"/><path d="M584.87,25.18s0.91,0.63,2.22,1.64c0.65,0.51,1.42,1.1,2.21,1.75s1.64,1.36,2.47,2.08,1.66,1.45,2.42,2.14,1.45,1.37,2.06,1.93c1.19,1.15,1.94,2,1.94,2S597.28,36,596,35c-0.65-.51-1.42-1.09-2.21-1.75s-1.64-1.36-2.47-2.08-1.66-1.45-2.42-2.15-1.45-1.37-2.06-1.93C585.63,26,584.87,25.18,584.87,25.18Z"/><path d="M591.53,27.43s0.81,0.56,2,1.47c0.57,0.46,1.25,1,2,1.58s1.44,1.23,2.18,1.88,1.46,1.31,2.12,1.95,1.27,1.24,1.8,1.76c1,1,1.69,1.79,1.69,1.79s-0.81-.56-2-1.47c-0.57-.46-1.25-1-2-1.58s-1.44-1.23-2.18-1.88S595.68,31.61,595,31s-1.27-1.24-1.8-1.76C592.19,28.17,591.53,27.43,591.53,27.43Z"/><path d="M590.79,24.13s1.11,0.81,2.72,2.09c0.8,0.65,1.74,1.39,2.72,2.21s2,1.71,3.06,2.6,2.05,1.81,3,2.67,1.81,1.69,2.56,2.39c1.49,1.41,2.44,2.4,2.44,2.4s-1.11-.81-2.72-2.09c-0.79-.65-1.74-1.39-2.72-2.21s-2-1.71-3.06-2.6-2.05-1.81-3-2.67-1.81-1.69-2.56-2.39C591.74,25.12,590.79,24.13,590.79,24.13Z"/><path d="M628.33,13.12s1.11-.19,2.79-0.38c0.84-.08,1.82-0.21,2.87-0.3s2.17-.17,3.29-0.25,2.24-.13,3.3-0.16,2,0,2.88-.06c1.69,0,2.82,0,2.82,0s-1.11.19-2.79,0.38c-0.84.08-1.82,0.21-2.87,0.3s-2.17.17-3.29,0.25-2.24.12-3.3,0.16-2,0-2.88.06C629.46,13.17,628.33,13.12,628.33,13.12Z"/><path d="M624.15,15.65s1.45-.14,3.64-0.26c1.09,0,2.36-.13,3.73-0.17s2.82-.08,4.28-0.1,2.91,0,4.28,0,2.64,0.05,3.73.07c2.18,0.06,3.64.16,3.64,0.16s-1.45.14-3.64,0.26c-1.09,0-2.36.13-3.73,0.17s-2.82.07-4.28,0.1-2.91,0-4.28,0-2.64-.05-3.73-0.07C625.6,15.75,624.15,15.65,624.15,15.65Z"/><path d="M620.75,17.9s1.45-.12,3.62-0.21c1.09,0,2.36-.1,3.71-0.12s2.81,0,4.26,0,2.9,0,4.26,0,2.63,0.09,3.71.12c2.17,0.09,3.62.21,3.62,0.21s-1.45.12-3.62,0.21c-1.09,0-2.36.1-3.71,0.12s-2.81,0-4.26,0-2.9,0-4.26,0-2.63-.09-3.71-0.12C622.2,18,620.75,17.9,620.75,17.9Z"/><path d="M620.75,19.6s1-.12,2.59-0.21c0.78,0,1.68-.1,2.65-0.12s2,0,3,0,2.07,0,3,0,1.88,0.09,2.65.12c1.55,0.09,2.59.21,2.59,0.21s-1,.12-2.59.21c-0.78,0-1.68.1-2.65,0.12s-2,0-3,0-2.07,0-3,0-1.87-.09-2.65-0.12C621.79,19.72,620.75,19.6,620.75,19.6Z"/><path d="M624.36,22.35s0.85-.12,2.11-0.21,3-.16,4.65-0.16,3.38,0.06,4.65.16,2.11,0.22,2.11.22-0.85.12-2.11,0.22-3,.16-4.65.16-3.38-.07-4.65-0.16S624.36,22.35,624.36,22.35Z"/><polygon points="297.27 41.24 303.98 44.67 303.8 44.62 303.81 44.63 303.93 44.63 303.99 44.67 310.29 48.72 303.62 45.32 303.81 45.37 303.8 45.37 303.69 45.38 303.61 45.32 297.27 41.24"/><path d="M316.06,48.72a3.84,3.84,0,0,1-.4-0.17c-0.24-.12-0.6-0.27-1-0.49-0.83-.43-1.9-1-2.94-1.72s-2-1.4-2.76-2-1.18-1-1.18-1,0.58,0.24,1.41.67,1.9,1,2.94,1.72,2,1.4,2.76,2S316.06,48.72,316.06,48.72Z"/><path d="M321,48.72s-0.64-.24-1.56-0.66-2.11-1-3.27-1.71-2.29-1.41-3.11-2-1.35-1-1.35-1,0.64,0.23,1.56.65,2.11,1,3.27,1.72,2.29,1.4,3.11,2S321,48.72,321,48.72Z"/><path d="M295.7,46s1.35-.28,3.38-0.62c1-.16,2.2-0.36,3.48-0.54s2.64-.36,4-0.53,2.73-.32,4-0.44,2.48-.21,3.51-0.31c2.06-.16,3.43-0.2,3.43-0.2s-1.35.29-3.38,0.62c-1,.16-2.2.37-3.48,0.54s-2.64.36-4,.53-2.73.32-4,.44-2.48.21-3.51,0.31C297.08,45.93,295.7,46,295.7,46Z"/><path d="M301.77,48.69s2.08-.51,5.23-1.18c1.57-.32,3.4-0.73,5.38-1.11l6.18-1.19,6.2-1.09c2-.35,3.83-0.62,5.42-0.88,3.18-.49,5.3-0.76,5.3-0.76s-2.08.51-5.23,1.18c-1.57.32-3.4,0.73-5.38,1.11L318.68,46,312.49,47c-2,.35-3.83.62-5.42,0.88C303.89,48.42,301.77,48.69,301.77,48.69Z"/><path d="M315.08,48.72s0.48-.18,1.21-0.38a23.84,23.84,0,0,1,5.46-.77c0.76,0,1.27,0,1.27,0s-0.48.19-1.21,0.39a23.82,23.82,0,0,1-5.46.77C315.59,48.77,315.08,48.72,315.08,48.72Z"/><path d="M116.34,7.52l0.31,0.15c0.2,0.1.45,0.26,0.76,0.46a9.66,9.66,0,0,1,1,.76c0.33,0.31.66,0.67,1,1,1.37,1.36,2.7,2.77,2.7,2.77l0,0.06s-1.55-1.16-3.05-2.38c-0.38-.3-0.77-0.59-1.12-0.88A9.66,9.66,0,0,1,117,8.58c-0.23-.29-0.42-0.52-0.54-0.71s-0.18-.29-0.18-0.29Z"/><path d="M118,4.64s0.55,0.29,1.34.78,1.78,1.21,2.75,2S124,9,124.67,9.61s1.07,1.12,1.07,1.12-0.55-.29-1.34-0.78-1.78-1.21-2.75-2-1.89-1.57-2.55-2.22S118,4.64,118,4.64Z"/><path d="M119.19,3.11s0.81,0.44,2,1.17S123.85,6,125.33,7.1s2.92,2.2,4,3.08S131,11.7,131,11.7s-0.81-.44-2-1.17-2.68-1.75-4.16-2.82-2.92-2.2-4-3.08S119.19,3.11,119.19,3.11Z"/><path d="M122.07,0s0.78,0.59,1.88,1.54c0.54,0.48,1.19,1,1.86,1.64s1.37,1.28,2.07,2,1.38,1.36,2,2,1.2,1.29,1.69,1.82c1,1.08,1.58,1.84,1.58,1.84s-0.78-.59-1.88-1.54c-0.54-.48-1.19-1-1.86-1.64s-1.37-1.28-2.07-2-1.38-1.36-2-2-1.2-1.29-1.69-1.82C122.68,0.77,122.07,0,122.07,0Z"/><path d="M129.69,0.77s0.15,0.12.4,0.36,0.59,0.57,1,1S131.91,3,132.36,3.6s0.87,1.2,1.32,1.83c1.82,2.47,3.59,5,3.59,5l-0.06,0s-2-2.31-4-4.66c-0.5-.58-1-1.16-1.46-1.72s-0.83-1.12-1.14-1.6-0.57-.9-0.73-1.2-0.25-.47-0.25-0.47Z"/><path d="M152.44,48.72a8.17,8.17,0,0,1-.4-0.85,12.83,12.83,0,0,1-.83-4,8,8,0,0,1,0-.94,8.05,8.05,0,0,1,.4.85,12.83,12.83,0,0,1,.82,4A8.17,8.17,0,0,1,152.44,48.72Z"/><path d="M158.39,48.72s-0.24-.43-0.54-1.11a22.23,22.23,0,0,1-1.45-5.12c-0.1-.73-0.12-1.22-0.12-1.22s0.24,0.43.54,1.11a22.23,22.23,0,0,1,1.45,5.12C158.37,48.22,158.39,48.72,158.39,48.72Z"/><path d="M163.68,48.72s-0.33-.49-0.75-1.25a31.37,31.37,0,0,1-2.43-5.84c-0.24-.83-0.35-1.41-0.35-1.41s0.33,0.49.75,1.25a31.37,31.37,0,0,1,2.43,5.84C163.56,48.14,163.68,48.72,163.68,48.72Z"/><path d="M169.46,48.72s-0.4-.5-0.94-1.3-1.2-1.88-1.8-3-1.15-2.27-1.52-3.15-0.57-1.5-.57-1.5,0.4,0.5.95,1.3,1.2,1.88,1.8,3,1.15,2.27,1.52,3.15S169.46,48.72,169.46,48.72Z"/><path d="M146.6,43.88a5.77,5.77,0,0,1,.21.76,8.73,8.73,0,0,1,0,3.33,5.68,5.68,0,0,1-.22.75,5.69,5.69,0,0,1-.21-0.76,8.73,8.73,0,0,1,0-3.33A5.77,5.77,0,0,1,146.6,43.88Z"/><path d="M315.41,16.41s0.2,1.22.42,3.07c0.1,0.92.23,2,.33,3.15s0.2,2.39.29,3.62,0.15,2.47.2,3.62,0.06,2.24.09,3.17c0,1.86,0,3.1,0,3.1s-0.2-1.22-.42-3.07c-0.1-.92-0.23-2-0.33-3.15s-0.2-2.39-.29-3.62-0.15-2.47-.2-3.62-0.07-2.24-.09-3.17C315.37,17.65,315.41,16.41,315.41,16.41Z"/><path d="M317.6,16.47s0.33,1.27.75,3.19c0.19,1,.45,2.08.67,3.28s0.46,2.49.68,3.78,0.42,2.58.59,3.79,0.31,2.35.44,3.32c0.24,1.95.33,3.26,0.33,3.26s-0.34-1.27-.75-3.19c-0.19-1-.45-2.08-0.67-3.28s-0.45-2.49-.68-3.78-0.42-2.58-.59-3.79-0.31-2.35-.44-3.32C317.7,17.77,317.6,16.47,317.6,16.47Z"/><path d="M321.06,16.55s0.53,1.29,1.24,3.24c0.34,1,.77,2.12,1.18,3.35s0.84,2.55,1.27,3.87,0.82,2.65,1.18,3.9,0.67,2.42,1,3.43c0.54,2,.84,3.37.84,3.37s-0.53-1.29-1.25-3.24c-0.34-1-.77-2.12-1.18-3.35s-0.84-2.55-1.27-3.87-0.82-2.65-1.18-3.9-0.67-2.42-1-3.43C321.36,17.91,321.06,16.55,321.06,16.55Z"/><path d="M323.07,21.5s2-.1,5-0.16c1.5,0,3.26-.07,5.14-0.06h5.89L345,21.41c1.88,0,3.63.12,5.13,0.17,3,0.12,5,.26,5,0.26s-2,.1-5,0.16c-1.5,0-3.26.07-5.14,0.06H339.1l-5.89-.11c-1.88,0-3.63-.12-5.13-0.17C325.08,21.64,323.07,21.5,323.07,21.5Z"/><path d="M324.12,26.26s2.47-.24,6.18-0.5c1.86-.12,4-0.29,6.34-0.41l7.27-.39,7.28-.29c2.32-.1,4.49-0.13,6.35-0.18,3.72-.08,6.2-0.08,6.2-0.08s-2.47.24-6.18,0.5c-1.86.12-4,.29-6.34,0.41L344,25.7l-7.28.29c-2.32.09-4.49,0.13-6.35,0.18C326.61,26.26,324.12,26.26,324.12,26.26Z"/><path d="M326.49,30.52S329.11,30.3,333,30c2-.11,4.26-0.27,6.72-0.38l7.71-.36,7.72-.26c2.46-.09,4.76-0.11,6.73-0.15,3.94-.07,6.57-0.05,6.57-0.05s-2.62.23-6.56,0.47c-2,.11-4.26.27-6.72,0.38l-7.71.36-7.72.26c-2.46.08-4.76,0.11-6.73,0.15C329.12,30.54,326.49,30.52,326.49,30.52Z"/><path d="M327,33.84s2-.22,5.11-0.46c1.53-.11,3.32-0.26,5.24-0.37l6-.35,6-.25c1.92-.08,3.71-0.1,5.25-0.14,3.08-.06,5.13,0,5.13,0s-2,.22-5.11.46c-1.53.11-3.32,0.27-5.24,0.37l-6,.35-6,.25c-1.92.08-3.71,0.1-5.25,0.14C329.09,33.86,327,33.84,327,33.84Z"/><path d="M492.9,15.94s0.53,0.46,1.26,1.19,1.65,1.76,2.53,2.82,1.7,2.17,2.28,3,0.93,1.47.93,1.47-0.53-.46-1.26-1.19-1.65-1.76-2.53-2.82-1.7-2.17-2.28-3S492.9,15.94,492.9,15.94Z"/><path d="M496.4,15s0.46,0.38,1.08,1a31.83,31.83,0,0,1,4,4.94c0.47,0.74.75,1.26,0.75,1.26s-0.46-.38-1.08-1A31.46,31.46,0,0,1,499,18.86a31.7,31.7,0,0,1-1.89-2.57C496.67,15.55,496.4,15,496.4,15Z"/><path d="M500.72,13.75s0.59,0.54,1.43,1.39,1.89,2,2.9,3.25,2,2.48,2.65,3.45,1.09,1.66,1.09,1.66-0.59-.54-1.43-1.39-1.89-2-2.9-3.25-2-2.48-2.65-3.45S500.72,13.75,500.72,13.75Z"/><path d="M503.91,12.13s0.58,0.54,1.39,1.39,1.84,2,2.82,3.25,1.91,2.48,2.57,3.45,1.06,1.66,1.06,1.66-0.58-.54-1.39-1.39-1.84-2-2.82-3.25-1.91-2.48-2.57-3.45S503.91,12.13,503.91,12.13Z"/><path d="M508.79,11.63s0.59,0.52,1.41,1.35,1.86,2,2.86,3.16,1.94,2.41,2.61,3.37,1.08,1.62,1.08,1.62-0.59-.52-1.41-1.35-1.86-2-2.86-3.16-1.94-2.42-2.61-3.37S508.79,11.63,508.79,11.63Z"/><path d="M511,10.38s0.79,0.65,1.9,1.69c0.55,0.53,1.2,1.12,1.88,1.79s1.38,1.39,2.08,2.12,1.39,1.47,2,2.18,1.2,1.39,1.7,2c1,1.16,1.59,2,1.59,2s-0.79-.65-1.9-1.69c-0.55-.53-1.21-1.12-1.88-1.79s-1.38-1.39-2.08-2.12-1.39-1.47-2-2.18-1.2-1.39-1.7-2C511.58,11.19,511,10.38,511,10.38Z"/><path d="M514.94,10.38s0.61,0.5,1.48,1.29,2,1.9,3,3S521.49,17,522.22,18s1.16,1.58,1.16,1.58-0.61-.49-1.48-1.29-2-1.9-3-3-2.06-2.34-2.78-3.26S514.94,10.38,514.94,10.38Z"/><path d="M518,13.75s0.4-.35,1-0.82a26,26,0,0,1,5-2.78c0.74-.29,1.25-0.44,1.25-0.44s-0.4.35-1,.82a25.69,25.69,0,0,1-2.44,1.53,25.88,25.88,0,0,1-2.6,1.25C518.56,13.6,518,13.75,518,13.75Z"/><path d="M520.88,15.94s0.64-.45,1.64-1.06,2.36-1.36,3.75-2.06,2.81-1.33,3.9-1.77,1.83-.68,1.83-0.68-0.64.45-1.64,1.06-2.36,1.36-3.75,2.05-2.81,1.33-3.9,1.77S520.88,15.94,520.88,15.94Z"/><path d="M524.5,20.19s0.85-.6,2.17-1.42c0.67-.4,1.43-0.89,2.27-1.37s1.74-1,2.65-1.49,1.82-1,2.69-1.42,1.69-.82,2.39-1.16c1.41-.66,2.37-1.05,2.37-1.05s-0.85.6-2.17,1.42c-0.67.4-1.43,0.89-2.27,1.37s-1.74,1-2.65,1.49-1.82,1-2.69,1.41-1.69.82-2.39,1.16C525.47,19.8,524.5,20.19,524.5,20.19Z"/><path d="M456.45,48.91s2.22-1.46,5.59-3.58c1.69-1,3.65-2.3,5.78-3.59l6.67-4,6.72-4c2.14-1.27,4.17-2.4,5.9-3.39,3.46-2,5.8-3.22,5.8-3.22s-2.22,1.46-5.59,3.58c-1.69,1-3.65,2.3-5.78,3.59l-6.67,4-6.72,4c-2.14,1.26-4.17,2.4-5.9,3.39C458.79,47.65,456.45,48.91,456.45,48.91Z"/><path d="M460.71,50s2-1.37,5.07-3.35c1.54-1,3.31-2.15,5.25-3.35l6.06-3.77,6.11-3.69c1.95-1.18,3.8-2.23,5.37-3.16,3.15-1.83,5.29-3,5.29-3s-2,1.37-5.07,3.35c-1.54,1-3.31,2.15-5.25,3.35l-6.06,3.77-6.11,3.69C469.42,45,467.57,46.08,466,47,462.85,48.83,460.71,50,460.71,50Z"/><path d="M496.4,31.52s-1.58,1.25-4,3.06c-1.22.89-2.62,2-4.16,3.05l-4.82,3.43-4.87,3.35c-1.55,1.07-3,2-4.29,2.87C471.72,48.94,470,50,470,50s1.58-1.25,4-3.06c1.22-.89,2.62-2,4.16-3.05L483,40.45l4.88-3.35c1.55-1.07,3-2,4.29-2.87C494.68,32.57,496.4,31.52,496.4,31.52Z"/><path d="M498.59,32.38s-1.53,1.2-3.88,2.93c-1.18.85-2.54,1.87-4,2.92L486,41.5l-4.73,3.19c-1.51,1-2.95,1.93-4.16,2.73C474.67,49,473,50,473,50s1.53-1.2,3.88-2.93c1.18-.85,2.54-1.87,4-2.92l4.67-3.28,4.73-3.19c1.51-1,2.95-1.93,4.16-2.73C496.92,33.38,498.59,32.38,498.59,32.38Z"/><path d="M549.86,11s-0.12.52-.36,1.28A26,26,0,0,1,548.44,15a25.8,25.8,0,0,1-1.36,2.55c-0.42.67-.75,1.1-0.75,1.1s0.12-.52.36-1.28a26.09,26.09,0,0,1,2.43-5.23C549.54,11.44,549.86,11,549.86,11Z"/><path d="M552.34,11.63s-0.17.44-.49,1.06a20,20,0,0,1-1.33,2.15,19.83,19.83,0,0,1-1.59,2c-0.48.51-.84,0.81-0.84,0.81s0.17-.44.49-1.06a20,20,0,0,1,2.92-4.12C552,11.93,552.34,11.63,552.34,11.63Z"/><path d="M554.17,11.28s-0.28.82-.76,2-1.19,2.74-1.94,4.27-1.57,3-2.23,4.13-1.14,1.81-1.14,1.81,0.27-.82.76-2,1.19-2.74,1.94-4.27,1.58-3,2.23-4.13S554.17,11.28,554.17,11.28Z"/><path d="M543.67,13.16s1.19-.12,3-0.21c0.89,0,1.94-.1,3.05-0.12s2.31,0,3.5,0,2.38,0,3.5,0,2.16,0.09,3.05.12c1.79,0.09,3,.21,3,0.21s-1.19.12-3,.21c-0.89,0-1.94.1-3.05,0.12s-2.31,0-3.5,0-2.38,0-3.5,0-2.16-.09-3.05-0.12C544.86,13.28,543.67,13.16,543.67,13.16Z"/><path d="M543.67,15.34s1.07-.12,2.68-0.21c0.8,0,1.74-.1,2.75-0.12s2.08,0,3.15,0,2.15,0,3.15,0,1.94,0.09,2.75.12c1.61,0.09,2.68.21,2.68,0.21s-1.07.12-2.68,0.21c-0.8,0-1.74.1-2.75,0.12s-2.08,0-3.15,0-2.15,0-3.15,0-1.94-.09-2.75-0.12C544.74,15.46,543.67,15.34,543.67,15.34Z"/><path d="M541.33,17.34s0.8-.11,2-0.19,2.81-.12,4.41-0.11,3.21,0.1,4.41.21,2,0.24,2,.24-0.8.11-2,.19-2.81.12-4.41,0.1-3.21-.11-4.41-0.21S541.33,17.34,541.33,17.34Z"/><path d="M582.85,11.28s0.3-.37.79-0.86a20.12,20.12,0,0,1,4.05-3c0.61-.33,1.05-0.52,1.05-0.52s-0.3.37-.79,0.86A19.92,19.92,0,0,1,586,9.38a20.07,20.07,0,0,1-2.12,1.39C583.29,11.1,582.85,11.28,582.85,11.28Z"/><path d="M585.24,12s0.27-.39.73-0.91a20,20,0,0,1,3.81-3.3c0.59-.38,1-0.59,1-0.59s-0.27.39-.73,0.91a19.78,19.78,0,0,1-1.8,1.77,19.91,19.91,0,0,1-2,1.53C585.66,11.81,585.24,12,585.24,12Z"/><path d="M588.31,13s0.28-.44.76-1.05a24.84,24.84,0,0,1,4-4c0.62-.47,1.06-0.75,1.06-0.75s-0.28.44-.76,1.05a24.57,24.57,0,0,1-1.89,2.09,24.76,24.76,0,0,1-2.11,1.86C588.76,12.7,588.31,13,588.31,13Z"/><path d="M591.53,13s0.25-.46.69-1.1A24.85,24.85,0,0,1,596,7.68c0.59-.51,1-0.81,1-0.81s-0.25.46-.69,1.1a24.59,24.59,0,0,1-1.76,2.2,24.77,24.77,0,0,1-2,2C592,12.67,591.53,13,591.53,13Z"/><path d="M594.58,13.75s0.22-.5.62-1.2a27.11,27.11,0,0,1,3.49-4.73c0.56-.59,1-0.95,1-0.95s-0.22.5-.62,1.2a26.82,26.82,0,0,1-1.62,2.46,27,27,0,0,1-1.88,2.27C595,13.39,594.58,13.75,594.58,13.75Z"/></svg>