<svg id="Slip_lines_grain_Small_" data-name="Slip lines (grain Small)" xmlns="http://www.w3.org/2000/svg" viewBox="0 0 650 50"><defs><style>.cls-1{fill:#202020;}</style></defs><title>M_SlipLinesGrainSmall</title><path d="M41.14,48.1L56.9,44.7l5.79-1.24c1.85-.37,3.59-0.66,5.08-0.92,3-.49,5-0.73,5-0.73v0.07s-1.95.55-4.89,1.24c-1.47.33-3.19,0.73-5,1.1L57,45.29,41.16,48.18V48.1Z"/><path d="M44.95,50.09l14.55-3.18,5.34-1.16c1.71-.34,3.32-0.61,4.69-0.84,2.76-.45,4.61-0.66,4.61-0.66v0.07s-1.79.52-4.51,1.17c-1.36.31-2.95,0.68-4.66,1l-5.38,1L45,50.17V50.09Z"/><path d="M66.63,50s4.53-.88,9.08-1.7C76.84,48,78,47.82,79,47.64s2.07-.27,2.94-0.37c1.73-.17,2.89-0.19,2.89-0.19v0.07s-1.12.34-2.81,0.71c-0.85.17-1.84,0.38-2.91,0.55s-2.22.29-3.36,0.44c-4.57.63-9.16,1.18-9.16,1.18V50Z"/><path d="M214.37,12s3.46-.78,8.68-1.86L232,8.34l10.23-2,10.25-1.9,9-1.58c5.25-.9,8.76-1.45,8.76-1.45s-3.46.78-8.68,1.86l-8.91,1.81-10.23,2L232.09,9l-9,1.58C217.88,11.47,214.37,12,214.37,12Z"/><path d="M219.49,14.62s2.5-.6,6.26-1.41c1.88-.39,4.08-0.88,6.44-1.35l7.39-1.46L247,9c2.37-.44,4.58-0.79,6.48-1.12,3.8-.63,6.34-1,6.34-1s-2.5.6-6.26,1.41c-1.88.39-4.08,0.88-6.44,1.34l-7.39,1.46-7.41,1.36c-2.37.44-4.58,0.79-6.48,1.12C222,14.25,219.49,14.62,219.49,14.62Z"/><path class="cls-1" d="M270,8.55c0.06,0,0-.07,0-0.08S270,8.56,270,8.55Z"/><polygon class="cls-1" points="269.07 8.9 269.08 8.87 268.95 8.97 269.07 8.9"/><path class="cls-1" d="M268.14,9.09A1.15,1.15,0,0,0,268.65,9l0,0,0.06-.11A3,3,0,0,1,268.14,9.09Z"/><path class="cls-1" d="M267.59,8.95s-0.1.06,0.12,0h0Z"/><path class="cls-1" d="M267.68,8.93c0.1,0-.07,0,0,0h0Z"/><path class="cls-1" d="M267.23,9L267.36,9s-0.15,0-.11,0C267.12,9,267.15,9,267.23,9Z"/><path class="cls-1" d="M267.13,9.16l0.06,0S267.16,9.12,267.13,9.16Z"/><path class="cls-1" d="M267.33,9.06l-0.14.06s0,0.05.06,0S267.27,9.1,267.33,9.06Z"/><path class="cls-1" d="M267.41,9.06c0.08,0,.17,0,0.05.07C267.71,9.07,267.66,9,267.41,9.06Z"/><path class="cls-1" d="M268.11,9.22h0.1l0.08-.06A0.61,0.61,0,0,0,268.11,9.22Z"/><path class="cls-1" d="M266.41,9.16a0.33,0.33,0,0,0,.07.08l0.09,0A0.26,0.26,0,0,1,266.41,9.16Z"/><path class="cls-1" d="M266.49,9.24l-0.13.07C266.48,9.29,266.5,9.26,266.49,9.24Z"/><polygon class="cls-1" points="267.13 9.29 267.35 9.15 267.08 9.3 267.13 9.29"/><polygon class="cls-1" points="265.87 9.26 265.94 9.19 265.81 9.3 265.87 9.26"/><path class="cls-1" d="M265.51,9.35c0.05-.06-0.1-0.06,0-0.1a0.77,0.77,0,0,0-.24.14A0.49,0.49,0,0,1,265.51,9.35Z"/><path class="cls-1" d="M265.11,9.46l0.12-.08Z"/><path class="cls-1" d="M266.11,9.35a0.16,0.16,0,0,0-.13,0L266,9.36h0.06Z"/><path class="cls-1" d="M266.05,9.36h0l-0.12,0Z"/><path class="cls-1" d="M266.12,9.34h0Z"/><path class="cls-1" d="M266.74,9.3c-0.08.05-.24,0.13-0.06,0.15S266.63,9.38,266.74,9.3Z"/><path class="cls-1" d="M266.21,9.42l0.16,0s0,0,0-.06Z"/><polygon class="cls-1" points="266.14 9.45 266.21 9.41 266.15 9.42 266.14 9.45"/><path class="cls-1" d="M265.38,9.47a0.63,0.63,0,0,1-.21.08l0.27,0S265.47,9.45,265.38,9.47Z"/><path class="cls-1" d="M265.71,9.42h0S265.71,9.43,265.71,9.42Z"/><path class="cls-1" d="M264.37,9.71h0Z"/><path class="cls-1" d="M265.45,9.53a0.19,0.19,0,0,0,.14-0.05l-0.15,0S265.43,9.53,265.45,9.53Z"/><path class="cls-1" d="M264.89,9.54H265A0.16,0.16,0,0,0,264.89,9.54Z"/><path class="cls-1" d="M265.67,9.41h0S265.66,9.41,265.67,9.41Z"/><path class="cls-1" d="M265.67,9.41l-0.08.06,0.1,0h0Z"/><path class="cls-1" d="M264.21,10.2a0.27,0.27,0,0,1,.32-0.12c0.14-.08,0-0.26-0.15-0.35,0,0,0,.05-0.14.12,0.06,0,.35,0,0.23.09a0.28,0.28,0,0,1-.27,0c0.1,0.06-.23.17-0.16,0.27l0.17-.08S264.16,10.19,264.21,10.2Z"/><path class="cls-1" d="M264.67,9.67l0.06,0a0.66,0.66,0,0,1-.23,0,0.17,0.17,0,0,0-.12.1l0.31-.05h0Z"/><path class="cls-1" d="M265,9.59c0,0.08-.18.14-0.07,0.19a0.44,0.44,0,0,0,.22-0.13c-0.29.08,0.08-.06-0.14-0.05l0.15-.05H265s0,0,0,0h0v0c-0.09,0,0,0,0,0h0l-0.29.1Z"/><path class="cls-1" d="M266.55,9.63h0S266.52,9.64,266.55,9.63Z"/><path class="cls-1" d="M266.42,9.62a0.15,0.15,0,0,1,.1-0.05c0.06,0,0,0,0,.05s0.14-.08,0-0.09h0a0.5,0.5,0,0,1-.27-0.07A0.48,0.48,0,0,0,266.42,9.62Z"/><path class="cls-1" d="M265.71,9.62l-0.24.08,0.14,0v0C265.74,9.69,265.7,9.66,265.71,9.62Z"/><polygon class="cls-1" points="264.33 9.69 264.35 9.61 264.23 9.74 264.33 9.69"/><polygon class="cls-1" points="264.02 9.76 264.02 9.69 263.94 9.75 264.02 9.76"/><path class="cls-1" d="M246.24,14.19l-0.07,0Z"/><path class="cls-1" d="M246.76,14.09v0S246.74,14.09,246.76,14.09Z"/><path class="cls-1" d="M256.21,11.36c-0.12,0-.25-0.1-0.22,0l0,0.06A0.38,0.38,0,0,1,256.21,11.36Z"/><path class="cls-1" d="M251,12.85h0l0.06-.08Z"/><path class="cls-1" d="M250.94,13.15l-0.15,0Z"/><path class="cls-1" d="M243.42,14.84l-0.07.09C243.48,14.9,243.41,14.88,243.42,14.84Z"/><path class="cls-1" d="M260.77,10.45a1,1,0,0,0-.23,0C260.65,10.47,260.75,10.51,260.77,10.45Z"/><path class="cls-1" d="M246.3,13.42s-0.06,0-.05.05S246.31,13.43,246.3,13.42Z"/><path class="cls-1" d="M260.27,10.5h0.05a0.92,0.92,0,0,1,.21-0.06A0.32,0.32,0,0,0,260.27,10.5Z"/><path class="cls-1" d="M233.1,16.88h0Z"/><path class="cls-1" d="M230,16.8l0.12,0Z"/><path class="cls-1" d="M262.73,10c0.07,0,0,0,0,0h0Z"/><path class="cls-1" d="M263.12,10.19a0,0,0,0,0,0,0A0.06,0.06,0,0,1,263.12,10.19Z"/><path class="cls-1" d="M259.69,11.07h0S259.7,11.08,259.69,11.07Z"/><path class="cls-1" d="M262.84,10h0Z"/><path class="cls-1" d="M262.82,10h0.06S262.88,9.95,262.82,10Z"/><path class="cls-1" d="M262.64,10l0.11,0h0Z"/><path class="cls-1" d="M238.59,15.57h0C238.51,15.61,238.54,15.6,238.59,15.57Z"/><polygon class="cls-1" points="254.61 12.42 254.61 12.42 254.6 12.42 254.61 12.42"/><path class="cls-1" d="M254.37,12.52a0.23,0.23,0,0,1,.23-0.11l-0.12-.18Z"/><path class="cls-1" d="M245,14.46l0.18,0c-0.18.14-.34,0.14-0.16,0.19,0-.22.66-0.16,0.64-0.38l0.12,0-0.07,0a1.36,1.36,0,0,0,.42-0.21c0.1,0,.18,0,0.11.05l0.21-.1c0.06,0,.06,0,0,0l0.33-.08h0A1.5,1.5,0,0,1,247,13.9c0.09,0,0,0,0,.05l0.17-.09c0.09,0-.06.13-0.18,0.14,0.22,0.18.14-.08,0.54,0l-0.17.06a1.06,1.06,0,0,0,.48.06c-0.05,0-.43-0.11-0.24-0.21a0.35,0.35,0,0,0,.23-0.07c0,0.08.12,0,.25,0v0.1a0.48,0.48,0,0,0,.19-0.17,0.24,0.24,0,0,1,.26.11c0.26,0-.2-0.09.1-0.17a1.38,1.38,0,0,0,.6-0.19c0.16,0,0,.07,0,0.09l0.11-.11s0,0,0,0a0.43,0.43,0,0,1,.16-0.17,4.16,4.16,0,0,0,.58-0.08c0.06,0,0,.07,0,0.1a2.11,2.11,0,0,0,.46-0.27l0.22,0c-0.17,0,0-.17.16-0.28l-0.15-.06,0.26-.11s0,0.05,0,.1l0,0c0.1,0,.07.09,0,0.16l-0.11,0a0.25,0.25,0,0,0-.08.21L251,13s0,0,0,0a0.13,0.13,0,0,0,.07-0.05l0.08,0.1v0h0.37a2.6,2.6,0,0,1,.81-0.51c-0.08.1,0,.14,0,0.24a1.17,1.17,0,0,0-.52.13c0.11,0,.1,0,0.07.06l0.35-.17c0,0.08.09,0,.2,0.06-0.11-.14.26-0.16,0.4-0.24s0,0.11-.19.14a4.11,4.11,0,0,0,.45-0.18,0.09,0.09,0,0,0-.08,0c0.1-.07.36-0.08,0.31,0h0a1.68,1.68,0,0,0,.93-0.33,0.77,0.77,0,0,1,0,.2l0.44-.56c0,0.12.21,0.36,0,.48a0.57,0.57,0,0,0,.31-0.07c-0.05,0-.16-0.14-0.09-0.17a1.47,1.47,0,0,0,.39.11c-0.08,0,0-.21.08-0.22a0.55,0.55,0,0,1,0,.2l0.25-.24c-0.07,0,0,.15.09,0.19a1.54,1.54,0,0,1,.32-0.08l-0.13,0c0.33,0,.27-0.31.59-0.37,0,0,0,.25.12,0.23a1.45,1.45,0,0,1,.51-0.63l0.07,0,0.21-.1a4.4,4.4,0,0,1-.62.68,0.29,0.29,0,0,0,.23,0c0.07,0-.08.09-0.14,0.11l0.43-.05a2.74,2.74,0,0,1,.27-0.26l-0.44.2a0.55,0.55,0,0,1,.51-0.4c0.08,0,0,.2,0,0.23a0.57,0.57,0,0,1,.3-0.11l-0.12.08a1.2,1.2,0,0,1,.46-0.14,0.37,0.37,0,0,0,.23,0,0.68,0.68,0,0,1-.18-0.57,2.73,2.73,0,0,1,.48.09,1.74,1.74,0,0,1,0,.32,0.18,0.18,0,0,1,.08-0.1c0.08,0,0,.1.14,0.05,0-.11.32-0.06,0.06-0.11a1.65,1.65,0,0,1,.35-0.05c-0.07-.06.11-0.27,0.26-0.33a0.1,0.1,0,0,0,.06.07c0.32-.05.5,0,0.79-0.1,0,0,.18,0,0.13.08a0.36,0.36,0,0,1,.16-0.09c0.19,0.06-.2.06,0,0.14a0.81,0.81,0,0,1,.34-0.2,0.49,0.49,0,0,0-.42.11,0.61,0.61,0,0,1,.47-0.44c0.24-.08.12,0.06,0.16,0A3.59,3.59,0,0,1,262,10.3c0.17,0.05,0,.17.09,0.22a1.86,1.86,0,0,1-.45,0h0.17a0.48,0.48,0,0,1-.26.08c0.14,0.05.78-.14,1.15-0.15,0.06,0,.16-0.09.1-0.12l-0.11,0c-0.12,0,.19-0.14,0-0.14a1,1,0,0,1,.51-0.19l0.06,0.09a0.22,0.22,0,0,0-.2,0,0.74,0.74,0,0,0,.42-0.08l-0.16,0a1.18,1.18,0,0,1,.5-0.23,1.41,1.41,0,0,0-.2-0.06c0.14,0.12-.48.09-0.27,0.2A2.06,2.06,0,0,0,263,9.9s0.08,0-.09.06l0,0h0l0.09,0a1.75,1.75,0,0,1-.39.19c-0.1,0,0,0,0-.07l-0.12.08c0-.07-0.27-0.07-0.06-0.15l-0.2,0a0.72,0.72,0,0,0-.38.05c-0.1,0-.22.13-0.15,0.05l-0.3.11v0a2.79,2.79,0,0,1-1,.19,1.19,1.19,0,0,1-.38.1l0-.05a1.63,1.63,0,0,0-.46.1,1.87,1.87,0,0,0-.89.11v0.08a2.78,2.78,0,0,0-.5.16l0,0.07a3.86,3.86,0,0,1-.72.1,0.15,0.15,0,0,1,.14,0,7.53,7.53,0,0,0-1,.2,0.25,0.25,0,0,1-.18,0h0l-0.11,0,0.09,0-0.22.07L256,11.38h0c-0.09,0-.06,0,0,0.1l-0.1.07c-0.09-.11-0.21.09-0.33,0a1.24,1.24,0,0,0-.43.28s0,0,0,0a0.48,0.48,0,0,0-.27.06l-0.06-.09-0.18.17c-0.14,0-.2-0.06-0.09-0.16-0.28.18-.23,0.09-0.46,0.26V12a0.59,0.59,0,0,1-.28.09c-0.23-.08-1,0.19-1.55.18,0.14,0.16-.26,0-0.25.11,0,0-.12,0,0-0.1a1.38,1.38,0,0,0-.57.17,0.34,0.34,0,0,1,0-.1,0.13,0.13,0,0,1-.11,0s0,0,.07-0.07a0.27,0.27,0,0,0-.26.33,0.25,0.25,0,0,0-.3.09c-0.06,0-.15-0.06,0-0.11a1.07,1.07,0,0,0-.58.16,0.23,0.23,0,0,0-.16,0,4.25,4.25,0,0,0-.44.08h0.06c-0.06.14-.17,0.06-0.33,0.11h0c-0.4,0-.16.08-0.56,0.05l0,0.07a1.14,1.14,0,0,1-.57.08l0.09,0a1.38,1.38,0,0,1-.51-0.15s0,0,.07,0c-0.34,0,0,.11-0.25.18-0.05,0,0-.15-0.13-0.13a2.14,2.14,0,0,1-.67.21c0.06,0,.11.06,0,0.12a1.12,1.12,0,0,0-.61.1l0,0a1.85,1.85,0,0,0-.47.23c-0.17-.24-0.78.29-0.82,0l-0.39.09v0a0.6,0.6,0,0,0-.41.19c-0.06,0,0,0,0,0a1,1,0,0,0-.7.23l0-.07a4.7,4.7,0,0,0-.91.15,0.06,0.06,0,0,1,0,0c-0.39.18-1,0-1.11,0.3l-0.26.13c0.35,0,0,.13.13,0.15-0.13,0-.37,0-0.21-0.06h0a1.12,1.12,0,0,0-.46-0.07c-0.69.15-1.37,0.2-2,.33l0.1,0.1-0.23,0c-0.06,0-.1-0.07.06-0.1a0.27,0.27,0,0,0-.26.14c-0.32,0,.1-0.16,0-0.14l-0.13,0h0a0.47,0.47,0,0,1-.29.15,0.2,0.2,0,0,1-.13-0.05s0,0-.07,0l-0.28,0,0.13,0.07c-0.12.07-.27,0-0.12,0.13a4.59,4.59,0,0,0-1.19.13,1.41,1.41,0,0,1-.55.17c0.06,0,.11.1-0.08,0.13,0-.23-0.36,0-0.54-0.14,0.15,0.07-.52.13-0.28,0.23-0.16,0,0-.08-0.15-0.1a10.35,10.35,0,0,1-1.27.23s0.08,0.06,0,.12l-0.27-.09c-0.09,0,0,.18-0.23.11,0,0,.07,0,0,0.07a21.45,21.45,0,0,1-2.75.41c0.13,0,.05.05,0,0.07,0.06,0,0,.07,0,0.1l-0.4,0c0,0.12-.4.09-0.42,0.2l0.12,0c-0.14.15,0.28,0.22,0.28,0.37a3.34,3.34,0,0,0,.76-0.15c0.07,0,0,.06,0,0.09a0.37,0.37,0,0,1,.32-0.12l0,0a9,9,0,0,1,1.21-.15L231.91,17a0.52,0.52,0,0,1,.2,0c0.11-.14-0.32.06-0.23-0.09,0.18,0.12.8-.16,0.93,0,0.17,0-.07-0.08.11-0.11l0.06,0,0-.07a0.18,0.18,0,0,1,.2.07l-0.1,0a1.94,1.94,0,0,0,.47-0.1H233.4a14.88,14.88,0,0,0,1.49-.38l0,0a4.32,4.32,0,0,1,.66-0.13h0a0.66,0.66,0,0,1,.27-0.11c-0.09.06,0.2,0,.08,0.11a0.73,0.73,0,0,0,.4-0.28l0.07,0a0.43,0.43,0,0,1,.26-0.15c-0.15.08,0.14,0.06,0,.17a2.67,2.67,0,0,1,.79-0.1c0.15-.2-0.37,0-0.27-0.07-0.1,0,.13-0.15.26-0.16a1.45,1.45,0,0,0,.58.09l-0.06,0a2,2,0,0,1,.39-0.07c0.06-.11.19,0,0.19-0.16l-0.29.09a1.06,1.06,0,0,1,.58-0.23,0.5,0.5,0,0,1-.14.11c0.09,0,.15-0.06.24,0a1.59,1.59,0,0,1-.51.23c0.1,0,.32-0.16.26,0a1.76,1.76,0,0,1,.51-0.22v0.08a0.51,0.51,0,0,1,.16-0.08l-0.1.12a2.35,2.35,0,0,1,.52-0.08c-0.35.07-.1-0.07-0.26-0.1,0.42-.19.29,0.14,0.78,0-0.06,0-.26,0-0.16-0.05a0.84,0.84,0,0,1,.29,0c0.32-.08-0.07-0.07.06-0.14s0.15-.07.29-0.13l0,0.08c0.38,0,.07-0.18.41-0.19l-0.12.13,0.17-.06,0,0.09a0.74,0.74,0,0,1,.43-0.11c-0.05,0,0-.14.16-0.18s0,0.09.18,0a0.15,0.15,0,0,1-.2.08s0,0.06,0,.09a1,1,0,0,0,.39-0.07h-0.09l0.32-.17c0.06,0,0,0,0,.08a1.83,1.83,0,0,1,.21-0.09,0.18,0.18,0,0,1-.13.19l0.31-.13s0.18,0,.14.07c0.19,0,.41-0.21.66-0.21a0.17,0.17,0,0,1,.08-0.05,1.61,1.61,0,0,0,.68-0.13l0.17,0.08c0.2-.07-0.23-0.1.1-0.21s0.11,0.08.2,0.09a0.69,0.69,0,0,1,.54-0.19A1.11,1.11,0,0,1,245,14.46Zm2.53-.57a0.21,0.21,0,0,1-.18.06C247.39,13.85,247.44,13.89,247.53,13.89Zm3.82-1a0.17,0.17,0,0,1-.16,0A0.35,0.35,0,0,1,251.36,12.92ZM262,10.2h0C261.89,10.2,261.93,10.2,262,10.2Zm0.23,0s0,0,0,0a0.18,0.18,0,0,1-.12,0A0.1,0.1,0,0,0,262.24,10.19Zm-24.48,5h0C237.71,15.26,237.74,15.23,237.76,15.21Z"/><path class="cls-1" d="M250.94,13.12a0.07,0.07,0,0,1,0,0S250.9,13.11,250.94,13.12Z"/><path class="cls-1" d="M243.43,14.82h0v0Z"/><path class="cls-1" d="M258.84,11.55l-0.1,0S258.77,11.56,258.84,11.55Z"/><path class="cls-1" d="M263.42,9.81l-0.14,0a0.27,0.27,0,0,1,.14,0S263.38,9.82,263.42,9.81Z"/><path class="cls-1" d="M264.79,10l0.06,0v0C264.75,10,264.69,10,264.79,10Z"/><path class="cls-1" d="M263.61,10c0,0.06.11,0,.21,0h0C263.82,9.93,263.71,10,263.61,10Z"/><path class="cls-1" d="M263.85,10l0.09,0S263.9,10,263.85,10Z"/><path class="cls-1" d="M262.52,10.09a0.28,0.28,0,0,0,0-.07C262.61,9.93,262.27,10.18,262.52,10.09Z"/><polygon class="cls-1" points="263.74 10.23 263.68 10.16 263.64 10.24 263.74 10.23"/><path class="cls-1" d="M262.92,10.34h0.17s0,0,0,0A0.45,0.45,0,0,0,262.92,10.34Z"/><path class="cls-1" d="M263.12,10.29a0.36,0.36,0,0,0,.13,0Z"/><polygon class="cls-1" points="263.52 10.3 263.47 10.29 263.35 10.31 263.52 10.3"/><path class="cls-1" d="M261.16,10.68l-0.17.06s0,0,.1,0S261.19,10.7,261.16,10.68Z"/><path class="cls-1" d="M261.74,10.79a0.17,0.17,0,0,1-.09,0v0.1Z"/><path class="cls-1" d="M261.22,10.92s-0.24.13,0,.08C261.22,11,261.39,10.91,261.22,10.92Z"/><polygon class="cls-1" points="258.51 11.34 258.56 11.33 258.52 11.17 258.51 11.34"/><path class="cls-1" d="M256.22,12.21c0.22,0,0-.11.23-0.1,0,0-.16,0-0.12-0.05C256.21,12.12,256.14,12.11,256.22,12.21Z"/><path class="cls-1" d="M256.33,12.06l0.06,0Z"/><polygon class="cls-1" points="229.44 16.82 229.3 16.81 229.4 16.85 229.44 16.82"/><path class="cls-1" d="M229.21,17l-0.05-.1-0.06.11A0.16,0.16,0,0,1,229.21,17Z"/><path class="cls-1" d="M248,14v0a0.15,0.15,0,0,0-.12,0Z"/><polygon class="cls-1" points="246.09 14.32 246.13 14.32 246.05 14.24 246.09 14.32"/><path class="cls-1" d="M244.57,14.76l0.2-.05C244.63,14.75,244.53,14.64,244.57,14.76Z"/><path d="M229.15,19.67s1.52-.43,3.82-1c1.15-.27,2.49-0.61,3.93-0.92l4.52-1L246,15.9c1.45-.28,2.81-0.49,4-0.7,2.33-.39,3.9-0.58,3.9-0.58s-1.52.43-3.82,1c-1.15.27-2.49,0.61-3.93,0.92l-4.52,1-4.54.88c-1.45.28-2.81,0.49-4,.7C230.72,19.47,229.15,19.67,229.15,19.67Z"/><path d="M229.15,26.92s1.74-.47,4.38-1.08c1.32-.29,2.85-0.67,4.51-1l5.18-1.07,5.2-1c1.66-.31,3.22-0.55,4.55-0.78,2.67-.43,4.46-0.66,4.46-0.66s-1.74.47-4.38,1.08c-1.32.29-2.85,0.67-4.51,1l-5.18,1.07-5.2,1c-1.66.31-3.22,0.55-4.55,0.78C230.94,26.69,229.15,26.92,229.15,26.92Z"/><path d="M237.45,28.14s1.22-.37,3.08-0.83c0.93-.22,2-0.5,3.18-0.76s2.41-.52,3.66-0.78,2.5-.49,3.68-0.69,2.28-.37,3.22-0.53c1.89-.29,3.16-0.42,3.16-0.42s-1.22.37-3.08,0.83c-0.93.22-2,.5-3.18,0.76s-2.41.52-3.66,0.78-2.5.49-3.68,0.69-2.28.37-3.22,0.53C238.72,28,237.45,28.14,237.45,28.14Z"/><path d="M230.65,31.84s1.43-.35,3.59-0.79c1.08-.21,2.34-0.47,3.7-0.71s2.8-.48,4.25-0.72,2.9-.45,4.26-0.63,2.64-.33,3.73-0.47c2.19-.26,3.66-0.37,3.66-0.37s-1.43.35-3.59,0.79c-1.08.21-2.34,0.47-3.7,0.71s-2.8.48-4.25,0.72-2.9.45-4.26,0.63-2.64.33-3.73,0.47C232.12,31.73,230.65,31.84,230.65,31.84Z"/><path d="M339.62,28.66s5.39,0.32,10.77.71l4,0.27c1.26,0.11,2.43.27,3.43,0.4,2,0.28,3.33.56,3.33,0.56v0.07s-1.36,0-3.38,0c-1-.05-2.19-0.1-3.45-0.22L350.34,30c-5.36-.58-10.72-1.23-10.72-1.23V28.66Z"/><path d="M336.37,32.74l15.5-.26,5.69-.09c1.82,0,3.51.05,5,.09,2.91,0.1,4.84.26,4.84,0.26v0.08s-1.94.16-4.84,0.26c-1.45,0-3.15.09-5,.09l-5.69-.09-15.5-.26V32.74Z"/><path d="M336.37,35.65l13.85-.26,5.08-.09c1.62,0,3.14.05,4.44,0.09,2.6,0.1,4.33.26,4.33,0.26v0.07s-1.73.16-4.33,0.26c-1.3,0-2.81.09-4.44,0.09L350.22,36l-13.85-.26V35.65Z"/><path d="M339.62,38.48s5.45-.17,10.89-0.26l4-.09c1.28,0,2.47.05,3.49,0.09,2,0.1,3.4.26,3.4,0.26v0.08s-1.36.16-3.4,0.26c-1,0-2.21.09-3.49,0.09l-4-.09c-5.45-.1-10.89-0.26-10.89-0.26V38.48Z"/><path d="M339.63,40.64l13.08,1.64,4.8,0.61c1.53,0.22,2.95.48,4.16,0.7,2.43,0.46,4,.85,4,0.85V44.5s-1.65-.08-4.11-0.33c-1.23-.14-2.66-0.29-4.19-0.52l-4.78-.79-13-2.15V40.64Z"/><path d="M339.63,44.43s4.76,0.54,9.5,1.16L352.62,46c1.11,0.17,2.14.37,3,.55,1.76,0.37,2.92.7,2.92,0.7v0.07s-1.21,0-3-.18c-0.89-.09-1.94-0.2-3-0.36L349,46.18c-4.72-.8-9.43-1.67-9.43-1.67V44.43Z"/><path d="M248.63,31.43s4.76,0.54,9.5,1.16L261.62,33c1.11,0.17,2.14.37,3,.55,1.76,0.37,2.92.7,2.92,0.7v0.07s-1.21,0-3-.18c-0.89-.09-1.94-0.2-3-0.36L258,33.18c-4.72-.8-9.43-1.67-9.43-1.67V31.43Z"/><path d="M342.41,48.34s4.76,0.54,9.5,1.16l3.49,0.43c1.11,0.17,2.14.37,3,.55,1.76,0.37,2.92.7,2.92,0.7v0.07s-1.21,0-3-.18c-0.89-.09-1.94-0.2-3-0.36l-3.46-.61c-4.72-.8-9.43-1.67-9.43-1.67V48.34Z"/><path d="M309.25,17.43s1.32-.42,3.33-1c1-.26,2.17-0.58,3.43-0.89s2.61-.62,4-0.93,2.7-.59,4-0.84,2.46-.46,3.48-0.65c2-.36,3.42-0.54,3.42-0.54s-1.32.42-3.33,1c-1,.26-2.17.58-3.43,0.89s-2.61.62-4,.92-2.7.59-4,.84-2.46.46-3.48,0.65C310.63,17.25,309.25,17.43,309.25,17.43Z"/><path d="M314.19,20.31s1.12-.43,2.82-1c0.85-.27,1.84-0.6,2.91-0.92s2.22-.64,3.37-1,2.3-.62,3.39-0.88,2.11-.49,3-0.69c1.75-.38,2.93-0.58,2.93-0.58s-1.12.43-2.82,1c-0.85.27-1.84,0.6-2.91,0.92s-2.22.64-3.37,1-2.3.62-3.39,0.88-2.11.49-3,.69C315.37,20.12,314.19,20.31,314.19,20.31Z"/><path d="M318,23s1.25-.46,3.15-1.08c1-.29,2.06-0.66,3.25-1s2.47-.71,3.76-1.07,2.57-.69,3.78-1,2.35-.55,3.32-0.78c1.95-.44,3.26-0.67,3.26-0.67s-1.25.47-3.15,1.08c-1,.29-2.06.66-3.25,1s-2.47.71-3.76,1.07-2.57.68-3.78,1-2.35.55-3.32,0.78C319.29,22.78,318,23,318,23Z"/><path d="M323.39,25.76s1-.46,2.65-1.06c0.8-.29,1.73-0.65,2.74-1s2.09-.71,3.17-1.06,2.17-.68,3.2-1,2-.54,2.82-0.77c1.66-.43,2.78-0.66,2.78-0.66s-1,.46-2.65,1.07c-0.8.29-1.73,0.65-2.74,1s-2.09.71-3.17,1.06-2.17.68-3.2,1-2,.54-2.82.77C324.51,25.53,323.39,25.76,323.39,25.76Z"/><path d="M451.75,30.6l14.83-.26,5.44-.09c1.74,0,3.36.05,4.75,0.09,2.78,0.1,4.63.26,4.63,0.26v0.08s-1.85.16-4.63,0.26c-1.39,0-3,.09-4.75.09l-5.44-.09-14.83-.26V30.6Z"/><path d="M450.1,33s2.46-.14,6.14-0.25c1.84,0,4-.13,6.29-0.16l7.21-.1H477c2.3,0,4.45.05,6.29,0.07,3.68,0.07,6.14.17,6.14,0.17s-2.46.14-6.14,0.25c-1.84,0-4,.13-6.29.16l-7.21.1h-7.22c-2.3,0-4.45-.05-6.29-0.07C452.56,33.14,450.1,33,450.1,33Z"/><path d="M448.29,35.64l25.18-.26,9.25-.09c3,0,5.7.05,8.06,0.09,4.72,0.1,7.87.26,7.87,0.26v0.08s-3.15.16-7.87,0.26c-2.36,0-5.11.09-8.06,0.09L473.47,36l-25.18-.26V35.64Z"/><path d="M446.35,38.52s3.49-.12,8.72-0.21l8.94-.11,10.24,0,10.24,0,8.94,0.11c5.23,0.09,8.72.21,8.72,0.21s-3.49.12-8.72,0.21l-8.94.11-10.24,0-10.24,0-8.94-.11C449.84,38.64,446.35,38.52,446.35,38.52Z"/><path d="M339.63,44.43s4.76,0.54,9.5,1.16L352.62,46c1.11,0.17,2.14.37,3,.55,1.76,0.37,2.92.7,2.92,0.7v0.07s-1.21,0-3-.18c-0.89-.09-1.94-0.2-3-0.36L349,46.18c-4.72-.8-9.43-1.67-9.43-1.67V44.43Z"/><path d="M594.91,18.38s3.75-.46,7.51-0.85c0.94-.11,1.88-0.22,2.76-0.3s1.71-.08,2.42-0.09c1.42,0,2.37.08,2.37,0.08v0.07s-0.93.23-2.33,0.44c-0.7.09-1.52,0.21-2.4,0.28s-1.83.08-2.77,0.12c-3.77.19-7.55,0.32-7.55,0.32V18.38Z"/><path d="M593.71,21.55s1.11-.22,2.78-0.46c0.84-.11,1.81-0.26,2.86-0.38s2.17-.23,3.29-0.34,2.24-.19,3.3-0.25,2-.1,2.88-0.14c1.69-.06,2.82,0,2.82,0s-1.11.22-2.78,0.46c-0.84.11-1.81,0.26-2.86,0.38s-2.17.23-3.29,0.34-2.24.19-3.3,0.25-2,.1-2.88.14C594.84,21.57,593.71,21.55,593.71,21.55Z"/><path d="M593.71,24.19s3.81-.53,7.62-1c1-.13,1.9-0.26,2.8-0.36s1.74-.11,2.46-0.14c1.44,0,2.41,0,2.41,0v0.07s-0.94.25-2.36,0.49c-0.71.11-1.54,0.24-2.44,0.33s-1.86.12-2.82,0.18c-3.83.27-7.67,0.47-7.67,0.47V24.19Z"/><path d="M597.65,26.36s1-.25,2.63-0.54c0.79-.13,1.71-0.31,2.71-0.46s2.05-.3,3.12-0.44,2.13-.25,3.13-0.35,1.94-.16,2.74-0.22c1.6-.11,2.68-0.12,2.68-0.12s-1,.25-2.63.54c-0.79.13-1.71,0.31-2.71,0.46s-2.05.3-3.12,0.44-2.13.25-3.13,0.35-1.94.16-2.74,0.22C598.73,26.34,597.65,26.36,597.65,26.36Z"/><path d="M594.91,29.22a12.64,12.64,0,0,1,2.16-.64c0.33-.06.68-0.14,1.06-0.19s0.79,0,1.21-.07a9.68,9.68,0,0,0,2.59-.43c0.86-.27,1.74-0.44,2.56-0.61a20.74,20.74,0,0,1,2.26-.32,19.55,19.55,0,0,1,2.25-.07V27a19.55,19.55,0,0,1-2.15.66,20.74,20.74,0,0,1-2.25.43c-0.83.1-1.72,0.23-2.62,0.25a9.68,9.68,0,0,0-2.59.42c-0.41.11-.79,0.24-1.17,0.32s-0.74.12-1.07,0.17a12.64,12.64,0,0,1-2.25.09V29.22Z"/><path d="M592.68,31.88s6.29-1.12,12.59-2.18l4.63-.79c1.48-.22,2.87-0.38,4.06-0.52,2.38-.26,4-0.34,4-0.34v0.07s-1.56.4-3.91,0.86c-1.18.22-2.55,0.48-4,.71l-4.65.61C599,31.16,592.69,32,592.69,32V31.88Z"/><path d="M591.65,34.42s0.86-.27,2.18-0.6,3.07-.7,4.84-1,3.55-.56,4.9-0.7,2.25-.18,2.25-0.18-0.86.27-2.18,0.6-3.07.7-4.84,1-3.55.56-4.9,0.7S591.65,34.42,591.65,34.42Z"/><path d="M451.78,38.87s-0.06,2.39-.18,4.78c0,0.6,0,1.2-.07,1.75a14.75,14.75,0,0,1-.23,1.51c-0.1.44-.18,0.81-0.27,1.06s-0.13.4-.13,0.4h-0.07s0-.15-0.06-0.42,0-.64-0.07-1.09a14.74,14.74,0,0,1,.05-1.53c0.06-.56.16-1.15,0.25-1.74,0.32-2.37.7-4.73,0.7-4.73h0.07Z"/><path d="M456.87,38.53s-0.6,3.08-1.26,6.15c-0.16.77-.3,1.54-0.47,2.26s-0.38,1.37-.57,1.93-0.37,1-.51,1.34-0.22.5-.22,0.5l-0.07,0s0-.2,0-0.55,0.1-.83.18-1.42,0.23-1.26.4-2,0.42-1.46.65-2.21c0.85-3,1.77-6,1.77-6Z"/><path d="M462.5,38.53s-1,2.41-2,4.79c-0.25.6-.48,1.2-0.73,1.76s-0.54,1-.79,1.46-0.48.76-.66,1-0.28.36-.28,0.36l-0.07,0s0-.16.11-0.44,0.2-.67.35-1.13,0.38-1,.63-1.54,0.59-1.11.9-1.68c1.2-2.3,2.46-4.57,2.46-4.57Z"/><path d="M465,38.53s-0.85,3.13-1.77,6.25c-0.22.78-.43,1.57-0.66,2.29s-0.49,1.39-.73,1.95-0.45,1-.62,1.34-0.26.5-.26,0.5l-0.07,0s0-.21.08-0.56,0.17-.85.3-1.45,0.33-1.28.56-2,0.54-1.48.83-2.23c1.1-3.05,2.27-6.08,2.27-6.08Z"/><path d="M468.72,38.53s-0.77,3.1-1.6,6.19c-0.2.77-.39,1.55-0.59,2.27s-0.45,1.37-.68,1.93-0.42,1-.58,1.34-0.25.5-.25,0.5l-0.07,0s0-.2.07-0.55,0.14-.84.26-1.43,0.3-1.27.51-2,0.5-1.46.77-2.22c1-3,2.11-6,2.11-6Z"/><path d="M471.77,38.53s-0.6,3-1.27,5.95c-0.16.74-.31,1.49-0.47,2.18s-0.38,1.32-.58,1.86-0.37,1-.51,1.29-0.22.48-.22,0.48l-0.07,0s0-.19,0-0.53,0.1-.81.18-1.37,0.23-1.21.4-1.91,0.42-1.41.65-2.14c0.86-2.92,1.78-5.81,1.78-5.81Z"/><path d="M475.48,38.74s-0.77,3-1.6,6c-0.2.75-.39,1.5-0.59,2.2s-0.45,1.33-.68,1.87-0.42,1-.58,1.29-0.25.48-.25,0.48l-0.07,0s0-.2.07-0.54,0.14-.82.26-1.39,0.3-1.23.51-1.92,0.5-1.42.77-2.15c1-2.93,2.11-5.84,2.11-5.84Z"/><path d="M159.91,13.72s-2.31,0-5.76,0c-1.73,0-3.75-.07-5.9-0.15l-6.76-.25-6.76-.35c-2.16-.11-4.17-0.27-5.89-0.38-3.45-.24-5.75-0.47-5.75-0.47s2.31,0,5.76,0c1.73,0,3.75.06,5.9,0.15l6.76,0.25,6.76,0.35c2.16,0.11,4.17.27,5.89,0.38C157.61,13.5,159.91,13.72,159.91,13.72Z"/><path d="M158.71,16.07s-2.23,0-5.58,0c-1.67,0-3.62,0-5.71-.12l-6.54-.22-6.54-.32c-2.09-.1-4-0.25-5.7-0.35-3.34-.23-5.56-0.44-5.56-0.44s2.23,0,5.58,0c1.67,0,3.62,0,5.71.12L140.91,15l6.54,0.32c2.09,0.1,4,.25,5.7.35C156.49,15.86,158.71,16.07,158.71,16.07Z"/><path d="M157.24,18.94s-2.15-.06-5.36-0.24c-1.6-.1-3.48-0.19-5.48-0.35l-6.28-.48-6.27-.58c-2-.18-3.86-0.41-5.46-0.57-3.2-.36-5.32-0.66-5.32-0.66s2.15,0.06,5.36.24c1.6,0.1,3.48.19,5.48,0.35l6.28,0.48,6.27,0.58c2,0.18,3.86.41,5.46,0.57C155.12,18.64,157.24,18.94,157.24,18.94Z"/><path d="M135.91,20.17s0.15-.91.46-2.25,0.78-3.11,1.31-4.86,1.12-3.48,1.61-4.77,0.87-2.13.87-2.13-0.15.91-.46,2.25-0.78,3.11-1.31,4.86-1.13,3.48-1.61,4.77S135.91,20.17,135.91,20.17Z"/><path d="M138,22.17s0.15-.75.46-1.84,0.77-2.53,1.3-4,1.11-2.81,1.6-3.84,0.86-1.7.86-1.7-0.15.75-.46,1.85-0.77,2.53-1.3,3.95-1.11,2.81-1.6,3.84S138,22.17,138,22.17Z"/><path d="M140.89,22.17s0.25-.92.7-2.28c0.24-.67.5-1.46,0.81-2.3s0.66-1.72,1-2.6,0.73-1.75,1.1-2.56,0.73-1.56,1-2.21c0.62-1.28,1.09-2.12,1.09-2.12s-0.25.92-.7,2.28c-0.24.67-.49,1.46-0.81,2.3s-0.66,1.72-1,2.6S143.38,17,143,17.85s-0.73,1.56-1,2.21C141.36,21.34,140.89,22.17,140.89,22.17Z"/><path d="M525.68,9.52s5.39,0.32,10.77.71l4,0.27c1.26,0.11,2.43.27,3.43,0.4,2,0.28,3.33.56,3.33,0.56v0.07s-1.36,0-3.38,0c-1-.05-2.19-0.1-3.45-0.22l-3.94-.45C531,10.25,525.67,9.6,525.67,9.6V9.52Z"/><path d="M525,13.61l14.22-.26,5.22-.09c1.67,0,3.22.05,4.55,0.09,2.67,0.1,4.44.26,4.44,0.26v0.08s-1.78.16-4.44,0.26c-1.33,0-2.89.09-4.55,0.09l-5.22-.09L525,13.68V13.61Z"/><path d="M526.16,16.21s6-.17,12-0.26l4.4-.09c1.4,0,2.71.05,3.84,0.09,2.25,0.1,3.74.26,3.74,0.26v0.07s-1.5.16-3.74,0.26c-1.12,0-2.43.09-3.84,0.09l-4.4-.09c-6-.1-12-0.26-12-0.26V16.21Z"/><path d="M408.15,44.42s-0.18-1.54-.36-3.86c-0.08-1.16-.19-2.51-0.27-4s-0.15-3-.22-4.55-0.11-3.1-.13-4.55,0-2.81,0-4c0-2.33.06-3.88,0.06-3.88s0.18,1.54.36,3.86c0.08,1.16.19,2.51,0.27,4s0.15,3,.22,4.55,0.11,3.1.13,4.55,0,2.81,0,4C408.21,42.87,408.15,44.42,408.15,44.42Z"/><path d="M405.73,43.86s-0.18-1.49-.37-3.73c-0.08-1.12-.2-2.43-0.29-3.83s-0.16-2.9-.24-4.4-0.12-3-.15-4.4,0-2.72,0-3.84c0-2.25,0-3.75,0-3.75s0.19,1.49.37,3.73c0.08,1.12.2,2.43,0.29,3.83s0.16,2.9.24,4.4,0.12,3,.15,4.4,0,2.72,0,3.84C405.78,42.36,405.73,43.86,405.73,43.86Z"/><path d="M402.77,43.18s-0.09-1.45-.14-3.62c0-1.08,0-2.35,0-3.71s0-2.8,0-4.25,0.07-2.89.13-4.24,0.14-2.62.19-3.7c0.13-2.17.28-3.61,0.28-3.61s0.09,1.45.14,3.62c0,1.08.05,2.35,0,3.71s0,2.8,0,4.25-0.07,2.89-.13,4.24-0.14,2.62-.19,3.7C402.92,41.74,402.77,43.18,402.77,43.18Z"/><path d="M400.05,29.06s0.9,0,2.24,0,3.13,0.14,4.9.31,3.55,0.41,4.87.63,2.2,0.43,2.2.43-0.9,0-2.24,0-3.13-.14-4.9-0.31-3.55-.41-4.87-0.63S400.05,29.06,400.05,29.06Z"/><path d="M398.21,30.69s0.74,0,1.84,0,2.55,0.2,4,.4,2.88,0.47,4,.72,1.78,0.47,1.78.47-0.74,0-1.84,0-2.55-.2-4-0.4-2.88-.47-4-0.72S398.21,30.69,398.21,30.69Z"/><path d="M398.41,32.6s0.92,0,2.28.16,3.17,0.36,5,.66,3.59,0.66,4.92,1S412.8,35,412.8,35s-0.92,0-2.28-.16-3.17-.36-5-0.66-3.59-.66-4.92-1S398.41,32.6,398.41,32.6Z"/><path d="M11.38,4.53S8.62,6.3,5.83,8c-0.69.44-1.38,0.88-2,1.27s-1.3.71-1.86,1-1,.47-1.37.59L0,11,0,11s0.16-.14.44-0.36,0.7-.53,1.2-0.88S2.74,9,3.4,8.6s1.4-.74,2.13-1.11c2.89-1.54,5.81-3,5.81-3Z"/><path d="M0,18s4-2.7,8-5.35l3-2c1-.6,1.88-1.12,2.67-1.56,1.59-.87,2.69-1.38,2.69-1.38l0,0.06S15.43,8.56,14,9.6c-0.75.51-1.61,1.12-2.57,1.72l-3,1.81C4.2,15.61,0,18,0,18Z"/><path d="M20.41,10.8s-5,3-10.07,5.93L6.64,18.9c-1.19.67-2.34,1.24-3.31,1.74C1.37,21.63,0,22.2,0,22.2l0-.07s1.2-.85,3.06-2c0.94-.57,2-1.24,3.22-1.91l3.79-2c5.14-2.77,10.32-5.47,10.32-5.47Z"/><path d="M20.41,13.75s-5,3.25-10.06,6.43l-3.7,2.36c-1.19.73-2.34,1.36-3.31,1.91C1.38,25.53,0,26.17,0,26.17l0-.06S1.17,25.19,3,23.94c0.94-.62,2-1.34,3.22-2.07L10,19.67c5.15-3,10.33-6,10.33-6Z"/><path d="M21.94,16.87s-5.4,3-10.84,5.89l-4,2.16c-1.28.66-2.51,1.23-3.55,1.73C1.46,27.61,0,28.18,0,28.18l0-.07s1.3-.85,3.31-2c1-.57,2.18-1.23,3.47-1.89l4.07-2C16.35,19.48,21.9,16.8,21.9,16.8Z"/></svg>