<svg id="Slip_lines_grain_Small_" data-name="Slip lines (grain Small)" xmlns="http://www.w3.org/2000/svg" viewBox="0 0 300 50"><defs><style>.cls-1{fill:#202020;}</style></defs><title>M_SlipLinesGrainSmall</title><path d="M41.14,48l15.76-3.4,5.79-1.24c1.85-.37,3.59-0.66,5.08-0.92,3-.49,5-0.73,5-0.73v0.07s-1.95.55-4.89,1.24c-1.47.33-3.19,0.73-5,1.1L57,45.15,41.16,48V48Z"/><path d="M44.95,50l14.55-3.18,5.34-1.16c1.71-.34,3.32-0.61,4.69-0.84,2.76-.45,4.61-0.66,4.61-0.66V44.2s-1.79.52-4.51,1.17c-1.36.31-2.95,0.68-4.66,1l-5.38,1L45,50V50Z"/><path d="M66.63,49.83s4.53-.88,9.08-1.7c1.13-.21,2.27-0.44,3.33-0.62s2.07-.27,2.94-0.37c1.73-.17,2.89-0.19,2.89-0.19V47s-1.12.34-2.81,0.71c-0.85.17-1.84,0.38-2.91,0.55s-2.22.29-3.36,0.44c-4.57.63-9.16,1.18-9.16,1.18V49.83Z"/><path d="M214.37,11.88s3.46-.78,8.68-1.86L232,8.21l10.23-2,10.25-1.9,9-1.58c5.25-.9,8.76-1.45,8.76-1.45s-3.46.78-8.68,1.86L252.57,5,242.34,7,232.09,8.85l-9,1.58C217.88,11.33,214.37,11.88,214.37,11.88Z"/><path d="M219.49,14.49s2.5-.6,6.26-1.41c1.88-.39,4.08-0.88,6.44-1.35l7.39-1.46L247,8.91c2.37-.44,4.58-0.79,6.48-1.12,3.8-.63,6.34-1,6.34-1s-2.5.6-6.26,1.41c-1.88.39-4.08,0.88-6.44,1.34L239.72,11l-7.41,1.36c-2.37.44-4.58,0.79-6.48,1.12C222,14.12,219.49,14.49,219.49,14.49Z"/><path class="cls-1" d="M270,8.42c0.06,0,0-.07,0-0.08S270,8.43,270,8.42Z"/><polygon class="cls-1" points="269.07 8.77 269.08 8.74 268.95 8.84 269.07 8.77"/><path class="cls-1" d="M268.14,9a1.15,1.15,0,0,0,.51-0.08l0,0,0.06-.11A3,3,0,0,1,268.14,9Z"/><path class="cls-1" d="M267.59,8.82s-0.1.06,0.12,0h0Z"/><path class="cls-1" d="M267.68,8.8c0.1,0-.07,0,0,0h0Z"/><path class="cls-1" d="M267.23,8.92l0.12-.07s-0.15,0-.11,0C267.12,8.87,267.15,8.89,267.23,8.92Z"/><path class="cls-1" d="M267.13,9l0.06,0S267.16,9,267.13,9Z"/><path class="cls-1" d="M267.33,8.93L267.19,9s0,0.05.06,0S267.27,9,267.33,8.93Z"/><path class="cls-1" d="M267.41,8.93c0.08,0,.17,0,0.05.07C267.71,8.94,267.66,8.86,267.41,8.93Z"/><path class="cls-1" d="M268.11,9.08h0.1L268.29,9A0.6,0.6,0,0,0,268.11,9.08Z"/><path class="cls-1" d="M266.41,9a0.33,0.33,0,0,0,.07.08l0.09,0A0.26,0.26,0,0,1,266.41,9Z"/><path class="cls-1" d="M266.49,9.11l-0.14.07C266.48,9.16,266.5,9.13,266.49,9.11Z"/><polygon class="cls-1" points="267.13 9.15 267.35 9.02 267.08 9.16 267.13 9.15"/><polygon class="cls-1" points="265.87 9.13 265.94 9.06 265.81 9.17 265.87 9.13"/><path class="cls-1" d="M265.51,9.22c0.05-.06-0.1-0.06,0-0.1a0.77,0.77,0,0,0-.24.14A0.49,0.49,0,0,1,265.51,9.22Z"/><path class="cls-1" d="M265.11,9.33l0.12-.08Z"/><path class="cls-1" d="M266.11,9.22a0.16,0.16,0,0,0-.13,0L266,9.23h0.06Z"/><path class="cls-1" d="M266.05,9.23h0l-0.12,0Z"/><path class="cls-1" d="M266.12,9.21h0Z"/><path class="cls-1" d="M266.74,9.17c-0.08.05-.24,0.13-0.06,0.15S266.63,9.25,266.74,9.17Z"/><path class="cls-1" d="M266.21,9.28l0.16,0s0,0,0-.06Z"/><polygon class="cls-1" points="266.14 9.32 266.21 9.28 266.15 9.29 266.14 9.32"/><path class="cls-1" d="M265.38,9.34a0.63,0.63,0,0,1-.21.08l0.27,0S265.47,9.32,265.38,9.34Z"/><path class="cls-1" d="M265.71,9.29h0S265.71,9.3,265.71,9.29Z"/><path class="cls-1" d="M264.37,9.58h0Z"/><path class="cls-1" d="M265.45,9.39a0.19,0.19,0,0,0,.14-0.05l-0.15,0S265.43,9.4,265.45,9.39Z"/><path class="cls-1" d="M264.89,9.4H265A0.16,0.16,0,0,0,264.89,9.4Z"/><path class="cls-1" d="M265.67,9.28h0S265.66,9.27,265.67,9.28Z"/><path class="cls-1" d="M265.67,9.28l-0.08.06,0.1,0h0Z"/><path class="cls-1" d="M264.21,10.06a0.27,0.27,0,0,1,.32-0.12c0.14-.08,0-0.26-0.15-0.35,0,0,0,.05-0.14.12,0.06,0,.35,0,0.23.09a0.28,0.28,0,0,1-.27,0c0.1,0.06-.23.17-0.16,0.27l0.17-.08S264.16,10.06,264.21,10.06Z"/><path class="cls-1" d="M264.67,9.54l0.06,0a0.66,0.66,0,0,1-.23,0,0.17,0.17,0,0,0-.12.1l0.31-.05h0Z"/><path class="cls-1" d="M265,9.46c0,0.08-.18.14-0.07,0.19a0.44,0.44,0,0,0,.22-0.13c-0.29.08,0.08-.06-0.14-0.05l0.15-.05H265s0,0,0,0h0v0c-0.09,0,0,0,0,0h0l-0.29.1Z"/><path class="cls-1" d="M266.55,9.5h0S266.52,9.51,266.55,9.5Z"/><path class="cls-1" d="M266.42,9.49a0.15,0.15,0,0,1,.1-0.05c0.06,0,0,0,0,.05s0.14-.08,0-0.09h0a0.5,0.5,0,0,1-.27-0.07A0.48,0.48,0,0,0,266.42,9.49Z"/><path class="cls-1" d="M265.71,9.49l-0.24.08,0.14,0v0C265.74,9.56,265.7,9.52,265.71,9.49Z"/><polygon class="cls-1" points="264.33 9.55 264.35 9.47 264.23 9.6 264.33 9.55"/><polygon class="cls-1" points="264.02 9.63 264.02 9.56 263.94 9.62 264.02 9.63"/><path class="cls-1" d="M246.24,14.06l-0.07,0Z"/><path class="cls-1" d="M246.76,14v0S246.74,14,246.76,14Z"/><path class="cls-1" d="M256.21,11.22c-0.12,0-.25-0.1-0.22,0l0,0.06A0.38,0.38,0,0,1,256.21,11.22Z"/><path class="cls-1" d="M251,12.72h0l0.06-.08Z"/><path class="cls-1" d="M250.94,13l-0.15,0Z"/><path class="cls-1" d="M243.42,14.71l-0.07.09C243.48,14.77,243.41,14.74,243.42,14.71Z"/><path class="cls-1" d="M260.77,10.31a1,1,0,0,0-.23,0C260.65,10.34,260.75,10.38,260.77,10.31Z"/><path class="cls-1" d="M246.3,13.29s-0.06,0-.05.05S246.31,13.3,246.3,13.29Z"/><path class="cls-1" d="M260.27,10.37h0.05a0.92,0.92,0,0,1,.21-0.06A0.32,0.32,0,0,0,260.27,10.37Z"/><path class="cls-1" d="M233.1,16.75h0Z"/><path class="cls-1" d="M230,16.67l0.12,0Z"/><path class="cls-1" d="M262.73,9.86c0.07,0,0,0,0,0h0Z"/><path class="cls-1" d="M263.12,10.06a0,0,0,0,0,0,0A0.06,0.06,0,0,1,263.12,10.06Z"/><path class="cls-1" d="M259.69,10.94h0S259.7,10.94,259.69,10.94Z"/><path class="cls-1" d="M262.84,9.87h0Z"/><path class="cls-1" d="M262.82,9.84h0.06S262.88,9.81,262.82,9.84Z"/><path class="cls-1" d="M262.64,9.88l0.11,0h0Z"/><path class="cls-1" d="M238.59,15.44h0C238.51,15.48,238.54,15.47,238.59,15.44Z"/><polygon class="cls-1" points="254.61 12.29 254.61 12.29 254.6 12.29 254.61 12.29"/><path class="cls-1" d="M254.37,12.39a0.23,0.23,0,0,1,.23-0.11l-0.12-.18Z"/><path class="cls-1" d="M245,14.33l0.18,0c-0.18.14-.34,0.14-0.16,0.19,0-.22.66-0.16,0.64-0.38l0.12,0-0.07,0a1.36,1.36,0,0,0,.42-0.21c0.1,0,.18,0,0.11.05l0.21-.1c0.06,0,.06,0,0,0l0.33-.08h0a1.5,1.5,0,0,1,.19-0.15c0.09,0,0,0,0,.05l0.17-.09c0.09,0-.06.13-0.18,0.14,0.22,0.18.14-.08,0.54,0l-0.17.06a1.07,1.07,0,0,0,.48.06c-0.05,0-.43-0.11-0.24-0.21a0.35,0.35,0,0,0,.23-0.07c0,0.08.12,0,.25,0v0.1a0.48,0.48,0,0,0,.19-0.17,0.24,0.24,0,0,1,.26.11c0.26,0-.2-0.09.1-0.17a1.38,1.38,0,0,0,.6-0.19c0.16,0,0,.07,0,0.09l0.11-.11s0,0,0,0a0.43,0.43,0,0,1,.16-0.17,4.16,4.16,0,0,0,.58-0.08c0.06,0,0,.07,0,0.1a2.11,2.11,0,0,0,.46-0.27l0.22,0c-0.17,0,0-.17.16-0.28l-0.15-.06,0.26-.11s0,0.05,0,.1l0,0c0.1,0,.07.09,0,0.16l-0.11,0a0.25,0.25,0,0,0-.08.21l0.08,0s0,0,0,0a0.13,0.13,0,0,0,.07-0.05l0.08,0.1v0h0.37a2.6,2.6,0,0,1,.81-0.51c-0.08.1,0,.14,0,0.24a1.17,1.17,0,0,0-.52.13c0.11,0,.1,0,0.07.06l0.35-.17c0,0.08.09,0,.2,0.06-0.11-.14.26-0.16,0.4-0.24s0,0.11-.19.14a4.1,4.1,0,0,0,.45-0.18,0.09,0.09,0,0,0-.08,0c0.1-.07.36-0.08,0.31,0h0a1.68,1.68,0,0,0,.93-0.33,0.77,0.77,0,0,1,0,.2l0.44-.56c0,0.12.21,0.36,0,.48a0.57,0.57,0,0,0,.31-0.07c-0.05,0-.16-0.14-0.09-0.17a1.47,1.47,0,0,0,.39.11c-0.08,0,0-.21.08-0.22a0.54,0.54,0,0,1,0,.2l0.25-.24c-0.07,0,0,.15.09,0.19A1.54,1.54,0,0,1,256,12l-0.13,0c0.33,0,.27-0.31.59-0.37,0,0,0,.25.12,0.23a1.45,1.45,0,0,1,.51-0.63l0.07,0,0.21-.1a4.39,4.39,0,0,1-.62.68,0.29,0.29,0,0,0,.23,0c0.07,0-.08.09-0.14,0.11l0.43-.05a2.75,2.75,0,0,1,.27-0.26l-0.44.2a0.55,0.55,0,0,1,.51-0.4c0.08,0,0,.2,0,0.23a0.57,0.57,0,0,1,.3-0.11l-0.12.08a1.2,1.2,0,0,1,.46-0.14,0.37,0.37,0,0,0,.23,0,0.68,0.68,0,0,1-.18-0.57,2.73,2.73,0,0,1,.48.09,1.74,1.74,0,0,1,0,.32,0.18,0.18,0,0,1,.08-0.1c0.08,0,0,.1.14,0.05,0-.11.32-0.06,0.06-0.11a1.65,1.65,0,0,1,.35-0.05c-0.07-.06.11-0.27,0.26-0.33a0.1,0.1,0,0,0,.06.07c0.32-.05.5,0,0.79-0.1,0,0,.18,0,0.13.08a0.36,0.36,0,0,1,.16-0.09c0.19,0.06-.2.06,0,0.14a0.81,0.81,0,0,1,.34-0.2,0.49,0.49,0,0,0-.42.11,0.61,0.61,0,0,1,.47-0.44c0.24-.08.12,0.06,0.16,0a3.58,3.58,0,0,1,.75-0.29c0.17,0.05,0,.17.09,0.22a1.86,1.86,0,0,1-.45,0h0.17a0.48,0.48,0,0,1-.26.08c0.14,0.05.78-.14,1.15-0.15,0.06,0,.16-0.09.1-0.12l-0.11,0c-0.12,0,.19-0.14,0-0.14a1,1,0,0,1,.51-0.19L263.32,10a0.22,0.22,0,0,0-.2,0,0.74,0.74,0,0,0,.42-0.08l-0.16,0a1.18,1.18,0,0,1,.5-0.23,1.41,1.41,0,0,0-.2-0.06c0.14,0.12-.48.09-0.27,0.2A2.06,2.06,0,0,0,263,9.77s0.08,0-.08.06l0,0h0l0.09,0a1.75,1.75,0,0,1-.39.19c-0.1,0,0,0,0-.07l-0.12.08c0-.07-0.27-0.07-0.06-0.15l-0.2,0a0.72,0.72,0,0,0-.38.05c-0.1,0-.22.13-0.15,0.05l-0.3.11v0a2.79,2.79,0,0,1-1,.19,1.19,1.19,0,0,1-.38.1l0-.05a1.63,1.63,0,0,0-.46.1,1.87,1.87,0,0,0-.89.11v0.08a2.78,2.78,0,0,0-.5.16l0,0.07a3.87,3.87,0,0,1-.72.1,0.15,0.15,0,0,1,.14,0,7.53,7.53,0,0,0-1,.2,0.25,0.25,0,0,1-.18,0h0l-0.11,0,0.09,0-0.22.07L256,11.25h0c-0.09,0-.06,0,0,0.1l-0.1.07c-0.09-.11-0.21.09-0.33,0a1.24,1.24,0,0,0-.43.28s0,0,0,0a0.48,0.48,0,0,0-.27.06l-0.06-.09-0.18.17c-0.14,0-.2-0.06-0.09-0.16-0.28.18-.23,0.09-0.46,0.26V11.82a0.59,0.59,0,0,1-.28.09c-0.23-.08-1,0.19-1.55.18,0.14,0.16-.26,0-0.25.11,0,0-.12,0,0-0.1a1.38,1.38,0,0,0-.57.17,0.34,0.34,0,0,1,0-.1,0.13,0.13,0,0,1-.11,0s0,0,.07-0.07a0.27,0.27,0,0,0-.26.33,0.25,0.25,0,0,0-.3.09c-0.06,0-.15-0.06,0-0.11a1.07,1.07,0,0,0-.58.16,0.23,0.23,0,0,0-.16,0,4.25,4.25,0,0,0-.44.08h0.06c-0.06.14-.17,0.06-0.33,0.11h0c-0.4,0-.16.08-0.56,0.05l0,0.07a1.14,1.14,0,0,1-.57.08l0.09,0a1.38,1.38,0,0,1-.51-0.15s0,0,.07,0c-0.34,0,0,.11-0.25.18-0.05,0,0-.15-0.13-0.13a2.14,2.14,0,0,1-.67.21c0.06,0,.11.06,0,0.12a1.12,1.12,0,0,0-.61.1l0,0a1.85,1.85,0,0,0-.47.23c-0.17-.24-0.78.29-0.82,0l-0.39.09v0a0.6,0.6,0,0,0-.41.19c-0.06,0,0,0,0,0a1,1,0,0,0-.7.23l0-.07a4.7,4.7,0,0,0-.91.15,0.06,0.06,0,0,1,0,0c-0.39.18-1,0-1.11,0.3l-0.26.13c0.35,0,0,.13.13,0.15-0.13,0-.37,0-0.21-0.06h0a1.12,1.12,0,0,0-.46-0.07c-0.69.15-1.37,0.2-2,.33l0.1,0.1-0.23,0c-0.06,0-.1-0.07.06-0.1a0.27,0.27,0,0,0-.26.14c-0.32,0,.09-0.16,0-0.14l-0.13,0h0a0.47,0.47,0,0,1-.29.15,0.2,0.2,0,0,1-.13-0.05s0,0-.07,0l-0.28,0,0.13,0.07c-0.12.07-.27,0-0.12,0.13a4.59,4.59,0,0,0-1.19.13,1.41,1.41,0,0,1-.55.17c0.06,0,.11.1-0.08,0.13,0-.23-0.36,0-0.54-0.14,0.15,0.07-.52.13-0.28,0.23-0.16,0,0-.08-0.15-0.1a10.35,10.35,0,0,1-1.27.23s0.08,0.06,0,.12L233.1,16c-0.09,0,0,.18-0.23.11,0,0,.07,0,0,0.07a21.46,21.46,0,0,1-2.75.41c0.13,0,.05.05,0,0.07,0.06,0,0,.07,0,0.1l-0.4,0c0,0.12-.4.09-0.42,0.2l0.12,0c-0.14.15,0.28,0.22,0.28,0.37a3.34,3.34,0,0,0,.76-0.15c0.07,0,0,.06,0,0.09a0.37,0.37,0,0,1,.32-0.12l0,0a9,9,0,0,1,1.21-.15l-0.05-.07a0.52,0.52,0,0,1,.2,0c0.11-.14-0.32.06-0.23-0.09,0.18,0.12.8-.16,0.93,0,0.17,0-.07-0.08.11-0.11l0.06,0,0-.07a0.18,0.18,0,0,1,.2.07l-0.1,0a1.94,1.94,0,0,0,.47-0.1H233.4a14.88,14.88,0,0,0,1.49-.38l0,0a4.32,4.32,0,0,1,.66-0.13h0a0.66,0.66,0,0,1,.27-0.11c-0.09.06,0.2,0,.08,0.11a0.73,0.73,0,0,0,.4-0.28l0.07,0a0.43,0.43,0,0,1,.26-0.15c-0.15.08,0.14,0.06,0,.17a2.67,2.67,0,0,1,.79-0.1c0.15-.2-0.37,0-0.27-0.07-0.1,0,.13-0.15.26-0.16a1.45,1.45,0,0,0,.58.09l-0.06,0a2,2,0,0,1,.39-0.07c0.06-.11.19,0,0.19-0.16l-0.29.09a1.06,1.06,0,0,1,.58-0.23,0.5,0.5,0,0,1-.14.11c0.09,0,.15-0.06.24,0a1.59,1.59,0,0,1-.51.23c0.1,0,.32-0.16.26,0a1.76,1.76,0,0,1,.51-0.22v0.08a0.51,0.51,0,0,1,.16-0.08l-0.1.12a2.35,2.35,0,0,1,.52-0.08c-0.35.07-.1-0.07-0.26-0.1,0.42-.19.29,0.14,0.78,0-0.06,0-.26,0-0.16-0.05a0.84,0.84,0,0,1,.29,0c0.32-.08-0.07-0.07.06-0.14s0.15-.07.29-0.13l0,0.08c0.38,0,.07-0.18.41-0.19L241,15.1l0.17-.06,0,0.09a0.74,0.74,0,0,1,.43-0.11c-0.05,0,0-.14.16-0.18s0,0.09.18,0a0.15,0.15,0,0,1-.2.08s0,0.06,0,.09A1,1,0,0,0,242,15h-0.09l0.32-.17c0.06,0,0,0,0,.08a1.83,1.83,0,0,1,.21-0.09,0.18,0.18,0,0,1-.13.19l0.31-.13s0.18,0,.14.07c0.19,0,.41-0.21.66-0.21a0.17,0.17,0,0,1,.08-0.05,1.61,1.61,0,0,0,.68-0.13l0.17,0.08c0.2-.07-0.23-0.1.1-0.21s0.11,0.08.2,0.09a0.69,0.69,0,0,1,.54-0.19A1.11,1.11,0,0,1,245,14.33Zm2.53-.57a0.21,0.21,0,0,1-.18.06C247.39,13.72,247.44,13.75,247.53,13.76Zm3.82-1a0.17,0.17,0,0,1-.16,0A0.35,0.35,0,0,1,251.36,12.79ZM262,10.07h0C261.89,10.07,261.93,10.07,262,10.07Zm0.23,0s0,0,0,0a0.18,0.18,0,0,1-.12,0A0.1,0.1,0,0,0,262.24,10.06Zm-24.48,5h0C237.71,15.13,237.74,15.1,237.76,15.08Z"/><path class="cls-1" d="M250.94,13a0.07,0.07,0,0,1,0,0S250.9,13,250.94,13Z"/><path class="cls-1" d="M243.43,14.69h0v0Z"/><path class="cls-1" d="M258.84,11.42l-0.1,0S258.77,11.43,258.84,11.42Z"/><path class="cls-1" d="M263.42,9.68l-0.14,0a0.27,0.27,0,0,1,.14,0S263.38,9.69,263.42,9.68Z"/><path class="cls-1" d="M264.79,9.89l0.06,0v0C264.75,9.86,264.69,9.9,264.79,9.89Z"/><path class="cls-1" d="M263.61,9.91c0,0.06.11,0,.21,0h0C263.82,9.8,263.71,9.85,263.61,9.91Z"/><path class="cls-1" d="M263.85,9.89l0.09,0S263.9,9.87,263.85,9.89Z"/><path class="cls-1" d="M262.52,10a0.28,0.28,0,0,0,0-.07C262.61,9.79,262.27,10.05,262.52,10Z"/><polygon class="cls-1" points="263.74 10.1 263.68 10.03 263.64 10.1 263.74 10.1"/><path class="cls-1" d="M262.92,10.21h0.17s0,0,0,0A0.45,0.45,0,0,0,262.92,10.21Z"/><path class="cls-1" d="M263.12,10.16a0.36,0.36,0,0,0,.13,0Z"/><polygon class="cls-1" points="263.52 10.17 263.47 10.16 263.35 10.18 263.52 10.17"/><path class="cls-1" d="M261.16,10.55l-0.17.06s0,0,.1,0S261.19,10.57,261.16,10.55Z"/><path class="cls-1" d="M261.74,10.66a0.17,0.17,0,0,1-.09,0v0.1Z"/><path class="cls-1" d="M261.22,10.78s-0.24.13,0,.08C261.22,10.83,261.39,10.77,261.22,10.78Z"/><polygon class="cls-1" points="258.51 11.21 258.56 11.2 258.52 11.04 258.51 11.21"/><path class="cls-1" d="M256.22,12.08c0.22,0,0-.11.23-0.1,0,0-.16,0-0.12-0.05C256.21,12,256.14,12,256.22,12.08Z"/><path class="cls-1" d="M256.33,11.93l0.06,0Z"/><polygon class="cls-1" points="229.44 16.68 229.3 16.68 229.4 16.71 229.44 16.68"/><path class="cls-1" d="M229.21,16.86l-0.05-.1-0.06.11A0.16,0.16,0,0,1,229.21,16.86Z"/><path class="cls-1" d="M248,13.89v0a0.15,0.15,0,0,0-.12,0Z"/><polygon class="cls-1" points="246.09 14.19 246.13 14.19 246.05 14.11 246.09 14.19"/><path class="cls-1" d="M244.57,14.62l0.2-.05C244.63,14.61,244.53,14.51,244.57,14.62Z"/><path d="M229.15,19.54s1.52-.43,3.82-1c1.15-.27,2.49-0.61,3.93-0.92l4.52-1,4.54-.88c1.45-.28,2.81-0.49,4-0.7,2.33-.39,3.9-0.58,3.9-0.58s-1.52.43-3.82,1c-1.15.27-2.49,0.61-3.93,0.92l-4.52,1-4.54.88c-1.45.28-2.81,0.49-4,.7C230.72,19.34,229.15,19.54,229.15,19.54Z"/><path d="M229.15,26.79s1.74-.47,4.38-1.08c1.32-.29,2.85-0.67,4.51-1l5.18-1.07,5.2-1c1.66-.31,3.22-0.55,4.55-0.78,2.67-.43,4.46-0.66,4.46-0.66s-1.74.47-4.38,1.08c-1.32.29-2.85,0.67-4.51,1l-5.18,1.07-5.2,1c-1.66.31-3.22,0.55-4.55,0.78C230.94,26.56,229.15,26.79,229.15,26.79Z"/><path d="M237.45,28s1.22-.37,3.08-0.83c0.93-.22,2-0.5,3.18-0.76s2.41-.52,3.66-0.78,2.5-.49,3.68-0.69,2.28-.37,3.22-0.53c1.89-.29,3.16-0.42,3.16-0.42s-1.22.37-3.08,0.83c-0.93.22-2,.5-3.18,0.76s-2.41.52-3.66,0.78-2.5.49-3.68,0.69-2.28.37-3.22,0.53C238.72,27.88,237.45,28,237.45,28Z"/><path d="M230.65,31.71s1.43-.35,3.59-0.79c1.08-.21,2.34-0.47,3.7-0.71s2.8-.48,4.25-0.72,2.9-.45,4.26-0.63,2.64-.33,3.73-0.47c2.19-.26,3.66-0.37,3.66-0.37s-1.43.35-3.59,0.79c-1.08.21-2.34,0.47-3.7,0.71s-2.8.48-4.25,0.72-2.9.45-4.26,0.63-2.64.33-3.73,0.47C232.12,31.6,230.65,31.71,230.65,31.71Z"/><path d="M248.63,31.3s4.76,0.54,9.5,1.16l3.49,0.43c1.11,0.17,2.14.37,3,.55,1.76,0.37,2.92.7,2.92,0.7V34.2s-1.21,0-3-.18c-0.89-.09-1.94-0.2-3-0.36L258,33c-4.72-.8-9.43-1.67-9.43-1.67V31.3Z"/><path d="M101.42,29.89l14.83-.26,5.44-.09c1.74,0,3.36.05,4.75,0.09,2.78,0.1,4.63.26,4.63,0.26V30s-1.85.16-4.63,0.26c-1.39,0-3,.09-4.75.09l-5.44-.09L101.42,30V29.89Z"/><path d="M99.78,32.33s2.46-.14,6.14-0.25c1.84,0,4-.13,6.29-0.16l7.21-.1h7.22c2.3,0,4.45.05,6.29,0.07,3.68,0.07,6.14.17,6.14,0.17s-2.46.14-6.14,0.25c-1.84,0-4,.13-6.29.16l-7.21.1h-7.22c-2.3,0-4.45-.05-6.29-0.07C102.23,32.44,99.78,32.33,99.78,32.33Z"/><path d="M97.54,34.94l24.11-.26,8.85-.09c2.83,0,5.46.05,7.72,0.09,4.52,0.1,7.53.26,7.53,0.26V35s-3,.16-7.53.26c-2.26,0-4.9.09-7.72,0.09l-8.85-.09L97.54,35V34.94Z"/><path d="M97.54,37.81s3.24-.12,8.11-0.21l8.31-.11,9.53,0,9.53,0c3,0,5.88.08,8.31,0.11,4.87,0.09,8.11.21,8.11,0.21s-3.24.12-8.11,0.21c-2.43,0-5.27.1-8.31,0.11l-9.53,0-9.53,0L105.64,38C100.78,37.93,97.54,37.81,97.54,37.81Z"/><path d="M223.46,32.68s-3.41,3.93-6.87,7.81l-2.53,2.86c-0.83.89-1.64,1.69-2.33,2.38-1.4,1.36-2.4,2.21-2.4,2.21l-0.06-.05s0.77-1.06,2-2.56c0.63-.74,1.37-1.61,2.19-2.51l2.66-2.74c3.6-3.75,7.25-7.45,7.25-7.45Z"/><path d="M222.46,29.25s-1,1.23-2.45,3c-0.76.88-1.62,1.93-2.58,3s-2,2.25-3,3.4S212.32,41,211.32,42s-2,2-2.76,2.86c-1.63,1.66-2.76,2.73-2.76,2.73s1-1.23,2.45-3c0.76-.88,1.62-1.93,2.58-3s2-2.25,3-3.4,2.09-2.29,3.09-3.34,2-2,2.75-2.86C221.33,30.32,222.46,29.25,222.46,29.25Z"/><path d="M220.63,27.35s-3.41,4-6.87,8l-2.53,2.94c-0.83.92-1.64,1.74-2.33,2.45-1.4,1.4-2.4,2.28-2.4,2.28L206.43,43s0.77-1.09,2-2.63c0.63-.76,1.37-1.66,2.2-2.58L213.31,35c3.61-3.86,7.26-7.68,7.26-7.68Z"/><path d="M215.21,29.56s-0.87,1.19-2.24,2.92c-0.7.86-1.49,1.87-2.37,2.93s-1.83,2.18-2.79,3.3S205.88,40.94,205,42s-1.81,2-2.55,2.78c-1.51,1.61-2.56,2.65-2.56,2.65s0.87-1.19,2.24-2.92c0.7-.86,1.49-1.87,2.37-2.93s1.83-2.18,2.79-3.3S209.17,36,210.1,35s1.81-2,2.55-2.78C214.16,30.6,215.21,29.56,215.21,29.56Z"/><path d="M215.94,24.89s-0.15.27-.44,0.73-0.72,1.09-1.27,1.82c-0.28.36-.58,0.76-0.93,1.15s-0.74.79-1.14,1.2a18.13,18.13,0,0,0-2.26,2.79c-0.67,1-1.43,2-2.12,2.9s-1.4,1.72-2,2.39c-1.23,1.36-2.15,2.19-2.15,2.19l-0.06,0s0.62-1.07,1.7-2.55c0.53-.75,1.18-1.6,1.93-2.47s1.54-1.8,2.41-2.67a18.13,18.13,0,0,0,2.27-2.78c0.33-.47.62-0.94,0.94-1.36s0.64-.79.94-1.14c0.6-.69,1.14-1.24,1.52-1.62s0.62-.58.62-0.58Z"/><path d="M216.3,20.83l-11,13.65-4,5c-1.31,1.58-2.58,3-3.66,4.26-2.17,2.47-3.7,4-3.7,4l-0.06,0s1.27-1.79,3.3-4.38c1-1.29,2.2-2.8,3.51-4.38l4.18-4.89,11.39-13.31Z"/><path d="M215.55,18s-0.68,1-1.76,2.53c-0.55.74-1.17,1.62-1.88,2.54s-1.46,1.88-2.22,2.85-1.55,1.91-2.29,2.79-1.46,1.69-2.06,2.39c-1.22,1.38-2.09,2.27-2.09,2.27s0.67-1,1.76-2.53c0.55-.74,1.17-1.62,1.88-2.54s1.46-1.88,2.22-2.85,1.55-1.91,2.29-2.79,1.46-1.69,2.06-2.39C214.69,18.9,215.55,18,215.55,18Z"/><path d="M101.46,38.16s-0.06,2.39-.18,4.78c0,0.6,0,1.2-.07,1.75a14.75,14.75,0,0,1-.23,1.51c-0.1.44-.18,0.81-0.27,1.06s-0.13.4-.13,0.4H100.5s0-.15-0.06-0.42,0-.64-0.07-1.09a14.74,14.74,0,0,1,.05-1.53c0.06-.56.16-1.15,0.25-1.74,0.32-2.37.7-4.73,0.7-4.73h0.07Z"/><path d="M106.55,37.82S106,40.9,105.29,44c-0.16.77-.3,1.54-0.47,2.26s-0.38,1.37-.57,1.93-0.37,1-.51,1.34-0.22.5-.22,0.5l-0.07,0s0-.2,0-0.55,0.1-.83.18-1.42,0.23-1.26.4-2,0.42-1.46.65-2.21c0.85-3,1.77-6,1.77-6Z"/><path d="M112.18,37.83s-1,2.41-2,4.79c-0.25.6-.48,1.2-0.73,1.76s-0.54,1-.79,1.46-0.48.76-.66,1-0.28.36-.28,0.36l-0.07,0s0-.16.11-0.44,0.2-.67.35-1.13,0.38-1,.63-1.54,0.59-1.11.9-1.68c1.2-2.3,2.46-4.57,2.46-4.57Z"/><path d="M114.69,37.82s-0.85,3.13-1.77,6.25c-0.22.78-.43,1.57-0.66,2.29s-0.49,1.39-.73,1.95-0.45,1-.62,1.34-0.26.5-.26,0.5l-0.07,0s0-.21.08-0.56,0.17-.85.3-1.45,0.33-1.28.56-2,0.54-1.48.83-2.23c1.1-3.05,2.27-6.08,2.27-6.08Z"/><path d="M118.4,37.82s-0.77,3.1-1.6,6.19c-0.2.77-.39,1.55-0.59,2.27s-0.45,1.37-.68,1.93-0.42,1-.58,1.34-0.25.5-.25,0.5l-0.07,0s0-.2.07-0.55,0.14-.84.26-1.43,0.3-1.27.51-2,0.5-1.46.77-2.22c1-3,2.11-6,2.11-6Z"/><path d="M121.45,37.82s-0.6,3-1.27,5.95c-0.16.74-.31,1.49-0.47,2.18s-0.38,1.32-.58,1.86-0.37,1-.51,1.29-0.22.48-.22,0.48l-0.07,0s0-.19,0-0.53,0.1-.81.18-1.37,0.23-1.21.4-1.91,0.42-1.41.65-2.14c0.86-2.92,1.78-5.81,1.78-5.81Z"/><path d="M125.16,38s-0.77,3-1.6,6c-0.2.75-.39,1.5-0.59,2.2s-0.45,1.33-.68,1.87-0.42,1-.58,1.29-0.25.48-.25,0.48l-0.07,0s0-.2.07-0.54,0.14-.82.26-1.39,0.3-1.23.51-1.92,0.5-1.42.77-2.15c1-2.93,2.11-5.84,2.11-5.84Z"/><path d="M159.91,13.59s-2.31,0-5.76,0c-1.73,0-3.75-.07-5.9-0.15l-6.76-.25-6.76-.35c-2.16-.11-4.17-0.27-5.89-0.38-3.45-.24-5.75-0.47-5.75-0.47s2.31,0,5.76,0c1.73,0,3.75.06,5.9,0.15l6.76,0.25,6.76,0.35c2.16,0.11,4.17.27,5.89,0.38C157.61,13.37,159.91,13.59,159.91,13.59Z"/><path d="M158.71,15.94s-2.23,0-5.58,0c-1.67,0-3.62,0-5.71-.12l-6.54-.22-6.54-.32c-2.09-.1-4-0.25-5.7-0.35-3.34-.23-5.56-0.44-5.56-0.44s2.23,0,5.58,0c1.67,0,3.62,0,5.71.12l6.54,0.22,6.54,0.32c2.09,0.1,4,.25,5.7.35C156.49,15.73,158.71,15.94,158.71,15.94Z"/><path d="M157.24,18.81s-2.15-.06-5.36-0.24c-1.6-.1-3.48-0.19-5.48-0.35l-6.28-.48-6.27-.58c-2-.18-3.86-0.41-5.46-0.57-3.2-.36-5.32-0.66-5.32-0.66s2.15,0.06,5.36.24c1.6,0.1,3.48.19,5.48,0.35L140.19,17l6.27,0.58c2,0.18,3.86.41,5.46,0.57C155.12,18.51,157.24,18.81,157.24,18.81Z"/><path d="M135.91,20s0.15-.91.46-2.25,0.78-3.11,1.31-4.86,1.12-3.48,1.61-4.77S140.16,6,140.16,6s-0.15.91-.46,2.25-0.78,3.11-1.31,4.86-1.13,3.48-1.61,4.77S135.91,20,135.91,20Z"/><path d="M138,22s0.15-.75.46-1.84,0.77-2.53,1.3-4,1.11-2.81,1.6-3.84,0.86-1.7.86-1.7-0.15.75-.46,1.85-0.77,2.53-1.3,3.95-1.11,2.81-1.6,3.84S138,22,138,22Z"/><path d="M140.89,22s0.25-.92.7-2.28c0.24-.67.5-1.46,0.81-2.3s0.66-1.72,1-2.6,0.73-1.75,1.1-2.56,0.73-1.56,1-2.21C146.17,8.81,146.64,8,146.64,8s-0.25.92-.7,2.28c-0.24.67-.49,1.46-0.81,2.3s-0.66,1.72-1,2.6-0.73,1.75-1.1,2.56-0.73,1.56-1,2.21C141.36,21.2,140.89,22,140.89,22Z"/><path d="M11.38,4.4S8.62,6.17,5.83,7.88c-0.69.44-1.38,0.88-2,1.27s-1.3.71-1.86,1-1,.47-1.37.59L0,10.9l0-.07s0.16-.14.44-0.36,0.7-.53,1.2-0.88S2.74,8.86,3.4,8.47s1.4-.74,2.13-1.11c2.89-1.54,5.81-3,5.81-3Z"/><path d="M0,17.84s4-2.7,8-5.35l3-2c1-.6,1.88-1.12,2.67-1.56,1.59-.87,2.69-1.38,2.69-1.38l0,0.06S15.43,8.42,14,9.47c-0.75.51-1.61,1.12-2.57,1.72L8.33,13C4.2,15.48,0,17.9,0,17.9Z"/><path d="M20.41,10.67s-5,3-10.07,5.93l-3.7,2.17c-1.19.67-2.34,1.24-3.31,1.74-2,1-3.31,1.55-3.31,1.55L0,22s1.2-.85,3.06-2c0.94-.57,2-1.24,3.22-1.91l3.79-2c5.14-2.77,10.32-5.47,10.32-5.47Z"/><path d="M20.41,13.62s-5,3.25-10.06,6.43l-3.7,2.36c-1.19.73-2.34,1.36-3.31,1.91C1.38,25.4,0,26,0,26L0,26S1.17,25.06,3,23.81c0.94-.62,2-1.34,3.22-2.07L10,19.54c5.15-3,10.33-6,10.33-6Z"/><path d="M21.94,16.73s-5.4,3-10.84,5.89l-4,2.16c-1.28.66-2.51,1.23-3.55,1.73C1.46,27.48,0,28,0,28L0,28s1.3-.85,3.31-2c1-.57,2.18-1.23,3.47-1.89l4.07-2c5.52-2.74,11.08-5.42,11.08-5.42Z"/></svg>