<svg id="Slip_lines_Grain_Large" data-name="Slip lines (Grain Large" xmlns="http://www.w3.org/2000/svg" viewBox="0 0 500 150"><title>M_SlipLinesGrainLarge</title><path d="M465.41,67.6s-0.91,1.68-2.38,4.12c-0.75,1.22-1.61,2.64-2.59,4.13l-3.13,4.63-8.54,12.59-0.06,0,8.1-12.88,3-4.72c1-1.49,1.93-2.86,2.74-4,1.64-2.33,2.82-3.84,2.82-3.84Z"/><path d="M469,69.33s-1.23,2.18-3.19,5.37c-1,1.59-2.14,3.45-3.41,5.41l-4.08,6.09-11.12,16.58-0.06,0,10.68-16.87,3.93-6.19c1.28-2,2.51-3.76,3.57-5.31,2.13-3.08,3.63-5.08,3.63-5.08Z"/><path d="M290.51,114.61L316,121.19l9.37,2.42c3,0.8,5.75,1.6,8.13,2.28,4.75,1.38,7.89,2.39,7.89,2.39l0,0.07s-3.22-.7-8-1.89c-2.4-.6-5.19-1.3-8.18-2.1l-9.32-2.6-25.39-7.09Z"/><path d="M289.14,119.62l31,8c3.88,1,7.77,2,11.39,3,1.81,0.49,3.57.94,5.23,1.41l4.67,1.32c5.78,1.65,9.61,2.84,9.61,2.84l0,0.07s-3.91-.88-9.75-2.34l-4.71-1.2c-1.67-.42-3.42-0.91-5.24-1.39-3.63-1-7.49-2-11.36-3.12l-30.91-8.55Z"/><path d="M287.93,125.19l35.78,9c4.47,1.13,8.95,2.24,13.13,3.34,2.09,0.55,4.12,1.05,6,1.58l5.39,1.47c6.67,1.84,11.09,3.15,11.09,3.15l0,0.07s-4.5-1-11.22-2.65l-5.42-1.35c-1.93-.47-3.94-1-6-1.56-4.19-1.08-8.64-2.29-13.09-3.48l-35.64-9.54Z"/><path d="M287,128l39.79,10.93c5,1.37,10,2.71,14.6,4,2.33,0.66,4.58,1.27,6.71,1.9l6,1.75c7.42,2.19,12.34,3.74,12.34,3.74l0,0.07s-5-1.24-12.48-3.24l-6-1.63c-2.14-.57-4.38-1.23-6.71-1.88-4.66-1.3-9.61-2.75-14.56-4.17L287,128.05Z"/><path d="M285.71,136.21l35.51,6.8c4.44,0.85,8.88,1.68,13,2.52,2.08,0.42,4.09.8,6,1.21l5.35,1.13c6.63,1.42,11,2.46,11,2.46v0.07s-4.46-.72-11.13-2l-5.38-1c-1.91-.35-3.91-0.77-6-1.18-4.16-.81-8.58-1.75-13-2.66l-35.41-7.32v-0.07Z"/><path d="M284.29,141.29s2.59,0.45,6.46,1.21c1.93,0.4,4.19.82,6.6,1.34l7.55,1.62,7.53,1.71c2.4,0.54,4.63,1.11,6.55,1.57,3.83,0.94,6.37,1.62,6.37,1.62s-2.59-.45-6.46-1.21c-1.93-.4-4.19-0.82-6.6-1.34l-7.55-1.62-7.53-1.72c-2.4-.55-4.63-1.11-6.55-1.57C286.83,142,284.29,141.29,284.29,141.29Z"/><path d="M25,107s1.25-.09,3.13-0.1c0.94,0,2,0,3.2.07L35,107.24c5,0.35,10,.77,10,0.77v0.07s-5-.09-10-0.25l-3.67-.1c-1.17-.06-2.26-0.17-3.19-0.26-1.86-.2-3.1-0.42-3.1-0.42V107Z"/><path d="M17.5,112.37s2.13,0,5.31.19c1.59,0.09,3.44.2,5.43,0.37l6.2,0.62,16.89,1.69v0.07l-16.94-1.17-6.22-.43c-2-.17-3.83-0.38-5.41-0.55-3.16-.37-5.26-0.71-5.26-0.71v-0.07Z"/><path d="M12.38,118.39s3.05-.16,7.63-0.26c2.29,0,5-.09,7.82-0.09l9,0.09,24.4,0.26v0.07l-24.4.26-9,.09c-2.86,0-5.53-.05-7.82-0.09-4.58-.1-7.63-0.26-7.63-0.26v-0.07Z"/><path d="M12.38,122.67s2.72-.16,6.81-0.26c2,0,4.43-.09,7-0.09l8,0.09L56,122.67v0.08l-21.8.26-8,.09c-2.55,0-4.94-.05-7-0.09-4.09-.1-6.81-0.26-6.81-0.26v-0.08Z"/><path d="M17.49,126.84s2.14-.16,5.36-0.26c1.61,0,3.48-.09,5.49-0.09l6.29,0.09,17.14,0.26v0.07l-17.14.26-6.29.09c-2,0-3.88-.05-5.49-0.09-3.21-.1-5.36-0.26-5.36-0.26v-0.07Z"/><path d="M17.5,130s2.59,0.19,6.45.62c1.93,0.22,4.18.48,6.59,0.8l7.53,1.12,20.5,3.05v0.07L38,133.15l-7.55-.94c-2.41-.33-4.64-0.69-6.56-1-3.84-.62-6.38-1.13-6.38-1.13V130Z"/><path d="M17.5,135.61s1.88,0.1,4.69.39c1.4,0.16,3,.33,4.79.58l5.46,0.86,14.86,2.35v0.07L32.35,138l-5.48-.68c-1.75-.24-3.37-0.53-4.76-0.76-2.78-.49-4.62-0.91-4.62-0.91v-0.07Z"/><path d="M474.73,64.22c0.24,1.38.49,2.77,0.69,4.15s0.43,2.77.62,4.16l0,0.11-0.06.11c-3,5-6.31,9.78-9.48,14.66L456.91,102l-0.06,0,9.23-14.82c3.11-4.92,6.09-9.92,9.36-14.74l0,0.22c-0.15-1.39-.29-2.79-0.4-4.19s-0.22-2.8-.33-4.2h0.07Z"/><path d="M478,65.43c0.45,1.53.9,3.06,1.31,4.59s0.82,3.08,1.22,4.61l0,0.14-0.08.13c-1.47,2.44-3,4.85-4.55,7.23l-4.64,7.18L462,103.67l-0.06,0L470.83,89l4.47-7.29c1.48-2.43,3-4.85,4.55-7.23l0,0.27c-0.34-1.55-.7-3.1-1-4.67s-0.63-3.12-.92-4.69Z"/><path d="M485.07,67.59q0.72,2.62,1.38,5.26c0.44,1.76.85,3.52,1.27,5.28l0,0.13-0.07.13c-1.28,2.38-2.62,4.72-4,7.07l-4,7-8,14.07-0.07,0,7.67-14.27,3.85-7.13c1.27-2.38,2.56-4.76,3.89-7.1l0,0.26c-0.35-1.78-.72-3.55-1-5.33s-0.65-3.56-.94-5.35Z"/><path d="M490.78,71.45q0.79,2.33,1.44,4.69c0.44,1.57.87,3.15,1.23,4.74l0,0.15-0.07.12-9.16,15.57-0.07,0,8.56-15.9,0,0.28c-0.42-1.58-.77-3.17-1.11-4.77s-0.65-3.2-.9-4.82Z"/><path d="M482.85,66.95c0.17,1.5.21,3,.25,4.5s-0.05,3-.12,4.49V76l0,0.06c-1.55,3-3.1,6-4.68,8.92l-0.07,0c1.37-3.07,2.78-6.12,4.18-9.16l0,0.13c0-1.5-.05-3,0-4.5s0.18-3,.4-4.49h0.07Z"/><path d="M89.08,46.82l28.37-8.1c3.55-1,7.09-2,10.43-3,1.67-.45,3.27-0.92,4.81-1.31L137,33.33c5.36-1.38,9-2.2,9-2.2l0,0.07s-3.51,1.14-8.82,2.7l-4.29,1.25c-1.52.45-3.14,0.87-4.8,1.34-3.33.93-6.9,1.86-10.46,2.81L89.1,46.89Z"/><path d="M97.82,50.91s3.4-1,8.53-2.5l8.76-2.47,10.07-2.75,10.09-2.65,8.82-2.25c5.17-1.29,8.63-2.1,8.63-2.1s-3.4,1-8.53,2.5l-8.76,2.47-10.07,2.75-10.09,2.65-8.82,2.25C101.29,50.11,97.82,50.91,97.82,50.91Z"/><path d="M100,62.48s3.39-1.16,8.51-2.81l8.75-2.79,10.06-3.12,10.08-3,8.82-2.57c5.17-1.48,8.63-2.41,8.63-2.41s-3.39,1.16-8.51,2.81l-8.75,2.79-10.06,3.12-10.08,3-8.82,2.57C103.49,61.55,100,62.48,100,62.48Z"/><path d="M102.6,55.42l21.08-5.94,7.74-2.18c2.48-.67,4.81-1.24,6.8-1.73,4-1,6.68-1.53,6.68-1.53l0,0.07s-2.6.87-6.54,2c-2,.57-4.27,1.24-6.75,1.91l-7.79,2-21.22,5.43Z"/><path d="M107.48,67.37l17-4.88,6.25-1.79c2-.54,3.89-1,5.5-1.39,3.23-.77,5.41-1.19,5.41-1.19l0,0.07s-2.09.73-5.27,1.7c-1.59.47-3.45,1-5.45,1.57l-6.3,1.61L107.5,67.44Z"/><path d="M142.35,62.7l19,27.79c2.37,3.47,4.77,6.94,7,10.22,1.1,1.64,2.18,3.21,3.16,4.73l2.79,4.26c3.44,5.29,5.65,8.88,5.65,8.88l-0.06,0s-2.48-3.4-6.08-8.59l-2.89-4.19c-1-1.48-2.08-3.08-3.18-4.71-2.21-3.27-4.51-6.79-6.83-10.3L142.29,62.74Z"/><path d="M134.5,65.21l21,28.14c2.63,3.52,5.27,7,7.7,10.35,1.21,1.66,2.41,3.25,3.51,4.79l3.1,4.32c3.82,5.36,6.29,9,6.29,9l-0.06,0s-2.73-3.44-6.71-8.69l-3.2-4.25c-1.14-1.5-2.3-3.12-3.53-4.77-2.45-3.31-5-6.88-7.58-10.43l-20.6-28.45Z"/><path d="M134.5,72.85l19.35,25.86c2.42,3.23,4.85,6.45,7.09,9.51,1.12,1.53,2.22,3,3.22,4.4l2.85,4c3.51,4.94,5.77,8.29,5.77,8.29l-0.06,0s-2.52-3.16-6.19-8l-2.95-3.9c-1.05-1.38-2.12-2.87-3.24-4.39-2.25-3-4.6-6.33-7-9.6L134.44,72.9Z"/><path d="M125.91,67.87L148,97.52c2.77,3.71,5.55,7.4,8.11,10.9,1.28,1.75,2.54,3.42,3.69,5l3.27,4.55c4,5.65,6.64,9.47,6.64,9.47l-0.06,0s-2.87-3.63-7.06-9.16l-3.37-4.47c-1.2-1.58-2.42-3.28-3.71-5-2.58-3.48-5.28-7.24-8-11l-21.71-30Z"/><path d="M123.09,69.64l22.66,30.29c2.83,3.79,5.68,7.56,8.3,11.14,1.31,1.79,2.6,3.5,3.78,5.15l3.35,4.65c4.13,5.77,6.81,9.67,6.81,9.67l-0.06,0s-2.94-3.71-7.22-9.36l-3.45-4.57c-1.23-1.62-2.48-3.36-3.8-5.14-2.64-3.56-5.4-7.4-8.18-11.22L123,69.68Z"/><path d="M115.73,70.62l24,31.58c3,3.95,6,7.88,8.8,11.61,1.39,1.86,2.76,3.65,4,5.37l3.55,4.84c4.38,6,7.23,10.07,7.23,10.07l-0.06,0s-3.1-3.87-7.64-9.76L152,119.61c-1.3-1.69-2.63-3.5-4-5.35-2.8-3.71-5.73-7.71-8.68-11.7L115.67,70.67Z"/><path d="M111.09,72.5l19.82,30c2.48,3.75,5,7.49,7.26,11,1.14,1.77,2.27,3.47,3.3,5.1l2.91,4.6c3.59,5.71,5.91,9.57,5.91,9.57l-0.06,0s-2.59-3.68-6.34-9.28l-3-4.53c-1.08-1.6-2.17-3.33-3.32-5.09-2.31-3.53-4.71-7.33-7.14-11.12L111,72.55Z"/><path d="M357.07,22.35l34.86,15.94c4.36,2,8.72,4,12.79,5.87,2,1,4,1.85,5.87,2.74l5.23,2.51c6.47,3.12,10.75,5.29,10.75,5.29l0,0.07s-4.41-1.87-11-4.82l-5.29-2.39c-1.88-.84-3.84-1.78-5.88-2.72-4.08-1.88-8.4-4-12.73-6L357,22.42Z"/><path d="M360,15.83L393.4,31c4.17,1.9,8.36,3.78,12.25,5.6,1.95,0.91,3.84,1.76,5.62,2.62l5,2.39c6.2,3,10.29,5.05,10.29,5.05l0,0.07S422.31,45,416,42.16L411,39.88c-1.8-.8-3.68-1.7-5.63-2.59-3.91-1.79-8-3.77-12.19-5.73L360,15.9Z"/><path d="M366.1,10.52L401.3,26.06c4.4,1.94,8.81,3.87,12.92,5.73,2.05,0.93,4.05,1.8,5.92,2.68l5.29,2.45c6.54,3,10.86,5.17,10.86,5.17l0,0.07s-4.45-1.82-11.08-4.69l-5.34-2.33c-1.9-.82-3.88-1.73-5.94-2.65-4.12-1.84-8.48-3.86-12.86-5.86l-35-16Z"/><path d="M371.83,2.09L383.31,7.6,395,13.34,408.42,20l13.35,6.74,11.62,5.94,11.29,5.89-11.48-5.51-11.72-5.74-13.4-6.65-13.35-6.74L383.12,8Z"/><path d="M257.1,17.94l28-.26c3.5,0,7-.09,10.29-0.07,1.64,0,3.23,0,4.74,0l4.24,0.06c5.26,0.1,8.76.26,8.76,0.26V18s-3.5.16-8.76,0.26l-4.24.06c-1.51,0-3.09,0-4.74,0-3.29,0-6.79,0-10.29-.07l-28-.26V17.94Z"/><path d="M255.65,22l3.1-.08,8.18-.2,11.57-.18,13.26-.13,13.26,0,11.57,0,8.18,0.1,3.1,0-3.1.08-8.18.2L305,22l-13.26.13-13.26,0-11.57,0-8.18-.1Z"/><path d="M255.41,26.38l44.39-.26c5.55,0,11.1-.09,16.3-0.07h7.5l6.72,0.06c8.32,0.1,13.87.26,13.87,0.26v0.07s-5.55.16-13.87,0.26l-6.72.06h-7.5c-5.2,0-10.75,0-16.3-.07l-44.39-.26V26.38Z"/><path d="M254,31.17L268.31,31,283,30.84l16.81,0,16.81,0L331.27,31l14.31,0.21-14.31.21-14.67.11-16.81,0-16.81,0-14.67-.11Z"/><path d="M361.67,4L374.8,9.16l4.82,1.9c1.53,0.63,2.93,1.27,4.14,1.82,2.4,1.11,4,1.93,4,1.93l0,0.07s-1.69-.53-4.17-1.45c-1.24-.47-2.68-1-4.21-1.65l-4.75-2.07L361.64,4.06Z"/><path d="M379.8,0.23l2.72,1.23,7.17,3.27,10.09,4.71,11.53,5.47,11.49,5.56,10,4.92c2.93,1.44,5.34,2.69,7,3.54l2.67,1.35L439.79,29c-1.73-.79-4.21-1.89-7.17-3.27l-10.09-4.71L411,15.59,399.5,10l-10-4.92-7-3.54Z"/><path d="M393.28,0.09s3.67,1.73,9.12,4.4l9.31,4.6,10.63,5.35,10.59,5.44,9.2,4.81c5.38,2.84,8.93,4.78,8.93,4.78s-3.67-1.73-9.13-4.4l-9.31-4.6L422,15.12,411.41,9.68l-9.2-4.81C396.83,2,393.28.09,393.28,0.09Z"/><path d="M409.43,1.43s1.6,0.69,4,1.8c1.17,0.57,2.56,1.21,4,1.94L422,7.47l4.52,2.38c1.45,0.76,2.77,1.52,3.91,2.14,2.28,1.28,3.77,2.18,3.77,2.18s-1.6-.69-4-1.8c-1.17-.57-2.56-1.2-4-1.94l-4.57-2.3-4.52-2.38c-1.44-.76-2.77-1.52-3.91-2.14C410.92,2.34,409.43,1.43,409.43,1.43Z"/><path d="M198,107.24s-1,2.41-2.64,6c-0.82,1.78-1.75,3.87-2.8,6.09l-3.28,6.94-3.37,6.9c-1.07,2.2-2.13,4.23-3,6-1.78,3.49-3,5.8-3,5.8s1-2.41,2.64-6c0.82-1.78,1.75-3.87,2.8-6.08l3.28-6.94L192,119c1.07-2.2,2.13-4.23,3-6C196.74,109.55,198,107.24,198,107.24Z"/><path d="M201.32,107.33s-1,2.73-2.56,6.8c-0.8,2-1.7,4.41-2.72,6.93L192.84,129l-3.29,7.88c-1,2.51-2.08,4.84-2.93,6.84-1.74,4-3,6.64-3,6.64s1-2.73,2.56-6.8c0.8-2,1.7-4.41,2.72-6.93l3.2-7.91,3.29-7.88c1-2.51,2.08-4.84,2.93-6.84C200.11,110,201.32,107.33,201.32,107.33Z"/><path d="M205.79,107s-0.63,2.09-1.65,5.19c-0.53,1.55-1.11,3.36-1.79,5.29l-2.13,6-2.22,6c-0.71,1.92-1.42,3.68-2,5.21-1.2,3-2,5-2,5s0.63-2.09,1.65-5.19c0.53-1.55,1.11-3.36,1.79-5.29l2.13-6,2.22-6c0.71-1.92,1.42-3.68,2-5.21C204.94,109,205.79,107,205.79,107Z"/><path d="M209.43,107.55s-0.12.93-.36,2.3-0.64,3.18-1.09,5-1,3.57-1.4,4.89-0.78,2.19-.78,2.19,0.11-.93.36-2.3,0.64-3.18,1.09-5,1-3.57,1.4-4.89S209.43,107.55,209.43,107.55Z"/><path d="M212.72,109s-0.32,1.67-.88,4.15c-0.29,1.24-.61,2.69-1,4.23l-1.22,4.83L208.3,127c-0.42,1.53-.87,2.95-1.22,4.17-0.74,2.44-1.29,4-1.29,4s0.32-1.67.88-4.15c0.3-1.24.61-2.69,1-4.23l1.22-4.83,1.32-4.8c0.42-1.53.87-2.95,1.22-4.17C212.17,110.59,212.72,109,212.72,109Z"/><path d="M217.19,109s-0.16,1.1-.49,2.73c-0.18.81-.36,1.76-0.6,2.77s-0.5,2.08-.78,3.15-0.57,2.13-.86,3.13-0.59,1.92-.83,2.71c-0.51,1.58-.9,2.62-0.9,2.62s0.16-1.1.49-2.73c0.18-.81.36-1.76,0.6-2.77s0.51-2.08.78-3.15,0.57-2.13.86-3.13,0.59-1.92.83-2.71C216.79,110,217.19,109,217.19,109Z"/><path d="M221.43,107.88s0,0.55-.09,1.36A27.52,27.52,0,0,1,220,115c-0.28.77-.51,1.26-0.51,1.26s0-.55.09-1.36a27.52,27.52,0,0,1,1.33-5.77C221.2,108.38,221.43,107.88,221.43,107.88Z"/><path d="M223.67,107.88s-0.14,1.64-.44,4.09c-0.16,1.22-.32,2.65-0.55,4.18L222,120.92l-0.81,4.76c-0.26,1.52-.55,2.93-0.78,4.14-0.48,2.42-.86,4-0.86,4s0.14-1.64.44-4.09c0.17-1.22.32-2.65,0.55-4.18l0.72-4.77L222,116c0.26-1.52.55-2.93,0.78-4.14C223.29,109.48,223.67,107.88,223.67,107.88Z"/><path d="M227.54,108s-0.19,1.54-.57,3.83c-0.2,1.14-.41,2.48-0.68,3.91s-0.57,2.95-.87,4.46-0.64,3-1,4.45-0.65,2.73-.92,3.86c-0.56,2.26-1,3.75-1,3.75s0.19-1.54.57-3.83c0.2-1.14.41-2.48,0.68-3.91s0.57-2.95.87-4.46,0.64-3,1-4.45,0.65-2.73.92-3.86C227.11,109.53,227.54,108,227.54,108Z"/><path d="M231.12,108.14s-0.17,1.12-.51,2.77c-0.18.82-.37,1.79-0.61,2.82s-0.51,2.12-.79,3.21-0.58,2.17-.88,3.18-0.6,2-.84,2.76c-0.51,1.61-.91,2.67-0.91,2.67s0.17-1.12.51-2.77c0.18-.82.37-1.79,0.61-2.82s0.51-2.12.79-3.21,0.58-2.17.88-3.18,0.6-2,.84-2.76C230.72,109.2,231.12,108.14,231.12,108.14Z"/><path d="M182.26,117.54l13.31-.21,13.65-.11,15.64,0,15.64,0.06,13.65,0.12,13.31,0.22-13.31.21-13.65.11-15.64,0-15.64-.06-13.65-.12Z"/><path d="M183.67,122.1s3.66-.12,9.15-0.21l9.38-.11,10.75,0,10.75,0,9.38,0.11c5.49,0.09,9.15.21,9.15,0.21s-3.66.12-9.15,0.21l-9.38.11-10.75,0-10.75,0-9.38-.11C187.33,122.22,183.67,122.1,183.67,122.1Z"/><path d="M173.39,126.09s3.85-.12,9.64-0.21l9.88-.11,11.32,0,11.32,0,9.88,0.11c5.78,0.09,9.64.21,9.64,0.21s-3.85.12-9.64,0.21l-9.88.11-11.32,0-11.32,0L183,126.3C177.25,126.21,173.39,126.09,173.39,126.09Z"/><path d="M261.23,31.76l-0.48,13.73-0.18,5c-0.09,1.61-.22,3.11-0.33,4.39-0.24,2.57-.49,4.27-0.49,4.27h-0.07s-0.07-1.72,0-4.3c0-1.29.06-2.79,0.14-4.4l0.36-5,1-13.7h0.07Z"/><path d="M269.75,31.17l-2.28,15.41-0.84,5.66c-0.3,1.8-.63,3.47-0.91,4.91-0.58,2.87-1.05,4.76-1.05,4.76h-0.07s0.16-1.95.54-4.85c0.2-1.45.43-3.14,0.72-4.94l1-5.63,2.8-15.33h0.07Z"/><path d="M279.17,31.18l-3.46,16.64-1.28,6.11c-0.44,1.94-.89,3.74-1.28,5.29-0.8,3.09-1.42,5.12-1.42,5.12l-0.07,0s0.31-2.11.91-5.24c0.31-1.56.67-3.39,1.1-5.33l1.45-6.07,4-16.52Z"/><path d="M283.37,31.17l-3.13,18-1.15,6.61c-0.4,2.1-.82,4.06-1.18,5.73-0.73,3.35-1.31,5.56-1.31,5.56h-0.07s0.26-2.27.8-5.66c0.28-1.69.6-3.66,1-5.76l1.33-6.57,3.65-17.89h0.07Z"/><path d="M289.58,31.17l-2.85,19.46-1.05,7.14c-0.36,2.28-.76,4.39-1.09,6.21-0.68,3.63-1.23,6-1.23,6H283.3s0.23-2.45.71-6.11c0.25-1.83.54-4,.9-6.23l1.23-7.12,3.36-19.38h0.07Z"/><path d="M294.69,31.17L292.4,51.74l-0.85,7.55c-0.3,2.41-.63,4.65-0.91,6.57-0.58,3.84-1.06,6.39-1.06,6.39h-0.07s0.16-2.59.54-6.45c0.2-1.93.43-4.18,0.73-6.59l1-7.53,2.81-20.5h0.07Z"/><path d="M300.9,31.76L298.06,53,297,60.8c-0.36,2.49-.76,4.8-1.09,6.78-0.68,4-1.23,6.59-1.23,6.59h-0.07s0.23-2.67.71-6.66c0.25-2,.54-4.32.9-6.81l1.23-7.77,3.37-21.17h0.07Z"/><path d="M39.78,50s-0.21-2.28-.43-5.7c-0.1-1.71-.24-3.71-0.34-5.84l-0.31-6.7L38.5,25.06c-0.07-2.14-.08-4.14-0.11-5.85,0-3.43,0-5.71,0-5.71s0.21,2.28.43,5.7c0.1,1.71.24,3.71,0.34,5.84l0.31,6.7,0.21,6.71c0.07,2.14.08,4.14,0.11,5.85C39.81,47.73,39.78,50,39.78,50Z"/><path d="M36.22,49.19S36,47,35.77,43.69C35.66,42,35.51,40.1,35.41,38l-0.33-6.48-0.23-6.49c-0.08-2.07-.09-4-0.13-5.66-0.05-3.31,0-5.53,0-5.53s0.22,2.2.45,5.51C35.23,21,35.39,23,35.49,25l0.33,6.48L36.05,38c0.08,2.07.09,4,.13,5.66C36.24,47,36.22,49.19,36.22,49.19Z"/><path d="M31.86,48.19s-0.08-2.13-.1-5.33c0-1.6,0-3.46,0-5.46l0.07-6.26L32,24.88c0.05-2,.16-3.86.22-5.46,0.15-3.19.32-5.32,0.32-5.32s0.08,2.13.11,5.33c0,1.6,0,3.46,0,5.46l-0.07,6.26L32.4,37.41c-0.05,2-.16,3.86-0.22,5.46C32,46.06,31.86,48.19,31.86,48.19Z"/><path d="M27.85,27.37s1.32,0,3.3.11c1,0.06,2.14.11,3.37,0.21s2.54,0.21,3.85.33,2.62,0.27,3.85.42,2.37,0.32,3.35.44c2,0.28,3.26.53,3.26,0.53s-1.32,0-3.3-.11c-1-.06-2.14-0.11-3.37-0.21s-2.54-.21-3.85-0.33-2.62-.27-3.84-0.42S32.08,28,31.11,27.9C29.15,27.62,27.85,27.37,27.85,27.37Z"/><path d="M25.14,29.77s1.08,0,2.69.17c0.8,0.08,1.74.15,2.75,0.27s2.07,0.25,3.14.4,2.13,0.31,3.12.48,1.92,0.36,2.71.5c1.59,0.31,2.63.58,2.63,0.58s-1.08,0-2.69-.17c-0.8-.08-1.74-0.15-2.75-0.27s-2.07-.25-3.14-0.4-2.13-.31-3.12-0.49-1.92-.36-2.71-0.5C26.19,30,25.14,29.77,25.14,29.77Z"/><path d="M25.43,32.59s1.34,0.1,3.35.34c1,0.13,2.17.26,3.41,0.44s2.57,0.39,3.9.6,2.65,0.45,3.89.69,2.39,0.48,3.38.68c2,0.42,3.28.75,3.28,0.75s-1.34-.1-3.35-0.34c-1-.13-2.17-0.26-3.41-0.44s-2.57-.39-3.9-0.6-2.65-.45-3.89-0.69-2.39-.48-3.38-0.68C26.74,32.93,25.43,32.59,25.43,32.59Z"/><path d="M379.15,85.3a9.12,9.12,0,0,1,.79-0.61,14.43,14.43,0,0,1,3.87-1.84,9,9,0,0,1,1-.22,9,9,0,0,1-.79.61,14.43,14.43,0,0,1-3.87,1.84A9.12,9.12,0,0,1,379.15,85.3Z"/><path d="M373.64,84.09s0.59-.41,1.5-1,2.17-1.23,3.44-1.85,2.58-1.18,3.58-1.56,1.69-.58,1.69-0.58-0.59.42-1.5,1-2.17,1.23-3.44,1.85-2.58,1.18-3.58,1.56S373.64,84.09,373.64,84.09Z"/><path d="M370.25,80.38s0.52-.41,1.33-1,1.93-1.23,3.07-1.85S377,76.38,377.88,76s1.53-.59,1.53-0.59-0.52.41-1.33,1-1.93,1.23-3.07,1.85-2.32,1.19-3.23,1.57S370.25,80.38,370.25,80.38Z"/><path d="M382.82,90s-1.2-1.35-2.92-3.43C379,85.53,378,84.33,377,83l-3.28-4.15-3.2-4.21c-1-1.34-1.93-2.63-2.74-3.72-1.58-2.19-2.59-3.69-2.59-3.69s1.2,1.35,2.93,3.43c0.85,1,1.87,2.25,2.92,3.58l3.28,4.15,3.2,4.21c1,1.34,1.93,2.63,2.74,3.72C381.81,88.51,382.82,90,382.82,90Z"/><path d="M384.05,88.45s-0.85-.9-2.06-2.32c-0.59-.71-1.31-1.53-2-2.43s-1.5-1.87-2.26-2.84-1.51-2-2.19-2.9-1.31-1.82-1.85-2.58c-1.07-1.52-1.73-2.57-1.73-2.57s0.85,0.9,2.06,2.31c0.59,0.71,1.31,1.53,2,2.43s1.5,1.87,2.26,2.84,1.51,2,2.19,2.9,1.31,1.82,1.85,2.58C383.39,87.4,384.05,88.45,384.05,88.45Z"/></svg>