<svg id="Slip_lines_Grain_Large" data-name="Slip lines (Grain Large" xmlns="http://www.w3.org/2000/svg" viewBox="0 0 650 50"><defs><style>.cls-1{fill:none;}</style></defs><title>M_SlipLinesGrainLarge</title><path d="M88.14,46.6l28.37-8.1c3.55-1,7.09-2,10.43-3,1.67-.45,3.27-0.92,4.81-1.31l4.32-1.13c5.36-1.38,9-2.2,9-2.2l0,0.07s-3.51,1.14-8.82,2.7l-4.29,1.25c-1.52.45-3.14,0.87-4.8,1.34-3.33.93-6.9,1.86-10.46,2.81L88.16,46.67Z"/><path d="M96.89,50.69s3.4-1,8.53-2.5l8.76-2.47L124.25,43l10.09-2.65,8.82-2.25c5.17-1.29,8.63-2.1,8.63-2.1s-3.4,1-8.53,2.5l-8.76,2.47-10.07,2.75-10.09,2.65-8.82,2.25C100.35,49.88,96.89,50.69,96.89,50.69Z"/><path d="M138.15,50.36s1-.42,2.41-1c0.73-.26,1.58-0.58,2.5-0.88s1.9-.62,2.89-0.93,2-.59,2.91-0.84,1.81-.46,2.56-0.66c1.51-.36,2.53-0.55,2.53-0.55s-1,.42-2.41,1c-0.73.26-1.58,0.58-2.5,0.88s-1.9.62-2.89,0.93-2,.59-2.91.84-1.81.46-2.56,0.66C139.17,50.18,138.15,50.36,138.15,50.36Z"/><path d="M120.49,49.51s5.83-1.58,11.68-3.1l4.29-1.13c1.38-.33,2.67-0.59,3.78-0.82,2.22-.43,3.73-0.64,3.73-0.64l0,0.07s-1.43.51-3.61,1.14c-1.09.3-2.36,0.67-3.74,1l-4.33,1c-5.89,1.33-11.8,2.59-11.8,2.59Z"/><path d="M356.13,22.13L382.37,34c3.28,1.49,6.57,3,9.62,4.4,1.53,0.72,3,1.39,4.41,2.07l3.93,1.9c4.86,2.37,8.05,4,8.05,4l0,0.07S405,45.14,400.07,43l-4-1.78c-1.42-.63-2.89-1.34-4.42-2-3.07-1.41-6.31-3-9.56-4.53l-26-12.4Z"/><path d="M359.08,15.61l33.39,15.18c4.17,1.9,8.36,3.78,12.25,5.6,1.95,0.91,3.84,1.76,5.62,2.62l5,2.39c6.2,3,10.29,5.05,10.29,5.05l0,0.07s-4.23-1.78-10.51-4.58L410,39.66c-1.8-.8-3.68-1.7-5.63-2.59-3.91-1.79-8-3.77-12.19-5.73L359,15.68Z"/><path d="M365.16,10.29l35.21,15.54c4.4,1.94,8.81,3.87,12.92,5.73,2.05,0.93,4.05,1.8,5.92,2.68l5.29,2.45c6.54,3,10.86,5.17,10.86,5.17l0,0.07s-4.45-1.82-11.08-4.69l-5.34-2.33c-1.9-.82-3.88-1.73-5.94-2.65-4.12-1.84-8.48-3.86-12.86-5.86l-35-16Z"/><path d="M370.9,1.87L381.69,7l11,5.39,12.59,6.25L417.85,25l10.91,5.59,10.6,5.54L428.57,31l-11-5.39L405,19.34,392.42,13,381.5,7.41Z"/><path d="M252.67,17.71l29.78-.26c3.72,0,7.45-.09,10.94-0.07,1.75,0,3.43,0,5,0l4.51,0.06c5.58,0.1,9.31.26,9.31,0.26v0.08s-3.72.16-9.31,0.26l-4.51.06c-1.6,0-3.29,0-5,0-3.49,0-7.21,0-10.94-.07l-29.78-.26V17.71Z"/><path d="M251.93,21.78l11.72-.28,12-.18,13.77-.13,13.77,0,12,0,11.72,0.14-11.72.28-12,.18-13.77.13-13.77,0-12,0Z"/><path d="M251.14,26.16l46.06-.26c5.76,0,11.51-.09,16.91-0.07h7.78l7,0.06c8.64,0.1,14.39.26,14.39,0.26v0.08s-5.76.16-14.39,0.26l-7,.06h-7.78c-5.4,0-11.15,0-16.91-.07l-46.06-.26V26.16Z"/><path d="M250,30.94l14.78-.21L280,30.62l17.37,0,17.37,0,15.15,0.11,14.78,0.21-14.78.21-15.15.11-17.37,0-17.37,0-15.15-.11Z"/><path d="M360.74,3.77l13.13,5.16,4.82,1.9c1.53,0.63,2.93,1.27,4.14,1.82,2.4,1.11,4,1.93,4,1.93l0,0.07s-1.69-.53-4.17-1.45c-1.24-.47-2.68-1-4.21-1.65l-4.75-2.07L360.71,3.84Z"/><path d="M378.87,0l2.72,1.23,7.17,3.27,10.09,4.71,11.53,5.47,11.49,5.56,10,4.92c2.93,1.44,5.34,2.69,7,3.54l2.67,1.35-2.72-1.23c-1.73-.79-4.21-1.89-7.17-3.27l-10.09-4.71-11.53-5.47L398.57,9.81l-10-4.92-7-3.54Z"/><path d="M392.34-.13s3.29,1.54,8.18,3.93l8.34,4.11,9.53,4.79,9.48,4.88,8.24,4.32c4.81,2.55,8,4.3,8,4.3s-3.29-1.54-8.19-3.93l-8.34-4.11-9.53-4.79-9.48-4.88-8.24-4.32C395.53,1.62,392.34-.13,392.34-0.13Z"/><path d="M408.5,1.21s1.6,0.69,4,1.8c1.17,0.57,2.56,1.21,4,1.94l4.57,2.3,4.52,2.38c1.45,0.76,2.77,1.52,3.91,2.14,2.28,1.28,3.77,2.18,3.77,2.18s-1.6-.69-4-1.8c-1.17-.57-2.56-1.2-4-1.94l-4.57-2.3-4.52-2.38c-1.44-.76-2.77-1.52-3.91-2.14C410,2.11,408.5,1.21,408.5,1.21Z"/><path d="M260.3,31.37s-0.18,4.67-.43,9.33c-0.05,1.17-.09,2.33-0.16,3.43s-0.21,2.11-.31,3c-0.23,1.74-.48,2.89-0.48,2.89h-0.07s-0.07-1.18,0-2.93c0-.88,0-1.9.13-3s0.22-2.25.34-3.41c0.44-4.65,1-9.3,1-9.3h0.07Z"/><path d="M268.82,30.95s-0.92,4.8-1.9,9.59l-0.7,3.52c-0.25,1.12-.54,2.15-0.78,3-0.5,1.76-.93,2.92-0.93,2.92l-0.07,0s0.11-1.23.42-3c0.16-.9.35-2,0.6-3.07l0.88-3.48c1.17-4.74,2.41-9.47,2.41-9.47Z"/><path d="M278.24,31s-1.3,4.81-2.67,9.61l-1,3.53c-0.34,1.12-.71,2.14-1,3-0.64,1.76-1.16,2.9-1.16,2.9l-0.07,0s0.21-1.24.66-3.05c0.24-.91.5-2,0.85-3.08L275,40.38c1.55-4.74,3.17-9.45,3.17-9.45Z"/><path d="M282.44,30.95s-1.07,4.81-2.2,9.6l-0.81,3.52c-0.29,1.12-.61,2.15-0.88,3-0.56,1.76-1,2.91-1,2.91l-0.07,0s0.15-1.23.52-3c0.19-.9.41-2,0.7-3.08l1-3.48c1.32-4.74,2.71-9.46,2.71-9.46Z"/><path d="M288.65,30.95s-0.88,4.8-1.82,9.59l-0.68,3.52c-0.24,1.12-.52,2.15-0.76,3-0.49,1.77-.9,2.92-0.9,2.92l-0.07,0s0.1-1.23.4-3c0.16-.9.33-2,0.58-3.07l0.85-3.48c1.13-4.74,2.34-9.47,2.34-9.47Z"/><path d="M293.76,30.95s-0.65,4.79-1.36,9.57L291.89,44c-0.19,1.12-.42,2.15-0.61,3-0.4,1.77-.76,2.93-0.76,2.93h-0.07s0-1.22.25-3c0.11-.9.24-2,0.43-3.07l0.68-3.48c0.91-4.75,1.88-9.49,1.88-9.49h0.07Z"/><path d="M300,31.38s-0.77,4.69-1.6,9.37l-0.59,3.44c-0.22,1.09-.47,2.1-0.69,3-0.45,1.73-.84,2.86-0.84,2.86h-0.07s0.08-1.2.33-3c0.14-.88.29-1.91,0.5-3l0.77-3.4c1-4.64,2.12-9.26,2.12-9.26H300Z"/><path d="M38.85,49.79s-0.21-2.28-.43-5.7c-0.1-1.71-.24-3.71-0.34-5.84l-0.31-6.7-0.21-6.71C37.5,22.7,37.49,20.7,37.45,19c0-3.43,0-5.71,0-5.71s0.21,2.28.43,5.7c0.1,1.71.24,3.71,0.34,5.84l0.31,6.7,0.21,6.71c0.07,2.14.08,4.14,0.11,5.85C38.88,47.5,38.85,49.79,38.85,49.79Z"/><path d="M35.28,49s-0.22-2.2-.45-5.51c-0.1-1.65-.26-3.58-0.36-5.65l-0.33-6.48-0.23-6.49c-0.08-2.07-.09-4-0.13-5.66-0.05-3.31,0-5.53,0-5.53s0.22,2.2.45,5.51c0.1,1.65.26,3.58,0.36,5.65l0.33,6.48,0.23,6.49c0.08,2.07.09,4,.13,5.66C35.31,46.76,35.28,49,35.28,49Z"/><path d="M30.93,48s-0.08-2.13-.1-5.33c0-1.6,0-3.46,0-5.46l0.07-6.26,0.17-6.26c0.05-2,.16-3.86.22-5.46,0.15-3.19.32-5.32,0.32-5.32s0.08,2.13.11,5.33c0,1.6,0,3.46,0,5.46l-0.07,6.26-0.17,6.26c-0.05,2-.16,3.86-0.22,5.46C31.09,45.84,30.93,48,30.93,48Z"/><path d="M26.92,27.15s1.32,0,3.3.11c1,0.06,2.14.11,3.37,0.21s2.54,0.21,3.85.33,2.62,0.27,3.85.42,2.37,0.32,3.35.44c2,0.28,3.26.53,3.26,0.53s-1.32,0-3.3-.11c-1-.06-2.14-0.11-3.37-0.21s-2.54-.21-3.85-0.33-2.62-.27-3.84-0.42-2.37-.32-3.35-0.44C28.21,27.4,26.92,27.15,26.92,27.15Z"/><path d="M24.2,29.55s1.08,0,2.69.17c0.8,0.08,1.74.15,2.75,0.27s2.07,0.25,3.14.4,2.13,0.31,3.12.48,1.92,0.36,2.71.5c1.59,0.31,2.63.58,2.63,0.58s-1.08,0-2.69-.17c-0.8-.08-1.74-0.15-2.75-0.27s-2.07-.25-3.14-0.4-2.13-.31-3.12-0.49-1.92-.36-2.71-0.5C25.25,29.82,24.2,29.55,24.2,29.55Z"/><path d="M24.5,32.37s1.34,0.1,3.35.34c1,0.13,2.17.26,3.41,0.44s2.57,0.39,3.9.6,2.65,0.45,3.89.69,2.39,0.48,3.38.68c2,0.42,3.28.75,3.28,0.75s-1.34-.1-3.35-0.34c-1-.13-2.17-0.26-3.41-0.44s-2.57-.39-3.9-0.6S32.39,34,31.15,33.8s-2.39-.48-3.38-0.68C25.8,32.7,24.5,32.37,24.5,32.37Z"/><path d="M565.66,14.5l22,1.17,8.09,0.43c2.58,0.17,5,.38,7,0.55,4.12,0.37,6.86.71,6.86,0.71v0.07s-2.76,0-6.9-.19c-2.07-.09-4.48-0.2-7.06-0.37l-8.08-.62-22-1.69V14.5Z"/><path d="M566.73,20.52l29.13-.26c3.64,0,7.28-.09,10.69-0.07,1.71,0,3.36,0,4.92,0l4.41,0.06c5.46,0.1,9.1.26,9.1,0.26v0.08s-3.64.16-9.1,0.26l-4.41.06c-1.56,0-3.21,0-4.92,0-3.41,0-7.05,0-10.69-.07l-29.13-.26V20.52Z"/><path d="M566.73,24.35l24.54-.26,9-.09c2.88,0,5.56.05,7.86,0.09,4.6,0.1,7.67.26,7.67,0.26v0.08s-3.07.16-7.67,0.26c-2.3,0-5,.09-7.86.09l-9-.09-24.54-.26V24.35Z"/><path d="M567.49,29l22.31-.26,8.19-.09c2.61,0,5.05.05,7.15,0.09,4.18,0.1,7,.26,7,0.26V29s-2.79.16-7,.26c-2.09,0-4.53.09-7.15,0.09l-8.19-.09L567.49,29V29Z"/><path d="M567.49,32.15l26.74,2.53,9.82,0.94c3.13,0.33,6,.69,8.55,1,5,0.62,8.32,1.13,8.32,1.13v0.07s-3.36-.19-8.38-0.61C610,37,607.1,36.73,604,36.4l-9.8-1.12-26.69-3.05V32.15Z"/><path d="M567.49,37.74l19.41,1.82L594,40.24c2.27,0.24,4.39.53,6.2,0.76,3.62,0.49,6,.91,6,0.91V42s-2.44-.1-6.09-0.39c-1.82-.16-3.95-0.33-6.22-0.58l-7.11-.86-19.36-2.35V37.74Z"/><path d="M568.29,42.45l19.41,1.82,7.13,0.68c2.27,0.24,4.39.53,6.2,0.76,3.62,0.49,6,.91,6,0.91v0.07s-2.44-.1-6.09-0.39c-1.82-.16-3.95-0.33-6.22-0.58l-7.11-.86-19.36-2.35V42.45Z"/><path d="M568.29,37.74l19.41,1.82,7.13,0.68c2.27,0.24,4.39.53,6.2,0.76,3.62,0.49,6,.91,6,0.91V42s-2.44-.1-6.09-0.39c-1.82-.16-3.95-0.33-6.22-0.58l-7.11-.86-19.36-2.35V37.74Z"/><path d="M564.47-.14l3.09,24.51,1.13,9c0.33,2.88.59,5.57,0.81,7.87,0.43,4.61.62,7.7,0.62,7.7H570s-0.51-3-1.14-7.64c-0.3-2.3-.67-5-1-7.85l-0.95-9L564.39-.13h0.07Z"/><path d="M557.59,0.25l4.31,23.5,1.58,8.63c0.47,2.76.87,5.34,1.21,7.56,0.66,4.43,1,7.4,1,7.4h-0.07S565,44.44,564.1,40c-0.42-2.2-.91-4.77-1.39-7.53l-1.4-8.66-3.8-23.59h0.07Z"/><path d="M550.58,8.17l6.57,19.52,2.41,7.17c0.74,2.3,1.38,4.46,1.94,6.31,1.09,3.71,1.73,6.21,1.73,6.21l-0.07,0s-0.94-2.4-2.22-6c-0.63-1.83-1.37-4-2.11-6.25l-2.23-7.23L550.51,8.19Z"/><rect class="cls-1" x="0.01" y="0.4" width="649.97" height="49.6"/><path d="M506.45,25.68a9.12,9.12,0,0,1,.79-0.61,14.43,14.43,0,0,1,3.87-1.84,9,9,0,0,1,1-.22,9,9,0,0,1-.79.61,14.43,14.43,0,0,1-3.87,1.84A9.12,9.12,0,0,1,506.45,25.68Z"/><path d="M500.94,24.48s0.59-.41,1.5-1,2.17-1.23,3.44-1.85,2.58-1.18,3.58-1.56,1.69-.58,1.69-0.58-0.59.42-1.5,1-2.17,1.23-3.44,1.85-2.58,1.18-3.58,1.56S500.94,24.48,500.94,24.48Z"/><path d="M497.55,20.76s0.52-.41,1.33-1,1.93-1.23,3.07-1.85,2.32-1.19,3.23-1.57,1.53-.59,1.53-0.59-0.52.41-1.33,1-1.93,1.23-3.07,1.85-2.32,1.19-3.23,1.57S497.55,20.76,497.55,20.76Z"/><path d="M510.12,30.39S508.92,29,507.2,27c-0.85-1-1.87-2.25-2.92-3.58L501,19.23,497.8,15c-1-1.34-1.93-2.63-2.74-3.72-1.58-2.19-2.59-3.69-2.59-3.69S493.67,9,495.39,11c0.85,1,1.87,2.25,2.92,3.58l3.28,4.15,3.2,4.21c1,1.34,1.93,2.63,2.74,3.72C509.11,28.89,510.12,30.39,510.12,30.39Z"/><path d="M511.36,28.83s-0.85-.9-2.06-2.32c-0.59-.71-1.31-1.53-2-2.43s-1.5-1.87-2.26-2.84-1.51-2-2.19-2.9-1.31-1.82-1.85-2.58c-1.07-1.52-1.73-2.57-1.73-2.57s0.85,0.9,2.06,2.31c0.59,0.71,1.31,1.53,2,2.43s1.5,1.87,2.26,2.84,1.51,2,2.19,2.9,1.31,1.82,1.85,2.58C510.69,27.78,511.36,28.83,511.36,28.83Z"/></svg>