<svg id="Slip_lines_Grain_Large" data-name="Slip lines (Grain Large" xmlns="http://www.w3.org/2000/svg" viewBox="0 0 300 150"><defs><style>.cls-1{fill:none;}</style></defs><title>M_SlipLinesGrainLarge</title><path d="M300,117.86s-3-.64-6-1.34c-0.75-.17-1.5-0.32-2.2-0.5s-1.33-.39-1.87-0.6-1-.38-1.3-0.52l-0.48-.23,0-.07,0.53,0c0.34,0,.81.11,1.39,0.2s1.22,0.24,1.92.42,1.42,0.44,2.15.67c2.94,0.89,5.86,1.84,5.86,1.84Z"/><path d="M300,123.23s-3.35-.73-6.68-1.52c-0.84-.19-1.67-0.37-2.45-0.56s-1.49-.44-2.1-0.65-1.11-.41-1.46-0.56l-0.54-.24,0-.07,0.59,0.06c0.38,0,.91.13,1.54,0.24s1.36,0.28,2.14.48,1.59,0.48,2.41.74c3.28,1,6.55,2,6.55,2Z"/><path d="M300,129s-3.65-.78-7.28-1.62c-0.91-.2-1.82-0.39-2.67-0.6s-1.63-.46-2.29-0.69-1.21-.43-1.59-0.59l-0.6-.25,0-.07,0.64,0.07c0.41,0,1,.14,1.68.26s1.49,0.3,2.33.51,1.73,0.51,2.63.78c3.58,1,7.15,2.13,7.15,2.13Z"/><path d="M300,132.37s-3.88-.92-7.74-1.91c-1-.24-1.94-0.46-2.84-0.71s-1.72-.54-2.43-0.78c-1.41-.5-2.33-0.93-2.33-0.93l0-.07s1,0.12,2.47.42c0.73,0.16,1.58.35,2.48,0.6s1.84,0.58,2.79.88c3.81,1.17,7.6,2.41,7.6,2.41Z"/><path d="M300,139.61s-4.19-.67-8.38-1.4c-1-.17-2.1-0.34-3.07-0.52s-1.88-.43-2.65-0.62c-1.54-.41-2.55-0.77-2.55-0.77v-0.07s1.07,0.05,2.65.26c0.79,0.12,1.71.25,2.68,0.44s2,0.46,3,.7c4.14,0.93,8.27,1.92,8.27,1.92v0.07Z"/><path d="M300,145.29s-1.16-.13-2.87-0.42c-0.85-.16-1.86-0.31-2.92-0.52s-2.2-.45-3.33-0.69-2.26-.51-3.31-0.78-2-.54-2.87-0.76c-1.67-.46-2.78-0.83-2.78-0.83s1.16,0.13,2.87.42c0.85,0.16,1.86.31,2.92,0.52s2.2,0.45,3.33.69,2.26,0.51,3.31.78,2,0.54,2.87.76C298.9,144.92,300,145.29,300,145.29Z"/><path d="M22.62,107s1.25-.09,3.13-0.1c0.94,0,2,0,3.2.07l3.66,0.28c5,0.35,10,.77,10,0.77v0.07s-5-.09-10-0.25l-3.67-.1c-1.17-.06-2.26-0.17-3.19-0.26-1.86-.2-3.1-0.42-3.1-0.42V107Z"/><path d="M15.14,112.36s2.13,0,5.31.19c1.59,0.09,3.44.2,5.43,0.37l6.2,0.62L49,115.22v0.07L32,114.13l-6.22-.43c-2-.17-3.83-0.38-5.41-0.55-3.16-.37-5.26-0.71-5.26-0.71v-0.07Z"/><path d="M10,118.38s3.05-.16,7.63-0.26c2.29,0,5-.09,7.82-0.09l9,0.09,24.4,0.26v0.07l-24.4.26-9,.09c-2.86,0-5.53-.05-7.82-0.09-4.58-.1-7.63-0.26-7.63-0.26v-0.07Z"/><path d="M10,122.67s2.72-.16,6.81-0.26c2,0,4.43-.09,7-0.09l8,0.09,21.8,0.26v0.08l-21.8.26-8,.09c-2.55,0-4.94-.05-7-0.09-4.09-.1-6.81-0.26-6.81-0.26v-0.08Z"/><path d="M15.14,126.84s2.14-.16,5.36-0.26c1.61,0,3.48-.09,5.49-0.09l6.29,0.09,17.14,0.26v0.07l-17.14.26-6.29.09c-2,0-3.88-.05-5.49-0.09-3.21-.1-5.36-0.26-5.36-0.26v-0.07Z"/><path d="M15.15,130s2.59,0.19,6.45.62c1.93,0.22,4.18.48,6.59,0.8l7.53,1.12,20.5,3.05v0.07l-20.57-2.53-7.55-.94c-2.41-.33-4.64-0.69-6.56-1-3.84-.62-6.38-1.13-6.38-1.13V130Z"/><path d="M15.15,135.61s1.88,0.1,4.69.39c1.4,0.16,3,.33,4.79.58l5.46,0.86,14.86,2.35v0.07L30,138l-5.48-.68c-1.75-.24-3.37-0.53-4.76-0.76-2.78-.49-4.62-0.91-4.62-0.91v-0.07Z"/><path d="M86.72,46.82l28.37-8.1c3.55-1,7.09-2,10.43-3,1.67-.45,3.27-0.92,4.81-1.31l4.32-1.13c5.36-1.38,9-2.2,9-2.2l0,0.07s-3.51,1.14-8.82,2.7l-4.29,1.25c-1.52.45-3.14,0.87-4.8,1.34-3.33.93-6.9,1.86-10.46,2.81L86.74,46.89Z"/><path d="M95.47,50.91s3.4-1,8.53-2.5l8.76-2.47,10.07-2.75,10.09-2.65,8.82-2.25c5.17-1.29,8.63-2.1,8.63-2.1s-3.4,1-8.53,2.5l-8.76,2.47L123,43.91l-10.09,2.65-8.82,2.25C98.93,50.1,95.47,50.91,95.47,50.91Z"/><path d="M97.67,62.48s3.39-1.16,8.51-2.81l8.75-2.79L125,53.77l10.08-3,8.82-2.57c5.17-1.48,8.63-2.41,8.63-2.41s-3.39,1.16-8.51,2.81l-8.75,2.79-10.06,3.12-10.08,3-8.82,2.57C101.14,61.55,97.67,62.48,97.67,62.48Z"/><path d="M100.24,55.41l21.08-5.94,7.74-2.18c2.48-.67,4.81-1.24,6.8-1.73,4-1,6.68-1.53,6.68-1.53l0,0.07s-2.6.87-6.54,2c-2,.57-4.27,1.24-6.75,1.91l-7.79,2-21.22,5.43Z"/><path d="M105.12,67.36l17-4.88,6.25-1.79c2-.54,3.89-1,5.5-1.39,3.23-.77,5.41-1.19,5.41-1.19l0,0.07s-2.09.73-5.27,1.7c-1.59.47-3.45,1-5.45,1.57l-6.3,1.61-17.16,4.37Z"/><path d="M140,62.69l19,27.79c2.37,3.47,4.77,6.94,7,10.22,1.1,1.64,2.18,3.21,3.16,4.73l2.79,4.26c3.44,5.29,5.65,8.88,5.65,8.88l-0.06,0s-2.48-3.4-6.08-8.59l-2.89-4.19c-1-1.48-2.08-3.08-3.18-4.71-2.21-3.27-4.51-6.79-6.83-10.3L139.93,62.73Z"/><path d="M132.15,65.21l21,28.14c2.63,3.52,5.27,7,7.7,10.35,1.21,1.66,2.41,3.25,3.51,4.79l3.1,4.32c3.82,5.36,6.29,9,6.29,9l-0.06,0S171,118.4,167,113.15l-3.2-4.25c-1.14-1.5-2.3-3.12-3.53-4.77-2.45-3.31-5-6.88-7.58-10.43l-20.6-28.45Z"/><path d="M132.15,72.85L151.5,98.71c2.42,3.23,4.85,6.45,7.09,9.51,1.12,1.53,2.22,3,3.22,4.4l2.85,4c3.51,4.94,5.77,8.29,5.77,8.29l-0.06,0s-2.52-3.16-6.19-8l-2.95-3.9c-1.05-1.38-2.12-2.87-3.24-4.39-2.25-3-4.6-6.33-7-9.6L132.09,72.89Z"/><path d="M123.55,67.87l22.14,29.65c2.77,3.71,5.55,7.4,8.11,10.9,1.28,1.75,2.54,3.42,3.69,5l3.27,4.55c4,5.65,6.64,9.47,6.64,9.47l-0.06,0s-2.87-3.63-7.06-9.16l-3.37-4.47c-1.2-1.58-2.42-3.28-3.71-5-2.58-3.48-5.28-7.24-8-11l-21.71-30Z"/><path d="M120.73,69.63l22.66,30.29c2.83,3.79,5.68,7.56,8.3,11.14,1.31,1.79,2.6,3.5,3.78,5.15l3.35,4.65c4.13,5.77,6.81,9.67,6.81,9.67l-0.06,0s-2.94-3.71-7.22-9.36l-3.45-4.57c-1.23-1.62-2.48-3.36-3.8-5.14-2.64-3.56-5.4-7.4-8.18-11.22l-22.24-30.6Z"/><path d="M113.37,70.62l24,31.58c3,3.95,6,7.88,8.8,11.61,1.39,1.86,2.76,3.65,4,5.37l3.55,4.84c4.38,6,7.23,10.07,7.23,10.07l-0.06,0s-3.1-3.87-7.64-9.76l-3.65-4.77c-1.3-1.69-2.63-3.5-4-5.35-2.8-3.71-5.73-7.71-8.68-11.7L113.31,70.66Z"/><path d="M108.73,72.5l19.82,30c2.48,3.75,5,7.49,7.26,11,1.14,1.77,2.27,3.47,3.3,5.1l2.91,4.6c3.59,5.71,5.91,9.57,5.91,9.57l-0.06,0s-2.59-3.68-6.34-9.28l-3-4.53c-1.08-1.6-2.17-3.33-3.32-5.09-2.31-3.53-4.71-7.33-7.14-11.12L108.67,72.54Z"/><path d="M300,18l-22.62.26-8.31.09c-2.65,0-5.13-.05-7.25-0.09-4.24-.1-7.07-0.26-7.07-0.26V17.93s2.83-.16,7.07-0.26c2.12,0,4.6-.09,7.25-0.09l8.31,0.09L300,17.93V18Z"/><path d="M300,21.71s-2.92.14-7.3,0.25c-2.19,0-4.74.13-7.48,0.16l-8.58.1h-8.58c-2.74,0-5.29-.05-7.48-0.07-4.38-.06-7.3-0.17-7.3-0.17s2.92-.14,7.3-0.25c2.19,0,4.74-.13,7.48-0.16l8.58-.1h8.58c2.74,0,5.29.05,7.48,0.07C297.08,21.61,300,21.71,300,21.71Z"/><path d="M300,26.46l-23.47.26-8.62.09c-2.75,0-5.32-.05-7.52-0.09-4.4-.1-7.34-0.26-7.34-0.26V26.38s2.93-.16,7.34-0.26c2.2,0,4.77-.09,7.52-0.09l8.62,0.09L300,26.38v0.08Z"/><path d="M300,31.16s-3,.12-7.55.21c-2.27,0-4.91.1-7.74,0.11l-8.88,0-8.88,0c-2.83,0-5.48-.08-7.74-0.11-4.53-.09-7.55-0.21-7.55-0.21s3-.12,7.55-0.21c2.27,0,4.91-.1,7.74-0.11l8.88,0,8.88,0c2.83,0,5.48.08,7.74,0.11C297,31,300,31.16,300,31.16Z"/><path d="M195.63,107.24s-1,2.41-2.64,6c-0.82,1.78-1.75,3.87-2.8,6.09l-3.28,6.94-3.37,6.9c-1.07,2.2-2.13,4.23-3,6-1.78,3.49-3,5.8-3,5.8s1-2.41,2.64-6c0.82-1.78,1.75-3.87,2.8-6.08l3.28-6.94,3.37-6.9c1.07-2.2,2.13-4.23,3-6C194.39,109.54,195.63,107.24,195.63,107.24Z"/><path d="M199,107.33s-1,2.73-2.56,6.8c-0.8,2-1.7,4.41-2.72,6.93L190.49,129l-3.29,7.88c-1,2.51-2.08,4.84-2.93,6.84-1.74,4-3,6.64-3,6.64s1-2.73,2.56-6.8c0.8-2,1.7-4.41,2.72-6.93l3.2-7.91,3.29-7.88c1-2.51,2.08-4.84,2.93-6.84C197.76,110,199,107.33,199,107.33Z"/><path d="M203.44,107s-0.63,2.09-1.65,5.19c-0.53,1.55-1.11,3.36-1.79,5.29l-2.13,6-2.22,6c-0.71,1.92-1.42,3.68-2,5.21-1.2,3-2,5-2,5s0.63-2.09,1.65-5.19c0.53-1.55,1.11-3.36,1.79-5.29l2.13-6,2.22-6c0.71-1.92,1.42-3.68,2-5.21C202.59,109,203.44,107,203.44,107Z"/><path d="M207.07,107.55s-0.12.93-.36,2.3-0.64,3.18-1.09,5-1,3.57-1.4,4.89-0.78,2.19-.78,2.19,0.11-.93.36-2.3,0.64-3.18,1.09-5,1-3.57,1.4-4.89S207.07,107.55,207.07,107.55Z"/><path d="M210.37,109s-0.32,1.67-.88,4.15c-0.29,1.24-.61,2.69-1,4.23l-1.22,4.83-1.32,4.8c-0.42,1.53-.87,2.95-1.22,4.17-0.74,2.44-1.29,4-1.29,4s0.32-1.67.88-4.15c0.3-1.24.61-2.69,1-4.23l1.22-4.83,1.32-4.8c0.42-1.53.87-2.95,1.22-4.17C209.82,110.59,210.37,109,210.37,109Z"/><path d="M214.83,109s-0.16,1.1-.49,2.73c-0.18.81-.36,1.76-0.6,2.77s-0.5,2.08-.78,3.15-0.57,2.13-.86,3.13-0.59,1.92-.83,2.71c-0.51,1.58-.9,2.62-0.9,2.62s0.16-1.1.49-2.73c0.18-.81.36-1.76,0.6-2.77s0.51-2.08.78-3.15,0.57-2.13.86-3.13,0.59-1.92.83-2.71C214.44,110,214.83,109,214.83,109Z"/><path d="M219.08,107.87s0,0.55-.09,1.36a27.52,27.52,0,0,1-1.33,5.77c-0.28.77-.51,1.26-0.51,1.26s0-.55.09-1.36a27.52,27.52,0,0,1,1.33-5.77C218.85,108.37,219.08,107.87,219.08,107.87Z"/><path d="M221.31,107.87s-0.14,1.64-.44,4.09c-0.16,1.22-.32,2.65-0.55,4.18l-0.72,4.77-0.81,4.76c-0.26,1.52-.55,2.93-0.78,4.14-0.48,2.42-.86,4-0.86,4s0.14-1.64.44-4.09c0.17-1.22.32-2.65,0.55-4.18l0.72-4.77,0.81-4.76c0.26-1.52.55-2.93,0.78-4.14C220.94,109.48,221.31,107.87,221.31,107.87Z"/><path d="M225.19,108s-0.19,1.54-.57,3.83c-0.2,1.14-.41,2.48-0.68,3.91s-0.57,2.95-.87,4.46-0.64,3-1,4.45-0.65,2.73-.92,3.86c-0.56,2.26-1,3.75-1,3.75s0.19-1.54.57-3.83c0.2-1.14.41-2.48,0.68-3.91s0.57-2.95.87-4.46,0.64-3,1-4.45,0.65-2.73.92-3.86C224.76,109.53,225.19,108,225.19,108Z"/><path d="M228.76,108.14s-0.17,1.12-.51,2.77c-0.18.82-.37,1.79-0.61,2.82s-0.51,2.12-.79,3.21-0.58,2.17-.88,3.18-0.6,2-.84,2.76c-0.51,1.61-.91,2.67-0.91,2.67s0.17-1.12.51-2.77c0.18-.82.37-1.79,0.61-2.82s0.51-2.12.79-3.21,0.58-2.17.88-3.18,0.6-2,.84-2.76C228.36,109.19,228.76,108.14,228.76,108.14Z"/><path d="M179.9,117.53l13.31-.21,13.65-.11,15.64,0,15.64,0.06,13.65,0.12,13.31,0.22-13.31.21-13.65.11-15.64,0-15.64-.06-13.65-.12Z"/><path d="M181.32,122.09s3.66-.12,9.15-0.21l9.38-.11,10.75,0,10.75,0,9.38,0.11c5.49,0.09,9.15.21,9.15,0.21s-3.66.12-9.15,0.21l-9.38.11-10.75,0-10.75,0-9.38-.11C185,122.21,181.32,122.09,181.32,122.09Z"/><path d="M171,126.08s3.85-.12,9.64-0.21l9.88-.11,11.32,0,11.32,0,9.88,0.11c5.78,0.09,9.64.21,9.64,0.21s-3.85.12-9.64,0.21l-9.88.11-11.32,0-11.32,0-9.88-.11C174.89,126.2,171,126.08,171,126.08Z"/><path d="M258.87,31.75l-0.48,13.73-0.18,5c-0.09,1.61-.22,3.11-0.33,4.39-0.24,2.57-.49,4.27-0.49,4.27h-0.07s-0.07-1.72,0-4.3c0-1.29.06-2.79,0.14-4.4l0.36-5,1-13.7h0.07Z"/><path d="M267.4,31.17l-2.28,15.41-0.84,5.66c-0.3,1.8-.63,3.47-0.91,4.91-0.58,2.87-1.05,4.76-1.05,4.76h-0.07s0.16-1.95.54-4.85c0.2-1.45.43-3.14,0.72-4.94l1-5.63,2.8-15.33h0.07Z"/><path d="M276.82,31.17l-3.46,16.64-1.28,6.11c-0.44,1.94-.89,3.74-1.28,5.29-0.8,3.09-1.42,5.12-1.42,5.12l-0.07,0s0.31-2.11.91-5.24c0.31-1.56.67-3.39,1.1-5.33l1.45-6.07,4-16.52Z"/><path d="M281,31.17l-3.13,18-1.15,6.61c-0.4,2.1-.82,4.06-1.18,5.73-0.73,3.35-1.31,5.56-1.31,5.56h-0.07s0.26-2.27.8-5.66c0.28-1.69.6-3.66,1-5.76l1.33-6.57,3.65-17.89H281Z"/><path d="M287.23,31.17l-2.85,19.46-1.05,7.14C283,60,282.58,62.16,282.25,64c-0.68,3.63-1.23,6-1.23,6h-0.07s0.23-2.45.71-6.11c0.25-1.83.54-4,.9-6.23l1.23-7.12,3.36-19.38h0.07Z"/><path d="M292.34,31.17L290,51.74l-0.85,7.55c-0.3,2.41-.63,4.65-0.91,6.57-0.58,3.84-1.06,6.39-1.06,6.39h-0.07s0.16-2.59.54-6.45c0.2-1.93.43-4.18,0.73-6.59l1-7.53,2.81-20.5h0.07Z"/><path d="M298.55,31.75L295.7,53l-1.05,7.8c-0.36,2.49-.76,4.8-1.09,6.78-0.68,4-1.23,6.59-1.23,6.59h-0.07s0.23-2.67.71-6.66c0.25-2,.54-4.32.9-6.81l1.23-7.77,3.37-21.17h0.07Z"/><path d="M37.43,50s-0.21-2.28-.43-5.7c-0.1-1.71-.24-3.71-0.34-5.84l-0.31-6.7-0.21-6.71c-0.07-2.14-.08-4.14-0.11-5.85,0-3.43,0-5.71,0-5.71s0.21,2.28.43,5.7c0.1,1.71.24,3.71,0.34,5.84l0.31,6.7,0.21,6.71c0.07,2.14.08,4.14,0.11,5.85C37.46,47.72,37.43,50,37.43,50Z"/><path d="M33.86,49.19s-0.22-2.2-.45-5.51C33.31,42,33.16,40.1,33.05,38l-0.33-6.48-0.23-6.49c-0.08-2.07-.09-4-0.13-5.66-0.05-3.31,0-5.53,0-5.53s0.22,2.2.45,5.51C32.88,21,33,23,33.14,25l0.33,6.48L33.7,38c0.08,2.07.09,4,.13,5.66C33.89,47,33.86,49.19,33.86,49.19Z"/><path d="M29.51,48.19s-0.08-2.13-.1-5.33c0-1.6,0-3.46,0-5.46l0.07-6.26,0.17-6.26c0.05-2,.16-3.86.22-5.46,0.15-3.19.32-5.32,0.32-5.32s0.08,2.13.11,5.33c0,1.6,0,3.46,0,5.46l-0.07,6.26L30,37.41c-0.05,2-.16,3.86-0.22,5.46C29.67,46.06,29.51,48.19,29.51,48.19Z"/><path d="M25.5,27.37s1.32,0,3.3.11c1,0.06,2.14.11,3.37,0.21S34.7,27.89,36,28s2.62,0.27,3.85.42,2.37,0.32,3.35.44c2,0.28,3.26.53,3.26,0.53s-1.32,0-3.3-.11c-1-.06-2.14-0.11-3.37-0.21s-2.54-.21-3.85-0.33-2.62-.27-3.84-0.42S29.73,28,28.75,27.9C26.79,27.62,25.5,27.37,25.5,27.37Z"/><path d="M22.78,29.77s1.08,0,2.69.17c0.8,0.08,1.74.15,2.75,0.27s2.07,0.25,3.14.4,2.13,0.31,3.12.48,1.92,0.36,2.71.5c1.59,0.31,2.63.58,2.63,0.58s-1.08,0-2.69-.17c-0.8-.08-1.74-0.15-2.75-0.27s-2.07-.25-3.14-0.4-2.13-.31-3.12-0.49-1.92-.36-2.71-0.5C23.83,30,22.78,29.77,22.78,29.77Z"/><path d="M23.08,32.58s1.34,0.1,3.35.34c1,0.13,2.17.26,3.41,0.44s2.57,0.39,3.9.6,2.65,0.45,3.89.69S40,35.13,41,35.33c2,0.42,3.28.75,3.28,0.75s-1.34-.1-3.35-0.34c-1-.13-2.17-0.26-3.41-0.44s-2.57-.39-3.9-0.6S31,34.25,29.73,34s-2.39-.48-3.38-0.68C24.38,32.92,23.08,32.58,23.08,32.58Z"/><rect class="cls-1" y="1.26" width="300" height="149.94"/></svg>