<svg id="Slip_lines_grain_Small_" data-name="Slip lines (grain Small)" xmlns="http://www.w3.org/2000/svg" viewBox="0 0 500 150"><defs><style>.cls-1{fill:#202020;}</style></defs><title>M_SlipLinesGrainSmall</title><path d="M41.81,48.79l15.76-3.4,5.79-1.24c1.85-.37,3.59-0.66,5.08-0.92,3-.49,5-0.73,5-0.73v0.07s-1.95.55-4.89,1.24c-1.47.33-3.19,0.73-5,1.1L57.68,46,41.82,48.86V48.79Z"/><path d="M36.34,52.63l19.18-4.1,7-1.5c2.25-.45,4.37-0.82,6.18-1.14,3.63-.63,6.06-0.95,6.06-0.95V45s-2.37.64-6,1.46c-1.8.4-3.89,0.87-6.14,1.32l-7.08,1.32L36.36,52.71V52.63Z"/><path d="M41.33,57l22-4.86,8.1-1.78c2.59-.54,5-1,7.1-1.38,4.16-.77,7-1.18,7-1.18l0,0.07s-2.73.73-6.85,1.69c-2.06.47-4.47,1-7.06,1.57L63.5,52.7,41.35,57Z"/><path d="M42.93,60.22L61.09,56l6.67-1.54c2.14-.46,4.14-0.84,5.86-1.18,3.44-.65,5.75-1,5.75-1l0,0.07s-2.24.65-5.64,1.49c-1.7.41-3.68,0.89-5.82,1.36l-6.71,1.36-18.28,3.7Z"/><path d="M46.12,66.3l22.81-6.56,8.38-2.4C80,56.6,82.5,56,84.65,55.41c4.32-1.09,7.22-1.72,7.22-1.72l0,0.07s-2.82.95-7.08,2.22c-2.13.63-4.62,1.37-7.3,2.11l-8.42,2.23L46.14,66.38Z"/><path d="M56.89,67.76s2.64-.83,6.62-2c2-.57,4.32-1.26,6.82-1.95l7.83-2.15L86,59.61c2.51-.66,4.86-1.22,6.88-1.72,4-1,6.73-1.59,6.73-1.59s-2.64.83-6.62,2c-2,.57-4.31,1.26-6.82,1.95l-7.84,2.15-7.86,2.06c-2.51.66-4.86,1.22-6.88,1.72C59.59,67.16,56.89,67.76,56.89,67.76Z"/><path d="M58.38,75.61s2.29-.82,5.75-2c1.74-.56,3.75-1.25,5.93-1.93l6.82-2.13,6.85-2c2.18-.65,4.24-1.2,6-1.71,3.51-1,5.88-1.57,5.88-1.57s-2.29.82-5.75,2c-1.74.56-3.75,1.25-5.93,1.93L77.09,70.3l-6.85,2c-2.18.65-4.24,1.2-6,1.71C60.74,75,58.38,75.61,58.38,75.61Z"/><path d="M60.12,70.8L74.4,66.69l5.25-1.5c1.68-.45,3.26-0.82,4.62-1.15,2.72-.63,4.55-1,4.55-1l0,0.07s-1.75.64-4.42,1.46c-1.34.4-2.89,0.87-4.57,1.33l-5.29,1.33-14.42,3.6Z"/><path d="M63.43,78.91S69.19,77.18,75,75.52l4.23-1.24c1.36-.37,2.64-0.66,3.74-0.92,2.2-.49,3.69-0.73,3.69-0.73l0,0.07s-1.41.55-3.56,1.23C82,74.27,80.75,74.67,79.4,75L75.11,76.1C69.29,77.57,63.45,79,63.45,79Z"/><path d="M178.05,119.31s-0.76,1.05-2,2.54c-0.63.74-1.36,1.6-2.18,2.49l-2.64,2.72c-3.58,3.72-7.21,7.39-7.21,7.39l-0.06-.05s3.39-3.89,6.82-7.74l2.51-2.84c0.82-.89,1.63-1.68,2.32-2.36,1.39-1.35,2.38-2.19,2.38-2.19Z"/><path d="M180.25,120.88s-1,1.35-2.68,3.28c-0.83,1-1.8,2.08-2.88,3.25L171.25,131l-9.39,9.76-0.06-.05,9-10.12,3.31-3.71c1.08-1.16,2.12-2.22,3-3.12,1.8-1.79,3.07-2.93,3.07-2.93Z"/><path d="M206.07,129.33v0Z"/><path d="M189.77,50.44l17.34,4.39,6.36,1.62c2,0.54,3.9,1.1,5.51,1.58,3.21,1,5.33,1.7,5.33,1.7l0,0.07s-2.2-.42-5.46-1.2c-1.63-.4-3.53-0.85-5.56-1.4l-6.32-1.79-17.2-4.89Z"/><path d="M182.62,51.33l21.08,5.38,7.74,2c2.46,0.66,4.75,1.33,6.71,1.89,3.92,1.15,6.5,2,6.5,2l0,0.07S222,62.12,218,61.16c-2-.49-4.29-1.05-6.76-1.71l-7.69-2.15L182.6,51.4Z"/><path d="M185.81,57.62l24.29,6L219,65.9c2.84,0.74,5.48,1.48,7.74,2.11,4.52,1.28,7.5,2.22,7.5,2.22l0,0.07s-3.07-.63-7.64-1.72c-2.28-.55-4.94-1.19-7.78-1.93l-8.87-2.4-24.16-6.56Z"/><path d="M186,61.32l20.11,4.8,7.38,1.77c2.35,0.59,4.53,1.2,6.4,1.71,3.73,1,6.2,1.83,6.2,1.83l0,0.07s-2.55-.47-6.33-1.33c-1.89-.44-4.09-0.94-6.44-1.53L206,66.69l-20-5.3Z"/><path d="M186.66,68.34l25.78,4.87L221.91,75c3,0.6,5.82,1.21,8.22,1.73,4.81,1.06,8,1.86,8,1.86v0.07s-3.25-.48-8.09-1.35c-2.42-.44-5.24-1-8.26-1.55l-9.43-2-25.68-5.38V68.34Z"/><path d="M196.89,74.75s3,0.5,7.53,1.34c2.25,0.43,4.89.91,7.7,1.47l8.81,1.76,8.79,1.86c2.81,0.59,5.41,1.2,7.66,1.69,4.48,1,7.45,1.75,7.45,1.75s-3-.5-7.53-1.34c-2.25-.43-4.89-0.9-7.7-1.47l-8.81-1.77L212,78.19c-2.81-.59-5.41-1.2-7.66-1.69C199.86,75.48,196.89,74.75,196.89,74.75Z"/><path d="M103.84,57.62l16.49-.26,6.05-.09c1.93,0,3.74.05,5.28,0.09,3.09,0.1,5.15.26,5.15,0.26v0.08s-2.06.16-5.15,0.26c-1.55,0-3.35.09-5.28,0.09L120.33,58l-16.49-.26V57.62Z"/><path d="M107.31,63.92l20.11-1.13,7.39-.41c2.36-.1,4.56-0.14,6.45-0.18,3.78-.06,6.3,0,6.3,0v0.07s-2.51.27-6.28,0.53c-1.89.12-4.08,0.27-6.44,0.37l-7.39.23-20.14.6V63.92Z"/><path d="M110.15,70.8l20.06-.55,7.37-.2c2.35,0,4.55,0,6.43,0,3.76,0,6.27.17,6.27,0.17V70.3s-2.51.2-6.27,0.35c-1.88.07-4.07,0.15-6.42,0.19l-7.37,0-20.07,0V70.8Z"/><path d="M109.08,75.57l19.23-1.26,7.06-.46c2.26-.12,4.36-0.17,6.17-0.23,3.61-.09,6-0.05,6-0.05v0.07s-2.4.29-6,.57c-1.8.13-3.9,0.3-6.16,0.41l-7.07.28-19.26.74V75.57Z"/><path d="M110.15,81.32l18.7-1.1,6.87-.4c2.19-.1,4.24-0.14,6-0.18,3.51-.06,5.86,0,5.86,0v0.07s-2.33.27-5.83,0.52c-1.75.12-3.8,0.26-6,.36l-6.87.22-18.72.57V81.32Z"/><path d="M122,85s5-.4,10.05-0.72l3.69-.26C137,84,138.06,84,139,84c1.89,0,3.16.12,3.16,0.12V84.2s-1.25.22-3.13,0.4c-0.94.08-2,.19-3.22,0.24l-3.7.08c-5,.13-10.07.2-10.07,0.2V85Z"/><path d="M49.55,71.67s-0.93,1.43-2.42,3.48c-0.76,1-1.63,2.22-2.62,3.46l-3.15,3.85-8.6,10.46-0.06,0,8.19-10.79,3-4c1-1.25,1.94-2.37,2.76-3.35,1.65-1.93,2.83-3.16,2.83-3.16Z"/><path d="M52.37,74.29s-0.78,1.27-2.07,3.08c-0.65.9-1.4,2-2.26,3.05L45.31,83.8C41.6,88.41,37.84,93,37.84,93l-0.06,0s3.5-4.78,7.06-9.51l2.6-3.49c0.85-1.1,1.69-2.09,2.4-2.94,1.44-1.69,2.48-2.76,2.48-2.76Z"/><path d="M55.24,76s-0.75,1.25-2,3c-0.63.89-1.36,1.93-2.18,3L48.4,85.38c-3.6,4.55-7.25,9.05-7.25,9.05l-0.06,0s3.39-4.71,6.84-9.37l2.51-3.44c0.83-1.08,1.64-2.05,2.33-2.89C54.17,77,55.18,76,55.18,76Z"/><path d="M59.89,78.81s-0.64,1.23-1.72,3c-0.55.87-1.18,1.9-1.9,3l-2.34,3.29c-3.17,4.49-6.4,8.94-6.4,8.94l-0.06,0s3-4.64,6-9.24l2.19-3.39c0.72-1.06,1.44-2,2.06-2.86,1.24-1.65,2.15-2.69,2.15-2.69Z"/><path d="M62.85,81.7s-0.07.18-.22,0.49-0.37.73-.65,1.24-0.64,1.07-1,1.67-0.89,1.19-1.35,1.8c-1.82,2.47-3.69,4.89-3.69,4.89l-0.06,0s1.6-2.61,3.26-5.19c0.41-.65.81-1.3,1.2-1.9s0.82-1.12,1.19-1.56,0.69-.81.93-1,0.38-.38.38-0.38Z"/><path d="M66,83.87S66,84,65.85,84.28s-0.29.62-.51,1-0.52.89-.85,1.39-0.74,1-1.13,1.48c-1.52,2-3.09,4-3.09,4l-0.06,0s1.3-2.18,2.66-4.33c0.33-.54.66-1.09,1-1.59s0.68-.93,1-1.29,0.58-.66.79-0.85,0.33-.31.33-0.31Z"/><path d="M59.07,78.32s-0.86,1.08-2.25,2.61c-0.7.76-1.52,1.64-2.43,2.55l-2.92,2.78c-4,3.81-8,7.57-8,7.57l-0.05-.05s3.78-4,7.6-7.94l2.8-2.91c0.91-.91,1.8-1.72,2.56-2.42C57.93,79.13,59,78.27,59,78.27Z"/><path d="M215,12.7s3.46-.78,8.68-1.86L232.63,9l10.23-2,10.25-1.9,9-1.58c5.25-.9,8.76-1.45,8.76-1.45s-3.46.78-8.68,1.86l-8.91,1.81L243,7.77,232.76,9.67l-9,1.58C218.55,12.15,215,12.7,215,12.7Z"/><path d="M220.16,15.3s2.5-.6,6.26-1.41c1.88-.39,4.08-0.88,6.44-1.35l7.39-1.46,7.41-1.36c2.37-.44,4.58-0.79,6.48-1.12,3.8-.63,6.34-1,6.34-1s-2.5.6-6.26,1.41c-1.88.39-4.08,0.88-6.44,1.34l-7.39,1.46L233,13.19c-2.37.44-4.58,0.79-6.48,1.12C222.7,14.94,220.16,15.3,220.16,15.3Z"/><path class="cls-1" d="M270.71,9.23c0.06,0,0-.07,0-0.08S270.71,9.25,270.71,9.23Z"/><polygon class="cls-1" points="269.74 9.59 269.75 9.56 269.62 9.65 269.74 9.59"/><path class="cls-1" d="M268.8,9.78a1.15,1.15,0,0,0,.51-0.08l0,0,0.06-.11A3,3,0,0,1,268.8,9.78Z"/><path class="cls-1" d="M268.26,9.64s-0.1.06,0.12,0h0Z"/><path class="cls-1" d="M268.35,9.62c0.1,0-.07,0,0,0h0Z"/><path class="cls-1" d="M267.9,9.74L268,9.67s-0.15,0-.11,0C267.79,9.69,267.82,9.71,267.9,9.74Z"/><path class="cls-1" d="M267.8,9.84l0.06,0S267.83,9.8,267.8,9.84Z"/><path class="cls-1" d="M268,9.75l-0.14.06s0,0.05.06,0S267.94,9.78,268,9.75Z"/><path class="cls-1" d="M268.08,9.75c0.08,0,.17,0,0.05.07C268.38,9.76,268.32,9.68,268.08,9.75Z"/><path class="cls-1" d="M268.78,9.9h0.1L269,9.86A0.61,0.61,0,0,0,268.78,9.9Z"/><path class="cls-1" d="M267.08,9.84a0.33,0.33,0,0,0,.07.08l0.09,0A0.26,0.26,0,0,1,267.08,9.84Z"/><path class="cls-1" d="M267.15,9.93L267,10C267.15,10,267.17,10,267.15,9.93Z"/><polygon class="cls-1" points="267.8 9.97 268.02 9.84 267.75 9.98 267.8 9.97"/><polygon class="cls-1" points="266.53 9.95 266.6 9.88 266.48 9.99 266.53 9.95"/><path class="cls-1" d="M266.17,10c0.05-.06-0.1-0.06,0-0.1a0.77,0.77,0,0,0-.24.14A0.49,0.49,0,0,1,266.17,10Z"/><path class="cls-1" d="M265.77,10.15l0.12-.08Z"/><path class="cls-1" d="M266.77,10a0.16,0.16,0,0,0-.13,0L266.72,10h0.06Z"/><path class="cls-1" d="M266.72,10h0l-0.12,0Z"/><path class="cls-1" d="M266.79,10h0Z"/><path class="cls-1" d="M267.41,10c-0.08.05-.24,0.13-0.06,0.15S267.29,10.07,267.41,10Z"/><path class="cls-1" d="M266.87,10.1l0.16,0s0,0,0-.06Z"/><polygon class="cls-1" points="266.81 10.14 266.88 10.1 266.82 10.11 266.81 10.14"/><path class="cls-1" d="M266,10.16a0.63,0.63,0,0,1-.21.08l0.27,0S266.14,10.13,266,10.16Z"/><path class="cls-1" d="M266.38,10.11h0S266.38,10.12,266.38,10.11Z"/><path class="cls-1" d="M265,10.4h0Z"/><path class="cls-1" d="M266.12,10.21a0.19,0.19,0,0,0,.14-0.05l-0.15,0S266.1,10.22,266.12,10.21Z"/><path class="cls-1" d="M265.56,10.22h0.12A0.16,0.16,0,0,0,265.56,10.22Z"/><path class="cls-1" d="M266.34,10.1h0S266.32,10.09,266.34,10.1Z"/><path class="cls-1" d="M266.34,10.1l-0.08.06,0.1,0h0Z"/><path class="cls-1" d="M264.88,10.88a0.27,0.27,0,0,1,.32-0.12c0.14-.08,0-0.26-0.15-0.35,0,0,0,.05-0.14.12,0.06,0,.35,0,0.23.09a0.28,0.28,0,0,1-.27,0c0.1,0.06-.23.17-0.16,0.27l0.17-.08S264.83,10.88,264.88,10.88Z"/><path class="cls-1" d="M265.34,10.36l0.06,0a0.66,0.66,0,0,1-.23,0,0.17,0.17,0,0,0-.12.1l0.31-.05h0Z"/><path class="cls-1" d="M265.68,10.28c0,0.08-.18.14-0.07,0.19a0.44,0.44,0,0,0,.22-0.13c-0.29.08,0.08-.06-0.14-0.05l0.15-.05h-0.15s0,0,0,0h0v0c-0.09,0,0,0,0,0h0l-0.29.1Z"/><path class="cls-1" d="M267.22,10.32h0S267.18,10.33,267.22,10.32Z"/><path class="cls-1" d="M267.09,10.3a0.15,0.15,0,0,1,.1-0.05c0.06,0,0,0,0,.05s0.14-.08,0-0.09h0a0.5,0.5,0,0,1-.27-0.07A0.48,0.48,0,0,0,267.09,10.3Z"/><path class="cls-1" d="M266.38,10.31l-0.24.08,0.14,0v0C266.41,10.38,266.37,10.34,266.38,10.31Z"/><polygon class="cls-1" points="265 10.37 265.02 10.29 264.9 10.42 265 10.37"/><polygon class="cls-1" points="264.69 10.45 264.69 10.38 264.61 10.44 264.69 10.45"/><path class="cls-1" d="M246.91,14.87l-0.07,0Z"/><path class="cls-1" d="M247.43,14.77v0S247.41,14.78,247.43,14.77Z"/><path class="cls-1" d="M256.88,12c-0.12,0-.25-0.1-0.22,0l0,0.06A0.38,0.38,0,0,1,256.88,12Z"/><path class="cls-1" d="M251.62,13.54h0l0.06-.08Z"/><path class="cls-1" d="M251.6,13.84l-0.15,0Z"/><path class="cls-1" d="M244.09,15.53l-0.07.09C244.15,15.59,244.08,15.56,244.09,15.53Z"/><path class="cls-1" d="M261.44,11.13a1,1,0,0,0-.23,0C261.32,11.15,261.42,11.2,261.44,11.13Z"/><path class="cls-1" d="M247,14.11s-0.06,0-.05.05S247,14.12,247,14.11Z"/><path class="cls-1" d="M260.94,11.19H261a0.92,0.92,0,0,1,.21-0.06A0.32,0.32,0,0,0,260.94,11.19Z"/><path class="cls-1" d="M233.77,17.57h0Z"/><path class="cls-1" d="M230.63,17.49l0.12,0Z"/><path class="cls-1" d="M263.4,10.68c0.07,0,0,0,0,0h0Z"/><path class="cls-1" d="M263.78,10.88a0,0,0,0,0,0,0A0.06,0.06,0,0,1,263.78,10.88Z"/><path class="cls-1" d="M260.36,11.75h0S260.37,11.76,260.36,11.75Z"/><path class="cls-1" d="M263.51,10.69h0Z"/><path class="cls-1" d="M263.49,10.66h0.06S263.55,10.63,263.49,10.66Z"/><path class="cls-1" d="M263.31,10.7l0.11,0h0Z"/><path class="cls-1" d="M239.25,16.26h0C239.18,16.3,239.2,16.29,239.25,16.26Z"/><polygon class="cls-1" points="255.27 13.11 255.28 13.11 255.27 13.11 255.27 13.11"/><path class="cls-1" d="M255,13.21a0.23,0.23,0,0,1,.23-0.11l-0.12-.18Z"/><path class="cls-1" d="M245.67,15.15l0.18,0c-0.18.14-.34,0.14-0.16,0.19,0-.22.66-0.16,0.64-0.38l0.12,0-0.07,0a1.36,1.36,0,0,0,.42-0.21c0.1,0,.18,0,0.11.05l0.21-.1c0.06,0,.06,0,0,0l0.33-.08h0a1.5,1.5,0,0,1,.19-0.15c0.09,0,0,0,0,.05l0.17-.09c0.09,0-.06.13-0.18,0.14,0.22,0.18.14-.08,0.54,0l-0.17.06a1.06,1.06,0,0,0,.48.06c-0.05,0-.43-0.11-0.24-0.21a0.35,0.35,0,0,0,.23-0.07c0,0.08.12,0,.25,0v0.1a0.48,0.48,0,0,0,.19-0.17,0.24,0.24,0,0,1,.26.11c0.26,0-.2-0.09.1-0.17a1.38,1.38,0,0,0,.6-0.19c0.16,0,0,.07,0,0.09l0.11-.11s0,0,0,0a0.43,0.43,0,0,1,.16-0.17,4.16,4.16,0,0,0,.58-0.08c0.06,0,0,.07,0,0.1a2.11,2.11,0,0,0,.46-0.27l0.22,0c-0.17,0,0-.17.16-0.28l-0.15-.06,0.26-.11s0,0.05,0,.1l0,0c0.1,0,.07.09,0,0.16l-0.11,0a0.25,0.25,0,0,0-.08.21l0.08,0s0,0,0,0a0.13,0.13,0,0,0,.07-0.05l0.08,0.1v0h0.37a2.6,2.6,0,0,1,.81-0.51c-0.08.1,0,.14,0,0.24a1.17,1.17,0,0,0-.52.13c0.11,0,.1,0,0.07.06l0.35-.17c0,0.08.09,0,.2,0.06-0.11-.14.26-0.16,0.4-0.24s0,0.11-.19.14a4.11,4.11,0,0,0,.45-0.18,0.09,0.09,0,0,0-.08,0c0.1-.07.36-0.08,0.31,0h0a1.68,1.68,0,0,0,.93-0.33,0.76,0.76,0,0,1,0,.2l0.44-.56c0,0.12.21,0.36,0,.48a0.57,0.57,0,0,0,.31-0.07c-0.05,0-.16-0.14-0.09-0.17a1.47,1.47,0,0,0,.39.11c-0.08,0,0-.21.08-0.22a0.55,0.55,0,0,1,0,.2l0.25-.24c-0.07,0,0,.15.09,0.19a1.54,1.54,0,0,1,.32-0.08l-0.13,0c0.33,0,.27-0.31.59-0.37,0,0,0,.25.12,0.23a1.45,1.45,0,0,1,.51-0.63l0.07,0L258,12a4.4,4.4,0,0,1-.62.68,0.29,0.29,0,0,0,.23,0c0.07,0-.08.09-0.14,0.11l0.43-.05a2.74,2.74,0,0,1,.27-0.26l-0.44.2a0.55,0.55,0,0,1,.51-0.4c0.08,0,0,.2,0,0.23a0.57,0.57,0,0,1,.3-0.11l-0.12.08a1.2,1.2,0,0,1,.46-0.14,0.37,0.37,0,0,0,.23,0,0.68,0.68,0,0,1-.18-0.57,2.73,2.73,0,0,1,.48.09,1.74,1.74,0,0,1,0,.32,0.18,0.18,0,0,1,.08-0.1c0.08,0,0,.1.14,0.05,0-.11.32-0.06,0.06-0.11A1.65,1.65,0,0,1,260,12c-0.07-.06.11-0.27,0.26-0.33a0.1,0.1,0,0,0,.06.07c0.32-.05.5,0,0.79-0.1,0,0,.18,0,0.13.08a0.36,0.36,0,0,1,.16-0.09c0.19,0.06-.2.06,0,0.14a0.81,0.81,0,0,1,.34-0.2,0.49,0.49,0,0,0-.42.11,0.61,0.61,0,0,1,.47-0.44c0.24-.08.12,0.06,0.16,0a3.59,3.59,0,0,1,.75-0.29c0.17,0.05,0,.17.09,0.22a1.86,1.86,0,0,1-.45,0h0.17a0.48,0.48,0,0,1-.26.08c0.14,0.05.78-.14,1.15-0.15,0.06,0,.16-0.09.1-0.12l-0.11,0c-0.12,0,.19-0.14,0-0.14a1,1,0,0,1,.51-0.19L264,10.87a0.22,0.22,0,0,0-.2,0,0.74,0.74,0,0,0,.42-0.08l-0.16,0a1.18,1.18,0,0,1,.5-0.23,1.41,1.41,0,0,0-.2-0.06c0.14,0.12-.48.09-0.27,0.2a2.06,2.06,0,0,0-.45-0.08s0.08,0-.09.06l0,0h0l0.09,0a1.75,1.75,0,0,1-.39.19c-0.1,0,0,0,0-.07l-0.12.08c0-.07-0.27-0.07-0.06-0.15l-0.2,0a0.72,0.72,0,0,0-.38.05c-0.1,0-.22.13-0.15,0.05L262,11v0a2.79,2.79,0,0,1-1,.19,1.19,1.19,0,0,1-.38.1l0-.05a1.63,1.63,0,0,0-.46.1,1.87,1.87,0,0,0-.89.11v0.08a2.78,2.78,0,0,0-.5.16l0,0.07a3.86,3.86,0,0,1-.72.1,0.15,0.15,0,0,1,.14,0,7.53,7.53,0,0,0-1,.2,0.25,0.25,0,0,1-.18,0h0l-0.11,0,0.09,0-0.22.07-0.05-.07h0c-0.09,0-.06,0,0,0.1l-0.1.07c-0.09-.11-0.21.09-0.33,0a1.24,1.24,0,0,0-.43.28s0,0,0,0a0.48,0.48,0,0,0-.27.06l-0.06-.09-0.18.17c-0.14,0-.2-0.06-0.09-0.16-0.28.18-.23,0.09-0.46,0.26V12.64a0.59,0.59,0,0,1-.28.09c-0.23-.08-1,0.19-1.55.18,0.14,0.16-.26,0-0.25.11,0,0-.12,0,0-0.1a1.38,1.38,0,0,0-.57.17,0.34,0.34,0,0,1,0-.1,0.13,0.13,0,0,1-.11,0s0,0,.07-0.07a0.27,0.27,0,0,0-.26.33,0.25,0.25,0,0,0-.3.09c-0.06,0-.15-0.06,0-0.11a1.07,1.07,0,0,0-.58.16,0.23,0.23,0,0,0-.16,0,4.25,4.25,0,0,0-.44.08h0.06c-0.06.14-.17,0.06-0.33,0.11h0c-0.4,0-.16.08-0.56,0.05l0,0.07a1.14,1.14,0,0,1-.57.08l0.09,0a1.38,1.38,0,0,1-.51-0.15s0,0,.07,0c-0.34,0,0,.11-0.25.18-0.05,0,0-.15-0.13-0.13a2.14,2.14,0,0,1-.67.21c0.06,0,.11.06,0,0.12a1.12,1.12,0,0,0-.61.1l0,0a1.85,1.85,0,0,0-.47.23c-0.17-.24-0.78.29-0.82,0l-0.39.09v0a0.6,0.6,0,0,0-.41.19c-0.06,0,0,0,0,0a1,1,0,0,0-.7.23l0-.07a4.7,4.7,0,0,0-.91.15,0.06,0.06,0,0,1,0,0c-0.39.18-1,0-1.11,0.3l-0.26.13c0.35,0,0,.13.13,0.15-0.13,0-.37,0-0.21-0.06h0a1.12,1.12,0,0,0-.46-0.07c-0.69.15-1.37,0.2-2,.33l0.1,0.1-0.23,0c-0.06,0-.1-0.07.06-0.1a0.27,0.27,0,0,0-.26.14c-0.32,0,.1-0.16,0-0.14l-0.13,0h0a0.47,0.47,0,0,1-.29.15,0.2,0.2,0,0,1-.13-0.05s0,0-.07,0l-0.28,0L238.22,16c-0.12.07-.27,0-0.12,0.13a4.59,4.59,0,0,0-1.19.13,1.41,1.41,0,0,1-.55.17c0.06,0,.11.1-0.08,0.13,0-.23-0.36,0-0.54-0.14,0.15,0.07-.52.13-0.28,0.23-0.16,0,0-.08-0.15-0.1a10.35,10.35,0,0,1-1.27.23s0.08,0.06,0,.12l-0.27-.09c-0.09,0,0,.18-0.23.11,0,0,.07,0,0,0.07a21.45,21.45,0,0,1-2.75.41c0.13,0,.05.05,0,0.07,0.06,0,0,.07,0,0.1l-0.4,0c0,0.12-.4.09-0.42,0.2l0.12,0c-0.14.15,0.28,0.22,0.28,0.37a3.34,3.34,0,0,0,.76-0.15c0.07,0,0,.06,0,0.09a0.37,0.37,0,0,1,.32-0.12l0,0a9,9,0,0,1,1.21-.15l-0.05-.07a0.52,0.52,0,0,1,.2,0c0.11-.14-0.32.06-0.23-0.09,0.18,0.12.8-.16,0.93,0,0.17,0-.07-0.08.11-0.11l0.06,0,0-.07a0.18,0.18,0,0,1,.2.07l-0.1,0a1.94,1.94,0,0,0,.47-0.1h-0.17a14.88,14.88,0,0,0,1.49-.38l0,0a4.32,4.32,0,0,1,.66-0.13h0a0.66,0.66,0,0,1,.27-0.11c-0.09.06,0.2,0,.08,0.11a0.73,0.73,0,0,0,.4-0.28l0.07,0a0.43,0.43,0,0,1,.26-0.15c-0.15.08,0.14,0.06,0,.17a2.68,2.68,0,0,1,.79-0.1c0.15-.2-0.37,0-0.27-0.07-0.1,0,.13-0.15.26-0.16a1.45,1.45,0,0,0,.58.09l-0.06,0a2,2,0,0,1,.39-0.07c0.06-.11.19,0,0.19-0.16l-0.29.09a1.06,1.06,0,0,1,.58-0.23,0.5,0.5,0,0,1-.14.11c0.09,0,.15-0.06.24,0a1.59,1.59,0,0,1-.51.23c0.1,0,.32-0.16.26,0a1.76,1.76,0,0,1,.51-0.22v0.08a0.51,0.51,0,0,1,.16-0.08l-0.1.12a2.35,2.35,0,0,1,.52-0.08c-0.35.07-.1-0.07-0.26-0.1,0.42-.19.29,0.14,0.78,0-0.06,0-.26,0-0.16-0.05a0.84,0.84,0,0,1,.29,0c0.32-.08-0.07-0.07.06-0.14s0.15-.07.29-0.13l0,0.08c0.38,0,.07-0.18.41-0.19l-0.12.13,0.17-.06,0,0.09a0.74,0.74,0,0,1,.43-0.11c-0.05,0,0-.14.16-0.18s0,0.09.18,0a0.15,0.15,0,0,1-.2.08s0,0.06,0,.09a1,1,0,0,0,.39-0.07h-0.09l0.32-.17c0.06,0,0,0,0,.08a1.83,1.83,0,0,1,.21-0.09,0.18,0.18,0,0,1-.13.19l0.31-.13s0.18,0,.14.07c0.19,0,.41-0.21.66-0.21a0.17,0.17,0,0,1,.08-0.05,1.61,1.61,0,0,0,.68-0.13L245,15.41c0.2-.07-0.23-0.1.1-0.21s0.11,0.08.2,0.09a0.69,0.69,0,0,1,.54-0.19A1.11,1.11,0,0,1,245.67,15.15Zm2.53-.57a0.21,0.21,0,0,1-.18.06C248.06,14.54,248.11,14.57,248.2,14.58Zm3.82-1a0.17,0.17,0,0,1-.16,0A0.35,0.35,0,0,1,252,13.61Zm10.65-2.72h0C262.55,10.89,262.6,10.89,262.67,10.89Zm0.23,0s0,0,0,0a0.18,0.18,0,0,1-.12,0A0.1,0.1,0,0,0,262.91,10.87Zm-24.48,5h0C238.38,15.95,238.41,15.92,238.43,15.89Z"/><path class="cls-1" d="M251.61,13.8a0.07,0.07,0,0,1,0,0S251.56,13.8,251.61,13.8Z"/><path class="cls-1" d="M244.1,15.51h0v0Z"/><path class="cls-1" d="M259.51,12.24l-0.1,0S259.44,12.25,259.51,12.24Z"/><path class="cls-1" d="M264.09,10.5l-0.14,0a0.27,0.27,0,0,1,.14,0S264,10.51,264.09,10.5Z"/><path class="cls-1" d="M265.46,10.71l0.06,0v0C265.42,10.67,265.36,10.72,265.46,10.71Z"/><path class="cls-1" d="M264.28,10.72c0,0.06.11,0,.21,0h0C264.48,10.62,264.38,10.67,264.28,10.72Z"/><path class="cls-1" d="M264.51,10.71l0.09,0S264.57,10.69,264.51,10.71Z"/><path class="cls-1" d="M263.19,10.77a0.28,0.28,0,0,0,0-.07C263.27,10.61,262.93,10.87,263.19,10.77Z"/><polygon class="cls-1" points="264.4 10.92 264.35 10.85 264.31 10.92 264.4 10.92"/><path class="cls-1" d="M263.58,11h0.17s0,0,0,0A0.45,0.45,0,0,0,263.58,11Z"/><path class="cls-1" d="M263.79,11a0.36,0.36,0,0,0,.13,0Z"/><polygon class="cls-1" points="264.19 10.99 264.13 10.98 264.02 11 264.19 10.99"/><path class="cls-1" d="M261.82,11.37l-0.17.06s0,0,.1,0S261.86,11.39,261.82,11.37Z"/><path class="cls-1" d="M262.41,11.47a0.17,0.17,0,0,1-.09,0v0.1Z"/><path class="cls-1" d="M261.89,11.6s-0.24.13,0,.08C261.89,11.65,262.06,11.59,261.89,11.6Z"/><polygon class="cls-1" points="259.18 12.03 259.22 12.02 259.18 11.86 259.18 12.03"/><path class="cls-1" d="M256.89,12.89c0.22,0,0-.11.23-0.1,0,0-.16,0-0.12-0.05C256.88,12.81,256.81,12.8,256.89,12.89Z"/><path class="cls-1" d="M257,12.74l0.06,0Z"/><polygon class="cls-1" points="230.11 17.5 229.97 17.5 230.07 17.53 230.11 17.5"/><path class="cls-1" d="M229.88,17.68l-0.05-.1-0.06.11A0.16,0.16,0,0,1,229.88,17.68Z"/><path class="cls-1" d="M248.62,14.71v0a0.15,0.15,0,0,0-.12,0Z"/><polygon class="cls-1" points="246.76 15.01 246.79 15.01 246.72 14.92 246.76 15.01"/><path class="cls-1" d="M245.24,15.44l0.2-.05C245.3,15.43,245.2,15.33,245.24,15.44Z"/><path d="M229.82,20.36s1.52-.43,3.82-1c1.15-.27,2.49-0.61,3.93-0.92l4.52-1,4.54-.88c1.45-.28,2.81-0.49,4-0.7,2.33-.39,3.9-0.58,3.9-0.58s-1.52.43-3.82,1c-1.15.27-2.49,0.61-3.93,0.92l-4.52,1-4.54.88c-1.45.28-2.81,0.49-4,.7C231.38,20.16,229.82,20.36,229.82,20.36Z"/><path d="M229.82,27.61s1.74-.47,4.38-1.08c1.32-.29,2.85-0.67,4.51-1l5.18-1.07,5.2-1c1.66-.31,3.22-0.55,4.55-0.78,2.67-.43,4.46-0.66,4.46-0.66s-1.74.47-4.38,1.08c-1.32.29-2.85,0.67-4.51,1L244,25.19l-5.2,1c-1.66.31-3.22,0.55-4.55,0.78C231.61,27.38,229.82,27.61,229.82,27.61Z"/><path d="M238.12,28.83s1.22-.37,3.08-0.83c0.93-.22,2-0.5,3.18-0.76s2.41-.52,3.66-0.78,2.5-.49,3.68-0.69,2.28-.37,3.22-0.53c1.89-.29,3.16-0.42,3.16-0.42s-1.22.37-3.08,0.83c-0.93.22-2,.5-3.18,0.76s-2.41.52-3.66,0.78-2.5.49-3.68,0.69-2.28.37-3.22,0.53C239.39,28.7,238.12,28.83,238.12,28.83Z"/><path d="M231.32,32.53s1.43-.35,3.59-0.79c1.08-.21,2.34-0.47,3.7-0.71s2.8-.48,4.25-0.72,2.9-.45,4.26-0.63,2.64-.33,3.73-0.47c2.19-.26,3.66-0.37,3.66-0.37s-1.43.35-3.59,0.79c-1.08.21-2.34,0.47-3.7,0.71s-2.8.48-4.25,0.72-2.9.45-4.26,0.63-2.64.33-3.73,0.47C232.78,32.41,231.32,32.53,231.32,32.53Z"/><path d="M268.48,120.13s3.18,0,6.35.09c0.79,0,1.59,0,2.33,0s1.43,0.11,2,.2,1.08,0.17,1.43.25l0.54,0.12v0.07l-0.55.06c-0.35,0-.85.06-1.44,0.09s-1.29,0-2,0-1.53-.14-2.32-0.22c-3.16-.27-6.32-0.61-6.32-0.61v-0.07Z"/><path d="M263.74,123.77s5.39,0.32,10.77.71l4,0.27c1.26,0.11,2.43.27,3.43,0.4,2,0.28,3.33.56,3.33,0.56v0.07s-1.36,0-3.38,0c-1-.05-2.19-0.1-3.45-0.22l-3.94-.45c-5.36-.58-10.72-1.23-10.72-1.23v-0.07Z"/><path d="M260.48,127.86l15.5-.26,5.69-.09c1.82,0,3.51.05,5,.09,2.91,0.1,4.84.26,4.84,0.26v0.08s-1.94.16-4.84,0.26c-1.45,0-3.15.09-5,.09l-5.69-.09-15.5-.26v-0.08Z"/><path d="M260.48,130.76l13.85-.26,5.08-.09c1.62,0,3.14.05,4.44,0.09,2.6,0.1,4.33.26,4.33,0.26v0.07s-1.73.16-4.33,0.26c-1.3,0-2.81.09-4.44,0.09l-5.08-.09-13.85-.26v-0.07Z"/><path d="M263.73,133.59s5.45-.17,10.89-0.26l4-.09c1.28,0,2.47.05,3.49,0.09,2,0.1,3.4.26,3.4,0.26v0.07s-1.36.16-3.4,0.26c-1,0-2.21.09-3.49,0.09l-4-.09c-5.45-.1-10.89-0.26-10.89-0.26v-0.07Z"/><path d="M263.74,135.75l13.08,1.64,4.8,0.61c1.53,0.22,2.95.48,4.16,0.7,2.43,0.46,4,.85,4,0.85v0.07s-1.65-.08-4.11-0.33c-1.23-.14-2.66-0.29-4.19-0.52l-4.78-.79-13-2.15v-0.07Z"/><path d="M263.74,139.54s4.76,0.54,9.5,1.16l3.49,0.43c1.11,0.17,2.14.37,3,.55,1.76,0.37,2.92.7,2.92,0.7v0.07s-1.21,0-3-.18c-0.89-.09-1.94-0.2-3-0.36l-3.46-.61c-4.72-.8-9.43-1.67-9.43-1.67v-0.07Z"/><path d="M184.67,118.11q0.09,2.86,0,5.71v0.11l-0.08.1c-2.55,3-5.35,5.81-8,8.71l-8.14,8.61-0.06-.05,7.81-8.9c2.64-2.94,5.15-6,7.92-8.8l-0.09.21q0.2-2.85.56-5.69h0.07Z"/><path d="M186.69,119.29c0.16,1.07.3,2.14,0.42,3.22s0.22,2.15.33,3.22v0.14l-0.1.12c-1.24,1.48-2.55,2.91-3.87,4.32l-3.94,4.25-7.9,8.49-0.06-.05,7.58-8.78,3.8-4.38c1.26-1.47,2.54-2.92,3.87-4.32l-0.09.26c0-1.08-.1-2.16-0.11-3.24s0-2.16,0-3.24h0.07Z"/><path d="M191.2,121.55c0.16,1.22.28,2.45,0.39,3.67s0.19,2.45.28,3.67V129l-0.09.12c-1.12,1.45-2.29,2.86-3.47,4.26l-3.51,4.23-7,8.45-0.06,0,6.71-8.71,3.36-4.35c1.11-1.45,2.24-2.9,3.4-4.32l-0.08.25c0-1.23-.05-2.46-0.06-3.69s0-2.46.05-3.69h0.07Z"/><path d="M194.58,124.78c0.22,1.09.39,2.19,0.52,3.29s0.25,2.2.3,3.31v0.16l-0.09.11c-2.67,3.09-5.3,6.22-8,9.29l-0.06,0c2.46-3.26,5-6.48,7.45-9.73l-0.08.27c-0.11-1.1-.15-2.21-0.18-3.32s0-2.22,0-3.33h0.07Z"/><path d="M189.79,120.87a22.73,22.73,0,0,1-.24,3.06c-0.14,1-.38,2-0.61,3l0,0.08,0,0c-1.4,1.8-2.8,3.6-4.22,5.38l-0.06,0c1.24-1.91,2.5-3.81,3.77-5.7l-0.05.13c0.14-1,.28-2,0.51-3a22.73,22.73,0,0,1,.88-2.94h0.07Z"/><path d="M203.63,132.89c-0.9.27-1.8,0.49-2.71,0.66s-1.82.35-2.74,0.45l0.24-.14c-2.22,2.55-4.41,5.13-6.65,7.67l-0.06,0c2-2.72,4.09-5.39,6.13-8.09l0.08-.11,0.16,0c0.91-.16,1.83-0.25,2.75-0.33s1.85-.12,2.78-0.12v0.07Z"/><path d="M206.07,134.45c-0.78.34-1.58,0.63-2.38,0.92s-1.6.55-2.42,0.78l0.2-.14c-0.65.9-1.36,1.75-2.06,2.62l-2.08,2.6-4.18,5.18-0.06,0,3.86-5.43,1.94-2.7c0.65-.9,1.27-1.82,2-2.69l0.08-.11,0.12,0c0.82-.22,1.65-0.39,2.47-0.59s1.66-.34,2.51-0.45Z"/><path d="M208.59,135.82a28.06,28.06,0,0,1-3.12,3.16l0.05-.05c-1,1.22-2.11,2.41-3.15,3.63l-3.17,3.61-0.06,0,2.87-3.85c1-1.27,1.92-2.56,2.89-3.83l0,0,0,0a28,28,0,0,1,3.58-2.62Z"/><path d="M261.64,78.91l19.94-5.77L288.9,71c2.34-.65,4.55-1.2,6.43-1.68,3.78-.94,6.32-1.47,6.32-1.47l0,0.07s-2.46.85-6.18,2c-1.86.56-4,1.21-6.38,1.86l-7.37,1.94L261.66,79Z"/><path d="M266.67,81.95s2.34-.75,5.87-1.79c1.77-.51,3.83-1.13,6-1.74l7-1.92,7-1.82c2.23-.58,4.32-1.07,6.11-1.52,3.58-.87,6-1.39,6-1.39s-2.34.75-5.87,1.79c-1.77.51-3.83,1.13-6,1.74l-7,1.91-7,1.82c-2.23.58-4.32,1.07-6.11,1.52C269.07,81.43,266.67,81.95,266.67,81.95Z"/><path d="M268.16,89.8s2.29-.82,5.75-2c1.74-.56,3.75-1.25,5.93-1.93l6.82-2.13,6.85-2c2.18-.65,4.24-1.2,6-1.71,3.51-1,5.88-1.57,5.88-1.57s-2.29.82-5.75,2c-1.74.56-3.75,1.25-5.93,1.93l-6.82,2.13-6.85,2c-2.18.65-4.24,1.2-6,1.71C270.52,89.2,268.16,89.8,268.16,89.8Z"/><path d="M269.9,85l14.28-4.11,5.25-1.5c1.68-.45,3.26-0.82,4.62-1.15,2.72-.63,4.55-1,4.55-1l0,0.07s-1.75.64-4.42,1.46c-1.33.4-2.89,0.87-4.57,1.33l-5.29,1.33-14.42,3.6Z"/><path d="M273.21,93.1s5.75-1.73,11.53-3.39L289,88.47c1.36-.37,2.64-0.66,3.74-0.92,2.2-.49,3.69-0.73,3.69-0.73l0,0.07s-1.41.55-3.56,1.23c-1.08.33-2.33,0.73-3.69,1.09l-4.28,1.06c-5.82,1.47-11.66,2.88-11.66,2.88Z"/><path d="M431.47,111.56l20.39-5.9,7.49-2.16c2.4-.66,4.65-1.23,6.58-1.72,3.86-1,6.46-1.51,6.46-1.51l0,0.07s-2.51.86-6.32,2c-1.91.57-4.13,1.24-6.53,1.9l-7.54,2-20.53,5.39Z"/><path d="M437.4,114.34s2.3-.74,5.77-1.76c1.74-.5,3.76-1.11,5.94-1.71l6.83-1.88,6.85-1.79c2.19-.57,4.24-1.05,6-1.49,3.52-.85,5.88-1.36,5.88-1.36s-2.3.74-5.77,1.76c-1.74.5-3.76,1.11-5.94,1.71l-6.83,1.88-6.85,1.78c-2.19.57-4.24,1.05-6,1.49C439.76,113.83,437.4,114.34,437.4,114.34Z"/><path d="M438.9,122.19s2.29-.82,5.75-2c1.74-.56,3.75-1.25,5.93-1.93l6.82-2.13,6.85-2c2.18-.65,4.24-1.2,6-1.71,3.51-1,5.88-1.57,5.88-1.57s-2.29.82-5.75,2c-1.74.56-3.75,1.25-5.93,1.93l-6.82,2.13-6.85,2c-2.18.65-4.24,1.2-6,1.71C441.26,121.6,438.9,122.19,438.9,122.19Z"/><path d="M440.64,117.39l14.28-4.11,5.25-1.5c1.68-.45,3.26-0.82,4.62-1.15,2.72-.63,4.55-1,4.55-1l0,0.07s-1.75.64-4.42,1.46c-1.34.4-2.89,0.87-4.57,1.33l-5.29,1.33-14.42,3.6Z"/><path d="M444,125.49s5.75-1.73,11.53-3.39l4.23-1.24c1.36-.37,2.64-0.66,3.74-0.92,2.2-.49,3.69-0.73,3.69-0.73l0,0.07s-1.41.55-3.56,1.23c-1.08.33-2.33,0.73-3.69,1.09l-4.28,1.06c-5.82,1.47-11.66,2.88-11.66,2.88Z"/><path d="M340.29,29.35s5.39,0.32,10.77.71l4,0.27c1.26,0.11,2.43.27,3.43,0.4,2,0.28,3.33.56,3.33,0.56v0.07s-1.36,0-3.38,0c-1-.05-2.19-0.1-3.45-0.22L351,30.65c-5.36-.58-10.72-1.23-10.72-1.23V29.35Z"/><path d="M337,33.43l15.5-.26,5.69-.09c1.82,0,3.51.05,5,.09,2.91,0.1,4.84.26,4.84,0.26v0.08s-1.94.16-4.84,0.26c-1.45,0-3.15.09-5,.09l-5.69-.09L337,33.51V33.43Z"/><path d="M337,36.34l13.85-.26L356,36c1.62,0,3.14.05,4.44,0.09,2.6,0.1,4.33.26,4.33,0.26v0.07s-1.73.16-4.33,0.26c-1.3,0-2.81.09-4.44,0.09l-5.08-.09L337,36.41V36.34Z"/><path d="M340.29,39.17s5.45-.17,10.89-0.26l4-.09c1.28,0,2.47.05,3.49,0.09,2,0.1,3.4.26,3.4,0.26v0.08s-1.36.16-3.4,0.26c-1,0-2.21.09-3.49,0.09l-4-.09c-5.45-.1-10.89-0.26-10.89-0.26V39.17Z"/><path d="M340.29,41.33L353.37,43l4.8,0.61c1.53,0.22,2.95.48,4.16,0.7,2.43,0.46,4,.85,4,0.85v0.07s-1.65-.08-4.11-0.33c-1.23-.14-2.66-0.29-4.19-0.52l-4.78-.79-13-2.15V41.33Z"/><path d="M340.29,45.12s4.76,0.54,9.5,1.16l3.49,0.43c1.11,0.17,2.14.37,3,.55,1.76,0.37,2.92.7,2.92,0.7V48s-1.21,0-3-.18c-0.89-.09-1.94-0.2-3-0.36l-3.46-.61c-4.72-.8-9.43-1.67-9.43-1.67V45.12Z"/><path d="M249.29,32.12s4.76,0.54,9.5,1.16l3.49,0.43c1.11,0.17,2.14.37,3,.55,1.76,0.37,2.92.7,2.92,0.7V35s-1.21,0-3-.18c-0.89-.09-1.94-0.2-3-0.36l-3.46-.61c-4.72-.8-9.43-1.67-9.43-1.67V32.12Z"/><path d="M343.08,49s4.76,0.54,9.5,1.16l3.49,0.43c1.11,0.17,2.14.37,3,.55,1.76,0.37,2.92.7,2.92,0.7v0.07s-1.21,0-3-.18c-0.89-.09-1.94-0.2-3-0.36l-3.46-.61c-4.72-.8-9.43-1.67-9.43-1.67V49Z"/><path d="M417.32,22s1.32-.42,3.33-1c1-.26,2.17-0.58,3.43-0.89s2.61-.62,4-0.93,2.7-.59,4-0.84,2.46-.46,3.48-0.65c2-.36,3.42-0.54,3.42-0.54s-1.32.42-3.33,1c-1,.26-2.17.58-3.43,0.89s-2.61.62-4,.92-2.7.59-4,.84-2.46.46-3.48,0.65C418.69,21.84,417.32,22,417.32,22Z"/><path d="M422.25,24.91s1.12-.43,2.82-1c0.85-.27,1.84-0.6,2.91-0.92s2.22-.64,3.37-1,2.3-.62,3.39-0.88,2.11-.49,3-0.69c1.75-.38,2.93-0.58,2.93-0.58s-1.12.43-2.82,1c-0.85.27-1.84,0.6-2.91,0.92s-2.22.64-3.37,1-2.3.62-3.39,0.88-2.11.49-3,.69C423.43,24.71,422.25,24.91,422.25,24.91Z"/><path d="M426,27.61s1.25-.46,3.15-1.08c1-.29,2.06-0.66,3.25-1s2.47-.71,3.76-1.07,2.57-.69,3.78-1,2.35-.55,3.32-0.78c1.95-.44,3.26-0.67,3.26-0.67s-1.25.47-3.15,1.08c-1,.29-2.06.66-3.25,1s-2.47.71-3.76,1.07-2.57.68-3.78,1-2.35.55-3.32,0.78C427.36,27.38,426,27.61,426,27.61Z"/><path d="M431.45,30.35s1-.46,2.65-1.06c0.8-.29,1.73-0.65,2.74-1s2.09-.71,3.17-1.06,2.17-.68,3.2-1,2-.54,2.82-0.77c1.66-.43,2.78-0.66,2.78-0.66s-1,.46-2.65,1.07c-0.8.29-1.73,0.65-2.74,1s-2.09.71-3.17,1.06-2.17.68-3.2,1-2,.54-2.82.77C432.57,30.12,431.45,30.35,431.45,30.35Z"/><path d="M452.41,31.29L467.24,31l5.44-.09c1.74,0,3.36.05,4.75,0.09,2.78,0.1,4.63.26,4.63,0.26v0.08s-1.85.16-4.63,0.26c-1.39,0-3,.09-4.75.09l-5.44-.09-14.83-.26V31.29Z"/><path d="M450.77,33.73s2.46-.14,6.14-0.25c1.84,0,4-.13,6.29-0.16l7.21-.1h7.22c2.3,0,4.45.05,6.29,0.07,3.68,0.07,6.14.17,6.14,0.17s-2.46.14-6.14,0.25c-1.84,0-4,.13-6.29.16l-7.21.1H463.2c-2.3,0-4.45-.05-6.29-0.07C453.22,33.83,450.77,33.73,450.77,33.73Z"/><path d="M449,36.33l25.18-.26,9.25-.09c3,0,5.7.05,8.06,0.09,4.72,0.1,7.87.26,7.87,0.26v0.08s-3.15.16-7.87,0.26c-2.36,0-5.11.09-8.06,0.09l-9.25-.09L449,36.41V36.33Z"/><path d="M447,39.2s3.49-.12,8.72-0.21l8.94-.11,10.24,0,10.24,0L494.1,39c5.23,0.09,8.72.21,8.72,0.21s-3.49.12-8.72,0.21l-8.94.11-10.24,0-10.24,0-8.94-.11C450.51,39.32,447,39.2,447,39.2Z"/><path d="M340.29,45.12s4.76,0.54,9.5,1.16l3.49,0.43c1.11,0.17,2.14.37,3,.55,1.76,0.37,2.92.7,2.92,0.7V48s-1.21,0-3-.18c-0.89-.09-1.94-0.2-3-0.36l-3.46-.61c-4.72-.8-9.43-1.67-9.43-1.67V45.12Z"/><path d="M369.75,118.75s-0.66,1.65-1.73,4.09c-0.55,1.21-1.16,2.64-1.86,4.14l-2.21,4.72-2.3,4.67c-0.73,1.49-1.47,2.86-2.07,4-1.23,2.36-2.11,3.9-2.11,3.9s0.66-1.65,1.73-4.09c0.55-1.21,1.16-2.64,1.86-4.14l2.21-4.71,2.3-4.67c0.73-1.49,1.47-2.86,2.07-4C368.87,120.29,369.75,118.75,369.75,118.75Z"/><path d="M372,118.81s-0.64,1.93-1.68,4.79c-0.53,1.43-1.12,3.1-1.81,4.88L366.38,134l-2.24,5.52c-0.71,1.76-1.43,3.39-2,4.79C360.9,147.16,360,149,360,149s0.64-1.93,1.67-4.79c0.53-1.43,1.12-3.1,1.81-4.88l2.15-5.56,2.24-5.52c0.71-1.76,1.43-3.39,2-4.79C371.16,120.65,372,118.81,372,118.81Z"/><path d="M375.05,118.61s-0.39,1.43-1.06,3.55c-0.35,1.05-.73,2.29-1.17,3.6s-0.94,2.7-1.43,4.1-1,2.77-1.52,4.07-1,2.49-1.4,3.52c-0.84,2.05-1.45,3.4-1.45,3.4s0.39-1.43,1.06-3.55c0.35-1.05.72-2.29,1.17-3.6s0.94-2.7,1.43-4.1,1-2.77,1.52-4.07,1-2.49,1.4-3.52C374.44,120,375.05,118.61,375.05,118.61Z"/><path d="M377.52,119s0,0.64-.18,1.57-0.39,2.17-.69,3.39-0.68,2.42-1,3.31-0.59,1.47-.59,1.47,0-.64.18-1.57,0.39-2.17.69-3.39,0.68-2.42,1-3.31S377.52,119,377.52,119Z"/><path d="M379.75,119.93s-0.18,1.14-.53,2.83c-0.19.84-.38,1.83-0.64,2.88s-0.53,2.16-.82,3.28-0.6,2.22-.91,3.25-0.62,2-.87,2.82c-0.53,1.64-.94,2.73-0.94,2.73s0.18-1.14.53-2.83c0.19-.84.38-1.83,0.64-2.88s0.53-2.16.82-3.28,0.6-2.22.91-3.25,0.62-2,.87-2.82C379.34,121,379.75,119.93,379.75,119.93Z"/><path d="M382.78,119.93s-0.08.75-.27,1.87-0.51,2.58-.89,4-0.82,2.88-1.2,3.95-0.68,1.76-.68,1.76,0.08-.75.27-1.87,0.51-2.58.89-4,0.82-2.88,1.2-3.95S382.78,119.93,382.78,119.93Z"/><path d="M385.66,119.18a8.1,8.1,0,0,1,0,.94,12.71,12.71,0,0,1-.9,3.92,8,8,0,0,1-.41.84,8,8,0,0,1,0-.94,12.71,12.71,0,0,1,.9-3.92A8.1,8.1,0,0,1,385.66,119.18Z"/><path d="M387.18,119.18s-0.06,1.12-.23,2.79c-0.1.83-.19,1.8-0.34,2.84s-0.31,2.14-.47,3.24-0.37,2.2-.56,3.23-0.41,2-.57,2.8c-0.35,1.64-.65,2.72-0.65,2.72s0.06-1.12.23-2.79c0.1-.83.19-1.8,0.34-2.84s0.31-2.14.48-3.24,0.37-2.2.56-3.23,0.41-2,.57-2.8C386.88,120.26,387.18,119.18,387.18,119.18Z"/><path d="M389.8,119.29s-0.09,1.05-.32,2.61c-0.13.78-.25,1.69-0.43,2.66s-0.37,2-.58,3-0.44,2.05-.67,3-0.47,1.85-.66,2.61c-0.41,1.52-.74,2.53-0.74,2.53s0.09-1.05.32-2.61c0.13-.78.25-1.69,0.43-2.66s0.37-2,.58-3,0.44-2.05.67-3,0.47-1.85.66-2.61C389.48,120.3,389.8,119.29,389.8,119.29Z"/><path d="M392.23,119.36s-0.08.77-.27,1.9-0.52,2.62-.9,4.1-0.83,2.94-1.21,4-0.69,1.79-.69,1.79,0.08-.77.27-1.9,0.52-2.62.91-4.1,0.83-2.94,1.21-4S392.23,119.36,392.23,119.36Z"/><path d="M359.08,125.73s3.61-.12,9-0.21l9.26-.11,10.61,0,10.61,0.05,9.26,0.12c5.42,0.09,9,.21,9,0.21s-3.61.12-9,.21l-9.26.11-10.61,0-10.61-.05-9.26-.12C362.7,125.85,359.08,125.73,359.08,125.73Z"/><path d="M360,128.82s2.48-.12,6.21-0.21c1.86,0,4-.1,6.36-0.11l7.29,0,7.29,0c2.33,0,4.5.08,6.36,0.11,3.72,0.09,6.21.21,6.21,0.21s-2.48.12-6.21,0.21c-1.86,0-4,.1-6.36.11l-7.29,0-7.29,0c-2.33,0-4.5-.08-6.36-0.11C362.53,128.94,360,128.82,360,128.82Z"/><path d="M353.07,131.53s2.61-.12,6.54-0.21c2,0,4.25-.1,6.7-0.11l7.68,0,7.68,0c2.45,0,4.74.08,6.7,0.11,3.92,0.09,6.54.21,6.54,0.21s-2.61.12-6.54,0.21c-2,0-4.25.1-6.7,0.11l-7.68,0-7.68,0c-2.45,0-4.74-.08-6.7-0.11C355.69,131.65,353.07,131.53,353.07,131.53Z"/><path d="M452.45,39.56s-0.06,2.39-.18,4.78c0,0.6,0,1.2-.07,1.75a14.75,14.75,0,0,1-.23,1.51c-0.1.44-.18,0.81-0.27,1.06s-0.13.4-.13,0.4h-0.07s0-.15-0.06-0.42,0-.64-0.07-1.09a14.74,14.74,0,0,1,.05-1.53c0.06-.56.16-1.15,0.25-1.74,0.32-2.37.7-4.73,0.7-4.73h0.07Z"/><path d="M457.54,39.21s-0.6,3.08-1.26,6.15c-0.16.77-.3,1.54-0.47,2.26s-0.38,1.37-.57,1.93-0.37,1-.51,1.34-0.22.5-.22,0.5l-0.07,0s0-.2,0-0.55,0.1-.83.18-1.42,0.23-1.26.4-2,0.42-1.46.65-2.21c0.85-3,1.77-6,1.77-6Z"/><path d="M463.17,39.21s-1,3.85-2,7.68c-0.25,1-.48,1.92-0.73,2.82s-0.55,1.71-.8,2.41c-0.51,1.4-.94,2.3-0.94,2.3l-0.07,0s0.13-1,.44-2.45c0.17-.72.36-1.57,0.62-2.46s0.59-1.83.9-2.77c1.2-3.77,2.47-7.53,2.47-7.53Z"/><path d="M465.68,39.21s-0.85,5-1.77,10.06L463.26,53c-0.24,1.17-.51,2.26-0.74,3.19-0.48,1.86-.89,3.08-0.89,3.08h-0.07s0.1-1.28.38-3.18c0.15-.95.32-2.05,0.56-3.23l0.83-3.66c1.11-5,2.28-10,2.28-10h0.07Z"/><path d="M469.39,39.21s-0.76,5-1.6,10l-0.59,3.66C467,54,466.73,55.09,466.51,56c-0.45,1.84-.84,3.06-0.84,3.06H465.6s0.08-1.27.32-3.15c0.13-.94.29-2,0.5-3.2l0.77-3.63c1-4.95,2.11-9.88,2.11-9.88h0.07Z"/><path d="M472.44,39.21s-0.6,4.8-1.27,9.59l-0.47,3.52c-0.18,1.12-.4,2.16-0.58,3-0.39,1.77-.73,2.94-0.73,2.94h-0.07s0-1.22.22-3c0.1-.9.22-2,0.4-3.07l0.65-3.49c0.86-4.76,1.78-9.51,1.78-9.51h0.07Z"/><path d="M476.15,39.56s-0.77,4.84-1.6,9.67L474,52.78c-0.22,1.13-.47,2.17-0.69,3.06-0.45,1.78-.84,3-0.84,3h-0.07s0.08-1.23.32-3.06c0.14-.91.29-2,0.5-3.1L474,49.12c1-4.79,2.11-9.57,2.11-9.57h0.07Z"/><path d="M160.58,14.41s-2.31,0-5.76,0c-1.73,0-3.75-.07-5.9-0.15L142.14,14l-6.76-.35c-2.16-.11-4.17-0.27-5.89-0.38-3.45-.24-5.75-0.47-5.75-0.47s2.31,0,5.76,0c1.73,0,3.75.06,5.9,0.15l6.76,0.25,6.76,0.35c2.16,0.11,4.17.27,5.89,0.38C158.28,14.19,160.58,14.41,160.58,14.41Z"/><path d="M159.38,16.76s-2.23,0-5.58,0c-1.67,0-3.62,0-5.71-.12l-6.54-.22L135,16.08c-2.09-.1-4-0.25-5.7-0.35-3.34-.23-5.56-0.44-5.56-0.44s2.23,0,5.58,0c1.67,0,3.62,0,5.71.12l6.54,0.22L148.12,16c2.09,0.1,4,.25,5.7.35C157.16,16.55,159.38,16.76,159.38,16.76Z"/><path d="M157.91,19.63s-2.15-.06-5.36-0.24c-1.6-.1-3.48-0.19-5.48-0.35l-6.28-.48L134.53,18c-2-.18-3.86-0.41-5.46-0.57-3.2-.36-5.32-0.66-5.32-0.66s2.15,0.06,5.36.24c1.6,0.1,3.48.19,5.48,0.35l6.28,0.48,6.27,0.58c2,0.18,3.86.41,5.46,0.57C155.79,19.33,157.91,19.63,157.91,19.63Z"/><path d="M136.58,20.86s0.15-.91.46-2.25,0.78-3.11,1.31-4.86S139.47,10.26,140,9s0.87-2.13.87-2.13-0.15.91-.46,2.25-0.78,3.11-1.31,4.86-1.13,3.48-1.61,4.77S136.58,20.86,136.58,20.86Z"/><path d="M138.7,22.86s0.15-.75.46-1.84,0.77-2.53,1.3-4,1.11-2.81,1.6-3.84,0.86-1.7.86-1.7-0.15.75-.46,1.85-0.77,2.53-1.3,3.95-1.11,2.81-1.6,3.84S138.7,22.86,138.7,22.86Z"/><path d="M141.56,22.86s0.25-.92.7-2.28c0.24-.67.5-1.46,0.81-2.3s0.66-1.72,1-2.6,0.73-1.75,1.1-2.56,0.73-1.56,1-2.21c0.62-1.28,1.09-2.12,1.09-2.12s-0.25.92-.7,2.28c-0.24.67-.49,1.46-0.81,2.3s-0.66,1.72-1,2.6-0.73,1.75-1.1,2.56-0.73,1.56-1,2.21C142,22,141.56,22.86,141.56,22.86Z"/><path d="M67.34,148.78s-0.18-1.54-.36-3.86c-0.08-1.16-.19-2.51-0.27-4s-0.15-3-.22-4.55-0.11-3.1-.13-4.55,0-2.81,0-4c0-2.33.06-3.88,0.06-3.88s0.18,1.54.36,3.86c0.08,1.16.19,2.51,0.27,4s0.15,3,.22,4.55,0.11,3.1.13,4.55,0,2.81,0,4C67.4,147.23,67.34,148.78,67.34,148.78Z"/><path d="M64.92,148.23s-0.18-1.49-.37-3.73c-0.08-1.12-.2-2.43-0.29-3.83s-0.16-2.9-.24-4.4-0.12-3-.15-4.4,0-2.72,0-3.84c0-2.25,0-3.75,0-3.75s0.19,1.49.37,3.73c0.08,1.12.2,2.43,0.29,3.83s0.16,2.9.24,4.4,0.12,3,.15,4.4,0,2.72,0,3.84C65,146.72,64.92,148.23,64.92,148.23Z"/><path d="M62,147.55s-0.09-1.45-.14-3.62c0-1.08,0-2.35,0-3.71s0-2.8,0-4.25,0.07-2.89.13-4.24,0.14-2.62.19-3.7c0.13-2.17.28-3.61,0.28-3.61s0.09,1.45.14,3.62c0,1.08.05,2.35,0,3.71s0,2.8,0,4.25-0.07,2.89-.13,4.24-0.14,2.62-.19,3.7C62.11,146.1,62,147.55,62,147.55Z"/><path d="M59.25,133.42s0.9,0,2.24,0,3.13,0.14,4.9.31,3.55,0.41,4.87.63,2.2,0.43,2.2.43-0.9,0-2.24,0-3.13-.14-4.9-0.31-3.55-.41-4.87-0.63S59.25,133.42,59.25,133.42Z"/><path d="M57.41,135.05s0.74,0,1.84,0,2.55,0.2,4,.4,2.88,0.47,4,.72,1.78,0.47,1.78.47-0.74,0-1.84,0-2.55-.2-4-0.4-2.88-.47-4-0.72S57.41,135.05,57.41,135.05Z"/><path d="M57.61,137s0.92,0,2.28.16,3.17,0.36,5,.66,3.59,0.66,4.92,1,2.21,0.58,2.21.58-0.92,0-2.28-.16-3.17-.36-5-0.66-3.59-.66-4.92-1S57.61,137,57.61,137Z"/><path d="M144.88,109.89s0.36-.3.92-0.67a19.13,19.13,0,0,1,4.46-2.12c0.65-.2,1.11-0.29,1.11-0.29s-0.36.3-.92,0.68A19.13,19.13,0,0,1,146,109.6C145.33,109.8,144.88,109.89,144.88,109.89Z"/><path d="M138.53,108.5s0.69-.46,1.75-1.09,2.51-1.39,4-2.11,3-1.37,4.12-1.82,1.93-.7,1.93-0.7-0.69.46-1.75,1.09-2.51,1.39-4,2.11-3,1.37-4.12,1.82S138.53,108.5,138.53,108.5Z"/><path d="M137.46,107.12s0.43-.34,1.1-0.78a27,27,0,0,1,5.27-2.58c0.76-.26,1.29-0.39,1.29-0.39s-0.43.34-1.1,0.78a27,27,0,0,1-5.27,2.58C138,107,137.46,107.12,137.46,107.12Z"/><path d="M136,106.15a4.47,4.47,0,0,1,.48-0.49,6.51,6.51,0,0,1,2.55-1.32,4.41,4.41,0,0,1,.68-0.11,4.4,4.4,0,0,1-.48.49A6.51,6.51,0,0,1,136.7,106,4.47,4.47,0,0,1,136,106.15Z"/><path d="M135.49,105.46s0.63-.51,1.61-1.2,2.33-1.56,3.71-2.37,2.79-1.57,3.87-2.1,1.83-.83,1.83-0.83-0.63.51-1.61,1.2-2.33,1.56-3.71,2.37-2.79,1.57-3.87,2.09S135.49,105.46,135.49,105.46Z"/><path d="M134.62,104.22s0.6-.46,1.55-1.08,2.23-1.39,3.55-2.11,2.67-1.38,3.71-1.83,1.75-.71,1.75-0.71-0.6.46-1.55,1.08-2.23,1.39-3.55,2.11-2.67,1.38-3.71,1.83S134.62,104.22,134.62,104.22Z"/><path d="M149.1,115.31s-1.37-1.57-3.34-4c-1-1.21-2.14-2.6-3.35-4.13l-3.77-4.79-3.69-4.85c-1.18-1.54-2.24-3-3.17-4.27-1.84-2.51-3-4.23-3-4.23s1.37,1.57,3.34,4c1,1.21,2.15,2.6,3.35,4.13l3.77,4.79,3.69,4.85c1.18,1.55,2.24,3,3.17,4.27C147.93,113.6,149.1,115.31,149.1,115.31Z"/><path d="M150.53,113.51s-1-1.05-2.35-2.69c-0.68-.82-1.5-1.77-2.33-2.81s-1.72-2.16-2.6-3.28-1.74-2.26-2.53-3.34-1.52-2.09-2.15-3c-1.24-1.74-2-2.94-2-2.94s1,1.05,2.35,2.69c0.68,0.82,1.5,1.77,2.33,2.81s1.72,2.16,2.6,3.28,1.74,2.26,2.53,3.34,1.52,2.09,2.15,3C149.75,112.31,150.53,113.51,150.53,113.51Z"/><path d="M154.52,115.48s-1-1.11-2.47-2.84c-0.72-.87-1.57-1.87-2.45-3s-1.81-2.28-2.74-3.46-1.83-2.38-2.67-3.51-1.6-2.2-2.26-3.11c-1.31-1.83-2.13-3.1-2.13-3.1s1,1.11,2.47,2.84c0.72,0.87,1.57,1.87,2.45,3s1.81,2.28,2.74,3.46,1.83,2.38,2.67,3.51,1.6,2.2,2.26,3.11C153.7,114.22,154.52,115.48,154.52,115.48Z"/></svg>