<svg id="Slip_lines_Grain_Large" data-name="Slip lines (Grain Large" xmlns="http://www.w3.org/2000/svg" viewBox="0 0 300 50"><title>M_SlipLinesGrainLarge</title><path d="M89.59,47.23L118,39.13c3.55-1,7.09-2,10.43-3,1.67-.45,3.27-0.92,4.81-1.31l4.32-1.13c5.36-1.38,9-2.2,9-2.2l0,0.07s-3.51,1.14-8.82,2.7l-4.29,1.25c-1.52.45-3.14,0.87-4.8,1.34-3.33.93-6.9,1.86-10.46,2.81L89.61,47.3Z"/><path d="M98.33,51.32s3.4-1,8.53-2.5l8.76-2.47,10.07-2.75,10.09-2.65,8.82-2.25c5.17-1.29,8.63-2.1,8.63-2.1s-3.4,1-8.53,2.5L136,41.57l-10.07,2.75L115.79,47,107,49.22C101.8,50.51,98.33,51.32,98.33,51.32Z"/><path d="M139.59,51s1-.42,2.41-1c0.73-.26,1.58-0.58,2.5-0.88s1.9-.62,2.89-0.93,2-.59,2.91-0.84,1.81-.46,2.56-0.66c1.51-.36,2.53-0.55,2.53-0.55s-1,.42-2.41,1c-0.73.26-1.58,0.58-2.5,0.88s-1.9.62-2.89,0.93-2,.59-2.91.84-1.81.46-2.56,0.66C140.61,50.81,139.59,51,139.59,51Z"/><path d="M121.93,50.14s5.83-1.58,11.68-3.1l4.29-1.13c1.38-.33,2.67-0.59,3.78-0.82,2.22-.43,3.73-0.64,3.73-0.64l0,0.07s-1.43.51-3.61,1.14c-1.09.3-2.36,0.67-3.74,1l-4.33,1C127.86,49,122,50.21,122,50.21Z"/><path d="M254.12,18.35l22.94-.26,8.42-.09c2.69,0,5.2.05,7.35,0.09,4.3,0.1,7.17.26,7.17,0.26v0.07s-2.87.16-7.17,0.26c-2.15,0-4.66.09-7.35,0.09l-8.42-.09-22.94-.26V18.35Z"/><path d="M253.38,22.41s2.91-.15,7.28-0.28c2.19-.05,4.73-0.14,7.47-0.18l8.56-.13,8.56,0c2.73,0,5.28,0,7.47,0,4.37,0,7.29.14,7.29,0.14s-2.91.15-7.28,0.28c-2.19.05-4.73,0.15-7.47,0.18l-8.56.13-8.56,0c-2.73,0-5.28,0-7.47,0C256.29,22.5,253.38,22.41,253.38,22.41Z"/><path d="M252.58,26.79l23.71-.26,8.71-.09c2.78,0,5.37.05,7.59,0.09,4.45,0.1,7.41.26,7.41,0.26v0.07s-3,.16-7.41.26c-2.22,0-4.82.09-7.59,0.09l-8.71-.09-23.71-.26V26.79Z"/><path d="M251.48,31.58s3-.12,7.58-0.21c2.27,0,4.93-.1,7.77-0.11l8.91,0,8.91,0c2.84,0,5.5.08,7.77,0.11,4.55,0.09,7.58.21,7.58,0.21s-3,.12-7.58.21c-2.27,0-4.93.1-7.77,0.11l-8.91,0-8.91,0c-2.84,0-5.5-.08-7.77-0.11C254.51,31.7,251.48,31.58,251.48,31.58Z"/><path d="M261.74,32s-0.18,4.67-.43,9.33c-0.05,1.17-.09,2.33-0.16,3.43s-0.21,2.11-.31,3c-0.23,1.74-.48,2.89-0.48,2.89h-0.07s-0.07-1.18,0-2.93c0-.88,0-1.9.13-3s0.22-2.25.34-3.41c0.44-4.65,1-9.3,1-9.3h0.07Z"/><path d="M270.26,31.58s-0.92,4.8-1.9,9.59l-0.7,3.52c-0.25,1.12-.54,2.15-0.78,3-0.5,1.76-.93,2.92-0.93,2.92l-0.07,0s0.11-1.23.42-3c0.16-.9.35-2,0.6-3.07L267.78,41c1.17-4.74,2.41-9.47,2.41-9.47Z"/><path d="M279.68,31.58s-1.3,4.81-2.67,9.61l-1,3.53c-0.34,1.12-.71,2.14-1,3-0.64,1.76-1.16,2.9-1.16,2.9l-0.07,0s0.21-1.24.66-3.05c0.24-.91.5-2,0.85-3.08L276.44,41c1.55-4.74,3.17-9.45,3.17-9.45Z"/><path d="M283.88,31.58s-1.07,4.81-2.2,9.6l-0.81,3.52c-0.29,1.12-.61,2.15-0.88,3-0.56,1.76-1,2.91-1,2.91l-0.07,0s0.15-1.23.52-3c0.19-.9.41-2,0.7-3.08l1-3.48c1.32-4.74,2.71-9.46,2.71-9.46Z"/><path d="M290.09,31.58s-0.88,4.8-1.82,9.59l-0.68,3.52c-0.24,1.12-.52,2.15-0.76,3-0.49,1.77-.9,2.92-0.9,2.92l-0.07,0s0.1-1.23.4-3c0.16-.9.33-2,0.58-3.07L287.68,41c1.13-4.74,2.34-9.47,2.34-9.47Z"/><path d="M295.2,31.58s-0.65,4.79-1.36,9.57l-0.51,3.51c-0.19,1.12-.42,2.15-0.61,3-0.4,1.77-.76,2.93-0.76,2.93h-0.07s0-1.22.25-3c0.11-.9.24-2,0.43-3.07l0.68-3.48c0.91-4.75,1.88-9.49,1.88-9.49h0.07Z"/><path d="M300.1,38.57s-0.44,3-.95,6.09c-0.12.76-.22,1.52-0.35,2.23s-0.31,1.36-.47,1.92-0.31,1-.44,1.33-0.2.5-.2,0.5h-0.07s0-.2,0-0.54,0.05-.82.11-1.4,0.16-1.24.3-2,0.35-1.45.53-2.2c0.7-3,1.46-6,1.46-6h0.07Z"/><path d="M40.29,50.42s-0.21-2.28-.43-5.7c-0.1-1.71-.24-3.71-0.34-5.84l-0.31-6.7L39,25.47c-0.07-2.14-.08-4.14-0.11-5.85,0-3.43,0-5.71,0-5.71s0.21,2.28.43,5.7c0.1,1.71.24,3.71,0.34,5.84L40,32.15l0.21,6.71c0.07,2.14.08,4.14,0.11,5.85C40.32,48.14,40.29,50.42,40.29,50.42Z"/><path d="M36.73,49.6s-0.22-2.2-.45-5.51c-0.1-1.65-.26-3.58-0.36-5.65L35.58,32l-0.23-6.49c-0.08-2.07-.09-4-0.13-5.66-0.05-3.31,0-5.53,0-5.53s0.22,2.2.45,5.51c0.1,1.65.26,3.58,0.36,5.65l0.33,6.48,0.23,6.49c0.08,2.07.09,4,.13,5.66C36.75,47.39,36.73,49.6,36.73,49.6Z"/><path d="M32.37,48.6s-0.08-2.13-.1-5.33c0-1.6,0-3.46,0-5.46l0.07-6.26,0.17-6.26c0.05-2,.16-3.86.22-5.46,0.15-3.19.32-5.32,0.32-5.32s0.08,2.13.11,5.33c0,1.6,0,3.46,0,5.46l-0.07,6.26-0.17,6.26c-0.05,2-.16,3.86-0.22,5.46C32.53,46.47,32.37,48.6,32.37,48.6Z"/><path d="M28.36,27.78s1.32,0,3.3.11c1,0.06,2.14.11,3.37,0.21s2.54,0.21,3.85.33,2.62,0.27,3.85.42,2.37,0.32,3.35.44c2,0.28,3.26.53,3.26,0.53s-1.32,0-3.3-.11c-1-.06-2.14-0.11-3.37-0.21s-2.54-.21-3.85-0.33S36.19,28.9,35,28.75s-2.37-.32-3.35-0.44C29.66,28,28.36,27.78,28.36,27.78Z"/><path d="M25.65,30.18s1.08,0,2.69.17c0.8,0.08,1.74.15,2.75,0.27s2.07,0.25,3.14.4,2.13,0.31,3.12.48,1.92,0.36,2.71.5c1.59,0.31,2.63.58,2.63,0.58s-1.08,0-2.69-.17c-0.8-.08-1.74-0.15-2.75-0.27s-2.07-.25-3.14-0.4S32,31.44,31,31.27s-1.92-.36-2.71-0.5C26.69,30.45,25.65,30.18,25.65,30.18Z"/><path d="M25.94,33s1.34,0.1,3.35.34c1,0.13,2.17.26,3.41,0.44s2.57,0.39,3.9.6,2.65,0.45,3.89.69,2.39,0.48,3.38.68c2,0.42,3.28.75,3.28,0.75s-1.34-.1-3.35-0.34c-1-.13-2.17-0.26-3.41-0.44s-2.57-.39-3.9-0.6-2.65-.45-3.89-0.69-2.39-.48-3.38-0.68C27.25,33.33,25.94,33,25.94,33Z"/><path d="M167.59,29l6.76-14.63L176.83,9c0.82-1.7,1.63-3.27,2.32-4.61,1.4-2.68,2.42-4.42,2.42-4.42l0.07,0s-0.73,1.88-2,4.65c-0.62,1.38-1.34,3-2.16,4.69l-2.65,5.29-7.23,14.4Z"/><path d="M174.47,31.07l10-15.69,3.66-5.76c1.19-1.82,2.35-3.49,3.34-4.93,2-2.86,3.4-4.72,3.4-4.72l0.06,0s-1.14,2-3,5c-0.92,1.48-2,3.21-3.18,5l-3.81,5.66-10.4,15.4Z"/><path d="M184.47,30.64l11.25-15.8L199.86,9c1.34-1.83,2.64-3.51,3.75-5,2.23-2.88,3.79-4.73,3.79-4.73l0.06,0s-1.3,2.05-3.37,5c-1,1.49-2.25,3.23-3.6,5.07L196.2,15.2,184.53,30.69Z"/><path d="M195.55,29.76l10-14.83,3.67-5.44c1.2-1.72,2.36-3.29,3.35-4.65,2-2.7,3.4-4.44,3.4-4.44l0.06,0s-1.14,1.93-3,4.73c-0.92,1.4-2,3-3.19,4.75L206,15.28,195.62,29.81Z"/></svg>