<svg id="Slip_lines_Grain_Large" data-name="Slip lines (Grain Large" xmlns="http://www.w3.org/2000/svg" viewBox="0 0 650 150"><title>M_SlipLinesGrainLarge</title><path d="M462.2,67.22s-0.91,1.68-2.38,4.12c-0.75,1.22-1.61,2.64-2.59,4.13l-3.13,4.63-8.54,12.59-0.06,0,8.1-12.88,3-4.72c1-1.49,1.93-2.86,2.74-4,1.64-2.33,2.82-3.84,2.82-3.84Z"/><path d="M465.79,69s-1.23,2.18-3.19,5.37c-1,1.59-2.14,3.45-3.41,5.41l-4.08,6.09L444,102.41l-0.06,0L454.61,85.5l3.93-6.19c1.28-2,2.51-3.76,3.57-5.31,2.13-3.08,3.63-5.08,3.63-5.08Z"/><path d="M505.41,74.84l0,0.21,0,0.16,0-.16,0-.21,0-.21,0-.16,0,0.16Z"/><path d="M287.3,114.23l25.52,6.59,9.37,2.42c3,0.8,5.75,1.6,8.13,2.28,4.75,1.38,7.89,2.39,7.89,2.39l0,0.07s-3.22-.7-8-1.89c-2.4-.6-5.19-1.3-8.18-2.1l-9.32-2.6-25.39-7.09Z"/><path d="M285.93,119.24l31,8c3.88,1,7.77,2,11.39,3,1.81,0.49,3.57.94,5.23,1.41l4.67,1.32c5.78,1.65,9.61,2.84,9.61,2.84l0,0.07s-3.91-.88-9.75-2.34l-4.71-1.2c-1.67-.42-3.42-0.91-5.24-1.39-3.63-1-7.49-2-11.36-3.12l-30.91-8.55Z"/><path d="M284.72,124.82l35.78,9c4.47,1.13,8.95,2.24,13.13,3.34,2.09,0.55,4.12,1.05,6,1.58l5.39,1.47c6.67,1.84,11.09,3.15,11.09,3.15l0,0.07s-4.5-1-11.22-2.65l-5.42-1.35c-1.93-.47-3.94-1-6-1.56-4.19-1.08-8.64-2.29-13.09-3.48l-35.64-9.54Z"/><path d="M283.82,127.61l39.79,10.93c5,1.37,10,2.71,14.6,4,2.33,0.66,4.58,1.27,6.71,1.9l6,1.75c7.42,2.19,12.34,3.74,12.34,3.74l0,0.07s-5-1.24-12.48-3.24l-6-1.63c-2.14-.57-4.38-1.23-6.71-1.88-4.66-1.3-9.61-2.75-14.56-4.17L283.8,127.68Z"/><path d="M282.5,135.84l35.51,6.8c4.44,0.85,8.88,1.68,13,2.52,2.08,0.42,4.09.8,6,1.21l5.35,1.13c6.63,1.42,11,2.46,11,2.46V150s-4.46-.72-11.13-2l-5.38-1c-1.91-.35-3.91-0.77-6-1.18-4.16-.81-8.58-1.75-13-2.66l-35.41-7.32v-0.07Z"/><path d="M281.08,140.92s2.59,0.45,6.46,1.21c1.93,0.4,4.19.82,6.6,1.34l7.55,1.62,7.53,1.71c2.4,0.54,4.63,1.11,6.55,1.57,3.83,0.94,6.37,1.62,6.37,1.62s-2.59-.45-6.46-1.21c-1.93-.4-4.19-0.82-6.6-1.34l-7.55-1.62L294,144.11c-2.4-.55-4.63-1.11-6.55-1.57C283.62,141.61,281.08,140.92,281.08,140.92Z"/><path d="M21.77,106.62s1.25-.09,3.13-0.1c0.94,0,2,0,3.2.07l3.66,0.28c5,0.35,10,.77,10,0.77v0.07s-5-.09-10-0.25l-3.67-.1c-1.17-.06-2.26-0.17-3.19-0.26-1.86-.2-3.1-0.42-3.1-0.42v-0.07Z"/><path d="M14.29,112s2.13,0,5.31.19c1.59,0.09,3.44.2,5.43,0.37l6.2,0.62,16.89,1.69v0.07l-16.94-1.17L25,113.32c-2-.17-3.83-0.38-5.41-0.55-3.16-.37-5.26-0.71-5.26-0.71V112Z"/><path d="M9.17,118s3.05-.16,7.63-0.26c2.29,0,5-.09,7.82-0.09l9,0.09L58,118v0.07l-24.4.26-9,.09c-2.86,0-5.53-.05-7.82-0.09-4.58-.1-7.63-0.26-7.63-0.26V118Z"/><path d="M9.17,122.3S11.9,122.13,16,122c2,0,4.43-.09,7-0.09L31,122l21.8,0.26v0.08l-21.8.26-8,.09c-2.55,0-4.94-.05-7-0.09-4.09-.1-6.81-0.26-6.81-0.26V122.3Z"/><path d="M14.29,126.47s2.14-.16,5.36-0.26c1.61,0,3.48-.09,5.49-0.09l6.29,0.09,17.14,0.26v0.07l-17.14.26-6.29.09c-2,0-3.88-.05-5.49-0.09-3.21-.1-5.36-0.26-5.36-0.26v-0.07Z"/><path d="M14.29,129.65s2.59,0.19,6.45.62c1.93,0.22,4.18.48,6.59,0.8l7.53,1.12,20.5,3.05v0.07l-20.57-2.53-7.55-.94c-2.41-.33-4.64-0.69-6.56-1-3.84-.62-6.38-1.13-6.38-1.13v-0.07Z"/><path d="M14.29,135.24s1.88,0.1,4.69.39c1.4,0.16,3,.33,4.79.58l5.46,0.86,14.86,2.35v0.07l-14.94-1.83L23.66,137c-1.75-.24-3.37-0.53-4.76-0.76-2.78-.49-4.62-0.91-4.62-0.91v-0.07Z"/><path d="M471.52,63.84c0.24,1.38.49,2.77,0.69,4.15s0.43,2.77.62,4.16l0,0.11-0.06.11c-3,5-6.31,9.78-9.48,14.66l-9.6,14.58-0.06,0,9.23-14.82C466,81.84,469,76.84,472.23,72l0,0.22c-0.15-1.39-.29-2.79-0.4-4.19s-0.22-2.8-.33-4.2h0.07Z"/><path d="M474.74,65.05c0.45,1.53.9,3.06,1.31,4.59s0.82,3.08,1.22,4.61l0,0.14-0.08.13c-1.47,2.44-3,4.85-4.55,7.23L468,88.94l-9.29,14.35-0.06,0,8.92-14.58,4.47-7.29c1.48-2.43,3-4.85,4.55-7.23l0,0.27c-0.34-1.55-.7-3.1-1-4.67s-0.63-3.12-.92-4.69Z"/><path d="M481.86,67.22q0.72,2.62,1.38,5.26c0.44,1.76.85,3.52,1.27,5.28l0,0.13-0.07.13c-1.28,2.38-2.62,4.72-4,7.07l-4,7-8,14.07-0.07,0,7.67-14.27,3.85-7.13c1.27-2.38,2.56-4.76,3.89-7.1l0,0.26c-0.35-1.78-.72-3.55-1-5.33s-0.65-3.56-.94-5.35Z"/><path d="M487.58,71.07q0.79,2.33,1.44,4.69c0.44,1.57.87,3.15,1.23,4.74l0,0.15-0.07.12-9.16,15.57-0.07,0,8.56-15.9,0,0.28c-0.42-1.58-.77-3.17-1.11-4.77s-0.65-3.2-.9-4.82Z"/><path d="M479.64,66.58c0.17,1.5.21,3,.25,4.5s-0.05,3-.12,4.49v0.08l0,0.06c-1.55,3-3.1,6-4.68,8.92l-0.07,0c1.37-3.07,2.78-6.12,4.18-9.16l0,0.13c0-1.5-.05-3,0-4.5s0.18-3,.4-4.49h0.07Z"/><path d="M502.75,80.59q-1.88.82-3.81,1.51c-1.28.47-2.57,0.92-3.87,1.31l0.21-.17-7.63,12.87-0.07,0,7-13.2,0.07-.12,0.15-.05c1.29-.45,2.6-0.82,3.91-1.19s2.64-.7,4-1Z"/><path d="M506.67,82.27c-1.08.64-2.18,1.23-3.28,1.82s-2.22,1.15-3.34,1.69l0.17-.17c-0.73,1.46-1.53,2.89-2.31,4.33l-2.34,4.31-4.7,8.61-0.07,0,4.35-8.8,2.19-4.39c0.73-1.46,1.43-2.94,2.21-4.38l0.06-.12,0.11-.05c1.13-.53,2.28-1,3.43-1.51s2.31-1,3.49-1.38Z"/><path d="M510.67,83.63c-0.59.92-1.23,1.81-1.88,2.68s-1.31,1.74-2,2.57l0-.06-3.6,6.09L499.6,101l-0.07,0,3.3-6.26,3.32-6.25v0l0,0c0.69-.84,1.42-1.65,2.15-2.46s1.48-1.59,2.28-2.35Z"/><path d="M85.87,46.45l28.37-8.1c3.55-1,7.09-2,10.43-3,1.67-.45,3.27-0.92,4.81-1.31L133.8,33c5.36-1.38,9-2.2,9-2.2l0,0.07S139.27,32,134,33.53l-4.29,1.25c-1.52.45-3.14,0.87-4.8,1.34C121.54,37,118,38,114.4,38.93L85.89,46.52Z"/><path d="M94.62,50.54s3.4-1,8.53-2.5l8.76-2.47L122,42.82l10.09-2.65,8.82-2.25c5.17-1.29,8.63-2.1,8.63-2.1s-3.4,1-8.53,2.5l-8.76,2.47-10.07,2.75-10.09,2.65-8.82,2.25C98.08,49.73,94.62,50.54,94.62,50.54Z"/><path d="M96.82,62.11s3.39-1.16,8.51-2.81l8.75-2.79,10.06-3.12,10.08-3L143,47.81c5.17-1.48,8.63-2.41,8.63-2.41s-3.39,1.16-8.51,2.81L134.41,51l-10.06,3.12-10.08,3-8.82,2.57C100.28,61.18,96.82,62.11,96.82,62.11Z"/><path d="M99.39,55l21.08-5.94,7.74-2.18c2.48-.67,4.81-1.24,6.8-1.73,4-1,6.68-1.53,6.68-1.53l0,0.07s-2.6.87-6.54,2c-2,.57-4.27,1.24-6.75,1.91l-7.79,2L99.41,55.12Z"/><path d="M104.27,67l17-4.88,6.25-1.79c2-.54,3.89-1,5.5-1.39,3.23-.77,5.41-1.19,5.41-1.19l0,0.07s-2.09.73-5.27,1.7c-1.59.47-3.45,1-5.45,1.57l-6.3,1.61-17.16,4.37Z"/><path d="M139.14,62.32l19,27.79c2.37,3.47,4.77,6.94,7,10.22,1.1,1.64,2.18,3.21,3.16,4.73l2.79,4.26c3.44,5.29,5.65,8.88,5.65,8.88l-0.06,0s-2.48-3.4-6.08-8.59l-2.89-4.19c-1-1.48-2.08-3.08-3.18-4.71-2.21-3.27-4.51-6.79-6.83-10.3L139.08,62.37Z"/><path d="M131.3,64.84l21,28.14c2.63,3.52,5.27,7,7.7,10.35,1.21,1.66,2.41,3.25,3.51,4.79l3.1,4.32c3.82,5.36,6.29,9,6.29,9l-0.06,0s-2.73-3.44-6.71-8.69l-3.2-4.25c-1.14-1.5-2.3-3.12-3.53-4.77-2.45-3.31-5-6.88-7.58-10.43l-20.6-28.45Z"/><path d="M131.3,72.48l19.35,25.86c2.42,3.23,4.85,6.45,7.09,9.51,1.12,1.53,2.22,3,3.22,4.4l2.85,4c3.51,4.94,5.77,8.29,5.77,8.29l-0.06,0s-2.52-3.16-6.19-8l-2.95-3.9c-1.05-1.38-2.12-2.87-3.24-4.39-2.25-3-4.6-6.33-7-9.6L131.24,72.53Z"/><path d="M122.7,67.5l22.14,29.65c2.77,3.71,5.55,7.4,8.11,10.9,1.28,1.75,2.54,3.42,3.69,5l3.27,4.55c4,5.65,6.64,9.47,6.64,9.47l-0.06,0s-2.87-3.63-7.06-9.16l-3.37-4.47c-1.2-1.58-2.42-3.28-3.71-5-2.58-3.48-5.28-7.24-8-11l-21.71-30Z"/><path d="M119.88,69.26l22.66,30.29c2.83,3.79,5.68,7.56,8.3,11.14,1.31,1.79,2.6,3.5,3.78,5.15l3.35,4.65c4.13,5.77,6.81,9.67,6.81,9.67l-0.06,0s-2.94-3.71-7.22-9.36L154,116.27c-1.23-1.62-2.48-3.36-3.8-5.14-2.64-3.56-5.4-7.4-8.18-11.22l-22.24-30.6Z"/><path d="M112.52,70.25l24,31.58c3,3.95,6,7.88,8.8,11.61,1.39,1.86,2.76,3.65,4,5.37l3.55,4.84c4.38,6,7.23,10.07,7.23,10.07l-0.06,0s-3.1-3.87-7.64-9.76l-3.65-4.77c-1.3-1.69-2.63-3.5-4-5.35-2.8-3.71-5.73-7.71-8.68-11.7L112.46,70.29Z"/><path d="M107.88,72.13l19.82,30c2.48,3.75,5,7.49,7.26,11,1.14,1.77,2.27,3.47,3.3,5.1l2.91,4.6c3.59,5.71,5.91,9.57,5.91,9.57l-0.06,0s-2.59-3.68-6.34-9.28l-3-4.53c-1.08-1.6-2.17-3.33-3.32-5.09-2.31-3.53-4.71-7.33-7.14-11.12L107.82,72.17Z"/><path d="M353.86,22l34.86,15.94c4.36,2,8.72,4,12.79,5.87,2,1,4,1.85,5.87,2.74L412.61,49c6.47,3.12,10.75,5.29,10.75,5.29l0,0.07s-4.41-1.87-11-4.82l-5.29-2.39c-1.88-.84-3.84-1.78-5.88-2.72-4.08-1.88-8.4-4-12.73-6L353.83,22Z"/><path d="M356.81,15.46L390.2,30.64c4.17,1.9,8.36,3.78,12.25,5.6,1.95,0.91,3.84,1.76,5.62,2.62l5,2.39c6.2,3,10.29,5.05,10.29,5.05l0,0.07s-4.23-1.78-10.51-4.58l-5.06-2.28c-1.8-.8-3.68-1.7-5.63-2.59-3.91-1.79-8-3.77-12.19-5.73L356.78,15.53Z"/><path d="M362.89,10.14L398.1,25.68c4.4,1.94,8.81,3.87,12.92,5.73,2.05,0.93,4.05,1.8,5.92,2.68l5.29,2.45c6.54,3,10.86,5.17,10.86,5.17l0,0.07s-4.45-1.82-11.08-4.69l-5.34-2.33c-1.9-.82-3.88-1.73-5.94-2.65-4.12-1.84-8.48-3.86-12.86-5.86l-35-16Z"/><path d="M368.62,1.71L380.1,7.22,391.82,13l13.4,6.65,13.35,6.74,11.62,5.94,11.29,5.89L430,32.68l-11.72-5.74-13.4-6.65-13.35-6.74L379.91,7.6Z"/><path d="M567,115.75s2-.56,4.93-1.31c1.48-.36,3.21-0.82,5.07-1.25l5.83-1.35,5.85-1.25c1.87-.4,3.62-0.72,5.12-1,3-.58,5-0.9,5-0.9s-2,.56-4.93,1.31c-1.49.36-3.21,0.82-5.07,1.24L583,112.58l-5.85,1.25c-1.87.4-3.62,0.72-5.12,1C569,115.43,567,115.75,567,115.75Z"/><path d="M568.37,119.63s1.66-.58,4.18-1.36c1.26-.38,2.73-0.85,4.31-1.3l5-1.41,5-1.31c1.59-.42,3.09-0.76,4.37-1.08,2.57-.61,4.29-1,4.29-1s-1.66.58-4.18,1.36c-1.26.38-2.73,0.85-4.31,1.3l-5,1.41-5,1.31c-1.59.42-3.09,0.76-4.37,1.08C570.1,119.28,568.37,119.63,568.37,119.63Z"/><path d="M569.23,122.1s1.86-.63,4.67-1.49c1.41-.42,3-0.93,4.81-1.43l5.54-1.56,5.57-1.46c1.78-.47,3.45-0.85,4.87-1.21,2.86-.68,4.78-1.08,4.78-1.08s-1.86.63-4.67,1.49c-1.41.42-3,.93-4.81,1.43l-5.54,1.56-5.57,1.46c-1.78.47-3.45,0.85-4.87,1.21C571.15,121.7,569.23,122.1,569.23,122.1Z"/><path d="M570.15,126.81s1.56-.62,3.94-1.47c1.19-.41,2.57-0.92,4.06-1.42l4.68-1.55,4.71-1.45c1.5-.47,2.92-0.84,4.13-1.2,2.43-.68,4.06-1.07,4.06-1.07s-1.56.62-3.94,1.48c-1.19.41-2.57,0.93-4.06,1.42l-4.68,1.54-4.71,1.45c-1.5.46-2.93,0.84-4.13,1.2C571.78,126.41,570.15,126.81,570.15,126.81Z"/><path d="M253.9,17.56l28-.26c3.5,0,7-.09,10.29-0.07,1.64,0,3.23,0,4.74,0l4.24,0.06c5.26,0.1,8.76.26,8.76,0.26v0.08s-3.5.16-8.76,0.26L297,18c-1.51,0-3.09,0-4.74,0-3.29,0-6.79,0-10.29-.07l-28-.26V17.56Z"/><path d="M252.44,21.62l3.1-.08,8.18-.2,11.57-.18L288.55,21l13.26,0,11.57,0,8.18,0.1,3.1,0-3.1.08-8.18.2-11.57.18-13.26.13-13.26,0-11.57,0-8.18-.1Z"/><path d="M252.2,26l44.39-.26c5.55,0,11.1-.09,16.3-0.07h7.5l6.72,0.06C335.43,25.85,341,26,341,26v0.07s-5.55.16-13.87,0.26l-6.72.06h-7.5c-5.2,0-10.75,0-16.3-.07l-44.39-.26V26Z"/><path d="M250.79,30.79l14.31-.21,14.67-.11,16.81,0,16.81,0,14.67,0.11,14.31,0.21L328.06,31l-14.67.11-16.81,0-16.81,0L265.1,31Z"/><path d="M358.46,3.62l13.13,5.16,4.82,1.9c1.53,0.63,2.93,1.27,4.14,1.82,2.4,1.11,4,1.93,4,1.93l0,0.07s-1.69-.53-4.17-1.45c-1.24-.47-2.68-1-4.21-1.65l-4.75-2.07L358.43,3.69Z"/><path d="M376.6-.15l2.72,1.23,7.17,3.27,10.09,4.71,11.53,5.47,11.49,5.56,10,4.92c2.93,1.44,5.34,2.69,7,3.54l2.67,1.35-2.72-1.23c-1.73-.79-4.21-1.89-7.17-3.27l-10.09-4.71-11.53-5.47L396.3,9.66l-10-4.92-7-3.54Z"/><path d="M390.07-.28s3.67,1.73,9.12,4.4l9.31,4.6,10.63,5.35,10.59,5.44,9.2,4.81c5.38,2.84,8.93,4.78,8.93,4.78s-3.67-1.73-9.13-4.4l-9.31-4.6L418.8,14.75,408.21,9.31,399,4.5C393.63,1.66,390.07-.28,390.07-0.28Z"/><path d="M406.23,1.06s1.6,0.69,4,1.8c1.17,0.57,2.56,1.21,4,1.94l4.57,2.3,4.52,2.38c1.45,0.76,2.77,1.52,3.91,2.14,2.28,1.28,3.77,2.18,3.77,2.18s-1.6-.69-4-1.8c-1.17-.57-2.56-1.2-4-1.94l-4.57-2.3-4.52-2.38c-1.44-.76-2.77-1.52-3.91-2.14C407.72,2,406.23,1.06,406.23,1.06Z"/><path d="M194.77,106.87s-1,2.41-2.64,6c-0.82,1.78-1.75,3.87-2.8,6.09l-3.28,6.94-3.37,6.9c-1.07,2.2-2.13,4.23-3,6-1.78,3.49-3,5.8-3,5.8s1-2.41,2.64-6c0.82-1.78,1.75-3.87,2.8-6.08l3.28-6.94,3.37-6.9c1.07-2.2,2.13-4.23,3-6C193.53,109.17,194.77,106.87,194.77,106.87Z"/><path d="M198.12,107s-1,2.73-2.56,6.8c-0.8,2-1.7,4.41-2.72,6.93l-3.19,7.91-3.29,7.88c-1,2.51-2.08,4.84-2.93,6.84-1.74,4-3,6.64-3,6.64s1-2.73,2.56-6.8c0.8-2,1.7-4.41,2.72-6.93l3.2-7.91,3.29-7.88c1-2.51,2.08-4.84,2.93-6.84C196.9,109.6,198.12,107,198.12,107Z"/><path d="M202.59,106.67s-0.63,2.09-1.65,5.19c-0.53,1.55-1.11,3.36-1.79,5.29l-2.13,6-2.22,6c-0.71,1.92-1.42,3.68-2,5.21-1.2,3-2,5-2,5s0.63-2.09,1.65-5.19c0.53-1.55,1.11-3.36,1.79-5.29l2.13-6,2.22-6c0.71-1.92,1.42-3.68,2-5.21C201.73,108.68,202.59,106.67,202.59,106.67Z"/><path d="M206.22,107.18s-0.12.93-.36,2.3-0.64,3.18-1.09,5-1,3.57-1.4,4.89-0.78,2.19-.78,2.19,0.11-.93.36-2.3,0.64-3.18,1.09-5,1-3.57,1.4-4.89S206.22,107.18,206.22,107.18Z"/><path d="M209.51,108.61s-0.32,1.67-.88,4.15c-0.29,1.24-.61,2.69-1,4.23l-1.22,4.83-1.32,4.8c-0.42,1.53-.87,2.95-1.22,4.17-0.74,2.44-1.29,4-1.29,4s0.32-1.67.88-4.15c0.3-1.24.61-2.69,1-4.23l1.22-4.83,1.32-4.8c0.42-1.53.87-2.95,1.22-4.17C209,110.22,209.51,108.61,209.51,108.61Z"/><path d="M214,108.61s-0.16,1.1-.49,2.73c-0.18.81-.36,1.76-0.6,2.77s-0.5,2.08-.78,3.15-0.57,2.13-.86,3.13-0.59,1.92-.83,2.71c-0.51,1.58-.9,2.62-0.9,2.62s0.16-1.1.49-2.73c0.18-.81.36-1.76,0.6-2.77s0.51-2.08.78-3.15,0.57-2.13.86-3.13,0.59-1.92.83-2.71C213.59,109.65,214,108.61,214,108.61Z"/><path d="M218.23,107.5s0,0.55-.09,1.36a27.52,27.52,0,0,1-1.33,5.77c-0.28.77-.51,1.26-0.51,1.26s0-.55.09-1.36a27.52,27.52,0,0,1,1.33-5.77C218,108,218.23,107.5,218.23,107.5Z"/><path d="M220.46,107.5s-0.14,1.64-.44,4.09c-0.16,1.22-.32,2.65-0.55,4.18l-0.72,4.77-0.81,4.76c-0.26,1.52-.55,2.93-0.78,4.14-0.48,2.42-.86,4-0.86,4s0.14-1.64.44-4.09c0.17-1.22.32-2.65,0.55-4.18l0.72-4.77,0.81-4.76c0.26-1.52.55-2.93,0.78-4.14C220.08,109.11,220.46,107.5,220.46,107.5Z"/><path d="M224.34,107.67s-0.19,1.54-.57,3.83c-0.2,1.14-.41,2.48-0.68,3.91s-0.57,2.95-.87,4.46-0.64,3-1,4.45-0.65,2.73-.92,3.86c-0.56,2.26-1,3.75-1,3.75s0.19-1.54.57-3.83c0.2-1.14.41-2.48,0.68-3.91s0.57-2.95.87-4.46,0.64-3,1-4.45,0.65-2.73.92-3.86C223.91,109.16,224.34,107.67,224.34,107.67Z"/><path d="M227.91,107.77s-0.17,1.12-.51,2.77c-0.18.82-.37,1.79-0.61,2.82s-0.51,2.12-.79,3.21-0.58,2.17-.88,3.18-0.6,2-.84,2.76c-0.51,1.61-.91,2.67-0.91,2.67s0.17-1.12.51-2.77c0.18-.82.37-1.79,0.61-2.82s0.51-2.12.79-3.21,0.58-2.17.88-3.18,0.6-2,.84-2.76C227.51,108.82,227.91,107.77,227.91,107.77Z"/><path d="M179.05,117.16l13.31-.21,13.65-.11,15.64,0,15.64,0.06L250.94,117l13.31,0.22-13.31.21-13.65.11-15.64,0L206,117.5l-13.65-.12Z"/><path d="M180.47,121.72s3.66-.12,9.15-0.21l9.38-.11,10.75,0,10.75,0,9.38,0.11c5.49,0.09,9.15.21,9.15,0.21s-3.66.12-9.15,0.21l-9.38.11-10.75,0L199,122l-9.38-.11C184.12,121.84,180.47,121.72,180.47,121.72Z"/><path d="M170.19,125.71s3.85-.12,9.64-0.21l9.88-.11,11.32,0,11.32,0,9.88,0.11c5.78,0.09,9.64.21,9.64,0.21s-3.85.12-9.64,0.21l-9.88.11-11.32,0-11.32,0-9.88-.11C174,125.83,170.19,125.71,170.19,125.71Z"/><path d="M258,31.38l-0.48,13.73-0.18,5c-0.09,1.61-.22,3.11-0.33,4.39-0.24,2.57-.49,4.27-0.49,4.27h-0.07s-0.07-1.72,0-4.3c0-1.29.06-2.79,0.14-4.4l0.36-5,1-13.7H258Z"/><path d="M266.55,30.8l-2.28,15.41-0.84,5.66c-0.3,1.8-.63,3.47-0.91,4.91-0.58,2.87-1.05,4.76-1.05,4.76h-0.07s0.16-1.95.54-4.85c0.2-1.45.43-3.14,0.72-4.94l1-5.63,2.8-15.33h0.07Z"/><path d="M276,30.8L272.5,47.44l-1.28,6.11c-0.44,1.94-.89,3.74-1.28,5.29-0.8,3.09-1.42,5.12-1.42,5.12l-0.07,0s0.31-2.11.91-5.24c0.31-1.56.67-3.39,1.1-5.33l1.45-6.07,4-16.52Z"/><path d="M280.17,30.8l-3.13,18-1.15,6.61c-0.4,2.1-.82,4.06-1.18,5.73-0.73,3.35-1.31,5.56-1.31,5.56h-0.07s0.26-2.27.8-5.66c0.28-1.69.6-3.66,1-5.76l1.33-6.57,3.65-17.89h0.07Z"/><path d="M286.38,30.8l-2.85,19.46-1.05,7.14c-0.36,2.28-.76,4.39-1.09,6.21-0.68,3.63-1.23,6-1.23,6h-0.07s0.23-2.45.71-6.11c0.25-1.83.54-4,.9-6.23l1.23-7.12,3.36-19.38h0.07Z"/><path d="M291.48,30.8l-2.29,20.57-0.85,7.55c-0.3,2.41-.63,4.65-0.91,6.57-0.58,3.84-1.06,6.39-1.06,6.39H286.3s0.16-2.59.54-6.45c0.2-1.93.43-4.18,0.73-6.59l1-7.53,2.81-20.5h0.07Z"/><path d="M297.7,31.39l-2.85,21.24-1.05,7.8c-0.36,2.49-.76,4.8-1.09,6.78-0.68,4-1.23,6.59-1.23,6.59h-0.07s0.23-2.67.71-6.66c0.25-2,.54-4.32.9-6.81l1.23-7.77,3.37-21.17h0.07Z"/><path d="M36.58,49.64s-0.21-2.28-.43-5.7c-0.1-1.71-.24-3.71-0.34-5.84l-0.31-6.7-0.21-6.71c-0.07-2.14-.08-4.14-0.11-5.85,0-3.43,0-5.71,0-5.71s0.21,2.28.43,5.7c0.1,1.71.24,3.71,0.34,5.84l0.31,6.7,0.21,6.71c0.07,2.14.08,4.14,0.11,5.85C36.61,47.35,36.58,49.64,36.58,49.64Z"/><path d="M33,48.82s-0.22-2.2-.45-5.51c-0.1-1.65-.26-3.58-0.36-5.65l-0.33-6.48-0.23-6.49c-0.08-2.07-.09-4-0.13-5.66-0.05-3.31,0-5.53,0-5.53s0.22,2.2.45,5.51c0.1,1.65.26,3.58,0.36,5.65l0.33,6.48,0.23,6.49c0.08,2.07.09,4,.13,5.66C33,46.61,33,48.82,33,48.82Z"/><path d="M28.65,47.82s-0.08-2.13-.1-5.33c0-1.6,0-3.46,0-5.46l0.07-6.26,0.17-6.26c0.05-2,.16-3.86.22-5.46,0.15-3.19.32-5.32,0.32-5.32s0.08,2.13.11,5.33c0,1.6,0,3.46,0,5.46l-0.07,6.26L29.19,37C29.14,39,29,40.9,29,42.5,28.81,45.69,28.65,47.82,28.65,47.82Z"/><path d="M24.64,27s1.32,0,3.3.11c1,0.06,2.14.11,3.37,0.21s2.54,0.21,3.85.33,2.62,0.27,3.85.42,2.37,0.32,3.35.44c2,0.28,3.26.53,3.26,0.53s-1.32,0-3.3-.11c-1-.06-2.14-0.11-3.37-0.21s-2.54-.21-3.85-0.33-2.62-.27-3.84-0.42-2.37-.32-3.35-0.44C25.94,27.25,24.64,27,24.64,27Z"/><path d="M21.93,29.4s1.08,0,2.69.17c0.8,0.08,1.74.15,2.75,0.27s2.07,0.25,3.14.4,2.13,0.31,3.12.48,1.92,0.36,2.71.5C37.93,31.53,39,31.8,39,31.8s-1.08,0-2.69-.17c-0.8-.08-1.74-0.15-2.75-0.27s-2.07-.25-3.14-0.4-2.13-.31-3.12-0.49-1.92-.36-2.71-0.5C23,29.67,21.93,29.4,21.93,29.4Z"/><path d="M22.23,32.21s1.34,0.1,3.35.34c1,0.13,2.17.26,3.41,0.44s2.57,0.39,3.9.6,2.65,0.45,3.89.69,2.39,0.48,3.38.68c2,0.42,3.28.75,3.28,0.75s-1.34-.1-3.35-0.34c-1-.13-2.17-0.26-3.41-0.44s-2.57-.39-3.9-0.6-2.65-.45-3.89-0.69S26.49,33.17,25.5,33C23.53,32.55,22.23,32.21,22.23,32.21Z"/><path d="M563.39,14.34l22,1.17,8.09,0.43c2.58,0.17,5,.38,7,0.55,4.12,0.37,6.86.71,6.86,0.71v0.07s-2.76,0-6.9-.19c-2.07-.09-4.48-0.2-7.06-0.37l-8.08-.62-22-1.69V14.34Z"/><path d="M564.46,20.37l29.13-.26c3.64,0,7.28-.09,10.69-0.07,1.71,0,3.36,0,4.92,0l4.41,0.06c5.46,0.1,9.1.26,9.1,0.26v0.08s-3.64.16-9.1,0.26l-4.41.06c-1.56,0-3.21,0-4.92,0-3.41,0-7.05,0-10.69-.07l-29.13-.26V20.37Z"/><path d="M564.46,24.2L589,23.94l9-.09c2.88,0,5.56.05,7.86,0.09,4.6,0.1,7.67.26,7.67,0.26v0.08s-3.07.16-7.67,0.26c-2.3,0-5,.09-7.86.09l-9-.09-24.54-.26V24.2Z"/><path d="M565.21,28.82l22.31-.26,8.19-.09c2.61,0,5.05.05,7.15,0.09,4.18,0.1,7,.26,7,0.26v0.07s-2.79.16-7,.26c-2.09,0-4.53.09-7.15,0.09l-8.19-.09-22.31-.26V28.82Z"/><path d="M565.22,32L592,34.54l9.82,0.94c3.13,0.33,6,.69,8.55,1,5,0.62,8.32,1.13,8.32,1.13v0.07s-3.36-.19-8.38-0.61c-2.51-.22-5.44-0.48-8.57-0.8l-9.8-1.12-26.69-3.05V32Z"/><path d="M565.22,37.59l19.41,1.82,7.13,0.68c2.27,0.24,4.39.53,6.2,0.76,3.62,0.49,6,.91,6,0.91v0.07s-2.44-.1-6.09-0.39c-1.82-.16-3.95-0.33-6.22-0.58L584.57,40l-19.36-2.35V37.59Z"/><path d="M566,42.3l19.41,1.82,7.13,0.68c2.27,0.24,4.39.53,6.2,0.76,3.62,0.49,6,.91,6,0.91v0.07s-2.44-.1-6.09-0.39c-1.82-.16-3.95-0.33-6.22-0.58l-7.11-.86L566,42.37V42.3Z"/><path d="M566,37.59l19.41,1.82,7.13,0.68c2.27,0.24,4.39.53,6.2,0.76,3.62,0.49,6,.91,6,0.91v0.07s-2.44-.1-6.09-0.39c-1.82-.16-3.95-0.33-6.22-0.58L585.36,40,566,37.66V37.59Z"/><path d="M562.19-.29l3.09,28.63c0.38,3.58.79,7.15,1.11,10.51,0.16,1.68.34,3.3,0.46,4.84L567.22,48c0.43,5.38.62,9,.62,9h-0.07s-0.51-3.57-1.14-8.93l-0.49-4.33c-0.18-1.54-.32-3.16-0.49-4.84-0.34-3.36-.64-6.94-1-10.53L562.12-.29h0.07Z"/><path d="M555.31,0.17l4.31,27.46c0.54,3.43,1.1,6.86,1.56,10.09,0.23,1.61.48,3.17,0.67,4.65l0.55,4.17c0.66,5.17,1,8.63,1,8.63h-0.07s-0.67-3.41-1.52-8.55l-0.68-4.15c-0.25-1.47-.45-3-0.7-4.64-0.49-3.22-.94-6.67-1.42-10.11L555.24,0.18h0.07Z"/><path d="M548.31,9.42l6.57,22.82,2.41,8.38c0.74,2.68,1.38,5.2,1.93,7.36,1.09,4.32,1.72,7.22,1.72,7.22l-0.07,0s-0.95-2.82-2.23-7.08c-0.63-2.14-1.37-4.63-2.11-7.31l-2.23-8.43-6.07-23Z"/><path d="M375.94,84.93a9.12,9.12,0,0,1,.79-0.61,14.43,14.43,0,0,1,3.87-1.84,9,9,0,0,1,1-.22,9,9,0,0,1-.79.61,14.43,14.43,0,0,1-3.87,1.84A9.12,9.12,0,0,1,375.94,84.93Z"/><path d="M370.43,83.72s0.59-.41,1.5-1,2.17-1.23,3.44-1.85S378,79.72,379,79.34s1.69-.58,1.69-0.58-0.59.42-1.5,1S377,81,375.7,81.57s-2.58,1.18-3.58,1.56S370.43,83.72,370.43,83.72Z"/><path d="M367,80s0.52-.41,1.33-1,1.93-1.23,3.07-1.85,2.32-1.19,3.23-1.57S376.2,75,376.2,75s-0.52.41-1.33,1-1.93,1.23-3.07,1.85-2.32,1.19-3.23,1.57S367,80,367,80Z"/><path d="M379.61,89.64s-1.2-1.35-2.92-3.43c-0.85-1-1.87-2.25-2.92-3.58l-3.28-4.15-3.2-4.21c-1-1.34-1.93-2.63-2.74-3.72C363,68.36,362,66.86,362,66.86s1.2,1.35,2.93,3.43c0.85,1,1.87,2.25,2.92,3.58L371.08,78l3.2,4.21c1,1.34,1.93,2.63,2.74,3.72C378.6,88.14,379.61,89.64,379.61,89.64Z"/><path d="M380.84,88.07s-0.85-.9-2.06-2.32c-0.59-.71-1.31-1.53-2-2.43s-1.5-1.87-2.26-2.84-1.51-2-2.19-2.9S371,75.76,370.44,75c-1.07-1.52-1.73-2.57-1.73-2.57s0.85,0.9,2.06,2.31c0.59,0.71,1.31,1.53,2,2.43s1.5,1.87,2.26,2.84,1.51,2,2.19,2.9,1.31,1.82,1.85,2.58C380.18,87,380.84,88.07,380.84,88.07Z"/></svg>