<svg id="Slip_lines_grains_elongated" data-name="Slip lines (grains elongated" xmlns="http://www.w3.org/2000/svg" viewBox="0 0 500 50"><title>M_SlipLinesGrainElongated</title><path d="M143.76,3.15s1.12-.29,2.82-0.64c0.85-.16,1.84-0.38,2.9-0.56s2.2-.37,3.34-0.55,2.28-.33,3.36-0.47,2.08-.23,2.94-0.33C160.85,0.43,162,.38,162,0.38s-1.12.29-2.82,0.64c-0.85.16-1.84,0.38-2.9,0.56s-2.2.37-3.34,0.55-2.28.33-3.36,0.46-2.08.23-2.94,0.33C144.92,3.09,143.76,3.15,143.76,3.15Z"/><path d="M152.31,5.19L152.85,5c0.34-.12.83-0.24,1.42-0.4s1.29-.29,2-0.42,1.56-.19,2.37-0.29c3.22-.42,6.45-0.78,6.45-0.78V3.19s-3.18.68-6.36,1.3c-0.8.16-1.59,0.34-2.34,0.47s-1.46.2-2.07,0.24-1.12.07-1.48,0.07h-0.57V5.19Z"/><path d="M158.72,6.15s1.21-.35,3-0.73c0.92-.18,2-0.4,3.15-0.58l3.64-.47c4.95-.66,9.9-1.26,9.9-1.26V3.19s-4.91.92-9.83,1.78L165,5.61c-1.16.18-2.24,0.29-3.17,0.39-1.87.18-3.12,0.22-3.12,0.22V6.15Z"/><path d="M165.13,8.29l0.28-.13a7.26,7.26,0,0,1,.75-0.26,7.68,7.68,0,0,1,1.08-.22c0.4,0,.83,0,1.26-0.06,1.72-.1,3.44-0.14,3.44-0.14V7.57s-1.69.36-3.38,0.66c-0.42.08-.84,0.18-1.24,0.24a7.68,7.68,0,0,1-1.1,0,7.26,7.26,0,0,1-.79-0.08l-0.3-.06V8.29Z"/><path d="M189.07,19.36s3.37,0.52,8.42,1.38l8.61,1.51L216,24.05,225.79,26c3.14,0.61,6.06,1.23,8.57,1.73,5,1,8.34,1.79,8.34,1.79s-3.37-.51-8.42-1.37c-2.52-.44-5.46-0.93-8.61-1.51l-9.85-1.81L206,22.88l-8.57-1.73C192.4,20.11,189.07,19.36,189.07,19.36Z"/><path d="M185.19,22.52s4,0.47,10,1.26l10.26,1.39,11.75,1.67L229,28.61l10.22,1.61c6,1,10,1.67,10,1.67s-4-.47-10-1.25l-10.26-1.39-11.75-1.67-11.73-1.77L195.15,24.2C189.17,23.23,185.19,22.52,185.19,22.52Z"/><path d="M181.73,25.35l11.95,1.33,12.23,1.47,14,1.76,14,1.86,12.2,1.69L258,35.22l-11.95-1.33-12.23-1.47-14-1.76-14-1.86-12.2-1.69Z"/><path d="M179.15,27.63l13.35,1.66,13.67,1.8,15.66,2.14,15.65,2.24,13.64,2,13.29,2.07-13.35-1.66-13.67-1.8L221.73,34l-15.65-2.24-13.64-2Z"/><path d="M176.65,29.48l3.12,0.37,8.23,1,11.62,1.5,13.31,1.8,13.3,1.9,11.59,1.73L246,39.07l3.11,0.5L246,39.2l-8.23-1-11.62-1.5-13.31-1.8L199.54,33,188,31.27,179.76,30Z"/><path d="M175.7,30.89s2.26,0.27,5.64.75c1.69,0.26,3.66.52,5.77,0.87l6.6,1.08,6.58,1.17c2.1,0.37,4.05.78,5.73,1.09,3.35,0.66,5.57,1.17,5.57,1.17s-2.26-.26-5.64-0.75c-1.69-.26-3.66-0.52-5.77-0.87l-6.6-1.08L187,33.15c-2.1-.37-4.05-0.78-5.73-1.09C177.92,31.39,175.7,30.89,175.7,30.89Z"/><path d="M172.47,33.53l3,0.51,8,1.36,11.25,2,12.88,2.38,12.86,2.48,11.21,2.23,7.92,1.65,3,0.63-3-.51-8-1.36-11.25-2-12.88-2.38L194.59,38,183.39,35.8l-7.92-1.65Z"/><path d="M270.79,0.4s1.67,0.9,4.12,2.32c1.22,0.72,2.66,1.54,4.17,2.47l4.74,2.9,4.69,3c1.5,0.95,2.86,1.89,4.05,2.66,2.36,1.58,3.9,2.68,3.9,2.68s-1.67-.9-4.12-2.32c-1.22-.72-2.66-1.54-4.17-2.47l-4.74-2.9-4.69-3c-1.5-1-2.86-1.89-4.05-2.66C272.33,1.5,270.79.4,270.79,0.4Z"/><path d="M266.41,1s1.58,0.81,3.9,2.1c1.15,0.66,2.52,1.4,3.95,2.24L278.73,8l4.43,2.72c1.42,0.87,2.71,1.73,3.83,2.44,2.23,1.45,3.68,2.46,3.68,2.46s-1.58-.81-3.9-2.1c-1.15-.66-2.52-1.4-3.94-2.24l-4.48-2.64-4.43-2.73c-1.41-.87-2.71-1.73-3.83-2.44C267.86,2.05,266.41,1,266.41,1Z"/><path d="M260,0.7s1.54,0.87,3.8,2.24c1.12,0.7,2.45,1.48,3.84,2.38L272,8.11,276.34,11c1.38,0.92,2.63,1.82,3.72,2.57,2.16,1.52,3.57,2.59,3.57,2.59s-1.54-.86-3.8-2.24c-1.12-.7-2.45-1.48-3.84-2.38l-4.36-2.79-4.31-2.88c-1.38-.92-2.63-1.82-3.72-2.57C261.43,1.77,260,.7,260,0.7Z"/><path d="M255,0.7s1.54,0.83,3.8,2.16c1.12,0.67,2.45,1.43,3.84,2.3l4.36,2.7,4.3,2.78c1.38,0.89,2.63,1.76,3.72,2.49,2.16,1.48,3.57,2.51,3.57,2.51s-1.54-.83-3.8-2.16c-1.12-.67-2.45-1.43-3.84-2.3l-4.36-2.7-4.3-2.79c-1.37-.89-2.63-1.76-3.72-2.49C256.37,1.74,255,.7,255,0.7Z"/><path d="M255.79,4.18s0.83,0.34,2,.92,2.78,1.42,4.32,2.3,3.05,1.83,4.16,2.58,1.82,1.3,1.82,1.3-0.83-.34-2-0.92-2.78-1.42-4.32-2.3-3.05-1.83-4.16-2.58S255.79,4.18,255.79,4.18Z"/><path d="M248,0.4s1.33,0.78,3.27,2c1,0.63,2.1,1.35,3.3,2.16s2.46,1.68,3.73,2.55,2.51,1.77,3.68,2.62,2.24,1.67,3.16,2.35c1.84,1.39,3,2.37,3,2.37s-1.33-.78-3.27-2c-1-.63-2.1-1.35-3.3-2.16s-2.46-1.68-3.73-2.55S255.31,6,254.15,5.12,251.91,3.46,251,2.77C249.15,1.37,248,.4,248,0.4Z"/><path d="M37,40.15s3.62-.32,9.06-0.7l9.29-.62L66,38.21l10.66-.52,9.3-.39C91.36,37.1,95,37,95,37s-3.62.32-9.06,0.7l-9.29.61L66,39l-10.66.52-9.3.39C40.59,40.07,37,40.15,37,40.15Z"/><path d="M35.55,42.44s4-.36,9.89-0.81l10.15-.73,11.64-.76,11.64-.66L89,39C95,38.7,99,38.58,99,38.58s-4,.36-9.89.81l-10.15.73-11.64.76-11.64.66L45.47,42C39.52,42.31,35.55,42.44,35.55,42.44Z"/><path d="M34.43,44.26s3.79-.23,9.49-0.5l9.73-.41L64.81,43,76,42.69l9.74-.18c5.7-.08,9.5-0.07,9.5-0.07s-3.79.23-9.49,0.5L76,43.34l-11.16.38L53.67,44l-9.74.18C38.24,44.26,34.43,44.26,34.43,44.26Z"/><path d="M30.88,46.78s3.86-.21,9.66-0.44l9.9-.35,11.35-.32,11.36-.22,9.91-.12c5.8,0,9.67,0,9.67,0s-3.86.21-9.66,0.44l-9.9.35-11.35.32-11.36.22-9.91.12C34.75,46.81,30.88,46.78,30.88,46.78Z"/><path d="M30.88,49.26l12.36-.6,12.67-.51,14.53-.51L85,47.24,97.64,47,110,46.78l-12.36.6L85,47.89l-14.53.5-14.53.41-12.68.28Z"/><path d="M72.32,1.26s0,0.13,0,.35-0.11.52-.2,0.88a10,10,0,0,1-.42,1.19C71.45,4.09,71.21,4.52,71,5c-0.88,1.75-1.82,3.48-1.82,3.48l-0.07,0s0.64-1.86,1.34-3.69c0.17-.46.32-0.93,0.5-1.35a10,10,0,0,1,.59-1.11c0.2-.31.37-0.57,0.51-0.74s0.22-.27.22-0.27Z"/><path d="M75,0.92s0,0.18-.09.49-0.18.75-.32,1.27S74.21,3.81,74,4.43s-0.57,1.27-.86,1.93C72,9,70.74,11.61,70.74,11.61l-0.07,0s0.91-2.73,1.88-5.44c0.23-.68.46-1.36,0.7-2s0.51-1.2.76-1.68,0.46-.88.64-1.15,0.27-.42.27-0.42Z"/><path d="M77.49,0.92s-0.17,1-.56,2.36c-0.2.7-.44,1.51-0.74,2.36s-0.68,1.74-1,2.64c-1.38,3.61-2.83,7.19-2.83,7.19l-0.07,0s1.14-3.69,2.34-7.36c0.29-.92.57-1.85,0.86-2.7s0.64-1.63.91-2.3C76.95,1.75,77.42.9,77.42,0.9Z"/><path d="M79.68,0.92s0,0.14,0,.38,0,0.57-.09,1a11.69,11.69,0,0,1-.26,1.34c-0.14.48-.32,1-0.49,1.48-0.64,2-1.35,4-1.35,4l-0.07,0s0.39-2.1.84-4.17c0.1-.52.2-1,0.31-1.53A11.7,11.7,0,0,1,79,2.12c0.16-.37.29-0.68,0.41-0.89s0.19-.33.19-0.33Z"/><path d="M83.24,0.55s0,0.17-.06.47-0.13.71-.25,1.2-0.28,1.05-.49,1.65S82,5.07,81.7,5.69c-1,2.49-2,5-2,5l-0.07,0s0.73-2.58,1.53-5.14c0.19-.64.37-1.29,0.57-1.89s0.44-1.13.66-1.59,0.41-.83.56-1.09,0.24-.4.24-0.4Z"/><path d="M84.85,0.54a1.42,1.42,0,0,1,.09.18,3.14,3.14,0,0,1,.17.49,3,3,0,0,1,.09.69c0,0.25-.06.52-0.09,0.79-0.1,1.07-.26,2.15-0.26,2.15H84.78s-0.17-1.07-.26-2.15c0-.27-0.08-0.54-0.09-0.79a3,3,0,0,1,.09-0.69A3.14,3.14,0,0,1,84.68.72,1.42,1.42,0,0,1,84.78.54h0.07Z"/><path d="M22.47,17.27s-1.33.07-3.31,0c-1,0-2.15-.06-3.39-0.15l-3.87-.36c-5.27-.47-10.53-1-10.53-1V15.71s5.29,0.21,10.57.48l3.88,0.18c1.24,0.09,2.39.22,3.37,0.33,2,0.24,3.28.49,3.28,0.49v0.07Z"/><path d="M27.87,15.5s-1.6,0-4-.23c-1.19-.11-2.58-0.22-4.06-0.41l-4.62-.66c-6.3-.87-12.59-1.82-12.59-1.82V12.31S9,12.93,15.28,13.61l4.65,0.48c1.48,0.18,2.85.41,4,.59,2.35,0.39,3.91.74,3.91,0.74V15.5Z"/><path d="M35.55,13.94s-2.16-.19-5.38-0.62c-1.61-.22-3.49-0.48-5.49-0.8l-6.26-1.11-17-3.05V8.29l17.13,2.53,6.29,0.94c2,0.33,3.86.68,5.46,1,3.19,0.62,5.3,1.13,5.3,1.13v0.07Z"/><path d="M40.37,12.39s-2.39-.24-5.94-0.74c-1.78-.26-3.85-0.55-6.06-0.93L21.45,9.47,2.62,6V6L21.55,8.87,28.5,10c2.21,0.37,4.27.77,6,1.11,3.52,0.69,5.86,1.25,5.86,1.25v0.07Z"/><path d="M30.38,7.79s-1.93-.19-4.81-0.6c-1.44-.22-3.11-0.46-4.9-0.79L15.09,5.31l-15.2-3V2.24L15.2,4.72l5.61,0.92c1.79,0.32,3.45.67,4.87,1,2.84,0.61,4.72,1.11,4.72,1.11V7.79Z"/><path d="M15.14,6.59s-1-.06-2.36-0.29C12.08,6.18,11.27,6,10.4,5.84S8.64,5.37,7.73,5.12c-3.65-1-7.29-2-7.29-2l0-.07s3.71,0.7,7.41,1.47c0.93,0.18,1.86.36,2.72,0.55s1.65,0.44,2.33.64c1.35,0.42,2.24.79,2.24,0.79Z"/><path d="M325.29,6.39c3.42,1.42,6.8,2.91,10.18,4.41,1.7,0.74,3.37,1.53,5.05,2.29l5,2.31-0.07,0,5.15,1.25c1.72,0.42,3.43.82,5.14,1.27,3.42,0.87,6.84,1.75,10.25,2.71-3.47-.66-6.93-1.4-10.38-2.15-1.73-.36-3.45-0.77-5.17-1.16l-5.16-1.18h0l0,0-5-2.37c-1.67-.8-3.35-1.57-5-2.39C331.9,9.72,328.58,8.09,325.29,6.39Z"/><path d="M329.29,4.19c3.44,1.43,6.85,2.91,10.25,4.41s6.79,3,10.18,4.57l-0.06,0c2.2,0.57,4.39,1.18,6.58,1.79l6.57,1.82,6.55,1.89c2.18,0.65,4.36,1.29,6.53,2-2.22-.51-4.42-1.05-6.63-1.59l-6.61-1.67-6.59-1.74c-2.2-.58-4.4-1.15-6.59-1.77h-0.06c-3.37-1.58-6.75-3.12-10.1-4.74S332.61,5.86,329.29,4.19Z"/><path d="M332.92,1.42c3.86,1.65,7.68,3.37,11.5,5.11,1.92,0.85,3.81,1.76,5.71,2.64l5.7,2.66-0.09,0,6,1.09c2,0.37,4,.72,6,1.11,4,0.77,8,1.54,11.94,2.4-4-.56-8-1.19-12-1.84-2-.31-4-0.67-6-1l-6-1h0l0,0-5.68-2.71c-1.89-.91-3.79-1.8-5.67-2.73C340.41,5.21,336.64,3.36,332.92,1.42Z"/><path d="M338.81,0.4l7.56,3.72c2.26,1.13,4.92,2.4,7.76,3.76,1.43,0.66,2.91,1.36,4.43,1.94l0.57,0.2,0.53,0.11c0.41,0,.83.07,1.26,0.14,0.86,0.11,1.67.24,2.52,0.36l9.76,1.64c3.11,0.53,6,1.1,8.49,1.56,5,0.94,8.26,1.64,8.26,1.64s-3.34-.46-8.33-1.22l-18.3-2.88c-0.83-.13-1.67-0.27-2.48-0.38-0.4-.06-0.82-0.11-1.23-0.15-0.2,0-.47-0.09-0.69-0.15l-0.6-.22c-1.58-.61-3-1.33-4.47-2-2.85-1.38-5.44-2.79-7.68-4C341.73,2.1,338.81.4,338.81,0.4Z"/><path d="M346.62,0.4q4.93,2,9.81,4l4.88,2.06,4.86,2.1-0.1,0c5,0.57,10,1.26,15,1.9s10,1.39,14.92,2.19c-5-.45-10-1-15-1.55s-10-1.16-15-1.84h-0.05l0,0-4.84-2.15-4.82-2.19Q351.4,2.69,346.62.4Z"/><path d="M353.66,0.74s1.77,0.55,4.4,1.44c1.31,0.46,2.85,1,4.48,1.54l5.13,1.79c0.87,0.31,1.74.62,2.6,0.91,0.43,0.14.86,0.28,1.27,0.39l0.29,0.07c0.07,0,.06,0,0,0l0.2,0a4.51,4.51,0,0,1,.74.05c1.75,0.25,3.31.66,4.67,1,2.7,0.65,4.48,1.18,4.48,1.18l-4.57-.76c-1.36-.24-3-0.51-4.66-0.73a4.13,4.13,0,0,0-.57,0H372a0.84,0.84,0,0,1-.29,0l-0.36-.07c-0.45-.11-0.88-0.24-1.32-0.38-0.88-.27-1.75-0.57-2.63-0.87l-5.1-1.89c-1.62-.61-3.12-1.24-4.41-1.76C355.34,1.52,353.66.74,353.66,0.74Z"/><path d="M414.52,44.54s1.18,0,2.94.14c0.88,0.07,1.9.13,3,.24s2.26,0.23,3.43.37,2.33,0.29,3.42.45,2.1,0.34,3,.48c1.74,0.3,2.89.56,2.89,0.56s-1.18,0-2.94-.14c-0.88-.07-1.9-0.13-3-0.24S425,46.17,423.79,46s-2.33-.29-3.42-0.46-2.1-.34-3-0.48C415.67,44.8,414.52,44.54,414.52,44.54Z"/><path d="M426,49.09s-1.39,0-3.47-.15c-1-.08-2.25-0.14-3.55-0.25s-2.68-.24-4.06-0.38-2.76-.3-4-0.47-2.49-.35-3.52-0.49C405.33,47,404,46.78,404,46.78s1.39,0,3.47.15c1,0.08,2.25.14,3.55,0.25s2.68,0.24,4.06.38,2.76,0.3,4,.47,2.49,0.35,3.52.49C424.67,48.83,426,49.09,426,49.09Z"/><path d="M406.35,49.09s-1,0-2.59-.15c-0.77-.08-1.68-0.14-2.64-0.25s-2-.24-3-0.38-2-.3-3-0.47-1.84-.35-2.61-0.49C391,47,390,46.78,390,46.78s1,0,2.59.15c0.77,0.08,1.68.14,2.64,0.25s2,0.24,3,.38,2,0.3,3,.47,1.84,0.35,2.61.49C405.34,48.83,406.35,49.09,406.35,49.09Z"/><path d="M396.37,49.09s-0.92,0-2.29-.15-3.18-.35-5-0.64-3.59-.64-4.93-1S382,46.78,382,46.78s0.92,0,2.29.15,3.18,0.35,5,.64,3.59,0.64,4.93,1S396.37,49.09,396.37,49.09Z"/><path d="M116,43.34a8.52,8.52,0,0,1-.07,1,13.42,13.42,0,0,1-1.2,4,8.39,8.39,0,0,1-.48.84,8.4,8.4,0,0,1,.07-1,13.42,13.42,0,0,1,1.2-4A8.53,8.53,0,0,1,116,43.34Z"/><path d="M118.12,48a1.16,1.16,0,0,1,.14.24A0.56,0.56,0,0,1,118,49a0.22,0.22,0,0,1-.4-0.15,0.56,0.56,0,0,1,.28-0.74A1.16,1.16,0,0,1,118.12,48Z"/><path d="M122.52,45.29a4.35,4.35,0,0,1,0,.68,6.31,6.31,0,0,1-1.07,2.61,4.29,4.29,0,0,1-.44.51,4.29,4.29,0,0,1,0-.68,6.31,6.31,0,0,1,1.07-2.61A4.35,4.35,0,0,1,122.52,45.29Z"/><path d="M439.75,17.56s-0.53,1.21-1.4,3c-0.45.88-.94,1.92-1.52,3s-1.19,2.25-1.82,3.4-1.28,2.3-1.9,3.36-1.22,2-1.73,2.89c-1,1.68-1.77,2.78-1.77,2.78s0.53-1.21,1.4-3c0.45-.88.94-1.92,1.52-3s1.19-2.25,1.82-3.4,1.28-2.3,1.9-3.36,1.22-2,1.73-2.89C439,18.65,439.75,17.56,439.75,17.56Z"/><path d="M441.62,17.61s-0.51,1.41-1.35,3.48c-0.43,1-.92,2.25-1.47,3.53s-1.16,2.65-1.77,4-1.25,2.71-1.85,4S434,35,433.48,36c-1,2-1.74,3.31-1.74,3.31s0.51-1.41,1.35-3.48c0.43-1,.91-2.25,1.47-3.53s1.16-2.65,1.77-4,1.25-2.71,1.85-4,1.2-2.43,1.69-3.43C440.9,18.91,441.62,17.61,441.62,17.61Z"/><path d="M444.12,17.46s-0.3,1-.84,2.58c-0.28.76-.58,1.66-1,2.61s-0.77,2-1.17,3-0.84,2-1.26,2.92-0.83,1.78-1.17,2.52c-0.7,1.47-1.23,2.42-1.23,2.42s0.3-1,.84-2.58c0.28-.76.58-1.66,1-2.61s0.77-2,1.18-3,0.84-2,1.26-2.92,0.83-1.78,1.17-2.52C443.6,18.42,444.12,17.46,444.12,17.46Z"/><path d="M446.16,17.71s0,0.47-.11,1.16a19.77,19.77,0,0,1-1.4,4.82c-0.29.63-.52,1-0.52,1s0-.47.11-1.16a19.77,19.77,0,0,1,1.4-4.82C445.92,18.12,446.16,17.71,446.16,17.71Z"/><path d="M448,18.41s-0.13.83-.4,2.06-0.7,2.85-1.18,4.45-1,3.18-1.48,4.36-0.81,1.94-.81,1.94,0.13-.83.4-2.06,0.7-2.85,1.18-4.45,1-3.18,1.49-4.36S448,18.41,448,18.41Z"/><path d="M450.5,18.41s0,0.56-.19,1.37a28.18,28.18,0,0,1-1.72,5.75c-0.33.76-.6,1.24-0.6,1.24s0-.56.18-1.37a28.18,28.18,0,0,1,1.72-5.74C450.23,18.9,450.5,18.41,450.5,18.41Z"/><path d="M452.87,17.87a4.6,4.6,0,0,1,0,.7,6.73,6.73,0,0,1-.74,2.82,4.54,4.54,0,0,1-.38.59,4.53,4.53,0,0,1,0-.7,6.73,6.73,0,0,1,.74-2.82A4.6,4.6,0,0,1,452.87,17.87Z"/><path d="M454.12,17.87s0,0.81-.15,2-0.35,2.8-.64,4.39-0.65,3.16-1,4.33-0.58,1.94-.58,1.94,0-.81.15-2,0.36-2.8.64-4.39,0.65-3.16,1-4.33S454.12,17.87,454.12,17.87Z"/><path d="M456.29,18s-0.06.77-.23,1.9-0.46,2.63-.8,4.11-0.76,2.95-1.11,4-0.65,1.8-.65,1.8,0.06-.77.23-1.9,0.46-2.63.8-4.11,0.76-2.95,1.12-4S456.29,18,456.29,18Z"/><path d="M458.29,18s0,0.56-.19,1.39a29.2,29.2,0,0,1-1.75,5.85c-0.33.77-.6,1.27-0.6,1.27s0-.57.19-1.39a29.2,29.2,0,0,1,1.75-5.85C458,18.5,458.29,18,458.29,18Z"/><path d="M431,22.59s3-.12,7.45-0.21c2.23,0,4.84-.1,7.63-0.11l8.75,0,8.75,0.05c2.79,0,5.4.09,7.63,0.12,4.47,0.09,7.45.21,7.45,0.21s-3,.12-7.45.21c-2.23,0-4.84.1-7.63,0.11l-8.75,0L446,22.92c-2.79,0-5.4-.09-7.63-0.12C433.94,22.71,431,22.59,431,22.59Z"/><path d="M431.75,24.82s2-.12,5.12-0.21c1.54,0,3.33-.1,5.25-0.11l6,0,6,0c1.92,0,3.71.08,5.25,0.11,3.07,0.09,5.12.21,5.12,0.21s-2,.12-5.12.21c-1.54,0-3.33.1-5.25,0.11l-6,0-6,0c-1.92,0-3.71-.08-5.25-0.11C433.79,24.94,431.75,24.82,431.75,24.82Z"/><path d="M426,26.77s2.16-.12,5.39-0.21c1.62,0,3.5-.1,5.53-0.11l6.33,0,6.33,0c2,0,3.91.08,5.53,0.11,3.23,0.09,5.39.21,5.39,0.21s-2.16.12-5.39,0.21c-1.62,0-3.5.1-5.53,0.11l-6.33,0-6.33,0c-2,0-3.91-.08-5.53-0.11C428.15,26.89,426,26.77,426,26.77Z"/><path d="M494.47,46.78a2.43,2.43,0,0,1,.4.29,3,3,0,0,1,.91,1.71,2.4,2.4,0,0,1,0,.49,2.4,2.4,0,0,1-.4-0.29,3,3,0,0,1-.91-1.71A2.43,2.43,0,0,1,494.47,46.78Z"/><path d="M494.74,45.66a1.44,1.44,0,0,1,.35,0,1.24,1.24,0,0,1,.95.77,1.43,1.43,0,0,1,.08.34,1.43,1.43,0,0,1-.35,0,1.24,1.24,0,0,1-.94-0.77A1.44,1.44,0,0,1,494.74,45.66Z"/><path d="M494.56,42.93A2.24,2.24,0,0,1,495,43a2.67,2.67,0,0,1,1.44,1.11,2.21,2.21,0,0,1,.2.42,2.21,2.21,0,0,1-.46-0.08,2.67,2.67,0,0,1-1.44-1.11A2.23,2.23,0,0,1,494.56,42.93Z"/><polygon points="293.15 41.61 299.87 45.05 299.68 45 299.69 45 299.81 45.01 299.88 45.05 306.17 49.09 299.5 45.7 299.69 45.75 299.68 45.75 299.58 45.76 299.49 45.7 293.15 41.61"/><path d="M311.94,49.09a3.84,3.84,0,0,1-.4-0.17c-0.24-.12-0.6-0.27-1-0.49-0.83-.43-1.9-1-2.94-1.72s-2-1.4-2.76-2-1.18-1-1.18-1,0.58,0.24,1.41.67,1.9,1,2.94,1.72,2,1.4,2.76,2S311.94,49.09,311.94,49.09Z"/><path d="M316.87,49.09s-0.64-.24-1.56-0.66-2.11-1-3.27-1.71-2.29-1.41-3.11-2-1.35-1-1.35-1,0.64,0.23,1.56.65,2.11,1,3.27,1.72,2.29,1.4,3.11,2S316.87,49.09,316.87,49.09Z"/><path d="M291.58,46.35s1.35-.28,3.38-0.62c1-.16,2.2-0.36,3.48-0.54s2.64-.36,4-0.53,2.73-.32,4-0.44,2.48-.21,3.51-0.31c2.06-.16,3.43-0.2,3.43-0.2S312,44,310,44.33c-1,.16-2.2.37-3.48,0.54s-2.64.36-4,.53-2.73.32-4,.44-2.48.21-3.51,0.31C293,46.31,291.58,46.35,291.58,46.35Z"/><path d="M297.65,49.06s2.08-.51,5.23-1.18c1.57-.32,3.4-0.73,5.38-1.11l6.18-1.19,6.2-1.09c2-.35,3.83-0.62,5.42-0.88,3.18-.49,5.3-0.76,5.3-0.76s-2.08.51-5.23,1.18c-1.57.32-3.4,0.73-5.38,1.11l-6.18,1.19-6.2,1.09c-2,.35-3.83.62-5.42,0.88C299.78,48.79,297.65,49.06,297.65,49.06Z"/><path d="M311,49.09s0.48-.18,1.21-0.38a23.84,23.84,0,0,1,5.46-.77c0.76,0,1.27,0,1.27,0s-0.48.19-1.21,0.39a23.82,23.82,0,0,1-5.46.77C311.47,49.14,311,49.09,311,49.09Z"/><path d="M112.22,7.9L112.53,8c0.2,0.1.45,0.26,0.76,0.46a9.66,9.66,0,0,1,1,.76c0.33,0.31.66,0.67,1,1C116.64,11.63,118,13,118,13l0,0.06s-1.55-1.16-3.05-2.38c-0.38-.3-0.77-0.59-1.12-0.88A9.66,9.66,0,0,1,112.89,9c-0.23-.29-0.42-0.52-0.54-0.71S112.17,8,112.17,8Z"/><path d="M113.91,5s0.55,0.29,1.34.78S117,7,118,7.77s1.89,1.57,2.55,2.22,1.07,1.12,1.07,1.12-0.55-.29-1.34-0.78-1.78-1.21-2.75-2S115.65,6.78,115,6.14,113.91,5,113.91,5Z"/><path d="M115.07,3.49s0.81,0.44,2,1.17,2.68,1.75,4.17,2.82,2.92,2.2,4,3.08,1.72,1.52,1.72,1.52-0.81-.44-2-1.17-2.68-1.75-4.16-2.82-2.92-2.2-4-3.08S115.07,3.49,115.07,3.49Z"/><path d="M117.95,0.38s0.78,0.59,1.88,1.54c0.54,0.48,1.19,1,1.86,1.64s1.37,1.28,2.07,2,1.38,1.36,2,2,1.2,1.29,1.69,1.82c1,1.08,1.58,1.84,1.58,1.84s-0.78-.59-1.88-1.54c-0.54-.48-1.19-1-1.86-1.64s-1.37-1.28-2.07-2-1.38-1.36-2-2-1.2-1.29-1.69-1.82C118.56,1.14,117.95.38,117.95,0.38Z"/><path d="M125.57,1.14s0.15,0.12.4,0.36,0.59,0.57,1,1,0.83,0.93,1.29,1.49,0.87,1.2,1.32,1.83c1.82,2.47,3.59,5,3.59,5l-0.06,0s-2-2.31-4-4.66c-0.5-.58-1-1.16-1.46-1.72s-0.83-1.12-1.14-1.6-0.57-.9-0.73-1.2-0.25-.47-0.25-0.47Z"/><path d="M148.32,49.09a8.17,8.17,0,0,1-.4-0.85,12.83,12.83,0,0,1-.83-4,8,8,0,0,1,0-.94,8.05,8.05,0,0,1,.4.85,12.83,12.83,0,0,1,.82,4A8.17,8.17,0,0,1,148.32,49.09Z"/><path d="M154.27,49.09S154,48.66,153.73,48a22.23,22.23,0,0,1-1.45-5.12c-0.1-.73-0.12-1.22-0.12-1.22s0.24,0.43.54,1.11a22.23,22.23,0,0,1,1.45,5.12C154.25,48.6,154.27,49.09,154.27,49.09Z"/><path d="M159.56,49.09s-0.33-.49-0.75-1.25A31.37,31.37,0,0,1,156.38,42c-0.24-.83-0.35-1.41-0.35-1.41s0.33,0.49.75,1.25a31.37,31.37,0,0,1,2.43,5.84C159.44,48.52,159.56,49.09,159.56,49.09Z"/><path d="M165.34,49.09s-0.4-.5-0.94-1.3-1.2-1.88-1.8-3-1.15-2.27-1.52-3.15-0.57-1.5-.57-1.5,0.4,0.5.95,1.3,1.2,1.88,1.8,3,1.15,2.27,1.52,3.15S165.34,49.09,165.34,49.09Z"/><path d="M142.48,44.25a5.77,5.77,0,0,1,.21.76,8.73,8.73,0,0,1,0,3.33,5.68,5.68,0,0,1-.22.75,5.69,5.69,0,0,1-.21-0.76,8.73,8.73,0,0,1,0-3.33A5.77,5.77,0,0,1,142.48,44.25Z"/><path d="M311.29,18.12s0.2,1.15.42,2.87c0.1,0.86.23,1.87,0.33,3s0.2,2.24.29,3.39,0.15,2.31.2,3.4,0.06,2.1.09,3c0,1.74,0,2.9,0,2.9s-0.2-1.15-.42-2.87c-0.1-.86-0.23-1.87-0.33-3s-0.2-2.24-.29-3.39-0.15-2.31-.2-3.4-0.07-2.1-.09-3C311.25,19.28,311.29,18.12,311.29,18.12Z"/><path d="M313.49,18.17s0.33,1.19.75,3c0.19,0.9.45,1.95,0.67,3.07s0.46,2.33.68,3.54,0.42,2.42.59,3.56,0.31,2.2.44,3.12c0.24,1.83.33,3.06,0.33,3.06s-0.33-1.19-.75-3c-0.19-.9-0.45-1.95-0.67-3.07s-0.45-2.33-.68-3.54-0.42-2.42-.59-3.56-0.31-2.2-.44-3.12C313.58,19.4,313.49,18.17,313.49,18.17Z"/><path d="M316.94,18.25s0.53,1.2,1.24,3c0.34,0.92.77,2,1.18,3.14s0.84,2.39,1.27,3.63,0.82,2.48,1.18,3.66,0.68,2.28,1,3.22c0.54,1.89.84,3.17,0.84,3.17s-0.53-1.2-1.24-3c-0.34-.92-0.77-2-1.18-3.14s-0.84-2.39-1.27-3.63-0.82-2.48-1.18-3.66-0.68-2.27-1-3.22C317.25,19.53,316.94,18.25,316.94,18.25Z"/><path d="M319,21.88s2-.1,5-0.16c1.5,0,3.26-.07,5.14-0.06H335l5.89,0.11c1.88,0,3.63.12,5.13,0.17,3,0.12,5,.26,5,0.26s-2,.1-5,0.16c-1.5,0-3.26.07-5.14,0.06H335l-5.89-.11c-1.88,0-3.63-.12-5.13-0.17C321,22,319,21.88,319,21.88Z"/><path d="M320,26.63s2.47-.24,6.18-0.5c1.86-.12,4-0.29,6.34-0.41l7.27-.39,7.28-.29c2.32-.1,4.49-0.13,6.35-0.18,3.72-.08,6.2-0.08,6.2-0.08s-2.47.24-6.18,0.5c-1.86.12-4,.29-6.34,0.41l-7.27.39-7.28.29c-2.32.09-4.49,0.13-6.35,0.18C322.49,26.63,320,26.63,320,26.63Z"/><path d="M322.37,30.9s2.62-.22,6.56-0.47c2-.11,4.26-0.27,6.72-0.38l7.71-.36,7.72-.26c2.46-.09,4.76-0.11,6.73-0.15,3.94-.07,6.57-0.05,6.57-0.05s-2.62.23-6.56,0.47c-2,.11-4.26.27-6.72,0.38l-7.71.36-7.72.26c-2.46.08-4.76,0.11-6.73,0.15C325,30.91,322.37,30.9,322.37,30.9Z"/><path d="M322.92,34.22s2-.22,5.11-0.46c1.53-.11,3.32-0.26,5.24-0.37l6-.35,6-.25c1.92-.08,3.71-0.1,5.25-0.14,3.08-.06,5.13,0,5.13,0s-2,.22-5.11.46c-1.53.11-3.32,0.27-5.24,0.37l-6,.35-6,.25c-1.92.08-3.71,0.1-5.25,0.14C325,34.24,322.92,34.22,322.92,34.22Z"/><path d="M488.78,16.31s0.53,0.46,1.26,1.19,1.65,1.76,2.53,2.82,1.7,2.17,2.28,3,0.93,1.47.93,1.47-0.53-.46-1.26-1.19-1.65-1.76-2.53-2.82-1.7-2.17-2.28-3S488.78,16.31,488.78,16.31Z"/><path d="M492.28,15.4s0.46,0.38,1.08,1a31.83,31.83,0,0,1,4,4.94c0.47,0.74.75,1.26,0.75,1.26s-0.46-.38-1.08-1a31.46,31.46,0,0,1-2.14-2.37A31.7,31.7,0,0,1,493,16.66C492.56,15.92,492.28,15.4,492.28,15.4Z"/><path d="M496.6,14.13s0.59,0.54,1.43,1.39,1.89,2,2.9,3.25,2,2.48,2.65,3.45,1.09,1.66,1.09,1.66-0.59-.54-1.43-1.39-1.89-2-2.9-3.25-2-2.48-2.65-3.45S496.6,14.13,496.6,14.13Z"/><path d="M143.6,21.66S144.18,22.18,145,23s1.86,2,2.86,3.16,1.94,2.41,2.61,3.37,1.08,1.62,1.08,1.62-0.59-.52-1.41-1.35-1.86-2-2.86-3.16-1.94-2.42-2.61-3.37S143.6,21.66,143.6,21.66Z"/><path d="M145.78,20.41s0.79,0.65,1.9,1.69c0.55,0.53,1.2,1.12,1.88,1.79s1.38,1.39,2.08,2.12,1.39,1.47,2,2.18,1.2,1.39,1.7,2c1,1.16,1.59,2,1.59,2s-0.79-.65-1.9-1.69c-0.55-.53-1.21-1.12-1.88-1.79s-1.38-1.39-2.08-2.12-1.39-1.47-2-2.18-1.2-1.39-1.7-2C146.39,21.23,145.78,20.41,145.78,20.41Z"/><path d="M149.75,20.41s0.61,0.5,1.48,1.29,2,1.9,3,3S156.3,27.08,157,28s1.16,1.58,1.16,1.58-0.61-.49-1.48-1.29-2-1.9-3-3-2.06-2.34-2.78-3.26S149.75,20.41,149.75,20.41Z"/><path d="M152.85,23.79s0.4-.35,1-0.82a26,26,0,0,1,5-2.78c0.74-.29,1.25-0.44,1.25-0.44s-0.4.35-1,.82a25.69,25.69,0,0,1-2.44,1.53,25.88,25.88,0,0,1-2.6,1.25C153.37,23.64,152.85,23.79,152.85,23.79Z"/><path d="M155.68,26s0.64-.45,1.64-1.06,2.36-1.36,3.75-2.06,2.81-1.33,3.9-1.77,1.83-.68,1.83-0.68-0.64.45-1.64,1.06-2.36,1.36-3.75,2.05-2.81,1.33-3.9,1.77S155.68,26,155.68,26Z"/><path d="M159.31,30.23s0.85-.6,2.17-1.42c0.67-.4,1.43-0.89,2.27-1.37s1.74-1,2.65-1.49,1.82-1,2.69-1.42,1.69-.82,2.39-1.16c1.41-.66,2.37-1.05,2.37-1.05s-0.85.6-2.17,1.42c-0.67.4-1.43,0.89-2.27,1.37s-1.74,1-2.65,1.49-1.82,1-2.69,1.41-1.69.82-2.39,1.16C160.28,29.84,159.31,30.23,159.31,30.23Z"/><path d="M452.33,49.29s2.22-1.46,5.59-3.58c1.69-1,3.65-2.3,5.78-3.59l6.67-4,6.72-4c2.14-1.27,4.17-2.4,5.9-3.39,3.46-2,5.8-3.22,5.8-3.22s-2.22,1.46-5.59,3.58c-1.69,1-3.65,2.3-5.78,3.59l-6.67,4-6.72,4c-2.14,1.26-4.17,2.4-5.9,3.39C454.67,48,452.33,49.29,452.33,49.29Z"/><path d="M456.59,50.38s2-1.37,5.07-3.35c1.54-1,3.31-2.15,5.25-3.35L473,39.9l6.11-3.69c1.95-1.18,3.8-2.23,5.37-3.16,3.15-1.83,5.29-3,5.29-3s-2,1.37-5.07,3.35c-1.54,1-3.31,2.15-5.25,3.35l-6.06,3.77-6.11,3.69c-1.95,1.18-3.8,2.23-5.37,3.16C458.73,49.21,456.59,50.38,456.59,50.38Z"/><path d="M492.28,31.89s-1.58,1.25-4,3.06c-1.22.89-2.62,2-4.16,3.05l-4.82,3.43-4.87,3.35c-1.55,1.07-3,2-4.29,2.87-2.53,1.66-4.25,2.72-4.25,2.72s1.58-1.25,4-3.06c1.22-.89,2.62-2,4.16-3.05l4.82-3.43,4.88-3.35c1.55-1.07,3-2,4.29-2.87C490.56,32.95,492.28,31.89,492.28,31.89Z"/><path d="M494.47,32.75s-1.53,1.2-3.88,2.93c-1.18.85-2.54,1.87-4,2.92l-4.67,3.28-4.73,3.19c-1.51,1-2.95,1.93-4.16,2.73-2.45,1.58-4.12,2.58-4.12,2.58s1.53-1.2,3.88-2.93c1.18-.85,2.54-1.87,4-2.92l4.67-3.28,4.73-3.19c1.51-1,2.95-1.93,4.16-2.73C492.8,33.76,494.47,32.75,494.47,32.75Z"/><path d="M427.19,3s-0.12.52-.36,1.28a26,26,0,0,1-1.07,2.68,25.8,25.8,0,0,1-1.36,2.55c-0.42.67-.75,1.1-0.75,1.1s0.12-.52.36-1.28a26.09,26.09,0,0,1,2.43-5.23C426.86,3.38,427.19,3,427.19,3Z"/><path d="M429.67,3.57s-0.17.44-.49,1.06a20,20,0,0,1-1.33,2.15,19.83,19.83,0,0,1-1.59,2c-0.48.51-.84,0.81-0.84,0.81s0.17-.44.49-1.06a20,20,0,0,1,2.92-4.12C429.31,3.87,429.67,3.57,429.67,3.57Z"/><path d="M431.49,3.22s-0.28.82-.76,2S429.55,8,428.79,9.5s-1.57,3-2.23,4.13-1.14,1.81-1.14,1.81,0.27-.82.76-2,1.19-2.74,1.94-4.27,1.58-3,2.23-4.13S431.49,3.22,431.49,3.22Z"/><path d="M421,5.1s1.19-.12,3-0.21c0.89,0,1.94-.1,3.05-0.12s2.31,0,3.5,0,2.38,0,3.5,0,2.16,0.09,3.05.12c1.79,0.09,3,.21,3,0.21s-1.19.12-3,.21c-0.89,0-1.94.1-3.05,0.12s-2.31,0-3.5,0-2.38,0-3.5,0-2.16-.09-3.05-0.12C422.18,5.22,421,5.1,421,5.1Z"/><path d="M421,7.28s1.07-.12,2.68-0.21c0.8,0,1.74-.1,2.75-0.12s2.08,0,3.15,0,2.15,0,3.15,0,1.94,0.09,2.75.12c1.61,0.09,2.68.21,2.68,0.21s-1.07.12-2.68,0.21c-0.8,0-1.74.1-2.75,0.12s-2.08,0-3.15,0-2.15,0-3.15,0-1.94-.09-2.75-0.12C422.06,7.4,421,7.28,421,7.28Z"/><path d="M418.66,9.28s0.8-.11,2-0.19S423.47,9,425.08,9s3.21,0.1,4.41.21,2,0.24,2,.24-0.8.11-2,.19-2.81.12-4.41,0.1-3.21-.11-4.41-0.21S418.66,9.28,418.66,9.28Z"/><path d="M88.53,22s1.08,0.35,2.66,1c0.79,0.31,1.71.66,2.69,1.07s2,0.85,3,1.31,2.06,0.93,3,1.39,1.83,0.91,2.59,1.28c1.51,0.77,2.49,1.34,2.49,1.34s-1.08-.35-2.66-1c-0.79-.31-1.72-0.66-2.69-1.07s-2-.85-3-1.31-2.06-.93-3-1.39-1.83-.91-2.59-1.28C89.52,22.55,88.53,22,88.53,22Z"/><path d="M99,23.6s0.84,0.3,2.08.8,2.84,1.25,4.43,2,3.14,1.65,4.28,2.33S111.7,30,111.7,30s-0.84-.29-2.08-0.8-2.84-1.25-4.43-2-3.14-1.65-4.28-2.33S99,23.6,99,23.6Z"/><path d="M103,23.6s0.84,0.25,2.08.7,2.85,1.11,4.44,1.82,3.16,1.49,4.31,2.11,1.9,1.09,1.9,1.09-0.84-.25-2.08-0.7-2.85-1.11-4.44-1.82-3.16-1.49-4.31-2.11S103,23.6,103,23.6Z"/><path d="M87,25.65s1.35-.25,3.39-0.53c1-.13,2.21-0.3,3.48-0.45s2.64-.29,4-0.42,2.73-.24,4-0.33,2.48-.15,3.5-0.21c2.05-.1,3.43-0.11,3.43-0.11s-1.35.25-3.39,0.53c-1,.13-2.21.3-3.48,0.45s-2.64.28-4,.42-2.73.24-4,.33-2.48.15-3.51,0.21C88.34,25.64,87,25.65,87,25.65Z"/><path d="M93,27.74s2.09-.42,5.24-1c1.58-.26,3.41-0.59,5.38-0.88l6.18-.93,6.19-.83c2-.27,3.83-0.46,5.41-0.66,3.17-.36,5.3-0.54,5.3-0.54s-2.09.42-5.24,1c-1.58.26-3.41,0.59-5.38,0.88l-6.18.93-6.19.83c-2,.27-3.83.46-5.41,0.66C95.16,27.56,93,27.74,93,27.74Z"/><path d="M97.7,28.71s1-.23,2.57-0.49c0.77-.12,1.67-0.28,2.64-0.41s2-.26,3-0.38,2.07-.21,3-0.29,1.89-.12,2.67-0.17c1.56-.08,2.61-0.07,2.61-0.07s-1,.23-2.57.49c-0.77.12-1.67,0.28-2.64,0.41s-2,.26-3,0.38-2.07.21-3,.29-1.89.12-2.67,0.17C98.75,28.72,97.7,28.71,97.7,28.71Z"/></svg>