<svg id="Slip_lines_grain_Small_" data-name="Slip lines (grain Small)" xmlns="http://www.w3.org/2000/svg" viewBox="0 0 650 150"><defs><style>.cls-1{fill:#202020;}</style></defs><title>M_SlipLinesGrainSmall</title><path d="M43,50.18l15.76-3.4,5.79-1.24c1.85-.37,3.59-0.66,5.08-0.92,3-.49,5-0.73,5-0.73V44s-1.95.55-4.89,1.24c-1.47.33-3.19,0.73-5,1.1l-5.82,1.07L43,50.25V50.18Z"/><path d="M37.53,54l19.18-4.1,7-1.5C66,48,68.12,47.6,69.93,47.28c3.63-.63,6.06-0.95,6.06-0.95v0.07s-2.37.64-6,1.46c-1.8.4-3.89,0.87-6.14,1.32l-7.08,1.32L37.54,54.1V54Z"/><path d="M42.52,58.36l22-4.86,8.1-1.78c2.59-.54,5-1,7.1-1.38,4.16-.77,7-1.18,7-1.18l0,0.07S84,50,79.88,50.92c-2.06.47-4.47,1-7.06,1.57l-8.13,1.6L42.53,58.43Z"/><path d="M44.11,61.61L62.28,57.4l6.67-1.54c2.14-.46,4.14-0.84,5.86-1.18,3.44-.65,5.75-1,5.75-1l0,0.07s-2.24.65-5.64,1.49c-1.7.41-3.68,0.89-5.82,1.36L62.41,58l-18.28,3.7Z"/><path d="M47.3,67.69l22.81-6.56,8.38-2.4c2.68-.74,5.2-1.38,7.35-1.93,4.32-1.09,7.22-1.72,7.22-1.72l0,0.07s-2.82.95-7.08,2.22c-2.13.63-4.62,1.37-7.3,2.11l-8.42,2.23L47.32,67.77Z"/><path d="M58.07,69.15s2.64-.83,6.62-2c2-.57,4.32-1.26,6.82-1.95l7.83-2.15L87.21,61c2.51-.66,4.86-1.22,6.88-1.72,4-1,6.73-1.59,6.73-1.59s-2.64.83-6.62,2c-2,.57-4.31,1.26-6.82,1.95l-7.84,2.15-7.86,2.06c-2.51.66-4.86,1.22-6.88,1.72C60.77,68.55,58.07,69.15,58.07,69.15Z"/><path d="M59.56,77s2.29-.82,5.75-2c1.74-.56,3.75-1.25,5.93-1.93L78.06,71l6.85-2c2.18-.65,4.24-1.2,6-1.71,3.51-1,5.88-1.57,5.88-1.57s-2.29.82-5.75,2c-1.74.56-3.75,1.25-5.93,1.93l-6.82,2.13-6.85,2c-2.18.65-4.24,1.2-6,1.71C61.92,76.41,59.56,77,59.56,77Z"/><path d="M61.3,72.19l14.28-4.11,5.25-1.5c1.68-.45,3.26-0.82,4.62-1.15,2.72-.63,4.55-1,4.55-1l0,0.07s-1.75.64-4.42,1.46c-1.34.4-2.89,0.87-4.57,1.33l-5.29,1.33-14.42,3.6Z"/><path d="M64.62,80.3s5.75-1.73,11.53-3.39l4.23-1.24C81.73,75.3,83,75,84.11,74.76,86.31,74.27,87.8,74,87.8,74l0,0.07s-1.41.55-3.56,1.23c-1.08.33-2.33,0.73-3.69,1.09L76.3,77.49C70.48,79,64.64,80.37,64.64,80.37Z"/><path d="M179.24,120.71s-0.76,1.05-2,2.54c-0.63.74-1.36,1.6-2.18,2.49l-2.64,2.72c-3.58,3.72-7.21,7.39-7.21,7.39l-0.06-.05s3.39-3.89,6.82-7.74l2.51-2.84c0.82-.89,1.63-1.68,2.32-2.36,1.39-1.35,2.38-2.19,2.38-2.19Z"/><path d="M181.44,122.28s-1,1.35-2.68,3.28c-0.83,1-1.8,2.08-2.88,3.25l-3.44,3.59L163,142.16,163,142.1,172,132l3.31-3.71c1.08-1.16,2.12-2.22,3-3.12,1.8-1.79,3.07-2.93,3.07-2.93Z"/><path d="M207.25,130.72v0Z"/><path d="M190.95,51.83l17.34,4.39,6.36,1.62c2,0.54,3.9,1.1,5.51,1.58,3.21,1,5.33,1.7,5.33,1.7l0,0.07s-2.2-.42-5.46-1.2c-1.63-.4-3.53-0.85-5.56-1.4l-6.32-1.79-17.2-4.89Z"/><path d="M183.81,52.72l21.08,5.38,7.74,2c2.46,0.66,4.75,1.33,6.71,1.89,3.92,1.15,6.5,2,6.5,2l0,0.07s-2.67-.55-6.63-1.51c-2-.49-4.29-1.05-6.76-1.71l-7.69-2.15L183.79,52.8Z"/><path d="M187,59l24.29,6,8.92,2.23c2.84,0.74,5.48,1.48,7.74,2.11,4.52,1.28,7.5,2.22,7.5,2.22l0,0.07s-3.07-.63-7.64-1.72c-2.28-.55-4.94-1.19-7.78-1.93l-8.87-2.4L187,59.09Z"/><path d="M187.21,62.71l20.11,4.8,7.38,1.77c2.35,0.59,4.53,1.2,6.4,1.71,3.73,1,6.2,1.83,6.2,1.83l0,0.07s-2.55-.47-6.33-1.33c-1.89-.44-4.09-0.94-6.44-1.53l-7.34-1.94-20-5.3Z"/><path d="M187.84,69.73l25.78,4.87,9.47,1.79c3,0.6,5.82,1.21,8.22,1.73,4.81,1.06,8,1.86,8,1.86V80s-3.25-.48-8.09-1.35c-2.42-.44-5.24-1-8.26-1.55l-9.43-2L187.83,69.8V69.73Z"/><path d="M198.07,76.14s3,0.5,7.53,1.34c2.25,0.43,4.89.91,7.7,1.47l8.81,1.76,8.79,1.86c2.81,0.59,5.41,1.2,7.66,1.69C243,85.28,246,86,246,86s-3-.5-7.53-1.34c-2.25-.43-4.89-0.9-7.7-1.47L222,81.45l-8.79-1.86c-2.81-.59-5.41-1.2-7.66-1.69C201,76.87,198.07,76.14,198.07,76.14Z"/><path d="M105,59l16.49-.26,6.05-.09c1.93,0,3.74.05,5.28,0.09C135.94,58.85,138,59,138,59v0.08s-2.06.16-5.15,0.26c-1.55,0-3.35.09-5.28,0.09l-6.05-.09L105,59.09V59Z"/><path d="M108.5,65.31l20.11-1.13,7.39-.41c2.36-.1,4.56-0.14,6.45-0.18,3.78-.06,6.3,0,6.3,0v0.07s-2.51.27-6.28,0.53c-1.89.12-4.08,0.27-6.44,0.37l-7.39.23-20.14.6V65.31Z"/><path d="M111.33,72.19l20.06-.55,7.37-.2c2.35,0,4.55,0,6.43,0,3.76,0,6.27.17,6.27,0.17v0.07s-2.51.2-6.27,0.35c-1.88.07-4.07,0.15-6.42,0.19l-7.37,0-20.07,0V72.19Z"/><path d="M110.26,77l19.23-1.26,7.06-.46c2.26-.12,4.36-0.17,6.17-0.23,3.61-.09,6-0.05,6-0.05V75s-2.4.29-6,.57c-1.8.13-3.9,0.3-6.16,0.41l-7.07.28L110.26,77V77Z"/><path d="M111.33,82.71l18.7-1.1,6.87-.4c2.19-.1,4.24-0.14,6-0.18,3.51-.06,5.86,0,5.86,0v0.07s-2.33.27-5.83,0.52c-1.75.12-3.8,0.26-6,.36l-6.87.22-18.72.57V82.71Z"/><path d="M123.22,86.44s5-.4,10.05-0.72l3.69-.26c1.18-.05,2.28-0.05,3.23-0.06,1.89,0,3.16.12,3.16,0.12v0.07s-1.25.22-3.13,0.4c-0.94.08-2,.19-3.22,0.24l-3.7.08c-5,.13-10.07.2-10.07,0.2V86.44Z"/><path d="M50.73,73.06s-0.93,1.43-2.42,3.48c-0.76,1-1.63,2.22-2.62,3.46l-3.15,3.85-8.6,10.46-0.06,0,8.19-10.79,3-4c1-1.25,1.94-2.37,2.76-3.35C49.5,74.24,50.67,73,50.67,73Z"/><path d="M53.56,75.68s-0.78,1.27-2.07,3.08c-0.65.9-1.4,2-2.26,3.05L46.5,85.19C42.78,89.8,39,94.38,39,94.38l-0.06,0s3.5-4.78,7.06-9.51l2.6-3.49c0.85-1.1,1.69-2.09,2.4-2.94,1.44-1.69,2.48-2.76,2.48-2.76Z"/><path d="M56.42,77.4s-0.75,1.25-2,3c-0.63.89-1.36,1.93-2.18,3l-2.66,3.33c-3.6,4.55-7.25,9.05-7.25,9.05l-0.06,0s3.39-4.71,6.84-9.37L51.62,83c0.83-1.08,1.64-2.05,2.33-2.89,1.4-1.67,2.41-2.72,2.41-2.72Z"/><path d="M61.07,80.21s-0.64,1.23-1.72,3c-0.55.87-1.18,1.9-1.9,3l-2.34,3.29c-3.17,4.49-6.4,8.94-6.4,8.94l-0.06,0s3-4.64,6-9.24l2.19-3.39c0.72-1.06,1.44-2,2.06-2.86C60.11,81.21,61,80.16,61,80.16Z"/><path d="M64,83.1s-0.07.18-.22,0.49-0.37.73-.65,1.24-0.64,1.07-1,1.67-0.89,1.19-1.35,1.8c-1.82,2.47-3.69,4.89-3.69,4.89l-0.06,0s1.6-2.61,3.26-5.19c0.41-.65.81-1.3,1.2-1.9s0.82-1.12,1.19-1.56,0.69-.81.93-1,0.38-.38.38-0.38Z"/><path d="M67.2,85.26s-0.05.16-.17,0.41-0.29.62-.51,1-0.52.89-.85,1.39-0.74,1-1.13,1.48c-1.52,2-3.09,4-3.09,4l-0.06,0s1.3-2.18,2.66-4.33c0.33-.54.66-1.09,1-1.59s0.68-.93,1-1.29,0.58-.66.79-0.85,0.33-.31.33-0.31Z"/><path d="M60.25,79.71S59.39,80.79,58,82.32c-0.7.76-1.52,1.64-2.43,2.55l-2.92,2.78c-4,3.81-8,7.57-8,7.57l-0.05-.05s3.78-4,7.6-7.94L55,84.32c0.91-.91,1.8-1.72,2.56-2.42,1.53-1.38,2.62-2.24,2.62-2.24Z"/><path d="M216.23,14.09s3.46-.78,8.68-1.86l8.91-1.81,10.23-2,10.25-1.9,9-1.58C268.51,4,272,3.5,272,3.5s-3.46.78-8.68,1.86l-8.91,1.81-10.23,2-10.25,1.89-9,1.58C219.74,13.54,216.23,14.09,216.23,14.09Z"/><path d="M221.34,16.7s2.5-.6,6.26-1.41c1.88-.39,4.08-0.88,6.44-1.35l7.39-1.46,7.41-1.36c2.37-.44,4.58-0.79,6.48-1.12,3.8-.63,6.34-1,6.34-1s-2.5.6-6.26,1.41c-1.88.39-4.08,0.88-6.44,1.34l-7.39,1.46-7.41,1.36c-2.37.44-4.58,0.79-6.48,1.12C223.88,16.33,221.34,16.7,221.34,16.7Z"/><path class="cls-1" d="M271.89,10.63c0.06,0,0-.07,0-0.08S271.9,10.64,271.89,10.63Z"/><polygon class="cls-1" points="270.92 10.98 270.94 10.95 270.8 11.04 270.92 10.98"/><path class="cls-1" d="M270,11.17a1.15,1.15,0,0,0,.51-0.08l0,0,0.06-.11A3,3,0,0,1,270,11.17Z"/><path class="cls-1" d="M269.44,11s-0.1.06,0.12,0h0Z"/><path class="cls-1" d="M269.54,11c0.1,0-.07,0,0,0h0Z"/><path class="cls-1" d="M269.09,11.13l0.12-.07s-0.15,0-.11,0C269,11.08,269,11.1,269.09,11.13Z"/><path class="cls-1" d="M269,11.23l0.06,0S269,11.2,269,11.23Z"/><path class="cls-1" d="M269.18,11.14L269,11.2s0,0.05.06,0S269.12,11.18,269.18,11.14Z"/><path class="cls-1" d="M269.26,11.14c0.08,0,.17,0,0.05.07C269.56,11.15,269.51,11.07,269.26,11.14Z"/><path class="cls-1" d="M270,11.29h0.1l0.08-.06A0.61,0.61,0,0,0,270,11.29Z"/><path class="cls-1" d="M268.27,11.23a0.33,0.33,0,0,0,.07.08l0.09,0A0.26,0.26,0,0,1,268.27,11.23Z"/><path class="cls-1" d="M268.34,11.32l-0.13.07C268.33,11.37,268.35,11.34,268.34,11.32Z"/><polygon class="cls-1" points="268.98 11.36 269.2 11.23 268.94 11.38 268.98 11.36"/><polygon class="cls-1" points="267.72 11.34 267.79 11.27 267.66 11.38 267.72 11.34"/><path class="cls-1" d="M267.36,11.43c0.05-.06-0.1-0.06,0-0.1a0.77,0.77,0,0,0-.24.14A0.49,0.49,0,0,1,267.36,11.43Z"/><path class="cls-1" d="M267,11.54l0.12-.08Z"/><path class="cls-1" d="M268,11.43a0.16,0.16,0,0,0-.13,0l0.07,0.06H268Z"/><path class="cls-1" d="M267.9,11.44h0l-0.12,0Z"/><path class="cls-1" d="M268,11.42h0Z"/><path class="cls-1" d="M268.59,11.38c-0.08.05-.24,0.13-0.06,0.15S268.48,11.46,268.59,11.38Z"/><path class="cls-1" d="M268.06,11.49l0.16,0s0,0,0-.06Z"/><polygon class="cls-1" points="267.99 11.53 268.06 11.49 268 11.5 267.99 11.53"/><path class="cls-1" d="M267.23,11.55a0.63,0.63,0,0,1-.21.08l0.27,0S267.32,11.53,267.23,11.55Z"/><path class="cls-1" d="M267.56,11.5h0S267.56,11.51,267.56,11.5Z"/><path class="cls-1" d="M266.22,11.79h0Z"/><path class="cls-1" d="M267.3,11.6a0.19,0.19,0,0,0,.14-0.05l-0.15,0S267.28,11.61,267.3,11.6Z"/><path class="cls-1" d="M266.74,11.61h0.12A0.16,0.16,0,0,0,266.74,11.61Z"/><path class="cls-1" d="M267.52,11.49h0S267.51,11.48,267.52,11.49Z"/><path class="cls-1" d="M267.52,11.49l-0.08.06,0.1,0h0Z"/><path class="cls-1" d="M266.07,12.27a0.27,0.27,0,0,1,.32-0.12c0.14-.08,0-0.26-0.15-0.35,0,0,0,.05-0.14.12,0.06,0,.35,0,0.23.09a0.28,0.28,0,0,1-.27,0c0.1,0.06-.23.17-0.16,0.27l0.17-.08S266,12.27,266.07,12.27Z"/><path class="cls-1" d="M266.52,11.75l0.06,0a0.66,0.66,0,0,1-.23,0,0.17,0.17,0,0,0-.12.1l0.31-.05h0Z"/><path class="cls-1" d="M266.86,11.67c0,0.08-.18.14-0.07,0.19a0.44,0.44,0,0,0,.22-0.13c-0.29.08,0.08-.06-0.14-0.05l0.15-.05h-0.15s0,0,0,0h0v0c-0.09,0,0,0,0,0h0l-0.29.1Z"/><path class="cls-1" d="M268.4,11.71h0S268.37,11.72,268.4,11.71Z"/><path class="cls-1" d="M268.28,11.7a0.15,0.15,0,0,1,.1-0.05c0.06,0,0,0,0,.05s0.14-.08,0-0.09h0a0.5,0.5,0,0,1-.27-0.07A0.48,0.48,0,0,0,268.28,11.7Z"/><path class="cls-1" d="M267.56,11.7l-0.24.08,0.14,0v0C267.59,11.77,267.55,11.73,267.56,11.7Z"/><polygon class="cls-1" points="266.19 11.76 266.2 11.68 266.08 11.81 266.19 11.76"/><polygon class="cls-1" points="265.87 11.84 265.87 11.77 265.79 11.83 265.87 11.84"/><path class="cls-1" d="M248.1,16.27l-0.07,0Z"/><path class="cls-1" d="M248.62,16.16v0S248.59,16.17,248.62,16.16Z"/><path class="cls-1" d="M258.07,13.43c-0.12,0-.25-0.1-0.22,0l0,0.06A0.38,0.38,0,0,1,258.07,13.43Z"/><path class="cls-1" d="M252.8,14.93h0l0.06-.08Z"/><path class="cls-1" d="M252.79,15.23l-0.15,0Z"/><path class="cls-1" d="M245.27,16.92L245.2,17C245.33,17,245.27,17,245.27,16.92Z"/><path class="cls-1" d="M262.62,12.52a1,1,0,0,0-.23,0C262.5,12.55,262.6,12.59,262.62,12.52Z"/><path class="cls-1" d="M248.15,15.5s-0.06,0-.05.05S248.16,15.51,248.15,15.5Z"/><path class="cls-1" d="M262.13,12.58h0.05a0.92,0.92,0,0,1,.21-0.06A0.32,0.32,0,0,0,262.13,12.58Z"/><path class="cls-1" d="M235,19h0Z"/><path class="cls-1" d="M231.81,18.88l0.12,0Z"/><path class="cls-1" d="M264.58,12.07c0.07,0,0,0,0,0h0Z"/><path class="cls-1" d="M265,12.27a0,0,0,0,0,0,0A0.06,0.06,0,0,1,265,12.27Z"/><path class="cls-1" d="M261.54,13.15h0S261.55,13.15,261.54,13.15Z"/><path class="cls-1" d="M264.69,12.08h0Z"/><path class="cls-1" d="M264.67,12h0.06S264.73,12,264.67,12Z"/><path class="cls-1" d="M264.49,12.09l0.11,0h0Z"/><path class="cls-1" d="M240.44,17.65h0C240.36,17.69,240.39,17.68,240.44,17.65Z"/><polygon class="cls-1" points="256.46 14.5 256.46 14.5 256.45 14.5 256.46 14.5"/><path class="cls-1" d="M256.23,14.6a0.23,0.23,0,0,1,.23-0.11l-0.12-.18Z"/><path class="cls-1" d="M246.85,16.54l0.18,0c-0.18.14-.34,0.14-0.16,0.19,0-.22.66-0.16,0.64-0.38l0.12,0-0.07,0a1.36,1.36,0,0,0,.42-0.21c0.1,0,.18,0,0.11.05l0.21-.1c0.06,0,.06,0,0,0l0.33-.08h0a1.5,1.5,0,0,1,.19-0.15c0.09,0,0,0,0,.05l0.17-.09c0.09,0-.06.13-0.18,0.14,0.22,0.18.14-.08,0.54,0l-0.17.06a1.06,1.06,0,0,0,.48.06c-0.05,0-.43-0.11-0.24-0.21a0.35,0.35,0,0,0,.23-0.07c0,0.08.12,0,.25,0V16a0.48,0.48,0,0,0,.19-0.17,0.24,0.24,0,0,1,.26.11c0.26,0-.2-0.09.1-0.17a1.38,1.38,0,0,0,.6-0.19c0.16,0,0,.07,0,0.09l0.11-.11s0,0,0,0a0.43,0.43,0,0,1,.16-0.17,4.16,4.16,0,0,0,.58-0.08c0.06,0,0,.07,0,0.1a2.11,2.11,0,0,0,.46-0.27l0.22,0c-0.17,0,0-.17.16-0.28l-0.15-.06,0.26-.11s0,0.05,0,.1l0,0c0.1,0,.07.09,0,0.16l-0.11,0a0.25,0.25,0,0,0-.08.21l0.08,0s0,0,0,0a0.13,0.13,0,0,0,.07-0.05L253,15.2v0h0.37a2.6,2.6,0,0,1,.81-0.51c-0.08.1,0,.14,0,0.24a1.17,1.17,0,0,0-.52.13c0.11,0,.1,0,0.07.06l0.35-.17c0,0.08.09,0,.2,0.06-0.11-.14.26-0.16,0.4-0.24s0,0.11-.19.14a4.11,4.11,0,0,0,.45-0.18,0.09,0.09,0,0,0-.08,0c0.1-.07.36-0.08,0.31,0h0a1.68,1.68,0,0,0,.93-0.33,0.76,0.76,0,0,1,0,.2l0.44-.56c0,0.12.21,0.36,0,.48a0.57,0.57,0,0,0,.31-0.07c-0.05,0-.16-0.14-0.09-0.17a1.47,1.47,0,0,0,.39.11c-0.08,0,0-.21.08-0.22a0.55,0.55,0,0,1,0,.2l0.25-.24c-0.07,0,0,.15.09,0.19a1.54,1.54,0,0,1,.32-0.08l-0.13,0c0.33,0,.27-0.31.59-0.37,0,0,0,.25.12,0.23a1.45,1.45,0,0,1,.51-0.63l0.07,0,0.21-.1a4.4,4.4,0,0,1-.62.68,0.29,0.29,0,0,0,.23,0c0.07,0-.08.09-0.14,0.11l0.43-.05a2.74,2.74,0,0,1,.27-0.26l-0.44.2a0.55,0.55,0,0,1,.51-0.4c0.08,0,0,.2,0,0.23a0.57,0.57,0,0,1,.3-0.11l-0.12.08a1.2,1.2,0,0,1,.46-0.14,0.37,0.37,0,0,0,.23,0,0.68,0.68,0,0,1-.18-0.57,2.73,2.73,0,0,1,.48.09,1.74,1.74,0,0,1,0,.32,0.18,0.18,0,0,1,.08-0.1c0.08,0,0,.1.14,0.05,0-.11.32-0.06,0.06-0.11a1.65,1.65,0,0,1,.35-0.05c-0.07-.06.11-0.27,0.26-0.33a0.1,0.1,0,0,0,.06.07c0.32-.05.5,0,0.79-0.1,0,0,.18,0,0.13.08a0.36,0.36,0,0,1,.16-0.09c0.19,0.06-.2.06,0,0.14a0.81,0.81,0,0,1,.34-0.2,0.49,0.49,0,0,0-.42.11,0.61,0.61,0,0,1,.47-0.44c0.24-.08.12,0.06,0.16,0a3.59,3.59,0,0,1,.75-0.29c0.17,0.05,0,.17.09,0.22a1.86,1.86,0,0,1-.45,0h0.17a0.48,0.48,0,0,1-.26.08c0.14,0.05.78-.14,1.15-0.15,0.06,0,.16-0.09.1-0.12l-0.11,0c-0.12,0,.19-0.14,0-0.14a1,1,0,0,1,.51-0.19l0.06,0.09a0.22,0.22,0,0,0-.2,0,0.74,0.74,0,0,0,.42-0.08l-0.16,0a1.18,1.18,0,0,1,.5-0.23,1.41,1.41,0,0,0-.2-0.06c0.14,0.12-.48.09-0.27,0.2a2.06,2.06,0,0,0-.45-0.08s0.08,0-.09.06l0,0h0l0.09,0a1.75,1.75,0,0,1-.39.19c-0.1,0,0,0,0-.07l-0.12.08c0-.07-0.27-0.07-0.06-0.15l-0.2,0a0.72,0.72,0,0,0-.38.05c-0.1,0-.22.13-0.15,0.05l-0.3.11v0a2.79,2.79,0,0,1-1,.19,1.19,1.19,0,0,1-.38.1l0-.05a1.63,1.63,0,0,0-.46.1,1.87,1.87,0,0,0-.89.11v0.08a2.78,2.78,0,0,0-.5.16l0,0.07a3.86,3.86,0,0,1-.72.1,0.15,0.15,0,0,1,.14,0,7.53,7.53,0,0,0-1,.2,0.25,0.25,0,0,1-.18,0h0l-0.11,0,0.09,0-0.22.07-0.05-.07h0c-0.09,0-.06,0,0,0.1l-0.1.07c-0.09-.11-0.21.09-0.33,0a1.24,1.24,0,0,0-.43.28s0,0,0,0a0.48,0.48,0,0,0-.27.06l-0.06-.09-0.18.17c-0.14,0-.2-0.06-0.09-0.16-0.28.18-.23,0.09-0.46,0.26V14a0.59,0.59,0,0,1-.28.09c-0.23-.08-1,0.19-1.55.18,0.14,0.16-.26,0-0.25.11,0,0-.12,0,0-0.1a1.38,1.38,0,0,0-.57.17,0.34,0.34,0,0,1,0-.1,0.13,0.13,0,0,1-.11,0s0,0,.07-0.07a0.27,0.27,0,0,0-.26.33,0.25,0.25,0,0,0-.3.09c-0.06,0-.15-0.06,0-0.11a1.07,1.07,0,0,0-.58.16,0.23,0.23,0,0,0-.16,0,4.25,4.25,0,0,0-.44.08h0.06c-0.06.14-.17,0.06-0.33,0.11h0c-0.4,0-.16.08-0.56,0.05l0,0.07a1.14,1.14,0,0,1-.57.08l0.09,0a1.38,1.38,0,0,1-.51-0.15s0,0,.07,0c-0.34,0,0,.11-0.25.18-0.05,0,0-.15-0.13-0.13a2.14,2.14,0,0,1-.67.21c0.06,0,.11.06,0,0.12a1.12,1.12,0,0,0-.61.1l0,0a1.85,1.85,0,0,0-.47.23c-0.17-.24-0.78.29-0.82,0l-0.39.09v0a0.6,0.6,0,0,0-.41.19c-0.06,0,0,0,0,0a1,1,0,0,0-.7.23l0-.07a4.7,4.7,0,0,0-.91.15,0.06,0.06,0,0,1,0,0c-0.39.18-1,0-1.11,0.3l-0.26.13c0.35,0,0,.13.13,0.15-0.13,0-.37,0-0.21-0.06h0a1.12,1.12,0,0,0-.46-0.07c-0.69.15-1.37,0.2-2,.33l0.1,0.1-0.23,0c-0.06,0-.1-0.07.06-0.1a0.27,0.27,0,0,0-.26.14c-0.32,0,.1-0.16,0-0.14l-0.13,0h0a0.47,0.47,0,0,1-.29.15,0.2,0.2,0,0,1-.13-0.05s0,0-.07,0l-0.28,0,0.13,0.07c-0.12.07-.27,0-0.12,0.13a4.59,4.59,0,0,0-1.19.13,1.41,1.41,0,0,1-.55.17c0.06,0,.11.1-0.08,0.13,0-.23-0.36,0-0.54-0.14,0.15,0.07-.52.13-0.28,0.23-0.16,0,0-.08-0.15-0.1a10.35,10.35,0,0,1-1.27.23s0.08,0.06,0,.12l-0.27-.09c-0.09,0,0,.18-0.23.11,0,0,.07,0,0,0.07a21.45,21.45,0,0,1-2.75.41c0.13,0,.05.05,0,0.07,0.06,0,0,.07,0,0.1l-0.4,0c0,0.12-.4.09-0.42,0.2l0.12,0c-0.14.15,0.28,0.22,0.28,0.37a3.34,3.34,0,0,0,.76-0.15c0.07,0,0,.06,0,0.09a0.37,0.37,0,0,1,.32-0.12l0,0a9,9,0,0,1,1.21-.15l-0.05-.07a0.52,0.52,0,0,1,.2,0c0.11-.14-0.32.06-0.23-0.09,0.18,0.12.8-.16,0.93,0,0.17,0-.07-0.08.11-0.11l0.06,0,0-.07a0.18,0.18,0,0,1,.2.07L235,19a1.94,1.94,0,0,0,.47-0.1h-0.17a14.88,14.88,0,0,0,1.49-.38l0,0a4.32,4.32,0,0,1,.66-0.13h0a0.66,0.66,0,0,1,.27-0.11c-0.09.06,0.2,0,.08,0.11a0.73,0.73,0,0,0,.4-0.28l0.07,0a0.43,0.43,0,0,1,.26-0.15c-0.15.08,0.14,0.06,0,.17a2.68,2.68,0,0,1,.79-0.1c0.15-.2-0.37,0-0.27-0.07-0.1,0,.13-0.15.26-0.16a1.45,1.45,0,0,0,.58.09l-0.06,0a2,2,0,0,1,.39-0.07c0.06-.11.19,0,0.19-0.16l-0.29.09a1.06,1.06,0,0,1,.58-0.23,0.5,0.5,0,0,1-.14.11c0.09,0,.15-0.06.24,0a1.59,1.59,0,0,1-.51.23c0.1,0,.32-0.16.26,0a1.76,1.76,0,0,1,.51-0.22V17.7a0.51,0.51,0,0,1,.16-0.08l-0.1.12a2.35,2.35,0,0,1,.52-0.08c-0.35.07-.1-0.07-0.26-0.1,0.42-.19.29,0.14,0.78,0-0.06,0-.26,0-0.16-0.05a0.84,0.84,0,0,1,.29,0c0.32-.08-0.07-0.07.06-0.14s0.15-.07.29-0.13l0,0.08c0.38,0,.07-0.18.41-0.19l-0.12.13,0.17-.06,0,0.09a0.74,0.74,0,0,1,.43-0.11c-0.05,0,0-.14.16-0.18s0,0.09.18,0a0.15,0.15,0,0,1-.2.08s0,0.06,0,.09a1,1,0,0,0,.39-0.07h-0.09l0.32-.17c0.06,0,0,0,0,.08A1.83,1.83,0,0,1,244.3,17a0.18,0.18,0,0,1-.13.19l0.31-.13s0.18,0,.14.07c0.19,0,.41-0.21.66-0.21a0.17,0.17,0,0,1,.08-0.05,1.61,1.61,0,0,0,.68-0.13l0.17,0.08c0.2-.07-0.23-0.1.1-0.21s0.11,0.08.2,0.09a0.69,0.69,0,0,1,.54-0.19A1.11,1.11,0,0,1,246.85,16.54Zm2.53-.57a0.21,0.21,0,0,1-.18.06C249.24,15.93,249.3,16,249.38,16Zm3.82-1a0.17,0.17,0,0,1-.16,0A0.35,0.35,0,0,1,253.21,15Zm10.65-2.72h0C263.74,12.28,263.78,12.28,263.86,12.28Zm0.23,0s0,0,0,0a0.18,0.18,0,0,1-.12,0A0.1,0.1,0,0,0,264.09,12.27Zm-24.48,5h0C239.57,17.34,239.59,17.31,239.61,17.29Z"/><path class="cls-1" d="M252.79,15.2a0.07,0.07,0,0,1,0,0S252.75,15.19,252.79,15.2Z"/><path class="cls-1" d="M245.28,16.9h0v0Z"/><path class="cls-1" d="M260.69,13.63l-0.1,0S260.62,13.64,260.69,13.63Z"/><path class="cls-1" d="M265.28,11.89l-0.14,0a0.27,0.27,0,0,1,.14,0S265.23,11.9,265.28,11.89Z"/><path class="cls-1" d="M266.64,12.1l0.06,0v0C266.6,12.07,266.54,12.11,266.64,12.1Z"/><path class="cls-1" d="M265.46,12.12c0,0.06.11,0,.21,0h0C265.67,12,265.56,12.06,265.46,12.12Z"/><path class="cls-1" d="M265.7,12.1l0.09,0S265.75,12.08,265.7,12.1Z"/><path class="cls-1" d="M264.37,12.16a0.28,0.28,0,0,0,0-.07C264.46,12,264.12,12.26,264.37,12.16Z"/><polygon class="cls-1" points="265.59 12.31 265.54 12.24 265.49 12.31 265.59 12.31"/><path class="cls-1" d="M264.77,12.42h0.17s0,0,0,0A0.45,0.45,0,0,0,264.77,12.42Z"/><path class="cls-1" d="M265,12.37a0.36,0.36,0,0,0,.13,0Z"/><polygon class="cls-1" points="265.37 12.38 265.32 12.37 265.2 12.39 265.37 12.38"/><path class="cls-1" d="M263,12.76l-0.17.06s0,0,.1,0S263,12.78,263,12.76Z"/><path class="cls-1" d="M263.59,12.87a0.17,0.17,0,0,1-.09,0v0.1Z"/><path class="cls-1" d="M263.08,13s-0.24.13,0,.08C263.07,13,263.24,13,263.08,13Z"/><polygon class="cls-1" points="260.36 13.42 260.41 13.41 260.37 13.25 260.36 13.42"/><path class="cls-1" d="M258.07,14.29c0.22,0,0-.11.23-0.1,0,0-.16,0-0.12-0.05C258.06,14.2,258,14.19,258.07,14.29Z"/><path class="cls-1" d="M258.18,14.14l0.06,0Z"/><polygon class="cls-1" points="231.3 18.89 231.15 18.89 231.25 18.93 231.3 18.89"/><path class="cls-1" d="M231.06,19.07L231,19l-0.06.11A0.16,0.16,0,0,1,231.06,19.07Z"/><path class="cls-1" d="M249.8,16.1v0a0.15,0.15,0,0,0-.12,0Z"/><polygon class="cls-1" points="247.94 16.4 247.98 16.4 247.9 16.32 247.94 16.4"/><path class="cls-1" d="M246.42,16.83l0.2-.05C246.49,16.82,246.38,16.72,246.42,16.83Z"/><path d="M231,21.75s1.52-.43,3.82-1c1.15-.27,2.49-0.61,3.93-0.92l4.52-1,4.54-.88c1.45-.28,2.81-0.49,4-0.7,2.33-.39,3.9-0.58,3.9-0.58s-1.52.43-3.82,1c-1.15.27-2.49,0.61-3.93,0.92l-4.52,1-4.54.88c-1.45.28-2.81,0.49-4,.7C232.57,21.55,231,21.75,231,21.75Z"/><path d="M231,29s1.74-.47,4.38-1.08c1.32-.29,2.85-0.67,4.51-1l5.18-1.07,5.2-1c1.66-.31,3.22-0.55,4.55-0.78,2.67-.43,4.46-0.66,4.46-0.66s-1.74.47-4.38,1.08c-1.32.29-2.85,0.67-4.51,1l-5.18,1.07-5.2,1c-1.66.31-3.22,0.55-4.55,0.78C232.79,28.77,231,29,231,29Z"/><path d="M239.3,30.22s1.22-.37,3.08-0.83c0.93-.22,2-0.5,3.18-0.76s2.41-.52,3.66-0.78,2.5-.49,3.68-0.69,2.28-.37,3.22-0.53c1.89-.29,3.16-0.42,3.16-0.42s-1.22.37-3.08,0.83c-0.93.22-2,.5-3.18,0.76s-2.41.52-3.66,0.78-2.5.49-3.68,0.69-2.28.37-3.22,0.53C240.57,30.09,239.3,30.22,239.3,30.22Z"/><path d="M232.5,33.92s1.43-.35,3.59-0.79c1.08-.21,2.34-0.47,3.7-0.71s2.8-.48,4.25-0.72,2.9-.45,4.26-0.63,2.64-.33,3.73-0.47c2.19-.26,3.66-0.37,3.66-0.37s-1.43.35-3.59,0.79c-1.08.21-2.34,0.47-3.7,0.71s-2.8.48-4.25,0.72-2.9.45-4.26,0.63-2.64.33-3.73,0.47C234,33.81,232.5,33.92,232.5,33.92Z"/><path d="M269.67,121.52s3.18,0,6.35.09c0.79,0,1.59,0,2.33,0s1.43,0.11,2,.2,1.08,0.17,1.43.25l0.54,0.12v0.07l-0.55.06c-0.35,0-.85.06-1.44,0.09s-1.29,0-2,0-1.53-.14-2.32-0.22c-3.16-.27-6.32-0.61-6.32-0.61v-0.07Z"/><path d="M264.92,125.16s5.39,0.32,10.77.71l4,0.27c1.26,0.11,2.43.27,3.43,0.4,2,0.28,3.33.56,3.33,0.56v0.07s-1.36,0-3.38,0c-1-.05-2.19-0.1-3.45-0.22l-3.94-.45c-5.36-.58-10.72-1.23-10.72-1.23v-0.07Z"/><path d="M261.67,129.25l15.5-.26,5.69-.09c1.82,0,3.51.05,5,.09,2.91,0.1,4.84.26,4.84,0.26v0.08s-1.94.16-4.84,0.26c-1.45,0-3.15.09-5,.09l-5.69-.09-15.5-.26v-0.08Z"/><path d="M261.67,132.15l13.85-.26,5.08-.09c1.62,0,3.14.05,4.44,0.09,2.6,0.1,4.33.26,4.33,0.26v0.07s-1.73.16-4.33,0.26c-1.3,0-2.81.09-4.44,0.09l-5.08-.09-13.85-.26v-0.07Z"/><path d="M264.92,135s5.45-.17,10.89-0.26l4-.09c1.28,0,2.47.05,3.49,0.09,2,0.1,3.4.26,3.4,0.26v0.07s-1.36.16-3.4,0.26c-1,0-2.21.09-3.49,0.09l-4-.09c-5.45-.1-10.89-0.26-10.89-0.26V135Z"/><path d="M264.92,137.14L278,138.78l4.8,0.61c1.53,0.22,2.95.48,4.16,0.7,2.43,0.46,4,.85,4,0.85V141s-1.65-.08-4.11-0.33c-1.23-.14-2.66-0.29-4.19-0.52l-4.78-.79-13-2.15v-0.07Z"/><path d="M264.92,140.93s4.76,0.54,9.5,1.16l3.49,0.43c1.11,0.17,2.14.37,3,.55,1.76,0.37,2.92.7,2.92,0.7v0.07s-1.21,0-3-.18c-0.89-.09-1.94-0.2-3-0.36l-3.46-.61c-4.72-.8-9.43-1.67-9.43-1.67v-0.07Z"/><path d="M185.86,119.5q0.09,2.86,0,5.71v0.11l-0.08.1c-2.55,3-5.35,5.81-8,8.71l-8.14,8.61-0.06-.05,7.81-8.9c2.64-2.94,5.15-6,7.92-8.8l-0.09.21q0.2-2.85.56-5.69h0.07Z"/><path d="M187.87,120.68c0.16,1.07.3,2.14,0.42,3.22s0.22,2.15.33,3.22v0.14l-0.1.12c-1.24,1.48-2.55,2.91-3.87,4.32l-3.94,4.25-7.9,8.49-0.06-.05,7.58-8.78,3.8-4.38c1.26-1.47,2.54-2.92,3.87-4.32l-0.09.26c0-1.08-.1-2.16-0.11-3.24s0-2.16,0-3.24h0.07Z"/><path d="M192.39,122.94c0.16,1.22.28,2.45,0.39,3.67s0.19,2.45.28,3.67v0.13l-0.09.12c-1.12,1.45-2.29,2.86-3.47,4.26L186,139l-7,8.45-0.06,0,6.71-8.71,3.36-4.35c1.11-1.45,2.24-2.9,3.4-4.32l-0.08.25c0-1.23-.05-2.46-0.06-3.69s0-2.46.05-3.69h0.07Z"/><path d="M195.77,126.17c0.22,1.09.39,2.19,0.52,3.29s0.25,2.2.3,3.31v0.16l-0.09.11c-2.67,3.09-5.3,6.22-8,9.29l-0.06,0c2.46-3.26,5-6.48,7.45-9.73l-0.08.27c-0.11-1.1-.15-2.21-0.18-3.32s0-2.22,0-3.33h0.07Z"/><path d="M191,122.26a22.73,22.73,0,0,1-.24,3.06c-0.14,1-.38,2-0.61,3l0,0.08,0,0c-1.4,1.8-2.8,3.6-4.22,5.38l-0.06,0c1.24-1.91,2.5-3.81,3.77-5.7l-0.05.13c0.14-1,.28-2,0.51-3a22.73,22.73,0,0,1,.88-2.94H191Z"/><path d="M204.82,134.28c-0.9.27-1.8,0.49-2.71,0.66s-1.82.35-2.74,0.45l0.24-.14c-2.22,2.55-4.41,5.13-6.65,7.67l-0.06,0c2-2.72,4.09-5.39,6.13-8.09l0.08-.11,0.16,0c0.91-.16,1.83-0.25,2.75-0.33s1.85-.12,2.78-0.12v0.07Z"/><path d="M207.25,135.85c-0.78.34-1.58,0.63-2.38,0.92s-1.6.55-2.42,0.78l0.2-.14c-0.65.9-1.36,1.75-2.06,2.62l-2.08,2.6-4.18,5.18-0.06,0,3.86-5.43,1.94-2.7c0.65-.9,1.27-1.82,2-2.69l0.08-.11,0.12,0c0.82-.22,1.65-0.39,2.47-0.59s1.66-.34,2.51-0.45Z"/><path d="M209.77,137.21a28.06,28.06,0,0,1-3.12,3.16l0.05-.05c-1,1.22-2.11,2.41-3.15,3.63l-3.17,3.61-0.06,0,2.87-3.85c1-1.27,1.92-2.56,2.89-3.83l0,0,0,0a28,28,0,0,1,3.58-2.62Z"/><path d="M262.82,80.3l19.94-5.77,7.32-2.11c2.34-.65,4.55-1.2,6.43-1.68,3.78-.94,6.32-1.47,6.32-1.47l0,0.07s-2.46.85-6.18,2c-1.86.56-4,1.21-6.38,1.86l-7.37,1.94-20.08,5.26Z"/><path d="M267.85,83.34s2.34-.75,5.87-1.79c1.77-.51,3.83-1.13,6-1.74l7-1.92,7-1.82c2.23-.58,4.32-1.07,6.11-1.52,3.58-.87,6-1.39,6-1.39s-2.34.75-5.87,1.79c-1.77.51-3.83,1.13-6,1.74l-7,1.91-7,1.82c-2.23.58-4.32,1.07-6.11,1.52C270.25,82.82,267.85,83.34,267.85,83.34Z"/><path d="M269.34,91.19s2.29-.82,5.75-2c1.74-.56,3.75-1.25,5.93-1.93l6.82-2.13,6.85-2c2.18-.65,4.24-1.2,6-1.71,3.51-1,5.88-1.57,5.88-1.57s-2.29.82-5.75,2c-1.74.56-3.75,1.25-5.93,1.93l-6.82,2.13-6.85,2c-2.18.65-4.24,1.2-6,1.71C271.7,90.6,269.34,91.19,269.34,91.19Z"/><path d="M271.08,86.38l14.28-4.11,5.25-1.5c1.68-.45,3.26-0.82,4.62-1.15,2.72-.63,4.55-1,4.55-1l0,0.07s-1.75.64-4.42,1.46c-1.33.4-2.89,0.87-4.57,1.33l-5.29,1.33-14.42,3.6Z"/><path d="M274.4,94.49s5.75-1.73,11.53-3.39l4.23-1.24c1.36-.37,2.64-0.66,3.74-0.92,2.2-.49,3.69-0.73,3.69-0.73l0,0.07s-1.41.55-3.56,1.23c-1.08.33-2.33,0.73-3.69,1.09l-4.28,1.06c-5.82,1.47-11.66,2.88-11.66,2.88Z"/><path d="M432.65,112.95L453,107l7.49-2.16c2.4-.66,4.65-1.23,6.58-1.72,3.86-1,6.46-1.51,6.46-1.51l0,0.07s-2.51.86-6.32,2c-1.91.57-4.13,1.24-6.53,1.9l-7.54,2L432.67,113Z"/><path d="M438.59,115.73s2.3-.74,5.77-1.76c1.74-.5,3.76-1.11,5.94-1.71l6.83-1.88,6.85-1.79c2.19-.57,4.24-1.05,6-1.49,3.52-.85,5.88-1.36,5.88-1.36s-2.3.74-5.77,1.76c-1.74.5-3.76,1.11-5.94,1.71l-6.83,1.88-6.85,1.78c-2.19.57-4.24,1.05-6,1.49C440.95,115.22,438.59,115.73,438.59,115.73Z"/><path d="M440.08,123.58s2.29-.82,5.75-2c1.74-.56,3.75-1.25,5.93-1.93l6.82-2.13,6.85-2c2.18-.65,4.24-1.2,6-1.71,3.51-1,5.88-1.57,5.88-1.57s-2.29.82-5.75,2c-1.74.56-3.75,1.25-5.93,1.93l-6.82,2.13-6.85,2c-2.18.65-4.24,1.2-6,1.71C442.44,123,440.08,123.58,440.08,123.58Z"/><path d="M441.82,118.78l14.28-4.11,5.25-1.5c1.68-.45,3.26-0.82,4.62-1.15,2.72-.63,4.55-1,4.55-1l0,0.07s-1.75.64-4.42,1.46c-1.34.4-2.89,0.87-4.57,1.33l-5.29,1.33-14.42,3.6Z"/><path d="M445.14,126.88s5.75-1.73,11.53-3.39l4.23-1.24c1.36-.37,2.64-0.66,3.74-0.92,2.2-.49,3.69-0.73,3.69-0.73l0,0.07s-1.41.55-3.56,1.23c-1.08.33-2.33,0.73-3.69,1.09l-4.28,1.06C451,125.55,445.15,127,445.15,127Z"/><path d="M341.48,30.74s5.39,0.32,10.77.71l4,0.27c1.26,0.11,2.43.27,3.43,0.4,2,0.28,3.33.56,3.33,0.56v0.07s-1.36,0-3.38,0c-1-.05-2.19-0.1-3.45-0.22L352.19,32c-5.36-.58-10.72-1.23-10.72-1.23V30.74Z"/><path d="M338.22,34.82l15.5-.26,5.69-.09c1.82,0,3.51.05,5,.09,2.91,0.1,4.84.26,4.84,0.26V34.9s-1.94.16-4.84,0.26c-1.45,0-3.15.09-5,.09l-5.69-.09-15.5-.26V34.82Z"/><path d="M338.22,37.73l13.85-.26,5.08-.09c1.62,0,3.14.05,4.44,0.09,2.6,0.1,4.33.26,4.33,0.26V37.8s-1.73.16-4.33,0.26c-1.3,0-2.81.09-4.44,0.09l-5.08-.09-13.85-.26V37.73Z"/><path d="M341.47,40.56s5.45-.17,10.89-0.26l4-.09c1.28,0,2.47.05,3.49,0.09,2,0.1,3.4.26,3.4,0.26v0.08s-1.36.16-3.4,0.26c-1,0-2.21.09-3.49,0.09l-4-.09c-5.45-.1-10.89-0.26-10.89-0.26V40.56Z"/><path d="M341.48,42.72l13.08,1.64,4.8,0.61c1.53,0.22,2.95.48,4.16,0.7,2.43,0.46,4,.85,4,0.85v0.07s-1.65-.08-4.11-0.33c-1.23-.14-2.66-0.29-4.19-0.52l-4.78-.79-13-2.15V42.72Z"/><path d="M341.48,46.51s4.76,0.54,9.5,1.16l3.49,0.43c1.11,0.17,2.14.37,3,.55,1.76,0.37,2.92.7,2.92,0.7v0.07s-1.21,0-3-.18c-0.89-.09-1.94-0.2-3-0.36l-3.46-.61c-4.72-.8-9.43-1.67-9.43-1.67V46.51Z"/><path d="M250.48,33.51s4.76,0.54,9.5,1.16l3.49,0.43c1.11,0.17,2.14.37,3,.55,1.76,0.37,2.92.7,2.92,0.7v0.07s-1.21,0-3-.18c-0.89-.09-1.94-0.2-3-0.36l-3.46-.61c-4.72-.8-9.43-1.67-9.43-1.67V33.51Z"/><path d="M344.26,50.42s4.76,0.54,9.5,1.16L357.26,52c1.11,0.17,2.14.37,3,.55,1.76,0.37,2.92.7,2.92,0.7v0.07s-1.21,0-3-.18c-0.89-.09-1.94-0.2-3-0.36l-3.46-.61c-4.72-.8-9.43-1.67-9.43-1.67V50.42Z"/><path d="M504,89.91l23.69,10.74,8.69,3.95c2.76,1.29,5.32,2.53,7.51,3.6,4.38,2.15,7.26,3.67,7.26,3.67l0,0.07s-3-1.22-7.48-3.19c-2.23-1-4.83-2.15-7.59-3.43l-8.62-4.11L504,90Z"/><path d="M506,85.49L528.7,95.71,537,99.47c2.65,1.23,5.09,2.42,7.19,3.43,4.19,2,6.95,3.5,6.95,3.5l0,0.07s-2.89-1.16-7.16-3c-2.13-.94-4.62-2-7.27-3.27l-8.25-3.92L506,85.55Z"/><path d="M510.14,81.88l23.92,10.46,8.78,3.85c2.79,1.25,5.37,2.47,7.59,3.51,4.42,2.1,7.33,3.58,7.33,3.58l0,0.07s-3-1.19-7.55-3.11c-2.25-1-4.87-2.09-7.67-3.34l-8.71-4-23.7-10.94Z"/><path d="M510.13,73.77s3.39,1.59,8.43,4.05l8.59,4.25L537,87l9.77,5,8.49,4.45c5,2.63,8.24,4.43,8.24,4.43s-3.39-1.59-8.43-4.05l-8.59-4.25-9.81-4.94-9.77-5-8.49-4.45C513.4,75.57,510.13,73.77,510.13,73.77Z"/><path d="M418.5,23.42s1.32-.42,3.33-1c1-.26,2.17-0.58,3.43-0.89s2.61-.62,4-0.93,2.7-.59,4-0.84,2.46-.46,3.48-0.65c2-.36,3.42-0.54,3.42-0.54s-1.32.42-3.33,1c-1,.26-2.17.58-3.43,0.89s-2.61.62-4,.92-2.7.59-4,.84-2.46.46-3.48,0.65C419.88,23.24,418.5,23.42,418.5,23.42Z"/><path d="M423.44,26.3s1.12-.43,2.82-1c0.85-.27,1.84-0.6,2.91-0.92s2.22-.64,3.37-1,2.3-.62,3.39-0.88,2.11-.49,3-0.69c1.75-.38,2.93-0.58,2.93-0.58s-1.12.43-2.82,1c-0.85.27-1.84,0.6-2.91,0.92s-2.22.64-3.37,1-2.3.62-3.39,0.88-2.11.49-3,.69C424.62,26.1,423.44,26.3,423.44,26.3Z"/><path d="M427.23,29s1.25-.46,3.15-1.08c1-.29,2.06-0.66,3.25-1s2.47-.71,3.76-1.07,2.57-.69,3.78-1,2.35-.55,3.32-0.78c1.95-.44,3.26-0.67,3.26-0.67s-1.25.47-3.15,1.08c-1,.29-2.06.66-3.25,1s-2.47.71-3.76,1.07-2.57.68-3.78,1-2.35.55-3.32,0.78C428.54,28.77,427.23,29,427.23,29Z"/><path d="M432.64,31.74s1-.46,2.65-1.06c0.8-.29,1.73-0.65,2.74-1s2.09-.71,3.17-1.06,2.17-.68,3.2-1,2-.54,2.82-0.77c1.66-.43,2.78-0.66,2.78-0.66s-1,.46-2.65,1.07c-0.8.29-1.73,0.65-2.74,1s-2.09.71-3.17,1.06-2.17.68-3.2,1-2,.54-2.82.77C433.76,31.51,432.64,31.74,432.64,31.74Z"/><path d="M453.6,32.68l14.83-.26,5.44-.09c1.74,0,3.36.05,4.75,0.09,2.78,0.1,4.63.26,4.63,0.26v0.08s-1.85.16-4.63,0.26c-1.39,0-3,.09-4.75.09L468.42,33l-14.83-.26V32.68Z"/><path d="M452,35.12s2.46-.14,6.14-0.25c1.84,0,4-.13,6.29-0.16l7.21-.1h7.22c2.3,0,4.45.05,6.29,0.07,3.68,0.07,6.14.17,6.14,0.17s-2.46.14-6.14,0.25c-1.84,0-4,.13-6.29.16l-7.21.1h-7.22c-2.3,0-4.45-.05-6.29-0.07C454.41,35.22,452,35.12,452,35.12Z"/><path d="M450.14,37.72l25.18-.26,9.25-.09c3,0,5.7.05,8.06,0.09,4.72,0.1,7.87.26,7.87,0.26V37.8s-3.15.16-7.87,0.26c-2.36,0-5.11.09-8.06,0.09l-9.25-.09-25.18-.26V37.72Z"/><path d="M448.2,40.59s3.49-.12,8.72-0.21l8.94-.11,10.24,0,10.24,0,8.94,0.11c5.23,0.09,8.72.21,8.72,0.21s-3.49.12-8.72,0.21l-8.94.11L476.1,41l-10.24,0-8.94-.11C451.69,40.71,448.2,40.59,448.2,40.59Z"/><path d="M341.48,46.51s4.76,0.54,9.5,1.16l3.49,0.43c1.11,0.17,2.14.37,3,.55,1.76,0.37,2.92.7,2.92,0.7v0.07s-1.21,0-3-.18c-0.89-.09-1.94-0.2-3-0.36l-3.46-.61c-4.72-.8-9.43-1.67-9.43-1.67V46.51Z"/><path d="M507.14,77.45s4.48,1.68,8.94,3.43l3.28,1.26c1,0.43,2,.88,2.8,1.26,1.62,0.78,2.66,1.39,2.66,1.39l0,0.07s-1.17-.31-2.86-0.91c-0.84-.31-1.83-0.66-2.87-1.09l-3.21-1.43c-4.38-1.92-8.74-3.91-8.74-3.91Z"/><path d="M516,72.39s2.92,1.29,7.26,3.31l7.4,3.48,8.45,4.06,8.4,4.15c2.68,1.32,5.16,2.61,7.3,3.68,4.26,2.18,7.08,3.68,7.08,3.68s-2.92-1.29-7.26-3.31c-2.16-1-4.71-2.18-7.4-3.48l-8.45-4.06-8.4-4.15L523,76.07C518.78,73.89,516,72.39,516,72.39Z"/><path d="M528.58,74.82s2.5,1.14,6.22,2.93c1.85,0.91,4,1.94,6.33,3.09l7.22,3.62,7.18,3.7c2.29,1.18,4.4,2.33,6.23,3.29,3.63,1.95,6,3.3,6,3.3s-2.5-1.14-6.22-2.93c-1.85-.91-4-1.93-6.33-3.09L548,85.12l-7.17-3.7c-2.29-1.18-4.4-2.33-6.23-3.29C531,76.17,528.58,74.82,528.58,74.82Z"/><path d="M533,72.39s1.51,0.64,3.74,1.69c1.11,0.53,2.41,1.13,3.78,1.82l4.3,2.16,4.25,2.24c1.36,0.71,2.6,1.43,3.68,2,2.14,1.2,3.54,2.06,3.54,2.06s-1.51-.64-3.74-1.69c-1.11-.53-2.41-1.13-3.78-1.82l-4.3-2.16-4.25-2.25c-1.36-.72-2.6-1.43-3.68-2C534.44,73.24,533,72.39,533,72.39Z"/><path d="M528.58,66.88s1.05,0.32,2.6.88c0.77,0.29,1.67.61,2.63,1s2,0.8,3,1.22,2,0.87,2.94,1.31,1.79,0.86,2.53,1.21c1.48,0.73,2.43,1.27,2.43,1.27s-1.05-.32-2.6-0.88c-0.77-.29-1.67-0.61-2.63-1s-2-.8-3-1.22-2-.87-2.94-1.31-1.79-.86-2.53-1.21C529.54,67.42,528.58,66.88,528.58,66.88Z"/><path d="M596.76,20.46s3.75-.46,7.51-0.85c0.94-.11,1.88-0.22,2.76-0.3s1.71-.08,2.42-0.09c1.42,0,2.37.08,2.37,0.08v0.07s-0.93.23-2.33,0.44c-0.7.09-1.52,0.21-2.4,0.28s-1.83.08-2.77,0.12c-3.77.19-7.55,0.32-7.55,0.32V20.46Z"/><path d="M595.56,23.63s1.11-.22,2.78-0.46c0.84-.11,1.81-0.26,2.86-0.38s2.17-.23,3.29-0.34,2.24-.19,3.3-0.25,2-.1,2.88-0.14c1.69-.06,2.82,0,2.82,0s-1.11.22-2.78,0.46c-0.84.11-1.81,0.26-2.86,0.38s-2.17.23-3.29,0.34-2.24.19-3.3,0.25-2,.1-2.88.14C596.69,23.64,595.56,23.63,595.56,23.63Z"/><path d="M595.56,26.26s3.81-.53,7.62-1c1-.13,1.9-0.26,2.8-0.36s1.74-.11,2.46-0.14c1.44,0,2.41,0,2.41,0v0.07s-0.94.25-2.36,0.49c-0.71.11-1.54,0.24-2.44,0.33s-1.86.12-2.82,0.18c-3.83.27-7.67,0.47-7.67,0.47V26.26Z"/><path d="M599.5,28.44s1-.25,2.63-0.54c0.79-.13,1.71-0.31,2.71-0.46s2.05-.3,3.12-0.44,2.13-.25,3.13-0.35,1.94-.16,2.74-0.22c1.6-.11,2.68-0.12,2.68-0.12s-1,.25-2.63.54c-0.79.13-1.71,0.31-2.71,0.46s-2.05.3-3.12,0.44-2.13.25-3.13,0.35-1.94.16-2.74,0.22C600.58,28.42,599.5,28.44,599.5,28.44Z"/><path d="M596.76,31.3a12.64,12.64,0,0,1,2.16-.64c0.33-.06.68-0.14,1.06-0.19s0.79,0,1.21-.07a9.68,9.68,0,0,0,2.59-.43c0.86-.27,1.74-0.44,2.56-0.61A20.74,20.74,0,0,1,608.6,29a19.55,19.55,0,0,1,2.25-.07V29a19.55,19.55,0,0,1-2.15.66,20.74,20.74,0,0,1-2.25.43c-0.83.1-1.72,0.23-2.62,0.25a9.68,9.68,0,0,0-2.59.42c-0.41.11-.79,0.24-1.17,0.32s-0.74.12-1.07,0.17a12.64,12.64,0,0,1-2.25.09V31.3Z"/><path d="M594.53,34s6.29-1.12,12.59-2.18l4.63-.79c1.48-.22,2.87-0.38,4.06-0.52,2.38-.26,4-0.34,4-0.34v0.07s-1.56.4-3.91,0.86c-1.18.22-2.55,0.48-4,.71l-4.65.61c-6.33.86-12.67,1.66-12.67,1.66V34Z"/><path d="M593.5,36.5s0.86-.27,2.18-0.6,3.07-.7,4.84-1,3.55-.56,4.9-0.7,2.25-.18,2.25-0.18-0.86.27-2.18,0.6-3.07.7-4.84,1-3.55.56-4.9,0.7S593.5,36.5,593.5,36.5Z"/><path d="M370.93,120.14s-0.66,1.65-1.73,4.09c-0.55,1.21-1.16,2.64-1.86,4.14l-2.21,4.72-2.3,4.67c-0.73,1.49-1.47,2.86-2.07,4-1.23,2.36-2.11,3.9-2.11,3.9s0.66-1.65,1.73-4.09c0.55-1.21,1.16-2.64,1.86-4.14l2.21-4.71,2.3-4.67c0.73-1.49,1.47-2.86,2.07-4C370.06,121.69,370.93,120.14,370.93,120.14Z"/><path d="M373.2,120.2s-0.64,1.93-1.68,4.79c-0.53,1.43-1.12,3.1-1.81,4.88l-2.15,5.56L365.32,141c-0.71,1.76-1.43,3.39-2,4.79-1.21,2.8-2.07,4.64-2.07,4.64s0.64-1.93,1.67-4.79c0.53-1.43,1.12-3.1,1.81-4.88l2.15-5.56,2.24-5.52c0.71-1.76,1.43-3.39,2-4.79C372.34,122,373.2,120.2,373.2,120.2Z"/><path d="M376.23,120s-0.39,1.43-1.06,3.55c-0.35,1.05-.73,2.29-1.17,3.6s-0.94,2.7-1.43,4.1-1,2.77-1.52,4.07-1,2.49-1.4,3.52c-0.84,2.05-1.45,3.4-1.45,3.4s0.39-1.43,1.06-3.55c0.35-1.05.72-2.29,1.17-3.6s0.94-2.7,1.43-4.1,1-2.77,1.52-4.07,1-2.49,1.4-3.52C375.62,121.35,376.23,120,376.23,120Z"/><path d="M378.7,120.35s0,0.64-.18,1.57-0.39,2.17-.69,3.39-0.68,2.42-1,3.31-0.59,1.47-.59,1.47,0-.64.18-1.57,0.39-2.17.69-3.39,0.68-2.42,1-3.31S378.7,120.35,378.7,120.35Z"/><path d="M380.93,121.32s-0.18,1.14-.53,2.83c-0.19.84-.38,1.83-0.64,2.88s-0.53,2.16-.82,3.28-0.6,2.22-.91,3.25-0.62,2-.87,2.82c-0.53,1.64-.94,2.73-0.94,2.73s0.18-1.14.53-2.83c0.19-.84.38-1.83,0.64-2.88s0.53-2.16.82-3.28,0.6-2.22.91-3.25,0.62-2,.87-2.82C380.52,122.4,380.93,121.32,380.93,121.32Z"/><path d="M384,121.32s-0.08.75-.27,1.87-0.51,2.58-.89,4-0.82,2.88-1.2,3.95-0.68,1.76-.68,1.76,0.08-.75.27-1.87,0.51-2.58.89-4,0.82-2.88,1.2-3.95S384,121.32,384,121.32Z"/><path d="M386.84,120.57a8.1,8.1,0,0,1,0,.94,12.71,12.71,0,0,1-.9,3.92,8,8,0,0,1-.41.84,8,8,0,0,1,0-.94,12.71,12.71,0,0,1,.9-3.92A8.1,8.1,0,0,1,386.84,120.57Z"/><path d="M388.36,120.57s-0.06,1.12-.23,2.79c-0.1.83-.19,1.8-0.34,2.84s-0.31,2.14-.47,3.24-0.37,2.2-.56,3.23-0.41,2-.57,2.8c-0.35,1.64-.65,2.72-0.65,2.72s0.06-1.12.23-2.79c0.1-.83.19-1.8,0.34-2.84s0.31-2.14.48-3.24,0.37-2.2.56-3.23,0.41-2,.57-2.8C388.07,121.65,388.36,120.57,388.36,120.57Z"/><path d="M391,120.68s-0.09,1.05-.32,2.61c-0.13.78-.25,1.69-0.43,2.66s-0.37,2-.58,3-0.44,2.05-.67,3-0.47,1.85-.66,2.61c-0.41,1.52-.74,2.53-0.74,2.53s0.09-1.05.32-2.61c0.13-.78.25-1.69,0.43-2.66s0.37-2,.58-3,0.44-2.05.67-3,0.47-1.85.66-2.61C390.66,121.69,391,120.68,391,120.68Z"/><path d="M393.41,120.75s-0.08.77-.27,1.9-0.52,2.62-.9,4.1-0.83,2.94-1.21,4-0.69,1.79-.69,1.79,0.08-.77.27-1.9,0.52-2.62.91-4.1,0.83-2.94,1.21-4S393.41,120.75,393.41,120.75Z"/><path d="M360.27,127.12s3.61-.12,9-0.21l9.26-.11,10.61,0,10.61,0.05,9.26,0.12c5.42,0.09,9,.21,9,0.21s-3.61.12-9,.21l-9.26.11-10.61,0-10.61-.05-9.26-.12C363.88,127.24,360.27,127.12,360.27,127.12Z"/><path d="M361.23,130.22s2.48-.12,6.21-0.21c1.86,0,4-.1,6.36-0.11l7.29,0,7.29,0c2.33,0,4.5.08,6.36,0.11,3.72,0.09,6.21.21,6.21,0.21s-2.48.12-6.21,0.21c-1.86,0-4,.1-6.36.11l-7.29,0-7.29,0c-2.33,0-4.5-.08-6.36-0.11C363.71,130.34,361.23,130.22,361.23,130.22Z"/><path d="M354.25,132.92s2.61-.12,6.54-0.21c2,0,4.25-.1,6.7-0.11l7.68,0,7.68,0c2.45,0,4.74.08,6.7,0.11,3.92,0.09,6.54.21,6.54,0.21s-2.61.12-6.54,0.21c-2,0-4.25.1-6.7,0.11l-7.68,0-7.68,0c-2.45,0-4.74-.08-6.7-0.11C356.87,133,354.25,132.92,354.25,132.92Z"/><path d="M453.63,40.95s-0.06,2.39-.18,4.78c0,0.6,0,1.2-.07,1.75a14.75,14.75,0,0,1-.23,1.51c-0.1.44-.18,0.81-0.27,1.06s-0.13.4-.13,0.4h-0.07s0-.15-0.06-0.42,0-.64-0.07-1.09a14.74,14.74,0,0,1,.05-1.53c0.06-.56.16-1.15,0.25-1.74,0.32-2.37.7-4.73,0.7-4.73h0.07Z"/><path d="M458.73,40.6s-0.6,3.08-1.26,6.15c-0.16.77-.3,1.54-0.47,2.26s-0.38,1.37-.57,1.93-0.37,1-.51,1.34-0.22.5-.22,0.5l-0.07,0s0-.2,0-0.55,0.1-.83.18-1.42,0.23-1.26.4-2,0.42-1.46.65-2.21c0.85-3,1.77-6,1.77-6Z"/><path d="M464.35,40.61s-1,3.85-2,7.68c-0.25,1-.48,1.92-0.73,2.82s-0.55,1.71-.8,2.41c-0.51,1.4-.94,2.3-0.94,2.3l-0.07,0s0.13-1,.44-2.45c0.17-.72.36-1.57,0.62-2.46s0.59-1.83.9-2.77c1.2-3.77,2.47-7.53,2.47-7.53Z"/><path d="M466.86,40.6s-0.85,5-1.77,10.06l-0.65,3.69c-0.24,1.17-.51,2.26-0.74,3.19-0.48,1.86-.89,3.08-0.89,3.08h-0.07s0.1-1.28.38-3.18c0.15-.95.32-2.05,0.56-3.23l0.83-3.66c1.11-5,2.28-10,2.28-10h0.07Z"/><path d="M470.57,40.6s-0.76,5-1.6,10l-0.59,3.66c-0.22,1.16-.47,2.24-0.69,3.16-0.45,1.84-.84,3.06-0.84,3.06h-0.07s0.08-1.27.32-3.15c0.13-.94.29-2,0.5-3.2l0.77-3.63c1-4.95,2.11-9.88,2.11-9.88h0.07Z"/><path d="M473.62,40.6s-0.6,4.8-1.27,9.59l-0.47,3.52c-0.18,1.12-.4,2.16-0.58,3-0.39,1.77-.73,2.94-0.73,2.94H470.5s0-1.22.22-3c0.1-.9.22-2,0.4-3.07l0.65-3.49c0.86-4.76,1.78-9.51,1.78-9.51h0.07Z"/><path d="M477.33,41s-0.77,4.84-1.6,9.67l-0.59,3.55c-0.22,1.13-.47,2.17-0.69,3.06-0.45,1.78-.84,3-0.84,3h-0.07s0.08-1.23.32-3.06c0.14-.91.29-2,0.5-3.1l0.77-3.52c1-4.79,2.11-9.57,2.11-9.57h0.07Z"/><path d="M161.76,15.8s-2.31,0-5.76,0c-1.73,0-3.75-.07-5.9-0.15l-6.76-.25L136.57,15c-2.16-.11-4.17-0.27-5.89-0.38-3.45-.24-5.75-0.47-5.75-0.47s2.31,0,5.76,0c1.73,0,3.75.06,5.9,0.15l6.76,0.25L150.12,15c2.16,0.11,4.17.27,5.89,0.38C159.46,15.58,161.76,15.8,161.76,15.8Z"/><path d="M160.56,18.15s-2.23,0-5.58,0c-1.67,0-3.62,0-5.71-.12l-6.54-.22-6.54-.32c-2.09-.1-4-0.25-5.7-0.35-3.34-.23-5.56-0.44-5.56-0.44s2.23,0,5.58,0c1.67,0,3.62,0,5.71.12L142.76,17l6.54,0.32c2.09,0.1,4,.25,5.7.35C158.34,17.94,160.56,18.15,160.56,18.15Z"/><path d="M159.1,21S157,21,153.74,20.78c-1.6-.1-3.48-0.19-5.48-0.35L142,20l-6.27-.58c-2-.18-3.86-0.41-5.46-0.57-3.2-.36-5.32-0.66-5.32-0.66s2.15,0.06,5.36.24c1.6,0.1,3.48.19,5.48,0.35L142,19.21l6.27,0.58c2,0.18,3.86.41,5.46,0.57C157,20.72,159.1,21,159.1,21Z"/><path d="M137.76,22.25s0.15-.91.46-2.25,0.78-3.11,1.31-4.86,1.12-3.48,1.61-4.77S142,8.25,142,8.25s-0.15.91-.46,2.25-0.78,3.11-1.31,4.86-1.13,3.48-1.61,4.77S137.76,22.25,137.76,22.25Z"/><path d="M139.89,24.25s0.15-.75.46-1.84,0.77-2.53,1.3-4,1.11-2.81,1.6-3.84,0.86-1.7.86-1.7-0.15.75-.46,1.85-0.77,2.53-1.3,3.95-1.11,2.81-1.6,3.84S139.89,24.25,139.89,24.25Z"/><path d="M142.75,24.25s0.25-.92.7-2.28c0.24-.67.5-1.46,0.81-2.3s0.66-1.72,1-2.6,0.73-1.75,1.1-2.56,0.73-1.56,1-2.21c0.62-1.28,1.09-2.12,1.09-2.12s-0.25.92-.7,2.28c-0.24.67-.49,1.46-0.81,2.3s-0.66,1.72-1,2.6-0.73,1.75-1.1,2.56-0.73,1.56-1,2.21C143.22,23.41,142.75,24.25,142.75,24.25Z"/><path d="M68.52,150.17s-0.18-1.54-.36-3.86c-0.08-1.16-.19-2.51-0.27-4s-0.15-3-.22-4.55-0.11-3.1-.13-4.55,0-2.81,0-4c0-2.33.06-3.88,0.06-3.88s0.18,1.54.36,3.86c0.08,1.16.19,2.51,0.27,4s0.15,3,.22,4.55,0.11,3.1.13,4.55,0,2.81,0,4C68.58,148.62,68.52,150.17,68.52,150.17Z"/><path d="M66.1,149.62s-0.18-1.49-.37-3.73c-0.08-1.12-.2-2.43-0.29-3.83s-0.16-2.9-.24-4.4-0.12-3-.15-4.4,0-2.72,0-3.84c0-2.25,0-3.75,0-3.75s0.19,1.49.37,3.73c0.08,1.12.2,2.43,0.29,3.83s0.16,2.9.24,4.4,0.12,3,.15,4.4,0,2.72,0,3.84C66.16,148.12,66.1,149.62,66.1,149.62Z"/><path d="M63.15,148.94s-0.09-1.45-.14-3.62c0-1.08,0-2.35,0-3.71s0-2.8,0-4.25,0.07-2.89.13-4.24,0.14-2.62.19-3.7c0.13-2.17.28-3.61,0.28-3.61s0.09,1.45.14,3.62c0,1.08.05,2.35,0,3.71s0,2.8,0,4.25-0.07,2.89-.13,4.24-0.14,2.62-.19,3.7C63.3,147.5,63.15,148.94,63.15,148.94Z"/><path d="M60.43,134.82s0.9,0,2.24,0,3.13,0.14,4.9.31,3.55,0.41,4.87.63,2.2,0.43,2.2.43-0.9,0-2.24,0-3.13-.14-4.9-0.31-3.55-.41-4.87-0.63S60.43,134.82,60.43,134.82Z"/><path d="M58.59,136.44s0.74,0,1.84,0,2.55,0.2,4,.4,2.88,0.47,4,.72,1.78,0.47,1.78.47-0.74,0-1.84,0-2.55-.2-4-0.4-2.88-.47-4-0.72S58.59,136.44,58.59,136.44Z"/><path d="M58.79,138.35s0.92,0,2.28.16,3.17,0.36,5,.66,3.59,0.66,4.92,1,2.21,0.58,2.21.58-0.92,0-2.28-.16-3.17-.36-5-0.66-3.59-.66-4.92-1S58.79,138.35,58.79,138.35Z"/><path d="M614.48,103s5.39,0.32,10.77.71l4,0.27c1.26,0.11,2.43.27,3.43,0.4,2,0.28,3.33.56,3.33,0.56V105s-1.36,0-3.38,0c-1-.05-2.19-0.1-3.45-0.22l-3.94-.45c-5.36-.58-10.72-1.23-10.72-1.23V103Z"/><path d="M613.78,107.1l14.22-.26,5.22-.09c1.67,0,3.22.05,4.55,0.09,2.67,0.1,4.44.26,4.44,0.26v0.08s-1.78.16-4.44,0.26c-1.33,0-2.89.09-4.55,0.09l-5.22-.09-14.22-.26V107.1Z"/><path d="M615,109.7s6-.17,12-0.26l4.4-.09c1.4,0,2.71.05,3.84,0.09,2.25,0.1,3.74.26,3.74,0.26v0.07s-1.5.16-3.74,0.26c-1.12,0-2.43.09-3.84,0.09l-4.4-.09c-6-.1-12-0.26-12-0.26V109.7Z"/><path d="M614.47,112.84s5.45-.17,10.89-0.26l4-.09c1.28,0,2.47.05,3.49,0.09,2,0.1,3.4.26,3.4,0.26v0.07s-1.36.16-3.4,0.26c-1,0-2.21.09-3.49,0.09l-4-.09c-5.45-.1-10.89-0.26-10.89-0.26v-0.07Z"/><path d="M614.48,115l13.08,1.64,4.8,0.61c1.53,0.22,2.95.48,4.16,0.7,2.43,0.46,4,.85,4,0.85v0.07s-1.65-.08-4.11-0.33c-1.23-.14-2.66-0.29-4.19-0.52l-4.78-.79-13-2.15V115Z"/><path d="M614.48,118.79s4.76,0.54,9.5,1.16l3.49,0.43c1.11,0.17,2.14.37,3,.55,1.76,0.37,2.92.7,2.92,0.7v0.07s-1.21,0-3-.18c-0.89-.09-1.94-0.2-3-0.36l-3.46-.61c-4.72-.8-9.43-1.67-9.43-1.67v-0.07Z"/><path d="M617.26,122.7s4.76,0.54,9.5,1.16l3.49,0.43c1.11,0.17,2.14.37,3,.55,1.76,0.37,2.92.7,2.92,0.7v0.07s-1.21,0-3-.18c-0.89-.09-1.94-0.2-3-0.36l-3.46-.61c-4.72-.8-9.43-1.67-9.43-1.67V122.7Z"/><path d="M614.48,118.79s4.76,0.54,9.5,1.16l3.49,0.43c1.11,0.17,2.14.37,3,.55,1.76,0.37,2.92.7,2.92,0.7v0.07s-1.21,0-3-.18c-0.89-.09-1.94-0.2-3-0.36l-3.46-.61c-4.72-.8-9.43-1.67-9.43-1.67v-0.07Z"/><path d="M612.7,97.19l2.18,17.36,0.79,6.38c0.22,2,.38,3.95.52,5.58,0.26,3.27.34,5.46,0.34,5.46h-0.07s-0.4-2.16-.86-5.41c-0.22-1.63-.48-3.52-0.71-5.56l-0.61-6.4L612.63,97.2h0.07Z"/><path d="M608,97.19l3,16,1.1,5.88c0.32,1.88.57,3.65,0.79,5.16,0.42,3,.6,5.06.6,5.06h-0.07s-0.5-2-1.12-5c-0.3-1.5-.65-3.25-1-5.13l-0.92-5.91L608,97.2H608Z"/><path d="M603.29,99.68l4.54,15.46,1.66,5.68c0.5,1.82.92,3.53,1.28,5,0.71,2.94,1.09,4.92,1.09,4.92l-0.07,0s-0.69-1.9-1.59-4.78c-0.44-1.45-1-3.13-1.46-4.95l-1.49-5.73-4-15.6Z"/><path d="M146.06,111.28s0.36-.3.92-0.67a19.13,19.13,0,0,1,4.46-2.12c0.65-.2,1.11-0.29,1.11-0.29s-0.36.3-.92,0.68a19.13,19.13,0,0,1-4.46,2.12C146.52,111.19,146.06,111.28,146.06,111.28Z"/><path d="M139.71,109.89s0.69-.46,1.75-1.09,2.51-1.39,4-2.11,3-1.37,4.12-1.82,1.93-.7,1.93-0.7-0.69.46-1.75,1.09-2.51,1.39-4,2.11-3,1.37-4.12,1.82S139.71,109.89,139.71,109.89Z"/><path d="M138.65,108.51s0.43-.34,1.1-0.78a27,27,0,0,1,5.27-2.58c0.76-.26,1.29-0.39,1.29-0.39s-0.43.34-1.1,0.78a27,27,0,0,1-5.27,2.58C139.18,108.38,138.65,108.51,138.65,108.51Z"/><path d="M137.2,107.54a4.47,4.47,0,0,1,.48-0.49,6.51,6.51,0,0,1,2.55-1.32,4.41,4.41,0,0,1,.68-0.11,4.4,4.4,0,0,1-.48.49,6.51,6.51,0,0,1-2.55,1.32A4.47,4.47,0,0,1,137.2,107.54Z"/><path d="M136.67,106.85s0.63-.51,1.61-1.2,2.33-1.56,3.71-2.37,2.79-1.57,3.87-2.1,1.83-.83,1.83-0.83-0.63.51-1.61,1.2-2.33,1.56-3.71,2.37-2.79,1.57-3.87,2.09S136.67,106.85,136.67,106.85Z"/><path d="M135.81,105.61s0.6-.46,1.55-1.08,2.23-1.39,3.55-2.11,2.67-1.38,3.71-1.83,1.75-.71,1.75-0.71-0.6.46-1.55,1.08-2.23,1.39-3.55,2.11-2.67,1.38-3.71,1.83S135.81,105.61,135.81,105.61Z"/><path d="M150.29,116.7s-1.37-1.57-3.34-4c-1-1.21-2.14-2.6-3.35-4.13l-3.77-4.79L136.13,99c-1.18-1.54-2.24-3-3.17-4.27-1.84-2.51-3-4.23-3-4.23s1.37,1.57,3.34,4c1,1.21,2.15,2.6,3.35,4.13l3.77,4.79,3.69,4.85c1.18,1.55,2.24,3,3.17,4.27C149.11,115,150.29,116.7,150.29,116.7Z"/><path d="M151.71,114.9s-1-1.05-2.35-2.69c-0.68-.82-1.5-1.77-2.33-2.81s-1.72-2.16-2.6-3.28-1.74-2.26-2.53-3.34-1.52-2.09-2.15-3c-1.24-1.74-2-2.94-2-2.94s1,1.05,2.35,2.69c0.68,0.82,1.5,1.77,2.33,2.81s1.72,2.16,2.6,3.28,1.74,2.26,2.53,3.34,1.52,2.09,2.15,3C150.93,113.7,151.71,114.9,151.71,114.9Z"/><path d="M155.71,116.87s-1-1.11-2.47-2.84c-0.72-.87-1.57-1.87-2.45-3s-1.81-2.28-2.74-3.46-1.83-2.38-2.67-3.51-1.6-2.2-2.26-3.11c-1.31-1.83-2.13-3.1-2.13-3.1s1,1.11,2.47,2.84c0.72,0.87,1.57,1.87,2.45,3s1.81,2.28,2.74,3.46,1.83,2.38,2.67,3.51,1.6,2.2,2.26,3.11C154.88,115.61,155.71,116.87,155.71,116.87Z"/></svg>