<svg id="Slip_lines_grain_Small_" data-name="Slip lines (grain Small)" xmlns="http://www.w3.org/2000/svg" viewBox="0 0 650 100"><defs><style>.cls-1{fill:#202020;}</style></defs><title>M_SlipLinesGrainSmall</title><path d="M42.68,52.1l15.76-3.4,5.79-1.24c1.85-.37,3.59-0.66,5.08-0.92,3-.49,5-0.73,5-0.73v0.07s-1.95.55-4.89,1.24c-1.47.33-3.19,0.73-5,1.1l-5.82,1.07L42.7,52.17V52.1Z"/><path d="M37.22,55.94l19.18-4.1,7-1.5c2.25-.45,4.37-0.82,6.18-1.14,3.63-.63,6.06-0.95,6.06-0.95v0.07s-2.37.64-6,1.46c-1.8.4-3.89,0.87-6.14,1.32l-7.08,1.32L37.23,56V55.94Z"/><path d="M42.21,60.28l22-4.86,8.1-1.78c2.59-.54,5-1,7.1-1.38,4.16-.77,7-1.18,7-1.18l0,0.07s-2.73.73-6.85,1.69c-2.06.47-4.47,1-7.06,1.57L64.38,56,42.22,60.35Z"/><path d="M43.8,63.53L62,59.32l6.67-1.54c2.14-.46,4.14-0.84,5.86-1.18,3.44-.65,5.75-1,5.75-1l0,0.07s-2.24.65-5.64,1.49c-1.7.41-3.68,0.89-5.82,1.36L62.1,59.9,43.82,63.6Z"/><path d="M47,69.61L69.8,63.05l8.38-2.4c2.68-.74,5.2-1.38,7.35-1.93C89.84,57.63,92.75,57,92.75,57l0,0.07s-2.82.95-7.08,2.22c-2.13.63-4.62,1.37-7.3,2.11L70,63.63,47,69.69Z"/><path d="M57.76,71.07s2.64-.83,6.62-2c2-.57,4.32-1.26,6.82-1.95L79,65l7.86-2.06c2.51-.66,4.86-1.22,6.88-1.72,4-1,6.73-1.59,6.73-1.59s-2.64.83-6.62,2c-2,.57-4.31,1.26-6.82,1.95L79.23,65.7l-7.86,2.06c-2.51.66-4.86,1.22-6.88,1.72C60.46,70.47,57.76,71.07,57.76,71.07Z"/><path d="M59.26,78.92s2.29-.82,5.75-2c1.74-.56,3.75-1.25,5.93-1.93l6.82-2.13,6.85-2c2.18-.65,4.24-1.2,6-1.71,3.51-1,5.88-1.57,5.88-1.57s-2.29.82-5.75,2C89,70.12,87,70.8,84.79,71.48L78,73.61l-6.85,2c-2.18.65-4.24,1.2-6,1.71C61.62,78.33,59.26,78.92,59.26,78.92Z"/><path d="M61,74.11L75.28,70l5.25-1.5c1.68-.45,3.26-0.82,4.62-1.15,2.72-.63,4.55-1,4.55-1l0,0.07s-1.75.64-4.42,1.46c-1.34.4-2.89,0.87-4.57,1.33l-5.29,1.33L61,74.19Z"/><path d="M64.31,82.22s5.75-1.73,11.53-3.39l4.23-1.24c1.36-.37,2.64-0.66,3.74-0.92,2.2-.49,3.69-0.73,3.69-0.73l0,0.07s-1.41.55-3.56,1.23c-1.08.33-2.33,0.73-3.69,1.09L76,79.41c-5.82,1.47-11.66,2.88-11.66,2.88Z"/><path d="M190.64,53.75L208,58.14l6.36,1.62c2,0.54,3.9,1.1,5.51,1.58,3.21,1,5.33,1.7,5.33,1.7l0,0.07s-2.2-.42-5.46-1.2c-1.63-.4-3.53-0.85-5.56-1.4l-6.32-1.79-17.2-4.89Z"/><path d="M183.5,54.64L204.58,60l7.74,2c2.46,0.66,4.75,1.33,6.71,1.89,3.92,1.15,6.5,2,6.5,2l0,0.07s-2.67-.55-6.63-1.51c-2-.49-4.29-1.05-6.76-1.71l-7.69-2.15-20.95-5.88Z"/><path d="M186.68,60.93L211,67l8.92,2.23c2.84,0.74,5.48,1.48,7.74,2.11,4.52,1.28,7.5,2.22,7.5,2.22l0,0.07S232,73,227.48,71.89c-2.28-.55-4.94-1.19-7.78-1.93l-8.87-2.4L186.66,61Z"/><path d="M186.91,64.63L207,69.42l7.38,1.77c2.35,0.59,4.53,1.2,6.4,1.71,3.73,1,6.2,1.83,6.2,1.83l0,0.07s-2.55-.47-6.33-1.33c-1.89-.44-4.09-0.94-6.44-1.53L206.87,70l-20-5.3Z"/><path d="M187.54,71.65l25.78,4.87,9.47,1.79c3,0.6,5.82,1.21,8.22,1.73,4.81,1.06,8,1.86,8,1.86V82s-3.25-.48-8.09-1.35c-2.42-.44-5.24-1-8.26-1.55l-9.43-2-25.68-5.38V71.65Z"/><path d="M197.76,78.06s3,0.5,7.53,1.34c2.25,0.43,4.89.91,7.7,1.47l8.81,1.76,8.79,1.86c2.81,0.59,5.41,1.2,7.66,1.69,4.48,1,7.45,1.75,7.45,1.75s-3-.5-7.53-1.34c-2.25-.43-4.89-0.9-7.7-1.47l-8.81-1.77-8.79-1.86c-2.81-.59-5.41-1.2-7.66-1.69C200.73,78.79,197.76,78.06,197.76,78.06Z"/><path d="M104.72,60.93l16.49-.26,6.05-.09c1.93,0,3.74.05,5.28,0.09,3.09,0.1,5.15.26,5.15,0.26V61s-2.06.16-5.15,0.26c-1.55,0-3.35.09-5.28,0.09l-6.05-.09L104.72,61V60.93Z"/><path d="M108.19,67.23L128.3,66.1l7.39-.41c2.36-.1,4.56-0.14,6.45-0.18,3.78-.06,6.3,0,6.3,0v0.07s-2.51.27-6.28,0.53c-1.89.12-4.08,0.27-6.44,0.37l-7.39.23-20.14.6V67.23Z"/><path d="M111,74.11l20.06-.55,7.37-.2c2.35,0,4.55,0,6.43,0,3.76,0,6.27.17,6.27,0.17v0.07s-2.51.2-6.27,0.35c-1.88.07-4.07,0.15-6.42,0.19l-7.37,0-20.07,0V74.11Z"/><path d="M110,78.88l19.23-1.26,7.06-.46c2.26-.12,4.36-0.17,6.17-0.23,3.61-.09,6-0.05,6-0.05V77s-2.4.29-6,.57c-1.8.13-3.9,0.3-6.16,0.41l-7.07.28L110,79V78.88Z"/><path d="M111,84.63l18.7-1.1,6.87-.4c2.19-.1,4.24-0.14,6-0.18,3.51-.06,5.86,0,5.86,0V83s-2.33.27-5.83,0.52c-1.75.12-3.8,0.26-6,.36l-6.87.22L111,84.71V84.63Z"/><path d="M122.91,88.36s5-.4,10.05-0.72l3.69-.26c1.18-.05,2.28-0.05,3.23-0.06,1.89,0,3.16.12,3.16,0.12v0.07s-1.25.22-3.13,0.4c-0.94.08-2,.19-3.22,0.24l-3.7.08c-5,.13-10.07.2-10.07,0.2V88.36Z"/><path d="M50.42,75S49.5,76.41,48,78.46c-0.76,1-1.63,2.22-2.62,3.46l-3.15,3.85-8.6,10.46-0.06,0L41.76,85.4l3-4c1-1.25,1.94-2.37,2.76-3.35,1.65-1.93,2.83-3.16,2.83-3.16Z"/><path d="M53.25,77.6s-0.78,1.27-2.07,3.08c-0.65.9-1.4,2-2.26,3.05l-2.74,3.38c-3.71,4.61-7.48,9.19-7.48,9.19l-0.06,0s3.5-4.78,7.06-9.51l2.6-3.49c0.85-1.1,1.69-2.09,2.4-2.94,1.44-1.69,2.48-2.76,2.48-2.76Z"/><path d="M56.11,79.32s-0.75,1.25-2,3c-0.63.89-1.36,1.93-2.18,3l-2.66,3.33C45.68,93.24,42,97.74,42,97.74L42,97.7S45.35,93,48.8,88.33l2.51-3.44C52.14,83.81,53,82.83,53.64,82c1.4-1.67,2.41-2.72,2.41-2.72Z"/><path d="M60.77,82.12s-0.64,1.23-1.72,3c-0.55.87-1.18,1.9-1.9,3L54.8,91.36c-3.17,4.49-6.4,8.94-6.4,8.94l-0.06,0s3-4.64,6-9.24l2.19-3.39c0.72-1.06,1.44-2,2.06-2.86,1.24-1.65,2.15-2.69,2.15-2.69Z"/><path d="M63.73,85s-0.07.18-.22,0.49-0.37.73-.65,1.24-0.64,1.07-1,1.67-0.89,1.19-1.35,1.8c-1.82,2.47-3.69,4.89-3.69,4.89l-0.06,0s1.6-2.61,3.26-5.19c0.41-.65.81-1.3,1.2-1.9S62,86.84,62.37,86.4s0.69-.81.93-1,0.38-.38.38-0.38Z"/><path d="M66.89,87.18s-0.05.16-.17,0.41-0.29.62-.51,1-0.52.89-.85,1.39-0.74,1-1.13,1.48c-1.52,2-3.09,4-3.09,4l-0.06,0s1.3-2.18,2.66-4.33c0.33-.54.66-1.09,1-1.59s0.68-.93,1-1.29,0.58-.66.79-0.85,0.33-.31.33-0.31Z"/><path d="M59.94,81.63s-0.86,1.08-2.25,2.61c-0.7.76-1.52,1.64-2.43,2.55l-2.92,2.78c-4,3.81-8,7.57-8,7.57l-0.05-.05s3.78-4,7.6-7.94l2.8-2.91c0.91-.91,1.8-1.72,2.56-2.42,1.53-1.38,2.62-2.24,2.62-2.24Z"/><path d="M215.92,16s3.46-.78,8.68-1.86l8.91-1.81,10.23-2L254,8.45l9-1.58c5.25-.9,8.76-1.45,8.76-1.45s-3.46.78-8.68,1.86l-8.91,1.81-10.23,2L233.63,13l-9,1.58C219.43,15.46,215.92,16,215.92,16Z"/><path d="M221,18.61s2.5-.6,6.26-1.41c1.88-.39,4.08-0.88,6.44-1.35l7.39-1.46L248.54,13c2.37-.44,4.58-0.79,6.48-1.12,3.8-.63,6.34-1,6.34-1s-2.5.6-6.26,1.41c-1.88.39-4.08,0.88-6.44,1.34l-7.39,1.46-7.41,1.36c-2.37.44-4.58,0.79-6.48,1.12C223.58,18.25,221,18.61,221,18.61Z"/><path class="cls-1" d="M271.58,12.54c0.06,0,0-.07,0-0.08S271.59,12.56,271.58,12.54Z"/><polygon class="cls-1" points="270.61 12.9 270.63 12.87 270.49 12.96 270.61 12.9"/><path class="cls-1" d="M269.68,13.09a1.15,1.15,0,0,0,.51-0.08l0,0,0.06-.11A3,3,0,0,1,269.68,13.09Z"/><path class="cls-1" d="M269.13,12.95s-0.1.06,0.12,0h0Z"/><path class="cls-1" d="M269.23,12.93c0.1,0-.07,0,0,0h0Z"/><path class="cls-1" d="M268.78,13L268.9,13s-0.15,0-.11,0C268.66,13,268.69,13,268.78,13Z"/><path class="cls-1" d="M268.67,13.15l0.06,0S268.7,13.11,268.67,13.15Z"/><path class="cls-1" d="M268.87,13.06l-0.14.06s0,0.05.06,0S268.81,13.1,268.87,13.06Z"/><path class="cls-1" d="M269,13.06c0.08,0,.17,0,0.05.07C269.25,13.07,269.2,13,269,13.06Z"/><path class="cls-1" d="M269.66,13.21h0.1l0.08-.06A0.61,0.61,0,0,0,269.66,13.21Z"/><path class="cls-1" d="M268,13.15a0.33,0.33,0,0,0,.07.08l0.09,0A0.26,0.26,0,0,1,268,13.15Z"/><path class="cls-1" d="M268,13.24l-0.13.07C268,13.29,268,13.26,268,13.24Z"/><polygon class="cls-1" points="268.67 13.28 268.89 13.15 268.63 13.29 268.67 13.28"/><polygon class="cls-1" points="267.41 13.26 267.48 13.19 267.35 13.3 267.41 13.26"/><path class="cls-1" d="M267,13.34c0.05-.06-0.1-0.06,0-0.1a0.77,0.77,0,0,0-.24.14A0.49,0.49,0,0,1,267,13.34Z"/><path class="cls-1" d="M266.65,13.46l0.12-.08Z"/><path class="cls-1" d="M267.65,13.34a0.16,0.16,0,0,0-.13,0l0.07,0.06h0.06Z"/><path class="cls-1" d="M267.59,13.36h0l-0.12,0Z"/><path class="cls-1" d="M267.66,13.34h0Z"/><path class="cls-1" d="M268.29,13.3c-0.08.05-.24,0.13-0.06,0.15S268.17,13.38,268.29,13.3Z"/><path class="cls-1" d="M267.75,13.41l0.16,0s0,0,0-.06Z"/><polygon class="cls-1" points="267.68 13.45 267.75 13.41 267.69 13.42 267.68 13.45"/><path class="cls-1" d="M266.92,13.47a0.63,0.63,0,0,1-.21.08l0.27,0S267,13.44,266.92,13.47Z"/><path class="cls-1" d="M267.25,13.42h0S267.25,13.43,267.25,13.42Z"/><path class="cls-1" d="M265.91,13.71h0Z"/><path class="cls-1" d="M267,13.52a0.19,0.19,0,0,0,.14-0.05l-0.15,0S267,13.53,267,13.52Z"/><path class="cls-1" d="M266.43,13.53h0.12A0.16,0.16,0,0,0,266.43,13.53Z"/><path class="cls-1" d="M267.21,13.41h0S267.2,13.4,267.21,13.41Z"/><path class="cls-1" d="M267.21,13.41l-0.08.06,0.1,0h0Z"/><path class="cls-1" d="M265.76,14.19a0.27,0.27,0,0,1,.32-0.12c0.14-.08,0-0.26-0.15-0.35,0,0,0,.05-0.14.12,0.06,0,.35,0,0.23.09a0.28,0.28,0,0,1-.27,0c0.1,0.06-.23.17-0.16,0.27l0.17-.08S265.71,14.19,265.76,14.19Z"/><path class="cls-1" d="M266.21,13.67l0.06,0a0.66,0.66,0,0,1-.23,0,0.17,0.17,0,0,0-.12.1l0.31-.05h0Z"/><path class="cls-1" d="M266.55,13.59c0,0.08-.18.14-0.07,0.19a0.44,0.44,0,0,0,.22-0.13c-0.29.08,0.08-.06-0.14-0.05l0.15-.05h-0.15s0,0,0,0h0v0c-0.09,0,0,0,0,0h0l-0.29.1Z"/><path class="cls-1" d="M268.1,13.63h0S268.06,13.64,268.1,13.63Z"/><path class="cls-1" d="M268,13.61a0.15,0.15,0,0,1,.1-0.05c0.06,0,0,0,0,.05s0.14-.08,0-0.09h0a0.5,0.5,0,0,1-.27-0.07A0.48,0.48,0,0,0,268,13.61Z"/><path class="cls-1" d="M267.26,13.62L267,13.7l0.14,0v0C267.28,13.69,267.24,13.65,267.26,13.62Z"/><polygon class="cls-1" points="265.88 13.68 265.89 13.6 265.77 13.73 265.88 13.68"/><polygon class="cls-1" points="265.56 13.76 265.56 13.69 265.48 13.74 265.56 13.76"/><path class="cls-1" d="M247.79,18.18l-0.07,0Z"/><path class="cls-1" d="M248.31,18.08v0S248.29,18.09,248.31,18.08Z"/><path class="cls-1" d="M257.76,15.35c-0.12,0-.25-0.1-0.22,0l0,0.06A0.38,0.38,0,0,1,257.76,15.35Z"/><path class="cls-1" d="M252.5,16.85h0l0.06-.08Z"/><path class="cls-1" d="M252.48,17.15l-0.15,0Z"/><path class="cls-1" d="M245,18.84l-0.07.09C245,18.9,245,18.87,245,18.84Z"/><path class="cls-1" d="M262.31,14.44a1,1,0,0,0-.23,0C262.19,14.47,262.29,14.51,262.31,14.44Z"/><path class="cls-1" d="M247.84,17.42s-0.06,0-.05.05S247.86,17.43,247.84,17.42Z"/><path class="cls-1" d="M261.82,14.5h0.05a0.92,0.92,0,0,1,.21-0.06A0.32,0.32,0,0,0,261.82,14.5Z"/><path class="cls-1" d="M234.65,20.88h0Z"/><path class="cls-1" d="M231.5,20.8l0.12,0Z"/><path class="cls-1" d="M264.28,14c0.07,0,0,0,0,0h0Z"/><path class="cls-1" d="M264.66,14.19a0,0,0,0,0,0,0A0.06,0.06,0,0,1,264.66,14.19Z"/><path class="cls-1" d="M261.23,15.06h0S261.25,15.07,261.23,15.06Z"/><path class="cls-1" d="M264.38,14h0Z"/><path class="cls-1" d="M264.36,14h0.06S264.42,13.94,264.36,14Z"/><path class="cls-1" d="M264.18,14l0.11,0h0Z"/><path class="cls-1" d="M240.13,19.57h0C240.05,19.61,240.08,19.6,240.13,19.57Z"/><polygon class="cls-1" points="256.15 16.42 256.16 16.42 256.14 16.42 256.15 16.42"/><path class="cls-1" d="M255.92,16.52a0.23,0.23,0,0,1,.23-0.11L256,16.23Z"/><path class="cls-1" d="M246.55,18.46l0.18,0c-0.18.14-.34,0.14-0.16,0.19,0-.22.66-0.16,0.64-0.38l0.12,0-0.07,0a1.36,1.36,0,0,0,.42-0.21c0.1,0,.18,0,0.11.05l0.21-.1c0.06,0,.06,0,0,0l0.33-.08h0a1.5,1.5,0,0,1,.19-0.15c0.09,0,0,0,0,.05l0.17-.09c0.09,0-.06.13-0.18,0.14,0.22,0.18.14-.08,0.54,0l-0.17.06a1.06,1.06,0,0,0,.48.06c-0.05,0-.43-0.11-0.24-0.21a0.35,0.35,0,0,0,.23-0.07c0,0.08.12,0,.25,0v0.1a0.48,0.48,0,0,0,.19-0.17,0.24,0.24,0,0,1,.26.11c0.26,0-.2-0.09.1-0.17a1.38,1.38,0,0,0,.6-0.19c0.16,0,0,.07,0,0.09l0.11-.11s0,0,0,0a0.43,0.43,0,0,1,.16-0.17,4.16,4.16,0,0,0,.58-0.08c0.06,0,0,.07,0,0.1a2.11,2.11,0,0,0,.46-0.27l0.22,0c-0.17,0,0-.17.16-0.28l-0.15-.06,0.26-.11s0,0.05,0,.1l0,0c0.1,0,.07.09,0,0.16l-0.11,0a0.25,0.25,0,0,0-.08.21l0.08,0s0,0,0,0A0.13,0.13,0,0,0,252.6,17l0.08,0.1v0h0.37a2.6,2.6,0,0,1,.81-0.51c-0.08.1,0,.14,0,0.24a1.17,1.17,0,0,0-.52.13c0.11,0,.1,0,0.07.06l0.35-.17c0,0.08.09,0,.2,0.06-0.11-.14.26-0.16,0.4-0.24s0,0.11-.19.14a4.11,4.11,0,0,0,.45-0.18,0.09,0.09,0,0,0-.08,0c0.1-.07.36-0.08,0.31,0h0a1.68,1.68,0,0,0,.93-0.33,0.77,0.77,0,0,1,0,.2l0.44-.56c0,0.12.21,0.36,0,.48a0.57,0.57,0,0,0,.31-0.07c-0.05,0-.16-0.14-0.09-0.17a1.47,1.47,0,0,0,.39.11c-0.08,0,0-.21.08-0.22a0.55,0.55,0,0,1,0,.2L257.1,16c-0.07,0,0,.15.09,0.19a1.54,1.54,0,0,1,.32-0.08l-0.13,0c0.33,0,.27-0.31.59-0.37,0,0-.05.25,0.12,0.23a1.45,1.45,0,0,1,.51-0.63l0.07,0,0.21-.1a4.4,4.4,0,0,1-.62.68,0.29,0.29,0,0,0,.23,0c0.07,0-.08.09-0.14,0.11l0.43-.05a2.74,2.74,0,0,1,.27-0.26l-0.44.2a0.55,0.55,0,0,1,.51-0.4c0.08,0,0,.2,0,0.23a0.57,0.57,0,0,1,.3-0.11l-0.12.08a1.2,1.2,0,0,1,.46-0.14,0.37,0.37,0,0,0,.23,0,0.68,0.68,0,0,1-.18-0.57,2.73,2.73,0,0,1,.48.09,1.74,1.74,0,0,1,0,.32,0.18,0.18,0,0,1,.08-0.1c0.08,0,0,.1.14,0.05,0-.11.32-0.06,0.06-0.11a1.65,1.65,0,0,1,.35-0.05c-0.07-.06.11-0.27,0.26-0.33a0.1,0.1,0,0,0,.06.07c0.32-.05.5,0,0.79-0.1,0,0,.18,0,0.13.08a0.36,0.36,0,0,1,.16-0.09c0.19,0.06-.2.06,0,0.14a0.81,0.81,0,0,1,.34-0.2,0.49,0.49,0,0,0-.42.11,0.61,0.61,0,0,1,.47-0.44c0.24-.08.12,0.06,0.16,0a3.59,3.59,0,0,1,.75-0.29c0.17,0.05,0,.17.09,0.22a1.86,1.86,0,0,1-.45,0h0.17a0.48,0.48,0,0,1-.26.08c0.14,0.05.78-.14,1.15-0.15,0.06,0,.16-0.09.1-0.12l-0.11,0c-0.12,0,.19-0.14,0-0.14a1,1,0,0,1,.51-0.19l0.06,0.09a0.22,0.22,0,0,0-.2,0,0.74,0.74,0,0,0,.42-0.08l-0.16,0a1.18,1.18,0,0,1,.5-0.23,1.41,1.41,0,0,0-.2-0.06c0.14,0.12-.48.09-0.27,0.2a2.06,2.06,0,0,0-.45-0.08s0.08,0-.09.06l0,0h0l0.09,0a1.75,1.75,0,0,1-.39.19c-0.1,0,0,0,0-.07l-0.12.08c0-.07-0.27-0.07-0.06-0.15l-0.2,0a0.72,0.72,0,0,0-.38.05c-0.1,0-.22.13-0.15,0.05l-0.3.11v0a2.79,2.79,0,0,1-1,.19,1.19,1.19,0,0,1-.38.1l0-.05a1.63,1.63,0,0,0-.46.1,1.87,1.87,0,0,0-.89.11v0.08a2.78,2.78,0,0,0-.5.16l0,0.07a3.87,3.87,0,0,1-.72.1,0.15,0.15,0,0,1,.14,0,7.53,7.53,0,0,0-1,.2,0.25,0.25,0,0,1-.18,0h0l-0.11,0,0.09,0-0.22.07-0.05-.07h0c-0.09,0-.06,0,0,0.1l-0.1.07c-0.09-.11-0.21.09-0.33,0a1.24,1.24,0,0,0-.43.28s0,0,0,0a0.48,0.48,0,0,0-.27.06l-0.06-.09-0.18.17c-0.14,0-.2-0.06-0.09-0.16-0.28.18-.23,0.09-0.46,0.26V16a0.59,0.59,0,0,1-.28.09c-0.23-.08-1,0.19-1.55.18,0.14,0.16-.26,0-0.25.11,0,0-.12,0,0-0.1a1.38,1.38,0,0,0-.57.17,0.34,0.34,0,0,1,0-.1,0.13,0.13,0,0,1-.11,0s0,0,.07-0.07a0.27,0.27,0,0,0-.26.33,0.25,0.25,0,0,0-.3.09c-0.06,0-.15-0.06,0-0.11a1.07,1.07,0,0,0-.58.16,0.23,0.23,0,0,0-.16,0,4.25,4.25,0,0,0-.44.08h0.06c-0.06.14-.17,0.06-0.33,0.11h0c-0.4,0-.16.08-0.56,0.05l0,0.07a1.14,1.14,0,0,1-.57.08l0.09,0a1.38,1.38,0,0,1-.51-0.15s0,0,.07,0c-0.34,0,0,.11-0.25.18-0.05,0,0-.15-0.13-0.13a2.14,2.14,0,0,1-.67.21c0.06,0,.11.06,0,0.12a1.12,1.12,0,0,0-.61.1l0,0a1.85,1.85,0,0,0-.47.23c-0.17-.24-0.78.29-0.82,0l-0.39.09v0a0.6,0.6,0,0,0-.41.19c-0.06,0,0,0,0,0a1,1,0,0,0-.7.23l0-.07a4.7,4.7,0,0,0-.91.15,0.06,0.06,0,0,1,0,0c-0.39.18-1,0-1.11,0.3l-0.26.13c0.35,0,0,.13.13,0.15-0.13,0-.37,0-0.21-0.06h0a1.12,1.12,0,0,0-.46-0.07c-0.69.15-1.37,0.2-2,.33l0.1,0.1-0.23,0c-0.06,0-.1-0.07.06-0.1a0.27,0.27,0,0,0-.26.14c-0.32,0,.1-0.16,0-0.14l-0.13,0h0a0.47,0.47,0,0,1-.29.15,0.2,0.2,0,0,1-.13-0.05s0,0-.07,0l-0.28,0,0.13,0.07c-0.12.07-.27,0-0.12,0.13a4.59,4.59,0,0,0-1.19.13,1.41,1.41,0,0,1-.55.17c0.06,0,.11.1-0.08,0.13,0-.23-0.36,0-0.54-0.14,0.15,0.07-.52.13-0.28,0.23-0.16,0,0-.08-0.15-0.1a10.35,10.35,0,0,1-1.27.23s0.08,0.06,0,.12l-0.27-.09c-0.09,0,0,.18-0.23.11,0,0,.07,0,0,0.07a21.45,21.45,0,0,1-2.75.41c0.13,0,.05.05,0,0.07,0.06,0,0,.07,0,0.1l-0.4,0c0,0.12-.4.09-0.42,0.2L231,21c-0.14.15,0.28,0.22,0.28,0.37a3.34,3.34,0,0,0,.76-0.15c0.07,0,0,.06,0,0.09a0.37,0.37,0,0,1,.32-0.12l0,0a9,9,0,0,1,1.21-.15L233.46,21a0.52,0.52,0,0,1,.2,0c0.11-.14-0.32.06-0.23-0.09,0.18,0.12.8-.16,0.93,0,0.17,0-.07-0.08.11-0.11l0.06,0,0-.07a0.18,0.18,0,0,1,.2.07l-0.1,0a1.94,1.94,0,0,0,.47-0.1h-0.17a14.88,14.88,0,0,0,1.49-.38l0,0a4.32,4.32,0,0,1,.66-0.13h0a0.66,0.66,0,0,1,.27-0.11c-0.09.06,0.2,0,.08,0.11a0.73,0.73,0,0,0,.4-0.28l0.07,0a0.43,0.43,0,0,1,.26-0.15c-0.15.08,0.14,0.06,0,.17a2.68,2.68,0,0,1,.79-0.1c0.15-.2-0.37,0-0.27-0.07-0.1,0,.13-0.15.26-0.16a1.45,1.45,0,0,0,.58.09l-0.06,0a2,2,0,0,1,.39-0.07c0.06-.11.19,0,0.19-0.16l-0.29.09a1.06,1.06,0,0,1,.58-0.23,0.5,0.5,0,0,1-.14.11c0.09,0,.15-0.06.24,0a1.59,1.59,0,0,1-.51.23c0.1,0,.32-0.16.26,0a1.76,1.76,0,0,1,.51-0.22v0.08a0.51,0.51,0,0,1,.16-0.08l-0.1.12a2.35,2.35,0,0,1,.52-0.08c-0.35.07-.1-0.07-0.26-0.1,0.42-.19.29,0.14,0.78,0-0.06,0-.26,0-0.16-0.05a0.84,0.84,0,0,1,.29,0c0.32-.08-0.07-0.07.06-0.14s0.15-.07.29-0.13l0,0.08c0.38,0,.07-0.18.41-0.19l-0.12.13,0.17-.06,0,0.09a0.74,0.74,0,0,1,.43-0.11c-0.05,0,0-.14.16-0.18s0,0.09.18,0a0.15,0.15,0,0,1-.2.08s0,0.06,0,.09a1,1,0,0,0,.39-0.07h-0.09l0.32-.17c0.06,0,0,0,0,.08A1.83,1.83,0,0,1,244,18.9a0.18,0.18,0,0,1-.13.19l0.31-.13s0.18,0,.14.07c0.19,0,.41-0.21.66-0.21a0.17,0.17,0,0,1,.08-0.05,1.61,1.61,0,0,0,.68-0.13l0.17,0.08c0.2-.07-0.23-0.1.1-0.21s0.11,0.08.2,0.09a0.69,0.69,0,0,1,.54-0.19A1.11,1.11,0,0,1,246.55,18.46Zm2.53-.57a0.21,0.21,0,0,1-.18.06C248.93,17.85,249,17.88,249.08,17.89Zm3.82-1a0.17,0.17,0,0,1-.16,0A0.35,0.35,0,0,1,252.9,16.92Zm10.65-2.72h0C263.43,14.2,263.47,14.2,263.55,14.2Zm0.23,0s0,0,0,0a0.18,0.18,0,0,1-.12,0A0.1,0.1,0,0,0,263.78,14.18Zm-24.48,5h0C239.26,19.26,239.28,19.23,239.3,19.2Z"/><path class="cls-1" d="M252.48,17.11a0.07,0.07,0,0,1,0,0S252.44,17.11,252.48,17.11Z"/><path class="cls-1" d="M245,18.82h0v0Z"/><path class="cls-1" d="M260.38,15.55l-0.1,0S260.31,15.56,260.38,15.55Z"/><path class="cls-1" d="M265,13.81l-0.14,0a0.27,0.27,0,0,1,.14,0S264.92,13.82,265,13.81Z"/><path class="cls-1" d="M266.33,14l0.06,0v0C266.29,14,266.23,14,266.33,14Z"/><path class="cls-1" d="M265.15,14c0,0.06.11,0,.21,0h0C265.36,13.93,265.26,14,265.15,14Z"/><path class="cls-1" d="M265.39,14l0.09,0S265.44,14,265.39,14Z"/><path class="cls-1" d="M264.07,14.08a0.28,0.28,0,0,0,0-.07C264.15,13.92,263.81,14.18,264.07,14.08Z"/><polygon class="cls-1" points="265.28 14.23 265.23 14.16 265.18 14.23 265.28 14.23"/><path class="cls-1" d="M264.46,14.34h0.17s0,0,0,0A0.45,0.45,0,0,0,264.46,14.34Z"/><path class="cls-1" d="M264.67,14.29a0.36,0.36,0,0,0,.13,0Z"/><polygon class="cls-1" points="265.06 14.3 265.01 14.29 264.89 14.31 265.06 14.3"/><path class="cls-1" d="M262.7,14.68l-0.17.06s0,0,.1,0S262.73,14.7,262.7,14.68Z"/><path class="cls-1" d="M263.28,14.78a0.17,0.17,0,0,1-.09,0v0.1Z"/><path class="cls-1" d="M262.77,14.91s-0.24.13,0,.08C262.76,15,262.94,14.9,262.77,14.91Z"/><polygon class="cls-1" points="260.05 15.34 260.1 15.33 260.06 15.17 260.05 15.34"/><path class="cls-1" d="M257.76,16.21c0.22,0,0-.11.23-0.1,0,0-.16,0-0.12-0.05C257.75,16.12,257.68,16.11,257.76,16.21Z"/><path class="cls-1" d="M257.87,16.05l0.06,0Z"/><polygon class="cls-1" points="230.99 20.81 230.84 20.81 230.94 20.84 230.99 20.81"/><path class="cls-1" d="M230.75,21l-0.05-.1-0.06.11A0.16,0.16,0,0,1,230.75,21Z"/><path class="cls-1" d="M249.5,18v0a0.15,0.15,0,0,0-.12,0Z"/><polygon class="cls-1" points="247.64 18.32 247.67 18.32 247.59 18.23 247.64 18.32"/><path class="cls-1" d="M246.11,18.75l0.2-.05C246.18,18.74,246.07,18.64,246.11,18.75Z"/><path d="M230.69,23.67s1.52-.43,3.82-1c1.15-.27,2.49-0.61,3.93-0.92l4.52-1,4.54-.88c1.45-.28,2.81-0.49,4-0.7,2.33-.39,3.9-0.58,3.9-0.58s-1.52.43-3.82,1c-1.15.27-2.49,0.61-3.93,0.92l-4.52,1-4.54.88c-1.45.28-2.81,0.49-4,.7C232.26,23.47,230.69,23.67,230.69,23.67Z"/><path d="M230.69,30.92s1.74-.47,4.38-1.08c1.32-.29,2.85-0.67,4.51-1l5.18-1.07,5.2-1c1.66-.31,3.22-0.55,4.55-0.78,2.67-.43,4.46-0.66,4.46-0.66s-1.74.47-4.38,1.08c-1.32.29-2.85,0.67-4.51,1L244.9,28.5l-5.2,1c-1.66.31-3.22,0.55-4.55,0.78C232.48,30.69,230.69,30.92,230.69,30.92Z"/><path d="M239,32.14s1.22-.37,3.08-0.83c0.93-.22,2-0.5,3.18-0.76s2.41-.52,3.66-0.78,2.5-.49,3.68-0.69,2.28-.37,3.22-0.53c1.89-.29,3.16-0.42,3.16-0.42s-1.22.37-3.08,0.83c-0.93.22-2,.5-3.18,0.76s-2.41.52-3.66,0.78-2.5.49-3.68,0.69-2.28.37-3.22,0.53C240.27,32,239,32.14,239,32.14Z"/><path d="M232.19,35.84s1.43-.35,3.59-0.79c1.08-.21,2.34-0.47,3.7-0.71s2.8-.48,4.25-0.72,2.9-.45,4.26-0.63,2.64-.33,3.73-0.47c2.19-.26,3.66-0.37,3.66-0.37s-1.43.35-3.59,0.79c-1.08.21-2.34,0.47-3.7,0.71s-2.8.48-4.25,0.72-2.9.45-4.26,0.63-2.64.33-3.73,0.47C233.66,35.72,232.19,35.84,232.19,35.84Z"/><path d="M262.51,82.22l19.94-5.77,7.32-2.11c2.34-.65,4.55-1.2,6.43-1.68,3.78-.94,6.32-1.47,6.32-1.47l0,0.07s-2.46.85-6.18,2c-1.86.56-4,1.21-6.38,1.86L282.61,77l-20.08,5.26Z"/><path d="M267.54,85.26s2.34-.75,5.87-1.79c1.77-.51,3.83-1.13,6-1.74l7-1.92,7-1.82c2.23-.58,4.32-1.07,6.11-1.52,3.58-.87,6-1.39,6-1.39s-2.34.75-5.87,1.79c-1.77.51-3.83,1.13-6,1.74l-7,1.91-7,1.82c-2.23.58-4.32,1.07-6.11,1.52C269.94,84.74,267.54,85.26,267.54,85.26Z"/><path d="M269,93.11s2.29-.82,5.75-2c1.74-.56,3.75-1.25,5.93-1.93l6.82-2.13,6.85-2c2.18-.65,4.24-1.2,6-1.71,3.51-1,5.88-1.57,5.88-1.57s-2.29.82-5.75,2c-1.74.56-3.75,1.25-5.93,1.93l-6.82,2.13-6.85,2c-2.18.65-4.24,1.2-6,1.71C271.4,92.51,269,93.11,269,93.11Z"/><path d="M270.78,88.3l14.28-4.11,5.25-1.5c1.68-.45,3.26-0.82,4.62-1.15,2.72-.63,4.55-1,4.55-1l0,0.07s-1.75.64-4.42,1.46c-1.33.4-2.89,0.87-4.57,1.33l-5.29,1.33-14.42,3.6Z"/><path d="M274.09,96.41s5.75-1.73,11.53-3.39l4.23-1.24c1.36-.37,2.64-0.66,3.74-0.92,2.2-.49,3.69-0.73,3.69-0.73l0,0.07s-1.41.55-3.56,1.23c-1.08.33-2.33,0.73-3.69,1.09l-4.28,1.06c-5.82,1.47-11.66,2.88-11.66,2.88Z"/><path d="M394.67,83.89L415.06,78l7.49-2.16c2.4-.66,4.65-1.23,6.58-1.72,3.86-1,6.46-1.51,6.46-1.51l0,0.07s-2.51.86-6.32,2c-1.91.57-4.13,1.24-6.53,1.9l-7.54,2L394.69,84Z"/><path d="M400.61,86.68s2.3-.74,5.77-1.76c1.74-.5,3.76-1.11,5.94-1.71l6.83-1.88L426,79.54c2.19-.57,4.24-1.05,6-1.49,3.52-.85,5.88-1.36,5.88-1.36s-2.3.74-5.77,1.76c-1.74.5-3.76,1.11-5.94,1.71L419.33,82l-6.85,1.78c-2.19.57-4.24,1.05-6,1.49C403,86.17,400.61,86.68,400.61,86.68Z"/><path d="M402.11,94.53s2.29-.82,5.75-2c1.74-.56,3.75-1.25,5.93-1.93l6.82-2.13,6.85-2c2.18-.65,4.24-1.2,6-1.71,3.51-1,5.88-1.57,5.88-1.57s-2.29.82-5.75,2c-1.74.56-3.75,1.25-5.93,1.93l-6.82,2.13-6.85,2c-2.18.65-4.24,1.2-6,1.71C404.47,93.94,402.11,94.53,402.11,94.53Z"/><path d="M403.85,89.73l14.28-4.11,5.25-1.5c1.68-.45,3.26-0.82,4.62-1.15,2.72-.63,4.55-1,4.55-1l0,0.07s-1.75.64-4.42,1.46c-1.34.4-2.89,0.87-4.57,1.33l-5.29,1.33-14.42,3.6Z"/><path d="M407.16,97.83s5.75-1.73,11.53-3.39l4.23-1.24c1.36-.37,2.64-0.66,3.74-0.92,2.2-.49,3.69-0.73,3.69-0.73l0,0.07s-1.41.55-3.56,1.23c-1.08.33-2.33,0.73-3.69,1.09L418.84,95C413,96.5,407.18,97.9,407.18,97.9Z"/><path d="M341.17,32.66s5.39,0.32,10.77.71l4,0.27c1.26,0.11,2.43.27,3.43,0.4,2,0.28,3.33.56,3.33,0.56v0.07s-1.36,0-3.38,0c-1-.05-2.19-0.1-3.45-0.22L351.88,34c-5.36-.58-10.72-1.23-10.72-1.23V32.66Z"/><path d="M337.91,36.74l15.5-.26,5.69-.09c1.82,0,3.51.05,5,.09,2.91,0.1,4.84.26,4.84,0.26v0.08s-1.94.16-4.84,0.26c-1.45,0-3.15.09-5,.09l-5.69-.09-15.5-.26V36.74Z"/><path d="M337.91,39.65l13.85-.26,5.08-.09c1.62,0,3.14.05,4.44,0.09,2.6,0.1,4.33.26,4.33,0.26v0.07s-1.73.16-4.33,0.26c-1.3,0-2.81.09-4.44,0.09L351.76,40l-13.85-.26V39.65Z"/><path d="M341.16,42.48s5.45-.17,10.89-0.26l4-.09c1.28,0,2.47.05,3.49,0.09,2,0.1,3.4.26,3.4,0.26v0.08s-1.36.16-3.4,0.26c-1,0-2.21.09-3.49,0.09l-4-.09c-5.45-.1-10.89-0.26-10.89-0.26V42.48Z"/><path d="M341.17,44.64l13.08,1.64,4.8,0.61c1.53,0.22,2.95.48,4.16,0.7,2.43,0.46,4,.85,4,0.85V48.5s-1.65-.08-4.11-0.33c-1.23-.14-2.66-0.29-4.19-0.52l-4.78-.79-13-2.15V44.64Z"/><path d="M341.17,48.43s4.76,0.54,9.5,1.16L354.16,50c1.11,0.17,2.14.37,3,.55,1.76,0.37,2.92.7,2.92,0.7v0.07s-1.21,0-3-.18c-0.89-.09-1.94-0.2-3-0.36l-3.46-.61c-4.72-.8-9.43-1.67-9.43-1.67V48.43Z"/><path d="M250.17,35.43s4.76,0.54,9.5,1.16L263.16,37c1.11,0.17,2.14.37,3,.55,1.76,0.37,2.92.7,2.92,0.7v0.07s-1.21,0-3-.18c-0.89-.09-1.94-0.2-3-0.36l-3.46-.61c-4.72-.8-9.43-1.67-9.43-1.67V35.43Z"/><path d="M344,52.34s4.76,0.54,9.5,1.16l3.49,0.43c1.11,0.17,2.14.37,3,.55,1.76,0.37,2.92.7,2.92,0.7v0.07s-1.21,0-3-.18c-0.89-.09-1.94-0.2-3-0.36l-3.46-.61c-4.72-.8-9.43-1.67-9.43-1.67V52.34Z"/><path d="M503.71,88.25l13.68,5.85,5,2.15c1.59,0.71,3.05,1.43,4.31,2,2.5,1.24,4.13,2.14,4.13,2.14l0,0.07s-1.76-.62-4.35-1.67c-1.29-.54-2.79-1.15-4.39-1.87l-4.95-2.32-13.46-6.33Z"/><path d="M504.86,85.8l14.53,6.85,5.33,2.52c1.69,0.83,3.24,1.65,4.58,2.35,2.66,1.42,4.39,2.45,4.39,2.45l0,0.07s-1.87-.74-4.62-2c-1.37-.63-3-1.36-4.66-2.19l-5.25-2.68-14.3-7.32Z"/><path d="M507.23,83.8l16.35,7.85,6,2.89c1.9,0.95,3.65,1.88,5.16,2.67,3,1.6,5,2.76,5,2.76l0,0.07s-2.1-.86-5.19-2.29c-1.54-.72-3.34-1.56-5.24-2.51l-5.92-3L507.2,83.87Z"/><path d="M509.82,75.69s3.39,1.59,8.43,4.05L526.84,84l9.81,4.94,9.77,5,8.49,4.45c5,2.63,8.24,4.43,8.24,4.43s-3.39-1.59-8.43-4.05l-8.59-4.25-9.81-4.94-9.77-5-8.49-4.45C513.1,77.49,509.82,75.69,509.82,75.69Z"/><path d="M418.19,25.34s1.32-.42,3.33-1c1-.26,2.17-0.58,3.43-0.89s2.61-.62,4-0.93,2.7-.59,4-0.84,2.46-.46,3.48-0.65c2-.36,3.42-0.54,3.42-0.54s-1.32.42-3.33,1c-1,.26-2.17.58-3.43,0.89s-2.61.62-4,.92-2.7.59-4,.84-2.46.46-3.48,0.65C419.57,25.15,418.19,25.34,418.19,25.34Z"/><path d="M423.13,28.22s1.12-.43,2.82-1c0.85-.27,1.84-0.6,2.91-0.92s2.22-.64,3.37-1,2.3-.62,3.39-0.88,2.11-.49,3-0.69c1.75-.38,2.93-0.58,2.93-0.58s-1.12.43-2.82,1c-0.85.27-1.84,0.6-2.91,0.92s-2.22.64-3.37,1-2.3.62-3.39,0.88-2.11.49-3,.69C424.31,28,423.13,28.22,423.13,28.22Z"/><path d="M426.92,30.92s1.25-.46,3.15-1.08c1-.29,2.06-0.66,3.25-1s2.47-.71,3.76-1.07,2.57-.69,3.78-1,2.35-.55,3.32-0.78c1.95-.44,3.26-0.67,3.26-0.67s-1.25.47-3.15,1.08c-1,.29-2.06.66-3.25,1s-2.47.71-3.76,1.07-2.57.68-3.78,1-2.35.55-3.32,0.78C428.23,30.69,426.92,30.92,426.92,30.92Z"/><path d="M432.33,33.66s1-.46,2.65-1.06c0.8-.29,1.73-0.65,2.74-1s2.09-.71,3.17-1.06,2.17-.68,3.2-1,2-.54,2.82-0.77c1.66-.43,2.78-0.66,2.78-0.66s-1,.46-2.65,1.07c-0.8.29-1.73,0.65-2.74,1s-2.09.71-3.17,1.06-2.17.68-3.2,1-2,.54-2.82.77C433.45,33.43,432.33,33.66,432.33,33.66Z"/><path d="M453.29,34.6l14.83-.26,5.44-.09c1.74,0,3.36.05,4.75,0.09,2.78,0.1,4.63.26,4.63,0.26v0.08s-1.85.16-4.63,0.26c-1.39,0-3,.09-4.75.09l-5.44-.09-14.83-.26V34.6Z"/><path d="M451.64,37s2.46-.14,6.14-0.25c1.84,0,4-.13,6.29-0.16l7.21-.1h7.22c2.3,0,4.45.05,6.29,0.07,3.68,0.07,6.14.17,6.14,0.17s-2.46.14-6.14,0.25c-1.84,0-4,.13-6.29.16l-7.21.1h-7.22c-2.3,0-4.45-.05-6.29-0.07C454.1,37.14,451.64,37,451.64,37Z"/><path d="M449.83,39.64L475,39.38l9.25-.09c3,0,5.7.05,8.06,0.09,4.72,0.1,7.87.26,7.87,0.26v0.08s-3.15.16-7.87,0.26c-2.36,0-5.11.09-8.06,0.09L475,40l-25.18-.26V39.64Z"/><path d="M447.89,42.51s3.49-.12,8.72-0.21l8.94-.11,10.24,0,10.24,0L495,42.3c5.23,0.09,8.72.21,8.72,0.21s-3.49.12-8.72,0.21l-8.94.11-10.24,0-10.24,0-8.94-.11C451.38,42.63,447.89,42.51,447.89,42.51Z"/><path d="M341.17,48.43s4.76,0.54,9.5,1.16L354.16,50c1.11,0.17,2.14.37,3,.55,1.76,0.37,2.92.7,2.92,0.7v0.07s-1.21,0-3-.18c-0.89-.09-1.94-0.2-3-0.36l-3.46-.61c-4.72-.8-9.43-1.67-9.43-1.67V48.43Z"/><path d="M506.83,79.37l20.64,10.06,7.58,3.7c2.41,1.21,4.63,2.38,6.53,3.38,3.81,2,6.3,3.45,6.3,3.45l0,0.07s-2.64-1.14-6.53-3c-1.94-.93-4.21-2-6.62-3.21L527.21,90,506.8,79.44Z"/><path d="M515.65,74.31s2.92,1.29,7.26,3.31l7.4,3.48,8.45,4.06,8.4,4.15c2.68,1.32,5.16,2.61,7.3,3.68,4.26,2.18,7.08,3.68,7.08,3.68s-2.92-1.29-7.26-3.31c-2.16-1-4.71-2.18-7.4-3.48l-8.45-4.06L530,81.68,522.73,78C518.47,75.81,515.65,74.31,515.65,74.31Z"/><path d="M528.27,76.74s2.5,1.14,6.22,2.93c1.85,0.91,4,1.94,6.33,3.09L548,86.37l7.18,3.7c2.29,1.18,4.4,2.33,6.23,3.29,3.63,1.95,6,3.3,6,3.3s-2.5-1.14-6.22-2.93c-1.85-.91-4-1.93-6.33-3.09L547.7,87l-7.17-3.7c-2.29-1.18-4.4-2.33-6.23-3.29C530.66,78.09,528.27,76.74,528.27,76.74Z"/><path d="M532.73,74.31s1.51,0.64,3.74,1.69c1.11,0.53,2.41,1.13,3.78,1.82l4.3,2.16,4.25,2.24c1.36,0.71,2.6,1.43,3.68,2,2.14,1.2,3.54,2.06,3.54,2.06s-1.51-.64-3.74-1.69c-1.11-.53-2.41-1.13-3.78-1.82l-4.3-2.16L540,78.39c-1.36-.72-2.6-1.43-3.68-2C534.14,75.16,532.73,74.31,532.73,74.31Z"/><path d="M528.27,68.8s1.05,0.32,2.6.88c0.77,0.29,1.67.61,2.63,1s2,0.8,3,1.22,2,0.87,2.94,1.31,1.79,0.86,2.53,1.21c1.48,0.73,2.43,1.27,2.43,1.27s-1.05-.32-2.6-0.88c-0.77-.29-1.67-0.61-2.63-1s-2-.8-3-1.22-2-.87-2.94-1.31-1.79-.86-2.53-1.21C529.23,69.34,528.27,68.8,528.27,68.8Z"/><path d="M596.45,22.38s3.75-.46,7.51-0.85c0.94-.11,1.88-0.22,2.76-0.3s1.71-.08,2.42-0.09c1.42,0,2.37.08,2.37,0.08v0.07s-0.93.23-2.33,0.44c-0.7.09-1.52,0.21-2.4,0.28S605,22.1,604,22.13c-3.77.19-7.55,0.32-7.55,0.32V22.38Z"/><path d="M595.25,25.55s1.11-.22,2.78-0.46c0.84-.11,1.81-0.26,2.86-0.38s2.17-.23,3.29-0.34,2.24-.19,3.3-0.25,2-.1,2.88-0.14c1.69-.06,2.82,0,2.82,0s-1.11.22-2.78,0.46c-0.84.11-1.81,0.26-2.86,0.38s-2.17.23-3.29,0.34-2.24.19-3.3,0.25-2,.1-2.88.14C596.39,25.56,595.25,25.55,595.25,25.55Z"/><path d="M595.25,28.18s3.81-.53,7.62-1c1-.13,1.9-0.26,2.8-0.36s1.74-.11,2.46-0.14c1.44,0,2.41,0,2.41,0v0.07s-0.94.25-2.36,0.49c-0.71.11-1.54,0.24-2.44,0.33s-1.86.12-2.82,0.18c-3.83.27-7.67,0.47-7.67,0.47V28.18Z"/><path d="M599.19,30.36s1-.25,2.63-0.54c0.79-.13,1.71-0.31,2.71-0.46s2.05-.3,3.12-0.44,2.13-.25,3.13-0.35,1.94-.16,2.74-0.22c1.6-.11,2.68-0.12,2.68-0.12s-1,.25-2.63.54c-0.79.13-1.71,0.31-2.71,0.46s-2.05.3-3.12,0.44-2.13.25-3.13,0.35-1.94.16-2.74,0.22C600.27,30.34,599.19,30.36,599.19,30.36Z"/><path d="M596.45,33.22a12.64,12.64,0,0,1,2.16-.64c0.33-.06.68-0.14,1.06-0.19s0.79,0,1.21-.07a9.68,9.68,0,0,0,2.59-.43c0.86-.27,1.74-0.44,2.56-0.61a20.74,20.74,0,0,1,2.26-.32,19.55,19.55,0,0,1,2.25-.07V31a19.55,19.55,0,0,1-2.15.66,20.74,20.74,0,0,1-2.25.43c-0.83.1-1.72,0.23-2.62,0.25a9.68,9.68,0,0,0-2.59.42c-0.41.11-.79,0.24-1.17,0.32s-0.74.12-1.07,0.17a12.64,12.64,0,0,1-2.25.09V33.22Z"/><path d="M594.22,35.88s6.29-1.12,12.59-2.18l4.63-.79c1.48-.22,2.87-0.38,4.06-0.52,2.38-.26,4-0.34,4-0.34v0.07s-1.56.4-3.91,0.86c-1.18.22-2.55,0.48-4,.71l-4.65.61c-6.33.86-12.67,1.66-12.67,1.66V35.88Z"/><path d="M593.19,38.42s0.86-.27,2.18-0.6,3.07-.7,4.84-1,3.55-.56,4.9-0.7,2.25-.18,2.25-0.18-0.86.27-2.18,0.6-3.07.7-4.84,1-3.55.56-4.9,0.7S593.19,38.42,593.19,38.42Z"/><path d="M453.33,42.87s-0.06,2.39-.18,4.78c0,0.6,0,1.2-.07,1.75a14.75,14.75,0,0,1-.23,1.51c-0.1.44-.18,0.81-0.27,1.06s-0.13.4-.13,0.4h-0.07s0-.15-0.06-0.42,0-.64-0.07-1.09a14.74,14.74,0,0,1,.05-1.53c0.06-.56.16-1.15,0.25-1.74,0.32-2.37.7-4.73,0.7-4.73h0.07Z"/><path d="M458.42,42.52s-0.6,3.08-1.26,6.15c-0.16.77-.3,1.54-0.47,2.26s-0.38,1.37-.57,1.93-0.37,1-.51,1.34-0.22.5-.22,0.5l-0.07,0s0-.2,0-0.55,0.1-.83.18-1.42,0.23-1.26.4-2,0.42-1.46.65-2.21c0.85-3,1.77-6,1.77-6Z"/><path d="M464,42.52s-1,3.85-2,7.68c-0.25,1-.48,1.92-0.73,2.82s-0.55,1.71-.8,2.41c-0.51,1.4-.94,2.3-0.94,2.3l-0.07,0s0.13-1,.44-2.45c0.17-.72.36-1.57,0.62-2.46s0.59-1.83.9-2.77c1.2-3.77,2.47-7.53,2.47-7.53Z"/><path d="M466.55,42.52s-0.85,5-1.77,10.06l-0.65,3.69c-0.24,1.17-.51,2.26-0.74,3.19-0.48,1.86-.89,3.08-0.89,3.08h-0.07s0.1-1.28.38-3.18c0.15-.95.32-2.05,0.56-3.23l0.83-3.66c1.11-5,2.28-10,2.28-10h0.07Z"/><path d="M470.26,42.52s-0.76,5-1.6,10l-0.59,3.66c-0.22,1.16-.47,2.24-0.69,3.16-0.45,1.84-.84,3.06-0.84,3.06h-0.07s0.08-1.27.32-3.15c0.13-.94.29-2,0.5-3.2l0.77-3.63c1-4.95,2.11-9.88,2.11-9.88h0.07Z"/><path d="M473.31,42.52s-0.6,4.8-1.27,9.59l-0.47,3.52c-0.18,1.12-.4,2.16-0.58,3-0.39,1.77-.73,2.94-0.73,2.94h-0.07s0-1.22.22-3c0.1-.9.22-2,0.4-3.07L471.45,52c0.86-4.76,1.78-9.51,1.78-9.51h0.07Z"/><path d="M477,42.87s-0.77,4.84-1.6,9.67l-0.59,3.55c-0.22,1.13-.47,2.17-0.69,3.06-0.45,1.78-.84,3-0.84,3h-0.07s0.08-1.23.32-3.06c0.14-.91.29-2,0.5-3.1l0.77-3.52c1-4.79,2.11-9.57,2.11-9.57H477Z"/><path d="M161.45,17.72s-2.31,0-5.76,0c-1.73,0-3.75-.07-5.9-0.15L143,17.27l-6.76-.35c-2.16-.11-4.17-0.27-5.89-0.38-3.45-.24-5.75-0.47-5.75-0.47s2.31,0,5.76,0c1.73,0,3.75.06,5.9,0.15l6.76,0.25,6.76,0.35c2.16,0.11,4.17.27,5.89,0.38C159.16,17.5,161.45,17.72,161.45,17.72Z"/><path d="M160.25,20.07s-2.23,0-5.58,0c-1.67,0-3.62,0-5.71-.12l-6.54-.22-6.54-.32c-2.09-.1-4-0.25-5.7-0.35-3.34-.23-5.56-0.44-5.56-0.44s2.23,0,5.58,0c1.67,0,3.62,0,5.71.12L142.45,19,149,19.28c2.09,0.1,4,.25,5.7.35C158,19.86,160.25,20.07,160.25,20.07Z"/><path d="M158.79,22.94s-2.15-.06-5.36-0.24c-1.6-.1-3.48-0.19-5.48-0.35l-6.28-.48-6.27-.58c-2-.18-3.86-0.41-5.46-0.57-3.2-.36-5.32-0.66-5.32-0.66s2.15,0.06,5.36.24c1.6,0.1,3.48.19,5.48,0.35l6.28,0.48L148,21.7c2,0.18,3.86.41,5.46,0.57C156.66,22.64,158.79,22.94,158.79,22.94Z"/><path d="M137.45,24.17s0.15-.91.46-2.25,0.78-3.11,1.31-4.86,1.12-3.48,1.61-4.77,0.87-2.13.87-2.13-0.15.91-.46,2.25-0.78,3.11-1.31,4.86-1.13,3.48-1.61,4.77S137.45,24.17,137.45,24.17Z"/><path d="M139.58,26.17s0.15-.75.46-1.84,0.77-2.53,1.3-4,1.11-2.81,1.6-3.84,0.86-1.7.86-1.7-0.15.75-.46,1.85-0.77,2.53-1.3,3.95-1.11,2.81-1.6,3.84S139.58,26.17,139.58,26.17Z"/><path d="M142.44,26.17s0.25-.92.7-2.28c0.24-.67.5-1.46,0.81-2.3s0.66-1.72,1-2.6,0.73-1.75,1.1-2.56,0.73-1.56,1-2.21c0.62-1.28,1.09-2.12,1.09-2.12s-0.25.92-.7,2.28c-0.24.67-.49,1.46-0.81,2.3s-0.66,1.72-1,2.6-0.73,1.75-1.1,2.56-0.73,1.56-1,2.21C142.91,25.33,142.44,26.17,142.44,26.17Z"/><path d="M527.22,13.52s5.39,0.32,10.77.71l4,0.27c1.26,0.11,2.43.27,3.43,0.4,2,0.28,3.33.56,3.33,0.56v0.07s-1.36,0-3.38,0c-1-.05-2.19-0.1-3.45-0.22l-3.94-.45c-5.36-.58-10.72-1.23-10.72-1.23V13.52Z"/><path d="M526.53,17.6l14.22-.26,5.22-.09c1.67,0,3.22.05,4.55,0.09,2.67,0.1,4.44.26,4.44,0.26v0.08s-1.78.16-4.44,0.26c-1.33,0-2.89.09-4.55,0.09l-5.22-.09-14.22-.26V17.6Z"/><path d="M527.7,20.2s6-.17,12-0.26l4.4-.09c1.4,0,2.71.05,3.84,0.09,2.25,0.1,3.74.26,3.74,0.26v0.07s-1.5.16-3.74,0.26c-1.12,0-2.43.09-3.84,0.09l-4.4-.09c-6-.1-12-0.26-12-0.26V20.2Z"/><path d="M409.69,48.42s-0.18-1.54-.36-3.86c-0.08-1.16-.19-2.51-0.27-4s-0.15-3-.22-4.55-0.11-3.1-.13-4.55,0-2.81,0-4c0-2.33.06-3.88,0.06-3.88s0.18,1.54.36,3.86c0.08,1.16.19,2.51,0.27,4s0.15,3,.22,4.55,0.11,3.1.13,4.55,0,2.81,0,4C409.75,46.86,409.69,48.42,409.69,48.42Z"/><path d="M407.27,47.86s-0.18-1.49-.37-3.73c-0.08-1.12-.2-2.43-0.29-3.83s-0.16-2.9-.24-4.4-0.12-3-.15-4.4,0-2.72,0-3.84c0-2.25,0-3.75,0-3.75s0.19,1.49.37,3.73c0.08,1.12.2,2.43,0.29,3.83s0.16,2.9.24,4.4,0.12,3,.15,4.4,0,2.72,0,3.84C407.33,46.36,407.27,47.86,407.27,47.86Z"/><path d="M404.32,47.18s-0.09-1.45-.14-3.62c0-1.08,0-2.35,0-3.71s0-2.8,0-4.25,0.07-2.89.13-4.24,0.14-2.62.19-3.7c0.13-2.17.28-3.61,0.28-3.61s0.09,1.45.14,3.62c0,1.08.05,2.35,0,3.71s0,2.8,0,4.25-0.07,2.89-.13,4.24-0.14,2.62-.19,3.7C404.47,45.74,404.32,47.18,404.32,47.18Z"/><path d="M401.6,33.06s0.9,0,2.24,0,3.13,0.14,4.9.31,3.55,0.41,4.87.63,2.2,0.43,2.2.43-0.9,0-2.24,0-3.13-.14-4.9-0.31-3.55-.41-4.87-0.63S401.6,33.06,401.6,33.06Z"/><path d="M399.76,34.69s0.74,0,1.84,0,2.55,0.2,4,.4,2.88,0.47,4,.72,1.78,0.47,1.78.47-0.74,0-1.84,0-2.55-.2-4-0.4-2.88-.47-4-0.72S399.76,34.69,399.76,34.69Z"/><path d="M400,36.6s0.92,0,2.28.16,3.17,0.36,5,.66,3.59,0.66,4.92,1,2.21,0.58,2.21.58-0.92,0-2.28-.16-3.17-.36-5-0.66-3.59-.66-4.92-1S400,36.6,400,36.6Z"/></svg>