<svg id="Slip_lines_grains_elongated" data-name="Slip lines (grains elongated" xmlns="http://www.w3.org/2000/svg" viewBox="0 0 650 100"><defs><style>.cls-1{fill:none;}</style></defs><title>M_SlipLinesGrainElongated</title><path d="M104.31,14.12L117,13.85l13.06-.17,15-.12,15,0,13.06,0.06,12.74,0.15L173.1,14,160,14.2l-15,.12-15,0L117,14.27Z"/><path d="M98.94,16.33L114,16.27l15.43,0,17.69,0.12,17.69,0.22,15.43,0.26,15.05,0.36-15.06.07-15.43,0-17.69-.12L129.43,17,114,16.69Z"/><path d="M93.63,19.51l17.9,0.15,18.35,0.25,21,0.37,21,0.47,18.34,0.48,17.89,0.57-17.9-.15-18.35-.25-21-.37-21-.47-18.34-.48Z"/><path d="M108.65,22.76l14.4,0.18,14.76,0.29,16.92,0.41,16.92,0.51,14.75,0.51,14.39,0.6-14.4-.18-14.76-.29-16.92-.41-16.92-.51L123,23.36Z"/><path d="M119.35,25.26s0.78-.12,1.94-0.21,2.72-.16,4.27-0.16,3.1,0.06,4.27.16,1.94,0.22,1.94.22-0.78.12-1.94,0.22-2.72.16-4.27,0.16-3.1-.07-4.27-0.16S119.35,25.26,119.35,25.26Z"/><path d="M125.56,50.21s2.28-.39,5.72-0.88c1.72-.23,3.72-0.53,5.87-0.8l6.74-.83,6.75-.73c2.16-.24,4.17-0.4,5.9-0.57,3.46-.31,5.77-0.46,5.77-0.46s-2.28.39-5.72,0.88c-1.72.23-3.72,0.53-5.87,0.8l-6.74.83-6.76.73c-2.16.24-4.17,0.4-5.9,0.57C127.87,50.06,125.56,50.21,125.56,50.21Z"/><path d="M134.43,52s1.3-.31,3.25-0.68c1-.18,2.12-0.4,3.35-0.61s2.54-.41,3.85-0.6,2.63-.37,3.86-0.52,2.39-.26,3.38-0.37c2-.2,3.31-0.27,3.31-0.27s-1.3.31-3.25,0.68c-1,.18-2.12.41-3.35,0.61s-2.54.41-3.85,0.6-2.63.37-3.86,0.51-2.39.26-3.38,0.37C135.76,51.91,134.43,52,134.43,52Z"/><path d="M142.4,53.91s1.4-.33,3.52-0.75c1.06-.19,2.29-0.44,3.62-0.67s2.74-.45,4.16-0.68,2.84-.42,4.17-0.59,2.58-.31,3.65-0.43c2.14-.23,3.58-0.33,3.58-0.33s-1.4.34-3.52,0.75c-1.06.19-2.29,0.45-3.62,0.67s-2.74.45-4.16,0.68-2.84.42-4.17,0.59-2.58.31-3.65,0.43C143.84,53.81,142.4,53.91,142.4,53.91Z"/><path d="M151,55.95l0.54-.18c0.34-.12.83-0.24,1.42-0.4s1.29-.29,2-0.42,1.56-.19,2.37-0.29c3.22-.42,6.45-0.78,6.45-0.78v0.07s-3.18.68-6.36,1.3c-0.8.16-1.59,0.34-2.34,0.47s-1.46.2-2.07,0.24-1.12.07-1.48,0.07H151V55.95Z"/><path d="M157.36,56.91s1.21-.35,3-0.73c0.92-.18,2-0.4,3.15-0.58l3.64-.47c4.95-.66,9.9-1.26,9.9-1.26v0.07s-4.91.92-9.83,1.78l-3.61.65c-1.16.18-2.24,0.29-3.17,0.39-1.87.18-3.12,0.22-3.12,0.22V56.91Z"/><path d="M163.77,59l0.28-.13a7.26,7.26,0,0,1,.75-0.26,7.68,7.68,0,0,1,1.08-.22c0.4,0,.83,0,1.26-0.06,1.72-.1,3.44-0.14,3.44-0.14v0.07s-1.69.36-3.38,0.66c-0.42.08-.84,0.18-1.24,0.24a7.68,7.68,0,0,1-1.1,0,7.26,7.26,0,0,1-.79-0.08l-0.3-.06V59Z"/><path d="M189.72,69.12s3.37,0.52,8.42,1.38L206.74,72l9.85,1.81,9.84,1.91c3.14,0.61,6.06,1.23,8.57,1.73,5,1,8.34,1.79,8.34,1.79s-3.37-.51-8.42-1.37c-2.52-.44-5.46-0.93-8.61-1.51l-9.85-1.81-9.84-1.91-8.57-1.73C193,69.87,189.72,69.12,189.72,69.12Z"/><path d="M185.83,72.29s4,0.47,10,1.26l10.26,1.39,11.75,1.67,11.73,1.77L239.82,80c6,1,10,1.67,10,1.67s-4-.47-10-1.25L229.5,79l-11.75-1.67L206,75.57,195.79,74C189.81,73,185.83,72.29,185.83,72.29Z"/><path d="M182.37,75.11l11.95,1.33,12.23,1.47,14,1.76,14,1.86,12.2,1.69L258.66,85l-11.95-1.33-12.23-1.47-14-1.76-14-1.86-12.2-1.69Z"/><path d="M179.79,77.39L193.14,79l13.67,1.8L222.47,83l15.65,2.24,13.64,2L265,89.33,251.7,87.67,238,85.88l-15.66-2.14-15.65-2.24-13.64-2Z"/><path d="M177.3,79.24l3.12,0.37,8.23,1,11.62,1.5,13.31,1.8,13.3,1.9,11.59,1.73,8.19,1.29,3.11,0.5L246.66,89l-8.23-1-11.62-1.5-13.31-1.8-13.3-1.9L188.59,81l-8.19-1.29Z"/><path d="M174.34,81.65s2.26,0.27,5.64.75c1.69,0.26,3.66.52,5.77,0.87l6.6,1.08,6.58,1.17c2.1,0.37,4.05.78,5.73,1.09,3.35,0.66,5.57,1.17,5.57,1.17S208,87.52,204.59,87c-1.69-.26-3.66-0.52-5.77-0.87l-6.6-1.08-6.58-1.17c-2.1-.37-4.05-0.78-5.73-1.09C176.56,82.15,174.34,81.65,174.34,81.65Z"/><path d="M171.11,84.29l3,0.51,8,1.36,11.25,2,12.88,2.38L219.1,93l11.21,2.23,7.92,1.65,3,0.63-3-.51-8-1.36-11.25-2L206.1,91.28,193.24,88.8,182,86.56l-7.92-1.65Z"/><path d="M269.43,47.28s1.68,1.15,4.14,2.94c1.22,0.91,2.67,1.94,4.18,3.09l4.74,3.61,4.68,3.69c1.5,1.18,2.86,2.32,4,3.28,2.35,1.94,3.88,3.27,3.88,3.27S293.42,66,291,64.23c-1.22-.91-2.67-1.94-4.18-3.1L282,57.52l-4.68-3.69c-1.5-1.18-2.86-2.32-4-3.28C271,48.62,269.43,47.28,269.43,47.28Z"/><path d="M265,48.08s1.59,1,3.92,2.67c1.16,0.83,2.52,1.76,4,2.81l4.48,3.29,4.43,3.37c1.41,1.07,2.7,2.12,3.82,3,2.22,1.77,3.66,3,3.66,3s-1.59-1-3.92-2.67c-1.16-.83-2.53-1.76-4-2.81L277,57.45l-4.42-3.37c-1.41-1.07-2.7-2.12-3.82-3C266.49,49.31,265,48.08,265,48.08Z"/><path d="M258.66,47.67s1.55,1.11,3.82,2.83c1.13,0.88,2.46,1.87,3.85,3L270.7,57l4.3,3.56c1.38,1.13,2.62,2.24,3.71,3.16,2.16,1.87,3.55,3.16,3.55,3.16s-1.55-1.11-3.82-2.83c-1.13-.88-2.46-1.87-3.85-3l-4.36-3.48L265.93,54c-1.37-1.14-2.62-2.24-3.71-3.16C260.06,49,258.66,47.67,258.66,47.67Z"/><path d="M253.6,47.67s1.55,1.07,3.81,2.73c1.12,0.85,2.46,1.81,3.85,2.88l4.36,3.37,4.3,3.45c1.37,1.1,2.62,2.17,3.71,3.06,2.15,1.81,3.55,3.07,3.55,3.07s-1.55-1.06-3.82-2.73c-1.12-.85-2.46-1.8-3.85-2.88l-4.36-3.37-4.3-3.45c-1.37-1.1-2.62-2.17-3.71-3.06C255,48.92,253.6,47.67,253.6,47.67Z"/><path d="M254.43,52s0.84,0.45,2,1.21c0.6,0.39,1.31.82,2,1.32s1.52,1,2.29,1.58,1.53,1.11,2.24,1.66,1.35,1.07,1.91,1.51c1.1,0.9,1.8,1.55,1.8,1.55s-0.84-.45-2-1.21c-0.6-.39-1.31-0.82-2-1.32s-1.51-1-2.29-1.58-1.53-1.11-2.24-1.66-1.35-1.07-1.91-1.51C255.13,52.63,254.43,52,254.43,52Z"/><path d="M246.6,47.28s1.34,1,3.29,2.57c1,0.8,2.11,1.7,3.3,2.72l3.74,3.17L260.6,59c1.17,1,2.23,2,3.15,2.89,1.83,1.71,3,2.89,3,2.89s-1.34-1-3.29-2.57c-1-.8-2.11-1.7-3.3-2.72l-3.73-3.17-3.67-3.25c-1.17-1-2.23-2-3.15-2.89C247.78,48.47,246.6,47.28,246.6,47.28Z"/><path d="M35.6,90.91s3.62-.32,9.06-0.7l9.29-.62L64.6,89l10.66-.52,9.3-.39c5.45-.2,9.08-0.28,9.08-0.28s-3.62.32-9.06,0.7l-9.29.61-10.65.62L54,90.24l-9.3.39C39.24,90.83,35.6,90.91,35.6,90.91Z"/><path d="M34.2,93.2s4-.36,9.89-0.81l10.15-.73,11.64-.76,11.64-.66,10.16-.5c5.95-.27,9.92-0.39,9.92-0.39s-4,.36-9.89.81l-10.15.73-11.64.76-11.64.66-10.16.5C38.17,93.08,34.2,93.2,34.2,93.2Z"/><path d="M33.07,95s3.79-.23,9.49-0.5l9.73-.41,11.16-.38,11.16-.29,9.74-.18c5.7-.08,9.5-0.07,9.5-0.07s-3.79.23-9.49,0.5l-9.73.41-11.16.38-11.16.28-9.74.18C36.88,95,33.07,95,33.07,95Z"/><path d="M29.52,97.54s3.86-.21,9.66-0.44l9.9-.35,11.35-.32,11.36-.22,9.91-.12c5.8,0,9.67,0,9.67,0s-3.86.21-9.66,0.44l-9.9.35-11.35.32-11.36.22-9.91.12C33.39,97.57,29.52,97.54,29.52,97.54Z"/><path d="M29.52,100l12.36-.6,12.67-.51,14.53-.51L83.61,98l12.68-.28,12.37-.18-12.36.6-12.67.51-14.53.5-14.53.41-12.68.28Z"/><path d="M71,50.22s0,0.14,0,.38-0.11.58-.2,1a12.19,12.19,0,0,1-.42,1.33c-0.2.47-.44,1-0.67,1.45-0.88,2-1.83,3.94-1.83,3.94l-0.07,0s0.64-2.08,1.34-4.14c0.17-.52.32-1,0.5-1.52a12.19,12.19,0,0,1,.59-1.26c0.2-.36.37-0.66,0.52-0.85s0.22-.31.22-0.31Z"/><path d="M73.63,49.85s0,0.2-.09.55-0.18.84-.32,1.42-0.35,1.25-.59,2-0.57,1.44-.86,2.18c-1.15,3-2.37,5.93-2.37,5.93l-0.07,0s0.91-3.06,1.87-6.11c0.23-.76.46-1.53,0.69-2.24s0.51-1.35.77-1.9,0.47-1,.64-1.31,0.27-.49.27-0.49Z"/><path d="M76.13,49.84s-0.17,1.07-.56,2.64c-0.2.78-.44,1.69-0.74,2.65s-0.68,2-1,3C72.42,62.19,71,66.23,71,66.23l-0.07,0s1.13-4.15,2.33-8.27c0.29-1,.57-2.07.86-3s0.64-1.84.92-2.6c0.58-1.51,1.06-2.48,1.06-2.48Z"/><path d="M78.32,49.84s0,0.15,0,.42,0,0.64-.08,1.09a14.61,14.61,0,0,1-.26,1.5c-0.14.54-.32,1.11-0.49,1.68-0.64,2.29-1.35,4.56-1.35,4.56l-0.07,0s0.39-2.35.84-4.69c0.1-.59.2-1.17,0.31-1.72a14.6,14.6,0,0,1,.44-1.46c0.16-.42.29-0.77,0.41-1s0.19-.38.19-0.38Z"/><path d="M81.88,49.43s0,0.19-.06.52-0.13.79-.24,1.34-0.28,1.18-.48,1.85-0.49,1.36-.74,2.06c-1,2.82-2,5.61-2,5.61l-0.07,0S79,57.9,79.78,55c0.19-.72.37-1.45,0.57-2.12s0.44-1.28.66-1.8,0.41-.95.56-1.24,0.24-.46.24-0.46Z"/><path d="M83.49,49.42a1.68,1.68,0,0,1,.09.21,3.73,3.73,0,0,1,.26,1.32c0,0.28-.06.59-0.09,0.89-0.1,1.21-.26,2.42-0.26,2.42H83.42s-0.17-1.21-.26-2.42c0-.3-0.08-0.6-0.09-0.89a3.73,3.73,0,0,1,.26-1.32,1.68,1.68,0,0,1,.09-0.21h0.07Z"/><path d="M304.8,6.2s1.54-.25,3.85-0.54c1.16-.13,2.5-0.31,3.95-0.46s3-.3,4.54-0.44,3.09-.25,4.54-0.35,2.81-.16,4-0.22c2.33-.11,3.88-0.12,3.88-0.12s-1.53.25-3.85,0.54c-1.16.13-2.5,0.31-3.95,0.46s-3,.3-4.54.44-3.09.25-4.54,0.35-2.81.16-4,.22C306.35,6.19,304.8,6.2,304.8,6.2Z"/><path d="M288.75,12.32s3-.46,7.59-1.06c2.28-.29,4.94-0.65,7.79-1l8.94-1L322,8.29c2.86-.31,5.53-0.53,7.81-0.76,4.58-.42,7.63-0.64,7.63-0.64s-3,.46-7.59,1.06c-2.28.28-4.94,0.65-7.79,1l-8.94,1-8.95.95c-2.86.3-5.53,0.53-7.81,0.76C291.81,12.1,288.75,12.32,288.75,12.32Z"/><path d="M285.29,15.14s3.34-.43,8.37-1l8.59-.92,9.85-1,9.86-.88c3.15-.28,6.09-0.49,8.61-0.7,5-.38,8.41-0.58,8.41-0.58s-3.34.44-8.37,1c-2.51.27-5.44,0.61-8.59,0.92l-9.85,1-9.86.88-8.61.69C288.66,14.94,285.29,15.14,285.29,15.14Z"/><path d="M280.19,19.3l2.79-.36,7.36-.94,10.41-1.23,11.94-1.33,12-1.23,10.43-1c3.05-.3,5.6-0.48,7.39-0.64l2.8-.24-2.79.36c-1.78.22-4.31,0.58-7.36,0.94l-10.41,1.23-11.94,1.33-12,1.23-10.43,1-7.39.64Z"/><path d="M277.19,21.8s1.22-.24,3.05-0.51c0.92-.12,2-0.29,3.14-0.43s2.38-.27,3.61-0.4,2.46-.23,3.62-0.31,2.24-.13,3.16-0.19c1.85-.09,3.1-0.09,3.1-0.09s-1.22.24-3.05,0.51c-0.92.12-2,.29-3.14,0.43s-2.38.27-3.61,0.4-2.46.23-3.62,0.31-2.24.13-3.16,0.19C278.43,21.79,277.19,21.8,277.19,21.8Z"/><path d="M272.12,24l13.44-1.59,13.78-1.53,15.81-1.68L331,17.62l13.81-1.31,13.48-1.18-13.44,1.59L331,18.27l-15.81,1.68-15.82,1.58-13.81,1.31Z"/><path d="M366.89,15.14s-2.32.45-5.81,1c-1.75.28-3.78,0.64-6,1l-6.85,1-6.87.93c-2.19.3-4.25,0.52-6,.74-3.52.41-5.87,0.63-5.87,0.63s2.32-.45,5.81-1c1.75-.28,3.78-0.64,6-1l6.85-1,6.87-.93c2.19-.3,4.25-0.52,6-0.74C364.54,15.36,366.89,15.14,366.89,15.14Z"/><path d="M369.57,17.81s-2.84.43-7.11,1c-2.14.26-4.62,0.6-7.3,0.91l-8.37,1-8.39.86c-2.68.28-5.18,0.48-7.32,0.68-4.29.37-7.15,0.56-7.15,0.56s2.84-.43,7.11-1c2.14-.26,4.62-0.6,7.3-0.91l8.37-1,8.39-.86c2.68-.28,5.18-0.48,7.32-0.68C366.71,18,369.57,17.81,369.57,17.81Z"/><path d="M371.61,20.83s-3.51.47-8.79,1.1l-9,1L343.44,24l-10.36,1-9,.8c-5.3.44-8.84,0.68-8.84,0.68s3.51-.48,8.79-1.1l9-1,10.35-1.09,10.36-1,9-.8C368.08,21.06,371.61,20.83,371.61,20.83Z"/><path d="M374.54,22.76s-4,.46-10.08,1.06l-10.34,1-11.86,1-11.87.94L320,27.53c-6.06.42-10.11,0.64-10.11,0.64s4-.46,10.08-1.06l10.34-1,11.86-1,11.87-.94,10.36-.75C370.49,23,374.54,22.76,374.54,22.76Z"/><path d="M29.51,32.57s1.11-.76,2.85-1.77c0.87-.5,1.89-1.08,3-1.66l3.53-1.73c4.79-2.38,9.62-4.69,9.62-4.69l0,0.07s-4.67,2.61-9.37,5.16l-3.44,1.89c-1.11.58-2.18,1.07-3.08,1.5-1.83.83-3.09,1.31-3.09,1.31Z"/><path d="M34.18,33.39s1.31-.87,3.33-2c1-.58,2.2-1.26,3.49-1.95l4.09-2.06c5.56-2.82,11.16-5.58,11.16-5.58l0,0.07s-5.44,3.05-10.91,6l-4,2.22c-1.29.68-2.52,1.27-3.58,1.78-2.12,1-3.57,1.59-3.57,1.59Z"/><path d="M39,34.24s1.37-1,3.49-2.27c1.07-.65,2.31-1.41,3.66-2.17l4.3-2.32,11.71-6.31,0,0.07L50.74,28l-4.21,2.48c-1.36.77-2.65,1.43-3.75,2C40.56,33.63,39,34.31,39,34.31Z"/><path d="M46.45,35.56s1.13-.93,2.89-2.22c0.89-.63,1.92-1.38,3.06-2.13L56,28.92c4.91-3.13,9.86-6.2,9.86-6.2l0,0.06s-4.76,3.35-9.57,6.64l-3.52,2.43c-1.14.75-2.23,1.41-3.16,2-1.88,1.12-3.18,1.79-3.18,1.79Z"/><path d="M87.75,41.54s-1.53-.47-3.77-1.3c-1.12-.43-2.42-0.92-3.79-1.49l-4.27-1.89c-5.83-2.55-11.63-5.17-11.63-5.17l0-.07s5.93,2.31,11.83,4.69L80.49,38c1.37,0.58,2.64,1.17,3.72,1.66,2.16,1,3.57,1.78,3.57,1.78Z"/><path d="M89,40.2s-1.39-.45-3.42-1.24c-1-.41-2.19-0.88-3.44-1.43l-3.86-1.82c-5.27-2.46-10.5-5-10.5-5l0-.07s5.37,2.22,10.72,4.49l3.93,1.66c1.24,0.56,2.38,1.12,3.36,1.6,1.95,1,3.21,1.72,3.21,1.72Z"/><path d="M91.35,39.37s-1.55-.59-3.8-1.6c-1.12-.51-2.44-1.11-3.82-1.79l-4.29-2.23-11.69-6.1,0-.07L79.7,33.21l4.37,2.07c1.38,0.69,2.65,1.38,3.74,2,2.17,1.19,3.57,2.07,3.57,2.07Z"/><path d="M94.92,38.13s-1.54-.66-3.79-1.78c-1.12-.57-2.43-1.22-3.8-2l-4.26-2.44L71.45,25.29l0-.07,11.86,6.19,4.35,2.28c1.37,0.75,2.63,1.5,3.71,2.14C93.56,37.12,95,38.06,95,38.06Z"/><path d="M99.27,36.61s-1.68-.64-4.13-1.73C93.92,34.33,92.49,33.69,91,33l-4.68-2.39L73.58,24l0-.07,13,6.05,4.76,2.23c1.51,0.74,2.89,1.47,4.07,2.1,2.36,1.27,3.9,2.2,3.9,2.2Z"/><path d="M104.3,34.31s-1.83-.63-4.51-1.71c-1.34-.55-2.9-1.18-4.56-1.91l-5.14-2.37-14-6.48,0-.07,14.21,6L95.54,30c1.65,0.73,3.17,1.46,4.48,2.08,2.6,1.26,4.3,2.19,4.3,2.19Z"/><path d="M21.11,68s-1.33.07-3.31,0c-1,0-2.15-.06-3.39-0.15l-3.87-.36c-5.27-.47-10.53-1-10.53-1V66.47S5.3,66.68,10.58,67l3.88,0.18c1.24,0.09,2.39.22,3.37,0.33,2,0.24,3.28.49,3.28,0.49V68Z"/><path d="M26.51,66.26s-1.6,0-4-.23c-1.19-.11-2.58-0.22-4.06-0.41L13.85,65c-6.3-.87-12.59-1.82-12.59-1.82V63.07s6.33,0.61,12.66,1.3l4.65,0.48c1.48,0.18,2.85.41,4,.59,2.35,0.39,3.91.74,3.91,0.74v0.07Z"/><path d="M34.19,64.7s-2.16-.19-5.38-0.62c-1.61-.22-3.49-0.48-5.49-0.8l-6.26-1.11L0,59.12V59l17.13,2.53,6.29,0.94c2,0.33,3.86.68,5.46,1,3.19,0.62,5.3,1.13,5.3,1.13V64.7Z"/><path d="M39,63.15s-2.39-.24-5.94-0.74c-1.78-.26-3.85-0.55-6.06-0.93l-6.92-1.26L1.26,56.79V56.72l18.92,2.92,6.95,1.08c2.21,0.37,4.27.77,6,1.11C36.69,62.52,39,63.07,39,63.07v0.07Z"/><path d="M38.09,60s-2.12-.19-5.29-0.6c-1.58-.22-3.43-0.46-5.39-0.78l-6.15-1.09-16.75-3V54.42L21.35,56.9l6.18,0.92c2,0.32,3.8.67,5.36,1,3.13,0.61,5.2,1.11,5.2,1.11V60Z"/><path d="M16.19,53.95s-1-.06-2.58-0.28c-0.77-.12-1.66-0.26-2.61-0.46S9,52.73,8,52.48c-4-1-8-2-8-2l0-.07s4.08,0.7,8.15,1.47c1,0.18,2,.36,3,0.55s1.82,0.44,2.57.64c1.5,0.42,2.47.79,2.47,0.79Z"/><path d="M323.93,57.15c3.42,1.42,6.8,2.91,10.18,4.41,1.7,0.74,3.37,1.53,5.05,2.29l5,2.31-0.07,0,5.15,1.25c1.72,0.42,3.43.82,5.14,1.27,3.42,0.87,6.84,1.75,10.25,2.71-3.47-.66-6.93-1.4-10.38-2.15-1.73-.36-3.45-0.77-5.17-1.16L344,66.87h0l0,0-5-2.37c-1.67-.8-3.35-1.57-5-2.39C330.54,60.48,327.22,58.85,323.93,57.15Z"/><path d="M327.93,54.95c3.44,1.43,6.85,2.91,10.25,4.41s6.79,3,10.18,4.57l-0.06,0c2.2,0.57,4.39,1.18,6.58,1.79l6.57,1.82L368,69.4c2.18,0.65,4.36,1.29,6.53,2-2.22-.51-4.42-1.05-6.63-1.59l-6.61-1.67-6.59-1.74c-2.2-.58-4.4-1.15-6.59-1.77h-0.06c-3.37-1.58-6.75-3.12-10.1-4.74S331.25,56.62,327.93,54.95Z"/><path d="M331.56,52.19c3.86,1.65,7.68,3.37,11.5,5.11,1.92,0.85,3.81,1.76,5.71,2.64l5.7,2.66-0.09,0,6,1.09c2,0.37,4,.72,6,1.11,4,0.77,8,1.54,11.94,2.4-4-.56-8-1.19-12-1.84-2-.31-4-0.67-6-1l-6-1h0l0,0-5.68-2.71c-1.89-.91-3.79-1.8-5.67-2.73C339,56,335.29,54.12,331.56,52.19Z"/><path d="M337.46,49.83l7.48,4c2.24,1.22,4.87,2.6,7.69,4.06C354,58.64,355.52,59.4,357,60a6.75,6.75,0,0,0,1.1.37c0.39,0.09.83,0.08,1.25,0.16,0.87,0.12,1.7.26,2.54,0.39,3.35,0.58,6.69,1.21,9.83,1.79s6,1.2,8.54,1.69c5,1,8.31,1.78,8.31,1.78s-3.36-.52-8.39-1.36L361.79,61.7l-2.49-.41c-0.41-.08-0.82-0.08-1.26-0.18a6.68,6.68,0,0,1-1.28-.43c-1.56-.68-3-1.45-4.43-2.19-2.82-1.5-5.39-3-7.6-4.27C340.33,51.65,337.46,49.83,337.46,49.83Z"/><path d="M345.26,49.83q4.93,2.15,9.81,4.4c1.63,0.75,3.27,1.48,4.88,2.25l4.86,2.29-0.1,0c5,0.63,10,1.38,15,2.07s10,1.5,14.92,2.35c-5-.5-10-1.11-15-1.72s-10-1.27-15-2h-0.06l0,0-4.84-2.34c-1.62-.77-3.21-1.59-4.82-2.38Q350,52.31,345.26,49.83Z"/><path d="M352.3,50.21s1.77,0.6,4.39,1.58c1.31,0.5,2.84,1,4.47,1.68l5.11,2c0.87,0.34,1.74.67,2.59,1,0.43,0.15.86,0.3,1.27,0.43l0.3,0.08,0.08,0h0.14a3.76,3.76,0,0,1,.75,0c1.76,0.27,3.33.71,4.69,1,2.71,0.7,4.49,1.27,4.49,1.27L376,58.42c-1.37-.27-3-0.57-4.68-0.81a2.82,2.82,0,0,0-.57,0h-0.19a0.88,0.88,0,0,1-.25,0c-0.14,0-.24-0.06-0.36-0.08-0.45-.12-0.88-0.27-1.32-0.42-0.87-.3-1.75-0.62-2.63-0.94l-5.09-2c-1.62-.66-3.11-1.34-4.39-1.9C354,51,352.3,50.21,352.3,50.21Z"/><path d="M216.53,29.17s0.87-.12,2.17-0.21,3-.16,4.77-0.16,3.47,0.06,4.77.16,2.17,0.22,2.17.22-0.87.12-2.17,0.22-3,.16-4.77.16-3.47-.07-4.77-0.16S216.53,29.17,216.53,29.17Z"/><path d="M210.23,31.68s2.07-.12,5.17-0.21c1.55,0,3.36-.1,5.3-0.11l6.08,0,6.08,0c1.94,0,3.75.08,5.3,0.11,3.1,0.09,5.17.21,5.17,0.21s-2.07.12-5.17,0.21c-1.55,0-3.36.1-5.3,0.11l-6.08,0-6.08,0c-1.94,0-3.75-.08-5.3-0.11C212.3,31.8,210.23,31.68,210.23,31.68Z"/><path d="M221.86,35.43s2-.12,5-0.21c1.49,0,3.22-.1,5.08-0.11l5.83,0,5.83,0c1.86,0,3.6.08,5.08,0.11,3,0.09,5,.21,5,0.21s-2,.12-5,0.21c-1.49,0-3.22.1-5.08,0.11l-5.83,0-5.83,0c-1.86,0-3.6-.08-5.08-0.11C223.84,35.55,221.86,35.43,221.86,35.43Z"/><path d="M230.41,38.36s1.81-.12,4.52-0.21c1.36,0,2.94-.1,4.63-0.11l5.31,0,5.31,0c1.69,0,3.28.08,4.63,0.11,2.71,0.09,4.52.21,4.52,0.21s-1.81.12-4.52,0.21c-1.36,0-2.94.1-4.63,0.11l-5.31,0-5.31,0c-1.69,0-3.28-.08-4.63-0.11C232.21,38.48,230.41,38.36,230.41,38.36Z"/><path d="M413.16,95.3s1.18,0,2.94.14c0.88,0.07,1.9.13,3,.24s2.26,0.23,3.43.37,2.33,0.29,3.42.45,2.1,0.34,3,.48c1.74,0.3,2.89.56,2.89,0.56s-1.18,0-2.94-.14c-0.88-.07-1.9-0.13-3-0.24s-2.26-.23-3.43-0.37-2.33-.29-3.42-0.46-2.1-.34-3-0.48C414.31,95.56,413.16,95.3,413.16,95.3Z"/><path d="M424.68,99.86s-1.39,0-3.47-.15c-1-.08-2.25-0.14-3.55-0.25s-2.68-.24-4.06-0.38-2.76-.3-4-0.47-2.49-.35-3.52-0.49c-2.06-.31-3.43-0.57-3.43-0.57s1.39,0,3.47.15c1,0.08,2.25.14,3.55,0.25s2.68,0.24,4.06.38,2.76,0.3,4,.47,2.49,0.35,3.52.49C423.31,99.59,424.68,99.86,424.68,99.86Z"/><path d="M405,99.86s-1,0-2.59-.15c-0.77-.08-1.68-0.14-2.64-0.25s-2-.24-3-0.38-2-.3-3-0.47-1.84-.35-2.61-0.49c-1.52-.31-2.53-0.57-2.53-0.57s1,0,2.59.15c0.77,0.08,1.68.14,2.64,0.25s2,0.24,3,.38,2,0.3,3,.47,1.84,0.35,2.61.49C404,99.59,405,99.86,405,99.86Z"/><path d="M395,99.86s-0.92,0-2.29-.15-3.18-.35-5-0.64-3.59-.64-4.93-1-2.22-.57-2.22-0.57,0.92,0,2.29.15,3.18,0.35,5,.64,3.59,0.64,4.93,1S395,99.86,395,99.86Z"/><path d="M379.58,26.86s1-.67,2.46-1.6c0.75-.45,1.62-1,2.57-1.55s2-1.13,3-1.7,2.06-1.12,3-1.62,1.9-.95,2.68-1.34c1.58-.77,2.66-1.23,2.66-1.23s-1,.67-2.46,1.6c-0.75.45-1.62,1-2.57,1.55s-2,1.13-3,1.7-2.06,1.12-3,1.62-1.9.95-2.68,1.34C380.67,26.39,379.58,26.86,379.58,26.86Z"/><path d="M384.4,28.17s1.21-.86,3.07-2.07c0.94-.59,2-1.31,3.2-2s2.45-1.49,3.72-2.26,2.55-1.5,3.76-2.18,2.35-1.29,3.32-1.83c2-1.05,3.29-1.71,3.29-1.71s-1.21.86-3.07,2.07c-0.94.59-2,1.31-3.2,2s-2.45,1.49-3.72,2.26-2.55,1.5-3.76,2.18-2.35,1.29-3.32,1.83C385.74,27.52,384.4,28.17,384.4,28.17Z"/><path d="M388.6,29.31s1.21-.73,3.06-1.75c0.93-.5,2-1.1,3.18-1.71s2.43-1.25,3.68-1.88,2.53-1.24,3.72-1.8,2.32-1.06,3.28-1.5c1.93-.86,3.24-1.38,3.24-1.38s-1.21.73-3.06,1.75c-0.93.5-2,1.1-3.18,1.71s-2.43,1.25-3.68,1.88-2.53,1.24-3.72,1.8-2.32,1.06-3.28,1.5C389.91,28.79,388.6,29.31,388.6,29.31Z"/><path d="M393.79,31.65s1.15-.86,2.92-2.07c0.89-.59,1.92-1.31,3-2s2.33-1.49,3.53-2.26,2.43-1.5,3.58-2.18,2.24-1.29,3.17-1.83c1.86-1.06,3.14-1.71,3.14-1.71s-1.15.86-2.92,2.07c-0.89.59-1.92,1.31-3,2s-2.33,1.49-3.53,2.26-2.43,1.5-3.58,2.18-2.24,1.3-3.17,1.83C395.06,31,393.79,31.65,393.79,31.65Z"/><path d="M399.36,33.15s0.52-.56,1.34-1.35,2-1.77,3.13-2.72,2.39-1.84,3.33-2.47,1.6-1,1.6-1-0.52.56-1.34,1.35-2,1.77-3.13,2.72-2.39,1.83-3.33,2.47S399.36,33.15,399.36,33.15Z"/><path d="M404.06,33.52s0.73-.8,1.87-1.94c0.58-.56,1.24-1.23,2-1.91s1.53-1.41,2.33-2.13,1.62-1.41,2.39-2.06,1.52-1.23,2.14-1.74c1.27-1,2.15-1.62,2.15-1.62s-0.72.8-1.87,1.94c-0.58.56-1.24,1.23-2,1.91s-1.53,1.41-2.33,2.13-1.62,1.41-2.39,2.06-1.52,1.23-2.14,1.74C404.94,32.9,404.06,33.52,404.06,33.52Z"/><path d="M407,34.31s0.32-.4.84-0.94A23.27,23.27,0,0,1,412.06,30c0.64-.38,1.1-0.6,1.1-0.6s-0.32.4-.83,0.94a23.27,23.27,0,0,1-4.26,3.39C407.42,34.09,407,34.31,407,34.31Z"/><path d="M556.26,17.81s-2,.84-5.13,2c-1.55.57-3.35,1.27-5.3,2l-6.1,2.17L533.61,26c-2,.67-3.8,1.23-5.37,1.75-3.15,1-5.27,1.61-5.27,1.61s2-.84,5.13-2c1.55-.57,3.35-1.27,5.3-2l6.1-2.17,6.13-2.08c2-.66,3.8-1.23,5.37-1.75C554.14,18.42,556.26,17.81,556.26,17.81Z"/><path d="M519.66,33.52s2.73-1,6.85-2.43c2.07-.7,4.46-1.55,7.05-2.4L541.68,26l8.14-2.58c2.6-.83,5-1.54,7.12-2.18,4.18-1.25,7-2,7-2s-2.73,1-6.85,2.43c-2.07.7-4.46,1.55-7.05,2.4l-8.11,2.67-8.14,2.58c-2.6.82-5,1.54-7.12,2.18C522.47,32.74,519.66,33.52,519.66,33.52Z"/><path d="M523,36.5s3.4-1.28,8.52-3.12l8.77-3.1,10.08-3.48,10.11-3.38,8.84-2.89c5.18-1.67,8.66-2.72,8.66-2.72s-3.4,1.28-8.52,3.12L560.64,24l-10.08,3.48-10.11,3.38-8.84,2.88C526.44,35.45,523,36.5,523,36.5Z"/><path d="M537.66,36s3.17-1.36,8-3.31l8.19-3.3,9.41-3.7,9.45-3.61L580.93,19c4.85-1.78,8.1-2.91,8.1-2.91s-3.17,1.36-8,3.31l-8.19,3.3-9.41,3.7L554,30l-8.27,3.08C540.92,34.87,537.66,36,537.66,36Z"/><path d="M554.87,34.31s2.57-1.25,6.47-3c2-.88,4.22-1.94,6.67-3l7.68-3.39,7.72-3.3c2.46-1.06,4.78-2,6.76-2.81,4-1.63,6.64-2.65,6.64-2.65s-2.57,1.25-6.47,3c-2,.88-4.22,1.94-6.67,3L576,25.54l-7.72,3.3c-2.46,1.05-4.78,2-6.76,2.81C557.54,33.28,554.87,34.31,554.87,34.31Z"/><path d="M556.26,37.52s1-.68,2.61-1.63c0.8-.46,1.72-1,2.72-1.59s2.08-1.15,3.16-1.74,2.17-1.15,3.2-1.66,2-1,2.83-1.38c1.67-.79,2.81-1.26,2.81-1.26s-1,.69-2.61,1.63c-0.8.46-1.71,1-2.72,1.59s-2.08,1.15-3.16,1.74-2.17,1.15-3.2,1.66-2,1-2.83,1.38C557.4,37.05,556.26,37.52,556.26,37.52Z"/><path d="M570.14,35.43s1.92-1.21,4.85-2.94c1.47-.85,3.17-1.88,5-2.92l5.79-3.28,5.84-3.19c1.86-1,3.63-1.92,5.13-2.72,3-1.57,5.05-2.57,5.05-2.57S599.89,19,597,20.75c-1.47.85-3.17,1.88-5,2.92l-5.79,3.28-5.84,3.19c-1.86,1-3.63,1.92-5.13,2.72C572.18,34.44,570.14,35.43,570.14,35.43Z"/><path d="M571.84,39.14s1.95-1.43,4.92-3.51c1.49-1,3.22-2.25,5.1-3.51l5.89-4,5.95-3.87c1.9-1.24,3.7-2.35,5.23-3.32,3.07-1.92,5.15-3.16,5.15-3.16s-1.95,1.43-4.92,3.51c-1.49,1-3.22,2.25-5.1,3.51l-5.89,4-5.95,3.87C580.32,33.9,578.52,35,577,36,573.92,37.91,571.84,39.14,571.84,39.14Z"/><path d="M568.17,43.11c1,0.61,1.92,1.24,2.85,1.9s1.87,1.31,2.78,2l0.33,0.25-0.3.29c-1.35,1.32-2.7,2.63-4.1,3.89-0.69.64-1.42,1.25-2.12,1.87s-1.44,1.22-2.19,1.8q0.92-1.08,1.9-2.11c0.65-.68,1.29-1.37,2-2,1.32-1.35,2.69-2.64,4.06-3.93l0,0.54q-1.34-1.06-2.64-2.18C569.87,44.66,569,43.89,568.17,43.11Z"/><path d="M566.78,56.43c0.68-.84,1.37-1.66,2.1-2.45s1.44-1.6,2.18-2.37c1.48-1.55,3-3.07,4.56-4.54V47.5c-1.06-1.14-2.12-2.28-3.11-3.48,1.22,1,2.38,2,3.53,3.05l0.22,0.2-0.21.23c-1.45,1.58-3,3.11-4.49,4.61-0.77.75-1.55,1.48-2.35,2.2S567.61,55.74,566.78,56.43Z"/><path d="M576.68,44.57a3.14,3.14,0,0,0,.31.68c0.12,0.22.25,0.43,0.39,0.64l0.8,1.26,0.1,0.15-0.12.17c-0.95,1.32-1.95,2.59-3,3.84a42.82,42.82,0,0,1-3.32,3.56,42.81,42.81,0,0,1,2.77-4c1-1.28,2-2.53,3.11-3.74l0,0.32c-0.23-.45-0.43-0.91-0.62-1.38-0.09-.24-0.18-0.48-0.25-0.72A2.21,2.21,0,0,1,576.68,44.57Z"/><path d="M575.26,54.86a37.45,37.45,0,0,1,2.42-4Q579,49,580.48,47.17l0,0.26c-0.29-.79-0.55-1.59-0.77-2.41,0.45,0.72.87,1.45,1.26,2.19L581,47.34l-0.09.14q-1.24,2-2.64,3.82A37.45,37.45,0,0,1,575.26,54.86Z"/><path d="M582.6,44.57q1,1.47,1.92,3l0.08,0.14-0.11.16c-1,1.5-2,3-3.09,4.4A53.42,53.42,0,0,1,578,56.43a53.42,53.42,0,0,1,2.85-4.57c1-1.47,2.08-2.92,3.19-4.32l0,0.31Q583.24,46.24,582.6,44.57Z"/><path d="M581.76,57a44.26,44.26,0,0,1,2-4.71q1.13-2.3,2.44-4.5v0.24c-0.33-.8-0.64-1.62-0.92-2.45,0.49,0.73.95,1.47,1.38,2.22l0.06,0.1-0.06.14q-1,2.34-2.26,4.59A44.12,44.12,0,0,1,581.76,57Z"/><path d="M589,45.94a22.63,22.63,0,0,1,1.22,2.26l0,0.09,0,0.13c-0.37,1.2-.8,2.38-1.27,3.54a26.68,26.68,0,0,1-1.66,3.4,26.68,26.68,0,0,1,1-3.65c0.41-1.19.87-2.36,1.38-3.5v0.21A22.64,22.64,0,0,1,589,45.94Z"/><path d="M612.58,26.62s-2.71-.32-6.76-0.89c-2-.3-4.39-0.62-6.92-1L591,23.47l-7.9-1.34c-2.52-.43-4.87-0.88-6.88-1.24-4-.75-6.7-1.31-6.7-1.31s2.71,0.32,6.76.89c2,0.3,4.39.62,6.92,1l7.91,1.25,7.9,1.34c2.52,0.43,4.87.88,6.88,1.24C609.91,26.06,612.58,26.62,612.58,26.62Z"/><path d="M606.76,27.83s-3.1-.38-7.73-1l-7.91-1.16-9-1.41-9-1.51c-2.88-.48-5.57-1-7.87-1.39-4.6-.84-7.66-1.45-7.66-1.45s3.1,0.38,7.73,1c2.31,0.34,5,.71,7.91,1.16l9,1.41,9,1.51,7.87,1.39C603.71,27.21,606.76,27.83,606.76,27.83Z"/><path d="M591,30.62s-1.27-.22-3.14-0.64c-0.93-.22-2-0.46-3.19-0.75s-2.4-.62-3.64-1-2.46-.69-3.61-1-2.21-.7-3.13-1c-1.83-.6-3-1.05-3-1.05s1.27,0.22,3.14.64c0.93,0.22,2,.46,3.19.75s2.4,0.62,3.64,1,2.46,0.69,3.61,1,2.21,0.7,3.13,1C589.85,30.17,591,30.62,591,30.62Z"/><path d="M249.78,44.69s-2.31-.86-5.75-2.23c-1.71-.7-3.72-1.48-5.85-2.38l-6.67-2.8-6.63-2.89c-2.12-.92-4.07-1.83-5.76-2.59-3.36-1.54-5.58-2.62-5.58-2.62s2.31,0.86,5.75,2.23c1.71,0.7,3.72,1.48,5.85,2.38l6.67,2.8,6.63,2.89c2.12,0.92,4.07,1.83,5.76,2.59C247.56,43.61,249.78,44.69,249.78,44.69Z"/><path d="M252.64,44s-2.06-1-5.12-2.5c-1.52-.78-3.31-1.65-5.2-2.65l-5.92-3.11-5.88-3.19c-1.88-1-3.6-2-5.09-2.85-3-1.69-4.92-2.87-4.92-2.87s2.06,1,5.12,2.49c1.52,0.78,3.31,1.65,5.2,2.65l5.92,3.11,5.87,3.19c1.88,1,3.6,2,5.09,2.85C250.69,42.84,252.64,44,252.64,44Z"/><path d="M256.68,41.51s-1.69-.66-4.19-1.74c-1.24-.55-2.71-1.16-4.26-1.87l-4.84-2.22-4.8-2.31c-1.53-.73-2.94-1.47-4.16-2.08-2.42-1.24-4-2.12-4-2.12s1.69,0.66,4.2,1.74c1.24,0.55,2.71,1.16,4.26,1.87L243.7,35l4.8,2.31c1.53,0.74,2.94,1.47,4.16,2.08C255.09,40.63,256.68,41.51,256.68,41.51Z"/><path d="M231.66,26.86s2.25,0.93,5.57,2.39c1.66,0.75,3.61,1.59,5.67,2.55l6.47,3,6.42,3.08c2.05,1,3.94,1.95,5.57,2.75,3.25,1.63,5.4,2.78,5.4,2.78s-2.25-.92-5.58-2.39c-1.66-.75-3.61-1.59-5.67-2.55l-6.47-3-6.42-3.08c-2.05-1-3.94-1.95-5.57-2.75C233.8,28,231.66,26.86,231.66,26.86Z"/><path d="M252.64,33.52s1.48,0.51,3.67,1.35c1.09,0.43,2.37.92,3.72,1.47s2.79,1.16,4.23,1.77,2.86,1.25,4.2,1.85,2.57,1.2,3.63,1.69c2.12,1,3.5,1.74,3.5,1.74s-1.48-.51-3.67-1.35c-1.09-.43-2.37-0.91-3.72-1.47s-2.79-1.16-4.23-1.77-2.86-1.25-4.2-1.85-2.57-1.2-3.63-1.69C254,34.25,252.64,33.52,252.64,33.52Z"/><path d="M114.68,94.11a8.52,8.52,0,0,1-.07,1,13.42,13.42,0,0,1-1.2,4,8.39,8.39,0,0,1-.48.84,8.4,8.4,0,0,1,.07-1,13.42,13.42,0,0,1,1.2-4A8.53,8.53,0,0,1,114.68,94.11Z"/><path d="M116.76,98.79a1.16,1.16,0,0,1,.14.24,0.56,0.56,0,0,1-.27.74,0.22,0.22,0,0,1-.4-0.15,0.56,0.56,0,0,1,.28-0.74A1.16,1.16,0,0,1,116.76,98.79Z"/><path d="M121.16,96.06a4.35,4.35,0,0,1,0,.68A6.31,6.31,0,0,1,120,99.34a4.29,4.29,0,0,1-.44.51,4.29,4.29,0,0,1,0-.68,6.31,6.31,0,0,1,1.07-2.61A4.35,4.35,0,0,1,121.16,96.06Z"/><path d="M438.39,66.32s-0.53,1.21-1.4,3c-0.45.88-.94,1.92-1.52,3s-1.19,2.25-1.82,3.4-1.28,2.3-1.9,3.36-1.22,2-1.73,2.89c-1,1.68-1.77,2.78-1.77,2.78s0.53-1.21,1.4-3c0.45-.88.94-1.92,1.52-3s1.19-2.25,1.82-3.4,1.28-2.3,1.9-3.36,1.22-2,1.73-2.89C437.66,67.41,438.39,66.32,438.39,66.32Z"/><path d="M440.26,66.37s-0.51,1.41-1.35,3.48c-0.43,1-.92,2.25-1.47,3.53s-1.16,2.65-1.77,4-1.25,2.71-1.85,4-1.2,2.43-1.69,3.43c-1,2-1.74,3.31-1.74,3.31s0.51-1.41,1.35-3.48c0.43-1,.91-2.25,1.47-3.53s1.16-2.65,1.77-4,1.25-2.71,1.85-4,1.2-2.43,1.69-3.43C439.54,67.67,440.26,66.37,440.26,66.37Z"/><path d="M442.76,66.22s-0.3,1-.84,2.58c-0.28.76-.58,1.66-1,2.61s-0.77,2-1.17,3-0.84,2-1.26,2.92-0.83,1.78-1.17,2.52c-0.7,1.47-1.23,2.42-1.23,2.42s0.3-1,.84-2.58c0.28-.76.58-1.66,1-2.61s0.77-2,1.18-3,0.84-2,1.26-2.92,0.83-1.78,1.17-2.52C442.24,67.18,442.76,66.22,442.76,66.22Z"/><path d="M444.8,66.47s0,0.47-.11,1.16a19.77,19.77,0,0,1-1.4,4.82c-0.29.63-.52,1-0.52,1s0-.47.11-1.16a19.77,19.77,0,0,1,1.4-4.82C444.56,66.88,444.8,66.47,444.8,66.47Z"/><path d="M446.64,67.17s-0.13.83-.4,2.06-0.7,2.85-1.18,4.45-1,3.18-1.48,4.36S442.76,80,442.76,80s0.13-.83.4-2.06,0.7-2.85,1.18-4.45,1-3.18,1.49-4.36S446.64,67.17,446.64,67.17Z"/><path d="M449.14,67.17s0,0.56-.19,1.37a28.18,28.18,0,0,1-1.72,5.75c-0.33.76-.6,1.24-0.6,1.24s0-.56.18-1.37a28.18,28.18,0,0,1,1.72-5.74C448.87,67.66,449.14,67.17,449.14,67.17Z"/><path d="M451.51,66.63a4.6,4.6,0,0,1,0,.7,6.73,6.73,0,0,1-.74,2.82,4.54,4.54,0,0,1-.38.59,4.53,4.53,0,0,1,0-.7,6.73,6.73,0,0,1,.74-2.82A4.6,4.6,0,0,1,451.51,66.63Z"/><path d="M452.76,66.63s0,0.81-.15,2-0.35,2.8-.64,4.39-0.65,3.16-1,4.33-0.58,1.94-.58,1.94,0-.81.15-2,0.36-2.8.64-4.39,0.65-3.16,1-4.33S452.76,66.63,452.76,66.63Z"/><path d="M454.93,66.71s-0.06.77-.23,1.9-0.46,2.63-.8,4.11-0.76,2.95-1.11,4-0.65,1.8-.65,1.8,0.06-.77.23-1.9,0.46-2.63.8-4.11,0.76-2.95,1.12-4S454.93,66.71,454.93,66.71Z"/><path d="M456.93,66.76s0,0.56-.19,1.39A29.2,29.2,0,0,1,455,74c-0.33.77-.6,1.27-0.6,1.27s0-.57.19-1.39A29.2,29.2,0,0,1,456.33,68C456.66,67.26,456.93,66.76,456.93,66.76Z"/><path d="M429.6,71.35s3-.12,7.45-0.21c2.23,0,4.84-.1,7.63-0.11l8.75,0L462.18,71c2.79,0,5.4.09,7.63,0.12,4.47,0.09,7.45.21,7.45,0.21s-3,.12-7.45.21c-2.23,0-4.84.1-7.63,0.11l-8.75,0-8.75-.05c-2.79,0-5.4-.09-7.63-0.12C432.58,71.47,429.6,71.35,429.6,71.35Z"/><path d="M430.39,73.58s2-.12,5.12-0.21c1.54,0,3.33-.1,5.25-0.11l6,0,6,0c1.92,0,3.71.08,5.25,0.11,3.07,0.09,5.12.21,5.12,0.21s-2,.12-5.12.21c-1.54,0-3.33.1-5.25,0.11l-6,0-6,0c-1.92,0-3.71-.08-5.25-0.11C432.44,73.7,430.39,73.58,430.39,73.58Z"/><path d="M424.64,75.53s2.16-.12,5.39-0.21c1.62,0,3.5-.1,5.53-0.11l6.33,0,6.33,0c2,0,3.91.08,5.53,0.11,3.23,0.09,5.39.21,5.39,0.21s-2.16.12-5.39,0.21c-1.62,0-3.5.1-5.53,0.11l-6.33,0-6.33,0c-2,0-3.91-.08-5.53-0.11C426.8,75.65,424.64,75.53,424.64,75.53Z"/><path d="M493.11,97.54s2.05,0,5.12.18c1.54,0.09,3.33.15,5.25,0.28l6,0.41,6,0.5c1.91,0.16,3.7.36,5.23,0.51,3.06,0.32,5.09.6,5.09,0.6s-2.05,0-5.12-.18c-1.54-.09-3.33-0.15-5.25-0.28l-6-.41-6-.51c-1.91-.16-3.7-0.36-5.23-0.51C495.15,97.82,493.11,97.54,493.11,97.54Z"/><path d="M499.76,96.42s2.12,0,5.29,0c1.59,0,3.44,0,5.42.06l6.21,0.16,6.2,0.25c2,0.08,3.83.21,5.41,0.29,3.17,0.2,5.28.39,5.28,0.39s-2.12.05-5.29,0c-1.59,0-3.44,0-5.42-.06l-6.21-.16-6.2-.26c-2-.08-3.83-0.21-5.41-0.29C501.87,96.61,499.76,96.42,499.76,96.42Z"/><path d="M495.3,93.69s3.23,0,8.06,0l8.26,0.14,9.47,0.25,9.47,0.35c3,0.11,5.84.27,8.26,0.37,4.83,0.24,8.05.46,8.05,0.46s-3.23,0-8.06,0c-2.42,0-5.24-.06-8.26-0.15l-9.47-.25-9.47-.35-8.26-.37C498.52,93.91,495.3,93.69,495.3,93.69Z"/><path d="M556.26,81.66s1.23,0.62,3,1.62c0.89,0.51,1.94,1.09,3,1.74s2.27,1.36,3.44,2.07,2.32,1.45,3.4,2.15,2.06,1.38,2.92,1.94c1.7,1.15,2.8,2,2.8,2s-1.23-.62-3-1.62c-0.89-.51-1.94-1.08-3-1.74s-2.27-1.36-3.44-2.07-2.32-1.45-3.39-2.15-2.06-1.37-2.92-1.94C557.37,82.48,556.26,81.66,556.26,81.66Z"/><path d="M559.93,81.66s1.19,0.62,2.93,1.62c0.86,0.51,1.88,1.09,2.95,1.74s2.2,1.36,3.33,2.07,2.24,1.45,3.28,2.15,2,1.37,2.82,1.94c1.64,1.15,2.7,2,2.7,2s-1.19-.62-2.93-1.62c-0.86-.51-1.88-1.09-2.95-1.74s-2.2-1.36-3.33-2.07-2.24-1.45-3.28-2.15-2-1.37-2.82-1.94C561,82.48,559.93,81.66,559.93,81.66Z"/><path d="M565.58,83.51s1,0.43,2.4,1.16c0.7,0.37,1.54.79,2.41,1.27s1.8,1,2.72,1.54,1.83,1.09,2.67,1.62,1.62,1,2.29,1.48c1.33,0.88,2.19,1.53,2.19,1.53s-1-.43-2.4-1.16c-0.7-.37-1.54-0.79-2.41-1.27s-1.8-1-2.72-1.54-1.83-1.09-2.67-1.62-1.62-1-2.29-1.48C566.43,84.15,565.58,83.51,565.58,83.51Z"/><path d="M563.93,79.32s1.23,0.7,3,1.83c0.89,0.57,1.94,1.22,3,2s2.27,1.52,3.44,2.31,2.32,1.61,3.39,2.39,2.06,1.52,2.91,2.15c1.69,1.27,2.78,2.17,2.78,2.17s-1.23-.7-3-1.82c-0.89-.57-1.94-1.22-3-2S574.17,86.82,573,86s-2.32-1.61-3.39-2.39-2.06-1.52-2.91-2.15C565,80.22,563.93,79.32,563.93,79.32Z"/><path d="M568.17,79.32s1.11,0.7,2.72,1.83c0.8,0.57,1.74,1.22,2.73,2s2,1.52,3.07,2.31,2.07,1.61,3,2.38,1.83,1.52,2.58,2.14c1.5,1.27,2.46,2.17,2.46,2.17s-1.11-.7-2.72-1.83c-0.8-.57-1.74-1.22-2.73-2s-2-1.52-3.07-2.31-2.07-1.61-3-2.38-1.83-1.52-2.58-2.14C569.14,80.21,568.17,79.32,568.17,79.32Z"/><path d="M570.14,78.57s1.23,0.75,3,1.95c0.89,0.61,1.94,1.3,3,2.07s2.26,1.61,3.43,2.45,2.31,1.7,3.37,2.52,2,1.6,2.9,2.27c1.68,1.34,2.77,2.29,2.77,2.29s-1.23-.75-3-1.95c-0.89-.61-1.94-1.3-3-2.07s-2.26-1.61-3.43-2.45-2.31-1.7-3.37-2.52-2-1.6-2.9-2.27C571.22,79.51,570.14,78.57,570.14,78.57Z"/><path d="M573.6,78.57s1.19,0.75,2.93,1.95c0.86,0.61,1.88,1.3,2.94,2.07s2.19,1.61,3.32,2.45,2.23,1.7,3.26,2.52,2,1.6,2.8,2.26c1.63,1.34,2.67,2.28,2.67,2.28s-1.19-.75-2.93-1.95c-0.86-.61-1.88-1.3-2.94-2.07s-2.19-1.61-3.32-2.45-2.23-1.7-3.26-2.52-2-1.6-2.8-2.26C574.65,79.51,573.6,78.57,573.6,78.57Z"/><path d="M577.93,78.57s1.16,0.75,2.86,2c0.84,0.61,1.83,1.3,2.87,2.08s2.14,1.61,3.23,2.45,2.17,1.7,3.18,2.52,1.92,1.6,2.72,2.26c1.58,1.34,2.6,2.28,2.6,2.28s-1.17-.75-2.86-1.95c-0.84-.61-1.83-1.3-2.87-2.07s-2.14-1.61-3.23-2.45-2.17-1.7-3.18-2.52-1.92-1.6-2.72-2.26C578.95,79.51,577.93,78.57,577.93,78.57Z"/><path d="M579.4,76.31s0.91,0.63,2.22,1.64c0.65,0.51,1.42,1.1,2.21,1.75s1.64,1.36,2.47,2.08,1.66,1.45,2.42,2.14,1.45,1.37,2.06,1.93c1.19,1.15,1.94,2,1.94,2s-0.91-.63-2.22-1.64c-0.65-.51-1.42-1.09-2.21-1.75s-1.64-1.36-2.47-2.08-1.66-1.45-2.42-2.15-1.45-1.37-2.06-1.93C580.15,77.12,579.4,76.31,579.4,76.31Z"/><path d="M586.06,78.57s0.81,0.56,2,1.47c0.57,0.46,1.25,1,2,1.58s1.44,1.23,2.18,1.88,1.46,1.31,2.12,1.95,1.27,1.24,1.8,1.76c1,1,1.69,1.79,1.69,1.79s-0.81-.56-2-1.47c-0.57-.46-1.25-1-2-1.58s-1.44-1.23-2.18-1.88-1.45-1.31-2.12-1.95-1.27-1.24-1.8-1.76C586.71,79.31,586.06,78.57,586.06,78.57Z"/><path d="M585.31,75.26s1.11,0.81,2.72,2.09c0.8,0.65,1.74,1.39,2.72,2.21s2,1.71,3.06,2.6,2.05,1.81,3,2.67,1.81,1.69,2.56,2.39c1.49,1.41,2.44,2.4,2.44,2.4s-1.11-.81-2.72-2.09c-0.79-.65-1.74-1.39-2.72-2.21s-2-1.71-3.06-2.6-2.05-1.81-3-2.67-1.81-1.69-2.56-2.39C586.26,76.25,585.31,75.26,585.31,75.26Z"/><path d="M442.76,30.62s0.81-.12,2-0.21,2.82-.16,4.43-0.16,3.22,0.06,4.43.16,2,0.22,2,.22-0.81.12-2,.22-2.82.16-4.43,0.16-3.22-.07-4.43-0.16S442.76,30.62,442.76,30.62Z"/><path d="M436.14,31.85s2.07-.12,5.16-0.21c1.55,0,3.36-.1,5.29-0.11l6.07,0,6.07,0c1.94,0,3.74.08,5.29,0.11,3.1,0.09,5.16.21,5.16,0.21s-2.07.12-5.16,0.21c-1.55,0-3.36.1-5.29,0.11l-6.07,0-6.07,0c-1.94,0-3.74-.08-5.29-0.11C438.21,32,436.14,31.85,436.14,31.85Z"/><path d="M431.8,33.52s3.08-.12,7.71-0.21c2.31,0,5-.1,7.9-0.11l9.06,0,9.06,0c2.89,0,5.59.08,7.9,0.11,4.63,0.09,7.71.21,7.71,0.21s-3.08.12-7.71,0.21c-2.31,0-5,.1-7.9.11l-9.06,0-9.06,0c-2.89,0-5.59-.08-7.9-0.11C434.88,33.64,431.8,33.52,431.8,33.52Z"/><path d="M425.88,35.41s1.49-.16,3.73-0.3c1.12-.06,2.42-0.15,3.82-0.21s2.89-.11,4.38-0.15,3-.06,4.38-0.06,2.71,0,3.83,0c2.24,0,3.74.12,3.74,0.12s-1.49.16-3.73,0.3c-1.12.06-2.42,0.15-3.82,0.21s-2.89.11-4.38,0.15-3,.06-4.38.06-2.71,0-3.83,0C427.38,35.49,425.88,35.41,425.88,35.41Z"/><path d="M426.5,36.5s3.79-.21,9.49-0.42l9.73-.33,11.15-.3,11.16-.2,9.73-.11c5.7,0,9.5,0,9.5,0s-3.79.21-9.49,0.43l-9.73.33-11.15.3-11.16.2L436,36.5C430.3,36.53,426.5,36.5,426.5,36.5Z"/><path d="M426.5,39.14s2.49-.12,6.21-0.21c1.86,0,4-.1,6.37-0.11l7.3,0,7.3,0c2.33,0,4.5.08,6.37,0.11,3.73,0.09,6.21.21,6.21,0.21s-2.49.12-6.21,0.21c-1.86,0-4,.1-6.37.11l-7.3,0-7.3,0c-2.33,0-4.5-.08-6.37-0.11C429,39.26,426.5,39.14,426.5,39.14Z"/><path d="M416,41.51l3-.06,7.79-.15,11-.11,12.63,0,12.63,0,11,0.11c3.22,0,5.91.12,7.79,0.15l3,0.06-3,.06c-1.88,0-4.57.12-7.79,0.15l-11,.11-12.63,0-12.63,0-11-.11-7.79-.15Z"/><path d="M422.48,43.11l2.9-.06L433,42.9l10.8-.11,12.38,0,12.38,0,10.8,0.11c3.16,0,5.79.12,7.64,0.15l2.9,0.06-2.9.06c-1.84,0-4.48.12-7.64,0.15l-10.8.11-12.38,0-12.38,0L433,43.32l-7.64-.15Z"/><path d="M421.51,45.53s1.88-.12,4.7-0.21c1.41,0,3.06-.1,4.82-0.11l5.52,0,5.52,0c1.76,0,3.41.08,4.82,0.11,2.82,0.09,4.7.21,4.7,0.21s-1.88.12-4.7,0.21c-1.41,0-3.06.1-4.82,0.11l-5.52,0-5.52,0c-1.76,0-3.41-.08-4.82-0.11C423.39,45.65,421.51,45.53,421.51,45.53Z"/><path d="M622.85,64.26s1.11-.19,2.79-0.38c0.84-.08,1.82-0.21,2.87-0.3s2.17-.17,3.29-0.25,2.24-.13,3.3-0.16,2,0,2.88-.06c1.69,0,2.82,0,2.82,0s-1.11.19-2.79,0.38c-0.84.08-1.82,0.21-2.87,0.3s-2.17.17-3.29,0.25-2.24.12-3.3,0.16-2,0-2.88.06C624,64.31,622.85,64.26,622.85,64.26Z"/><path d="M618.67,66.78s1.45-.14,3.64-0.26c1.09,0,2.36-.13,3.73-0.17s2.82-.08,4.28-0.1,2.91,0,4.28,0,2.64,0.05,3.73.07c2.18,0.06,3.64.16,3.64,0.16s-1.45.14-3.64,0.26c-1.09,0-2.36.13-3.73,0.17s-2.82.07-4.28,0.1-2.91,0-4.28,0-2.64-.05-3.73-0.07C620.13,66.88,618.67,66.78,618.67,66.78Z"/><path d="M615.28,69s1.45-.12,3.62-0.21c1.09,0,2.36-.1,3.71-0.12s2.81,0,4.26,0,2.9,0,4.26,0,2.63,0.09,3.71.12c2.17,0.09,3.62.21,3.62,0.21s-1.45.12-3.62,0.21c-1.09,0-2.36.1-3.71,0.12s-2.81,0-4.26,0-2.9,0-4.26,0-2.63-.09-3.71-0.12C616.73,69.16,615.28,69,615.28,69Z"/><path d="M615.28,70.74s1-.12,2.59-0.21c0.78,0,1.68-.1,2.65-0.12s2,0,3,0,2.07,0,3,0,1.88,0.09,2.65.12c1.55,0.09,2.59.21,2.59,0.21s-1,.12-2.59.21c-0.78,0-1.68.1-2.65,0.12s-2,0-3,0-2.07,0-3,0-1.87-.09-2.65-0.12C616.31,70.85,615.28,70.74,615.28,70.74Z"/><path d="M618.88,73.49s0.85-.12,2.11-0.21,3-.16,4.65-0.16,3.38,0.06,4.65.16,2.11,0.22,2.11.22-0.85.12-2.11,0.22-3,.16-4.65.16-3.38-.07-4.65-0.16S618.88,73.49,618.88,73.49Z"/><polygon points="291.79 92.38 298.51 95.81 298.32 95.76 298.33 95.76 298.45 95.77 298.52 95.81 304.81 99.86 298.14 96.46 298.33 96.51 298.32 96.51 298.22 96.52 298.13 96.46 291.79 92.38"/><path d="M310.58,99.86a3.84,3.84,0,0,1-.4-0.17c-0.24-.12-0.6-0.27-1-0.49-0.83-.43-1.9-1-2.94-1.72s-2-1.4-2.76-2-1.18-1-1.18-1,0.58,0.24,1.41.67,1.9,1,2.94,1.72,2,1.4,2.76,2S310.58,99.86,310.58,99.86Z"/><path d="M315.51,99.86s-0.64-.24-1.56-0.66-2.11-1-3.27-1.71-2.29-1.41-3.11-2-1.35-1-1.35-1,0.64,0.23,1.56.65,2.11,1,3.27,1.72,2.29,1.4,3.11,2S315.51,99.86,315.51,99.86Z"/><path d="M290.23,97.12s1.35-.28,3.38-0.62c1-.16,2.2-0.36,3.48-0.54s2.64-.36,4-0.53,2.73-.32,4-0.44,2.48-.21,3.51-0.31c2.06-.16,3.43-0.2,3.43-0.2s-1.35.29-3.38,0.62c-1,.16-2.2.37-3.48,0.54s-2.64.36-4,.53-2.73.32-4,.44-2.48.21-3.51,0.31C291.6,97.07,290.23,97.12,290.23,97.12Z"/><path d="M296.29,99.83s2.08-.51,5.23-1.18c1.57-.32,3.4-0.73,5.38-1.11l6.18-1.19,6.2-1.09c2-.35,3.83-0.62,5.42-0.88,3.18-.49,5.3-0.76,5.3-0.76s-2.08.51-5.23,1.18c-1.57.32-3.4,0.73-5.38,1.11l-6.18,1.19L307,98.18c-2,.35-3.83.62-5.42,0.88C298.42,99.56,296.29,99.83,296.29,99.83Z"/><path d="M309.6,99.86s0.48-.18,1.21-0.38a23.84,23.84,0,0,1,5.46-.77c0.76,0,1.27,0,1.27,0s-0.48.19-1.21,0.39a23.82,23.82,0,0,1-5.46.77C310.11,99.9,309.6,99.86,309.6,99.86Z"/><path d="M110.86,58.66l0.31,0.15c0.2,0.1.45,0.26,0.76,0.46a9.66,9.66,0,0,1,1,.76c0.33,0.31.66,0.67,1,1,1.37,1.36,2.7,2.77,2.7,2.77l0,0.06s-1.55-1.16-3.05-2.38c-0.38-.3-0.77-0.59-1.12-0.88a9.66,9.66,0,0,1-.86-0.89c-0.23-.29-0.42-0.52-0.54-0.71s-0.18-.29-0.18-0.29Z"/><path d="M112.56,55.78s0.55,0.29,1.34.78,1.78,1.21,2.75,2,1.89,1.57,2.55,2.22,1.07,1.12,1.07,1.12-0.55-.29-1.34-0.78-1.78-1.21-2.75-2-1.89-1.57-2.55-2.22S112.56,55.78,112.56,55.78Z"/><path d="M113.71,54.25s0.81,0.44,2,1.17,2.68,1.75,4.17,2.82,2.92,2.2,4,3.08,1.72,1.52,1.72,1.52-0.81-.44-2-1.17-2.68-1.75-4.16-2.82-2.92-2.2-4-3.08S113.71,54.25,113.71,54.25Z"/><path d="M116,50.46S116.79,51,117.89,52c0.54,0.48,1.19,1,1.86,1.64s1.37,1.28,2.07,2,1.38,1.36,2,2,1.2,1.29,1.69,1.82c1,1.08,1.58,1.84,1.58,1.84s-0.78-.59-1.88-1.54c-0.54-.48-1.19-1-1.86-1.64s-1.37-1.28-2.07-2-1.38-1.36-2-2-1.2-1.29-1.69-1.82C116.62,51.22,116,50.46,116,50.46Z"/><path d="M119.35,49.42S120,50,121,50.94s2.23,2.23,3.44,3.57,2.37,2.72,3.2,3.78S129,60.11,129,60.11s-0.69-.59-1.67-1.53-2.23-2.23-3.44-3.57-2.37-2.72-3.2-3.78S119.35,49.42,119.35,49.42Z"/><path d="M124.21,50.44s0.15,0.12.4,0.36,0.59,0.57,1,1,0.83,0.93,1.29,1.49,0.87,1.2,1.32,1.83c1.82,2.47,3.59,5,3.59,5l-0.06,0s-2-2.31-4-4.66c-0.5-.58-1-1.16-1.46-1.72s-0.83-1.12-1.14-1.6-0.57-.9-0.73-1.2-0.25-.47-0.25-0.47Z"/><path d="M147,99.86a8.17,8.17,0,0,1-.4-0.85,12.83,12.83,0,0,1-.83-4,8,8,0,0,1,0-.94,8.05,8.05,0,0,1,.4.85,12.83,12.83,0,0,1,.82,4A8.17,8.17,0,0,1,147,99.86Z"/><path d="M152.91,99.86s-0.24-.43-0.54-1.11a22.23,22.23,0,0,1-1.45-5.12c-0.1-.73-0.12-1.22-0.12-1.22s0.24,0.43.54,1.11a22.23,22.23,0,0,1,1.45,5.12C152.89,99.36,152.91,99.86,152.91,99.86Z"/><path d="M158.2,99.86s-0.33-.49-0.75-1.25A31.37,31.37,0,0,1,155,92.77c-0.24-.83-0.35-1.41-0.35-1.41s0.33,0.49.75,1.25a31.37,31.37,0,0,1,2.43,5.84C158.09,99.28,158.2,99.86,158.2,99.86Z"/><path d="M164,99.86s-0.4-.5-0.94-1.3-1.2-1.88-1.8-3-1.15-2.27-1.52-3.15-0.57-1.5-.57-1.5,0.4,0.5.95,1.3,1.2,1.88,1.8,3,1.15,2.27,1.52,3.15S164,99.86,164,99.86Z"/><path d="M141.12,95a5.77,5.77,0,0,1,.21.76,8.73,8.73,0,0,1,0,3.33,5.68,5.68,0,0,1-.22.75,5.69,5.69,0,0,1-.21-0.76,8.73,8.73,0,0,1,0-3.33A5.77,5.77,0,0,1,141.12,95Z"/><path d="M309.93,67.55s0.2,1.22.42,3.07c0.1,0.92.23,2,.33,3.15s0.2,2.39.29,3.62,0.15,2.47.2,3.62,0.06,2.24.09,3.17c0,1.86,0,3.1,0,3.1s-0.2-1.22-.42-3.07c-0.1-.92-0.23-2-0.33-3.15s-0.2-2.39-.29-3.62-0.15-2.47-.2-3.62-0.07-2.24-.09-3.17C309.9,68.79,309.93,67.55,309.93,67.55Z"/><path d="M312.13,67.6s0.33,1.27.75,3.19c0.19,1,.45,2.08.67,3.28s0.46,2.49.68,3.78,0.42,2.58.59,3.79,0.31,2.35.44,3.32c0.24,1.95.33,3.26,0.33,3.26S315.25,87,314.84,85c-0.19-1-.45-2.08-0.67-3.28s-0.45-2.49-.68-3.78-0.42-2.58-.59-3.79-0.31-2.35-.44-3.32C312.22,68.91,312.13,67.6,312.13,67.6Z"/><path d="M315.58,67.69s0.53,1.29,1.24,3.24c0.34,1,.77,2.12,1.18,3.35s0.84,2.55,1.27,3.87,0.82,2.65,1.18,3.9,0.67,2.42,1,3.43c0.54,2,.84,3.37.84,3.37s-0.53-1.29-1.25-3.24c-0.34-1-.77-2.12-1.18-3.35s-0.84-2.55-1.27-3.87-0.82-2.65-1.18-3.9-0.67-2.42-1-3.43C315.89,69,315.58,67.69,315.58,67.69Z"/><path d="M317.6,72.64s2-.1,5-0.16c1.5,0,3.26-.07,5.14-0.06h5.89l5.89,0.11c1.88,0,3.63.12,5.13,0.17,3,0.12,5,.26,5,0.26s-2,.1-5,0.16c-1.5,0-3.26.07-5.14,0.06h-5.89l-5.89-.11c-1.88,0-3.63-.12-5.13-0.17C319.6,72.78,317.6,72.64,317.6,72.64Z"/><path d="M318.65,77.39s2.47-.24,6.18-0.5c1.86-.12,4-0.29,6.34-0.41l7.27-.39,7.28-.29c2.32-.1,4.49-0.13,6.35-0.18,3.72-.08,6.2-0.08,6.2-0.08s-2.47.24-6.18,0.5c-1.86.12-4,.29-6.34,0.41l-7.27.39-7.28.29c-2.32.09-4.49,0.13-6.35,0.18C321.13,77.4,318.65,77.39,318.65,77.39Z"/><path d="M321,81.66s2.62-.22,6.56-0.47c2-.11,4.26-0.27,6.72-0.38l7.71-.36,7.72-.26c2.46-.09,4.76-0.11,6.73-0.15C360.4,80,363,80,363,80s-2.62.23-6.56,0.47c-2,.11-4.26.27-6.72,0.38L342,81.2l-7.72.26c-2.46.08-4.76,0.11-6.73,0.15C323.65,81.67,321,81.66,321,81.66Z"/><path d="M321.56,85s2-.22,5.11-0.46c1.53-.11,3.32-0.26,5.24-0.37l6-.35,6-.25c1.92-.08,3.71-0.1,5.25-0.14,3.08-.06,5.13,0,5.13,0s-2,.22-5.11.46c-1.53.11-3.32,0.27-5.24,0.37l-6,.35-6,.25c-1.92.08-3.71,0.1-5.25,0.14C323.62,85,321.56,85,321.56,85Z"/><path d="M19.57,2.64a1,1,0,0,1,0-.17,2,2,0,0,1,.14-0.38A1.8,1.8,0,0,1,20,1.65c0.14-.13.32-0.24,0.49-0.36,0.64-.51,1.33-1,1.33-1l0.05,0.05s-0.46.7-1,1.35c-0.12.17-.23,0.35-0.36,0.49a1.8,1.8,0,0,1-.43.31,2,2,0,0,1-.38.15l-0.17,0Z"/><path d="M21.86,3.46a1.31,1.31,0,0,1,0-.2A2.83,2.83,0,0,1,22,2.79a2.69,2.69,0,0,1,.28-0.59c0.14-.19.31-0.38,0.48-0.57,0.63-.79,1.32-1.54,1.32-1.54l0.06,0s-0.41.93-.88,1.83c-0.11.23-.21,0.46-0.33,0.67a2.69,2.69,0,0,1-.43.49,2.83,2.83,0,0,1-.39.29l-0.17.09Z"/><path d="M25.74,4.21A2,2,0,0,1,25.83,4a4.69,4.69,0,0,1,.3-0.56,4.79,4.79,0,0,1,.54-0.69c0.23-.22.5-0.43,0.76-0.65,1-.91,2.07-1.76,2.07-1.76l0.05,0.05s-0.82,1.09-1.69,2.13c-0.21.27-.41,0.54-0.63,0.78a4.79,4.79,0,0,1-.67.56,4.69,4.69,0,0,1-.55.32l-0.23.1Z"/><path d="M29.61,5.19a2.49,2.49,0,0,1,.09-0.27A6,6,0,0,1,30,4.27a6.32,6.32,0,0,1,.55-0.84c0.24-.28.51-0.55,0.78-0.84,1-1.16,2.14-2.27,2.14-2.27l0.06,0S32.7,1.68,31.81,3c-0.22.33-.42,0.66-0.64,1a6.32,6.32,0,0,1-.69.72,6,6,0,0,1-.57.45l-0.24.15Z"/><path d="M33.48,6.18a2.91,2.91,0,0,1,.07-0.3,7.16,7.16,0,0,1,.25-0.75,7.57,7.57,0,0,1,.48-1c0.22-.34.47-0.68,0.72-1,1-1.41,2-2.79,2-2.79l0.06,0s-0.73,1.55-1.52,3.06c-0.19.38-.37,0.77-0.56,1.12a7.57,7.57,0,0,1-.64.89,7.16,7.16,0,0,1-.54.58,2.91,2.91,0,0,1-.23.2Z"/><path d="M37.61,6.18a3,3,0,0,1,.08-0.3A7.42,7.42,0,0,1,38,5.12a7.86,7.86,0,0,1,.52-1c0.23-.34.5-0.68,0.76-1,1-1.41,2.1-2.79,2.1-2.79l0.06,0s-0.8,1.55-1.65,3.07c-0.21.38-.4,0.77-0.61,1.12a7.86,7.86,0,0,1-.68.89,7.42,7.42,0,0,1-.57.57,3,3,0,0,1-.24.2Z"/><path d="M44.34,3.31s-1.68,0-4.18-.25c-1.25-.11-2.71-0.24-4.27-0.43L31,1.93,17.76,0V0L31.09,1.34,36,1.85c1.56,0.19,3,.42,4.25.62,2.48,0.41,4.12.77,4.12,0.77V3.31Z"/><rect class="cls-1" x="0.01" y="0.18" width="650.28" height="99.68"/></svg>