<svg id="Slip_lines_grains_elongated" data-name="Slip lines (grains elongated" xmlns="http://www.w3.org/2000/svg" viewBox="0 0 300 150"><title>M_SlipLinesGrainElongated</title><path d="M109.7,13.94l12.74-.27,13.06-.17,15-.12,15,0,13.06,0.06,12.74,0.15-12.74.27L165.43,14l-15,.12-15,0-13.06-.06Z"/><path d="M104.33,16.15l15.06-.07,15.43,0,17.69,0.12,17.69,0.22,15.43,0.26,15.05,0.36-15.06.07-15.43,0L152.51,17l-17.69-.22-15.43-.26Z"/><path d="M99,19.33l17.9,0.15,18.35,0.25,21,0.37,21,0.47L195.67,21l17.89,0.57-17.9-.15-18.35-.25-21-.37-21-.47-18.34-.48Z"/><path d="M114,22.58l14.4,0.18L143.21,23l16.92,0.41L177,24l14.75,0.51,14.39,0.6-14.4-.18L177,24.61,160.1,24.2l-16.92-.51-14.75-.51Z"/><path d="M124.74,25.08s0.78-.12,1.94-0.21,2.72-.16,4.27-0.16,3.1,0.06,4.27.16,1.94,0.22,1.94.22-0.78.12-1.94,0.22-2.72.16-4.27,0.16-3.1-.07-4.27-0.16S124.74,25.08,124.74,25.08Z"/><path d="M130.95,50s2.28-.39,5.72-0.88c1.72-.23,3.72-0.53,5.87-0.8l6.74-.83,6.75-.73c2.16-.24,4.17-0.4,5.9-0.57,3.46-.31,5.77-0.46,5.77-0.46s-2.28.39-5.72,0.88c-1.72.23-3.72,0.53-5.87,0.8l-6.74.83-6.76.73c-2.16.24-4.17,0.4-5.9,0.57C133.26,49.88,130.95,50,130.95,50Z"/><path d="M139.82,51.8s1.3-.31,3.25-0.68c1-.18,2.12-0.4,3.35-0.61s2.54-.41,3.85-0.6,2.63-.37,3.86-0.52,2.39-.26,3.38-0.37c2-.2,3.31-0.27,3.31-0.27s-1.3.31-3.25,0.68c-1,.18-2.12.41-3.35,0.61s-2.54.41-3.85,0.6-2.63.37-3.86,0.51-2.39.26-3.38,0.37C141.15,51.73,139.82,51.8,139.82,51.8Z"/><path d="M147.79,53.73s1.4-.33,3.52-0.75c1.06-.19,2.29-0.44,3.62-0.67s2.74-.45,4.16-0.68,2.84-.42,4.17-0.59,2.58-.31,3.65-0.43c2.14-.23,3.58-0.33,3.58-0.33s-1.4.34-3.52,0.75c-1.06.19-2.29,0.45-3.62,0.67s-2.74.45-4.16,0.68-2.84.42-4.17,0.59-2.58.31-3.65,0.43C149.23,53.63,147.79,53.73,147.79,53.73Z"/><path d="M156.35,55.77l0.54-.18c0.34-.12.83-0.24,1.42-0.4s1.29-.29,2-0.42,1.56-.19,2.37-0.29c3.22-.42,6.45-0.78,6.45-0.78v0.07s-3.18.68-6.36,1.3c-0.8.16-1.59,0.34-2.34,0.47s-1.46.2-2.07,0.24-1.12.07-1.48,0.07h-0.57V55.77Z"/><path d="M162.75,56.73s1.21-.35,3-0.73c0.92-.18,2-0.4,3.15-0.58l3.64-.47c4.95-.66,9.9-1.26,9.9-1.26v0.07s-4.91.92-9.83,1.78l-3.61.65c-1.16.18-2.24,0.29-3.17,0.39-1.87.18-3.12,0.22-3.12,0.22V56.73Z"/><path d="M169.16,58.87l0.28-.13a7.26,7.26,0,0,1,.75-0.26,7.68,7.68,0,0,1,1.08-.22c0.4,0,.83,0,1.26-0.06,1.72-.1,3.44-0.14,3.44-0.14v0.07s-1.69.36-3.38,0.66c-0.42.08-.84,0.18-1.24,0.24a7.68,7.68,0,0,1-1.1,0,7.26,7.26,0,0,1-.79-0.08l-0.3-.06V58.87Z"/><path d="M195.11,68.94s3.37,0.52,8.42,1.38l8.61,1.51L222,73.63l9.84,1.91c3.14,0.61,6.06,1.23,8.57,1.73,5,1,8.34,1.79,8.34,1.79s-3.37-.51-8.42-1.37c-2.52-.44-5.46-0.93-8.61-1.51l-9.85-1.81L212,72.46l-8.57-1.73C198.44,69.69,195.11,68.94,195.11,68.94Z"/><path d="M191.22,72.11s4,0.47,10,1.26l10.26,1.39,11.75,1.67L235,78.19l10.22,1.61c6,1,10,1.67,10,1.67s-4-.47-10-1.25l-10.26-1.39-11.75-1.67-11.73-1.77-10.22-1.61C195.2,72.81,191.22,72.11,191.22,72.11Z"/><path d="M187.76,74.93l11.95,1.33,12.23,1.47,14,1.76,14,1.86L252.16,83l11.89,1.75-11.95-1.33L239.87,82l-14-1.76-14-1.86-12.2-1.69Z"/><path d="M185.18,77.21l13.35,1.66,13.67,1.8,15.66,2.14,15.65,2.24,13.64,2,13.29,2.07-13.35-1.66-13.67-1.8-15.66-2.14-15.65-2.24-13.64-2Z"/><path d="M182.69,79.06l3.12,0.37,8.23,1,11.62,1.5L219,83.74l13.3,1.9,11.59,1.73,8.19,1.29,3.11,0.5L252,88.78l-8.23-1-11.62-1.5-13.31-1.8-13.3-1.9L194,80.85l-8.19-1.29Z"/><path d="M179.73,81.47s2.26,0.27,5.64.75c1.69,0.26,3.66.52,5.77,0.87l6.6,1.08,6.58,1.17c2.1,0.37,4.05.78,5.73,1.09,3.35,0.66,5.57,1.17,5.57,1.17s-2.26-.26-5.64-0.75c-1.69-.26-3.66-0.52-5.77-0.87l-6.6-1.08L191,83.73c-2.1-.37-4.05-0.78-5.73-1.09C182,82,179.73,81.47,179.73,81.47Z"/><path d="M176.5,84.11l3,0.51,8,1.36,11.25,2,12.88,2.38,12.86,2.48,11.21,2.23,7.92,1.65,3,0.63-3-.51-8-1.36-11.25-2L211.49,91.1l-12.86-2.48-11.21-2.24-7.92-1.65Z"/><path d="M274.82,47.1S276.5,48.25,279,50c1.22,0.91,2.67,1.94,4.18,3.09l4.74,3.61,4.68,3.69c1.5,1.18,2.86,2.32,4,3.28C299,65.65,300.49,67,300.49,67s-1.68-1.15-4.14-2.94c-1.22-.91-2.67-1.94-4.18-3.1l-4.74-3.61-4.68-3.69c-1.5-1.18-2.86-2.32-4-3.28C276.35,48.44,274.82,47.1,274.82,47.1Z"/><path d="M270.44,47.9s1.59,1,3.92,2.67c1.16,0.83,2.52,1.76,4,2.81l4.48,3.29L287.22,60c1.41,1.07,2.7,2.12,3.82,3,2.22,1.77,3.66,3,3.66,3s-1.59-1-3.92-2.67c-1.16-.83-2.53-1.76-4-2.81l-4.48-3.29-4.42-3.37c-1.41-1.07-2.7-2.12-3.82-3C271.88,49.13,270.44,47.9,270.44,47.9Z"/><path d="M264.06,47.49s1.55,1.11,3.82,2.83c1.13,0.88,2.46,1.87,3.85,3l4.36,3.48,4.3,3.56c1.38,1.13,2.62,2.24,3.71,3.16,2.16,1.87,3.55,3.16,3.55,3.16s-1.55-1.11-3.82-2.83c-1.13-.88-2.46-1.87-3.85-3l-4.36-3.48-4.3-3.56c-1.37-1.14-2.62-2.24-3.71-3.16C265.45,48.78,264.06,47.49,264.06,47.49Z"/><path d="M259,47.49s1.55,1.07,3.81,2.73c1.12,0.85,2.46,1.81,3.85,2.88L271,56.47l4.3,3.45c1.37,1.1,2.62,2.17,3.71,3.06,2.15,1.81,3.55,3.07,3.55,3.07S281,65,278.76,63.31c-1.12-.85-2.46-1.8-3.85-2.88l-4.36-3.37-4.3-3.45c-1.37-1.1-2.62-2.17-3.71-3.06C260.39,48.74,259,47.49,259,47.49Z"/><path d="M259.82,51.8s0.84,0.45,2,1.21c0.6,0.39,1.31.82,2,1.32s1.52,1,2.29,1.58,1.53,1.11,2.24,1.66,1.35,1.07,1.91,1.51c1.1,0.9,1.8,1.55,1.8,1.55s-0.84-.45-2-1.21c-0.6-.39-1.31-0.82-2-1.32s-1.51-1-2.29-1.58-1.53-1.11-2.24-1.66-1.35-1.07-1.91-1.51C260.52,52.45,259.82,51.8,259.82,51.8Z"/><path d="M252,47.1s1.34,1,3.29,2.57c1,0.8,2.11,1.7,3.3,2.72l3.74,3.17L266,58.82c1.17,1,2.23,2,3.15,2.89,1.83,1.71,3,2.89,3,2.89s-1.34-1-3.29-2.57c-1-.8-2.11-1.7-3.3-2.72l-3.73-3.17-3.67-3.25c-1.17-1-2.23-2-3.15-2.89C253.17,48.29,252,47.1,252,47.1Z"/><path d="M41,90.73S44.61,90.42,50,90l9.29-.62L70,88.79l10.66-.52,9.3-.39C95.39,87.68,99,87.6,99,87.6s-3.62.32-9.06,0.7l-9.29.61L70,89.54l-10.66.52-9.3.39C44.63,90.65,41,90.73,41,90.73Z"/><path d="M39.59,93s4-.36,9.89-0.81l10.15-.73,11.64-.76,11.64-.66,10.16-.5C99,89.29,103,89.17,103,89.17s-4,.36-9.89.81l-10.15.73-11.64.76-11.64.66-10.16.5C43.56,92.9,39.59,93,39.59,93Z"/><path d="M38.47,94.84s3.79-.23,9.49-0.5l9.73-.41,11.16-.38L80,93.27l9.74-.18c5.7-.08,9.5-0.07,9.5-0.07s-3.79.23-9.49,0.5L80,93.92l-11.16.38-11.16.28L48,94.77C42.27,94.85,38.47,94.84,38.47,94.84Z"/><path d="M34.91,97.36s3.86-.21,9.66-0.44l9.9-.35,11.35-.32L77.18,96l9.91-.12c5.8,0,9.67,0,9.67,0s-3.86.21-9.66,0.44l-9.9.35L65.85,97l-11.36.22-9.91.12C38.78,97.39,34.91,97.36,34.91,97.36Z"/><path d="M34.91,99.84l12.36-.6,12.67-.51,14.53-.51L89,97.82l12.68-.28L114,97.36l-12.36.6L89,98.47,74.49,99,60,99.38l-12.68.28Z"/><path d="M139.82,101.48s-2.31,0-5.76,0c-1.73,0-3.75-.07-5.9-0.15l-6.76-.25-6.76-.35c-2.16-.11-4.17-0.27-5.89-0.38-3.45-.24-5.75-0.47-5.75-0.47s2.31,0,5.76,0c1.73,0,3.75.06,5.9,0.15l6.76,0.25,6.76,0.35c2.16,0.11,4.17.27,5.89,0.38C137.52,101.26,139.82,101.48,139.82,101.48Z"/><path d="M138.62,103.83s-2.23,0-5.58,0c-1.67,0-3.62,0-5.71-.12l-6.54-.22-6.54-.32c-2.09-.1-4-0.25-5.7-0.35-3.34-.23-5.56-0.44-5.56-0.44s2.23,0,5.58,0c1.67,0,3.62,0,5.71.12l6.54,0.22,6.54,0.32c2.09,0.1,4,.25,5.7.35C136.4,103.62,138.62,103.83,138.62,103.83Z"/><path d="M137.15,106.7s-2.15-.06-5.36-0.24c-1.6-.1-3.48-0.19-5.48-0.35l-6.28-.48-6.27-.58c-2-.18-3.86-0.41-5.46-0.57-3.2-.36-5.32-0.66-5.32-0.66s2.15,0.06,5.36.24c1.6,0.1,3.48.19,5.48,0.35l6.28,0.48,6.27,0.58c2,0.18,3.86.41,5.46,0.57C135,106.4,137.15,106.7,137.15,106.7Z"/><path d="M76.36,50s0,0.14,0,.38-0.11.58-.2,1a12.19,12.19,0,0,1-.42,1.33c-0.2.47-.44,1-0.67,1.45-0.88,2-1.83,3.94-1.83,3.94l-0.07,0S73.76,56,74.46,54c0.17-.52.32-1,0.5-1.52a12.19,12.19,0,0,1,.59-1.26c0.2-.36.37-0.66,0.52-0.85s0.22-.31.22-0.31Z"/><path d="M79,49.67s0,0.2-.09.55-0.18.84-.32,1.42-0.35,1.25-.59,2-0.57,1.44-.86,2.18c-1.15,3-2.37,5.93-2.37,5.93l-0.07,0s0.91-3.06,1.87-6.11c0.23-.76.46-1.53,0.69-2.24s0.51-1.35.77-1.9,0.47-1,.64-1.31,0.27-.49.27-0.49Z"/><path d="M81.52,49.67S81.35,50.74,81,52.3c-0.2.78-.44,1.69-0.74,2.65s-0.68,2-1,3c-1.38,4.07-2.83,8.12-2.83,8.12l-0.07,0s1.13-4.15,2.33-8.27c0.29-1,.57-2.07.86-3s0.64-1.84.92-2.6c0.58-1.51,1.06-2.48,1.06-2.48Z"/><path d="M83.71,49.66s0,0.15,0,.42,0,0.64-.08,1.09a14.61,14.61,0,0,1-.26,1.5c-0.14.54-.32,1.11-0.49,1.68-0.64,2.29-1.35,4.56-1.35,4.56l-0.07,0s0.39-2.35.84-4.69c0.1-.59.2-1.17,0.31-1.72A14.6,14.6,0,0,1,83,51c0.16-.42.29-0.77,0.41-1s0.19-.38.19-0.38Z"/><path d="M87.27,49.25s0,0.19-.06.52-0.13.79-.24,1.34-0.28,1.18-.48,1.85S86,54.32,85.74,55c-1,2.82-2,5.61-2,5.61l-0.07,0s0.73-2.9,1.53-5.77c0.19-.72.37-1.45,0.57-2.12s0.44-1.28.66-1.8S86.8,50,87,49.69s0.24-.46.24-0.46Z"/><path d="M88.88,49.24a1.68,1.68,0,0,1,.09.21,3.73,3.73,0,0,1,.26,1.32c0,0.28-.06.59-0.09,0.89-0.1,1.21-.26,2.42-0.26,2.42H88.81s-0.17-1.21-.26-2.42c0-.3-0.08-0.6-0.09-0.89a3.73,3.73,0,0,1,.26-1.32,1.68,1.68,0,0,1,.09-0.21h0.07Z"/><path d="M256.43,113.86s2.39-.06,6-0.07c1.79,0,3.89,0,6.13,0l7,0.12,7,0.22c2.24,0.07,4.33.19,6.13,0.26,3.59,0.18,6,.35,6,0.35s-2.39.06-6,.07c-1.79,0-3.89,0-6.13,0l-7-.12-7-.22c-2.24-.07-4.33-0.19-6.13-0.26C258.82,114,256.43,113.86,256.43,113.86Z"/><path d="M249.51,115.47s3,0,7.56.18c2.27,0.09,4.91.15,7.75,0.28l8.88,0.41,8.87,0.51c2.83,0.16,5.47.37,7.74,0.51,4.53,0.32,7.54.6,7.54,0.6s-3,0-7.56-.18c-2.27-.09-4.91-0.15-7.75-0.28l-8.88-.41-8.87-.51c-2.83-.16-5.47-0.37-7.74-0.51C252.52,115.74,249.51,115.47,249.51,115.47Z"/><path d="M244.16,116.71s3.53,0.16,8.82.5l9,0.61,10.35,0.78,10.34,0.88,9,0.84c5.27,0.52,8.79.92,8.79,0.92s-3.53-.16-8.82-0.5l-9-.61-10.35-.78L262,118.47l-9-.84C247.67,117.12,244.16,116.71,244.16,116.71Z"/><path d="M234.4,118.66s3.78,0.18,9.44.54l9.66,0.65,11.07,0.83,11.06,0.93,9.65,0.88c5.64,0.54,9.4,1,9.4,1s-3.78-.18-9.44-0.54l-9.66-.65-11.07-.83-11.06-.93-9.65-.88C238.16,119.08,234.4,118.66,234.4,118.66Z"/><path d="M227.68,120.38l3,0.19,7.84,0.53,11.08,0.84,12.7,1L275,124.14,286,125.21c3.24,0.31,5.93.63,7.82,0.82l3,0.32-3-.19c-1.89-.13-4.6-0.28-7.84-0.53l-11.08-.84-12.7-1-12.69-1.14-11.06-1.07-7.82-.82Z"/><path d="M220.76,122.16l12.49,1.24L246,124.76l14.65,1.65,14.64,1.75,12.76,1.6,12.44,1.66L288,130.18l-12.79-1.37-14.65-1.65L246,125.41l-12.76-1.6Z"/><path d="M215.57,123.37l3.66,0.33,9.64,1c4,0.43,8.64.88,13.62,1.45l15.6,1.77,15.58,1.9c5,0.6,9.61,1.25,13.58,1.76l9.6,1.32,3.64,0.53-3.66-.33-9.64-1c-4-.43-8.64-0.88-13.62-1.45L258,128.87,242.39,127c-5-.61-9.61-1.25-13.58-1.76l-9.6-1.32Z"/><path d="M217.88,126.79l3.23,0.27c2.05,0.19,5,.42,8.51.77s7.63,0.72,12,1.2l13.76,1.48,13.75,1.61c4.39,0.51,8.48,1.07,12,1.5s6.42,0.87,8.47,1.14l3.21,0.46-3.23-.27c-2.05-.19-5-0.42-8.51-0.77s-7.63-.72-12-1.2l-13.76-1.48-13.75-1.62c-4.39-.51-8.48-1.07-12-1.5s-6.42-.87-8.47-1.14Z"/><path d="M221.92,129.54l2.62,0.25c1.66,0.18,4,.4,6.9.74s6.18,0.69,9.74,1.15l11.15,1.43,11.13,1.56c3.55,0.49,6.86,1,9.7,1.45s5.19,0.84,6.85,1.1l2.59,0.45-2.62-.25c-1.66-.18-4-0.4-6.9-0.74s-6.18-.69-9.74-1.15l-11.15-1.43-11.13-1.56c-3.55-.5-6.86-1-9.7-1.45s-5.19-.84-6.85-1.1Z"/><path d="M282.58,21.62s1-.24,2.61-0.51c0.79-.12,1.7-0.29,2.69-0.43s2-.27,3.1-0.4S293.1,20,294.09,20s1.92-.13,2.72-0.19c1.59-.09,2.66-0.09,2.66-0.09s-1,.24-2.61.51c-0.79.12-1.7,0.29-2.69,0.43s-2,.27-3.1.4-2.11.23-3.11,0.31-1.92.13-2.72,0.19C283.65,21.61,282.58,21.62,282.58,21.62Z"/><path d="M34.9,32.39s1.11-.76,2.85-1.77c0.87-.5,1.89-1.08,3-1.66l3.53-1.73c4.79-2.38,9.62-4.69,9.62-4.69l0,0.07s-4.67,2.61-9.37,5.16L41.1,29.66c-1.11.58-2.18,1.07-3.08,1.5-1.83.83-3.09,1.31-3.09,1.31Z"/><path d="M39.57,33.21s1.31-.87,3.33-2c1-.58,2.2-1.26,3.49-1.95l4.09-2.06c5.56-2.82,11.16-5.58,11.16-5.58l0,0.07s-5.44,3.05-10.91,6l-4,2.22c-1.29.68-2.52,1.27-3.58,1.78-2.12,1-3.57,1.59-3.57,1.59Z"/><path d="M44.39,34.06s1.37-1,3.49-2.27c1.07-.65,2.31-1.41,3.66-2.17l4.3-2.32L67.55,21l0,0.07L56.14,27.82,51.93,30.3c-1.36.77-2.65,1.43-3.75,2-2.22,1.14-3.75,1.82-3.75,1.82Z"/><path d="M51.84,35.38s1.13-.93,2.89-2.22c0.89-.63,1.92-1.38,3.06-2.13l3.62-2.28c4.91-3.13,9.86-6.2,9.86-6.2l0,0.06S66.54,26,61.74,29.24l-3.52,2.43c-1.14.75-2.23,1.41-3.16,2-1.88,1.12-3.18,1.79-3.18,1.79Z"/><path d="M93.14,41.37s-1.53-.47-3.77-1.3c-1.12-.43-2.42-0.92-3.79-1.49l-4.27-1.89c-5.83-2.55-11.63-5.17-11.63-5.17l0-.07s5.93,2.31,11.83,4.69l4.34,1.73c1.37,0.58,2.64,1.17,3.72,1.66,2.16,1,3.57,1.78,3.57,1.78Z"/><path d="M94.36,40s-1.39-.45-3.42-1.24c-1-.41-2.19-0.88-3.44-1.43l-3.86-1.82c-5.27-2.46-10.5-5-10.5-5l0-.07S78.54,32.7,83.89,35l3.93,1.66c1.24,0.56,2.38,1.12,3.36,1.6,1.95,1,3.21,1.72,3.21,1.72Z"/><path d="M96.74,39.19s-1.55-.59-3.8-1.6c-1.12-.51-2.44-1.11-3.82-1.79l-4.29-2.23-11.69-6.1,0-.07L85.09,33l4.37,2.07c1.38,0.69,2.65,1.38,3.74,2,2.17,1.19,3.57,2.07,3.57,2.07Z"/><path d="M100.31,37.95s-1.54-.66-3.79-1.78c-1.12-.57-2.43-1.22-3.8-2l-4.26-2.44L76.84,25.11l0-.07,11.86,6.19,4.35,2.28c1.37,0.75,2.63,1.5,3.71,2.14,2.15,1.29,3.54,2.23,3.54,2.23Z"/><path d="M104.66,36.43s-1.68-.64-4.13-1.73c-1.22-.55-2.65-1.19-4.16-1.93L91.7,30.38,79,23.86l0-.07,13,6.05,4.76,2.23c1.51,0.74,2.89,1.47,4.07,2.1,2.36,1.27,3.9,2.2,3.9,2.2Z"/><path d="M109.69,34.13s-1.83-.63-4.51-1.71c-1.34-.55-2.9-1.18-4.56-1.91l-5.14-2.37-14-6.48,0-.07,14.21,6,5.22,2.21c1.65,0.73,3.17,1.46,4.48,2.08,2.6,1.26,4.3,2.19,4.3,2.19Z"/><path d="M26.5,67.85s-1.33.07-3.31,0c-1,0-2.15-.06-3.39-0.15l-3.87-.36c-5.27-.47-10.53-1-10.53-1V66.29s5.29,0.21,10.57.48L19.85,67c1.24,0.09,2.39.22,3.37,0.33,2,0.24,3.28.49,3.28,0.49v0.07Z"/><path d="M31.9,66.08s-1.6,0-4-.23c-1.19-.11-2.58-0.22-4.06-0.41l-4.62-.66C12.94,63.91,6.65,63,6.65,63V62.89s6.33,0.61,12.66,1.3L24,64.67c1.48,0.18,2.85.41,4,.59,2.35,0.39,3.91.74,3.91,0.74v0.07Z"/><path d="M39.58,64.52s-2.16-.19-5.38-0.62c-1.61-.22-3.49-0.48-5.49-0.8L22.45,62l-17-3.05V58.87L22.54,61.4l6.29,0.94c2,0.33,3.86.68,5.46,1,3.19,0.62,5.3,1.13,5.3,1.13v0.07Z"/><path d="M44.4,63s-2.39-.24-5.94-0.74c-1.78-.26-3.85-0.55-6.06-0.93L25.48,60,6.65,56.61V56.54l18.92,2.92,6.95,1.08c2.21,0.37,4.27.77,6,1.11,3.52,0.69,5.86,1.25,5.86,1.25V63Z"/><path d="M43.48,59.79s-2.12-.19-5.29-0.6c-1.58-.22-3.43-0.46-5.39-0.78l-6.15-1.09-16.75-3V54.24l16.83,2.48,6.18,0.92c2,0.32,3.8.67,5.36,1,3.13,0.61,5.2,1.11,5.2,1.11v0.07Z"/><path d="M21.58,53.77s-1-.06-2.58-0.28c-0.77-.12-1.66-0.26-2.61-0.46s-1.95-.47-3-0.72c-4-1-8-2-8-2l0-.07s4.08,0.7,8.15,1.47c1,0.18,2,.36,3,0.55s1.82,0.44,2.57.64c1.5,0.42,2.47.79,2.47,0.79Z"/><path d="M90,128s-1.72.76-4.34,1.77c-1.32.49-2.85,1.08-4.51,1.65l-5.23,1.71-14.25,4.63,0-.07,14.08-5.13,5.17-1.88c1.66-.57,3.23-1.06,4.57-1.48,2.69-.82,4.51-1.28,4.51-1.28Z"/><path d="M95.5,128.06s-1.69.83-4.27,2c-1.29.55-2.8,1.2-4.44,1.84l-5.16,1.93L67.58,139l0-.07,13.87-5.73,5.09-2.1c1.64-.64,3.18-1.19,4.51-1.67,2.65-.93,4.46-1.47,4.46-1.47Z"/><path d="M102.34,128s-2.36,1.14-5.94,2.72c-1.8.78-3.89,1.69-6.16,2.62l-7.13,2.83-19.43,7.68,0-.07,19.23-8.17,7.06-3c2.27-.93,4.4-1.75,6.23-2.45,3.66-1.4,6.14-2.24,6.14-2.24Z"/><path d="M106.17,128.06s-2.11,1.25-5.33,3c-1.62.87-3.5,1.88-5.54,2.92l-6.44,3.18L71.3,145.8l0-.07,17.31-9.1,6.36-3.34c2-1,4-2,5.63-2.76,3.31-1.58,5.57-2.54,5.57-2.54Z"/><path d="M110.67,128.41s-1.06.8-2.71,1.88c-0.83.53-1.8,1.16-2.86,1.78l-3.38,1.87c-4.59,2.57-9.22,5.08-9.22,5.08l0-.06s4.46-2.8,9-5.54l3.29-2c1.06-.62,2.08-1.16,3-1.62,1.75-.91,3-1.44,3-1.44Z"/><path d="M115.84,128.06s-1.7,1.12-4.33,2.69c-1.32.77-2.85,1.68-4.52,2.6l-5.28,2.81-14.38,7.65,0-.07,14.12-8.11,5.19-3c1.67-.92,3.25-1.74,4.61-2.44,2.72-1.39,4.58-2.23,4.58-2.23Z"/><path d="M118.51,128s-0.72.69-1.88,1.62c-0.59.45-1.27,1-2,1.51s-1.61,1-2.44,1.57c-3.31,2.16-6.65,4.27-6.65,4.27l0-.06s3.16-2.38,6.35-4.7c0.79-.59,1.58-1.19,2.34-1.72s1.5-1,2.13-1.36c1.28-.76,2.18-1.19,2.18-1.19Z"/><path d="M120.83,128.4s-1.1,1.09-2.84,2.61c-0.88.75-1.9,1.64-3,2.54l-3.59,2.76c-4.87,3.77-9.78,7.49-9.78,7.49l0-.06s4.7-4,9.45-7.9l3.47-2.9c1.13-.9,2.21-1.7,3.14-2.39,1.87-1.36,3.17-2.2,3.17-2.2Z"/><path d="M221.92,29s0.87-.12,2.17-0.21,3-.16,4.77-0.16,3.47,0.06,4.77.16S235.8,29,235.8,29s-0.87.12-2.17,0.22-3,.16-4.77.16-3.47-.07-4.77-0.16S221.92,29,221.92,29Z"/><path d="M215.62,31.5s2.07-.12,5.17-0.21c1.55,0,3.36-.1,5.3-0.11l6.08,0,6.08,0c1.94,0,3.75.08,5.3,0.11,3.1,0.09,5.17.21,5.17,0.21s-2.07.12-5.17,0.21c-1.55,0-3.36.1-5.3,0.11l-6.08,0-6.08,0c-1.94,0-3.75-.08-5.3-0.11C217.69,31.62,215.62,31.5,215.62,31.5Z"/><path d="M227.25,35.26s2-.12,5-0.21c1.49,0,3.22-.1,5.08-0.11l5.83,0,5.83,0c1.86,0,3.6.08,5.08,0.11,3,0.09,5,.21,5,0.21s-2,.12-5,0.21c-1.49,0-3.22.1-5.08,0.11l-5.83,0-5.83,0c-1.86,0-3.6-.08-5.08-0.11C229.23,35.37,227.25,35.26,227.25,35.26Z"/><path d="M235.8,38.18s1.81-.12,4.52-0.21c1.36,0,2.94-.1,4.63-0.11l5.31,0,5.31,0c1.69,0,3.28.08,4.63,0.11,2.71,0.09,4.52.21,4.52,0.21s-1.81.12-4.52,0.21c-1.36,0-2.94.1-4.63,0.11l-5.31,0-5.31,0c-1.69,0-3.28-.08-4.63-0.11C237.61,38.3,235.8,38.18,235.8,38.18Z"/><path d="M255.17,44.51s-2.31-.86-5.75-2.23c-1.71-.7-3.72-1.48-5.85-2.38l-6.67-2.8-6.63-2.89c-2.12-.92-4.07-1.83-5.76-2.59-3.36-1.54-5.58-2.62-5.58-2.62s2.31,0.86,5.75,2.23c1.71,0.7,3.72,1.48,5.85,2.38l6.67,2.8,6.63,2.89c2.12,0.92,4.07,1.83,5.76,2.59C253,43.43,255.17,44.51,255.17,44.51Z"/><path d="M258,43.84s-2.06-1-5.12-2.5c-1.52-.78-3.31-1.65-5.2-2.65l-5.92-3.11-5.88-3.19c-1.88-1-3.6-2-5.09-2.85-3-1.69-4.92-2.87-4.92-2.87s2.06,1,5.12,2.49c1.52,0.78,3.31,1.65,5.2,2.65l5.92,3.11L248,38.12c1.88,1,3.6,2,5.09,2.85C256.08,42.66,258,43.84,258,43.84Z"/><path d="M262.07,41.33s-1.69-.66-4.19-1.74c-1.24-.55-2.71-1.16-4.26-1.87l-4.84-2.22L244,33.19c-1.53-.73-2.94-1.47-4.16-2.08-2.42-1.24-4-2.12-4-2.12s1.69,0.66,4.2,1.74c1.24,0.55,2.71,1.16,4.26,1.87l4.84,2.22,4.8,2.31c1.53,0.74,2.94,1.47,4.16,2.08C260.48,40.45,262.07,41.33,262.07,41.33Z"/><path d="M237,26.68s2.25,0.93,5.57,2.39c1.66,0.75,3.61,1.59,5.67,2.55l6.47,3,6.42,3.08c2.05,1,3.94,1.95,5.57,2.75,3.25,1.63,5.4,2.78,5.4,2.78s-2.25-.92-5.58-2.39c-1.66-.75-3.61-1.59-5.67-2.55l-6.47-3L248,32.2c-2.05-1-3.94-1.95-5.57-2.75C239.19,27.82,237,26.68,237,26.68Z"/><path d="M258,33.34s1.48,0.51,3.67,1.35c1.09,0.43,2.37.92,3.72,1.47s2.79,1.16,4.23,1.77,2.86,1.25,4.2,1.85,2.57,1.2,3.63,1.69c2.12,1,3.5,1.74,3.5,1.74s-1.48-.51-3.67-1.35c-1.09-.43-2.37-0.91-3.72-1.47s-2.79-1.16-4.23-1.77-2.86-1.25-4.2-1.85-2.57-1.2-3.63-1.69C259.42,34.07,258,33.34,258,33.34Z"/><path d="M115.82,107.93s0.15-.91.46-2.25,0.78-3.11,1.31-4.86,1.12-3.48,1.61-4.77,0.87-2.13.87-2.13-0.15.91-.46,2.25-0.78,3.11-1.31,4.86-1.13,3.48-1.61,4.77S115.82,107.93,115.82,107.93Z"/><path d="M117.95,109.93s0.15-.75.46-1.84,0.77-2.53,1.3-4,1.11-2.81,1.6-3.84,0.86-1.7.86-1.7-0.15.75-.46,1.85-0.77,2.53-1.3,3.95-1.11,2.81-1.6,3.84S117.95,109.93,117.95,109.93Z"/><path d="M120.8,109.93s0.25-.92.7-2.28c0.24-.67.5-1.46,0.81-2.3s0.66-1.72,1-2.6,0.73-1.75,1.1-2.56,0.73-1.56,1-2.21c0.62-1.28,1.09-2.12,1.09-2.12s-0.25.92-.7,2.28c-0.24.67-.49,1.46-0.81,2.3s-0.66,1.72-1,2.6-0.73,1.75-1.1,2.56-0.73,1.56-1,2.21C121.27,109.1,120.8,109.93,120.8,109.93Z"/><path d="M116.25,58.48l0.31,0.15c0.2,0.1.45,0.26,0.76,0.46a9.66,9.66,0,0,1,1,.76c0.33,0.31.66,0.67,1,1,1.37,1.36,2.7,2.77,2.7,2.77l0,0.06s-1.55-1.16-3.05-2.38c-0.38-.3-0.77-0.59-1.12-0.88a9.66,9.66,0,0,1-.86-0.89c-0.23-.29-0.42-0.52-0.54-0.71s-0.18-.29-0.18-0.29Z"/><path d="M117.95,55.6s0.55,0.29,1.34.78,1.78,1.21,2.75,2,1.89,1.57,2.55,2.22,1.07,1.12,1.07,1.12-0.55-.29-1.34-0.78-1.78-1.21-2.75-2-1.89-1.57-2.55-2.22S117.95,55.6,117.95,55.6Z"/><path d="M119.1,54.07s0.81,0.44,2,1.17,2.68,1.75,4.17,2.82,2.92,2.2,4,3.08,1.72,1.52,1.72,1.52-0.81-.44-2-1.17-2.68-1.75-4.16-2.82-2.92-2.2-4-3.08S119.1,54.07,119.1,54.07Z"/><path d="M121.4,50.28s0.78,0.59,1.88,1.54c0.54,0.48,1.19,1,1.86,1.64s1.37,1.28,2.07,2,1.38,1.36,2,2,1.2,1.29,1.69,1.82c1,1.08,1.58,1.84,1.58,1.84s-0.78-.59-1.88-1.54c-0.54-.48-1.19-1-1.86-1.64s-1.37-1.28-2.07-2-1.38-1.36-2-2-1.2-1.29-1.69-1.82C122,51,121.4,50.28,121.4,50.28Z"/><path d="M124.74,49.24s0.69,0.59,1.67,1.53,2.23,2.23,3.44,3.57,2.37,2.72,3.2,3.78,1.35,1.82,1.35,1.82-0.69-.59-1.67-1.53-2.23-2.23-3.44-3.57-2.37-2.72-3.2-3.78S124.74,49.24,124.74,49.24Z"/><path d="M129.6,50.26s0.15,0.12.4,0.36,0.59,0.57,1,1,0.83,0.93,1.29,1.49,0.87,1.2,1.32,1.83c1.82,2.47,3.59,5,3.59,5l-0.06,0s-2-2.31-4-4.66c-0.5-.58-1-1.16-1.46-1.72s-0.83-1.12-1.14-1.6-0.57-.9-0.73-1.2-0.25-.47-0.25-0.47Z"/><path d="M151.15,93.93s0.38,1.25.87,3.14c0.23,0.95.53,2.05,0.8,3.24s0.55,2.46.82,3.73,0.52,2.55.74,3.75,0.4,2.33.56,3.29c0.31,1.93.46,3.23,0.46,3.23s-0.38-1.25-.87-3.14c-0.23-.95-0.53-2.05-0.8-3.24s-0.55-2.46-.82-3.73-0.52-2.55-.74-3.75-0.4-2.33-.56-3.29C151.3,95.23,151.15,93.93,151.15,93.93Z"/><path d="M156.19,92.23s0.53,1.42,1.23,3.57c0.34,1.08.76,2.33,1.17,3.69s0.83,2.8,1.25,4.26,0.81,2.91,1.17,4.28,0.66,2.66.94,3.76c0.53,2.2.83,3.69,0.83,3.69s-0.53-1.42-1.23-3.57c-0.34-1.08-.76-2.33-1.17-3.69s-0.83-2.8-1.25-4.26S158.31,101,158,99.67,157.3,97,157,95.91C156.49,93.71,156.19,92.23,156.19,92.23Z"/><path d="M160.06,91.18s0.79,1.6,1.9,4c0.54,1.22,1.2,2.64,1.86,4.17l2.06,4.82,2,4.85c0.63,1.55,1.16,3,1.65,4.26,0.94,2.5,1.51,4.2,1.51,4.2s-0.8-1.6-1.9-4c-0.54-1.22-1.21-2.64-1.86-4.17l-2.05-4.82-2-4.85c-0.63-1.55-1.16-3-1.65-4.26C160.63,92.87,160.06,91.18,160.06,91.18Z"/><path d="M164.53,90.73s1.06,1.7,2.56,4.29c0.74,1.3,1.63,2.8,2.54,4.44l2.83,5.13,2.75,5.18c0.88,1.65,1.65,3.22,2.33,4.55,1.35,2.68,2.19,4.49,2.19,4.49s-1.06-1.7-2.56-4.29c-0.74-1.3-1.63-2.8-2.54-4.44l-2.83-5.13-2.75-5.18c-0.88-1.65-1.65-3.22-2.33-4.55C165.37,92.54,164.53,90.73,164.53,90.73Z"/><path d="M146.51,94.84s0.11,1.19.19,3c0,0.89.08,1.93,0.09,3s0,2.3,0,3.49,0,2.38-.07,3.49-0.1,2.15-.14,3c-0.11,1.78-.24,3-0.24,3s-0.11-1.19-.19-3c0-.89-0.08-1.93-0.09-3s0-2.3,0-3.49,0-2.38.07-3.49,0.1-2.15.14-3C146.38,96,146.51,94.84,146.51,94.84Z"/><path d="M25,2.46a1,1,0,0,1,0-.17,2,2,0,0,1,.14-0.38,1.8,1.8,0,0,1,.3-0.44c0.14-.13.32-0.24,0.49-0.36,0.64-.51,1.33-1,1.33-1l0.05,0.05s-0.46.7-1,1.35C26.23,1.7,26.11,1.88,26,2a1.8,1.8,0,0,1-.43.31,2,2,0,0,1-.38.15L25,2.51Z"/><path d="M27.25,3.28a1.31,1.31,0,0,1,0-.2,2.83,2.83,0,0,1,.11-0.47A2.69,2.69,0,0,1,27.65,2c0.14-.19.31-0.38,0.48-0.57,0.63-.79,1.32-1.54,1.32-1.54l0.06,0s-0.41.93-.88,1.83c-0.11.23-.21,0.46-0.33,0.67a2.69,2.69,0,0,1-.43.49,2.83,2.83,0,0,1-.39.29l-0.17.09Z"/><path d="M31.13,4a2,2,0,0,1,.09-0.23,4.69,4.69,0,0,1,.3-0.56,4.79,4.79,0,0,1,.54-0.69c0.23-.22.5-0.43,0.76-0.65,1-.91,2.07-1.76,2.07-1.76l0.05,0.05s-0.82,1.09-1.69,2.13c-0.21.27-.41,0.54-0.63,0.78a4.79,4.79,0,0,1-.67.56,4.69,4.69,0,0,1-.55.32l-0.23.1Z"/><path d="M35,5a2.49,2.49,0,0,1,.09-0.27,6,6,0,0,1,.31-0.66A6.32,6.32,0,0,1,36,3.25c0.24-.28.51-0.55,0.78-0.84,1-1.16,2.14-2.27,2.14-2.27l0.06,0S38.1,1.51,37.2,2.78c-0.22.33-.42,0.66-0.64,1a6.32,6.32,0,0,1-.69.72,6,6,0,0,1-.57.45l-0.24.15Z"/><path d="M38.87,6a2.91,2.91,0,0,1,.07-0.3,7.16,7.16,0,0,1,.25-0.75,7.57,7.57,0,0,1,.48-1c0.22-.34.47-0.68,0.72-1,1-1.41,2-2.79,2-2.79l0.06,0S41.7,1.73,40.91,3.24c-0.19.38-.37,0.77-0.56,1.12a7.57,7.57,0,0,1-.64.89,7.16,7.16,0,0,1-.54.58,2.91,2.91,0,0,1-.23.2Z"/><path d="M43,6a3,3,0,0,1,.08-0.3,7.42,7.42,0,0,1,.28-0.75,7.86,7.86,0,0,1,.52-1c0.23-.34.5-0.68,0.76-1,1-1.41,2.1-2.79,2.1-2.79l0.06,0S46,1.73,45.16,3.25C45,3.64,44.75,4,44.55,4.38a7.86,7.86,0,0,1-.68.89,7.42,7.42,0,0,1-.57.57,3,3,0,0,1-.24.2Z"/><path d="M49.73,3.13s-1.68,0-4.18-.25c-1.25-.11-2.71-0.24-4.27-0.43l-4.87-.69L23.15-.14V-0.22L36.48,1.16l4.89,0.51c1.56,0.19,3,.42,4.25.62,2.48,0.41,4.12.77,4.12,0.77V3.13Z"/><path d="M281,24.63s1.17-.31,2.94-0.68c0.89-.17,1.92-0.4,3-0.6s2.3-.4,3.48-0.6,2.38-.36,3.5-0.51S296.1,22,297,21.88c1.8-.19,3-0.26,3-0.26s-1.17.31-2.94,0.68c-0.89.17-1.92,0.4-3,.6s-2.3.4-3.48,0.6-2.38.36-3.5,0.51-2.17.26-3.06,0.36C282.2,24.56,281,24.63,281,24.63Z"/><path d="M281,27.63s1.17-.31,2.94-0.68c0.89-.17,1.92-0.4,3-0.6s2.3-.4,3.48-0.6,2.38-.36,3.5-0.51S296.1,25,297,24.89c1.8-.19,3-0.26,3-0.26s-1.17.31-2.94,0.68c-0.89.17-1.92,0.4-3,.6s-2.3.4-3.48,0.59-2.38.36-3.5,0.51-2.17.25-3.06,0.36C282.2,27.56,281,27.63,281,27.63Z"/><path d="M281.63,29s1.16-.3,2.92-0.66c0.88-.17,1.9-0.39,3-0.58s2.28-.38,3.46-0.57,2.36-.35,3.47-0.48,2.15-.24,3-0.34c1.78-.18,3-0.24,3-0.24s-1.16.3-2.92,0.66c-0.88.17-1.9,0.39-3,.58s-2.28.38-3.46,0.57-2.36.34-3.47,0.48-2.15.24-3,.34C282.82,28.93,281.63,29,281.63,29Z"/><path d="M228.86,4.17s-0.4.77-1.05,1.89-1.59,2.57-2.57,4-2,2.8-2.83,3.8S221,15.5,221,15.5s0.4-.77,1.05-1.89,1.59-2.57,2.57-4,2-2.8,2.83-3.8S228.86,4.17,228.86,4.17Z"/><path d="M233.88,6s-0.37.73-1,1.78-1.48,2.41-2.4,3.74-1.9,2.62-2.67,3.56-1.33,1.54-1.33,1.54,0.37-.73,1-1.78,1.48-2.41,2.4-3.74,1.9-2.62,2.67-3.56S233.88,6,233.88,6Z"/><path d="M235.8,7s-0.25.66-.69,1.61S234,10.79,233.32,12s-1.46,2.37-2.07,3.22-1.06,1.39-1.06,1.39,0.25-.66.69-1.61,1.09-2.18,1.79-3.39,1.46-2.37,2.07-3.22S235.8,7,235.8,7Z"/><path d="M222.6,6s1.48,0.48,3.66,1.29c1.09,0.41,2.36.88,3.71,1.41s2.79,1.12,4.22,1.7,2.86,1.2,4.19,1.79,2.56,1.16,3.62,1.63c2.11,1,3.5,1.68,3.5,1.68S244,15,241.84,14.21c-1.09-.41-2.36-0.88-3.71-1.41s-2.79-1.12-4.22-1.7S231,9.9,229.72,9.31s-2.56-1.16-3.62-1.63C224,6.7,222.6,6,222.6,6Z"/><path d="M221,8.13s1.26,0.45,3.12,1.21c0.92,0.39,2,.82,3.15,1.33s2.36,1,3.58,1.6,2.42,1.13,3.54,1.68,2.16,1.09,3.05,1.54c1.78,0.92,2.94,1.59,2.94,1.59s-1.26-.45-3.12-1.21c-0.92-.39-2-0.82-3.15-1.33s-2.36-1.05-3.58-1.6-2.42-1.13-3.54-1.68-2.16-1.09-3.05-1.54C222.16,8.79,221,8.13,221,8.13Z"/></svg>