<svg id="Slip_lines_grains_elongated" data-name="Slip lines (grains elongated" xmlns="http://www.w3.org/2000/svg" viewBox="0 0 300 100"><title>M_SlipLinesGrainElongated</title><path d="M108.25,14.23L121,14,134,13.79l15-.12,15,0L177,13.71l12.74,0.15L177,14.13,164,14.31l-15,.12-15,0L121,14.38Z"/><path d="M102.88,16.45l15.06-.07,15.43,0,17.69,0.12,17.69,0.22L184.18,17l15.05,0.36-15.06.07-15.43,0-17.69-.12-17.69-.22-15.43-.26Z"/><path d="M97.57,19.62l17.9,0.15L133.82,20l21,0.37,21,0.47,18.34,0.48,17.89,0.57-17.9-.15-18.35-.25-21-.37-21-.47-18.34-.48Z"/><path d="M112.59,22.87L127,23l14.76,0.29,16.92,0.41,16.92,0.51,14.75,0.51,14.39,0.6-14.4-.18-14.76-.29-16.92-.41L141.73,24,127,23.47Z"/><path d="M123.28,25.37s0.78-.12,1.94-0.21,2.72-.16,4.27-0.16,3.1,0.06,4.27.16,1.94,0.22,1.94.22-0.78.12-1.94,0.22-2.72.16-4.27,0.16-3.1-.07-4.27-0.16S123.28,25.37,123.28,25.37Z"/><path d="M129.49,50.32s2.28-.39,5.72-0.88c1.72-.23,3.72-0.53,5.87-0.8l6.74-.83,6.75-.73c2.16-.24,4.17-0.4,5.9-0.57,3.46-.31,5.77-0.46,5.77-0.46s-2.28.39-5.72,0.88c-1.72.23-3.72,0.53-5.87,0.8l-6.74.83-6.76.73c-2.16.24-4.17,0.4-5.9,0.57C131.8,50.17,129.49,50.32,129.49,50.32Z"/><path d="M138.37,52.09s1.3-.31,3.25-0.68c1-.18,2.12-0.4,3.35-0.61s2.54-.41,3.85-0.6,2.63-.37,3.86-0.52,2.39-.26,3.38-0.37c2-.2,3.31-0.27,3.31-0.27s-1.3.31-3.25,0.68c-1,.18-2.12.41-3.35,0.61s-2.54.41-3.85,0.6-2.63.37-3.86,0.51-2.39.26-3.38,0.37C139.7,52,138.37,52.09,138.37,52.09Z"/><path d="M146.34,54s1.4-.33,3.52-0.75c1.06-.19,2.29-0.44,3.62-0.67s2.74-.45,4.16-0.68,2.84-.42,4.17-0.59,2.58-.31,3.65-0.43c2.14-.23,3.58-0.33,3.58-0.33s-1.4.34-3.52,0.75c-1.06.19-2.29,0.45-3.62,0.67s-2.74.45-4.16,0.68-2.84.42-4.17,0.59-2.58.31-3.65,0.43C147.77,53.93,146.34,54,146.34,54Z"/><path d="M154.89,56.06l0.54-.18c0.34-.12.83-0.24,1.42-0.4s1.29-.29,2-0.42,1.56-.19,2.37-0.29c3.22-.42,6.45-0.78,6.45-0.78v0.07s-3.18.68-6.36,1.3c-0.8.16-1.59,0.34-2.34,0.47s-1.46.2-2.07,0.24-1.12.07-1.48,0.07H154.9V56.06Z"/><path d="M161.3,57s1.21-.35,3-0.73c0.92-.18,2-0.4,3.15-0.58l3.64-.47C176.07,54.58,181,54,181,54v0.07s-4.91.92-9.83,1.78l-3.61.65c-1.16.18-2.24,0.29-3.17,0.39-1.87.18-3.12,0.22-3.12,0.22V57Z"/><path d="M167.71,59.16L168,59a7.26,7.26,0,0,1,.75-0.26,7.68,7.68,0,0,1,1.08-.22c0.4,0,.83,0,1.26-0.06,1.72-.1,3.44-0.14,3.44-0.14v0.07s-1.69.36-3.38,0.66c-0.42.08-.84,0.18-1.24,0.24a7.68,7.68,0,0,1-1.1,0,7.26,7.26,0,0,1-.79-0.08l-0.3-.06V59.16Z"/><path d="M193.65,69.23s3.37,0.52,8.42,1.38l8.61,1.51,9.85,1.81,9.84,1.91c3.14,0.61,6.06,1.23,8.57,1.73,5,1,8.34,1.79,8.34,1.79s-3.37-.51-8.42-1.37c-2.52-.44-5.46-0.93-8.61-1.51l-9.85-1.81-9.84-1.91L202,71C197,70,193.65,69.23,193.65,69.23Z"/><path d="M189.77,72.4s4,0.47,10,1.26L210,75l11.75,1.67,11.73,1.77,10.22,1.61c6,1,10,1.67,10,1.67s-4-.47-10-1.25l-10.26-1.39-11.75-1.67L210,75.68l-10.22-1.61C193.75,73.1,189.77,72.4,189.77,72.4Z"/><path d="M186.3,75.22l11.95,1.33L210.49,78l14,1.76,14,1.86,12.2,1.69,11.89,1.75-11.95-1.33-12.23-1.47-14-1.76-14-1.86L198.2,77Z"/><path d="M183.73,77.5l13.35,1.66L210.75,81l15.66,2.14,15.65,2.24,13.64,2L269,89.44l-13.35-1.66L242,86,226.3,83.84,210.66,81.6l-13.64-2Z"/><path d="M181.23,79.36l3.12,0.37,8.23,1,11.62,1.5L217.53,84l13.3,1.9,11.59,1.73,8.19,1.29,3.11,0.5-3.12-.37-8.23-1-11.62-1.5-13.31-1.8-13.3-1.9-11.59-1.73-8.19-1.29Z"/><path d="M178.28,81.76s2.26,0.27,5.64.75c1.69,0.26,3.66.52,5.77,0.87l6.6,1.08,6.58,1.17c2.1,0.37,4.05.78,5.73,1.09,3.35,0.66,5.57,1.17,5.57,1.17s-2.26-.26-5.64-0.75c-1.69-.26-3.66-0.52-5.77-0.87l-6.6-1.08L189.58,84c-2.1-.37-4.05-0.78-5.73-1.09C180.5,82.27,178.28,81.76,178.28,81.76Z"/><path d="M175,84.4l3,0.51,8,1.36,11.25,2,12.88,2.38L223,93.14l11.21,2.23L242.16,97l3,0.63-3-.51-8-1.36-11.25-2L210,91.39l-12.86-2.48L186,86.68,178,85Z"/><path d="M273.37,47.39s1.68,1.15,4.14,2.94c1.22,0.91,2.67,1.94,4.18,3.09L286.43,57l4.68,3.69c1.5,1.18,2.86,2.32,4,3.28,2.35,1.94,3.88,3.27,3.88,3.27s-1.68-1.15-4.14-2.94c-1.22-.91-2.67-1.94-4.18-3.1L286,57.63l-4.68-3.69c-1.5-1.18-2.86-2.32-4-3.28C274.9,48.73,273.37,47.39,273.37,47.39Z"/><path d="M269,48.19s1.59,1,3.92,2.67c1.16,0.83,2.52,1.76,4,2.81L281.34,57l4.43,3.37c1.41,1.07,2.7,2.12,3.82,3,2.22,1.77,3.66,3,3.66,3s-1.59-1-3.92-2.67c-1.16-.83-2.53-1.76-4-2.81l-4.48-3.29-4.42-3.37c-1.41-1.07-2.7-2.12-3.82-3C270.43,49.42,269,48.19,269,48.19Z"/><path d="M262.6,47.78s1.55,1.11,3.82,2.83c1.13,0.88,2.46,1.87,3.85,3l4.36,3.48,4.3,3.56c1.38,1.13,2.62,2.24,3.71,3.16C284.8,65.67,286.2,67,286.2,67s-1.55-1.11-3.82-2.83c-1.13-.88-2.46-1.87-3.85-3l-4.36-3.48-4.3-3.56c-1.37-1.14-2.62-2.24-3.71-3.16C264,49.07,262.6,47.78,262.6,47.78Z"/><path d="M257.53,47.78s1.55,1.07,3.81,2.73c1.12,0.85,2.46,1.81,3.85,2.88l4.36,3.37,4.3,3.45c1.37,1.1,2.62,2.17,3.71,3.06,2.15,1.81,3.55,3.07,3.55,3.07s-1.55-1.06-3.82-2.73c-1.12-.85-2.46-1.8-3.85-2.88l-4.36-3.37-4.3-3.45c-1.37-1.1-2.62-2.17-3.71-3.06C258.93,49,257.53,47.78,257.53,47.78Z"/><path d="M258.37,52.09s0.84,0.45,2,1.21c0.6,0.39,1.31.82,2,1.32s1.52,1,2.29,1.58,1.53,1.11,2.24,1.66,1.35,1.07,1.91,1.51c1.1,0.9,1.8,1.55,1.8,1.55s-0.84-.45-2-1.21c-0.6-.39-1.31-0.82-2-1.32s-1.51-1-2.29-1.58-1.53-1.11-2.24-1.66-1.35-1.07-1.91-1.51C259.07,52.74,258.37,52.09,258.37,52.09Z"/><path d="M250.53,47.39s1.34,1,3.29,2.57c1,0.8,2.11,1.7,3.3,2.72l3.74,3.17,3.67,3.25c1.17,1,2.23,2,3.15,2.89,1.83,1.71,3,2.89,3,2.89s-1.34-1-3.29-2.57c-1-.8-2.11-1.7-3.3-2.72l-3.73-3.17-3.67-3.25c-1.17-1-2.23-2-3.15-2.89C251.72,48.58,250.53,47.39,250.53,47.39Z"/><path d="M39.54,91s3.62-.32,9.06-0.7l9.29-.62,10.65-.62,10.66-.52,9.3-.39c5.45-.2,9.08-0.28,9.08-0.28s-3.62.32-9.06,0.7l-9.29.61-10.65.62-10.66.52-9.3.39C43.17,90.95,39.54,91,39.54,91Z"/><path d="M38.13,93.31s4-.36,9.89-0.81l10.15-.73L69.81,91l11.64-.66,10.16-.5c5.95-.27,9.92-0.39,9.92-0.39s-4,.36-9.89.81L81.49,91l-11.64.76-11.64.66-10.16.5C42.1,93.19,38.13,93.31,38.13,93.31Z"/><path d="M37,95.13s3.79-.23,9.49-0.5l9.73-.41,11.16-.38,11.16-.29,9.74-.18c5.7-.08,9.5-0.07,9.5-0.07s-3.79.23-9.49,0.5l-9.73.41-11.16.38-11.16.28-9.74.18C40.81,95.14,37,95.13,37,95.13Z"/><path d="M33.46,97.65s3.86-.21,9.66-0.44l9.9-.35,11.35-.32,11.36-.22,9.91-.12c5.8,0,9.67,0,9.67,0s-3.86.21-9.66,0.44l-9.9.35-11.35.32L53,97.51l-9.91.12C37.33,97.68,33.46,97.65,33.46,97.65Z"/><path d="M33.46,100.13l12.36-.6L58.49,99,73,98.52l14.53-.41,12.68-.28,12.37-.18-12.36.6-12.67.51L73,99.27l-14.53.41L45.83,100Z"/><path d="M74.9,50.33s0,0.14,0,.38-0.11.58-.2,1A12.19,12.19,0,0,1,74.23,53c-0.2.47-.44,1-0.67,1.45-0.88,2-1.83,3.94-1.83,3.94l-0.07,0S72.3,56.31,73,54.25c0.17-.52.32-1,0.5-1.52a12.19,12.19,0,0,1,.59-1.26c0.2-.36.37-0.66,0.52-0.85s0.22-.31.22-0.31Z"/><path d="M77.56,50s0,0.2-.09.55-0.18.84-.32,1.42-0.35,1.25-.59,2-0.57,1.44-.86,2.18C74.54,59,73.32,62,73.32,62l-0.07,0s0.91-3.06,1.87-6.11c0.23-.76.46-1.53,0.69-2.24s0.51-1.35.77-1.9,0.47-1,.64-1.31,0.27-.49.27-0.49Z"/><path d="M80.07,50S79.9,51,79.51,52.6c-0.2.78-.44,1.69-0.74,2.65s-0.68,2-1,3c-1.38,4.07-2.83,8.12-2.83,8.12l-0.07,0S76,62.18,77.17,58c0.29-1,.57-2.07.86-3s0.64-1.84.92-2.6C79.52,50.91,80,49.93,80,49.93Z"/><path d="M82.26,50s0,0.15,0,.42,0,0.64-.08,1.09a14.61,14.61,0,0,1-.26,1.5c-0.14.54-.32,1.11-0.49,1.68-0.64,2.29-1.35,4.56-1.35,4.56l-0.07,0s0.39-2.35.84-4.69c0.1-.59.2-1.17,0.31-1.72a14.6,14.6,0,0,1,.44-1.46c0.16-.42.29-0.77,0.41-1s0.19-.38.19-0.38Z"/><path d="M85.82,49.54s0,0.19-.06.52-0.13.79-.24,1.34-0.28,1.18-.48,1.85-0.49,1.36-.74,2.06c-1,2.82-2,5.61-2,5.61l-0.07,0s0.73-2.9,1.53-5.77c0.19-.72.37-1.45,0.57-2.12s0.44-1.28.66-1.8,0.41-.95.56-1.24,0.24-.46.24-0.46Z"/><path d="M87.43,49.53a1.68,1.68,0,0,1,.09.21,3.73,3.73,0,0,1,.26,1.32c0,0.28-.06.59-0.09,0.89-0.1,1.21-.26,2.42-0.26,2.42H87.35s-0.17-1.21-.26-2.42c0-.3-0.08-0.6-0.09-0.89a3.73,3.73,0,0,1,.26-1.32,1.68,1.68,0,0,1,.09-0.21h0.07Z"/><path d="M287.42,18.63s0.69-.44,1.76-1,2.53-1.33,4-2,3-1.3,4.14-1.72,1.94-.65,1.94-0.65-0.69.44-1.76,1-2.53,1.33-4,2-3,1.3-4.14,1.72S287.42,18.63,287.42,18.63Z"/><path d="M286.58,21.46s0.77-.42,2-1,2.8-1.25,4.43-1.89,3.29-1.2,4.54-1.59,2.12-.59,2.12-0.59-0.77.42-2,1-2.8,1.25-4.43,1.88-3.29,1.2-4.54,1.59S286.58,21.46,286.58,21.46Z"/><path d="M285.34,25.61s0.94-.55,2.39-1.28c0.73-.36,1.57-0.8,2.49-1.23s1.9-.88,2.89-1.32,2-.86,2.92-1.24,1.83-.71,2.58-1c1.52-.57,2.56-0.9,2.56-0.9s-0.94.55-2.39,1.28c-0.73.36-1.57,0.8-2.49,1.23s-1.9.88-2.89,1.32-2,.86-2.92,1.24-1.83.71-2.58,1C286.37,25.29,285.34,25.61,285.34,25.61Z"/><path d="M279.53,26.39s1.22-.24,3.05-0.51c0.92-.12,2-0.29,3.14-0.43s2.38-.27,3.61-0.4,2.46-.23,3.62-0.31,2.24-.13,3.16-0.19c1.85-.09,3.1-0.09,3.1-0.09s-1.22.24-3.05,0.51c-0.92.12-2,.29-3.14,0.43s-2.38.27-3.61,0.4-2.46.23-3.62,0.31-2.24.13-3.16,0.19C280.78,26.39,279.53,26.39,279.53,26.39Z"/><path d="M33.44,32.68s1.11-.76,2.85-1.77c0.87-.5,1.89-1.08,3-1.66l3.53-1.73c4.79-2.38,9.62-4.69,9.62-4.69l0,0.07s-4.67,2.61-9.37,5.16l-3.44,1.89c-1.11.58-2.18,1.07-3.08,1.5-1.83.83-3.09,1.31-3.09,1.31Z"/><path d="M38.11,33.51s1.31-.87,3.33-2c1-.58,2.2-1.26,3.49-1.95L49,27.46c5.56-2.82,11.16-5.58,11.16-5.58l0,0.07S54.78,25,49.31,28l-4,2.22c-1.29.68-2.52,1.27-3.58,1.78-2.12,1-3.57,1.59-3.57,1.59Z"/><path d="M42.94,34.36s1.37-1,3.49-2.27c1.07-.65,2.31-1.41,3.66-2.17l4.3-2.32,11.71-6.31,0,0.07L54.68,28.11l-4.21,2.48c-1.36.77-2.65,1.43-3.75,2C44.5,33.74,43,34.42,43,34.42Z"/><path d="M50.39,35.67s1.13-.93,2.89-2.22c0.89-.63,1.92-1.38,3.06-2.13L60,29c4.91-3.13,9.86-6.2,9.86-6.2l0,0.06s-4.76,3.35-9.57,6.64L56.77,32c-1.14.75-2.23,1.41-3.16,2-1.88,1.12-3.18,1.79-3.18,1.79Z"/><path d="M91.69,41.66s-1.53-.47-3.77-1.3c-1.12-.43-2.42-0.92-3.79-1.49L79.85,37C74,34.41,68.22,31.8,68.22,31.8l0-.07S74.18,34,80.09,36.42l4.34,1.73c1.37,0.58,2.64,1.17,3.72,1.66,2.16,1,3.57,1.78,3.57,1.78Z"/><path d="M92.91,40.31s-1.39-.45-3.42-1.24c-1-.41-2.19-0.88-3.44-1.43l-3.86-1.82c-5.27-2.46-10.5-5-10.5-5l0-.07S77.09,33,82.43,35.27l3.93,1.66c1.24,0.56,2.38,1.12,3.36,1.6,1.95,1,3.21,1.72,3.21,1.72Z"/><path d="M95.29,39.48s-1.55-.59-3.8-1.6c-1.12-.51-2.44-1.11-3.82-1.79l-4.29-2.23-11.69-6.1,0-.07,11.92,5.63L88,35.39c1.38,0.69,2.65,1.38,3.74,2,2.17,1.19,3.57,2.07,3.57,2.07Z"/><path d="M98.85,38.24s-1.54-.66-3.79-1.78c-1.12-.57-2.43-1.22-3.8-2L87,32.05,75.39,25.4l0-.07,11.86,6.19,4.35,2.28c1.37,0.75,2.63,1.5,3.71,2.14,2.15,1.29,3.54,2.23,3.54,2.23Z"/><path d="M103.21,36.73s-1.68-.64-4.13-1.73c-1.22-.55-2.65-1.19-4.16-1.93l-4.68-2.39L77.51,24.15l0-.07,13,6.05,4.76,2.23c1.51,0.74,2.89,1.47,4.07,2.1,2.36,1.27,3.9,2.2,3.9,2.2Z"/><path d="M108.23,34.42s-1.83-.63-4.51-1.71c-1.34-.55-2.9-1.18-4.56-1.91L94,28.42,80,21.94l0-.07,14.21,6,5.22,2.21c1.65,0.73,3.17,1.46,4.48,2.08,2.6,1.26,4.3,2.19,4.3,2.19Z"/><path d="M25,68.14s-1.33.07-3.31,0c-1,0-2.15-.06-3.39-0.15l-3.87-.36c-5.27-.47-10.53-1-10.53-1V66.58s5.29,0.21,10.57.48l3.88,0.18c1.24,0.09,2.39.22,3.37,0.33,2,0.24,3.28.49,3.28,0.49v0.07Z"/><path d="M30.45,66.37s-1.6,0-4-.23c-1.19-.11-2.58-0.22-4.06-0.41l-4.62-.66C11.49,64.2,5.2,63.26,5.2,63.26V63.18s6.33,0.61,12.66,1.3L22.51,65c1.48,0.18,2.85.41,4,.59,2.35,0.39,3.91.74,3.91,0.74v0.07Z"/><path d="M38.13,64.81S36,64.62,32.74,64.2c-1.61-.22-3.49-0.48-5.49-0.8L21,62.28l-17-3.05V59.16l17.13,2.53,6.29,0.94c2,0.33,3.86.68,5.46,1,3.19,0.62,5.3,1.13,5.3,1.13v0.07Z"/><path d="M42.95,63.26S40.56,63,37,62.52c-1.78-.26-3.85-0.55-6.06-0.93L24,60.34,5.19,56.9V56.83l18.92,2.92,6.95,1.08c2.21,0.37,4.27.77,6,1.11C40.63,62.63,43,63.18,43,63.18v0.07Z"/><path d="M42,60.08s-2.12-.19-5.29-0.6c-1.58-.22-3.43-0.46-5.39-0.78L25.19,57.6l-16.75-3V54.53L25.29,57l6.18,0.92c2,0.32,3.8.67,5.36,1C40,59.51,42,60,42,60v0.07Z"/><path d="M20.13,54.06s-1-.06-2.58-0.28c-0.77-.12-1.66-0.26-2.61-0.46s-1.95-.47-3-0.72c-4-1-8-2-8-2l0-.07S8,51.24,12.11,52c1,0.18,2,.36,3,0.55s1.82,0.44,2.57.64c1.5,0.42,2.47.79,2.47,0.79Z"/><path d="M220.46,29.28s0.87-.12,2.17-0.21,3-.16,4.77-0.16,3.47,0.06,4.77.16,2.17,0.22,2.17.22-0.87.12-2.17,0.22-3,.16-4.77.16-3.47-.07-4.77-0.16S220.46,29.28,220.46,29.28Z"/><path d="M214.17,31.79s2.07-.12,5.17-0.21c1.55,0,3.36-.1,5.3-0.11l6.08,0,6.08,0c1.94,0,3.75.08,5.3,0.11,3.1,0.09,5.17.21,5.17,0.21s-2.07.12-5.17,0.21c-1.55,0-3.36.1-5.3,0.11l-6.08,0-6.08,0c-1.94,0-3.75-.08-5.3-0.11C216.23,31.91,214.17,31.79,214.17,31.79Z"/><path d="M225.79,35.55s2-.12,5-0.21c1.49,0,3.22-.1,5.08-0.11l5.83,0,5.83,0c1.86,0,3.6.08,5.08,0.11,3,0.09,5,.21,5,0.21s-2,.12-5,0.21c-1.49,0-3.22.1-5.08,0.11l-5.83,0-5.83,0c-1.86,0-3.6-.08-5.08-0.11C227.78,35.67,225.79,35.55,225.79,35.55Z"/><path d="M234.34,38.47s1.81-.12,4.52-0.21c1.36,0,2.94-.1,4.63-0.11l5.31,0,5.31,0c1.69,0,3.28.08,4.63,0.11,2.71,0.09,4.52.21,4.52,0.21s-1.81.12-4.52,0.21c-1.36,0-2.94.1-4.63,0.11l-5.31,0-5.31,0c-1.69,0-3.28-.08-4.63-0.11C236.15,38.59,234.34,38.47,234.34,38.47Z"/><path d="M253.72,44.8s-2.31-.86-5.75-2.23c-1.71-.7-3.72-1.48-5.85-2.38l-6.67-2.8-6.63-2.89c-2.12-.92-4.07-1.83-5.76-2.59-3.36-1.54-5.58-2.62-5.58-2.62s2.31,0.86,5.75,2.23c1.71,0.7,3.72,1.48,5.85,2.38l6.67,2.8,6.63,2.89c2.12,0.92,4.07,1.83,5.76,2.59C251.5,43.72,253.72,44.8,253.72,44.8Z"/><path d="M256.58,44.13s-2.06-1-5.12-2.5c-1.52-.78-3.31-1.65-5.2-2.65l-5.92-3.11-5.88-3.19c-1.88-1-3.6-2-5.09-2.85-3-1.69-4.92-2.87-4.92-2.87s2.06,1,5.12,2.49c1.52,0.78,3.31,1.65,5.2,2.65l5.92,3.11,5.87,3.19c1.88,1,3.6,2,5.09,2.85C254.63,42.95,256.58,44.13,256.58,44.13Z"/><path d="M260.62,41.62s-1.69-.66-4.19-1.74c-1.24-.55-2.71-1.16-4.26-1.87l-4.84-2.22-4.8-2.31c-1.53-.73-2.94-1.47-4.16-2.08-2.42-1.24-4-2.12-4-2.12s1.69,0.66,4.2,1.74c1.24,0.55,2.71,1.16,4.26,1.87l4.84,2.22,4.8,2.31c1.53,0.74,2.94,1.47,4.16,2.08C259,40.74,260.62,41.62,260.62,41.62Z"/><path d="M235.6,27s2.25,0.93,5.57,2.39c1.66,0.75,3.61,1.59,5.67,2.55l6.47,3L259.73,38c2.05,1,3.94,1.95,5.57,2.75,3.25,1.63,5.4,2.78,5.4,2.78s-2.25-.92-5.58-2.39c-1.66-.75-3.61-1.59-5.67-2.55l-6.47-3-6.42-3.08c-2.05-1-3.94-1.95-5.57-2.75C237.74,28.11,235.6,27,235.6,27Z"/><path d="M256.58,33.63s1.48,0.51,3.67,1.35c1.09,0.43,2.37.92,3.72,1.47s2.79,1.16,4.23,1.77,2.86,1.25,4.2,1.85,2.57,1.2,3.63,1.69c2.12,1,3.5,1.74,3.5,1.74s-1.48-.51-3.67-1.35c-1.09-.43-2.37-0.91-3.72-1.47s-2.79-1.16-4.23-1.77-2.86-1.25-4.2-1.85-2.57-1.2-3.63-1.69C258,34.36,256.58,33.63,256.58,33.63Z"/><path d="M114.37,99.39a10.42,10.42,0,0,1,.5-0.94,16.65,16.65,0,0,1,2.92-3.56,10.26,10.26,0,0,1,.83-0.67,10.26,10.26,0,0,1-.5.95,16.64,16.64,0,0,1-2.92,3.56A10.41,10.41,0,0,1,114.37,99.39Z"/><path d="M116.49,100.13a8.33,8.33,0,0,1,.51-0.81,13.1,13.1,0,0,1,2.89-2.88,8.2,8.2,0,0,1,.81-0.5,8.21,8.21,0,0,1-.51.81,13.1,13.1,0,0,1-2.89,2.88A8.33,8.33,0,0,1,116.49,100.13Z"/><path d="M119.35,100.13s0.28-.41.75-1a22.25,22.25,0,0,1,4-3.57c0.61-.41,1-0.65,1-0.65s-0.28.41-.75,1a22.26,22.26,0,0,1-4,3.57C119.79,99.89,119.35,100.13,119.35,100.13Z"/><path d="M114.8,58.77l0.31,0.15c0.2,0.1.45,0.26,0.76,0.46a9.66,9.66,0,0,1,1,.76c0.33,0.31.66,0.67,1,1,1.37,1.36,2.7,2.77,2.7,2.77l0,0.06s-1.55-1.16-3.05-2.38c-0.38-.3-0.77-0.59-1.12-0.88a9.66,9.66,0,0,1-.86-0.89c-0.23-.29-0.42-0.52-0.54-0.71s-0.18-.29-0.18-0.29Z"/><path d="M116.49,55.89s0.55,0.29,1.34.78,1.78,1.21,2.75,2,1.89,1.57,2.55,2.22S124.2,62,124.2,62s-0.55-.29-1.34-0.78-1.78-1.21-2.75-2-1.89-1.57-2.55-2.22S116.49,55.89,116.49,55.89Z"/><path d="M117.65,54.36s0.81,0.44,2,1.17,2.68,1.75,4.17,2.82,2.92,2.2,4,3.08,1.72,1.52,1.72,1.52-0.81-.44-2-1.17S124.83,60,123.35,59s-2.92-2.2-4-3.08S117.65,54.36,117.65,54.36Z"/><path d="M120,50.57s0.78,0.59,1.88,1.54c0.54,0.48,1.19,1,1.86,1.64s1.37,1.28,2.07,2,1.38,1.36,2,2,1.2,1.29,1.69,1.82c1,1.08,1.58,1.84,1.58,1.84s-0.78-.59-1.88-1.54c-0.54-.48-1.19-1-1.86-1.64s-1.37-1.28-2.07-2-1.38-1.36-2-2-1.2-1.29-1.69-1.82C120.56,51.33,120,50.57,120,50.57Z"/><path d="M123.28,49.53S124,50.12,125,51.06s2.23,2.23,3.44,3.57,2.37,2.72,3.2,3.78S133,60.22,133,60.22s-0.69-.59-1.67-1.53-2.23-2.23-3.44-3.57-2.37-2.72-3.2-3.78S123.28,49.53,123.28,49.53Z"/><path d="M128.15,50.55s0.15,0.12.4,0.36,0.59,0.57,1,1,0.83,0.93,1.29,1.49,0.87,1.2,1.32,1.83c1.82,2.47,3.59,5,3.59,5l-0.06,0s-2-2.31-4-4.66c-0.5-.58-1-1.16-1.46-1.72s-0.83-1.12-1.14-1.6-0.57-.9-0.73-1.2-0.25-.47-0.25-0.47Z"/><path d="M149.7,93.15s0.36,0.37.85,1a24,24,0,0,1,2.92,4.7C153.78,99.5,154,100,154,100s-0.36-.37-0.85-1a24,24,0,0,1-2.92-4.7C149.87,93.64,149.7,93.15,149.7,93.15Z"/><path d="M154.74,91.52s0.5,0.41,1.19,1.08,1.56,1.6,2.39,2.58,1.6,2,2.14,2.78,0.87,1.36.87,1.36-0.5-.41-1.19-1.08-1.56-1.6-2.39-2.58-1.6-2-2.14-2.78S154.74,91.52,154.74,91.52Z"/><path d="M158.6,91.17s0.76,0.46,1.84,1.21,2.49,1.81,3.86,2.91,2.7,2.26,3.66,3.16,1.57,1.55,1.57,1.55-0.76-.46-1.85-1.21-2.49-1.81-3.86-2.91-2.69-2.26-3.66-3.16S158.6,91.17,158.6,91.17Z"/><path d="M163.08,91s1,0.49,2.49,1.29c0.73,0.41,1.59.88,2.5,1.41s1.86,1.11,2.81,1.69,1.89,1.19,2.77,1.77,1.68,1.14,2.37,1.61c1.38,1,2.26,1.65,2.26,1.65s-1-.49-2.49-1.29c-0.73-.41-1.59-0.87-2.5-1.41s-1.86-1.11-2.81-1.69-1.89-1.19-2.77-1.77-1.68-1.14-2.37-1.61C164,91.71,163.08,91,163.08,91Z"/><path d="M145.06,94.61a9.51,9.51,0,0,1,.19,1,15.12,15.12,0,0,1-.11,4.39,9.38,9.38,0,0,1-.24,1,9.37,9.37,0,0,1-.19-1,15.12,15.12,0,0,1,.11-4.39A9.52,9.52,0,0,1,145.06,94.61Z"/><path d="M23.5,2.75a1,1,0,0,1,0-.17,2,2,0,0,1,.14-0.38A1.8,1.8,0,0,1,24,1.77c0.14-.13.32-0.24,0.49-0.36,0.64-.51,1.33-1,1.33-1l0.05,0.05s-0.46.7-1,1.35c-0.12.17-.23,0.35-0.36,0.49a1.8,1.8,0,0,1-.43.31,2,2,0,0,1-.38.15l-0.17,0Z"/><path d="M25.79,3.57a1.31,1.31,0,0,1,0-.2,2.83,2.83,0,0,1,.11-0.47,2.69,2.69,0,0,1,.28-0.59c0.14-.19.31-0.38,0.48-0.57C27.31,1,28,.2,28,0.2l0.06,0s-0.41.93-.88,1.83c-0.11.23-.21,0.46-0.33,0.67a2.69,2.69,0,0,1-.43.49,2.83,2.83,0,0,1-.39.29l-0.17.09Z"/><path d="M29.68,4.32a2,2,0,0,1,.09-0.23,4.69,4.69,0,0,1,.3-0.56,4.79,4.79,0,0,1,.54-0.69c0.23-.22.5-0.43,0.76-0.65,1-.91,2.07-1.76,2.07-1.76l0.05,0.05S32.67,1.57,31.8,2.61c-0.21.27-.41,0.54-0.63,0.78a4.79,4.79,0,0,1-.67.56,4.69,4.69,0,0,1-.55.32l-0.23.1Z"/><path d="M33.55,5.3A2.49,2.49,0,0,1,33.64,5a6,6,0,0,1,.31-0.66,6.32,6.32,0,0,1,.55-0.84C34.73,3.26,35,3,35.28,2.7c1-1.16,2.14-2.27,2.14-2.27l0.06,0s-0.84,1.32-1.73,2.6c-0.22.33-.42,0.66-0.64,1a6.32,6.32,0,0,1-.69.72,6,6,0,0,1-.57.45l-0.24.15Z"/><path d="M37.42,6.29A2.91,2.91,0,0,1,37.49,6a7.16,7.16,0,0,1,.25-0.75,7.57,7.57,0,0,1,.48-1c0.22-.34.47-0.68,0.72-1,1-1.41,2-2.79,2-2.79l0.06,0S40.25,2,39.46,3.53c-0.19.38-.37,0.77-0.56,1.12a7.57,7.57,0,0,1-.64.89,7.16,7.16,0,0,1-.54.58,2.91,2.91,0,0,1-.23.2Z"/><path d="M41.54,6.29A3,3,0,0,1,41.63,6a7.42,7.42,0,0,1,.28-0.75,7.86,7.86,0,0,1,.52-1c0.23-.34.5-0.68,0.76-1,1-1.41,2.1-2.79,2.1-2.79l0.06,0S44.56,2,43.7,3.54c-0.21.38-.4,0.77-0.61,1.12a7.86,7.86,0,0,1-.68.89,7.42,7.42,0,0,1-.57.57,3,3,0,0,1-.24.2Z"/><path d="M48.27,3.42s-1.68,0-4.18-.25c-1.25-.11-2.71-0.24-4.27-0.43L35,2,21.7,0.15V0.07L35,1.45,39.92,2c1.56,0.19,3,.42,4.25.62,2.48,0.41,4.12.77,4.12,0.77V3.42Z"/><path d="M215.71,1.71s0.14,1,.26,2.54c0,0.76.13,1.65,0.17,2.6s0.08,2,.11,3,0,2,0,3,0,1.84-.07,2.61C216.14,16.95,216,18,216,18s-0.14-1-.26-2.54c0-.76-0.13-1.65-0.17-2.6s-0.08-2-.11-3,0-2,0-3,0-1.84.07-2.61C215.61,2.73,215.71,1.71,215.71,1.71Z"/><path d="M220,0.38s0.1,1.19.17,3c0,0.89.07,1.93,0.07,3s0,2.3,0,3.48,0,2.37-.1,3.48-0.12,2.15-.16,3c-0.12,1.78-.25,3-0.25,3s-0.1-1.19-.17-3c0-.89-0.07-1.93-0.07-3s0-2.3,0-3.48,0-2.37.1-3.48,0.12-2.15.16-3C219.84,1.56,220,.38,220,0.38Z"/><path d="M221.74,1.71s0.17,1.16.34,2.91c0.07,0.87.18,1.89,0.26,3s0.14,2.26.2,3.42,0.09,2.33.11,3.43,0,2.12,0,3c0,1.75-.08,2.93-0.08,2.93s-0.17-1.16-.34-2.91c-0.07-.87-0.18-1.89-0.26-3s-0.14-2.26-.2-3.42-0.09-2.33-.11-3.43,0-2.12,0-3C221.68,2.88,221.74,1.71,221.74,1.71Z"/><path d="M224.45,0.38s0.2,1.31.42,3.28c0.1,1,.23,2.14.33,3.37s0.2,2.55.29,3.87,0.16,2.64.2,3.88,0.07,2.4.1,3.39c0,2,0,3.31,0,3.31s-0.2-1.31-.42-3.28c-0.1-1-.23-2.14-0.33-3.37s-0.2-2.55-.29-3.87-0.15-2.64-.2-3.88-0.07-2.4-.1-3.39C224.42,1.7,224.45.38,224.45,0.38Z"/><path d="M225,9.06s1.23-.46,3.09-1.07c0.94-.29,2-0.65,3.2-1s2.43-.71,3.69-1.06,2.52-.68,3.71-1S241,4.41,242,4.18c1.91-.43,3.21-0.66,3.21-0.66s-1.23.46-3.09,1.07c-0.94.29-2,.66-3.2,1s-2.43.71-3.69,1.06-2.52.68-3.71,1-2.31.54-3.26,0.77C226.3,8.82,225,9.06,225,9.06Z"/><path d="M225.27,13.21s1.57-.63,4-1.48c1.2-.41,2.59-0.93,4.09-1.42L238,8.76l4.74-1.45c1.51-.47,2.94-0.85,4.16-1.2C249.37,5.43,251,5,251,5s-1.57.63-4,1.48c-1.2.41-2.58,0.93-4.09,1.42l-4.71,1.55-4.74,1.45c-1.51.47-2.94,0.85-4.16,1.2C226.91,12.81,225.27,13.21,225.27,13.21Z"/><path d="M225,16.45s2-.81,5.15-1.95c1.55-.55,3.36-1.23,5.31-1.9l6.11-2.1,6.14-2c2-.64,3.81-1.19,5.38-1.68,3.16-1,5.28-1.55,5.28-1.55s-2,.81-5.15,1.95c-1.55.55-3.36,1.23-5.31,1.9l-6.11,2.1-6.14,2c-2,.64-3.81,1.19-5.38,1.68C227.13,15.86,225,16.45,225,16.45Z"/></svg>