<svg id="Texture_HighlyPorous" xmlns="http://www.w3.org/2000/svg" viewBox="0 0 500 100"><defs><style>.cls-1{stroke:#000;stroke-miterlimit:10;}</style></defs><title>CP_HighlyPorous</title><circle class="cls-1" cx="64.05" cy="73.33" r="6.67"/><circle class="cls-1" cx="347.38" cy="54.99" r="6.67"/><circle class="cls-1" cx="206.38" cy="45.99" r="6.67"/><circle class="cls-1" cx="247.38" cy="87.75" r="6.67"/><circle class="cls-1" cx="148.05" cy="48.99" r="6.67"/><circle class="cls-1" cx="174.05" cy="86.41" r="6.67"/><circle class="cls-1" cx="190.09" cy="65.24" r="5.09"/><circle class="cls-1" cx="432.05" cy="34.41" r="5.09"/><circle class="cls-1" cx="319.47" cy="59.08" r="5.09"/><circle class="cls-1" cx="273.52" cy="75.16" r="5.09"/><circle class="cls-1" cx="300.72" cy="89.08" r="5.09"/><circle class="cls-1" cx="403.13" cy="20.26" r="6.67"/><circle class="cls-1" cx="280.05" cy="42.66" r="6.67"/><circle class="cls-1" cx="445.38" cy="81.99" r="6.67"/><circle class="cls-1" cx="344.8" cy="23.26" r="6.67"/><circle class="cls-1" cx="413.72" cy="66.99" r="6.67"/><circle class="cls-1" cx="470.27" cy="49.42" r="5.09"/><circle class="cls-1" cx="116.38" cy="73.33" r="6.67"/><circle class="cls-1" cx="19.72" cy="77.08" r="6.67"/><circle class="cls-1" cx="86.38" cy="39.99" r="5.09"/><circle class="cls-1" cx="50.05" cy="41.99" r="6.67"/><circle class="cls-1" cx="114.8" cy="22.59" r="6.67"/><circle class="cls-1" cx="240.72" cy="42.66" r="6.67"/><circle class="cls-1" cx="138.88" cy="80.49" r="5.09"/><circle class="cls-1" cx="68.38" cy="10.99" r="5.09"/><circle class="cls-1" cx="169.38" cy="20.99" r="6.67"/><circle class="cls-1" cx="242.38" cy="12.33" r="6.67"/><circle class="cls-1" cx="310.38" cy="16.99" r="6.67"/><circle class="cls-1" cx="489.38" cy="67.33" r="6.67"/><circle class="cls-1" cx="19.38" cy="26.99" r="6.67"/><circle class="cls-1" cx="396.05" cy="89.75" r="6.67"/><circle class="cls-1" cx="467.38" cy="19.66" r="6.67"/><circle class="cls-1" cx="224.72" cy="71.99" r="6.67"/><circle class="cls-1" cx="357.38" cy="79.33" r="6.67"/><circle class="cls-1" cx="378.38" cy="49.9" r="5.09"/></svg>