<svg id="Texture_HighlyPorous" xmlns="http://www.w3.org/2000/svg" viewBox="0 0 300 100"><defs><style>.cls-1{stroke:#000;stroke-miterlimit:10;}</style></defs><title>CP_HighlyPorous</title><circle class="cls-1" cx="64.66" cy="73.41" r="6.67"/><circle class="cls-1" cx="207" cy="46.08" r="6.67"/><circle class="cls-1" cx="248" cy="87.83" r="6.67"/><circle class="cls-1" cx="148.66" cy="49.08" r="6.67"/><circle class="cls-1" cx="174.66" cy="86.5" r="6.67"/><circle class="cls-1" cx="190.7" cy="65.32" r="5.09"/><circle class="cls-1" cx="274.14" cy="75.24" r="5.09"/><circle class="cls-1" cx="280.66" cy="42.74" r="6.67"/><circle class="cls-1" cx="117" cy="73.41" r="6.67"/><circle class="cls-1" cx="20.33" cy="77.17" r="6.67"/><circle class="cls-1" cx="87" cy="40.08" r="5.09"/><circle class="cls-1" cx="50.66" cy="42.08" r="6.67"/><circle class="cls-1" cx="115.41" cy="22.67" r="6.67"/><circle class="cls-1" cx="241.33" cy="42.74" r="6.67"/><circle class="cls-1" cx="139.5" cy="80.58" r="5.09"/><circle class="cls-1" cx="69" cy="11.08" r="5.09"/><circle class="cls-1" cx="170" cy="21.08" r="6.67"/><circle class="cls-1" cx="243" cy="12.41" r="6.67"/><circle class="cls-1" cx="20" cy="27.08" r="6.67"/><circle class="cls-1" cx="225.33" cy="72.08" r="6.67"/></svg>