<svg id="Texture_HighlyPorous" xmlns="http://www.w3.org/2000/svg" viewBox="0 0 650 150"><defs><style>.cls-1{stroke:#000;stroke-miterlimit:10;}</style></defs><title>CP_HighlyPorous</title><circle class="cls-1" cx="62.67" cy="73.33" r="6.67"/><circle class="cls-1" cx="346" cy="55" r="6.67"/><circle class="cls-1" cx="326.33" cy="124" r="6.67"/><circle class="cls-1" cx="205" cy="46" r="6.67"/><circle class="cls-1" cx="120" cy="110" r="6.67"/><circle class="cls-1" cx="250" cy="93.33" r="6.67"/><circle class="cls-1" cx="146.67" cy="49" r="6.67"/><circle class="cls-1" cx="193.33" cy="96" r="6.67"/><circle class="cls-1" cx="188.7" cy="65.25" r="5.09"/><circle class="cls-1" cx="430.67" cy="34.42" r="5.09"/><circle class="cls-1" cx="409.25" cy="132.4" r="5.09"/><circle class="cls-1" cx="316.66" cy="72.88" r="5.09"/><circle class="cls-1" cx="251.79" cy="121.72" r="5.09"/><circle class="cls-1" cx="351" cy="109" r="5.09"/><circle class="cls-1" cx="272.14" cy="75.17" r="5.09"/><circle class="cls-1" cx="297" cy="95" r="5.09"/><circle class="cls-1" cx="542.75" cy="29.26" r="6.67"/><circle class="cls-1" cx="523.08" cy="98.26" r="6.67"/><circle class="cls-1" cx="401.75" cy="20.26" r="6.67"/><circle class="cls-1" cx="278.67" cy="42.67" r="6.67"/><circle class="cls-1" cx="444" cy="82" r="6.67"/><circle class="cls-1" cx="343.41" cy="23.26" r="6.67"/><circle class="cls-1" cx="412.33" cy="67" r="6.67"/><circle class="cls-1" cx="195.75" cy="132" r="5.09"/><circle class="cls-1" cx="621.01" cy="54.01" r="5.09"/><circle class="cls-1" cx="606" cy="106.67" r="5.09"/><circle class="cls-1" cx="513.4" cy="47.14" r="5.09"/><circle class="cls-1" cx="472.09" cy="112" r="5.09"/><circle class="cls-1" cx="547.75" cy="83.26" r="5.09"/><circle class="cls-1" cx="468.89" cy="49.43" r="5.09"/><circle class="cls-1" cx="503.91" cy="128" r="5.09"/><circle class="cls-1" cx="115" cy="73.33" r="6.67"/><circle class="cls-1" cx="20" cy="92.67" r="6.67"/><circle class="cls-1" cx="77" cy="105.91" r="5.09"/><circle class="cls-1" cx="85" cy="40" r="5.09"/><circle class="cls-1" cx="48.67" cy="42" r="6.67"/><circle class="cls-1" cx="113.41" cy="22.6" r="6.67"/><circle class="cls-1" cx="239.33" cy="42.67" r="6.67"/><circle class="cls-1" cx="36" cy="125.33" r="6.67"/><circle class="cls-1" cx="137.5" cy="80.5" r="5.09"/><circle class="cls-1" cx="67" cy="11" r="5.09"/><circle class="cls-1" cx="168" cy="21" r="6.67"/><circle class="cls-1" cx="241" cy="12.33" r="6.67"/><circle class="cls-1" cx="152" cy="132.33" r="6.67"/><circle class="cls-1" cx="464" cy="138" r="6.67"/><circle class="cls-1" cx="605" cy="29" r="6.67"/><circle class="cls-1" cx="576" cy="49.33" r="6.67"/><circle class="cls-1" cx="618.33" cy="136" r="6.67"/><circle class="cls-1" cx="597" cy="74" r="5.09"/><circle class="cls-1" cx="627.14" cy="10.83" r="5.09"/><circle class="cls-1" cx="309" cy="17" r="6.67"/><circle class="cls-1" cx="491" cy="67.33" r="6.67"/><circle class="cls-1" cx="91.91" cy="138" r="5.09"/><circle class="cls-1" cx="158" cy="105.91" r="5.09"/><circle class="cls-1" cx="18" cy="27" r="6.67"/><circle class="cls-1" cx="373" cy="128.33" r="6.67"/><circle class="cls-1" cx="404" cy="98" r="6.67"/><circle class="cls-1" cx="561.91" cy="132" r="5.09"/><circle class="cls-1" cx="512.83" cy="12.75" r="5.09"/><circle class="cls-1" cx="466" cy="19.67" r="6.67"/><circle class="cls-1" cx="223.33" cy="72" r="6.67"/><circle class="cls-1" cx="356" cy="79.33" r="6.67"/><circle class="cls-1" cx="292.09" cy="128" r="5.09"/><circle class="cls-1" cx="377" cy="49.91" r="5.09"/></svg>