<svg id="Texture_HighlyPorous" xmlns="http://www.w3.org/2000/svg" viewBox="0 0 500 50"><defs><style>.cls-1{stroke:#000;stroke-miterlimit:10;}</style></defs><title>CP_HighlyPorous</title><circle class="cls-1" cx="328.89" cy="38.57" r="6.67"/><circle class="cls-1" cx="201.15" cy="38.9" r="6.67"/><circle class="cls-1" cx="142.82" cy="39.9" r="6.67"/><circle class="cls-1" cx="426.82" cy="33.3" r="5.09"/><circle class="cls-1" cx="271.47" cy="17.57" r="5.09"/><circle class="cls-1" cx="203.64" cy="16.57" r="5.09"/><circle class="cls-1" cx="397.9" cy="19.15" r="6.67"/><circle class="cls-1" cx="290.89" cy="38.57" r="6.67"/><circle class="cls-1" cx="354.56" cy="16.57" r="6.67"/><circle class="cls-1" cx="471.56" cy="37.9" r="5.09"/><circle class="cls-1" cx="81.15" cy="38.88" r="5.09"/><circle class="cls-1" cx="44.82" cy="40.88" r="6.67"/><circle class="cls-1" cx="109.56" cy="21.48" r="6.67"/><circle class="cls-1" cx="235.48" cy="41.55" r="6.67"/><circle class="cls-1" cx="63.15" cy="9.88" r="5.09"/><circle class="cls-1" cx="164.15" cy="19.88" r="6.67"/><circle class="cls-1" cx="237.15" cy="11.22" r="6.67"/><circle class="cls-1" cx="305.15" cy="15.88" r="6.67"/><circle class="cls-1" cx="14.15" cy="25.88" r="6.67"/><circle class="cls-1" cx="491.55" cy="18.07" r="5.09"/><circle class="cls-1" cx="462.15" cy="18.55" r="6.67"/><circle class="cls-1" cx="376.56" cy="34.48" r="5.09"/></svg>