<svg id="Texture_Porous" xmlns="http://www.w3.org/2000/svg" viewBox="0 0 500 100"><defs><style>.cls-1{stroke:#000;stroke-miterlimit:10;}</style></defs><title>CP_Porous</title><circle class="cls-1" cx="174.99" cy="50.83" r="6.67"/><circle class="cls-1" cx="206.66" cy="22.83" r="5.09"/><circle class="cls-1" cx="272.47" cy="83.33" r="5.09"/><circle class="cls-1" cx="321.66" cy="78.16" r="5.09"/><circle class="cls-1" cx="383.41" cy="28.43" r="6.67"/><circle class="cls-1" cx="447.66" cy="80.83" r="6.67"/><circle class="cls-1" cx="335.66" cy="12.16" r="6.67"/><circle class="cls-1" cx="118.66" cy="72.16" r="6.67"/><circle class="cls-1" cx="24.99" cy="81.5" r="6.67"/><circle class="cls-1" cx="90.99" cy="34.41" r="5.09"/><circle class="cls-1" cx="272.99" cy="30.83" r="6.67"/><circle class="cls-1" cx="157.66" cy="88.83" r="5.09"/><circle class="cls-1" cx="244.66" cy="11.16" r="6.67"/><circle class="cls-1" cx="487.33" cy="66.16" r="6.67"/><circle class="cls-1" cx="120.66" cy="13.83" r="5.09"/><circle class="cls-1" cx="21.66" cy="25.83" r="6.67"/><circle class="cls-1" cx="469.66" cy="18.5" r="6.67"/><circle class="cls-1" cx="412.99" cy="54.16" r="5.09"/><circle class="cls-1" cx="231.66" cy="60.74" r="5.09"/><circle class="cls-1" cx="413.66" cy="10.83" r="5.09"/></svg>