<svg id="GrainsElongated" xmlns="http://www.w3.org/2000/svg" viewBox="0 0 500 150"><defs><style>.cls-1,.cls-2{fill:none;}.cls-1{stroke:#1d1d1b;stroke-miterlimit:10;}</style></defs><title>M_GrainElongated</title><polyline class="cls-1" points="62.95 112.07 81.38 128.02 29.61 143.76 0.16 141.43"/><polyline class="cls-1" points="372.43 78.38 350.57 87.4 367.77 97.68 352.64 112.07 445.62 126.34 496.21 112.07 472.28 102.75 491.61 90.72 500 84.66 500.81 84.07"/><polyline class="cls-1" points="500 63.25 484.25 67.14 500 83.24 500.81 84.07"/><polyline class="cls-1" points="472.28 47.48 475.5 52.11 500 57.08"/><polyline class="cls-1" points="472.28 102.75 424.89 90.72 367.77 97.68"/><polyline class="cls-1" points="424.89 90.72 417.06 75.21 437.31 66.03 484.25 67.14"/><polyline class="cls-1" points="475.5 52.11 437.31 66.03 377.95 55.59 352.64 47.48"/><polyline class="cls-1" points="417.06 75.21 372.43 78.38 342.06 68.09 377.95 55.59"/><path class="cls-1" d="M352.64,112.07H261.76l-20-13.91,30.37-9.5,78.78-1.07"/><polyline class="cls-1" points="342.06 68.09 260.61 66.03 239.55 76.48 272.11 88.66"/><polyline class="cls-1" points="260.61 66.03 241.74 55.59 241.74 47.09"/><line class="cls-1" x1="306.39" y1="66.98" x2="274.64" y2="47.09"/><polyline class="cls-1" points="179.63 135.75 226.09 133.96 211.27 123.82 132.11 112.07 140.39 95.86 169.38 88.03 241.74 98.16"/><polyline class="cls-1" points="169.38 88.03 196.37 66.03 239.55 76.48"/><polyline class="cls-1" points="140.39 95.86 96.22 84.23 83.1 71.18 111.75 64.53 165.41 58.54"/><polyline class="cls-1" points="132.11 112.07 36.16 112.07 30.64 103.82 39.96 88.66 96.22 84.23"/><polyline class="cls-1" points="111.75 64.53 119.68 47.48 196.37 66.03"/><polyline class="cls-1" points="48.24 61.68 10.97 71.18 39.96 88.66"/><polyline class="cls-1" points="32.62 84.23 32.61 84.23 0.16 89.14"/><line class="cls-1" x1="30.64" y1="103.82" x2="0.16" y2="102.09"/><line class="cls-1" x1="36.17" y1="112.07" x2="0.16" y2="115.79"/><line class="cls-1" x1="29.61" y1="143.77" x2="41" y2="149.96"/><polyline class="cls-1" points="81.38 128.01 165.41 128.01 182.89 119.61"/><polyline class="cls-1" points="165.41 128.01 179.63 135.75 169.38 149.96"/><line class="cls-1" x1="261.76" y1="112.07" x2="211.27" y2="123.82"/><polyline class="cls-1" points="226.09 133.96 275.22 138.89 306.39 131.4 290.81 112.07"/><polyline class="cls-1" points="374.71 115.46 355.39 131.4 306.39 131.4"/><line class="cls-1" x1="275.22" y1="138.89" x2="285.36" y2="149.96"/><line class="cls-1" x1="355.39" y1="131.4" x2="359.43" y2="149.96"/><line class="cls-1" x1="241.74" y1="55.59" x2="173.97" y2="60.61"/><polyline class="cls-1" points="357.41 140.68 386.2 141.39 429.64 136.76 445.62 126.34 500 133.07"/><line class="cls-1" x1="429.64" y1="136.76" x2="463.99" y2="149.96"/><line class="cls-1" x1="500" y1="112.34" x2="496.21" y2="112.07"/><line class="cls-1" x1="500" y1="74.48" x2="492.99" y2="75.21"/><polyline class="cls-1" points="92.08 19.11 113.93 10.09 113.61 9.9 113.6 9.9 97.31 0.15"/><polyline class="cls-1" points="96.73 -0.19 93.94 0.15 39.61 6.77 13.53 0.15"/><polyline class="cls-1" points="0.16 30.82 27.19 31.46 47.44 22.28 39.61 6.77"/><polyline class="cls-1" points="47.44 22.28 92.07 19.12 122.44 29.4 86.55 41.91"/><polyline class="cls-1" points="220.14 0.15 192.39 8.83 113.61 9.9 113.6 9.9"/><polyline class="cls-1" points="122.44 29.4 203.89 31.46 224.95 21.02 192.39 8.83"/><polyline class="cls-1" points="324.87 0.15 324.11 1.63 295.12 9.46 295.11 9.46 228.55 0.15 222.76 -0.66"/><polyline class="cls-1" points="295.11 9.46 276.79 24.41 270.79 29.3 268.14 31.46 266.18 30.99 261.74 29.91 224.95 21.02"/><polyline class="cls-1" points="324.11 1.63 368.29 13.26 381.4 26.32 352.75 32.96 318.39 36.8 318.37 36.8 306.17 38.16 299.09 38.95"/><polyline class="cls-1" points="368.28 13.26 368.29 13.26 424.54 8.83 429.88 0.15"/><polyline class="cls-1" points="316.67 43.21 308.49 41.23 302.37 39.74 299.09 38.95 296.08 38.22 288.97 36.51 280.04 34.34 274.55 33.01 268.14 31.46"/><polyline class="cls-1" points="381.4 26.32 416.25 35.81 423.5 50.02"/><polyline class="cls-1" points="416.25 35.81 453.53 26.32 424.54 8.83"/><line class="cls-1" x1="500" y1="35.99" x2="453.53" y2="26.32"/><line class="cls-1" x1="500" y1="46.42" x2="498.39" y2="50.02"/><polyline class="cls-1" points="434.89 15.08 500 12.19 501.25 12.13"/><line class="cls-1" x1="10.97" y1="71.18" x2="0.16" y2="68.93"/><line class="cls-1" x1="176.32" y1="41.9" x2="119.68" y2="47.48"/><line class="cls-1" x1="27.19" y1="31.46" x2="0.16" y2="41.32"/><line class="cls-1" x1="27.19" y1="31.46" x2="86.55" y2="41.9"/><line class="cls-1" x1="86.55" y1="41.9" x2="48.24" y2="61.68"/><polyline class="cls-1" points="0.16 48.46 47.44 61.46 48.25 61.68"/><line class="cls-1" x1="47.44" y1="61.46" x2="83.1" y2="71.18"/><line class="cls-1" x1="119.68" y1="47.48" x2="69.24" y2="50.02"/><line class="cls-1" x1="203.89" y1="31.46" x2="222.76" y2="41.9"/><line class="cls-1" x1="222.76" y1="41.9" x2="241.74" y2="47.09"/><line class="cls-1" x1="241.74" y1="47.09" x2="274.64" y2="47.09"/><line class="cls-1" x1="274.64" y1="47.09" x2="322.01" y2="44.5"/><line class="cls-1" x1="423.5" y1="50.02" x2="352.64" y2="47.48"/><line class="cls-1" x1="423.5" y1="50.02" x2="472.28" y2="47.48"/><line class="cls-1" x1="472.28" y1="47.48" x2="498.39" y2="50.02"/><line class="cls-1" x1="500" y1="49.96" x2="498.39" y2="50.02"/><line class="cls-1" x1="176.32" y1="41.9" x2="203.89" y2="31.46"/><line class="cls-1" x1="222.76" y1="41.9" x2="176.32" y2="41.9"/><line class="cls-1" x1="316.67" y1="43.21" x2="352.64" y2="47.48"/><rect class="cls-2" x="0.16" y="0.15" width="499.84" height="149.85"/></svg>