<svg id="GrainSmall" xmlns="http://www.w3.org/2000/svg" viewBox="0 0 650 50"><defs><style>.cls-1,.cls-2{fill:none;}.cls-1{stroke:#1d1d1b;stroke-miterlimit:10;}</style></defs><title>M_GrainSmall</title><polyline class="cls-1" points="92.48 50.13 59 35 40.79 50.13"/><line class="cls-1" x1="201.21" y1="50.13" x2="175" y2="38.67"/><polyline class="cls-1" points="0 38.67 9.51 43.47 22.72 50.13"/><polyline class="cls-1" points="98.36 50.13 97.54 29 79.5 21.75 59 35 51.37 33.92 41.22 32.48 25.31 30.22 9.51 43.47"/><polyline class="cls-1" points="4.5 0 19.94 9 25.31 30.22"/><polyline class="cls-1" points="19.94 9 43 12.25 51.37 33.92"/><polyline class="cls-1" points="43 12.25 63 9 79.5 21.75"/><line class="cls-1" x1="63" y1="9" x2="56.51"/><polyline class="cls-1" points="73.14 16.83 94.75 7.5 97.53 0"/><polyline class="cls-1" points="97.53 29 127.92 20.33 117 7 94.75 7.5"/><line class="cls-1" x1="117" y1="7" x2="121.67"/><polyline class="cls-1" points="127.92 20.33 154.95 42 152.04 50.13"/><polyline class="cls-1" points="127.92 0 147.33 7 172 18 175 38.67 154.95 42"/><polyline class="cls-1" points="230.16 50.13 232.5 38.67 214.18 11 197.7 8.42 172 18"/><rect class="cls-2" x="297.76" y="0.56" width="309.9" height="49.57"/><line class="cls-1" x1="512.43" y1="45.62" x2="508.72" y2="50.13"/><polyline class="cls-1" points="616.83 0 632.83 5 632.83 13.33 607.66 16.77 597.93 17.48 582.36 18.62 567.78 29.23 574.72 50.13"/><polyline class="cls-1" points="582.36 18.62 563.45 7.31 561.86 0.56"/><polyline class="cls-1" points="567.78 29.23 544.55 27.62 534.52 41 536.09 50.13"/><polyline class="cls-1" points="502.64 0.56 515.17 12.39 544.55 27.62 563.45 7.31"/><polyline class="cls-1" points="515.17 12.39 497.4 30.62 512.43 45.62 534.52 41"/><polyline class="cls-1" points="453.26 50.13 446.66 42.85 457.09 27.62 497.4 30.62"/><polyline class="cls-1" points="457.08 27.62 447.75 12.39 447.75 0"/><line class="cls-1" x1="479.75" y1="29" x2="464.03"/><polyline class="cls-1" points="446.66 42.85 425.29 27.62 415.92 50.13"/><polyline class="cls-1" points="409.96 16.7 383.4 25.43 369.22 35.12 374.34 50.13"/><polyline class="cls-1" points="425.29 27.62 414.21 19.72 414.2 19.72 409.96 16.7 387.33 0.56 383.4 25.43"/><polyline class="cls-1" points="348.38 0.56 351.97 21.27 369.22 35.12"/><polyline class="cls-1" points="341.97 50.13 333.52 35.12 351.97 21.27"/><polyline class="cls-1" points="311.31 0.56 308.41 19.72 333.52 35.12"/><line class="cls-1" x1="260.93" y1="50.13" x2="259.28" y2="37.54"/><polyline class="cls-1" points="280.29 50.13 297.76 44.81 304.58 28.75 308.41 19.72"/><line class="cls-1" x1="197.7" y1="8.42" x2="197.7" y2="0.56"/><line class="cls-1" x1="214.18" y1="11" x2="228.5" y2="0.56"/><path class="cls-1" d="M271.5,0l2.64,17.84-14.86,19.7S236,39,232.5,38.67"/><polyline class="cls-1" points="304.58 28.75 297.76 28.92 294.5 29 274.14 17.84"/><polyline class="cls-1" points="304.9 50.13 297.76 44.81 297.07 50.13"/><line class="cls-1" x1="447.75" y1="12.39" x2="414.2" y2="19.72"/><polyline class="cls-1" points="572.11 41 591.14 35.12 601.37 49.48 601.83 50.13"/><line class="cls-1" x1="597.93" y1="17.48" x2="591.14" y2="35.12"/><line class="cls-1" x1="603.25" y1="16.7" x2="612.67"/><polyline class="cls-1" points="601.37 49.48 620.33 38 619.33 23.33 611.51 16.25"/><polyline class="cls-1" points="634.56 50.13 634.67 46.71 620.33 38"/><polyline class="cls-1" points="631.38 28.44 634.67 46.72 648 42.33 650 39.83"/><polyline class="cls-1" points="650 20.5 647.38 16.7 650 14.5"/><line class="cls-1" x1="648" y1="42.33" x2="650" y2="45.62"/><line class="cls-1" x1="632.83" y1="5" x2="637.92"/><polyline class="cls-1" points="632.83 13.33 637.92 17.29 631.38 28.44 619.33 23.33"/><line class="cls-1" x1="647.38" y1="16.7" x2="637.92" y2="17.29"/></svg>