<svg id="GrainLarge" xmlns="http://www.w3.org/2000/svg" viewBox="0 0 650 100"><defs><style>.cls-1,.cls-2{fill:none;}.cls-1{stroke:#1d1d1b;stroke-miterlimit:10;}</style></defs><title>M_GrainLarge</title><polyline class="cls-1" points="0 50.13 16.24 46.36 24.19 8.26 22.31 -0.03"/><polyline class="cls-1" points="16.24 46.36 25.08 62.06 40.98 90.32 28.09 100"/><line class="cls-1" x1="56.76" y1="100" x2="40.98" y2="90.32"/><polyline class="cls-1" points="25.08 62.06 81.71 54.66 102.64 73.61 91.44 100"/><polyline class="cls-1" points="187.72 54.66 203.45 94.74 197.58 100"/><polyline class="cls-1" points="554.01 -0.03 553.54 0.97 537.05 31.21 557.47 54.66 514.3 90.53 453.78 63.17 434.95 54.66 447.86 18.48 437.35 -0.03"/><polyline class="cls-1" points="619.99 -0.03 627.82 16.09 617.9 57.67 602.82 64.13"/><polyline class="cls-1" points="537.05 31.21 496.6 0.97 447.86 18.48"/><line class="cls-1" x1="496.6" y1="0.97" x2="496.43" y2="-0.03"/><path class="cls-1" d="M435,54.66H357.39l-17.08-35L361.69,0"/><polyline class="cls-1" points="322.14 100 314.3 84.21 314.3 84.2 290.08 73.61 246.74 54.66 253.81 13.91 271.32 -0.03"/><line class="cls-1" x1="340.31" y1="19.67" x2="292.52" y2="-0.03"/><line class="cls-1" x1="253.81" y1="13.91" x2="235.84" y2="-0.03"/><polyline class="cls-1" points="246.74 54.66 187.72 54.66 164.86 54.66 160.15 33.9 167.23 -0.03"/><polyline class="cls-1" points="24.19 8.26 70.98 -0.03 77.81 -1.24 78.88 -0.03 100.07 23.88 81.71 54.66"/><polyline class="cls-1" points="127.46 -0.03 125.22 0.97 123.88 -0.03"/><polyline class="cls-1" points="160.15 33.9 100.07 23.88 125.22 0.97"/><line class="cls-1" x1="102.64" y1="73.61" x2="164.86" y2="54.65"/><polyline class="cls-1" points="203.45 94.73 275.16 94.73 290.08 73.61"/><line class="cls-1" x1="278.44" y1="100" x2="275.16" y2="94.74"/><line class="cls-1" x1="357.39" y1="54.65" x2="314.3" y2="84.2"/><line class="cls-1" x1="394.59" y1="100" x2="382.18" y2="54.66"/><line class="cls-1" x1="453.78" y1="63.17" x2="438.64" y2="100"/><line class="cls-1" x1="606.7" y1="98.79" x2="602.1" y2="100"/><polyline class="cls-1" points="509.37 100 514.3 90.53 540.28 100"/><polyline class="cls-1" points="606.83 100 606.7 98.79 602.82 64.13 557.47 54.66"/><line class="cls-1" x1="649.97" y1="3.98" x2="642.47" y2="7.95"/><line class="cls-1" x1="627.82" y1="16.09" x2="642.47" y2="7.95"/><line class="cls-1" x1="649.97" y1="63.33" x2="617.9" y2="57.67"/><rect class="cls-2" y="-0.03" width="649.97" height="100.03"/></svg>