<svg id="GrainSmall" xmlns="http://www.w3.org/2000/svg" viewBox="0 0 500 150"><defs><style>.cls-1,.cls-2{fill:none;}.cls-2{stroke:#1d1d1b;stroke-miterlimit:10;}</style></defs><title>M_GrainSmall</title><rect class="cls-1" x="-0.17" y="55.88" width="309.9" height="94.2"/><polyline class="cls-2" points="31.52 96.7 36.07 87.01 45.64 69.47 33.8 55.88 58.83 35.07 104.86 55.88 97.37 76.86 105.88 91.86 95.06 105.01"/><polyline class="cls-2" points="-0.17 133.86 25.14 132.01 39.72 121.4 31.52 96.7 -0.17 92.32"/><polyline class="cls-2" points="25.14 132.01 44.05 143.32 45.64 150.07"/><polyline class="cls-2" points="45.64 69.47 69.1 87.01 97.37 76.86"/><polyline class="cls-2" points="69.1 87.01 72.97 109.63 62.95 123.01 39.72 121.4"/><polyline class="cls-2" points="44.05 143.32 62.95 123.01 92.33 138.24 104.86 150.07"/><polyline class="cls-2" points="72.97 109.63 95.06 105.01 110.09 120.01 92.33 138.24"/><path class="cls-2" d="M104.86,55.88h45l9.91,20.29L144.72,90l-39,1.56"/><polyline class="cls-2" points="110.09 120.01 150.41 123.01 160.84 107.78 144.72 90.01"/><polyline class="cls-2" points="150.41 123.01 159.75 138.24 159.75 150.07"/><line class="cls-2" x1="127.75" y1="121.63" x2="143.18" y2="150.07"/><polyline class="cls-2" points="174.83 38.74 214.01 55.88 209.91 79.51 195.57 90.94 159.75 76.17"/><polyline class="cls-2" points="195.57 90.94 182.21 123.01 160.84 107.78"/><polyline class="cls-2" points="209.91 79.51 231.78 96.47 238.27 115.51 224.09 125.2 197.53 133.93"/><polyline class="cls-2" points="214.01 55.88 261.5 55.88 264.24 67.92 259.63 90.01 231.78 96.47"/><polyline class="cls-2" points="224.09 125.2 220.16 150.07 182.21 123.01"/><polyline class="cls-2" points="238.27 115.51 255.53 129.36 259.11 150.07"/><polyline class="cls-2" points="255.53 129.36 273.97 115.51 259.63 90.01"/><polyline class="cls-2" points="273.97 115.51 299.08 130.91 296.18 150.07"/><polyline class="cls-2" points="359.08 94.83 368.2 118.07 342.58 141.04 299.08 130.91 309.74 105.82 297.59 94.83 264.75 99.12"/><path class="cls-2" d="M9.75,93.69c0.09-2,4.75-22.29,4.75-22.29L33.8,55.88l-34-17.14"/><line class="cls-2" x1="14.5" y1="71.41" x2="-0.17" y2="62.41"/><polyline class="cls-2" points="9.35 43.54 25.14 30.29 41.05 32.55 58.83 35.07 79.33 21.82 97.37 29.07 98.29 52.91"/><polyline class="cls-2" points="4.33 0.07 19.77 9.07 25.14 30.29"/><polyline class="cls-2" points="19.77 9.07 42.83 12.32 51.2 33.99"/><polyline class="cls-2" points="42.83 12.32 62.83 9.07 79.33 21.82"/><line class="cls-2" x1="62.83" y1="9.07" x2="56.34" y2="0.07"/><polyline class="cls-2" points="72.97 16.91 94.58 7.57 97.37 0.07"/><polyline class="cls-2" points="97.37 29.07 127.75 20.41 116.83 7.07 94.58 7.57"/><line class="cls-2" x1="116.83" y1="7.07" x2="121.5" y2="0.07"/><polyline class="cls-2" points="149.84 55.88 154.78 42.07 127.75 20.41"/><polyline class="cls-2" points="154.78 42.07 174.83 38.74 171.83 18.07 147.17 7.07 127.75 0.07"/><polyline class="cls-2" points="171.83 18.07 197.53 8.49 214.01 11.07 232.33 38.74 228.83 55.88"/><path class="cls-1" d="M499,0.63v94.2H297.59V0.63H499Z"/><polyline class="cls-2" points="499 32.46 497.23 30.69 499 28.87"/><path class="cls-2" d="M499,94.83H457.49l-9.91-20.29,15-13.85L499,59.23"/><polyline class="cls-2" points="497.23 30.69 456.92 27.69 446.49 42.92 462.61 60.69"/><polyline class="cls-2" points="456.92 27.69 447.58 12.46 447.58 0.07"/><line class="cls-2" x1="479.58" y1="29.07" x2="463.86" y2="0.07"/><polyline class="cls-2" points="416.83 129.36 439.83 126.74 432.5 111.96 393.31 94.83 397.41 71.19 411.76 59.77 447.58 74.53"/><polyline class="cls-2" points="411.76 59.77 425.12 27.69 446.49 42.92"/><polyline class="cls-2" points="397.41 71.19 375.55 54.23 369.06 35.19 383.24 25.5 409.8 16.77"/><polyline class="cls-2" points="393.31 94.83 345.82 94.83 343.09 82.79 347.7 60.69 375.55 54.23"/><polyline class="cls-2" points="383.24 25.5 387.16 0.63 425.12 27.69"/><polyline class="cls-2" points="369.06 35.19 351.8 21.34 348.22 0.63"/><polyline class="cls-2" points="351.8 21.34 333.35 35.19 347.7 60.69"/><polyline class="cls-2" points="333.35 35.19 308.24 19.79 311.15 0.63"/><polyline class="cls-2" points="308.24 19.79 297.59 44.88 261.5 55.88 259.11 37.61"/><line class="cls-2" x1="197.53" y1="8.49" x2="197.53" y2="0.63"/><line class="cls-2" x1="214.01" y1="11.07" x2="228.33" y2="0.63"/><path class="cls-2" d="M232.33,38.74c3.5,0.33,26.78-1.12,26.78-1.12L274,17.91,271.33,0.07"/><polyline class="cls-2" points="273.97 17.91 294.33 29.07 304.41 28.82"/><polyline class="cls-2" points="297.59 94.83 308.24 76.98 295.33 62.41 264.24 67.92"/><polyline class="cls-2" points="295.33 62.41 297.59 44.88 322.83 63.69 343.09 54.29"/><polyline class="cls-2" points="343.09 82.79 308.24 76.98 322.83 63.69"/><line class="cls-2" x1="309.73" y1="105.82" x2="345.82" y2="94.83"/><line class="cls-2" x1="342.58" y1="141.04" x2="348.22" y2="150.07"/><polyline class="cls-2" points="368.2 118.07 409.8 118.07 418.45 105.82"/><polyline class="cls-2" points="409.8 118.07 416.83 129.36 411.76 150.07"/><line class="cls-2" x1="457.49" y1="94.83" x2="432.49" y2="111.96"/><polyline class="cls-2" points="439.83 126.74 464.15 133.93 479.58 123.01 471.86 94.83"/><line class="cls-2" x1="499" y1="123.01" x2="479.58" y2="123.01"/><line class="cls-2" x1="464.15" y1="133.93" x2="469.17" y2="150.07"/><line class="cls-2" x1="447.58" y1="12.46" x2="414.03" y2="19.79"/></svg>