<svg id="GrainsElongated" xmlns="http://www.w3.org/2000/svg" viewBox="0 0 650 100"><defs><style>.cls-1,.cls-2{fill:none;}.cls-1{stroke:#1d1d1b;stroke-miterlimit:10;}</style></defs><title>M_GrainElongated</title><polyline class="cls-1" points="372.28 78.4 350.42 87.42 350.75 87.62 367.63 97.71 365.37 99.86"/><polyline class="cls-1" points="476.82 99.86 491.46 90.75 500.67 84.1"/><polyline class="cls-1" points="583.21 47.12 601.58 49.07 615.53 50.55 615.53 56.26 572.45 58.26 564.68 58.62 545.01 59.11 513.55 59.89 484.1 67.17 500.67 84.1 564.68 87.11 578.49 96.76 576.31 99.86"/><polyline class="cls-1" points="513.55 59.88 475.36 52.13 472.14 47.5"/><polyline class="cls-1" points="460.66 99.86 424.74 90.75 367.63 97.71"/><polyline class="cls-1" points="424.74 90.74 416.92 75.23 437.17 66.05 484.1 67.16"/><polyline class="cls-1" points="475.36 52.13 437.17 66.05 377.81 55.61 352.49 47.5"/><polyline class="cls-1" points="416.92 75.23 372.28 78.4 341.91 68.11 377.81 55.61"/><polyline class="cls-1" points="244.02 99.86 241.6 98.18 271.97 88.69 350.75 87.62"/><polyline class="cls-1" points="341.91 68.11 260.47 66.05 239.4 76.5 271.97 88.68"/><polyline class="cls-1" points="260.47 66.05 241.6 55.61 241.6 47.11"/><line class="cls-1" x1="306.25" y1="67" x2="274.5" y2="47.11"/><polyline class="cls-1" points="241.6 98.18 169.24 88.06 140.25 95.89 138.22 99.86"/><polyline class="cls-1" points="169.24 88.05 196.22 66.05 239.4 76.5"/><polyline class="cls-1" points="140.25 95.88 96.07 84.25 82.96 71.2 111.6 64.55 165.27 58.56"/><polyline class="cls-1" points="96.07 84.26 39.82 88.69 32.95 99.86"/><polyline class="cls-1" points="111.6 64.55 119.54 47.5 196.22 66.05"/><polyline class="cls-1" points="48.1 61.7 10.83 71.2 39.82 88.68"/><polyline class="cls-1" points="32.48 84.25 32.47 84.25 0.01 89.16"/><line class="cls-1" x1="241.6" y1="55.61" x2="173.82" y2="60.63"/><polyline class="cls-1" points="564.68 87.1 531.3 71.2 492.84 75.23"/><line class="cls-1" x1="545.01" y1="59.1" x2="531.3" y2="71.2"/><line class="cls-1" x1="555.77" y1="58.56" x2="574.79" y2="47.11"/><polyline class="cls-1" points="551.97 81.05 590.28 73.17 588.26 63.12 572.46 58.26"/><polyline class="cls-1" points="590.28 73.17 619.24 79.15 618.23 89.46 595.67 93.52"/><polyline class="cls-1" points="612.59 66.61 619.24 79.15 646.17 76.14 650.22 74.43"/><polyline class="cls-1" points="650.22 61.17 644.91 58.56 650.22 57.06"/><line class="cls-1" x1="578.49" y1="96.75" x2="595.67" y2="93.52"/><line class="cls-1" x1="637.26" y1="99.86" x2="618.23" y2="89.46"/><line class="cls-1" x1="646.17" y1="76.14" x2="650.21" y2="78.4"/><line class="cls-1" x1="615.53" y1="50.54" x2="650.21" y2="40.33"/><polyline class="cls-1" points="615.53 56.26 625.8 58.97 612.59 66.61 588.26 63.12"/><line class="cls-1" x1="644.91" y1="58.56" x2="625.8" y2="58.97"/><polyline class="cls-1" points="91.94 19.13 113.78 10.11 113.47 9.92 113.45 9.92 97.17 0.17"/><polyline class="cls-1" points="96.58 -0.17 93.8 0.17 39.47 6.79 13.38 0.17"/><polyline class="cls-1" points="0.01 30.84 27.05 31.48 47.3 22.3 39.47 6.79"/><polyline class="cls-1" points="47.29 22.3 91.93 19.14 122.3 29.42 86.4 41.93"/><polyline class="cls-1" points="220 0.17 192.25 8.85 113.47 9.92 113.45 9.92"/><polyline class="cls-1" points="122.3 29.42 203.74 31.48 224.81 21.04 192.24 8.85"/><polyline class="cls-1" points="324.73 0.17 323.96 1.65 294.98 9.48 294.96 9.48 228.41 0.17 222.62 -0.64"/><polyline class="cls-1" points="294.97 9.48 276.64 24.43 270.64 29.32 268 31.48 266.04 31.01 261.59 29.93 224.8 21.04"/><polyline class="cls-1" points="323.96 1.65 368.14 13.28 381.26 26.34 352.61 32.98 318.24 36.82 318.22 36.82 306.02 38.18 298.95 38.97"/><polyline class="cls-1" points="368.13 13.28 368.14 13.28 424.39 8.85 429.74 0.17"/><polyline class="cls-1" points="316.53 43.23 308.34 41.25 302.22 39.77 298.95 38.97 295.94 38.24 288.83 36.53 279.9 34.36 274.4 33.03 268 31.48"/><polyline class="cls-1" points="381.25 26.34 416.11 35.83 423.36 50.04"/><polyline class="cls-1" points="416.11 35.83 453.38 26.34 424.39 8.85"/><polyline class="cls-1" points="453.38 26.34 504.12 36.9 498.25 50.04"/><polyline class="cls-1" points="625.33 12.15 643.75 28.09 591.99 43.84 504.12 36.9 525.63 19.69 501.1 12.15 434.75 15.1"/><polyline class="cls-1" points="595.32 0.17 593.02 3.89 598.54 12.15 625.33 12.15 650.22 12.15"/><polyline class="cls-1" points="522.62 -0.09 522.15 0.17 501.11 12.15"/><polyline class="cls-1" points="522.62 -0.09 527.22 0.17 593.02 3.89"/><line class="cls-1" x1="525.63" y1="19.69" x2="598.54" y2="12.15"/><line class="cls-1" x1="591.99" y1="43.85" x2="601.58" y2="49.06"/><line class="cls-1" x1="650.21" y1="28.1" x2="643.75" y2="28.1"/><line class="cls-1" x1="10.82" y1="71.2" x2="0.01" y2="68.95"/><line class="cls-1" x1="176.17" y1="41.93" x2="119.54" y2="47.5"/><line class="cls-1" x1="27.04" y1="31.48" x2="0.01" y2="41.34"/><line class="cls-1" x1="27.04" y1="31.48" x2="86.4" y2="41.93"/><line class="cls-1" x1="86.4" y1="41.93" x2="48.1" y2="61.7"/><polyline class="cls-1" points="0.01 48.48 47.3 61.48 48.1 61.7"/><line class="cls-1" x1="47.29" y1="61.48" x2="82.96" y2="71.2"/><line class="cls-1" x1="119.54" y1="47.5" x2="69.1" y2="50.04"/><line class="cls-1" x1="203.74" y1="31.48" x2="222.61" y2="41.93"/><line class="cls-1" x1="222.61" y1="41.93" x2="241.6" y2="47.11"/><line class="cls-1" x1="241.6" y1="47.11" x2="274.5" y2="47.11"/><line class="cls-1" x1="274.5" y1="47.11" x2="321.86" y2="44.52"/><line class="cls-1" x1="423.36" y1="50.04" x2="352.49" y2="47.5"/><line class="cls-1" x1="423.36" y1="50.04" x2="472.14" y2="47.5"/><line class="cls-1" x1="472.14" y1="47.5" x2="498.25" y2="50.04"/><line class="cls-1" x1="498.25" y1="50.04" x2="574.79" y2="47.11"/><line class="cls-1" x1="583.21" y1="47.11" x2="574.79" y2="47.11"/><line class="cls-1" x1="574.79" y1="47.11" x2="564.68" y2="41.69"/><line class="cls-1" x1="176.17" y1="41.93" x2="203.74" y2="31.48"/><line class="cls-1" x1="222.61" y1="41.93" x2="176.17" y2="41.93"/><line class="cls-1" x1="316.53" y1="43.23" x2="352.49" y2="47.5"/><rect class="cls-2" x="0.01" y="0.18" width="650.28" height="99.68"/></svg>