<svg id="GrainLarge" xmlns="http://www.w3.org/2000/svg" viewBox="0 0 300 50"><defs><style>.cls-1{fill:none;stroke:#1d1d1b;stroke-miterlimit:10;}</style></defs><title>M_GrainLarge</title><polyline class="cls-1" points="-0.08 42.74 16.16 39.55 24.11 7.4 22.23 0.4"/><line class="cls-1" x1="23.12" y1="50" x2="16.15" y2="39.55"/><polyline class="cls-1" points="50.4 50 81.62 46.56 86.12 50"/><line class="cls-1" x1="189.23" y1="50" x2="187.63" y2="46.56"/><polyline class="cls-1" points="255.97 50 246.65 46.56 253.72 12.17 271.23 0.4"/><line class="cls-1" x1="300" y1="3.03" x2="292.44" y2="0.4"/><line class="cls-1" x1="253.73" y1="12.17" x2="235.76" y2="0.4"/><polyline class="cls-1" points="246.66 46.56 187.64 46.56 164.78 46.56 160.07 29.04 167.15 0.4"/><polyline class="cls-1" points="24.11 7.4 70.9 0.4 77.73 -0.62 78.8 0.4 99.99 20.58 81.63 46.56"/><polyline class="cls-1" points="127.38 0.4 125.14 1.25 123.8 0.4"/><polyline class="cls-1" points="160.07 29.04 99.98 20.58 125.14 1.25"/><polyline class="cls-1" points="164.78 46.56 164.77 46.56 151.39 50"/></svg>