<svg id="GrainSmall" xmlns="http://www.w3.org/2000/svg" viewBox="0 0 300 150"><defs><style>.cls-1,.cls-2{fill:none;}.cls-2{stroke:#1d1d1b;stroke-miterlimit:10;}</style></defs><title>M_GrainSmall</title><rect class="cls-1" y="55.99" width="300" height="94.2"/><polyline class="cls-2" points="31.68 96.82 36.24 87.13 45.8 69.59 33.96 55.99 59 35.19 105.03 55.99 97.53 76.98 106.05 91.98 95.23 105.13"/><polyline class="cls-2" points="0 133.97 25.31 132.13 39.88 121.51 31.68 96.82 0 92.44"/><polyline class="cls-2" points="25.31 132.13 44.21 143.44 45.8 150.19"/><polyline class="cls-2" points="45.8 69.59 69.26 87.13 97.53 76.98"/><polyline class="cls-2" points="69.26 87.13 73.14 109.75 63.11 123.13 39.88 121.51"/><polyline class="cls-2" points="44.21 143.44 63.11 123.13 92.5 138.36 105.03 150.19"/><polyline class="cls-2" points="73.14 109.75 95.23 105.13 110.26 120.13 92.5 138.36"/><path class="cls-2" d="M105,56h45l9.91,20.29-15,13.85-39,1.56"/><polyline class="cls-2" points="110.26 120.13 150.58 123.13 161 107.9 144.88 90.13"/><polyline class="cls-2" points="150.58 123.13 159.91 138.36 159.91 150.19"/><line class="cls-2" x1="127.92" y1="121.74" x2="143.35" y2="150.19"/><polyline class="cls-2" points="175 38.86 214.18 55.99 210.08 79.63 195.73 91.05 159.91 76.28"/><polyline class="cls-2" points="195.73 91.05 182.38 123.13 161 107.9"/><polyline class="cls-2" points="210.08 79.63 231.95 96.59 238.44 115.63 224.26 125.32 197.7 134.05"/><polyline class="cls-2" points="214.18 55.99 261.67 55.99 264.4 68.03 259.79 90.13 231.95 96.59"/><polyline class="cls-2" points="224.26 125.32 220.33 150.19 182.38 123.13"/><polyline class="cls-2" points="238.44 115.63 255.69 129.47 259.28 150.19"/><polyline class="cls-2" points="255.69 129.47 274.14 115.63 259.79 90.13"/><polyline class="cls-2" points="274.14 115.63 299.25 131.03 296.35 150.19"/><polyline class="cls-2" points="264.92 99.24 297.76 94.94 297.77 94.95 300 96.97"/><polyline class="cls-2" points="300 129.26 299.25 131.03 300 131.2"/><path class="cls-2" d="M9.91,93.81c0.09-2,4.75-22.29,4.75-22.29L34,56,0,38.86"/><line class="cls-2" x1="14.67" y1="71.52" y2="62.52"/><polyline class="cls-2" points="9.51 43.66 25.31 30.41 41.22 32.67 59 35.19 79.5 21.94 97.53 29.19 98.46 53.03"/><polyline class="cls-2" points="4.5 0.19 19.94 9.19 25.31 30.41"/><polyline class="cls-2" points="19.94 9.19 43 12.44 51.37 34.11"/><polyline class="cls-2" points="43 12.44 63 9.19 79.5 21.94"/><line class="cls-2" x1="63" y1="9.19" x2="56.51" y2="0.19"/><polyline class="cls-2" points="73.14 17.02 94.75 7.69 97.53 0.19"/><polyline class="cls-2" points="97.53 29.19 127.92 20.52 117 7.19 94.75 7.69"/><line class="cls-2" x1="117" y1="7.19" x2="121.67" y2="0.19"/><polyline class="cls-2" points="150.01 55.99 154.95 42.19 127.92 20.52"/><polyline class="cls-2" points="154.95 42.19 175 38.86 172 18.19 147.33 7.19 127.92 0.19"/><polyline class="cls-2" points="172 18.19 197.7 8.61 214.18 11.19 232.5 38.86 229 55.99"/><rect class="cls-1" x="297.76" y="0.75" width="2.24" height="94.2"/><polyline class="cls-2" points="300 39.72 297.76 45 261.67 55.99 259.28 37.73"/><line class="cls-2" x1="197.7" y1="8.61" x2="197.7" y2="0.75"/><line class="cls-2" x1="214.18" y1="11.19" x2="228.5" y2="0.75"/><path class="cls-2" d="M232.5,38.86c3.5,0.33,26.78-1.12,26.78-1.12L274.14,18,271.5,0.19"/><polyline class="cls-2" points="274.14 18.03 294.5 29.19 297.76 29.11 300 29.05"/><polyline class="cls-2" points="264.4 68.03 295.5 62.52 297.76 65.07 300 67.6"/><line class="cls-2" x1="300" y1="91.19" x2="297.76" y2="94.94"/><polyline class="cls-2" points="300 46.67 297.76 45 296.34 55.99 295.5 62.52"/></svg>