<svg id="GrainSmall" xmlns="http://www.w3.org/2000/svg" viewBox="0 0 500 100"><defs><style>.cls-1,.cls-2{fill:none;}.cls-2{stroke:#1d1d1b;stroke-miterlimit:10;}</style></defs><title>M_GrainSmall</title><path class="cls-1" d="M309.9,55.68V99.57H0V55.68H309.9Z"/><polyline class="cls-2" points="99.54 99.57 106.05 91.66 105.89 91.38 97.54 76.66 105.02 55.68 98.46 52.71 59 34.87 33.96 55.68 45.8 69.28 36.24 86.82 31.68 96.51"/><polyline class="cls-2" points="0 92.12 9.91 93.49 31.68 96.51 32.7 99.57"/><polyline class="cls-2" points="45.8 69.28 69.26 86.81 97.53 76.66"/><line class="cls-2" x1="71.45" y1="99.57" x2="69.26" y2="86.82"/><path class="cls-2" d="M105,55.68h45L159.92,76l-15,13.85-39,1.56"/><line class="cls-2" x1="153.73" y1="99.57" x2="144.88" y2="89.82"/><polyline class="cls-2" points="175 38.54 214.18 55.68 210.08 79.31 195.73 90.74 159.91 75.97"/><line class="cls-2" x1="195.73" y1="90.74" x2="192.05" y2="99.57"/><polyline class="cls-2" points="233.07 99.57 231.95 96.28 210.08 79.31"/><polyline class="cls-2" points="214.18 55.68 261.67 55.68 264.4 67.72 259.79 89.82 231.95 96.28"/><polyline class="cls-2" points="259.79 89.82 264.92 98.92 265.28 99.57"/><polyline class="cls-2" points="264.92 98.92 297.76 94.63 303.22 99.57"/><line class="cls-2" x1="361.19" y1="99.57" x2="359.25" y2="94.63"/><path class="cls-2" d="M9.91,93.49c0.09-2,4.75-22.29,4.75-22.29L34,55.68,0,38.54"/><line class="cls-2" x1="14.67" y1="71.21" y2="62.21"/><polyline class="cls-2" points="9.51 43.34 25.31 30.1 41.22 32.35 59 34.88 79.5 21.63 97.53 28.88 98.46 52.71"/><polyline class="cls-2" points="4.5 -0.13 19.94 8.88 25.31 30.1"/><polyline class="cls-2" points="19.94 8.88 43 12.13 51.37 33.79"/><polyline class="cls-2" points="43 12.13 63 8.88 79.5 21.63"/><line class="cls-2" x1="63" y1="8.87" x2="56.51" y2="-0.13"/><polyline class="cls-2" points="73.14 16.71 94.75 7.38 97.53 -0.13"/><polyline class="cls-2" points="97.53 28.88 127.92 20.21 117 6.88 94.75 7.38"/><line class="cls-2" x1="117" y1="6.87" x2="121.67" y2="-0.13"/><polyline class="cls-2" points="150.01 55.68 154.95 41.88 127.92 20.21"/><polyline class="cls-2" points="154.95 41.88 175 38.54 172 17.88 147.33 6.88 127.92 -0.13"/><polyline class="cls-2" points="172 17.88 197.7 8.29 214.18 10.88 232.5 38.54 229 55.68"/><path class="cls-1" d="M500,27.83v66.8H457.65l-2.8-5.75-7.1-14.54,5.1-4.7,9.93-9.14L446.66,42.73,457.09,27.5l38.36,2.85,2,0.15,1.34-1.37Z"/><polyline class="cls-2" points="500 27.83 497.4 30.5 500 33.09"/><path class="cls-2" d="M500,59L462.78,60.5l-15,13.84,9.9,20.29H500"/><polyline class="cls-2" points="462.78 60.5 446.66 42.73 457.09 27.5 497.4 30.5"/><polyline class="cls-2" points="457.08 27.49 447.75 12.26 447.75 -0.13"/><line class="cls-2" x1="479.75" y1="28.88" x2="464.03" y2="-0.13"/><polyline class="cls-2" points="393.48 94.63 397.58 70.99 411.93 59.57 447.75 74.34"/><polyline class="cls-2" points="411.93 59.57 425.29 27.49 446.66 42.72"/><polyline class="cls-2" points="397.58 70.99 375.71 54.03 369.22 34.99 383.4 25.3 409.96 16.57"/><polyline class="cls-2" points="375.71 54.03 347.87 60.49 343.26 82.59 345.99 94.63 393.48 94.63 414.32 100.17"/><polyline class="cls-2" points="383.4 25.3 387.33 0.43 425.29 27.49"/><polyline class="cls-2" points="369.22 34.99 351.97 21.15 348.38 0.43"/><polyline class="cls-2" points="351.97 21.15 333.52 34.99 347.87 60.49"/><polyline class="cls-2" points="333.52 34.99 308.41 19.59 311.31 0.43"/><polyline class="cls-2" points="308.41 19.59 297.76 44.69 261.67 55.68 259.28 37.42"/><line class="cls-2" x1="197.7" y1="8.29" x2="197.7" y2="0.43"/><line class="cls-2" x1="214.18" y1="10.87" x2="228.5" y2="0.43"/><path class="cls-2" d="M232.5,38.54c3.5,0.33,26.78-1.12,26.78-1.12l14.86-19.7L271.5-.13"/><polyline class="cls-2" points="274.14 17.71 294.5 28.88 304.58 28.62"/><polyline class="cls-2" points="297.76 94.63 308.41 76.78 295.5 62.21 264.4 67.72"/><polyline class="cls-2" points="295.5 62.21 297.76 44.69 323 63.49 343.26 54.09"/><polyline class="cls-2" points="343.26 82.59 308.41 76.78 323 63.49"/><line class="cls-2" x1="345.99" y1="94.63" x2="329.77" y2="99.57"/><line class="cls-2" x1="457.65" y1="94.63" x2="450.45" y2="99.57"/><line class="cls-2" x1="473.38" y1="99.57" x2="472.03" y2="94.63"/><line class="cls-2" x1="447.75" y1="12.26" x2="414.2" y2="19.59"/></svg>