<svg id="GrainLarge" xmlns="http://www.w3.org/2000/svg" viewBox="0 0 300 100"><defs><style>.cls-1,.cls-2{fill:none;}.cls-1{stroke:#1d1d1b;stroke-miterlimit:10;}</style></defs><title>M_GrainLarge</title><polyline class="cls-1" points="0 50.36 16.24 46.59 24.19 8.49 22.31 0.2"/><polyline class="cls-1" points="16.24 46.59 16.24 46.6 25.08 62.3 40.98 90.56 28.4 100"/><line class="cls-1" x1="56.37" y1="100" x2="40.98" y2="90.56"/><polyline class="cls-1" points="25.08 62.3 81.71 54.89 102.64 73.85 91.54 100"/><polyline class="cls-1" points="197.84 100 203.45 94.97 187.72 54.9 187.72 54.89"/><polyline class="cls-1" points="271.32 0.2 253.81 14.14 246.74 54.89 290.08 73.84 300 78.18"/><line class="cls-1" x1="300" y1="3.28" x2="292.52" y2="0.2"/><line class="cls-1" x1="253.81" y1="14.14" x2="235.84" y2="0.2"/><polyline class="cls-1" points="246.74 54.89 187.72 54.89 164.86 54.89 160.15 34.13 167.23 0.2"/><polyline class="cls-1" points="78.87 0.2 78.88 0.21 100.07 24.12 81.71 54.9"/><polyline class="cls-1" points="24.19 8.5 70.98 0.21 71.04 0.2"/><polyline class="cls-1" points="127.46 0.2 125.22 1.2 123.88 0.2"/><polyline class="cls-1" points="160.15 34.13 100.07 24.11 125.22 1.21"/><line class="cls-1" x1="102.64" y1="73.84" x2="164.86" y2="54.89"/><polyline class="cls-1" points="203.45 94.97 275.16 94.97 290.08 73.84"/><line class="cls-1" x1="278.3" y1="100" x2="275.16" y2="94.97"/><rect class="cls-2" y="0.2" width="300" height="99.8"/></svg>