<svg id="GrainsElongated" xmlns="http://www.w3.org/2000/svg" viewBox="0 0 650 50"><defs><style>.cls-1{fill:none;stroke:#1d1d1b;stroke-miterlimit:10;}</style></defs><title>M_GrainElongated</title><polyline class="cls-1" points="372.33 28.37 350.47 37.46 350.8 37.66 367.68 47.83 365.42 50"/><polyline class="cls-1" points="476.87 50 491.51 40.82 500.72 34.12"/><polyline class="cls-1" points="576.36 50 578.54 46.88 564.73 37.15 500.72 34.12 484.15 17.05 513.6 9.72 545.06 8.93 564.73 8.44 572.51 8.07 615.58 6.06 615.58 0.3 612.77 0"/><polyline class="cls-1" points="513.6 9.71 475.41 1.9 474.1 0"/><polyline class="cls-1" points="460.71 50 424.79 40.82 367.68 47.83"/><polyline class="cls-1" points="484.15 17.05 437.22 15.94 416.97 25.19 424.79 40.82"/><polyline class="cls-1" points="475.41 1.9 437.22 15.93 377.86 5.41 361.12 0"/><polyline class="cls-1" points="416.97 25.19 372.34 28.38 341.97 18.01 377.86 5.41"/><polyline class="cls-1" points="244.07 50 241.65 48.31 272.02 38.74 350.8 37.66"/><polyline class="cls-1" points="341.97 18.01 260.52 15.94 239.46 26.46 272.02 38.74"/><polyline class="cls-1" points="260.52 15.93 241.65 5.41 241.65 0"/><line class="cls-1" x1="306.3" y1="16.89" x2="279.54"/><polyline class="cls-1" points="138.27 50 140.3 46 169.29 38.11 241.65 48.31"/><polyline class="cls-1" points="169.29 38.1 196.27 15.94 239.46 26.46"/><polyline class="cls-1" points="140.3 46 96.12 34.28 83.01 21.12 111.66 14.42 165.32 8.39"/><polyline class="cls-1" points="96.12 34.28 39.87 38.74 33 50"/><line class="cls-1" x1="118.31" x2="111.65" y2="14.42"/><polyline class="cls-1" points="130.95 0 173.88 10.47 196.27 15.93"/><polyline class="cls-1" points="48.15 11.55 10.88 21.12 39.87 38.74"/><polyline class="cls-1" points="32.53 34.27 32.52 34.27 0.07 39.22"/><line class="cls-1" x1="241.65" y1="5.41" x2="173.88" y2="10.47"/><polyline class="cls-1" points="564.73 37.15 531.35 21.12 492.9 25.18"/><line class="cls-1" x1="545.06" y1="8.93" x2="531.35" y2="21.12"/><line class="cls-1" x1="569.65" x2="555.82" y2="8.39"/><polyline class="cls-1" points="552.02 31.05 590.33 23.11 588.31 12.97 572.51 8.08"/><polyline class="cls-1" points="590.33 23.11 619.29 29.13 618.28 39.52 595.72 43.61"/><polyline class="cls-1" points="612.64 16.5 619.29 29.13 646.23 26.11 650.27 24.38"/><polyline class="cls-1" points="650.27 11.02 644.96 8.39 650.27 6.87"/><line class="cls-1" x1="578.55" y1="46.88" x2="595.72" y2="43.61"/><line class="cls-1" x1="637.31" y1="50" x2="618.28" y2="39.53"/><line class="cls-1" x1="646.23" y1="26.1" x2="650.27" y2="28.38"/><line class="cls-1" x1="616.6" x2="615.59" y2="0.3"/><polyline class="cls-1" points="615.59 6.06 625.86 8.8 612.64 16.5 588.31 12.97"/><line class="cls-1" x1="644.96" y1="8.39" x2="625.86" y2="8.8"/><line class="cls-1" x1="10.88" y1="21.12" x2="0.07" y2="18.86"/><polyline class="cls-1" points="48.15 11.55 48.16 11.55 70.35 0"/><polyline class="cls-1" points="48.16 11.55 48.15 11.55 47.35 11.33 6.46 0"/><line class="cls-1" x1="47.35" y1="11.33" x2="83.01" y2="21.12"/></svg>