<svg id="GrainsElongated" xmlns="http://www.w3.org/2000/svg" viewBox="0 0 500 50"><defs><style>.cls-1,.cls-2{fill:none;}.cls-1{stroke:#1d1d1b;stroke-miterlimit:10;}</style></defs><title>M_GrainElongated</title><polyline class="cls-1" points="367.53 29.13 345.67 38.22 346 38.42 362.88 48.59 360.62 50.76"/><polyline class="cls-1" points="472.07 50.76 486.71 41.58 495.92 34.87"/><polyline class="cls-1" points="499.96 12.68 479.35 17.81 495.91 34.87 495.92 34.87 495.92 34.88 499.96 35.07"/><polyline class="cls-1" points="469.3 0.76 470.61 2.66 499.96 8.66"/><polyline class="cls-1" points="455.91 50.76 419.99 41.58 362.88 48.59"/><polyline class="cls-1" points="479.35 17.81 432.42 16.69 412.17 25.94 419.99 41.58"/><polyline class="cls-1" points="470.61 2.66 432.42 16.69 373.06 6.17 356.32 0.76"/><polyline class="cls-1" points="412.17 25.94 367.54 29.13 337.17 18.76 373.06 6.16"/><polyline class="cls-1" points="239.27 50.76 236.85 49.06 267.22 39.5 346 38.42"/><polyline class="cls-1" points="337.17 18.76 255.72 16.69 234.66 27.22 267.22 39.5"/><polyline class="cls-1" points="255.72 16.69 236.85 6.17 236.85 0.76"/><line class="cls-1" x1="301.5" y1="17.65" x2="274.74" y2="0.76"/><polyline class="cls-1" points="133.47 50.76 135.5 46.76 164.49 38.86 236.85 49.06"/><polyline class="cls-1" points="164.49 38.86 191.47 16.69 234.66 27.22"/><polyline class="cls-1" points="135.5 46.76 91.33 35.03 78.21 21.87 106.86 15.18 160.52 9.14"/><polyline class="cls-1" points="91.32 35.03 35.07 39.5 28.2 50.76"/><line class="cls-1" x1="113.51" y1="0.76" x2="106.85" y2="15.18"/><polyline class="cls-1" points="126.15 0.76 169.08 11.23 191.47 16.69"/><polyline class="cls-1" points="43.35 12.3 6.08 21.87 35.07 39.5"/><polyline class="cls-1" points="0 39.26 27.72 35.03 27.73 35.03"/><line class="cls-1" x1="236.85" y1="6.16" x2="169.08" y2="11.23"/><line class="cls-1" x1="499.96" y1="24.68" x2="488.1" y2="25.94"/><line class="cls-1" x1="6.08" y1="21.88" y2="20.6"/><polyline class="cls-1" points="43.35 12.31 43.36 12.31 65.55 0.76"/><polyline class="cls-1" points="43.36 12.31 43.35 12.31 42.55 12.09 1.66 0.76"/><line class="cls-1" x1="42.55" y1="12.08" x2="78.21" y2="21.87"/><rect class="cls-2" width="499.96" height="50"/></svg>