<svg id="GrainsElongated" xmlns="http://www.w3.org/2000/svg" viewBox="0 0 300 100"><defs><style>.cls-1,.cls-2{fill:none;}.cls-1{stroke:#1d1d1b;stroke-miterlimit:10;}</style></defs><title>M_GrainElongated</title><polyline class="cls-1" points="300 88.51 271.96 88.89 241.59 98.38 244.01 100.06"/><polyline class="cls-1" points="271.96 88.89 239.39 76.71 260.45 66.26 300 67.26"/><polyline class="cls-1" points="260.45 66.26 241.59 55.81 241.59 47.32"/><line class="cls-1" x1="300" y1="63.3" x2="274.49" y2="47.32"/><polyline class="cls-1" points="241.59 98.38 169.23 88.26 140.24 96.09 138.21 100.06"/><polyline class="cls-1" points="169.22 88.25 196.21 66.26 239.39 76.7"/><polyline class="cls-1" points="140.23 96.09 96.06 84.46 82.94 71.4 111.59 64.75 165.26 58.77"/><polyline class="cls-1" points="96.06 84.46 39.81 88.89 32.94 100.06"/><polyline class="cls-1" points="111.59 64.75 119.53 47.7 196.21 66.26"/><polyline class="cls-1" points="48.09 61.91 10.81 71.4 39.8 88.89"/><polyline class="cls-1" points="32.46 84.45 32.45 84.45 0 89.36"/><line class="cls-1" x1="241.59" y1="55.81" x2="173.81" y2="60.84"/><polyline class="cls-1" points="91.92 19.34 113.77 10.31 113.45 10.13 113.44 10.13 97.15 0.38"/><polyline class="cls-1" points="96.57 0.04 93.78 0.38 39.45 7 13.37 0.38"/><polyline class="cls-1" points="0 31.05 27.03 31.68 47.28 22.5 39.45 7"/><polyline class="cls-1" points="47.28 22.51 91.91 19.34 122.28 29.63 86.39 42.13"/><polyline class="cls-1" points="219.98 0.38 192.23 9.05 113.45 10.13 113.44 10.13"/><polyline class="cls-1" points="122.28 29.63 203.73 31.68 224.79 21.24 192.23 9.05"/><polyline class="cls-1" points="219.98 0.38 228.39 0.38 294.95 9.69 294.96 9.69 300 8.33"/><polyline class="cls-1" points="294.96 9.69 276.63 24.64 270.63 29.52 267.99 31.68 266.03 31.21 261.58 30.14 224.79 21.24"/><line class="cls-1" x1="300" y1="39.06" x2="298.94" y2="39.18"/><polyline class="cls-1" points="267.99 31.69 274.39 33.24 279.89 34.57 288.82 36.74 295.93 38.45 298.94 39.18 300 39.44"/><line class="cls-1" x1="10.81" y1="71.41" y2="69.16"/><line class="cls-1" x1="176.16" y1="42.13" x2="119.53" y2="47.7"/><line class="cls-1" x1="27.03" y1="31.69" y2="41.55"/><line class="cls-1" x1="27.03" y1="31.69" x2="86.39" y2="42.13"/><line class="cls-1" x1="86.39" y1="42.13" x2="48.09" y2="61.91"/><polyline class="cls-1" points="0 48.69 47.28 61.69 48.09 61.91"/><line class="cls-1" x1="47.28" y1="61.68" x2="82.94" y2="71.4"/><line class="cls-1" x1="119.53" y1="47.7" x2="70.68" y2="50.24"/><line class="cls-1" x1="203.73" y1="31.69" x2="222.6" y2="42.13"/><line class="cls-1" x1="222.6" y1="42.13" x2="241.59" y2="47.32"/><line class="cls-1" x1="241.59" y1="47.32" x2="274.49" y2="47.32"/><line class="cls-1" x1="300" y1="45.92" x2="274.49" y2="47.32"/><line class="cls-1" x1="176.16" y1="42.13" x2="203.73" y2="31.69"/><line class="cls-1" x1="222.6" y1="42.13" x2="176.16" y2="42.13"/><rect class="cls-2" y="0.05" width="300" height="100.01"/></svg>