<svg id="GrainLarge" xmlns="http://www.w3.org/2000/svg" viewBox="0 0 500 150"><defs><style>.cls-1,.cls-2{fill:none;}.cls-1{stroke:#1d1d1b;stroke-miterlimit:10;}</style></defs><title>M_GrainLarge</title><polyline class="cls-1" points="0 50.83 16.24 47.05 24.19 8.96 22.31 0.67"/><polyline class="cls-1" points="0 107.53 9.17 114.89 15.36 150.6"/><polyline class="cls-1" points="9.17 114.89 40.98 91.02 16.24 47.05"/><polyline class="cls-1" points="40.98 91.02 84.28 117.58 79.27 150.6"/><polyline class="cls-1" points="187.72 55.35 203.45 95.43 159.27 135.03 84.28 117.58 102.64 74.31 81.7 55.35 25.08 62.75"/><polyline class="cls-1" points="437.35 0.66 447.86 19.17 434.95 55.35 453.78 63.86 500.66 85.05"/><polyline class="cls-1" points="447.86 19.17 496.6 1.67 500.66 4.71"/><line class="cls-1" x1="496.6" y1="1.66" x2="496.43" y2="0.66"/><path class="cls-1" d="M435,55.35H357.39l-17.08-35,21.38-19.7"/><polyline class="cls-1" points="287.29 114.89 326.95 110.38 314.3 84.89 290.08 74.31 246.74 55.35 253.81 14.61 271.32 0.67"/><line class="cls-1" x1="340.31" y1="20.36" x2="292.52" y2="0.66"/><line class="cls-1" x1="253.81" y1="14.6" x2="235.84" y2="0.66"/><polyline class="cls-1" points="246.74 55.35 187.72 55.35 164.86 55.35 160.15 34.59 167.23 0.67"/><polyline class="cls-1" points="24.19 8.96 70.98 0.67 77.81 -0.55 78.88 0.67 100.07 24.57 81.71 55.35"/><polyline class="cls-1" points="127.46 0.67 125.22 1.67 123.88 0.67"/><polyline class="cls-1" points="160.15 34.59 100.07 24.58 125.22 1.67"/><line class="cls-1" x1="102.64" y1="74.31" x2="164.86" y2="55.35"/><line class="cls-1" x1="159.27" y1="135.04" x2="168.99" y2="150.6"/><polyline class="cls-1" points="203.45 95.43 275.16 95.43 290.08 74.31"/><polyline class="cls-1" points="275.16 95.43 287.3 114.89 278.55 150.6"/><line class="cls-1" x1="357.39" y1="55.35" x2="314.3" y2="84.9"/><polyline class="cls-1" points="326.95 110.38 368.88 122.78 395.48 103.95 382.18 55.35"/><polyline class="cls-1" points="453.78 63.87 437.3 103.95 395.48 103.95"/><line class="cls-1" x1="368.87" y1="122.78" x2="377.53" y2="150.6"/><line class="cls-1" x1="437.3" y1="103.95" x2="440.75" y2="150.6"/><polyline class="cls-1" points="500.66 117.41 463.59 129.05 439.03 127.28 439.02 127.28"/><rect class="cls-2" y="0.66" width="500.66" height="149.94"/></svg>