<svg id="GrainsElongated" xmlns="http://www.w3.org/2000/svg" viewBox="0 0 650 150"><defs><style>.cls-1,.cls-2{fill:none;}.cls-1{stroke:#1d1d1b;stroke-miterlimit:10;}</style></defs><title>M_GrainElongated</title><polyline class="cls-1" points="62.59 112.15 81.02 128.1 29.25 143.84 -0.2 141.51"/><polyline class="cls-1" points="500.45 84.15 491.25 90.8 471.92 102.83 495.85 112.15 445.26 126.42 352.28 112.15 367.41 97.76 350.21 87.48 372.07 78.46"/><polyline class="cls-1" points="548.98 115.92 566.66 113.35 578.28 96.81 564.46 87.16 500.45 84.15 483.89 67.22 513.34 59.94 564.46 58.67 615.32 56.32 615.32 50.6 582.99 47.17"/><polyline class="cls-1" points="513.34 59.94 475.14 52.19 471.92 47.55"/><polyline class="cls-1" points="471.92 102.83 424.53 90.8 367.41 97.76"/><polyline class="cls-1" points="424.53 90.8 416.7 75.29 436.95 66.11 483.89 67.22"/><polyline class="cls-1" points="475.14 52.19 436.95 66.11 377.59 55.67 352.28 47.55"/><polyline class="cls-1" points="416.7 75.29 372.07 78.46 341.7 68.17 377.59 55.67"/><path class="cls-1" d="M352.28,112.15H261.4l-20-13.91,30.37-9.5,78.78-1.07"/><polyline class="cls-1" points="341.7 68.17 260.25 66.11 239.19 76.56 271.75 88.74"/><polyline class="cls-1" points="260.25 66.11 241.38 55.67 241.38 47.17"/><line class="cls-1" x1="306.03" y1="67.06" x2="274.29" y2="47.17"/><polyline class="cls-1" points="179.27 135.83 225.73 134.04 210.91 123.9 131.75 112.15 140.03 95.94 169.02 88.11 241.38 98.24"/><polyline class="cls-1" points="169.02 88.11 196.01 66.11 239.19 76.56"/><polyline class="cls-1" points="140.03 95.94 95.86 84.31 82.74 71.26 111.39 64.61 165.05 58.62"/><polyline class="cls-1" points="131.75 112.15 35.81 112.15 30.28 103.9 39.6 88.74 95.86 84.31"/><polyline class="cls-1" points="111.39 64.61 119.33 47.55 196.01 66.11"/><polyline class="cls-1" points="47.88 61.76 10.61 71.26 39.6 88.74"/><polyline class="cls-1" points="32.26 84.31 32.25 84.31 -0.2 89.22"/><line class="cls-1" x1="30.28" y1="103.9" x2="-0.2" y2="102.17"/><line class="cls-1" x1="35.81" y1="112.15" x2="-0.2" y2="115.87"/><line class="cls-1" x1="29.25" y1="143.85" x2="40.64" y2="150.04"/><polyline class="cls-1" points="81.02 128.09 165.05 128.09 182.53 119.69"/><polyline class="cls-1" points="165.05 128.09 179.27 135.83 169.02 150.04"/><line class="cls-1" x1="261.4" y1="112.15" x2="210.91" y2="123.9"/><polyline class="cls-1" points="225.73 134.04 274.86 138.97 306.03 131.48 290.45 112.15"/><polyline class="cls-1" points="374.35 115.54 355.03 131.48 306.03 131.48"/><line class="cls-1" x1="274.86" y1="138.97" x2="285" y2="150.04"/><line class="cls-1" x1="355.03" y1="131.48" x2="359.08" y2="150.04"/><line class="cls-1" x1="241.38" y1="55.67" x2="173.61" y2="60.69"/><polyline class="cls-1" points="357.06 140.76 385.84 141.47 429.28 136.84 445.26 126.42 506.05 133.94 553.53 129.71"/><line class="cls-1" x1="429.28" y1="136.84" x2="463.63" y2="150.04"/><polyline class="cls-1" points="495.85 112.15 548.98 115.92 555.55 135.83 529.79 147.81 504.54 150.04"/><line class="cls-1" x1="506.05" y1="133.94" x2="515.58" y2="149.06"/><polyline class="cls-1" points="564.46 87.16 531.08 71.26 492.63 75.29"/><line class="cls-1" x1="544.8" y1="59.16" x2="531.08" y2="71.26"/><line class="cls-1" x1="555.55" y1="58.62" x2="574.58" y2="47.17"/><polyline class="cls-1" points="551.75 81.11 590.06 73.23 588.04 63.17 572.24 58.31"/><polyline class="cls-1" points="590.06 73.23 619.02 79.21 618.01 89.52 595.45 93.58"/><polyline class="cls-1" points="612.37 66.67 619.02 79.21 645.96 76.2 650 74.49"/><polyline class="cls-1" points="650 61.23 644.7 58.62 650 57.12"/><polyline class="cls-1" points="555.55 135.83 612.37 139.75 625.59 150.04"/><line class="cls-1" x1="529.79" y1="147.81" x2="540.4" y2="150.04"/><line class="cls-1" x1="578.28" y1="96.81" x2="595.45" y2="93.58"/><polyline class="cls-1" points="566.66 113.35 632.41 117.29 632.41 129.12 612.37 139.75"/><polyline class="cls-1" points="618.01 89.52 644.7 104.09 632.41 117.29 650 120.55"/><line class="cls-1" x1="644.7" y1="104.09" x2="650" y2="104.09"/><line class="cls-1" x1="645.96" y1="76.2" x2="650" y2="78.46"/><line class="cls-1" x1="632.41" y1="129.12" x2="650" y2="133.94"/><line class="cls-1" x1="615.32" y1="50.6" x2="650" y2="40.39"/><polyline class="cls-1" points="615.32 56.32 625.59 59.03 612.37 66.67 588.04 63.17"/><line class="cls-1" x1="644.7" y1="58.62" x2="625.59" y2="59.03"/><polyline class="cls-1" points="91.72 19.19 113.57 10.17 113.25 9.98 113.24 9.98 96.95 0.23"/><polyline class="cls-1" points="96.37 -0.11 93.58 0.23 39.25 6.85 13.17 0.23"/><polyline class="cls-1" points="-0.2 30.9 26.83 31.54 47.08 22.36 39.25 6.85"/><polyline class="cls-1" points="47.08 22.36 91.71 19.2 122.08 29.48 86.19 41.98"/><polyline class="cls-1" points="219.78 0.23 192.03 8.91 113.25 9.98 113.24 9.98"/><polyline class="cls-1" points="122.08 29.48 203.53 31.54 224.59 21.09 192.03 8.91"/><polyline class="cls-1" points="324.51 0.23 323.75 1.71 294.76 9.54 294.75 9.54 228.19 0.23 222.4 -0.58"/><polyline class="cls-1" points="294.75 9.54 276.43 24.49 270.43 29.38 267.78 31.54 265.82 31.07 261.38 29.99 224.59 21.1"/><polyline class="cls-1" points="323.75 1.71 367.93 13.34 381.04 26.4 352.39 33.04 318.03 36.88 318.01 36.88 305.81 38.24 298.74 39.03"/><polyline class="cls-1" points="367.92 13.34 367.93 13.34 424.18 8.91 429.52 0.23"/><polyline class="cls-1" points="316.31 43.29 308.13 41.31 302.01 39.82 298.74 39.03 295.73 38.3 288.61 36.59 279.68 34.42 274.19 33.09 267.78 31.54"/><polyline class="cls-1" points="381.04 26.4 415.9 35.89 423.14 50.1"/><polyline class="cls-1" points="415.9 35.89 453.17 26.4 424.18 8.91"/><polyline class="cls-1" points="453.17 26.4 503.9 36.96 498.03 50.1"/><polyline class="cls-1" points="625.11 12.21 643.54 28.15 591.77 43.9 503.9 36.96 525.42 19.75 500.89 12.21 434.53 15.15"/><polyline class="cls-1" points="595.1 0.23 592.81 3.95 598.33 12.21 625.11 12.21 650 12.21"/><polyline class="cls-1" points="522.4 -0.03 521.94 0.23 500.89 12.21"/><polyline class="cls-1" points="522.4 -0.03 527 0.23 592.81 3.95"/><line class="cls-1" x1="525.42" y1="19.75" x2="598.33" y2="12.21"/><line class="cls-1" x1="591.77" y1="43.9" x2="601.37" y2="49.12"/><line class="cls-1" x1="650" y1="28.16" x2="643.54" y2="28.16"/><line class="cls-1" x1="10.61" y1="71.26" x2="-0.2" y2="69.01"/><line class="cls-1" x1="175.96" y1="41.98" x2="119.32" y2="47.56"/><line class="cls-1" x1="26.83" y1="31.54" x2="-0.2" y2="41.4"/><line class="cls-1" x1="26.83" y1="31.54" x2="86.19" y2="41.98"/><line class="cls-1" x1="86.19" y1="41.98" x2="47.89" y2="61.76"/><polyline class="cls-1" points="-0.2 48.54 47.08 61.54 47.89 61.76"/><line class="cls-1" x1="47.08" y1="61.54" x2="82.74" y2="71.26"/><line class="cls-1" x1="119.32" y1="47.56" x2="68.89" y2="50.1"/><line class="cls-1" x1="203.53" y1="31.54" x2="222.4" y2="41.98"/><line class="cls-1" x1="222.4" y1="41.98" x2="241.38" y2="47.17"/><line class="cls-1" x1="241.38" y1="47.17" x2="274.29" y2="47.17"/><line class="cls-1" x1="274.29" y1="47.17" x2="321.65" y2="44.58"/><line class="cls-1" x1="423.14" y1="50.1" x2="352.28" y2="47.56"/><line class="cls-1" x1="423.14" y1="50.1" x2="471.92" y2="47.56"/><line class="cls-1" x1="471.92" y1="47.56" x2="498.03" y2="50.1"/><line class="cls-1" x1="498.03" y1="50.1" x2="574.58" y2="47.17"/><line class="cls-1" x1="582.99" y1="47.17" x2="574.58" y2="47.17"/><line class="cls-1" x1="574.58" y1="47.17" x2="564.46" y2="41.75"/><line class="cls-1" x1="175.96" y1="41.98" x2="203.53" y2="31.54"/><line class="cls-1" x1="222.4" y1="41.98" x2="175.96" y2="41.98"/><line class="cls-1" x1="316.31" y1="43.29" x2="352.28" y2="47.56"/><rect class="cls-2" x="-0.2" y="0.23" width="650.28" height="149.85"/></svg>