<svg id="GrainLarge" xmlns="http://www.w3.org/2000/svg" viewBox="0 0 300 150"><defs><style>.cls-1,.cls-2{fill:none;}.cls-1{stroke:#1d1d1b;stroke-miterlimit:10;}</style></defs><title>M_GrainLarge</title><polyline class="cls-1" points="0 51.42 16.24 47.66 24.19 9.55 22.31 1.26"/><polyline class="cls-1" points="0 108.13 9.17 115.48 15.36 151.21"/><polyline class="cls-1" points="9.17 115.49 40.98 91.62 16.24 47.65"/><polyline class="cls-1" points="40.98 91.62 84.28 118.17 79.27 151.21"/><polyline class="cls-1" points="187.72 55.95 203.45 96.03 159.27 135.63 84.28 118.17 102.64 74.91 81.7 55.95 25.08 63.35"/><polyline class="cls-1" points="271.32 1.26 253.81 15.2 246.74 55.95 290.08 74.9 300 79.24"/><line class="cls-1" x1="300" y1="114.03" x2="287.29" y2="115.48"/><line class="cls-1" x1="300" y1="4.34" x2="292.52" y2="1.26"/><line class="cls-1" x1="253.81" y1="15.2" x2="235.84" y2="1.26"/><polyline class="cls-1" points="246.74 55.95 187.72 55.95 164.86 55.95 160.15 35.2 167.23 1.26"/><polyline class="cls-1" points="24.19 9.55 70.98 1.26 77.81 0.06 78.88 1.26 100.07 25.18 81.71 55.95"/><polyline class="cls-1" points="127.46 1.26 125.22 2.27 123.88 1.26"/><polyline class="cls-1" points="160.15 35.19 100.07 25.18 125.22 2.27"/><line class="cls-1" x1="102.64" y1="74.91" x2="164.86" y2="55.95"/><line class="cls-1" x1="159.27" y1="135.64" x2="168.99" y2="151.2"/><polyline class="cls-1" points="203.45 96.03 275.16 96.03 290.08 74.91"/><polyline class="cls-1" points="275.16 96.03 287.3 115.49 278.55 151.21"/><rect class="cls-2" y="1.26" width="300" height="149.94"/></svg>