<svg id="GrainLarge" xmlns="http://www.w3.org/2000/svg" viewBox="0 0 500 50"><defs><style>.cls-1{fill:none;stroke:#1d1d1b;stroke-miterlimit:10;}</style></defs><title>M_GrainLarge</title><polyline class="cls-1" points="0.01 42.34 16.25 39.16 24.2 7.01 22.32 0.01"/><line class="cls-1" x1="23.22" y1="49.61" x2="16.25" y2="39.16"/><polyline class="cls-1" points="50.5 49.61 81.72 46.17 86.22 49.61"/><line class="cls-1" x1="189.33" y1="49.61" x2="187.73" y2="46.17"/><polyline class="cls-1" points="443.98 49.61 434.96 46.17 447.87 15.63 437.36 0.01"/><polyline class="cls-1" points="500 2.99 496.62 0.86 447.87 15.63"/><line class="cls-1" x1="496.61" y1="0.85" x2="496.44" y2="0.01"/><path class="cls-1" d="M435,46.17H357.4L340.32,16.64,361.7,0"/><polyline class="cls-1" points="256.07 49.61 246.75 46.17 253.82 11.78 271.33 0.01"/><line class="cls-1" x1="340.32" y1="16.64" x2="292.53" y2="0.01"/><line class="cls-1" x1="253.82" y1="11.78" x2="235.85" y2="0.01"/><polyline class="cls-1" points="246.75 46.17 187.73 46.17 164.87 46.17 160.16 28.65 167.24 0.01"/><polyline class="cls-1" points="24.2 7.01 70.99 0.01 77.82 -1.01 78.89 0.01 100.08 20.19 81.72 46.17"/><polyline class="cls-1" points="127.47 0.01 125.23 0.85 123.89 0.01"/><polyline class="cls-1" points="160.16 28.64 100.08 20.19 125.24 0.86"/><polyline class="cls-1" points="164.88 46.17 164.87 46.17 151.49 49.61"/><line class="cls-1" x1="357.4" y1="46.17" x2="351.45" y2="49.61"/></svg>