<svg id="GrainsElongated" xmlns="http://www.w3.org/2000/svg" viewBox="0 0 500 100"><defs><style>.cls-1,.cls-2{fill:none;}.cls-1{stroke:#1d1d1b;stroke-miterlimit:10;}</style></defs><title>M_GrainElongated</title><polyline class="cls-1" points="372.28 78.55 350.42 87.57 350.75 87.77 367.63 97.86 365.37 100.01"/><polyline class="cls-1" points="476.82 100.01 491.46 90.9 500.67 84.25"/><polyline class="cls-1" points="500.67 84.25 500 83.57 484.1 67.32 500 63.39"/><polyline class="cls-1" points="472.13 47.65 475.35 52.28 500 57.29"/><polyline class="cls-1" points="460.66 100.01 424.74 90.9 367.63 97.86"/><polyline class="cls-1" points="424.74 90.89 416.92 75.38 437.17 66.2 484.1 67.31"/><polyline class="cls-1" points="475.35 52.28 437.17 66.2 377.8 55.76 352.49 47.65"/><polyline class="cls-1" points="416.92 75.38 372.28 78.55 341.91 68.26 377.8 55.76"/><polyline class="cls-1" points="244.02 100.01 241.6 98.33 271.97 88.84 350.75 87.77"/><polyline class="cls-1" points="341.91 68.26 260.46 66.2 239.4 76.65 271.97 88.83"/><polyline class="cls-1" points="260.46 66.2 241.6 55.76 241.6 47.26"/><line class="cls-1" x1="306.25" y1="67.15" x2="274.5" y2="47.26"/><polyline class="cls-1" points="241.6 98.33 169.24 88.21 140.25 96.04 138.22 100.01"/><polyline class="cls-1" points="169.23 88.2 196.22 66.2 239.4 76.65"/><polyline class="cls-1" points="140.24 96.03 96.07 84.4 82.95 71.35 111.6 64.7 165.27 58.71"/><polyline class="cls-1" points="96.07 84.41 39.82 88.84 32.95 100.01"/><polyline class="cls-1" points="111.6 64.7 119.54 47.65 196.22 66.2"/><polyline class="cls-1" points="48.1 61.85 10.82 71.35 39.81 88.83"/><polyline class="cls-1" points="32.47 84.4 32.46 84.4 0.01 89.31"/><line class="cls-1" x1="241.6" y1="55.76" x2="173.82" y2="60.78"/><line class="cls-1" x1="500" y1="74.64" x2="492.84" y2="75.39"/><polyline class="cls-1" points="91.93 19.28 113.78 10.26 113.46 10.07 113.45 10.07 97.16 0.32"/><polyline class="cls-1" points="96.58 -0.02 93.79 0.32 39.46 6.94 13.38 0.32"/><polyline class="cls-1" points="0.01 30.99 27.04 31.63 47.29 22.45 39.46 6.94"/><polyline class="cls-1" points="47.29 22.45 91.92 19.29 122.3 29.57 86.4 42.08"/><polyline class="cls-1" points="219.99 0.32 192.24 9 113.46 10.07 113.45 10.07"/><polyline class="cls-1" points="122.3 29.57 203.74 31.63 224.81 21.19 192.24 9"/><polyline class="cls-1" points="324.72 0.32 323.96 1.8 294.97 9.63 294.96 9.63 228.4 0.32 222.61 -0.49"/><polyline class="cls-1" points="294.97 9.63 276.64 24.58 270.64 29.47 268 31.63 266.04 31.16 261.59 30.08 224.8 21.19"/><polyline class="cls-1" points="323.96 1.8 368.14 13.43 381.25 26.49 352.61 33.13 318.24 36.97 318.22 36.97 306.02 38.33 298.95 39.12"/><polyline class="cls-1" points="368.13 13.43 368.14 13.43 424.39 9 429.73 0.32"/><polyline class="cls-1" points="316.52 43.38 308.34 41.4 302.22 39.92 298.95 39.12 295.94 38.39 288.83 36.68 279.9 34.51 274.4 33.18 268 31.63"/><polyline class="cls-1" points="381.25 26.49 416.11 35.98 423.36 50.19"/><polyline class="cls-1" points="416.11 35.98 453.38 26.49 424.39 9"/><line class="cls-1" x1="500" y1="46.27" x2="498.25" y2="50.19"/><line class="cls-1" x1="500" y1="36.2" x2="453.38" y2="26.49"/><polyline class="cls-1" points="434.75 15.25 500 12.36 501.1 12.31"/><line class="cls-1" x1="10.82" y1="71.35" x2="0.01" y2="69.1"/><line class="cls-1" x1="176.17" y1="42.08" x2="119.54" y2="47.65"/><line class="cls-1" x1="27.04" y1="31.63" x2="0.01" y2="41.49"/><line class="cls-1" x1="27.04" y1="31.63" x2="86.4" y2="42.08"/><line class="cls-1" x1="86.4" y1="42.08" x2="48.1" y2="61.85"/><polyline class="cls-1" points="0.01 48.63 47.29 61.63 48.1 61.85"/><line class="cls-1" x1="47.29" y1="61.63" x2="82.95" y2="71.35"/><line class="cls-1" x1="119.54" y1="47.65" x2="70.69" y2="50.19"/><line class="cls-1" x1="203.74" y1="31.63" x2="222.61" y2="42.08"/><line class="cls-1" x1="222.61" y1="42.08" x2="241.6" y2="47.26"/><line class="cls-1" x1="241.6" y1="47.26" x2="274.5" y2="47.26"/><line class="cls-1" x1="274.5" y1="47.26" x2="321.86" y2="44.67"/><line class="cls-1" x1="423.36" y1="50.19" x2="352.49" y2="47.65"/><line class="cls-1" x1="423.36" y1="50.19" x2="472.13" y2="47.65"/><line class="cls-1" x1="472.13" y1="47.65" x2="498.25" y2="50.19"/><line class="cls-1" x1="500" y1="50.12" x2="498.25" y2="50.19"/><line class="cls-1" x1="176.17" y1="42.08" x2="203.74" y2="31.63"/><line class="cls-1" x1="222.61" y1="42.08" x2="176.17" y2="42.08"/><line class="cls-1" x1="316.52" y1="43.38" x2="352.49" y2="47.65"/><rect class="cls-2" x="0.01" width="499.99" height="100.01"/></svg>