<svg id="GrainLarge" xmlns="http://www.w3.org/2000/svg" viewBox="0 0 650 150"><defs><style>.cls-1,.cls-2{fill:none;}.cls-1{stroke:#1d1d1b;stroke-miterlimit:10;}</style></defs><title>M_GrainLarge</title><polyline class="cls-1" points="0 50.22 16.24 46.45 24.19 8.35 22.31 0.06"/><polyline class="cls-1" points="0 106.92 9.17 114.28 15.36 150"/><polyline class="cls-1" points="9.17 114.28 40.98 90.41 16.24 46.45"/><polyline class="cls-1" points="40.98 90.41 84.28 116.97 79.27 150"/><polyline class="cls-1" points="187.72 54.75 203.45 94.83 159.27 134.43 84.28 116.97 102.64 73.7 81.7 54.75 25.08 62.15"/><polyline class="cls-1" points="554.01 0.06 553.54 1.06 537.05 31.3 557.47 54.75 514.3 90.62 453.78 63.26 434.95 54.75 447.86 18.57 437.35 0.06"/><polyline class="cls-1" points="619.99 0.06 627.82 16.18 617.9 57.76 602.82 64.22"/><polyline class="cls-1" points="537.05 31.3 496.6 1.06 447.86 18.57"/><line class="cls-1" x1="496.6" y1="1.06" x2="496.43" y2="0.06"/><path class="cls-1" d="M435,54.75H357.39l-17.08-35,21.38-19.7"/><polyline class="cls-1" points="287.29 114.28 326.95 109.77 314.3 84.29 290.08 73.7 246.74 54.75 253.81 14 271.32 0.06"/><line class="cls-1" x1="340.31" y1="19.76" x2="292.52" y2="0.06"/><line class="cls-1" x1="253.81" y1="14" x2="235.84" y2="0.06"/><polyline class="cls-1" points="246.74 54.75 187.72 54.75 164.86 54.75 160.15 33.99 167.23 0.06"/><polyline class="cls-1" points="24.19 8.35 70.98 0.06 77.81 -1.15 78.88 0.06 100.07 23.97 81.71 54.75"/><polyline class="cls-1" points="127.46 0.06 125.22 1.06 123.88 0.06"/><polyline class="cls-1" points="160.15 33.99 100.07 23.97 125.22 1.06"/><line class="cls-1" x1="102.64" y1="73.7" x2="164.86" y2="54.75"/><line class="cls-1" x1="159.27" y1="134.43" x2="168.99" y2="150"/><polyline class="cls-1" points="203.45 94.83 275.16 94.83 290.08 73.7"/><polyline class="cls-1" points="275.16 94.83 287.3 114.28 278.55 150"/><line class="cls-1" x1="357.39" y1="54.75" x2="314.3" y2="84.29"/><polyline class="cls-1" points="326.95 109.77 368.88 122.18 395.48 103.34 382.18 54.75"/><polyline class="cls-1" points="453.78 63.26 437.3 103.34 395.48 103.34"/><line class="cls-1" x1="368.87" y1="122.18" x2="377.53" y2="150"/><line class="cls-1" x1="437.3" y1="103.34" x2="440.75" y2="150"/><polyline class="cls-1" points="439.02 126.67 463.59 128.45 500.66 116.81 514.3 90.62 566.18 109.53 606.7 98.88"/><line class="cls-1" x1="500.66" y1="116.81" x2="529.97" y2="150"/><polyline class="cls-1" points="557.47 54.75 602.82 64.22 608.42 114.28 586.44 144.4 564.88 150"/><line class="cls-1" x1="566.18" y1="109.53" x2="574.31" y2="147.55"/><line class="cls-1" x1="649.97" y1="4.07" x2="642.47" y2="8.04"/><line class="cls-1" x1="649.97" y1="122.73" x2="608.42" y2="114.28"/><line class="cls-1" x1="586.44" y1="144.4" x2="595.49" y2="150"/><line class="cls-1" x1="627.82" y1="16.18" x2="642.47" y2="8.04"/><line class="cls-1" x1="649.97" y1="63.42" x2="617.9" y2="57.76"/><rect class="cls-2" y="0.06" width="649.97" height="149.94"/></svg>