<svg id="GrainsElongated" xmlns="http://www.w3.org/2000/svg" viewBox="0 0 300 150"><defs><style>.cls-1,.cls-2{fill:none;}.cls-1{stroke:#1d1d1b;stroke-miterlimit:10;}</style></defs><title>M_GrainElongated</title><polyline class="cls-1" points="62.79 111.84 81.22 127.79 29.45 143.53 0 141.2"/><path class="cls-1" d="M300,88.05L272,88.43l-30.37,9.5,20,13.91H300"/><polyline class="cls-1" points="271.95 88.43 239.39 76.25 260.45 65.8 300 66.8"/><polyline class="cls-1" points="260.45 65.8 241.58 55.36 241.58 46.86"/><line class="cls-1" x1="300" y1="62.85" x2="274.49" y2="46.86"/><polyline class="cls-1" points="179.47 135.52 225.93 133.72 211.11 123.59 131.95 111.84 140.23 95.63 169.22 87.8 241.58 97.93"/><polyline class="cls-1" points="169.22 87.8 196.21 65.8 239.39 76.25"/><polyline class="cls-1" points="140.23 95.63 96.06 84 82.94 70.94 111.59 64.3 165.25 58.31"/><polyline class="cls-1" points="131.95 111.84 36.01 111.84 30.48 103.58 39.8 88.43 96.06 84"/><polyline class="cls-1" points="111.59 64.3 119.53 47.24 196.21 65.8"/><polyline class="cls-1" points="48.09 61.45 10.81 70.94 39.8 88.43"/><polyline class="cls-1" points="32.46 84 32.45 84 0 88.91"/><line class="cls-1" x1="30.48" y1="103.59" y2="101.86"/><line class="cls-1" x1="36.01" y1="111.84" y2="115.56"/><line class="cls-1" x1="29.45" y1="143.53" x2="40.84" y2="149.73"/><polyline class="cls-1" points="81.22 127.78 165.25 127.78 182.73 119.38"/><polyline class="cls-1" points="165.25 127.78 179.47 135.52 169.22 149.73"/><line class="cls-1" x1="261.6" y1="111.84" x2="211.11" y2="123.59"/><polyline class="cls-1" points="225.93 133.73 275.06 138.66 300 132.67"/><line class="cls-1" x1="300" y1="123.44" x2="290.65" y2="111.84"/><line class="cls-1" x1="275.06" y1="138.66" x2="285.2" y2="149.73"/><line class="cls-1" x1="241.58" y1="55.36" x2="173.81" y2="60.38"/><polyline class="cls-1" points="91.92 18.88 113.77 9.86 113.45 9.67 113.44 9.67 97.15 -0.08"/><polyline class="cls-1" points="96.57 -0.42 93.78 -0.08 39.45 6.54 13.37 -0.08"/><polyline class="cls-1" points="0 30.59 27.03 31.23 47.28 22.05 39.45 6.54"/><polyline class="cls-1" points="47.28 22.05 91.91 18.88 122.28 29.17 86.39 41.67"/><polyline class="cls-1" points="219.98 -0.08 192.23 8.6 113.45 9.67 113.44 9.67"/><polyline class="cls-1" points="122.28 29.17 203.73 31.23 224.79 20.78 192.23 8.6"/><polyline class="cls-1" points="222.6 -0.89 228.39 -0.08 294.95 9.23 294.96 9.23 300 7.87"/><polyline class="cls-1" points="294.95 9.23 276.63 24.18 270.63 29.07 267.98 31.23 266.02 30.75 261.58 29.68 224.79 20.78"/><line class="cls-1" x1="300" y1="38.6" x2="298.94" y2="38.72"/><polyline class="cls-1" points="267.98 31.23 274.39 32.78 279.88 34.11 288.81 36.28 295.92 37.99 298.94 38.72 300 38.98"/><line class="cls-1" x1="10.81" y1="70.95" y2="68.7"/><line class="cls-1" x1="176.16" y1="41.67" x2="119.52" y2="47.24"/><line class="cls-1" x1="27.03" y1="31.23" y2="41.09"/><line class="cls-1" x1="27.03" y1="31.23" x2="86.39" y2="41.67"/><line class="cls-1" x1="86.39" y1="41.67" x2="48.09" y2="61.45"/><polyline class="cls-1" points="0 48.23 47.28 61.23 48.09 61.45"/><line class="cls-1" x1="47.28" y1="61.23" x2="82.94" y2="70.94"/><line class="cls-1" x1="119.52" y1="47.24" x2="69.09" y2="49.79"/><line class="cls-1" x1="203.73" y1="31.23" x2="222.6" y2="41.67"/><line class="cls-1" x1="222.6" y1="41.67" x2="241.58" y2="46.86"/><line class="cls-1" x1="241.58" y1="46.86" x2="274.49" y2="46.86"/><line class="cls-1" x1="300" y1="45.46" x2="274.49" y2="46.86"/><line class="cls-1" x1="176.16" y1="41.67" x2="203.73" y2="31.23"/><line class="cls-1" x1="222.6" y1="41.67" x2="176.16" y2="41.67"/><rect class="cls-2" y="-0.08" width="300" height="149.85"/></svg>