<svg id="GrainLarge" xmlns="http://www.w3.org/2000/svg" viewBox="0 0 650 50"><defs><style>.cls-1,.cls-2{fill:none;}.cls-1{stroke:#1d1d1b;stroke-miterlimit:10;}</style></defs><title>M_GrainLarge</title><polyline class="cls-1" points="0.01 42.74 16.25 39.55 24.2 7.4 22.32 0.4"/><line class="cls-1" x1="23.22" y1="50" x2="16.25" y2="39.55"/><polyline class="cls-1" points="50.5 50 81.72 46.56 86.22 50"/><line class="cls-1" x1="189.33" y1="50" x2="187.73" y2="46.56"/><polyline class="cls-1" points="443.98 50 434.96 46.56 447.87 16.02 437.36 0.4"/><polyline class="cls-1" points="552.57 50 557.48 46.56 537.07 26.77 537.06 26.77 553.55 1.25 554.02 0.4"/><polyline class="cls-1" points="617.38 50 627.83 14.01 620 0.4"/><polyline class="cls-1" points="537.07 26.77 496.62 1.25 447.87 16.02"/><line class="cls-1" x1="496.61" y1="1.25" x2="496.44" y2="0.4"/><path class="cls-1" d="M435,46.56H357.4L340.32,17,361.7,0.4"/><polyline class="cls-1" points="256.07 50 246.75 46.56 253.82 12.17 271.33 0.4"/><line class="cls-1" x1="340.32" y1="17.03" x2="292.53" y2="0.4"/><line class="cls-1" x1="253.82" y1="12.17" x2="235.85" y2="0.4"/><polyline class="cls-1" points="246.75 46.56 187.74 46.56 164.88 46.56 160.16 29.04 167.25 0.4"/><polyline class="cls-1" points="24.2 7.4 71 0.4 77.83 -0.62 78.89 0.4 100.08 20.58 81.72 46.56"/><polyline class="cls-1" points="127.47 0.4 125.23 1.25 123.89 0.4"/><polyline class="cls-1" points="160.17 29.04 100.08 20.58 125.24 1.25"/><polyline class="cls-1" points="164.88 46.56 164.87 46.56 151.49 50"/><line class="cls-1" x1="357.4" y1="46.56" x2="351.45" y2="50"/><line class="cls-1" x1="577" y1="50" x2="557.48" y2="46.56"/><line class="cls-1" x1="649.98" y1="3.79" x2="642.48" y2="7.14"/><line class="cls-1" x1="627.83" y1="14.01" x2="642.49" y2="7.14"/><polyline class="cls-2" points="0.01 50 0.01 0.4 649.98 0.4 649.98 50"/></svg>