<svg id="GrainSmall" xmlns="http://www.w3.org/2000/svg" viewBox="0 0 300 100"><defs><style>.cls-1,.cls-2{fill:none;}.cls-2{stroke:#1d1d1b;stroke-miterlimit:10;}</style></defs><title>M_GrainSmall</title><rect class="cls-1" y="55.8" width="300" height="44.2"/><polyline class="cls-2" points="31.68 96.64 36.24 86.94 45.8 69.41 33.96 55.81 33.97 55.8 59 35 98.46 52.84 105 55.8 105.02 55.81 97.54 76.79 105.89 91.51 106.05 91.79 99.29 100"/><polyline class="cls-2" points="0 92.25 9.91 93.62 31.68 96.64 32.8 100"/><polyline class="cls-2" points="45.8 69.4 69.26 86.94 97.53 76.79"/><line class="cls-2" x1="71.5" y1="100" x2="69.26" y2="86.94"/><path class="cls-2" d="M105,55.8h45l9.91,20.29-15,13.85-39,1.56"/><line class="cls-2" x1="154.01" y1="100" x2="144.88" y2="89.94"/><polyline class="cls-2" points="175 38.67 214.18 55.8 210.08 79.44 195.73 90.86 159.91 76.09"/><line class="cls-2" x1="195.73" y1="90.87" x2="191.93" y2="100"/><polyline class="cls-2" points="233.17 100 231.95 96.41 210.08 79.44"/><polyline class="cls-2" points="214.18 55.8 261.67 55.8 264.4 67.84 259.79 89.94 231.95 96.4"/><polyline class="cls-2" points="259.79 89.94 264.92 99.05 265.45 100"/><polyline class="cls-2" points="264.92 99.05 297.76 94.75 297.77 94.76 300 96.78"/><path class="cls-2" d="M9.91,93.62c0.09-2,4.75-22.29,4.75-22.29L34,55.8,0,38.67"/><line class="cls-2" x1="14.67" y1="71.33" y2="62.33"/><polyline class="cls-2" points="9.51 43.47 25.31 30.22 41.22 32.48 59 35 79.5 21.75 97.53 29 98.46 52.84"/><polyline class="cls-2" points="4.5 0 19.94 9 25.31 30.22"/><polyline class="cls-2" points="19.94 9 43 12.25 51.37 33.92"/><polyline class="cls-2" points="43 12.25 63 9 79.5 21.75"/><line class="cls-2" x1="63" y1="9" x2="56.51"/><polyline class="cls-2" points="73.14 16.83 94.75 7.5 97.53 0"/><polyline class="cls-2" points="97.53 29 127.92 20.33 117 7 94.75 7.5"/><line class="cls-2" x1="117" y1="7" x2="121.67"/><polyline class="cls-2" points="150.01 55.8 154.95 42 127.92 20.33"/><polyline class="cls-2" points="154.95 42 175 38.67 172 18 147.33 7 127.92 0"/><polyline class="cls-2" points="172 18 197.7 8.42 214.18 11 232.5 38.67 229 55.8"/><rect class="cls-1" x="297.76" y="0.56" width="2.24" height="94.2"/><polyline class="cls-2" points="300 39.53 297.76 44.81 261.67 55.8 259.28 37.54"/><line class="cls-2" x1="197.7" y1="8.42" x2="197.7" y2="0.56"/><line class="cls-2" x1="214.18" y1="11" x2="228.5" y2="0.56"/><path class="cls-2" d="M232.5,38.67c3.5,0.33,26.78-1.12,26.78-1.12l14.86-19.7L271.5,0"/><polyline class="cls-2" points="274.14 17.84 294.5 29 297.76 28.92 300 28.86"/><polyline class="cls-2" points="264.4 67.84 295.5 62.33 297.76 64.88 300 67.41"/><line class="cls-2" x1="300" y1="91" x2="297.76" y2="94.75"/><polyline class="cls-2" points="300 46.48 297.76 44.81 296.34 55.8 295.5 62.33"/></svg>