<svg id="GrainLarge" xmlns="http://www.w3.org/2000/svg" viewBox="0 0 500 100"><defs><style>.cls-1,.cls-2{fill:none;}.cls-1{stroke:#1d1d1b;stroke-miterlimit:10;}</style></defs><title>M_GrainLarge</title><polyline class="cls-1" points="0 50.11 16.24 46.34 24.19 8.24 22.31 -0.05"/><polyline class="cls-1" points="16.24 46.34 16.24 46.35 25.08 62.05 40.98 90.31 28.07 100"/><line class="cls-1" x1="56.78" y1="100" x2="40.98" y2="90.31"/><polyline class="cls-1" points="25.08 62.05 81.71 54.64 102.64 73.6 91.44 100"/><polyline class="cls-1" points="197.56 100 203.45 94.72 187.72 54.65 187.72 54.64"/><polyline class="cls-1" points="437.35 -0.05 447.86 18.46 434.95 54.64 453.78 63.15 500.66 84.34"/><polyline class="cls-1" points="447.86 18.46 496.6 0.96 500.66 4"/><line class="cls-1" x1="496.6" y1="0.95" x2="496.43" y2="-0.05"/><path class="cls-1" d="M435,54.64H357.39l-17.08-35L361.69,0"/><polyline class="cls-1" points="322.15 100 314.3 84.19 290.08 73.6 246.74 54.65 253.81 13.9 271.32 -0.04"/><line class="cls-1" x1="340.31" y1="19.65" x2="292.52" y2="-0.05"/><line class="cls-1" x1="253.81" y1="13.89" x2="235.84" y2="-0.05"/><polyline class="cls-1" points="246.74 54.64 187.72 54.64 164.86 54.64 160.15 33.88 167.23 -0.05"/><polyline class="cls-1" points="78.87 -0.05 78.88 -0.04 100.07 23.87 81.71 54.65"/><polyline class="cls-1" points="24.19 8.25 70.98 -0.04 71.04 -0.05"/><polyline class="cls-1" points="127.46 -0.05 125.22 0.95 123.88 -0.05"/><polyline class="cls-1" points="160.15 33.88 100.07 23.86 125.22 0.95"/><line class="cls-1" x1="102.64" y1="73.59" x2="164.86" y2="54.64"/><polyline class="cls-1" points="203.45 94.72 275.16 94.72 290.08 73.59"/><line class="cls-1" x1="278.45" y1="100" x2="275.16" y2="94.72"/><line class="cls-1" x1="357.39" y1="54.64" x2="314.3" y2="84.19"/><polyline class="cls-1" points="382.18 54.64 382.18 54.65 394.59 100"/><line class="cls-1" x1="453.78" y1="63.16" x2="438.63" y2="100"/><rect class="cls-2" y="-0.05" width="500.66" height="100.05"/></svg>