<svg id="Inclusion_Grain_Large_" data-name="Inclusion (Grain Large)" xmlns="http://www.w3.org/2000/svg" viewBox="0 0 650 150"><defs><style>.cls-1{fill:none;}.cls-2{fill:#fff;stroke:#1d1d1b;stroke-miterlimit:10;stroke-width:0.5px;}</style></defs><title>M_InclusionGrainLarge</title><rect class="cls-1" width="650.09" height="150.03"/><path class="cls-2" d="M164,54.31c1.62,2.16-4.76,2.88-3,4.45S168.63,62,170.94,64s2.94,4.15,7.14,4.87,8.7,0.64,7.76,0a6.23,6.23,0,0,1-2.36-2.09C182,65,181.67,64.3,179.2,63s-3.34-.86-2.17-2.42,3.19-2.64.34-3.89-3.92-.62-7-1.51S163,52.93,164,54.31Z"/><path class="cls-2" d="M233.59,43.76c0.26,2.05.76,3.71,1.77,4.63s4.8,2.29,6.55,2.57,6.95,0.61,6.83-.35,1.31-2.69-.38-3.53-5.67,1.55-6.79-.09-1.64-1.25-3.75-2.47S233.43,42.46,233.59,43.76Z"/><path class="cls-2" d="M355.27,116s11.53-5.91,4.08-6-7.91-2.33-24.36.33-13.83,3.05-12.3,3.84,6.44,0.23,11-.05,9.84-1.26,12.72-.69-2.09,1.64-.53,2.42S353,117.28,355.27,116Z"/><path class="cls-2" d="M84,111a134.62,134.62,0,0,0-15.53-2,55.13,55.13,0,0,0-11.89,1.28c-1.88.58-6,2.61-2.92,3.13s7.66,2.15,11.28,1.92-1.5-3.33,4.29-2.85,4.87,0,9.94-.14S88.13,111.66,84,111Z"/><path class="cls-2" d="M61,78.31c4.59,2,.62,3,4.42,4.43s11,2.64,15.84,4.35,8.66,3.77,13.12,4.21,7.9,0.08,6.2-.46A34.57,34.57,0,0,1,95.48,89a64.16,64.16,0,0,0-9.18-3.34c-4-1.09-4-.62-5.43-2.17s-1.5-2.71-5.66-3.73-4.06-.35-7.91-1S58,77.06,61,78.31Z"/><path class="cls-2" d="M323.17,37.07a132.26,132.26,0,0,0-15.26-1.94,54.16,54.16,0,0,0-11.68,1.26c-1.84.57-5.9,2.56-2.87,3.07s7.52,2.11,11.08,1.89-1.48-3.27,4.22-2.8,4.79,0,9.77-.14S327.27,37.76,323.17,37.07Z"/><path class="cls-2" d="M271.13,86.42s-6.41.58-4.67,1.74,4.67,2.93,4.67,2.93H278s4-.81,2.35-2.34-1.94-2.57-3.42-2.34A46.52,46.52,0,0,1,271.13,86.42Z"/><path class="cls-2" d="M352.7,44.49s-12,1.08-8.73,3.25,8.73,5.48,8.73,5.48h12.83s7.54-1.52,4.38-4.37-3.62-4.8-6.39-4.37S352.7,44.49,352.7,44.49Z"/><path class="cls-2" d="M434.15,135c-6,.77-7.35-1-11.74-0.24s-9.5,2.66-15,3.6-11.45,1.43-13.8,2.75-2.52,2.61-.76,2.25a48.34,48.34,0,0,1,5.84-1,93.77,93.77,0,0,0,10.59-1.77c3.74-.9,2.63-1.09,6.73-1s6.84,0.56,10.46-.44,2-1.22,4.72-2.25S437.95,134.49,434.15,135Z"/><path class="cls-2" d="M490.3,109.65s-6.41.58-4.67,1.74,4.67,2.93,4.67,2.93h6.86s4-.81,2.35-2.34-1.94-2.57-3.42-2.34A46.52,46.52,0,0,1,490.3,109.65Z"/><path class="cls-2" d="M380.44,78.72c-4.09-.13-6.48,2.93-9.34,2.57s-5.4-2.51-8.94-3-7.85-.18-8.68-1.86,0-3.72,1.11-3.47,0.52,0.3,3.82.48,4.68,0.13,6.92.88,1.23,1.26,4.52.31,5.75-2.16,7.82-1.22,0.65,1.59,2,2.74S383,78.8,380.44,78.72Z"/><path class="cls-2" d="M447,23.16A6.22,6.22,0,0,0,448.41,27a15.74,15.74,0,0,0,5.4,2.12c1.44,0.22,5.73.5,5.63-.29s1.08-2.22-.31-2.91-4.67,1.27-5.6-.07-1.36-1-3.09-2S446.83,22.09,447,23.16Z"/><path class="cls-2" d="M306.6,10.68a8.87,8.87,0,0,0-8-4.13c-5.54.31-9.84-1.08-16.7,1.53s-4.3,2.72-1.8,3.15,5-.2,7.72-0.63,4.72-1.34,7.79-1.13,1.49,1.18,4,1.6S307.26,11.6,306.6,10.68Z"/><path class="cls-2" d="M27.33,141.48s-5.29.48-3.85,1.43,3.85,2.42,3.85,2.42H33s3.33-.67,1.93-1.93-1.6-2.12-2.82-1.93A38.35,38.35,0,0,1,27.33,141.48Z"/><path class="cls-2" d="M131.21,35.26a14.1,14.1,0,0,0-3.79-5.3,25.68,25.68,0,0,0-7.76-2.73c-1.89-.25-7.32-0.45-6.79.66s-0.17,3.17,1.91,4.08,5.09-2,6.95-.14,2.2,1.38,4.87,2.72S131.93,36.77,131.21,35.26Z"/><path class="cls-2" d="M558.5,47.63c-4.78-.11-3.57-1.87-7.28-1.8s-9.33,1.11-14,1.22-9.1-.26-12.2.61-4.76,2-3.19,1.92a39,39,0,0,1,4.94-.09,73.87,73.87,0,0,0,9-.17c3.49-.3,3-0.62,5.5,0s3.74,1.42,7.28,1,2.78-.83,5.75-1.39S561.54,47.71,558.5,47.63Z"/><path class="cls-2" d="M271.22,115.49a7.78,7.78,0,0,0-7-4.27c-5.13,0-9-1.53-15.51.54s-4.21,2.31-1.94,2.83,4.61,0.08,7.16-.18,4.46-1,7.27-.64,1.26,1.17,3.54,1.7S271.74,116.39,271.22,115.49Z"/><path class="cls-2" d="M373,29.77s9.42-.35,10.39-1.74,4.91-2.36,1.74-4.21-4.12-1.22-5.66-.63-1,1.24-1,1.94,1.31,1.24,0,2-2.73.3-4.26,0.89S371,29.88,373,29.77Z"/><path class="cls-2" d="M123.91,105.93c0.37,3,1.1,5.37,2.55,6.69s6.94,3.32,9.47,3.71,10,0.88,9.87-.51,1.9-3.89-.55-5.11-8.19,2.23-9.82-.13-2.38-1.8-5.42-3.57S123.68,104,123.91,105.93Z"/><path class="cls-2" d="M549.94,80.74s-9.88.89-7.2,2.68,7.2,4.52,7.2,4.52h10.58s6.22-1.25,3.61-3.6-3-4-5.27-3.6A71.7,71.7,0,0,1,549.94,80.74Z"/><path class="cls-2" d="M175.68,135.4s-9.88.89-7.2,2.68,7.2,4.52,7.2,4.52h10.58s6.22-1.25,3.61-3.6-3-4-5.27-3.6A71.7,71.7,0,0,1,175.68,135.4Z"/><path class="cls-2" d="M624.41,25.24s-10.84.86-7.9,2.59,7.9,4.37,7.9,4.37H636s6.82-1.21,4-3.48-3.27-3.83-5.78-3.48A89.24,89.24,0,0,1,624.41,25.24Z"/><path class="cls-2" d="M205.14,11.43c-4.88-.84-2.72-2.48-6.58-3s-10.19-.26-15-0.85S174.27,6,170.63,6.39s-5.95,1.36-4.28,1.51a40.32,40.32,0,0,1,5.14.66,74.4,74.4,0,0,0,9.32,1.19c3.76,0.21,3.42-.19,5.66.87s3.13,2,7,2.15,3.28-.44,6.64-0.57S208.24,12,205.14,11.43Z"/><path class="cls-2" d="M36.19,40.15c-0.61-2,7.09-2.59,5.95-4S35.3,33,33.76,31.25s-1-3.82-5.38-4.53-9.58-.68-8.86-0.1A3,3,0,0,1,21,28.55c0.7,1.63.67,2.28,2.75,3.5s3.32,0.82,1.1,2.24-5.14,2.38-2.59,3.55,4.13,0.6,7.19,1.45S36.59,41.42,36.19,40.15Z"/><path class="cls-2" d="M417.54,87.39c0.26,2.05.76,3.71,1.77,4.63s4.8,2.29,6.55,2.57,6.95,0.61,6.83-.35,1.31-2.69-.38-3.53-5.67,1.55-6.79-.09-1.64-1.25-3.75-2.47S417.38,86.08,417.54,87.39Z"/><path class="cls-2" d="M561.89,105.55c0.31,2.45.91,4.43,2.11,5.52s5.73,2.73,7.8,3.06,8.28,0.72,8.14-.42,1.57-3.21-.46-4.21-6.75,1.84-8.1-.11-2-1.49-4.47-2.94S561.7,104,561.89,105.55Z"/><path class="cls-2" d="M4.61,74.77S14,74.42,15,73s4.91-2.36,1.74-4.21-4.12-1.22-5.66-.63-1,1.24-1,1.94,1.31,1.24,0,2S7.4,72.41,5.87,73,2.6,74.88,4.61,74.77Z"/><path class="cls-2" d="M491.91,80.77s-10.84.86-7.9,2.59,7.9,4.37,7.9,4.37h11.61s6.82-1.21,4-3.48-3.27-3.83-5.78-3.48A89.24,89.24,0,0,1,491.91,80.77Z"/><path class="cls-2" d="M541.5,18.41c-2.92-2.3-5.63-3.85-7.95-3.92s-8.44,2.31-10.79,3.85-8.74,6.75-7.38,7.83,1.94,4.81,5,4,4.52-8.07,7.9-7.23,3.48-.21,7.45-0.94S543.35,19.88,541.5,18.41Z"/></svg>