<svg id="Inclusion_Grain_Large_" data-name="Inclusion (Grain Large)" xmlns="http://www.w3.org/2000/svg" viewBox="0 0 300 50"><defs><style>.cls-1{fill:none;}.cls-2{fill:#fff;stroke:#1d1d1b;stroke-miterlimit:10;stroke-width:0.5px;}</style></defs><title>M_InclusionGrainLarge</title><rect class="cls-1" y="0.24" width="300" height="50.14"/><path class="cls-2" d="M164,4.73c1.62,2.16-4.76,2.88-3,4.45s7.61,3.27,9.92,5.21,2.94,4.15,7.14,4.87,8.7,0.64,7.76,0a6.23,6.23,0,0,1-2.36-2.09c-1.49-1.76-1.82-2.48-4.29-3.78S175.86,12.55,177,11s3.19-2.64.34-3.89-3.92-.62-7-1.51S163,3.35,164,4.73Z"/><path class="cls-2" d="M248.73,4c0.12,1-5.08.63-6.83,0.36s-5.54-1.65-6.54-2.57a4.49,4.49,0,0,1-1-1.57h7.12l0.12,0.16c1.12,1.63,5.1-.75,6.79.09S248.61,3.06,248.73,4Z"/><path class="cls-2" d="M61,28.72c4.59,2,.62,3,4.42,4.43s11,2.64,15.84,4.35,8.66,3.77,13.12,4.21,7.9,0.08,6.2-.46a34.57,34.57,0,0,1-5.06-1.84,64.16,64.16,0,0,0-9.18-3.34c-4-1.09-4-.62-5.43-2.17s-1.5-2.71-5.66-3.73-4.06-.35-7.91-1S58,27.48,61,28.72Z"/><path class="cls-2" d="M271.13,36.84s-6.41.58-4.67,1.74,4.67,2.93,4.67,2.93H278s4-.81,2.35-2.34-1.94-2.57-3.42-2.34A46.52,46.52,0,0,1,271.13,36.84Z"/><path class="cls-2" d="M4.61,25.19S14,24.83,15,23.45s4.91-2.36,1.74-4.21S12.61,18,11.07,18.6s-1,1.24-1,1.94,1.31,1.24,0,2-2.73.3-4.26,0.89S2.6,25.29,4.61,25.19Z"/></svg>