<svg id="Inclusion_Grain_Large_" data-name="Inclusion (Grain Large)" xmlns="http://www.w3.org/2000/svg" viewBox="0 0 300 100"><defs><style>.cls-1{fill:none;}.cls-2{fill:#fff;stroke:#1d1d1b;stroke-miterlimit:10;stroke-width:0.5px;}</style></defs><title>M_InclusionGrainLarge</title><rect class="cls-1" x="0.99" y="0.16" width="299.01" height="99.69"/><path class="cls-2" d="M165,54.47c1.62,2.16-4.76,2.88-3,4.45s7.61,3.27,9.92,5.21,2.94,4.15,7.14,4.87,8.7,0.64,7.76,0a6.23,6.23,0,0,1-2.36-2.09c-1.49-1.76-1.82-2.48-4.29-3.78s-3.34-.86-2.17-2.42,3.19-2.64.34-3.89-3.92-.62-7-1.51S164,53.1,165,54.47Z"/><path class="cls-2" d="M234.57,43.92c0.26,2.05.76,3.71,1.77,4.63s4.8,2.29,6.55,2.57,6.95,0.61,6.83-.35,1.31-2.69-.38-3.53-5.67,1.55-6.79-.09-1.64-1.25-3.75-2.47S234.42,42.62,234.57,43.92Z"/><path class="cls-2" d="M61.94,78.47c4.59,2,.62,3,4.42,4.43s11,2.64,15.84,4.35S90.87,91,95.32,91.45s7.9,0.08,6.2-.46a34.57,34.57,0,0,1-5.06-1.84,64.16,64.16,0,0,0-9.18-3.34c-4-1.09-4-.62-5.43-2.17s-1.5-2.71-5.66-3.73-4.06-.35-7.91-1S59,77.22,61.94,78.47Z"/><path class="cls-2" d="M300,36v4.92c-2.06-.45-4.07-1-5.66-1.29-3-.51,1-2.5,2.87-3.07A24.24,24.24,0,0,1,300,36Z"/><path class="cls-2" d="M272.11,86.59s-6.41.58-4.67,1.74,4.67,2.93,4.67,2.93H279s4-.81,2.35-2.34-1.94-2.57-3.42-2.34A46.52,46.52,0,0,1,272.11,86.59Z"/><path class="cls-2" d="M300,6.69V11.1c-1.73-.46-0.64-1.28-3.45-1.47-3.07-.22-5.06.7-7.79,1.13s-5.22,1-7.72.63-5.07-.54,1.8-3.15S294,7,299.54,6.71Z"/><path class="cls-2" d="M132.19,35.42a14.1,14.1,0,0,0-3.79-5.3,25.68,25.68,0,0,0-7.76-2.73c-1.89-.25-7.32-0.45-6.79.66s-0.17,3.17,1.91,4.08,5.09-2,6.95-.14,2.2,1.38,4.87,2.72S132.92,36.93,132.19,35.42Z"/><path class="cls-2" d="M206.13,11.59c-4.88-.84-2.72-2.48-6.58-3s-10.19-.26-15-0.85-9.26-1.65-12.9-1.21-5.95,1.36-4.28,1.51a40.32,40.32,0,0,1,5.14.66,74.4,74.4,0,0,0,9.32,1.19c3.76,0.21,3.42-.19,5.66.87s3.13,2,7,2.15,3.28-.44,6.64-0.57S209.22,12.13,206.13,11.59Z"/><path class="cls-2" d="M37.18,40.32c-0.61-2,7.09-2.59,5.95-4s-6.84-3.07-8.38-4.87-1-3.82-5.38-4.53-9.58-.68-8.86-0.1A3,3,0,0,1,22,28.71c0.7,1.63.67,2.28,2.75,3.5s3.32,0.82,1.1,2.24S20.72,36.84,23.27,38s4.13,0.6,7.19,1.45S37.57,41.58,37.18,40.32Z"/><path class="cls-2" d="M5.6,74.93S15,74.58,16,73.19,20.9,70.83,17.72,69s-4.12-1.22-5.66-.63-1,1.24-1,1.94,1.31,1.24,0,2-2.73.3-4.26,0.89S3.59,75,5.6,74.93Z"/></svg>