<svg id="Inclusion_Grain_Large_" data-name="Inclusion (Grain Large)" xmlns="http://www.w3.org/2000/svg" viewBox="0 0 500 100"><defs><style>.cls-1{fill:none;}.cls-2{fill:#fff;stroke:#1d1d1b;stroke-miterlimit:10;stroke-width:0.5px;}</style></defs><title>M_InclusionGrainLarge</title><rect class="cls-1" x="0.01" y="0.32" width="500.07" height="99.68"/><path class="cls-2" d="M164,54.63c1.62,2.16-4.76,2.88-3,4.45s7.61,3.27,9.92,5.21,2.94,4.15,7.14,4.87,8.7,0.64,7.76,0a6.23,6.23,0,0,1-2.36-2.09c-1.49-1.76-1.82-2.48-4.29-3.78s-3.34-.86-2.17-2.42,3.19-2.64.34-3.89-3.92-.62-7-1.51S163,53.26,164,54.63Z"/><path class="cls-2" d="M233.6,44.09c0.26,2.05.76,3.71,1.77,4.63s4.8,2.29,6.55,2.57,6.95,0.61,6.83-.35,1.31-2.69-.38-3.53-5.67,1.55-6.79-.09-1.64-1.25-3.75-2.47S233.44,42.78,233.6,44.09Z"/><path class="cls-2" d="M61,78.63c4.59,2,.62,3,4.42,4.43s11,2.64,15.84,4.35,8.66,3.77,13.12,4.21,7.9,0.08,6.2-.46a34.57,34.57,0,0,1-5.06-1.84A64.16,64.16,0,0,0,86.31,86c-4-1.09-4-.62-5.43-2.17s-1.5-2.71-5.66-3.73-4.06-.35-7.91-1S58.06,77.39,61,78.63Z"/><path class="cls-2" d="M323.18,37.4a132.26,132.26,0,0,0-15.26-1.94,54.16,54.16,0,0,0-11.68,1.26c-1.84.57-5.9,2.56-2.87,3.07s7.52,2.11,11.08,1.89-1.48-3.27,4.22-2.8,4.79,0,9.77-.14S327.28,38.09,323.18,37.4Z"/><path class="cls-2" d="M271.14,86.75s-6.41.58-4.67,1.74,4.67,2.93,4.67,2.93H278s4-.81,2.35-2.34-1.94-2.57-3.42-2.34A46.52,46.52,0,0,1,271.14,86.75Z"/><path class="cls-2" d="M352.72,44.82s-12,1.08-8.73,3.25,8.73,5.48,8.73,5.48h12.83s7.54-1.52,4.38-4.37-3.62-4.8-6.39-4.37S352.72,44.82,352.72,44.82Z"/><path class="cls-2" d="M380.45,79c-4.09-.13-6.48,2.93-9.34,2.57s-5.4-2.51-8.94-3-7.85-.18-8.68-1.86,0-3.72,1.11-3.47,0.52,0.3,3.82.48,4.68,0.13,6.92.88,1.23,1.26,4.52.31,5.75-2.16,7.82-1.22,0.65,1.59,2,2.74S383,79.13,380.45,79Z"/><path class="cls-2" d="M447,23.49a6.22,6.22,0,0,0,1.46,3.82,15.74,15.74,0,0,0,5.4,2.12c1.44,0.22,5.73.5,5.63-.29s1.08-2.22-.31-2.91-4.67,1.27-5.6-.07-1.36-1-3.09-2S446.84,22.42,447,23.49Z"/><path class="cls-2" d="M306.61,11a8.87,8.87,0,0,0-8-4.13c-5.54.31-9.84-1.08-16.7,1.53s-4.3,2.72-1.8,3.15,5-.2,7.72-0.63,4.72-1.34,7.79-1.13,1.49,1.18,4,1.6S307.28,11.93,306.61,11Z"/><path class="cls-2" d="M131.22,35.59a14.1,14.1,0,0,0-3.79-5.3,25.68,25.68,0,0,0-7.76-2.73c-1.89-.25-7.32-0.45-6.79.66s-0.17,3.17,1.91,4.08,5.09-2,6.95-.14,2.2,1.38,4.87,2.72S131.95,37.09,131.22,35.59Z"/><path class="cls-2" d="M373,30.1s9.42-.35,10.39-1.74,4.91-2.36,1.74-4.21-4.12-1.22-5.66-.63-1,1.24-1,1.94,1.31,1.24,0,2-2.73.3-4.26,0.89S371,30.21,373,30.1Z"/><path class="cls-2" d="M205.16,11.76c-4.88-.84-2.72-2.48-6.58-3s-10.19-.26-15-0.85-9.26-1.65-12.9-1.21-5.95,1.36-4.28,1.51a40.32,40.32,0,0,1,5.14.66,74.4,74.4,0,0,0,9.32,1.19c3.76,0.21,3.42-.19,5.66.87s3.13,2,7,2.15,3.28-.44,6.64-0.57S208.25,12.29,205.16,11.76Z"/><path class="cls-2" d="M36.2,40.48c-0.61-2,7.09-2.59,5.95-4s-6.84-3.07-8.38-4.87-1-3.82-5.38-4.53-9.58-.68-8.86-0.1A3,3,0,0,1,21,28.88c0.7,1.63.67,2.28,2.75,3.5s3.32,0.82,1.1,2.24S19.75,37,22.3,38.17s4.13,0.6,7.19,1.45S36.6,41.75,36.2,40.48Z"/><path class="cls-2" d="M417.55,87.72c0.26,2.05.76,3.71,1.77,4.63s4.8,2.29,6.55,2.57,6.95,0.61,6.83-.35,1.31-2.69-.38-3.53-5.67,1.55-6.79-.09-1.64-1.25-3.75-2.47S417.39,86.41,417.55,87.72Z"/><path class="cls-2" d="M4.62,75.1S14,74.74,15,73.36s4.91-2.36,1.74-4.21-4.12-1.22-5.66-.63-1,1.24-1,1.94,1.31,1.24,0,2-2.73.3-4.26,0.89S2.62,75.2,4.62,75.1Z"/><path class="cls-2" d="M500.08,81.22v6.84h-8.16s-5-2.65-7.89-4.37,7.89-2.59,7.89-2.59S496.94,81.33,500.08,81.22Z"/></svg>