<svg id="Inclusion_Grain_Small_" data-name="Inclusion (Grain Small)" xmlns="http://www.w3.org/2000/svg" viewBox="0 0 300 100"><defs><style>.cls-1{fill:none;}.cls-2{fill:#fff;stroke:#1d1d1b;stroke-miterlimit:10;stroke-width:0.5px;}</style></defs><title>M_InclusionGrainSmall</title><rect class="cls-1" y="-0.05" width="300.58" height="99.47"/><path class="cls-2" d="M94.7,67c0.89,3.22-2.62,4.29-1.64,6.62s4.19,4.86,5.46,7.75,1.62,6.17,3.93,7.26,4.78,1,4.27,0a8.59,8.59,0,0,1-1.3-3.11c-0.82-2.62-1-3.69-2.36-5.63s-1.84-1.28-1.2-3.61,1.75-3.93.18-5.78-2.16-.92-3.87-2.26S94.14,65,94.7,67Z"/><path class="cls-2" d="M147.17,51.37a24.52,24.52,0,0,0,1,6.89,9.79,9.79,0,0,0,3.6,3.82c1,0.41,3.82.9,3.76-.53s0.72-4-.21-5.26-3.12,2.3-3.74-.13-0.9-1.86-2.06-3.68S147.08,49.43,147.17,51.37Z"/><path class="cls-2" d="M62,59.47c-3.61-1.64-6.64-2.78-8.54-2.94a12.71,12.71,0,0,0-6.54,1.91c-1,.87-3.3,3.88-1.61,4.65s4.21,3.2,6.21,2.86-0.83-5,2.36-4.24,2.68,0.05,5.47-.21S64.33,60.51,62,59.47Z"/><path class="cls-2" d="M38.53,85.91c2.52,2.92.34,4.53,2.43,6.59S47,96.44,49.68,99s4.77,5.61,7.22,6.26,4.34,0.11,3.41-.69a15.66,15.66,0,0,1-2.78-2.74,29.87,29.87,0,0,0-5.05-5c-2.18-1.62-2.18-.92-3-3.24s-0.82-4-3.12-5.55-2.24-.52-4.35-1.5S36.93,84.06,38.53,85.91Z"/><path class="cls-2" d="M180,17.33c-3.55-1.61-6.52-2.73-8.39-2.89a12.49,12.49,0,0,0-6.43,1.88c-1,.85-3.24,3.82-1.58,4.57s4.14,3.14,6.1,2.81-0.81-4.87,2.32-4.17,2.63,0.05,5.37-.21S182.28,18.35,180,17.33Z"/><path class="cls-2" d="M209.23,50s-6.59,1.61-4.8,4.84,4.8,8.16,4.8,8.16h7.06s4.15-2.26,2.41-6.5-2-7.14-3.52-6.5S209.23,50,209.23,50Z"/><path class="cls-2" d="M297.24,77.38c-2.25-.19-3.56,4.36-5.14,3.82s-3-3.74-4.92-4.49-4.32-.26-4.78-2.77,0-5.54.61-5.17,0.29,0.44,2.1.72,2.57,0.2,3.81,1.31,0.68,1.87,2.49.46,3.16-3.21,4.3-1.81,0.36,2.36,1.09,4.08S298.67,77.5,297.24,77.38Z"/><path class="cls-2" d="M24.91,29.11c-0.34-3,3.9-3.86,3.27-6s-3.76-4.56-4.61-7.24-0.55-5.69-3-6.75-5.27-1-4.87-.14,0.44,0.45.83,2.88,0.37,3.4,1.51,5.21,1.83,1.22.61,3.33-2.83,3.55-1.43,5.29,2.27,0.9,4,2.17S25.13,31,24.91,29.11Z"/><path class="cls-2" d="M242.45,89.46a24.52,24.52,0,0,0,1,6.89,9.79,9.79,0,0,0,3.6,3.82c1,0.41,3.82.9,3.76-.53s0.72-4-.21-5.26-3.12,2.3-3.74-.13-0.9-1.86-2.06-3.68S242.37,87.52,242.45,89.46Z"/><path class="cls-2" d="M97.67,20.14s-6,1.28-4.34,3.85,4.34,6.51,4.34,6.51h6.38s3.75-1.8,2.18-5.18-1.8-5.7-3.18-5.18S97.67,20.14,97.67,20.14Z"/></svg>