<svg id="Inclusion_Grain_Large_" data-name="Inclusion (Grain Large)" xmlns="http://www.w3.org/2000/svg" viewBox="0 0 300 150"><defs><style>.cls-1{fill:none;}.cls-2{fill:#fff;stroke:#1d1d1b;stroke-miterlimit:10;stroke-width:0.5px;}</style></defs><title>M_InclusionGrainLarge</title><rect class="cls-1" x="0.98" y="0.45" width="299.02" height="150.04"/><path class="cls-2" d="M165,54.76c1.62,2.16-4.76,2.88-3,4.45s7.61,3.27,9.92,5.21,2.94,4.15,7.14,4.87,8.7,0.64,7.76,0a6.23,6.23,0,0,1-2.36-2.09c-1.49-1.76-1.82-2.48-4.29-3.78S176.84,62.58,178,61s3.19-2.64.34-3.89-3.92-.62-7-1.51S164,53.39,165,54.76Z"/><path class="cls-2" d="M234.57,44.21c0.26,2.05.76,3.71,1.77,4.63s4.8,2.29,6.55,2.57,6.95,0.61,6.83-.35,1.31-2.69-.38-3.53-5.67,1.55-6.79-.09-1.64-1.25-3.75-2.47S234.41,42.91,234.57,44.21Z"/><path class="cls-2" d="M84.93,111.41a134.62,134.62,0,0,0-15.53-2,55.13,55.13,0,0,0-11.89,1.28c-1.88.58-6,2.61-2.92,3.13s7.66,2.15,11.28,1.92-1.5-3.33,4.29-2.85,4.87,0,9.94-.14S89.11,112.11,84.93,111.41Z"/><path class="cls-2" d="M61.94,78.76c4.59,2,.62,3,4.42,4.43s11,2.64,15.84,4.35,8.66,3.77,13.12,4.21,7.9,0.08,6.2-.46a34.57,34.57,0,0,1-5.06-1.84,64.16,64.16,0,0,0-9.18-3.34c-4-1.09-4-.62-5.43-2.17s-1.5-2.71-5.66-3.73-4.06-.35-7.91-1S59,77.51,61.94,78.76Z"/><path class="cls-2" d="M300,36.28v4.93c-2.06-.45-4.07-1-5.67-1.3-3-.5,1-2.5,2.87-3.07A24.51,24.51,0,0,1,300,36.28Z"/><path class="cls-2" d="M272.11,86.87s-6.41.58-4.67,1.74,4.67,2.93,4.67,2.93H279s4-.81,2.35-2.34-1.94-2.57-3.42-2.34A46.52,46.52,0,0,1,272.11,86.87Z"/><path class="cls-2" d="M300,7v4.41c-1.73-.45-0.64-1.28-3.46-1.47-3.07-.21-5.05.7-7.78,1.13s-5.23,1-7.72.63-5.07-.54,1.8-3.15S294,7.31,299.54,7Z"/><path class="cls-2" d="M28.31,141.93s-5.29.48-3.85,1.43,3.85,2.42,3.85,2.42H34s3.33-.67,1.93-1.93-1.6-2.12-2.82-1.93A38.35,38.35,0,0,1,28.31,141.93Z"/><path class="cls-2" d="M132.19,35.71a14.1,14.1,0,0,0-3.79-5.3,25.68,25.68,0,0,0-7.76-2.73c-1.89-.25-7.32-0.45-6.79.66s-0.17,3.17,1.91,4.08,5.09-2,6.95-.14,2.2,1.38,4.87,2.72S132.92,37.22,132.19,35.71Z"/><path class="cls-2" d="M272.2,115.94a7.78,7.78,0,0,0-7-4.27c-5.13,0-9-1.53-15.51.54s-4.21,2.31-1.94,2.83,4.61,0.08,7.16-.18,4.46-1,7.27-.64,1.26,1.17,3.54,1.7S272.73,116.84,272.2,115.94Z"/><path class="cls-2" d="M124.89,106.38c0.37,3,1.1,5.37,2.55,6.69s6.94,3.32,9.47,3.71,10,0.88,9.87-.51,1.9-3.89-.55-5.11-8.19,2.23-9.82-.13-2.38-1.8-5.42-3.57S124.66,104.5,124.89,106.38Z"/><path class="cls-2" d="M176.66,135.85s-9.88.89-7.2,2.68,7.2,4.52,7.2,4.52h10.58s6.22-1.25,3.61-3.6-3-4-5.27-3.6A71.7,71.7,0,0,1,176.66,135.85Z"/><path class="cls-2" d="M206.13,11.88c-4.88-.84-2.72-2.48-6.58-3s-10.19-.26-15-0.85-9.26-1.65-12.9-1.21-5.95,1.36-4.28,1.51a40.32,40.32,0,0,1,5.14.66,74.4,74.4,0,0,0,9.32,1.19c3.76,0.21,3.42-.19,5.66.87s3.13,2,7,2.15,3.28-.44,6.64-0.57S209.22,12.42,206.13,11.88Z"/><path class="cls-2" d="M37.17,40.6c-0.61-2,7.09-2.59,5.95-4s-6.84-3.07-8.38-4.87-1-3.82-5.38-4.53-9.58-.68-8.86-0.1A3,3,0,0,1,22,29c0.7,1.63.67,2.28,2.75,3.5s3.32,0.82,1.1,2.24-5.14,2.38-2.59,3.55,4.13,0.6,7.19,1.45S37.57,41.87,37.17,40.6Z"/><path class="cls-2" d="M5.59,75.22S15,74.87,16,73.48s4.91-2.36,1.74-4.21S13.6,68,12.06,68.63s-1,1.24-1,1.94,1.31,1.24,0,2-2.73.3-4.26,0.89S3.59,75.33,5.59,75.22Z"/></svg>