<svg id="Inclusion_Grain_Large_" data-name="Inclusion (Grain Large)" xmlns="http://www.w3.org/2000/svg" viewBox="0 0 500 50"><defs><style>.cls-1{fill:none;}.cls-2{fill:#fff;stroke:#1d1d1b;stroke-miterlimit:10;stroke-width:0.5px;}</style></defs><title>M_InclusionGrainLarge</title><rect class="cls-1" y="-0.07" width="499.96" height="50.14"/><path class="cls-2" d="M164,4.42c1.62,2.16-4.76,2.88-3,4.45s7.61,3.27,9.92,5.21,2.94,4.15,7.14,4.87,8.7,0.64,7.76,0a6.23,6.23,0,0,1-2.36-2.09c-1.49-1.76-1.82-2.48-4.29-3.78s-3.34-.86-2.17-2.42,3.19-2.64.34-3.89-3.92-.62-7-1.51S163,3,164,4.42Z"/><path class="cls-2" d="M248.73,3.71c0.12,1-5.08.63-6.83,0.36s-5.54-1.65-6.54-2.57a4.49,4.49,0,0,1-1-1.57h7.12l0.12,0.16c1.12,1.63,5.1-.75,6.79.09S248.61,2.75,248.73,3.71Z"/><path class="cls-2" d="M61,28.41c4.59,2,.62,3,4.42,4.43s11,2.64,15.84,4.35S89.88,41,94.34,41.4s7.9,0.08,6.2-.46a34.57,34.57,0,0,1-5.06-1.84,64.16,64.16,0,0,0-9.18-3.34c-4-1.09-4-.62-5.43-2.17s-1.5-2.71-5.66-3.73-4.06-.35-7.91-1S58,27.17,61,28.41Z"/><path class="cls-2" d="M271.13,36.53s-6.41.58-4.67,1.74,4.67,2.93,4.67,2.93H278s4-.81,2.35-2.34-1.94-2.57-3.42-2.34A46.52,46.52,0,0,1,271.13,36.53Z"/><path class="cls-2" d="M365.54,3.33H352.7S350,1.67,347.2-.07h23.42C371.37,2.15,365.54,3.33,365.54,3.33Z"/><path class="cls-2" d="M380.44,28.82c-4.09-.13-6.48,2.93-9.34,2.57s-5.4-2.51-8.94-3-7.85-.18-8.68-1.86,0-3.72,1.11-3.47,0.52,0.3,3.82.48,4.68,0.13,6.92.88,1.23,1.26,4.52.31,5.75-2.16,7.82-1.22,0.65,1.59,2,2.74S383,28.91,380.44,28.82Z"/><path class="cls-2" d="M417.54,37.5c0.26,2.05.76,3.71,1.77,4.63s4.8,2.29,6.55,2.57,6.95,0.61,6.83-.35,1.31-2.69-.38-3.53-5.67,1.55-6.79-.09-1.64-1.25-3.75-2.47S417.38,36.19,417.54,37.5Z"/><path class="cls-2" d="M4.61,24.88S14,24.52,15,23.14s4.91-2.36,1.74-4.21-4.12-1.22-5.66-.63-1,1.24-1,1.94,1.31,1.24,0,2-2.73.3-4.26,0.89S2.6,25,4.61,24.88Z"/><path class="cls-2" d="M500,31v6.83h-8.05S487,35.2,484,33.47s7.89-2.59,7.89-2.59S496.82,31.12,500,31Z"/></svg>