<svg id="Inclusion_Grain_Large_" data-name="Inclusion (Grain Large)" xmlns="http://www.w3.org/2000/svg" viewBox="0 0 650 50"><defs><style>.cls-1{fill:none;}.cls-2{fill:#fff;stroke:#1d1d1b;stroke-miterlimit:10;stroke-width:0.5px;}</style></defs><title>M_InclusionGrainLarge</title><rect class="cls-1" x="-0.18" y="0.14" width="650.09" height="50.14"/><path class="cls-2" d="M163.82,4.63c1.62,2.16-4.76,2.88-3,4.45s7.61,3.27,9.92,5.21,2.94,4.15,7.14,4.87,8.7,0.64,7.76,0a6.23,6.23,0,0,1-2.36-2.09c-1.49-1.76-1.82-2.48-4.29-3.78s-3.34-.86-2.17-2.42S180,8.25,177.18,7s-3.92-.62-7-1.51S162.8,3.25,163.82,4.63Z"/><path class="cls-2" d="M248.55,3.92c0.12,1-5.08.63-6.83,0.36s-5.54-1.65-6.54-2.57a4.49,4.49,0,0,1-1-1.57h7.12l0.12,0.16c1.12,1.63,5.1-.75,6.79.09S248.43,3,248.55,3.92Z"/><path class="cls-2" d="M60.78,28.62c4.59,2,.62,3,4.42,4.43s11,2.64,15.84,4.35,8.66,3.77,13.12,4.21,7.9,0.08,6.2-.46A34.57,34.57,0,0,1,95.3,39.3,64.16,64.16,0,0,0,86.12,36c-4-1.09-4-.62-5.43-2.17s-1.5-2.71-5.66-3.73-4.06-.35-7.91-1S57.87,27.38,60.78,28.62Z"/><path class="cls-2" d="M270.95,36.74s-6.41.58-4.67,1.74,4.67,2.93,4.67,2.93h6.86s4-.81,2.35-2.34-1.94-2.57-3.42-2.34A46.52,46.52,0,0,1,270.95,36.74Z"/><path class="cls-2" d="M365.36,3.54H352.52s-2.74-1.66-5.5-3.4h23.42C371.19,2.36,365.36,3.54,365.36,3.54Z"/><path class="cls-2" d="M380.26,29c-4.09-.13-6.48,2.93-9.34,2.57s-5.4-2.51-8.94-3-7.85-.18-8.68-1.86,0-3.72,1.11-3.47,0.52,0.3,3.82.48,4.68,0.13,6.92.88,1.23,1.26,4.52.31,5.75-2.16,7.82-1.22,0.65,1.59,2,2.74S382.85,29.12,380.26,29Z"/><path class="cls-2" d="M549.76,31.05s-9.88.89-7.2,2.68,7.2,4.52,7.2,4.52h10.58s6.22-1.25,3.61-3.6-3-4-5.27-3.6A71.7,71.7,0,0,1,549.76,31.05Z"/><path class="cls-2" d="M608.7,13s-10.84.86-7.9,2.59S608.7,20,608.7,20h11.61s6.82-1.21,4-3.48S621,12.7,618.5,13A89.24,89.24,0,0,1,608.7,13Z"/><path class="cls-2" d="M417.36,37.71c0.26,2.05.76,3.71,1.77,4.63s4.8,2.29,6.55,2.57,6.95,0.61,6.83-.35,1.31-2.69-.38-3.53-5.67,1.55-6.79-.09-1.64-1.25-3.75-2.47S417.2,36.4,417.36,37.71Z"/><path class="cls-2" d="M4.43,25.09s9.42-.35,10.39-1.74,4.91-2.36,1.74-4.21-4.12-1.22-5.66-.63-1,1.24-1,1.94,1.31,1.24,0,2-2.73.3-4.26,0.89S2.42,25.19,4.43,25.09Z"/><path class="cls-2" d="M491.73,31.09s-10.84.86-7.9,2.59,7.9,4.37,7.9,4.37h11.61s6.82-1.21,4-3.48-3.27-3.83-5.78-3.48A89.24,89.24,0,0,1,491.73,31.09Z"/></svg>