<svg id="Inclusion_Grain_Small_" data-name="Inclusion (Grain Small)" xmlns="http://www.w3.org/2000/svg" viewBox="0 0 500 50"><defs><style>.cls-1{fill:#fff;stroke:#1d1d1b;stroke-miterlimit:10;stroke-width:0.5px;}.cls-2{fill:none;}</style></defs><title>M_InclusionGrainSmall</title><path class="cls-1" d="M71,50.2H54a8.26,8.26,0,0,1,1.28-1.46,12.62,12.62,0,0,1,6.54-1.91c1.9,0.16,4.93,1.3,8.54,2.94A3.41,3.41,0,0,1,71,50.2Z"/><path class="cls-1" d="M180,17.16c-3.55-1.61-6.52-2.73-8.39-2.89a12.49,12.49,0,0,0-6.43,1.88c-1,.85-3.24,3.82-1.58,4.57s4.14,3.14,6.1,2.81-0.81-4.87,2.32-4.17,2.63,0.05,5.37-.21S182.3,18.19,180,17.16Z"/><path class="cls-1" d="M195.21,50.2H182.72c-0.75-1.3-1.55-2.68-2.19-3.83-1.79-3.22,4.8-4.83,4.8-4.83s4.43,0.64,6,0,1.78,2.25,3.52,6.5A5.11,5.11,0,0,1,195.21,50.2Z"/><path class="cls-1" d="M254.44,16.7c-1.32,3.22-3.77,2.06-4.55,4.59s-0.5,6.54-1.44,9.71-2.59,6.13-2,8.39,2,3.61,2.23,2.53a12.76,12.76,0,0,1,1-3.37,24.33,24.33,0,0,0,1.89-6.11C252,30,251.39,30.3,253,28.72s3.11-2.27,3.32-4.74-0.62-2-.79-4.17S255.28,14.65,254.44,16.7Z"/><path class="cls-1" d="M458.76,19.64s-1.26-7.71-4.69-7.71-6-2.76-10.34,1-2.81,4.17-1.3,5.12,3.07,0.14,4.78-.32,3-1.81,4.85-1.16,0.84,2.12,2.36,3.06S459.11,21.27,458.76,19.64Z"/><path class="cls-1" d="M388.73,50.2H375.15L375,49.93c-1.79-3.23,4.8-4.84,4.8-4.84s4.43,0.65,6,0C387.11,44.52,387.46,46.74,388.73,50.2Z"/><path class="cls-1" d="M348.46,6.76s-6,1.28-4.34,3.85,4.34,6.51,4.34,6.51h6.38s3.75-1.8,2.18-5.18-1.8-5.7-3.18-5.18S348.46,6.76,348.46,6.76Z"/><path class="cls-1" d="M24.93,29c-0.34-3,3.9-3.86,3.27-6s-3.76-4.56-4.61-7.24S23,10,20.64,8.95s-5.27-1-4.87-.14,0.44,0.45.83,2.88,0.37,3.4,1.51,5.21,1.83,1.22.61,3.33-2.83,3.55-1.43,5.29,2.27,0.9,4,2.17S25.15,30.84,24.93,29Z"/><rect class="cls-2" x="0.01" y="0.2" width="499.99" height="50"/></svg>