<svg id="Inclusion_Grain_Large_" data-name="Inclusion (Grain Large)" xmlns="http://www.w3.org/2000/svg" viewBox="0 0 650 100"><defs><style>.cls-1{fill:none;}.cls-2{fill:#fff;stroke:#1d1d1b;stroke-miterlimit:10;stroke-width:0.5px;}</style></defs><title>M_InclusionGrainLarge</title><rect class="cls-1" x="0.01" width="650.09" height="99.97"/><path class="cls-2" d="M164,54.31c1.62,2.16-4.76,2.88-3,4.45S168.65,62,171,64s2.94,4.15,7.14,4.87,8.7,0.64,7.76,0a6.23,6.23,0,0,1-2.36-2.09C182,65,181.69,64.3,179.21,63s-3.34-.86-2.17-2.42,3.19-2.64.34-3.89-3.92-.62-7-1.51S163,52.93,164,54.31Z"/><path class="cls-2" d="M233.6,43.76c0.26,2.05.76,3.71,1.77,4.63s4.8,2.29,6.55,2.57,6.95,0.61,6.83-.35,1.31-2.69-.38-3.53-5.67,1.55-6.79-.09-1.64-1.25-3.75-2.47S233.45,42.46,233.6,43.76Z"/><path class="cls-2" d="M61,78.31c4.59,2,.62,3,4.42,4.43s11,2.64,15.84,4.35,8.66,3.77,13.12,4.21,7.9,0.08,6.2-.46A34.57,34.57,0,0,1,95.49,89a64.16,64.16,0,0,0-9.18-3.34c-4-1.09-4-.62-5.43-2.17s-1.5-2.71-5.66-3.73-4.06-.35-7.91-1S58.06,77.06,61,78.31Z"/><path class="cls-2" d="M323.18,37.07a132.26,132.26,0,0,0-15.26-1.94,54.16,54.16,0,0,0-11.68,1.26c-1.84.57-5.9,2.56-2.87,3.07s7.52,2.11,11.08,1.89-1.48-3.27,4.22-2.8,4.79,0,9.77-.14S327.29,37.76,323.18,37.07Z"/><path class="cls-2" d="M271.14,86.42s-6.41.58-4.67,1.74,4.67,2.93,4.67,2.93H278s4-.81,2.35-2.34-1.94-2.57-3.42-2.34A46.52,46.52,0,0,1,271.14,86.42Z"/><path class="cls-2" d="M352.72,44.49s-12,1.08-8.73,3.25,8.73,5.48,8.73,5.48h12.83s7.54-1.52,4.38-4.37-3.62-4.8-6.39-4.37S352.72,44.49,352.72,44.49Z"/><path class="cls-2" d="M380.45,78.72c-4.09-.13-6.48,2.93-9.34,2.57s-5.4-2.51-8.94-3-7.85-.18-8.68-1.86,0-3.72,1.11-3.47,0.52,0.3,3.82.48,4.68,0.13,6.92.88,1.23,1.26,4.52.31,5.75-2.16,7.82-1.22,0.65,1.59,2,2.74S383,78.8,380.45,78.72Z"/><path class="cls-2" d="M447,23.16A6.22,6.22,0,0,0,448.43,27a15.74,15.74,0,0,0,5.4,2.12c1.44,0.22,5.73.5,5.63-.29s1.08-2.22-.31-2.91-4.67,1.27-5.6-.07-1.36-1-3.09-2S446.84,22.09,447,23.16Z"/><path class="cls-2" d="M306.62,10.68a8.87,8.87,0,0,0-8-4.13c-5.54.31-9.84-1.08-16.7,1.53s-4.3,2.72-1.8,3.15,5-.2,7.72-0.63,4.72-1.34,7.79-1.13,1.49,1.18,4,1.6S307.28,11.6,306.62,10.68Z"/><path class="cls-2" d="M131.22,35.26a14.1,14.1,0,0,0-3.79-5.3,25.68,25.68,0,0,0-7.76-2.73c-1.89-.25-7.32-0.45-6.79.66s-0.17,3.17,1.91,4.08,5.09-2,6.95-.14,2.2,1.38,4.87,2.72S131.95,36.77,131.22,35.26Z"/><path class="cls-2" d="M558.52,47.63c-4.78-.11-3.57-1.87-7.28-1.8s-9.33,1.11-14,1.22-9.1-.26-12.2.61-4.76,2-3.19,1.92a39,39,0,0,1,4.94-.09,73.87,73.87,0,0,0,9-.17c3.49-.3,3-0.62,5.5,0s3.74,1.42,7.28,1,2.78-.83,5.75-1.39S561.55,47.71,558.52,47.63Z"/><path class="cls-2" d="M373,29.77s9.42-.35,10.39-1.74,4.91-2.36,1.74-4.21-4.12-1.22-5.66-.63-1,1.24-1,1.94,1.31,1.24,0,2-2.73.3-4.26,0.89S371,29.88,373,29.77Z"/><path class="cls-2" d="M550,80.74s-9.88.89-7.2,2.68,7.2,4.52,7.2,4.52h10.58s6.22-1.25,3.61-3.6-3-4-5.27-3.6A71.7,71.7,0,0,1,550,80.74Z"/><path class="cls-2" d="M624.43,25.24s-10.84.86-7.9,2.59,7.9,4.37,7.9,4.37H636s6.82-1.21,4-3.48-3.27-3.83-5.78-3.48A89.24,89.24,0,0,1,624.43,25.24Z"/><path class="cls-2" d="M205.16,11.43c-4.88-.84-2.72-2.48-6.58-3s-10.19-.26-15-0.85S174.29,6,170.64,6.39s-5.95,1.36-4.28,1.51a40.32,40.32,0,0,1,5.14.66,74.4,74.4,0,0,0,9.32,1.19c3.76,0.21,3.42-.19,5.66.87s3.13,2,7,2.15,3.28-.44,6.64-0.57S208.25,12,205.16,11.43Z"/><path class="cls-2" d="M36.21,40.15c-0.61-2,7.09-2.59,5.95-4S35.31,33,33.78,31.25s-1-3.82-5.38-4.53-9.58-.68-8.86-0.1A3,3,0,0,1,21,28.55c0.7,1.63.67,2.28,2.75,3.5s3.32,0.82,1.1,2.24-5.14,2.38-2.59,3.55,4.13,0.6,7.19,1.45S36.6,41.42,36.21,40.15Z"/><path class="cls-2" d="M417.55,87.39c0.26,2.05.76,3.71,1.77,4.63s4.8,2.29,6.55,2.57,6.95,0.61,6.83-.35,1.31-2.69-.38-3.53-5.67,1.55-6.79-.09-1.64-1.25-3.75-2.47S417.39,86.08,417.55,87.39Z"/><path class="cls-2" d="M4.63,74.77S14.05,74.42,15,73s4.91-2.36,1.74-4.21-4.12-1.22-5.66-.63-1,1.24-1,1.94,1.31,1.24,0,2-2.73.3-4.26,0.89S2.62,74.88,4.63,74.77Z"/><path class="cls-2" d="M491.93,80.77s-10.84.86-7.9,2.59,7.9,4.37,7.9,4.37h11.61s6.82-1.21,4-3.48-3.27-3.83-5.78-3.48A89.24,89.24,0,0,1,491.93,80.77Z"/><path class="cls-2" d="M541.51,18.41c-2.92-2.3-5.63-3.85-7.95-3.92s-8.44,2.31-10.79,3.85-8.74,6.75-7.38,7.83,1.94,4.81,5,4,4.52-8.07,7.9-7.23,3.48-.21,7.45-0.94S543.36,19.88,541.51,18.41Z"/></svg>