<svg id="Inclusion_Grain_Small_" data-name="Inclusion (Grain Small)" xmlns="http://www.w3.org/2000/svg" viewBox="0 0 650 150"><defs><style>.cls-1{fill:none;}.cls-2{fill:#fff;stroke:#1d1d1b;stroke-miterlimit:10;stroke-width:0.5px;}</style></defs><title>M_InclusionGrainSmall</title><rect class="cls-1" width="650" height="150.07"/><path class="cls-2" d="M94.7,67.05c0.89,3.22-2.62,4.29-1.64,6.62s4.19,4.86,5.46,7.75,1.62,6.17,3.93,7.26,4.78,1,4.27,0a8.59,8.59,0,0,1-1.3-3.11c-0.82-2.62-1-3.69-2.36-5.63s-1.84-1.28-1.2-3.61,1.75-3.93.18-5.78-2.16-.92-3.87-2.26S94.14,65,94.7,67.05Z"/><path class="cls-2" d="M147.17,51.42a24.52,24.52,0,0,0,1,6.89,9.79,9.79,0,0,0,3.6,3.82c1,0.41,3.82.9,3.76-.53s0.72-4-.21-5.26-3.12,2.3-3.74-.13-0.9-1.86-2.06-3.68S147.08,49.47,147.17,51.42Z"/><path class="cls-2" d="M454.6,77.52s8.71-11.31,3.76-15.57S453.48,51.06,442,50.36s-9.76,1.8-8.87,4.87,4.26,4,7.35,5.52,6.78,1.4,8.6,4.54-1.68,3.73-.77,6.8S452.89,80,454.6,77.52Z"/><path class="cls-2" d="M62,59.52c-3.61-1.64-6.64-2.78-8.54-2.94a12.71,12.71,0,0,0-6.54,1.91c-1,.87-3.3,3.88-1.61,4.65s4.21,3.2,6.21,2.86-0.83-5,2.36-4.24,2.68,0.05,5.47-.21S64.33,60.56,62,59.52Z"/><path class="cls-2" d="M38.53,86c2.52,2.92.34,4.53,2.43,6.59S47,96.49,49.68,99s4.77,5.61,7.22,6.26,4.34,0.11,3.41-.69a15.66,15.66,0,0,1-2.78-2.74,29.87,29.87,0,0,0-5.05-5c-2.18-1.62-2.18-.92-3-3.24s-0.82-4-3.12-5.55-2.24-.52-4.35-1.5S36.93,84.1,38.53,86Z"/><path class="cls-2" d="M180,17.37c-3.55-1.61-6.52-2.73-8.39-2.89a12.49,12.49,0,0,0-6.43,1.88c-1,.85-3.24,3.82-1.58,4.57s4.14,3.14,6.1,2.81-0.81-4.87,2.32-4.17,2.63,0.05,5.37-.21S182.28,18.4,180,17.37Z"/><path class="cls-2" d="M170.72,115.05s-3.53.86-2.57,2.59,2.57,4.37,2.57,4.37h3.78a2.79,2.79,0,0,0,1.29-3.48c-0.93-2.27-1.06-3.82-1.88-3.48A9.51,9.51,0,0,1,170.72,115.05Z"/><path class="cls-2" d="M209.23,50s-6.59,1.61-4.8,4.84,4.8,8.16,4.8,8.16h7.06s4.15-2.26,2.41-6.5-2-7.14-3.52-6.5S209.23,50,209.23,50Z"/><path class="cls-2" d="M347.08,62c-3.29,1.15-4-1.45-6.46-.36s-5.23,4-8.22,5.36-6.3,2.13-7.59,4.09-1.39,3.88-.42,3.35A12.76,12.76,0,0,1,327.61,73a24.33,24.33,0,0,0,5.83-2.63c2.06-1.34,1.45-1.62,3.7-1.44s3.76,0.83,5.75-.66,1.11-1.82,2.6-3.35S349.17,61.24,347.08,62Z"/><path class="cls-2" d="M280.95,129.74s-3.53.86-2.57,2.59,2.57,4.37,2.57,4.37h3.78a2.79,2.79,0,0,0,1.29-3.48c-0.93-2.27-1.06-3.82-1.88-3.48A9.51,9.51,0,0,1,280.95,129.74Z"/><path class="cls-2" d="M297.24,77.42c-2.25-.19-3.56,4.36-5.14,3.82s-3-3.74-4.92-4.49-4.32-.26-4.78-2.77,0-5.54.61-5.17,0.29,0.44,2.1.72,2.57,0.2,3.81,1.31,0.68,1.87,2.49.46,3.16-3.21,4.3-1.81,0.36,2.36,1.09,4.08S298.67,77.55,297.24,77.42Z"/><path class="cls-2" d="M498.34,113.43a24.52,24.52,0,0,0,1,6.89,9.79,9.79,0,0,0,3.6,3.82c1,0.41,3.82.9,3.76-.53s0.72-4-.21-5.26-3.12,2.3-3.74-.13-0.9-1.86-2.06-3.68S498.25,111.49,498.34,113.43Z"/><path class="cls-2" d="M573.63,111.4s-1.66-8-5.37-7.46-6.56-2-11.14,2.76-2.87,4.92-1.2,5.68,3.33-.36,5.15-1.13,3.15-2.43,5.2-2,1,2.12,2.67,2.88S574.07,113.07,573.63,111.4Z"/><path class="cls-2" d="M392.78,92.33s-3.53.86-2.57,2.59,2.57,4.37,2.57,4.37h3.78a2.79,2.79,0,0,0,1.29-3.48c-0.93-2.27-1.06-3.82-1.88-3.48A9.51,9.51,0,0,1,392.78,92.33Z"/><path class="cls-2" d="M519.17,95.25c-0.76-4.28-1.58-7.72-2.53-9.58a14.07,14.07,0,0,0-5.18-4.94c-1.26-.46-4.88-0.81-4.53,1.19s-0.11,5.73,1.27,7.37,3.39-3.61,4.63-.26,1.47,2.5,3.25,4.92S519.66,98,519.17,95.25Z"/><path class="cls-2" d="M461.91,128.3c-3.2-.91-2.38-3.14-4.86-3.63s-6.24.06-9.34-.53-6.08-1.8-8.16-1.09-3.19,2-2.14,2.14a13.29,13.29,0,0,1,3.3.66,25.35,25.35,0,0,0,6,1.19c2.33,0.13,2-.38,3.68.92s2.5,2.55,4.86,2.54,1.86-.7,3.85-1S463.94,128.88,461.91,128.3Z"/><path class="cls-2" d="M458.74,19.85s-1.26-7.71-4.69-7.71-6-2.76-10.34,1-2.81,4.17-1.3,5.12,3.07,0.14,4.78-.32,3-1.81,4.85-1.16,0.84,2.12,2.36,3.06S459.09,21.48,458.74,19.85Z"/><path class="cls-2" d="M619.06,35.38s6.29-.64,6.93-3.14,3.28-4.27,1.16-7.61-2.75-2.21-3.78-1.14-0.68,2.25-.64,3.51,0.87,2.25,0,3.59-1.82.54-2.84,1.61S617.72,35.58,619.06,35.38Z"/><path class="cls-2" d="M81.46,127.09c0.21,4.42.61,8,1.41,10a14.15,14.15,0,0,0,5.21,5.52c1.39,0.59,5.52,1.31,5.43-.76s1-5.8-.3-7.61-4.51,3.33-5.4-.19-1.31-2.68-3-5.31S81.33,124.28,81.46,127.09Z"/><path class="cls-2" d="M379.79,48.29s-6.59,1.61-4.8,4.84,4.8,8.16,4.8,8.16h7.06s4.15-2.26,2.41-6.5-2-7.14-3.52-6.5S379.79,48.29,379.79,48.29Z"/><path class="cls-2" d="M555.09,48.29s-6.59,1.61-4.8,4.84,4.8,8.16,4.8,8.16h7.06s4.15-2.26,2.41-6.5-2-7.14-3.52-6.5S555.09,48.29,555.09,48.29Z"/><path class="cls-2" d="M348.44,7s-6,1.28-4.34,3.85,4.34,6.51,4.34,6.51h6.38s3.75-1.8,2.18-5.18-1.8-5.7-3.18-5.18S348.44,7,348.44,7Z"/><path class="cls-2" d="M523.85,16.6c-2-.94-1.12-2.76-2.71-3.31S517,13,515,12.35s-3.81-1.84-5.31-1.35-2.45,1.52-1.76,1.68a7,7,0,0,1,2.12.73,13.11,13.11,0,0,0,3.84,1.32c1.55,0.24,1.41-.21,2.33,1S517.46,18,519,18.1s1.35-.49,2.73-0.63S525.13,17.2,523.85,16.6Z"/><path class="cls-2" d="M24.91,29.16c-0.34-3,3.9-3.86,3.27-6s-3.76-4.56-4.61-7.24-0.55-5.69-3-6.75-5.27-1-4.87-.14,0.44,0.45.83,2.88,0.37,3.4,1.51,5.21,1.83,1.22.61,3.33S15.86,24,17.27,25.73s2.27,0.9,4,2.17S25.13,31,24.91,29.16Z"/><path class="cls-2" d="M242.45,89.51a24.52,24.52,0,0,0,1,6.89,9.79,9.79,0,0,0,3.6,3.82c1,0.41,3.82.9,3.76-.53s0.72-4-.21-5.26-3.12,2.3-3.74-.13-0.9-1.86-2.06-3.68S242.37,87.57,242.45,89.51Z"/><path class="cls-2" d="M362.68,113.68c0.21,4.42.61,8,1.41,10a14.15,14.15,0,0,0,5.21,5.52c1.39,0.59,5.52,1.31,5.43-.76s1-5.8-.3-7.61-4.51,3.33-5.4-.19-1.31-2.68-3-5.31S362.55,110.88,362.68,113.68Z"/><path class="cls-2" d="M598,129.21s6.29-.64,6.93-3.14,3.28-4.27,1.16-7.61-2.75-2.21-3.78-1.14-0.68,2.25-.64,3.51,0.87,2.25,0,3.59-1.82.54-2.84,1.61S596.61,129.41,598,129.21Z"/></svg>