<svg id="Inclusion_Grain_Elongated_" data-name="Inclusion (Grain Elongated)" xmlns="http://www.w3.org/2000/svg" viewBox="0 0 1689.25 497.23"><defs><style>.cls-1{fill:none;}.cls-2{fill:#fff;stroke:#1d1d1b;stroke-miterlimit:10;stroke-width:0.5px;}</style></defs><title>M_InclusionGrainElongated</title><rect class="cls-1" y="0.51" width="650" height="150.07"/><path class="cls-2" d="M94.7,67.05c0.89,3.22-2.62,4.29-1.64,6.62s4.19,4.86,5.46,7.75,1.62,6.17,3.93,7.26,4.78,1,4.27,0a8.59,8.59,0,0,1-1.3-3.11c-0.82-2.62-1-3.69-2.36-5.63s-1.84-1.28-1.2-3.61,1.75-3.93.18-5.78-2.16-.92-3.87-2.26S94.14,65,94.7,67.05Z" transform="translate(0 0.51)"/><path class="cls-2" d="M147.17,51.42a24.52,24.52,0,0,0,1,6.89,9.79,9.79,0,0,0,3.6,3.82c1,0.41,3.82.9,3.76-.53s0.72-4-.21-5.26-3.12,2.3-3.74-.13-0.9-1.86-2.06-3.68S147.08,49.47,147.17,51.42Z" transform="translate(0 0.51)"/><path class="cls-2" d="M453.55,90.59s8.71-11.31,3.76-15.57S452.43,64.13,441,63.44s-9.76,1.8-8.87,4.87,4.26,4,7.35,5.52,6.78,1.4,8.6,4.54-1.68,3.73-.77,6.8S451.84,93.08,453.55,90.59Z" transform="translate(0 0.51)"/><path class="cls-2" d="M71.17,33.22c-3.61-1.64-6.64-2.78-8.54-2.94a12.71,12.71,0,0,0-6.54,1.91c-1,.87-3.3,3.88-1.61,4.65s4.21,3.2,6.21,2.86-0.83-5,2.36-4.24,2.68,0.05,5.47-.21S73.46,34.26,71.17,33.22Z" transform="translate(0 0.51)"/><path class="cls-2" d="M27.33,92.44c1.3,3.63-1.32,4.35-.11,7s4.25,5.86,5.79,9.18,2.42,7,4.48,8.44,4,1.67,3.43.59a15.66,15.66,0,0,1-1.61-3.56,29.87,29.87,0,0,0-2.92-6.46c-1.45-2.3-1.71-1.64-1.62-4.1s0.69-4.07-.91-6.3S32,96,30.35,94.3,26.51,90.14,27.33,92.44Z" transform="translate(0 0.51)"/><path class="cls-2" d="M180,17.37c-3.55-1.61-6.52-2.73-8.39-2.89a12.49,12.49,0,0,0-6.43,1.88c-1,.85-3.24,3.82-1.58,4.57s4.14,3.14,6.1,2.81-0.81-4.87,2.32-4.17,2.63,0.05,5.37-.21S182.28,18.4,180,17.37Z" transform="translate(0 0.51)"/><path class="cls-2" d="M158.64,104.64s-3.53.86-2.57,2.59,2.57,4.37,2.57,4.37h3.78a2.79,2.79,0,0,0,1.29-3.48c-0.93-2.27-1.06-3.82-1.88-3.48A9.51,9.51,0,0,1,158.64,104.64Z" transform="translate(0 0.51)"/><path class="cls-2" d="M209.23,50s-6.59,1.61-4.8,4.84,4.8,8.16,4.8,8.16h7.06s4.15-2.26,2.41-6.5-2-7.14-3.52-6.5S209.23,50,209.23,50Z" transform="translate(0 0.51)"/><path class="cls-2" d="M344.76,94.3c-3.29,1.15-4-1.45-6.46-.36s-5.23,4-8.22,5.36-6.3,2.13-7.59,4.09-1.39,3.88-.42,3.35a12.76,12.76,0,0,1,3.21-1.45,24.33,24.33,0,0,0,5.83-2.63c2.06-1.34,1.45-1.62,3.7-1.44s3.76,0.83,5.75-.66,1.11-1.82,2.6-3.35S346.85,93.58,344.76,94.3Z" transform="translate(0 0.51)"/><path class="cls-2" d="M272.86,114.07s-3.53.86-2.57,2.59,2.57,4.37,2.57,4.37h3.78a2.79,2.79,0,0,0,1.29-3.48c-0.93-2.27-1.06-3.82-1.88-3.48A9.51,9.51,0,0,1,272.86,114.07Z" transform="translate(0 0.51)"/><path class="cls-2" d="M302.67,46.51c-2.25-.19-3.56,4.36-5.14,3.82s-3-3.74-4.92-4.49-4.32-.26-4.78-2.77,0-5.54.61-5.17,0.29,0.44,2.1.72,2.57,0.2,3.81,1.31,0.68,1.87,2.49.46,3.16-3.21,4.3-1.81,0.36,2.36,1.09,4.08S304.09,46.63,302.67,46.51Z" transform="translate(0 0.51)"/><path class="cls-2" d="M497.32,117.86a24.52,24.52,0,0,0,1,6.89,9.79,9.79,0,0,0,3.6,3.82c1,0.41,3.82.9,3.76-.53s0.72-4-.21-5.26-3.12,2.3-3.74-.13-0.9-1.86-2.06-3.68S497.24,115.92,497.32,117.86Z" transform="translate(0 0.51)"/><path class="cls-2" d="M563.42,103.78s7.81,2.48,9.13-1,4.92-4.76,3.05-11.07-2.88-4.91-4.36-3.83-1.31,3.08-1.53,5,0.57,3.93-.76,5.53-2.34-.17-3.82.92S561.75,103.35,563.42,103.78Z" transform="translate(0 0.51)"/><path class="cls-2" d="M392.78,92.33s-3.53.86-2.57,2.59,2.57,4.37,2.57,4.37h3.78a2.79,2.79,0,0,0,1.29-3.48c-0.93-2.27-1.06-3.82-1.88-3.48A9.51,9.51,0,0,1,392.78,92.33Z" transform="translate(0 0.51)"/><path class="cls-2" d="M507.7,43.77c-0.76-4.28-1.58-7.72-2.53-9.58A14.07,14.07,0,0,0,500,29.26c-1.26-.46-4.88-0.81-4.53,1.19s-0.11,5.73,1.27,7.37,3.39-3.61,4.63-.26,1.47,2.5,3.25,4.92S508.18,46.49,507.7,43.77Z" transform="translate(0 0.51)"/><path class="cls-2" d="M436.93,126.29c-3.3.43-3.43-1.94-5.9-1.41s-5.7,2.52-8.78,3.22-6.3.76-7.92,2.24-2.13,3.11-1.11,2.81a13.29,13.29,0,0,1,3.29-.7,25.35,25.35,0,0,0,6-1.28c2.2-.8,1.69-1.15,3.74-0.61s3.3,1.35,5.47.41,1.43-1.38,3.13-2.44S439,126,436.93,126.29Z" transform="translate(0 0.51)"/><path class="cls-2" d="M456.38,16.79s-1.26-7.71-4.69-7.71-6-2.76-10.34,1-2.81,4.17-1.3,5.12,3.07,0.14,4.78-.32,3-1.81,4.85-1.16,0.84,2.12,2.36,3.06S456.73,18.41,456.38,16.79Z" transform="translate(0 0.51)"/><path class="cls-2" d="M631.23,24.13s6.29-.64,6.93-3.14,3.28-4.27,1.16-7.61-2.75-2.21-3.78-1.14-0.68,2.25-.64,3.51,0.87,2.25,0,3.59-1.82.54-2.84,1.61S629.89,24.33,631.23,24.13Z" transform="translate(0 0.51)"/><path class="cls-2" d="M87.66,128.16c0.21,4.42.61,8,1.41,10a14.15,14.15,0,0,0,5.21,5.52c1.39,0.59,5.52,1.31,5.43-.76s1-5.8-.3-7.61-4.51,3.33-5.4-.19-1.31-2.68-3-5.31S87.53,125.35,87.66,128.16Z" transform="translate(0 0.51)"/><path class="cls-2" d="M369.14,28.66s-6.59,1.61-4.8,4.84,4.8,8.16,4.8,8.16h7.06s4.15-2.26,2.41-6.5-2-7.14-3.52-6.5S369.14,28.66,369.14,28.66Z" transform="translate(0 0.51)"/><path class="cls-2" d="M507.73,68s-6.59,1.61-4.8,4.84,4.8,8.16,4.8,8.16h7.06s4.15-2.26,2.41-6.5-2-7.14-3.52-6.5S507.73,68,507.73,68Z" transform="translate(0 0.51)"/><path class="cls-2" d="M409.76,12.67s-6,1.28-4.34,3.85S409.76,23,409.76,23h6.38s3.75-1.8,2.18-5.18-1.8-5.7-3.18-5.18S409.76,12.67,409.76,12.67Z" transform="translate(0 0.51)"/><path class="cls-2" d="M523.85,14.6c-2-.94-1.12-2.76-2.71-3.31S517,11,515,10.35,511.15,8.51,509.65,9s-2.45,1.52-1.76,1.68a7,7,0,0,1,2.12.73,13.11,13.11,0,0,0,3.84,1.32c1.55,0.24,1.41-.21,2.33,1S517.46,16,519,16.1s1.35-.49,2.73-0.63S525.13,15.2,523.85,14.6Z" transform="translate(0 0.51)"/><path class="cls-2" d="M24.91,29.16c-0.34-3,3.9-3.86,3.27-6s-3.76-4.56-4.61-7.24-0.55-5.69-3-6.75-5.27-1-4.87-.14,0.44,0.45.83,2.88,0.37,3.4,1.51,5.21,1.83,1.22.61,3.33S15.86,24,17.27,25.73s2.27,0.9,4,2.17S25.13,31,24.91,29.16Z" transform="translate(0 0.51)"/><path class="cls-2" d="M217.29,118.75a24.52,24.52,0,0,0,1,6.89,9.79,9.79,0,0,0,3.6,3.82c1,0.41,3.82.9,3.76-.53s0.72-4-.21-5.26-3.12,2.3-3.74-.13-0.9-1.86-2.06-3.68S217.2,116.81,217.29,118.75Z" transform="translate(0 0.51)"/><path class="cls-2" d="M361.31,108.1c0.21,4.42.61,8,1.41,10a14.15,14.15,0,0,0,5.21,5.52c1.39,0.59,5.52,1.31,5.43-.76s1-5.8-.3-7.61-4.51,3.33-5.4-.19-1.31-2.68-3-5.31S361.19,105.29,361.31,108.1Z" transform="translate(0 0.51)"/><path class="cls-2" d="M636,105.56s6.29-.64,6.93-3.14,3.28-4.27,1.16-7.61-2.75-2.21-3.78-1.14-0.68,2.25-.64,3.51,0.87,2.25,0,3.59-1.82.54-2.84,1.61S634.64,105.75,636,105.56Z" transform="translate(0 0.51)"/><rect class="cls-1" x="721" y="0.47" width="499.93" height="150.08"/><path class="cls-2" d="M815.7,67c0.89,3.22-2.62,4.29-1.64,6.62s4.19,4.86,5.46,7.75,1.62,6.17,3.93,7.26,4.78,1,4.27,0a8.59,8.59,0,0,1-1.3-3.11c-0.82-2.62-1-3.69-2.36-5.63s-1.84-1.28-1.2-3.61,1.75-3.93.18-5.78-2.16-.92-3.87-2.26S815.14,65,815.7,67Z" transform="translate(0 0.51)"/><path class="cls-2" d="M868.17,51.38a24.52,24.52,0,0,0,1,6.89,9.79,9.79,0,0,0,3.6,3.82c1,0.41,3.82.9,3.76-.53s0.72-4-.21-5.26-3.12,2.3-3.74-.13-0.9-1.86-2.06-3.68S868.08,49.44,868.17,51.38Z" transform="translate(0 0.51)"/><path class="cls-2" d="M1174.55,90.55s8.71-11.31,3.76-15.57S1173.43,64.09,1162,63.4s-9.76,1.8-8.87,4.87,4.26,4,7.35,5.52,6.78,1.4,8.6,4.54-1.68,3.73-.77,6.8S1172.84,93,1174.55,90.55Z" transform="translate(0 0.51)"/><path class="cls-2" d="M792.17,33.19c-3.61-1.64-6.64-2.78-8.54-2.94a12.71,12.71,0,0,0-6.54,1.91c-1,.87-3.3,3.88-1.61,4.65s4.21,3.2,6.21,2.86-0.83-5,2.36-4.24,2.68,0.05,5.47-.21S794.46,34.23,792.17,33.19Z" transform="translate(0 0.51)"/><path class="cls-2" d="M748.33,92.41c1.3,3.63-1.32,4.35-.11,7s4.25,5.86,5.79,9.18,2.42,7,4.48,8.44,4,1.67,3.43.59a15.66,15.66,0,0,1-1.61-3.56,29.87,29.87,0,0,0-2.92-6.46c-1.45-2.3-1.71-1.64-1.62-4.1s0.69-4.07-.91-6.3-1.9-1.29-3.52-3S747.51,90.1,748.33,92.41Z" transform="translate(0 0.51)"/><path class="cls-2" d="M901,17.34c-3.55-1.61-6.52-2.73-8.39-2.89a12.49,12.49,0,0,0-6.43,1.88c-1,.85-3.24,3.82-1.58,4.57s4.14,3.14,6.1,2.81-0.81-4.87,2.32-4.17,2.63,0.05,5.37-.21S903.28,18.36,901,17.34Z" transform="translate(0 0.51)"/><path class="cls-2" d="M879.64,104.6s-3.53.86-2.57,2.59,2.57,4.37,2.57,4.37h3.78a2.79,2.79,0,0,0,1.29-3.48c-0.93-2.27-1.06-3.82-1.88-3.48A9.51,9.51,0,0,1,879.64,104.6Z" transform="translate(0 0.51)"/><path class="cls-2" d="M930.23,50s-6.59,1.61-4.8,4.84,4.8,8.16,4.8,8.16h7.06s4.15-2.26,2.41-6.5-2-7.14-3.52-6.5S930.23,50,930.23,50Z" transform="translate(0 0.51)"/><path class="cls-2" d="M1065.76,94.27c-3.29,1.15-4-1.45-6.46-.36s-5.23,4-8.22,5.36-6.3,2.13-7.59,4.09-1.39,3.88-.42,3.35a12.76,12.76,0,0,1,3.21-1.45,24.33,24.33,0,0,0,5.83-2.63c2.06-1.34,1.45-1.62,3.7-1.44s3.76,0.83,5.75-.66,1.11-1.82,2.6-3.35S1067.85,93.54,1065.76,94.27Z" transform="translate(0 0.51)"/><path class="cls-2" d="M993.86,114s-3.53.86-2.57,2.59,2.57,4.37,2.57,4.37h3.78a2.79,2.79,0,0,0,1.29-3.48c-0.93-2.27-1.06-3.82-1.88-3.48A9.51,9.51,0,0,1,993.86,114Z" transform="translate(0 0.51)"/><path class="cls-2" d="M1023.67,46.47c-2.25-.19-3.56,4.36-5.14,3.82s-3-3.74-4.92-4.49-4.32-.26-4.78-2.77,0-5.54.61-5.17,0.29,0.44,2.1.72,2.57,0.2,3.81,1.31,0.68,1.87,2.49.46,3.16-3.21,4.3-1.81,0.36,2.36,1.09,4.08S1025.09,46.59,1023.67,46.47Z" transform="translate(0 0.51)"/><path class="cls-2" d="M1220.93,119.36V127a8.6,8.6,0,0,1-1.63-2.25,24.44,24.44,0,0,1-1-6.89c-0.08-1.95,1.17-.71,2.33,1.11C1220.75,119.1,1220.84,119.24,1220.93,119.36Z" transform="translate(0 0.51)"/><path class="cls-2" d="M1113.78,92.29s-3.53.86-2.57,2.59,2.57,4.37,2.57,4.37h3.78a2.79,2.79,0,0,0,1.29-3.48c-0.93-2.27-1.06-3.82-1.88-3.48A9.51,9.51,0,0,1,1113.78,92.29Z" transform="translate(0 0.51)"/><path class="cls-2" d="M1220.93,29.2v7.27c-1.07.44-2.26,2.41-3.19,1.31-1.39-1.64-.91-5.36-1.27-7.37S1219.63,28.75,1220.93,29.2Z" transform="translate(0 0.51)"/><path class="cls-2" d="M1157.93,126.26c-3.3.43-3.43-1.94-5.9-1.41s-5.7,2.52-8.78,3.22-6.3.76-7.92,2.24-2.13,3.11-1.11,2.81a13.29,13.29,0,0,1,3.29-.7,25.35,25.35,0,0,0,6-1.28c2.2-.8,1.69-1.15,3.74-0.61s3.3,1.35,5.47.41,1.43-1.38,3.13-2.44S1160,126,1157.93,126.26Z" transform="translate(0 0.51)"/><path class="cls-2" d="M1177.38,16.75S1176.12,9,1172.7,9s-6-2.76-10.34,1-2.81,4.17-1.3,5.12,3.07,0.14,4.78-.32,3-1.81,4.85-1.16,0.84,2.12,2.36,3.06S1177.73,18.38,1177.38,16.75Z" transform="translate(0 0.51)"/><path class="cls-2" d="M808.66,128.12c0.21,4.42.61,8,1.41,10a14.15,14.15,0,0,0,5.21,5.52c1.39,0.59,5.52,1.31,5.43-.76s1-5.8-.3-7.61-4.51,3.33-5.4-.19-1.31-2.68-3-5.31S808.53,125.31,808.66,128.12Z" transform="translate(0 0.51)"/><path class="cls-2" d="M1090.14,28.63s-6.59,1.61-4.8,4.84,4.8,8.16,4.8,8.16h7.06s4.15-2.26,2.41-6.5-2-7.14-3.52-6.5S1090.14,28.63,1090.14,28.63Z" transform="translate(0 0.51)"/><path class="cls-2" d="M1130.76,12.63s-6,1.28-4.34,3.85,4.34,6.51,4.34,6.51h6.38s3.75-1.8,2.18-5.18-1.8-5.7-3.18-5.18S1130.76,12.63,1130.76,12.63Z" transform="translate(0 0.51)"/><path class="cls-2" d="M745.91,29.13c-0.34-3,3.9-3.86,3.27-6s-3.76-4.56-4.61-7.24-0.55-5.69-3-6.75-5.27-1-4.87-.14,0.44,0.45.83,2.88,0.37,3.4,1.51,5.21,1.83,1.22.61,3.33-2.83,3.55-1.43,5.29,2.27,0.9,4,2.17S746.13,31,745.91,29.13Z" transform="translate(0 0.51)"/><path class="cls-2" d="M938.29,118.72a24.52,24.52,0,0,0,1,6.89,9.79,9.79,0,0,0,3.6,3.82c1,0.41,3.82.9,3.76-.53s0.72-4-.21-5.26-3.12,2.3-3.74-.13-0.9-1.86-2.06-3.68S938.2,116.77,938.29,118.72Z" transform="translate(0 0.51)"/><path class="cls-2" d="M1082.31,108.06c0.21,4.42.61,8,1.41,10a14.15,14.15,0,0,0,5.21,5.52c1.39,0.59,5.52,1.31,5.43-.76s1-5.8-.3-7.61-4.51,3.33-5.4-.19-1.31-2.68-3-5.31S1082.19,105.26,1082.31,108.06Z" transform="translate(0 0.51)"/><rect class="cls-1" x="1388.29" width="300.71" height="150.08"/><path class="cls-2" d="M1483,66.54c0.89,3.22-2.62,4.29-1.64,6.62s4.19,4.86,5.46,7.75,1.62,6.17,3.93,7.26,4.78,1,4.27,0a8.59,8.59,0,0,1-1.3-3.11c-0.82-2.62-1-3.69-2.36-5.63s-1.84-1.28-1.2-3.61,1.75-3.93.18-5.78-2.16-.92-3.87-2.26S1482.42,64.5,1483,66.54Z" transform="translate(0 0.51)"/><path class="cls-2" d="M1535.46,50.91a24.52,24.52,0,0,0,1,6.89,9.79,9.79,0,0,0,3.6,3.82c1,0.41,3.82.9,3.76-.53s0.72-4-.21-5.26-3.12,2.3-3.74-.13-0.9-1.86-2.06-3.68S1535.37,49,1535.46,50.91Z" transform="translate(0 0.51)"/><path class="cls-2" d="M1459.45,32.71c-3.61-1.64-6.64-2.78-8.54-2.94a12.71,12.71,0,0,0-6.54,1.91c-1,.87-3.3,3.88-1.61,4.65s4.21,3.2,6.21,2.86-0.83-5,2.36-4.24,2.68,0.05,5.47-.21S1461.75,33.76,1459.45,32.71Z" transform="translate(0 0.51)"/><path class="cls-2" d="M1415.62,91.94c1.3,3.63-1.32,4.35-.11,7s4.25,5.86,5.79,9.18,2.42,7,4.48,8.44,4,1.67,3.43.59a15.66,15.66,0,0,1-1.61-3.56,29.87,29.87,0,0,0-2.92-6.46c-1.45-2.3-1.71-1.64-1.62-4.1s0.69-4.07-.91-6.3-1.9-1.29-3.52-3S1414.79,89.63,1415.62,91.94Z" transform="translate(0 0.51)"/><path class="cls-2" d="M1568.31,16.87c-3.55-1.61-6.52-2.73-8.39-2.89a12.49,12.49,0,0,0-6.43,1.88c-1,.85-3.24,3.82-1.58,4.57s4.14,3.14,6.1,2.81-0.81-4.87,2.32-4.17,2.63,0.05,5.37-.21S1570.57,17.89,1568.31,16.87Z" transform="translate(0 0.51)"/><path class="cls-2" d="M1546.92,104.13s-3.53.86-2.57,2.59,2.57,4.37,2.57,4.37h3.78a2.79,2.79,0,0,0,1.29-3.48c-0.93-2.27-1.06-3.82-1.88-3.48A9.51,9.51,0,0,1,1546.92,104.13Z" transform="translate(0 0.51)"/><path class="cls-2" d="M1597.51,49.53s-6.59,1.61-4.8,4.84,4.8,8.16,4.8,8.16h7.06s4.15-2.26,2.41-6.5-2-7.14-3.52-6.5S1597.51,49.53,1597.51,49.53Z" transform="translate(0 0.51)"/><path class="cls-2" d="M1661.15,113.56s-3.53.86-2.57,2.59,2.57,4.37,2.57,4.37h3.78a2.79,2.79,0,0,0,1.29-3.48c-0.93-2.27-1.06-3.82-1.88-3.48A9.51,9.51,0,0,1,1661.15,113.56Z" transform="translate(0 0.51)"/><path class="cls-2" d="M1689,37.69V47c-1.19,1.25-2.13,3.19-3.19,2.83-1.57-.55-3-3.75-4.91-4.49s-4.32-.26-4.78-2.77,0-5.55.61-5.17,0.29,0.44,2.1.72,2.58,0.19,3.81,1.31,0.68,1.87,2.49.45C1686.72,38.63,1687.95,37.1,1689,37.69Z" transform="translate(0 0.51)"/><path class="cls-2" d="M1475.94,127.65c0.21,4.42.61,8,1.41,10a14.15,14.15,0,0,0,5.21,5.52c1.39,0.59,5.52,1.31,5.43-.76s1-5.8-.3-7.61-4.51,3.33-5.4-.19-1.31-2.68-3-5.31S1475.82,124.84,1475.94,127.65Z" transform="translate(0 0.51)"/><path class="cls-2" d="M1413.2,28.65c-0.34-3,3.9-3.86,3.27-6s-3.76-4.56-4.61-7.24-0.55-5.69-3-6.75-5.27-1-4.87-.14,0.44,0.45.83,2.88,0.37,3.4,1.51,5.21,1.83,1.22.61,3.33-2.83,3.55-1.43,5.29,2.27,0.9,4,2.17S1413.42,30.54,1413.2,28.65Z" transform="translate(0 0.51)"/><path class="cls-2" d="M1605.57,118.24a24.52,24.52,0,0,0,1,6.89,9.79,9.79,0,0,0,3.6,3.82c1,0.41,3.82.9,3.76-.53s0.72-4-.21-5.26-3.12,2.3-3.74-.13-0.9-1.86-2.06-3.68S1605.49,116.3,1605.57,118.24Z" transform="translate(0 0.51)"/><path class="cls-1" d="M341.09,338.57c-1.84,1.2-3.3.61-5.44,0.44-1.59-.13-1.76,0-2.44.52h-7.94a17.52,17.52,0,0,1,2.08-1h13.74Z" transform="translate(0 0.51)"/><path class="cls-1" d="M650.83,237.79V338.57H595.61l-18.86-4.08a13.43,13.43,0,0,1-2.29,4.08H0.83V237.79h650Z" transform="translate(0 0.51)"/><path class="cls-2" d="M95.53,304.85c0.89,3.22-2.62,4.29-1.64,6.62s4.19,4.86,5.46,7.75,1.62,6.17,3.93,7.26,4.78,1,4.27,0a8.59,8.59,0,0,1-1.3-3.11c-0.82-2.62-1-3.69-2.36-5.63s-1.84-1.28-1.2-3.61,1.75-3.93.18-5.78-2.16-.92-3.87-2.26S95,302.8,95.53,304.85Z" transform="translate(0 0.51)"/><path class="cls-2" d="M148,289.21a24.52,24.52,0,0,0,1,6.89,9.79,9.79,0,0,0,3.6,3.82c1,0.41,3.82.9,3.76-.53s0.72-4-.21-5.26-3.12,2.3-3.74-.13-0.9-1.86-2.06-3.68S147.92,287.27,148,289.21Z" transform="translate(0 0.51)"/><path class="cls-2" d="M454.38,328.39s8.71-11.31,3.76-15.57-4.88-10.89-16.31-11.59-9.76,1.8-8.87,4.87,4.26,4,7.35,5.52,6.78,1.4,8.6,4.54-1.68,3.73-.77,6.8S452.67,330.87,454.38,328.39Z" transform="translate(0 0.51)"/><path class="cls-2" d="M72,271c-3.61-1.64-6.64-2.78-8.54-2.94A12.71,12.71,0,0,0,56.92,270c-1,.87-3.3,3.88-1.61,4.65s4.21,3.2,6.21,2.86-0.83-5,2.36-4.24,2.68,0.05,5.47-.21S74.3,272.06,72,271Z" transform="translate(0 0.51)"/><path class="cls-2" d="M35.79,338.57a1.41,1.41,0,0,1,0,.2H28.89l-0.13-.2a11.27,11.27,0,0,1-.7-1.31,3.08,3.08,0,0,1-.24-2.09c0.29-1.32,1.24-2.44.35-4.93-0.83-2.31,1.39.17,3,1.86a5,5,0,0,0,1.63,1.2,4.63,4.63,0,0,1,1.88,1.76A5.37,5.37,0,0,1,35.79,338.57Z" transform="translate(0 0.51)"/><path class="cls-2" d="M180.86,255.17c-3.55-1.61-6.52-2.73-8.39-2.89a12.49,12.49,0,0,0-6.43,1.88c-1,.85-3.24,3.82-1.58,4.57s4.14,3.14,6.1,2.81-0.81-4.87,2.32-4.17,2.63,0.05,5.37-.21S183.12,256.19,180.86,255.17Z" transform="translate(0 0.51)"/><path class="cls-2" d="M210.06,287.84s-6.59,1.61-4.8,4.84,4.8,8.16,4.8,8.16h7.06s4.15-2.26,2.41-6.5-2-7.14-3.52-6.5S210.06,287.84,210.06,287.84Z" transform="translate(0 0.51)"/><path class="cls-2" d="M345.82,333.08c-0.2.23-.44,0.49-0.69,0.75l-0.36.37L344,335c-1.48,1.53-.61,1.86-2.6,3.35l-0.31.22H327.35c1.14-.46,2.38-0.91,3.56-1.47a31.09,31.09,0,0,0,5-3.27,19.75,19.75,0,0,1,3.26-2.09c2.41-1.09,3.16,1.51,6.45.36h0C346.83,331.67,346.56,332.23,345.82,333.08Z" transform="translate(0 0.51)"/><path class="cls-2" d="M303.5,284.3c-2.25-.19-3.56,4.36-5.14,3.82s-3-3.74-4.92-4.49-4.32-.26-4.78-2.77,0-5.54.61-5.17,0.29,0.44,2.1.72,2.57,0.2,3.81,1.31,0.68,1.87,2.49.46,3.16-3.21,4.3-1.81,0.36,2.36,1.09,4.08S304.92,284.43,303.5,284.3Z" transform="translate(0 0.51)"/><path class="cls-2" d="M576.89,333.83c0,0.23-.09.45-0.14,0.66a13.43,13.43,0,0,1-2.29,4.08h-9.88a6.93,6.93,0,0,1,1.38-1.42c1.48-1.09,2.48.68,3.82-.92a3.61,3.61,0,0,0,.8-2.4c0-1-.15-2.07,0-3.13,0-.15,0-0.29,0-0.44,0.16-1.81.12-3.6,1.49-4.6s2.5-2.47,4.36,3.83A10.05,10.05,0,0,1,576.89,333.83Z" transform="translate(0 0.51)"/><path class="cls-2" d="M393.62,330.13s-3.53.86-2.57,2.59,2.57,4.37,2.57,4.37h3.78a2.79,2.79,0,0,0,1.29-3.48c-0.93-2.27-1.06-3.82-1.88-3.48A9.51,9.51,0,0,1,393.62,330.13Z" transform="translate(0 0.51)"/><path class="cls-2" d="M508.53,281.56c-0.76-4.28-1.58-7.72-2.53-9.58a14.07,14.07,0,0,0-5.18-4.94c-1.26-.46-4.88-0.81-4.53,1.19s-0.11,5.73,1.27,7.37,3.39-3.61,4.63-.26,1.47,2.5,3.25,4.92S509,284.28,508.53,281.56Z" transform="translate(0 0.51)"/><path class="cls-2" d="M457.22,254.59s-1.26-7.71-4.69-7.71-6-2.76-10.34,1-2.81,4.17-1.3,5.12,3.07,0.14,4.78-.32,3-1.81,4.85-1.16,0.84,2.12,2.36,3.06S457.57,256.21,457.22,254.59Z" transform="translate(0 0.51)"/><path class="cls-2" d="M632.06,261.93s6.29-.64,6.93-3.14,3.28-4.27,1.16-7.61S637.4,249,636.37,250s-0.68,2.25-.64,3.51,0.87,2.25,0,3.59-1.82.54-2.84,1.61S630.72,262.13,632.06,261.93Z" transform="translate(0 0.51)"/><path class="cls-2" d="M370,266.46s-6.59,1.61-4.8,4.84,4.8,8.16,4.8,8.16H377s4.15-2.26,2.41-6.5-2-7.14-3.52-6.5S370,266.46,370,266.46Z" transform="translate(0 0.51)"/><path class="cls-2" d="M508.57,305.8s-6.59,1.61-4.8,4.84,4.8,8.16,4.8,8.16h7.06s4.15-2.26,2.41-6.5-2-7.14-3.52-6.5S508.57,305.8,508.57,305.8Z" transform="translate(0 0.51)"/><path class="cls-2" d="M410.6,250.47s-6,1.28-4.34,3.85,4.34,6.51,4.34,6.51H417s3.75-1.8,2.18-5.18-1.8-5.7-3.18-5.18S410.6,250.47,410.6,250.47Z" transform="translate(0 0.51)"/><path class="cls-2" d="M524.69,252.4c-2-.94-1.12-2.76-2.71-3.31s-4.19-.29-6.19-0.94-3.81-1.84-5.31-1.35-2.45,1.52-1.76,1.68a7,7,0,0,1,2.12.73,13.11,13.11,0,0,0,3.84,1.32c1.55,0.24,1.41-.21,2.33,1s1.29,2.27,2.88,2.4,1.35-.49,2.73-0.63S526,253,524.69,252.4Z" transform="translate(0 0.51)"/><path class="cls-2" d="M25.75,267c-0.34-3,3.9-3.86,3.27-6s-3.76-4.56-4.61-7.24-0.55-5.69-3-6.75-5.27-1-4.87-.14,0.44,0.45.83,2.88,0.37,3.4,1.51,5.21,1.83,1.22.61,3.33-2.83,3.55-1.43,5.29,2.27,0.9,4,2.17S26,268.84,25.75,267Z" transform="translate(0 0.51)"/><path class="cls-2" d="M644,339.53h-5.11a2.08,2.08,0,0,0,1.63-1c0.86-1.34,0-2.33,0-3.59s-0.39-2.44.64-3.51,1.66-2.2,3.78,1.14C646.82,335.63,644.84,337.37,644,339.53Z" transform="translate(0 0.51)"/><rect class="cls-1" y="446.51" width="650" height="50"/><path class="cls-2" d="M71.17,479.23c-3.61-1.64-6.64-2.78-8.54-2.94a12.71,12.71,0,0,0-6.54,1.91c-1,.87-3.3,3.88-1.61,4.65s4.21,3.2,6.21,2.86-0.83-5,2.36-4.24,2.68,0.05,5.47-.21S73.47,480.27,71.17,479.23Z" transform="translate(0 0.51)"/><path class="cls-2" d="M180,463.38c-3.55-1.61-6.52-2.73-8.39-2.89a12.49,12.49,0,0,0-6.43,1.88c-1,.85-3.24,3.82-1.58,4.57s4.14,3.14,6.1,2.81-0.81-4.87,2.32-4.17,2.63,0.05,5.37-.21S182.29,464.4,180,463.38Z" transform="translate(0 0.51)"/><path class="cls-2" d="M302.67,492.51c-2.25-.19-3.56,4.36-5.14,3.82s-3-3.74-4.92-4.49-4.32-.26-4.78-2.77,0-5.54.61-5.17,0.29,0.44,2.1.72,2.57,0.2,3.81,1.31,0.68,1.87,2.49.46,3.16-3.21,4.3-1.81,0.36,2.36,1.09,4.08S304.09,492.63,302.67,492.51Z" transform="translate(0 0.51)"/><path class="cls-2" d="M507.7,489.77c-0.76-4.28-1.58-7.72-2.53-9.58a14.07,14.07,0,0,0-5.18-4.94c-1.26-.46-4.88-0.81-4.53,1.19s-0.11,5.73,1.27,7.37,3.39-3.61,4.63-.26,1.47,2.5,3.25,4.92S508.19,492.49,507.7,489.77Z" transform="translate(0 0.51)"/><path class="cls-2" d="M456.39,462.79s-1.26-7.71-4.69-7.71-6-2.76-10.34,1-2.81,4.17-1.3,5.12,3.07,0.14,4.78-.32,3-1.81,4.85-1.16,0.84,2.12,2.36,3.06S456.74,464.42,456.39,462.79Z" transform="translate(0 0.51)"/><path class="cls-2" d="M631.23,470.14s6.29-.64,6.93-3.14,3.28-4.27,1.16-7.61-2.75-2.21-3.78-1.14-0.68,2.25-.64,3.51,0.87,2.25,0,3.59-1.82.54-2.84,1.61S629.89,470.33,631.23,470.14Z" transform="translate(0 0.51)"/><path class="cls-2" d="M369.14,474.67s-6.59,1.61-4.8,4.84,4.8,8.16,4.8,8.16h7.06s4.15-2.26,2.41-6.5-2-7.14-3.52-6.5S369.14,474.67,369.14,474.67Z" transform="translate(0 0.51)"/><path class="cls-2" d="M409.77,458.68s-6,1.28-4.34,3.85,4.34,6.51,4.34,6.51h6.38s3.75-1.8,2.18-5.18-1.8-5.7-3.18-5.18S409.77,458.68,409.77,458.68Z" transform="translate(0 0.51)"/><path class="cls-2" d="M523.86,460.61c-2-.94-1.12-2.76-2.71-3.31S517,457,515,456.35s-3.81-1.84-5.31-1.35-2.45,1.52-1.76,1.68a7,7,0,0,1,2.12.73,13.11,13.11,0,0,0,3.84,1.32c1.55,0.24,1.41-.21,2.33,1s1.29,2.27,2.88,2.4,1.35-.49,2.73-0.63S525.13,461.2,523.86,460.61Z" transform="translate(0 0.51)"/><path class="cls-2" d="M24.92,475.17c-0.34-3,3.9-3.86,3.27-6s-3.76-4.56-4.61-7.24-0.55-5.69-3-6.75-5.27-1-4.87-.14,0.44,0.45.83,2.88,0.37,3.4,1.51,5.21,1.83,1.22.61,3.33-2.83,3.55-1.43,5.29,2.27,0.9,4,2.17S25.13,477.05,24.92,475.17Z" transform="translate(0 0.51)"/><rect class="cls-1" x="721" y="238.82" width="500" height="100.02"/><path class="cls-2" d="M815.7,305.37c0.89,3.22-2.62,4.29-1.64,6.62s4.19,4.86,5.46,7.75,1.62,6.17,3.93,7.26,4.78,1,4.27,0a8.59,8.59,0,0,1-1.3-3.11c-0.82-2.62-1-3.69-2.36-5.63s-1.84-1.28-1.2-3.61,1.75-3.93.18-5.78-2.16-.92-3.87-2.26S815.14,303.32,815.7,305.37Z" transform="translate(0 0.51)"/><path class="cls-2" d="M868.17,289.73a24.52,24.52,0,0,0,1,6.89,9.79,9.79,0,0,0,3.6,3.82c1,0.41,3.82.9,3.76-.53s0.72-4-.21-5.26-3.12,2.3-3.74-.13-0.9-1.86-2.06-3.68S868.09,287.79,868.17,289.73Z" transform="translate(0 0.51)"/><path class="cls-2" d="M1174.55,328.91s8.71-11.31,3.76-15.57-4.88-10.89-16.31-11.59-9.76,1.8-8.87,4.87,4.26,4,7.35,5.52,6.78,1.4,8.6,4.54-1.68,3.73-.77,6.8S1172.84,331.39,1174.55,328.91Z" transform="translate(0 0.51)"/><path class="cls-2" d="M792.17,271.54c-3.61-1.64-6.64-2.78-8.54-2.94a12.71,12.71,0,0,0-6.54,1.91c-1,.87-3.3,3.88-1.61,4.65s4.21,3.2,6.21,2.86-0.83-5,2.36-4.24,2.68,0.05,5.47-.21S794.47,272.58,792.17,271.54Z" transform="translate(0 0.51)"/><path class="cls-2" d="M755.93,338.33H748.5c-0.1-.19-0.19-0.37-0.27-0.55a0.11,0.11,0,0,1,0,0c-0.68-1.55-.07-2.44.28-3.64a4.91,4.91,0,0,0-.15-3.33c-0.83-2.31,1.39.17,3,1.86a5.29,5.29,0,0,0,1.7,1.24,4.57,4.57,0,0,1,1.81,1.72,5.57,5.57,0,0,1,1,2.15A4.11,4.11,0,0,1,755.93,338.33Z" transform="translate(0 0.51)"/><path class="cls-2" d="M901,255.69c-3.55-1.61-6.52-2.73-8.39-2.89a12.49,12.49,0,0,0-6.43,1.88c-1,.85-3.24,3.82-1.58,4.57s4.14,3.14,6.1,2.81-0.81-4.87,2.32-4.17,2.63,0.05,5.37-.21S903.29,256.71,901,255.69Z" transform="translate(0 0.51)"/><path class="cls-2" d="M930.23,288.35s-6.59,1.61-4.8,4.84,4.8,8.16,4.8,8.16h7.06s4.15-2.26,2.41-6.5-2-7.14-3.52-6.5S930.23,288.35,930.23,288.35Z" transform="translate(0 0.51)"/><path class="cls-2" d="M1066.49,332.94a23.24,23.24,0,0,1-2.32,2.58c-1.28,1.33-.8,1.75-1.95,2.81h-12.8c0.52-.2,1-0.42,1.55-0.66l0.11,0c3-1.4,5.82-4.27,8.23-5.36s3.16,1.51,6.45.36C1066.64,332.31,1066.76,332.5,1066.49,332.94Z" transform="translate(0 0.51)"/><path class="cls-2" d="M1023.67,284.82c-2.25-.19-3.56,4.36-5.14,3.82s-3-3.74-4.92-4.49-4.32-.26-4.78-2.77,0-5.54.61-5.17,0.29,0.44,2.1.72,2.57,0.2,3.81,1.31,0.68,1.87,2.49.46,3.16-3.21,4.3-1.81,0.36,2.36,1.09,4.08S1025.09,284.95,1023.67,284.82Z" transform="translate(0 0.51)"/><path class="cls-2" d="M1113.79,330.64s-3.53.86-2.57,2.59,2.57,4.37,2.57,4.37h3.78a2.79,2.79,0,0,0,1.29-3.48c-0.93-2.27-1.06-3.82-1.88-3.48A9.51,9.51,0,0,1,1113.79,330.64Z" transform="translate(0 0.51)"/><path class="cls-2" d="M1221,267.57v7.22c-1.08.38-2.31,2.47-3.26,1.35-1.38-1.65-.91-5.37-1.27-7.37a1.14,1.14,0,0,1,0-.26c0-1.28,1.83-1.41,3.28-1.22h0A6.86,6.86,0,0,1,1221,267.57Z" transform="translate(0 0.51)"/><path class="cls-2" d="M1177.39,255.11s-1.26-7.71-4.69-7.71-6-2.76-10.34,1-2.81,4.17-1.3,5.12,3.07,0.14,4.78-.32,3-1.81,4.85-1.16,0.84,2.12,2.36,3.06S1177.74,256.73,1177.39,255.11Z" transform="translate(0 0.51)"/><path class="cls-2" d="M1090.14,267s-6.59,1.61-4.8,4.84,4.8,8.16,4.8,8.16h7.06s4.15-2.26,2.41-6.5-2-7.14-3.52-6.5S1090.14,267,1090.14,267Z" transform="translate(0 0.51)"/><path class="cls-2" d="M1130.77,251s-6,1.28-4.34,3.85,4.34,6.51,4.34,6.51h6.38s3.75-1.8,2.18-5.18-1.8-5.7-3.18-5.18S1130.77,251,1130.77,251Z" transform="translate(0 0.51)"/><path class="cls-2" d="M745.92,267.48c-0.34-3,3.9-3.86,3.27-6s-3.76-4.56-4.61-7.24-0.55-5.69-3-6.75-5.27-1-4.87-.14,0.44,0.45.83,2.88,0.37,3.4,1.51,5.21,1.83,1.22.61,3.33-2.83,3.55-1.43,5.29,2.27,0.9,4,2.17S746.13,269.36,745.92,267.48Z" transform="translate(0 0.51)"/><rect class="cls-1" x="1389" y="238.67" width="300" height="100.02"/><path class="cls-2" d="M1483.7,305.22c0.89,3.22-2.62,4.29-1.64,6.62s4.19,4.86,5.46,7.75,1.62,6.17,3.93,7.26,4.78,1,4.27,0a8.59,8.59,0,0,1-1.3-3.11c-0.82-2.62-1-3.69-2.36-5.63s-1.84-1.28-1.2-3.61,1.75-3.93.18-5.78-2.16-.92-3.87-2.26S1483.14,303.18,1483.7,305.22Z" transform="translate(0 0.51)"/><path class="cls-2" d="M1536.17,289.59a24.52,24.52,0,0,0,1,6.89,9.79,9.79,0,0,0,3.6,3.82c1,0.41,3.82.9,3.76-.53s0.72-4-.21-5.26-3.12,2.3-3.74-.13-0.9-1.86-2.06-3.68S1536.09,287.64,1536.17,289.59Z" transform="translate(0 0.51)"/><path class="cls-2" d="M1460.17,271.39c-3.61-1.64-6.64-2.78-8.54-2.94a12.71,12.71,0,0,0-6.54,1.91c-1,.87-3.3,3.88-1.61,4.65s4.21,3.2,6.21,2.86-0.83-5,2.36-4.24,2.68,0.05,5.47-.21S1462.47,272.43,1460.17,271.39Z" transform="translate(0 0.51)"/><path class="cls-2" d="M1423.93,338.18h-7.43c-0.1-.19-0.19-0.37-0.27-0.55a0.11,0.11,0,0,1,0,0c-0.68-1.55-.07-2.44.28-3.64a4.91,4.91,0,0,0-.15-3.33c-0.83-2.31,1.39.17,3,1.86a5.29,5.29,0,0,0,1.7,1.24,4.57,4.57,0,0,1,1.81,1.72,5.57,5.57,0,0,1,1,2.15A4.11,4.11,0,0,1,1423.93,338.18Z" transform="translate(0 0.51)"/><path class="cls-2" d="M1569,255.55c-3.55-1.61-6.52-2.73-8.39-2.89a12.49,12.49,0,0,0-6.43,1.88c-1,.85-3.24,3.82-1.58,4.57s4.14,3.14,6.1,2.81-0.81-4.87,2.32-4.17,2.63,0.05,5.37-.21S1571.29,256.57,1569,255.55Z" transform="translate(0 0.51)"/><path class="cls-2" d="M1598.23,288.21s-6.59,1.61-4.8,4.84,4.8,8.16,4.8,8.16h7.06s4.15-2.26,2.41-6.5-2-7.14-3.52-6.5S1598.23,288.21,1598.23,288.21Z" transform="translate(0 0.51)"/><path class="cls-2" d="M1689,276.25v10.27c-0.87,1.12-1.63,2.27-2.47,2-1.57-.55-3-3.75-4.92-4.49s-4.31-.27-4.77-2.77,0-5.55.61-5.17,0.28,0.44,2.1.71,2.58,0.2,3.81,1.32,0.67,1.87,2.49.45C1687.09,277.58,1688.11,276.43,1689,276.25Z" transform="translate(0 0.51)"/><path class="cls-2" d="M1413.92,267.33c-0.34-3,3.9-3.86,3.27-6s-3.76-4.56-4.61-7.24-0.55-5.69-3-6.75-5.27-1-4.87-.14,0.44,0.45.83,2.88,0.37,3.4,1.51,5.21,1.83,1.22.61,3.33-2.83,3.55-1.43,5.29,2.27,0.9,4,2.17S1414.13,269.22,1413.92,267.33Z" transform="translate(0 0.51)"/><rect class="cls-1" x="715" y="446.61" width="500" height="49.99"/><path class="cls-2" d="M786.17,479.32c-3.61-1.64-6.64-2.78-8.54-2.94a12.71,12.71,0,0,0-6.54,1.91c-1,.87-3.3,3.88-1.61,4.65s4.21,3.2,6.21,2.86-0.83-5,2.36-4.24,2.68,0.05,5.47-.21S788.47,480.36,786.17,479.32Z" transform="translate(0 0.51)"/><path class="cls-2" d="M895,463.47c-3.55-1.61-6.52-2.73-8.39-2.89a12.49,12.49,0,0,0-6.43,1.88c-1,.85-3.24,3.82-1.58,4.57s4.14,3.14,6.1,2.81-0.81-4.87,2.32-4.17,2.63,0.05,5.37-.21S897.29,464.5,895,463.47Z" transform="translate(0 0.51)"/><path class="cls-2" d="M1017.67,492.61c-2.25-.19-3.56,4.36-5.14,3.82s-3-3.74-4.92-4.49-4.32-.26-4.78-2.77,0-5.54.61-5.17,0.29,0.44,2.1.72,2.57,0.2,3.81,1.31,0.68,1.87,2.49.46,3.16-3.21,4.3-1.81,0.36,2.36,1.09,4.08S1019.1,492.73,1017.67,492.61Z" transform="translate(0 0.51)"/><path class="cls-2" d="M1215,475.36v7.22c-1.08.38-2.31,2.46-3.26,1.34-1.38-1.65-.91-5.36-1.27-7.37S1213.74,474.9,1215,475.36Z" transform="translate(0 0.51)"/><path class="cls-2" d="M1171.39,462.89s-1.26-7.71-4.69-7.71-6-2.76-10.34,1-2.81,4.17-1.3,5.12,3.07,0.14,4.78-.32,3-1.81,4.85-1.16,0.84,2.12,2.36,3.06S1171.74,464.51,1171.39,462.89Z" transform="translate(0 0.51)"/><path class="cls-2" d="M1084.14,474.76s-6.59,1.61-4.8,4.84,4.8,8.16,4.8,8.16h7.06s4.15-2.26,2.41-6.5-2-7.14-3.52-6.5S1084.14,474.76,1084.14,474.76Z" transform="translate(0 0.51)"/><path class="cls-2" d="M1124.77,458.77s-6,1.28-4.34,3.85,4.34,6.51,4.34,6.51h6.38s3.75-1.8,2.18-5.18-1.8-5.7-3.18-5.18S1124.77,458.77,1124.77,458.77Z" transform="translate(0 0.51)"/><path class="cls-2" d="M739.92,475.26c-0.34-3,3.9-3.86,3.27-6s-3.76-4.56-4.61-7.24-0.55-5.69-3-6.75-5.27-1-4.87-.14,0.44,0.45.83,2.88,0.37,3.4,1.51,5.21,1.83,1.22.61,3.33-2.83,3.55-1.43,5.29,2.27,0.9,4,2.17S740.13,477.15,739.92,475.26Z" transform="translate(0 0.51)"/><rect class="cls-1" x="1389" y="446.51" width="300" height="50.25"/><path class="cls-2" d="M1460.17,479.23c-3.61-1.64-6.64-2.78-8.54-2.94a12.71,12.71,0,0,0-6.54,1.91c-1,.87-3.3,3.88-1.61,4.65s4.21,3.2,6.21,2.86-0.83-5,2.36-4.24,2.68,0.05,5.47-.21S1462.47,480.27,1460.17,479.23Z" transform="translate(0 0.51)"/><path class="cls-2" d="M1569,463.39c-3.55-1.61-6.52-2.73-8.39-2.89a12.49,12.49,0,0,0-6.43,1.88c-1,.85-3.24,3.82-1.58,4.57s4.14,3.14,6.1,2.81-0.81-4.87,2.32-4.17,2.63,0.05,5.37-.21S1571.29,464.41,1569,463.39Z" transform="translate(0 0.51)"/><path class="cls-2" d="M1689,484.09v10.27c-0.87,1.12-1.63,2.27-2.47,2-1.57-.55-3-3.75-4.92-4.49s-4.31-.27-4.77-2.77,0-5.55.61-5.17,0.28,0.44,2.1.71,2.58,0.2,3.81,1.32,0.67,1.87,2.49.45C1687.09,485.42,1688.11,484.27,1689,484.09Z" transform="translate(0 0.51)"/><path class="cls-2" d="M1413.92,475.17c-0.34-3,3.9-3.86,3.27-6s-3.76-4.56-4.61-7.24-0.55-5.69-3-6.75-5.27-1-4.87-.14,0.44,0.45.83,2.88,0.37,3.4,1.51,5.21,1.83,1.22.61,3.33-2.83,3.55-1.43,5.29,2.27,0.9,4,2.17S1414.13,477.06,1413.92,475.17Z" transform="translate(0 0.51)"/></svg>