<svg id="Inclusion_Grain_Large_" data-name="Inclusion (Grain Large)" xmlns="http://www.w3.org/2000/svg" viewBox="0 0 500 150"><defs><style>.cls-1{fill:none;}.cls-2{fill:#fff;stroke:#1d1d1b;stroke-miterlimit:10;stroke-width:0.5px;}</style></defs><title>M_InclusionGrainLarge</title><rect class="cls-1" x="0.16" y="0.15" width="500.07" height="150.04"/><path class="cls-2" d="M164.16,54.46c1.62,2.16-4.76,2.88-3,4.45s7.61,3.27,9.92,5.21S174,68.27,178.25,69s8.7,0.64,7.76,0a6.23,6.23,0,0,1-2.36-2.09c-1.49-1.76-1.82-2.48-4.29-3.78s-3.34-.86-2.17-2.42,3.19-2.64.34-3.89-3.92-.62-7-1.51S163.14,53.09,164.16,54.46Z"/><path class="cls-2" d="M233.75,43.92c0.26,2.05.76,3.71,1.77,4.63s4.8,2.29,6.55,2.57,6.95,0.61,6.83-.35,1.31-2.69-.38-3.53-5.67,1.55-6.79-.09-1.64-1.25-3.75-2.47S233.59,42.61,233.75,43.92Z"/><path class="cls-2" d="M355.43,116.18s11.53-5.91,4.08-6-7.91-2.33-24.36.33-13.83,3.05-12.3,3.84,6.44,0.23,11-.05,9.84-1.26,12.72-.69-2.09,1.64-.53,2.42S353.19,117.43,355.43,116.18Z"/><path class="cls-2" d="M84.11,111.11a134.62,134.62,0,0,0-15.53-2,55.13,55.13,0,0,0-11.89,1.28c-1.88.58-6,2.61-2.92,3.13s7.66,2.15,11.28,1.92-1.5-3.33,4.29-2.85,4.87,0,9.94-.14S88.29,111.81,84.11,111.11Z"/><path class="cls-2" d="M61.12,78.46c4.59,2,.62,3,4.42,4.43s11,2.64,15.84,4.35S90,91,94.5,91.44s7.9,0.08,6.2-.46a34.57,34.57,0,0,1-5.06-1.84,64.16,64.16,0,0,0-9.18-3.34c-4-1.09-4-.62-5.43-2.17s-1.5-2.71-5.66-3.73-4.06-.35-7.91-1S58.21,77.21,61.12,78.46Z"/><path class="cls-2" d="M323.33,37.23a132.26,132.26,0,0,0-15.26-1.94,54.16,54.16,0,0,0-11.68,1.26c-1.84.57-5.9,2.56-2.87,3.07s7.52,2.11,11.08,1.89-1.48-3.27,4.22-2.8,4.79,0,9.77-.14S327.43,37.92,323.33,37.23Z"/><path class="cls-2" d="M271.29,86.58s-6.41.58-4.67,1.74,4.67,2.93,4.67,2.93h6.86s4-.81,2.35-2.34-1.94-2.57-3.42-2.34A46.52,46.52,0,0,1,271.29,86.58Z"/><path class="cls-2" d="M352.86,44.65s-12,1.08-8.73,3.25,8.73,5.48,8.73,5.48H365.7s7.54-1.52,4.38-4.37-3.62-4.8-6.39-4.37S352.86,44.65,352.86,44.65Z"/><path class="cls-2" d="M434.31,135.13c-6,.77-7.35-1-11.74-0.24s-9.5,2.66-15,3.6-11.45,1.43-13.8,2.75-2.52,2.61-.76,2.25a48.34,48.34,0,0,1,5.84-1,93.77,93.77,0,0,0,10.59-1.77c3.74-.9,2.63-1.09,6.73-1s6.84,0.56,10.46-.44,2-1.22,4.72-2.25S438.11,134.64,434.31,135.13Z"/><path class="cls-2" d="M490.46,109.81s-6.41.58-4.67,1.74,4.67,2.93,4.67,2.93h6.86s4-.81,2.35-2.34-1.94-2.57-3.42-2.34A46.52,46.52,0,0,1,490.46,109.81Z"/><path class="cls-2" d="M380.6,78.87c-4.09-.13-6.48,2.93-9.34,2.57s-5.4-2.51-8.94-3-7.85-.18-8.68-1.86,0-3.72,1.11-3.47,0.52,0.3,3.82.48,4.68,0.13,6.92.88,1.23,1.26,4.52.31,5.75-2.16,7.82-1.22,0.65,1.59,2,2.74S383.19,79,380.6,78.87Z"/><path class="cls-2" d="M447.12,23.32a6.22,6.22,0,0,0,1.46,3.82,15.74,15.74,0,0,0,5.4,2.12c1.44,0.22,5.73.5,5.63-.29s1.08-2.22-.31-2.91-4.67,1.27-5.6-.07-1.36-1-3.09-2S447,22.24,447.12,23.32Z"/><path class="cls-2" d="M306.76,10.83a8.87,8.87,0,0,0-8-4.13c-5.54.31-9.84-1.08-16.7,1.53s-4.3,2.72-1.8,3.15,5-.2,7.72-0.63,4.72-1.34,7.79-1.13,1.49,1.18,4,1.6S307.42,11.76,306.76,10.83Z"/><path class="cls-2" d="M27.49,141.63s-5.29.48-3.85,1.43,3.85,2.42,3.85,2.42h5.66s3.33-.67,1.93-1.93-1.6-2.12-2.82-1.93A38.35,38.35,0,0,1,27.49,141.63Z"/><path class="cls-2" d="M131.37,35.42a14.1,14.1,0,0,0-3.79-5.3,25.68,25.68,0,0,0-7.76-2.73c-1.89-.25-7.32-0.45-6.79.66s-0.17,3.17,1.91,4.08,5.09-2,6.95-.14,2.2,1.38,4.87,2.72S132.09,36.92,131.37,35.42Z"/><path class="cls-2" d="M271.38,115.64a7.78,7.78,0,0,0-7-4.27c-5.13,0-9-1.53-15.51.54s-4.21,2.31-1.94,2.83,4.61,0.08,7.16-.18,4.46-1,7.27-.64,1.26,1.17,3.54,1.7S271.9,116.54,271.38,115.64Z"/><path class="cls-2" d="M373.15,29.93s9.42-.35,10.39-1.74,4.91-2.36,1.74-4.21-4.12-1.22-5.66-.63-1,1.24-1,1.94,1.31,1.24,0,2-2.73.3-4.26,0.89S371.14,30,373.15,29.93Z"/><path class="cls-2" d="M124.07,106.09c0.37,3,1.1,5.37,2.55,6.69s6.94,3.32,9.47,3.71,10,0.88,9.87-.51,1.9-3.89-.55-5.11-8.19,2.23-9.82-.13-2.38-1.8-5.42-3.57S123.84,104.2,124.07,106.09Z"/><path class="cls-2" d="M175.84,135.55s-9.88.89-7.2,2.68,7.2,4.52,7.2,4.52h10.58s6.22-1.25,3.61-3.6-3-4-5.27-3.6A71.7,71.7,0,0,1,175.84,135.55Z"/><path class="cls-2" d="M205.3,11.58c-4.88-.84-2.72-2.48-6.58-3s-10.19-.26-15-0.85-9.26-1.65-12.9-1.21-5.95,1.36-4.28,1.51a40.32,40.32,0,0,1,5.14.66A74.4,74.4,0,0,0,181,9.9c3.76,0.21,3.42-.19,5.66.87s3.13,2,7,2.15,3.28-.44,6.64-0.57S208.4,12.12,205.3,11.58Z"/><path class="cls-2" d="M36.35,40.31c-0.61-2,7.09-2.59,5.95-4s-6.84-3.07-8.38-4.87-1-3.82-5.38-4.53-9.58-.68-8.86-0.1a3,3,0,0,1,1.5,1.93c0.7,1.63.67,2.28,2.75,3.5S27.26,33,25,34.45,19.9,36.83,22.45,38s4.13,0.6,7.19,1.45S36.75,41.57,36.35,40.31Z"/><path class="cls-2" d="M417.7,87.54c0.26,2.05.76,3.71,1.77,4.63s4.8,2.29,6.55,2.57,6.95,0.61,6.83-.35,1.31-2.69-.38-3.53-5.67,1.55-6.79-.09-1.64-1.25-3.75-2.47S417.54,86.24,417.7,87.54Z"/><path class="cls-2" d="M4.77,74.92s9.42-.35,10.39-1.74S20.07,70.82,16.9,69s-4.12-1.22-5.66-.63-1,1.24-1,1.94,1.31,1.24,0,2-2.73.3-4.26,0.89S2.76,75,4.77,74.92Z"/><path class="cls-2" d="M500.23,81v6.84h-8.16s-5-2.65-7.89-4.37,7.89-2.59,7.89-2.59S497.09,81.16,500.23,81Z"/></svg>