<svg id="EutecticPhaseDeformedDendrite" xmlns="http://www.w3.org/2000/svg" viewBox="0 0 650 100"><defs><style>.cls-1{fill:#9c9b9b;stroke:#1d1d1b;stroke-miterlimit:10;stroke-width:0.5px;}.cls-2{fill:none;}</style></defs><title>M_EutheticPhaseDeformedDendrite</title><path class="cls-1" d="M0.77,36.62c10.44,5.72,4.52,11.86,9.37,14.86s5.66,6.39,11.29,7.35,9.78,0.8,13.39,4.46S40.34,69,39,72.62,32.13,78.83,33.68,81a29.94,29.94,0,0,0,5.26,4.82s4.85,1.41,6.8.58,2.17-2.49.33-3.25a19,19,0,0,0-4.9-.94s-4.82-4.22-2-5.41a13.48,13.48,0,0,0,5.35-4.62s-1.16-2.48,2.33-2.88,5.54-1,9.06,2.18S60,76.33,63.58,76s8.26,0.73,7.9-.67-0.11-3.7-2.69-5a25.45,25.45,0,0,0-5.43-2.1c-1.06-.24-2.86.27-8.79-2.3s-7.55-2.24-10.92-6-4.2-1-4.35-5.06-1.37-5.11.51-6.31,6.12,2.67,6.68-.41a5.81,5.81,0,0,0-1.75-5.35C44.15,42,42.57,41.62,40.22,42a10.63,10.63,0,0,0-4.68,2.6l-1.45,4s0.68,2.07-.35,3.28-0.56-.15-1,1.22-3.07,2.22-3.07,2.22a7.63,7.63,0,0,1-2.58-.57c-1.41-.56-5.17-2.21-5.17-2.21l-4.11-.33L15.41,50l-0.6-.55-4.67-8.08L6.73,36.85S-2.71,34.72.77,36.62Z"/><path class="cls-1" d="M321.36,46.89s6.81-5.55,2.94-7.64-3.82-5.34-12.77-5.68-7.64.88-6.94,2.39,3.34,2,5.76,2.71,5.31,0.69,6.73,2.23-1.31,1.83-.6,3.34S320,48.11,321.36,46.89Z"/><path class="cls-1" d="M136.54,56.06c-4.89-1.44-2.73-4.23-6.6-5.06s-10.23-.44-15.09-1.44-9.29-2.81-12.94-2.07-6,2.32-4.3,2.57a24.84,24.84,0,0,1,5.16,1.12c4.08,1.11,5.58,1.66,9.35,2s3.43-.33,5.68,1.49,3.14,3.48,7,3.66,3.3-.74,6.67-1S139.65,57,136.54,56.06Z"/><path class="cls-1" d="M55.05,21.56c1.8,3.46-2.22,4.08-.51,6.63s6.17,5.62,8.35,8.79,3.34,6.62,6.39,8.07,6,1.66,5.19.63a12.72,12.72,0,0,1-2.27-3.4c-1.58-2.83-2-4-4.12-6.16s-2.51-1.59-2.25-3.9,1.25-3.83-1.07-6-2.82-1.26-5.2-2.88S53.91,19.36,55.05,21.56Z"/><path class="cls-1" d="M522.8,99.74c2.75-3.35,4.7-6.17,5.1-8s-1.12-5.26-2.33-6.28-5.54-3.29-6.83-1.72-5.13,3.85-4.78,5.75,7.48-.57,6.16,2.42-0.3,2.53-.13,5.18S521.05,101.87,522.8,99.74Z"/><path class="cls-1" d="M284.68,100H271.31a11,11,0,0,1-1.44-.77c-3.2-2.08-3.57-4.15-5.41-3.69S260,95.27,259,97.83a3.83,3.83,0,0,0-.27,2.17H247.29a13.86,13.86,0,0,0-4.89-2.17c-4-1.14-7.58-1.34-5.81-4.12s0.67-3.93,4-5.31,6.24-1.54,5.14-4,0.74-2.4-2.57-4.62-0.8-3.37-7-4.06-9.9.78-8.42-2.38-0.37-4.5,4.77-5.56,8.1-.55,8.1,0S234,72,234,72s-0.6,1.28,2.64,1.31c0,0,15-.16,15.74,2.15s4.41,4.67,2.94,8.1-2.94,3.42-5.88,5.73-6.57,4.61-3.29,6.91,3.29,1.12,5.49,1.6,3.31-.88,5.52-4.12,4.41-5.54,7.35-5.08,4,1.15,6.61,3.22,4.79,4.3,9.2,6.07A34.85,34.85,0,0,1,284.68,100Z"/><path class="cls-1" d="M640.95,90.28s6.81-5.55,2.94-7.64-3.82-5.34-12.77-5.68-7.64.88-6.94,2.39,3.34,2,5.76,2.71,5.31,0.69,6.73,2.23-1.31,1.83-.6,3.34S639.6,91.5,640.95,90.28Z"/><path class="cls-1" d="M419.13,95.37L413.88,100h-7.56c-2.17-.81-4.31-1.77-5-2.61-1.53-1.9-.94-3.38-3.48-3.33-1.83,0-7.8,3.82-11,5.94h-7.52a4.63,4.63,0,0,1,.89-0.48c4.61-2.08,9-8.1,9-8.1L390.73,90l-8.94-4.76s-5.43-3.66-8.11-4.3a8.25,8.25,0,0,0-7.08,2c-1.22,1.37-4.47,1.38-9.35-1.8-0.91-.59-1.62-2.32-2.34-1.81-1,.73.2,2.2-1.77,3.21a66.45,66.45,0,0,1-9.77,3.54c-2.12.64-4.49,0.17-4.76,2.7s-0.26,2.54.53,4.2,2.64,3.18,0,3.44-2.76-.35-6.53-1.3S330.69,91.71,327,93s-5,1.11-6.34,1.69-6.45.77-2.17,2.1,5.6,1.17,8,1.8a5.24,5.24,0,0,1,2.8,1.36h-18.5a1,1,0,0,1-.22-0.56c-0.2-1.43-.2.15-0.2-1.43s-1.05-2.12,1.85-3.27a63.24,63.24,0,0,1,10.37-3.12,8.76,8.76,0,0,1,1-.06c3.17,0,4.76.29,6.61-.66s3.17-1.74,5.55-3,3.43-3.21,5.54-4,5.73-2.09,5-3.56,3.12-.46,0-3.1-3.12-4.22,1.24-3.58c2.26,0.32,3.84,1.78,4.81,1.11,0.62-.43.3-1.51,0.88-2.06,1.9-1.83,3.08-2.59,6.68-1.32s1.56,3.53,4,4.43,9.85,2.65,9.85,2.65,3.7-1.33,8.12,1.79,9.68,3.94,14,6.29A15.56,15.56,0,0,1,401.94,92s5.5,4.7,7.08,4.61,8.72-5,8.72-5S421.31,93.44,419.13,95.37Z"/><path class="cls-1" d="M583.07,19.09s-11.71-6.67-16.85-3.48S553.75,18.37,552,26.25s1.1,6.86,4.57,6.42,4.78-2.73,6.75-4.78,2.16-4.62,5.79-5.7,4,1.37,7.44.92S585.67,20.42,583.07,19.09Z"/><path class="cls-1" d="M205.32,90.85c-1.26,3.46-6.83,2.68-13.12,3s-4,.7-5.83,3.89a11,11,0,0,1-1.64,2.23h-19c0.47-3.12,5.74-5.3,9.21-8.34,4.09-3.6,3.9-10,7.28-12.79s12.11,1.93,17.62-1.27c3.5-2,3.28,2.65,3.44,6S206.59,87.4,205.32,90.85Z"/><path class="cls-1" d="M371.28,4.9c2.86,5.5-3.53,6.48-.82,10.53s9.79,8.93,13.27,14S389,39.9,393.88,42.2s9.56,2.64,8.24,1-1.09-.9-3.6-5.4S395.28,31.52,392,28s-4-2.52-3.58-6.2,2-6.08-1.69-9.47-4.49-2-8.26-4.57S369.47,1.41,371.28,4.9Z"/><path class="cls-1" d="M421.29,33.94s13.44,1,16.72-4.07,10.08-7.84,8.33-15.72-3.93-5.72-6.88-3.84-3.16,4.51-4.06,7.21,0,5.1-2.79,7.63-4.17.46-7.12,2.36S418.38,33.85,421.29,33.94Z"/><path class="cls-1" d="M220.18,26.86s1.43,7.44,3.49,8.41c2.34,1.1,7.56-2.33,9.31-4.51s1.78-4,3.68-3.76,7.59,10,7.59,10,6.85,0.93,4-1.95S244,24.48,244,24.48l-0.69-1.79,8.24-5.06s5.26-4,7.48-4.56,4.2,1.29,4.7,3,3,2,7.63-1.44,6.61-7.59,5.75-10-1.51-3.39-4.63-2.14-2.28,4.17-4.41,5.06S259.8,10,259.8,10s-2.37-1.91-6.7,1.52-8.54,4-12.58,6.5a21.39,21.39,0,0,0-6.3,6.12s-5.63,5.26-6.79,5-3-6.2-5-6.74C221.21,22.14,219.13,24.33,220.18,26.86Z"/><rect class="cls-2" x="0.07" y="0.11" width="649.92" height="99.89"/><path class="cls-1" d="M137.19,11.91S130.85-.72,126.76,5.44,117.9,10.87,115,26s-0.74,13.11,1.66,12.23,3.76-5.27,5.5-9.23,2.42-8.86,5.06-11,2.34,2.58,4.74,1.67S138.63,14.42,137.19,11.91Z"/><path class="cls-1" d="M471.85,65.22c-1.15-4.18-2.32-7.4-3.55-8.77s-4.94-2.13-6.47-1.73-5.89,2.62-5.35,4.58,0.18,6.41,1.93,7.23,3.86-6.44,5.53-3.63,1.89,1.71,4.15,3.1S472.57,67.88,471.85,65.22Z"/></svg>