<svg id="EutecticPhaseDeformedDendrite" xmlns="http://www.w3.org/2000/svg" viewBox="0 0 300 50"><defs><style>.cls-1{fill:#9c9b9b;stroke:#1d1d1b;stroke-miterlimit:10;stroke-width:0.5px;}.cls-2{fill:none;}</style></defs><title>M_EutheticPhaseDeformedDendrite</title><path class="cls-1" d="M19.93,50.65c-0.16-2.92-1-3.7.43-4.6s4.83,2.11,5.27-.33a4.59,4.59,0,0,0-1.38-4.23c-0.47-.6-1.71-0.88-3.57-0.6A8.43,8.43,0,0,0,17,43l-1.14,3.17a3.11,3.11,0,0,1-.28,2.6c-0.81,1-.44-0.12-0.81,1a2.17,2.17,0,0,1-.85,1,6.72,6.72,0,0,1-1.58.78,6.13,6.13,0,0,1-2-.44l-0.81-.34c-1.34-.56-3.28-1.41-3.28-1.41L2.94,49,1.06,47.26l-0.47-.44L0.23,46.2v4.45"/><path class="cls-1" d="M300,33.22V44.76a6.61,6.61,0,0,1-2.54-2.56c-0.71-1.51,2-1.79.6-3.34s-4.31-1.48-6.73-2.23-5.06-1.2-5.76-2.7-2-2.73,6.95-2.39C296.31,31.68,298.49,32.34,300,33.22Z"/><path class="cls-1" d="M167.72,50.26h-24c-1.7-.34-3.24-0.81-5.76-1.5a24.9,24.9,0,0,0-5.16-1.12c-1.67-.25.64-1.83,4.3-2.57s8.08,1.06,12.94,2.07,11.22,0.6,15.09,1.44A3.51,3.51,0,0,1,167.72,50.26Z"/><path class="cls-1" d="M36.07,19.53c1.8,3.46-2.22,4.08-.51,6.63s6.17,5.62,8.35,8.79S47.25,41.58,50.3,43s6,1.66,5.19.63a12.72,12.72,0,0,1-2.27-3.4c-1.58-2.83-2-4-4.12-6.16s-2.51-1.59-2.25-3.9,1.25-3.83-1.07-6-2.82-1.26-5.2-2.88S34.93,17.34,36.07,19.53Z"/><path class="cls-1" d="M201.19,24.83s1.43,7.44,3.49,8.41c2.34,1.1,7.56-2.33,9.31-4.51s1.78-4,3.68-3.76,7.59,10,7.59,10,6.85,0.93,4-1.95S225,22.45,225,22.45l-0.69-1.79,8.24-5.06s5.26-4,7.48-4.56,4.2,1.29,4.7,3,3,2,7.63-1.44S259,5,258.12,2.67,256.61-.71,253.49.53s-2.28,4.17-4.41,5.06S240.82,8,240.82,8s-2.37-1.91-6.7,1.52-8.54,4-12.58,6.5a21.39,21.39,0,0,0-6.3,6.12s-5.63,5.26-6.79,5-3-6.2-5-6.74C202.22,20.12,200.15,22.31,201.19,24.83Z"/><rect class="cls-2" x="0.23" y="1.08" width="299.8" height="49.57"/><path class="cls-1" d="M106.69,10.38S100.13-1.29,96.18,4.26,87.46,9.05,84.89,22.81s-0.48,12,1.89,11.22,3.64-4.75,5.3-8.33,2.24-8.06,4.83-9.94,2.38,2.4,4.75,1.62S108.17,12.7,106.69,10.38Z"/></svg>