<svg id="EutecticPhaseDeformedDendrite" xmlns="http://www.w3.org/2000/svg" viewBox="0 0 300 150"><defs><style>.cls-1{fill:#9c9b9b;stroke:#1d1d1b;stroke-miterlimit:10;stroke-width:0.5px;}.cls-2{fill:none;}</style></defs><title>M_EutheticPhaseDeformedDendrite</title><path class="cls-1" d="M299.93,133.94v3.84c-3.24.36-6.1,1.17-9.34,1.27a22.77,22.77,0,0,1-8.53-1.44s-7.51-1.13-8.38-.38-0.82,7.48-.82,7.48-3.75.21-4.16-2.18l-1.34-8s7.65-2,10.27-1.24,3.59,2.11,5.08,1,1.35-11.17,1.35-11.17,5.36-4.07,4.43-.53,1.76,10,1.76,10l0.33,1.67Z"/><path class="cls-1" d="M49.36,90.78c-3.54.35-4.18-1.32-7.71-4.55S36.09,83.65,32.59,84s-2.33,2.88-2.33,2.88a13.47,13.47,0,0,1-5.34,4.62c-2.79,1.2,2,5.42,2,5.42a18.83,18.83,0,0,1,4.89.93c1.85,0.76,1.62,2.42-.32,3.25s-6.81-.58-6.81-0.58a29.94,29.94,0,0,1-5.26-4.81c-1.54-2.14,3.9-4.7,5.29-8.34S24.2,81.76,20.6,78.1s-7.76-3.5-13.39-4.47c-3.52-.6-5.16-2.15-7.08-4V63.5l0.45,0.78,0.6,0.55L3.56,67l4.11,0.34s3.76,1.65,5.17,2.21a7.69,7.69,0,0,0,2.58.56s2.6-.85,3.07-2.21,0,0,1-1.22,0.35-3.28.35-3.28l1.44-4A10.7,10.7,0,0,1,26,56.78c2.36-.36,3.93,0,4.52.76a5.79,5.79,0,0,1,1.75,5.35c-0.56,3.08-4.78-.79-6.67.41s-0.66,2.22-.52,6.31,1,1.26,4.35,5.07,5,3.48,10.93,6,7.74,2.06,8.79,2.3a25.86,25.86,0,0,1,5.43,2.1c2.58,1.29,2.34,3.58,2.69,5S52.9,90.42,49.36,90.78Z"/><path class="cls-1" d="M299.93,34.21V45.75a6.61,6.61,0,0,1-2.54-2.56c-0.71-1.51,2-1.79.6-3.34s-4.31-1.48-6.73-2.23-5.06-1.2-5.76-2.7-2-2.73,6.95-2.39C296.21,32.67,298.39,33.33,299.93,34.21Z"/><path class="cls-1" d="M117.46,55c-4.89-1.44-2.73-4.23-6.6-5.06s-10.23-.44-15.09-1.44-9.29-2.81-12.94-2.07-6,2.32-4.3,2.57a24.84,24.84,0,0,1,5.16,1.12c4.08,1.11,5.58,1.66,9.35,2s3.43-.33,5.68,1.49,3.14,3.48,7,3.66,3.3-.74,6.67-1S120.56,55.94,117.46,55Z"/><path class="cls-1" d="M36,20.52c1.8,3.46-2.22,4.08-.51,6.63s6.17,5.62,8.35,8.79S47.15,42.57,50.2,44s6,1.66,5.19.63a12.72,12.72,0,0,1-2.27-3.4c-1.58-2.83-2-4-4.12-6.16s-2.51-1.59-2.25-3.9,1.25-3.83-1.07-6-2.82-1.26-5.2-2.88S34.83,18.33,36,20.52Z"/><path class="cls-1" d="M217.51,72.3s15-.16,15.74,2.15,4.41,4.67,2.94,8.1-2.94,3.43-5.88,5.73-6.57,4.61-3.29,6.92,3.29,1.11,5.49,1.59,3.31-.87,5.52-4.12,4.41-5.55,7.35-5.08,4,1.15,6.61,3.23,4.79,4.3,9.2,6.07,8.82,4.2,3.31,4-10.51-.64-13.71-2.71-3.57-4.15-5.41-3.69-4.41-.27-5.52,2.29,1.1,4.63,0,5.78-4,3.11-4.78,1.9-1.84-1.55-4.41-3.57-3.31-3-7.35-4.12-7.58-1.34-5.81-4.12,0.67-3.93,4-5.32,6.25-1.53,5.15-4,0.74-2.41-2.57-4.62-0.79-3.37-7-4.06-9.9.78-8.43-2.38-0.37-4.5,4.78-5.56,8.09-.56,8.09,0S214.86,71,214.86,71,214.26,72.27,217.51,72.3Z"/><path class="cls-1" d="M56.76,118.59c9.71-3.13,6.95-6.93,14.67-6.24s11.26-.07,15.83,3.08,10.09,6.49,5.67,10.17-2.21,3.81-14.89,4.79-19.2,4.21-16.77,0,3-4.9,7.95-6.28,6.62-6.2,3.31-5.52S56.76,122,56.76,120.31v-1.72Z"/><path class="cls-1" d="M299.39,95.8L299.93,96v6.33c-0.14-.18-0.32-0.38-0.54-0.61-1.8-1.86,3-.91-1.8-1.86s-5.94,0-6.14-1.42-0.2.15-.2-1.43-1.05-2.12,1.85-3.27c1.77-.71,4.52-1.63,6.83-2.29v2.7C298.16,94.47,296.26,94.83,299.39,95.8Z"/><path class="cls-1" d="M299.39,104.57a2.93,2.93,0,0,1,.54-0.7v6.36a4.94,4.94,0,0,1-.54.06c-3.64.27-7.74,0.12-7.94-1.31s-0.45-1.88,2.18-2.3C297.55,106,298.81,105.7,299.39,104.57Z"/><path class="cls-1" d="M180.79,76.56c-5.52,3.2-14.24-1.55-17.62,1.28S160,87,155.88,90.62s-10.73,6-8.95,10.15,6.53,7.87,7.64,6.55,0.21-1,4.53-3.76,6.35-3.64,8.18-6.83-0.47-3.54,5.82-3.89,11.86,0.43,13.13-3-1.86-3.82-2-7.21S184.29,74.52,180.79,76.56Z"/><path class="cls-1" d="M232.13,115.32c-2.17,3.24-4.65,0-6.07,2.73s-2,8.11-3.71,11.55-4.21,6.1-4,9.47,1.43,6.08,1.93,4.85a12.72,12.72,0,0,1,1.9-3.62c1.73-2.74,2.5-3.68,3.43-6.57s0.19-3,2.34-3.85,4-.74,4.72-3.79-0.25-3.08,0-5.95S233.51,113.27,232.13,115.32Z"/><path class="cls-1" d="M201.09,25.82s1.43,7.44,3.49,8.41c2.34,1.1,7.56-2.33,9.31-4.51s1.78-4,3.68-3.76,7.59,10,7.59,10,6.85,0.93,4-1.95-4.28-10.55-4.28-10.55l-0.69-1.79,8.24-5.06s5.26-4,7.48-4.56,4.2,1.29,4.7,3,3,2,7.63-1.44S258.88,6,258,3.66s-1.51-3.39-4.63-2.14S251.11,5.69,249,6.59,240.72,9,240.72,9s-2.37-1.91-6.7,1.52-8.54,4-12.58,6.5a21.39,21.39,0,0,0-6.3,6.12s-5.63,5.26-6.79,5-3-6.2-5-6.74C202.12,21.11,200.05,23.3,201.09,25.82Z"/><rect class="cls-2" x="0.13" y="2.07" width="299.8" height="149.86"/><path class="cls-1" d="M118.11,10.87S111.77-1.76,107.68,4.4,98.82,9.83,95.94,24.93,95.2,38,97.6,37.16s3.76-5.27,5.5-9.23,2.42-8.86,5.06-11,2.34,2.58,4.74,1.67S119.54,13.38,118.11,10.87Z"/></svg>