<svg id="EutecticPhaseDendritic" xmlns="http://www.w3.org/2000/svg" viewBox="0 0 500 150"><defs><style>.cls-1{fill:#9c9b9b;stroke:#1d1d1b;stroke-miterlimit:10;stroke-width:0.5px;}.cls-2{fill:none;}</style></defs><title>M_EutheticPhase</title><path class="cls-1" d="M130.71,77.27L129.5,65.75s6.94-2.88,9.31-1.79,3.25,3.06,4.6,1.42,1.23-16.15,1.23-16.15,4.86-5.89,4-.77,1.6,14.39,1.6,14.39l0.3,2.42,8.73-.44s5.93,0.56,7.91-.44,2.65-4.38,2.23-6.62,1.34-4.28,6.58-3.89,8.65,3.45,9.09,6.61,0.4,4.72-2.59,5.6-3.71-2.85-5.77-2.3a67,67,0,0,0-7.52,3.3s-0.95,3.74-5.89,3.14-8.48,1.78-12.76,2a14.21,14.21,0,0,1-7.73-2.08s-6.81-1.63-7.6-.55-0.75,10.82-.75,10.82A3.42,3.42,0,0,1,130.71,77.27Z"/><path class="cls-1" d="M67.56,45.52l-1.15,2.69-3.07,1.15h-5l-1,3,1.15,0.77a8.71,8.71,0,0,0,2.34,1.18h2.3l1.53,0.77a2.58,2.58,0,0,1,.38,1.15l0.19,1v2.11c-0.58,1.15-.57,1.73-1.53,1.92l-1,.19s1.54-3.71-3.07.64a52.45,52.45,0,0,1-6.14,5.31c-1,.77-0.19,2.45-3.07,3.43s-5.95,1.55-6.71,2.9-1,1.73-1,2.3-0.58.58,1,2.3,1.34,1.92,2.11,2.49A4.63,4.63,0,0,0,48,82c0.58,0,2.49.77,2.69,0a17.5,17.5,0,0,0-.19-3.26,30.25,30.25,0,0,0-.57-3.07,3.4,3.4,0,0,1,.77-1.15c0.77-1,.38-0.21,2.69-1.93s4.8-.42,5.18-1.74,2.11-2.47,2.68-2.86S63,66.62,63,66.62l2.49-1.15a6.92,6.92,0,0,1,2.11,0c1,0.19,1.92.19,2.68,1.34s0.57,1.15,3.07,3.07,4,1.71,4.8,2.68,1.73,1.35,5.18,3.27,4.41,2.88,5,2.88,2.49,0.77,2.68.19-0.19-1,0-1.54,0.69-.77.06-1.34-1.59-1.34-2.17-1.92-2.11-1.38-4.41-3.28A24.41,24.41,0,0,0,80.22,68c-1.53-1-2.49-1.53-3.26-2.11S75,66,73.7,63.91a30.37,30.37,0,0,0-2.49-3.24c-0.38-.57-2.3-3.26-2.3-3.26a1.47,1.47,0,0,1-.38-1V53.19a2.59,2.59,0,0,1,0-1.73,14.93,14.93,0,0,0,.58-1.73l1.73-1.92,3.26-2.3h8.82s1.15,1.34,1.53,0,1.34-3.26,1.34-3.83a2.36,2.36,0,0,0-.38-1.92c-0.58-.57-1.73-1.92-1.73-1.92L81.75,36.7s-0.77-1.34-1-.77-1,2.49-1,2.49L80,40.34s0.77,0.38-.19.77a8,8,0,0,1-3.46.38c-1.92,0-2.3-.58-5.37,1.15S67.56,45.52,67.56,45.52Z"/><path class="cls-1" d="M215.66,34.67l8.77,0.51s10.42-.9,14.57-3.45,9.73,0.16,8.66-5.43a19,19,0,0,1,.53-9.7l10.19-1.5S255.79,26.83,255,23s-4.29-.62-4.29-0.62l1.48,5.67-2.68,3.42a12.5,12.5,0,0,0-2.93.88,57.84,57.84,0,0,0-6,2.95l-2.25,2.87s-3-.85-0.86,1.1S243,43.65,243,43.65l0,2.93,3.22,4.13-1.29,1.64L241.27,57l-4,5.14-2.14.14-1.53-3s1.4-3.57,1.28-5.26a19.05,19.05,0,0,0-.51-4.64c-0.48-1.44-1.15-4.62-1.15-4.62l-2.12-2.2s0-.55-3.14-2.47l-3.12-1.92-3.37-.52-3.85.78-3-2.36Z"/><path class="cls-1" d="M302.43,40.65c9.47,8.27,4.1,17.15,8.5,21.5s5.13,9.24,10.24,10.63,8.86,1.15,12.14,6.45,5,8.22,3.76,13.48-6.19,9-4.79,12.06a37.28,37.28,0,0,0,4.77,7s4.4,2,6.17.83,2-3.6.3-4.7a11.65,11.65,0,0,0-4.44-1.35s-4.37-6.1-1.84-7.83c3-2.06,4.85-6.69,4.85-6.69s-1.06-3.59,2.11-4.16,5-1.51,8.21,3.16,3.78,7.08,7,6.57,7.49,1.06,7.17-1-0.1-5.34-2.44-7.21a18.85,18.85,0,0,0-4.92-3c-1-.35-2.59.38-8-3.32s-6.84-3.24-9.9-8.74-3.81-1.41-3.95-7.32-1.24-7.39.47-9.13,5.55,3.86,6.05-.6a11.5,11.5,0,0,0-1.58-7.74c-0.54-1.09-2-1.62-4.1-1.09s-4.24,3.77-4.24,3.77L332.64,58s0.62,3-.31,4.75-0.51-.22-0.93,1.76-2.78,3.2-2.78,3.2a4.75,4.75,0,0,1-2.34-.82c-1.28-.81-4.68-3.2-4.68-3.2l-3.73-.48L315.7,60l-0.54-.79-4.23-11.68L307.83,41S299.27,37.9,302.43,40.65Z"/><path class="cls-1" d="M20.27,104s6.18-8,2.67-11-3.46-7.73-11.58-8.22S4.44,86,5.07,88.18s3,2.83,5.22,3.91,4.81,1,6.11,3.22-1.19,2.65-.55,4.83S19.06,105.76,20.27,104Z"/><path class="cls-1" d="M136.88,120.26c-4.44-2.08-2.47-6.11-6-7.32s-9.27-.64-13.68-2.09-8.42-4.06-11.73-3-5.41,3.35-3.9,3.72,1,0,4.68,1.62,5.06,2.39,8.48,2.92,3.11-.47,5.15,2.15,2.85,5,6.36,5.3,3-1.08,6-1.4S139.7,121.57,136.88,120.26Z"/><path class="cls-1" d="M8.85,31.69c1.06,3.24-1.31,3.82-.3,6.22s3.62,5.27,4.91,8.24,2,6.2,3.75,7.56,3.54,1.56,3,.59a13.62,13.62,0,0,1-1.33-3.19,26,26,0,0,0-2.42-5.77c-1.23-2.06-1.48-1.49-1.33-3.66s0.74-3.59-.63-5.59-1.66-1.18-3.06-2.7S8.18,29.63,8.85,31.69Z"/><path class="cls-1" d="M337.95,135.32a20.85,20.85,0,0,0,2.19-5.45,8.25,8.25,0,0,0-1-4.3c-0.52-.7-2.38-2.25-2.93-1.18s-2.2,2.64-2.05,3.94,3.21-.39,2.64,1.66-0.13,1.73-.06,3.55S337.2,136.78,337.95,135.32Z"/><path class="cls-1" d="M174.08,96.53s13.6-.23,14.27,3.1,4,6.76,2.67,11.71-2.67,5-5.33,8.29-6,6.67-3,10,3,1.61,5,2.3,3-1.26,5-6,4-8,6.67-7.35,3.65,1.67,6,4.67,4.34,6.22,8.34,8.77,8,6.07,3,5.81-9.53-.92-12.43-3.92-3.24-6-4.9-5.33-4-.39-5,3.3,1,6.7,0,8.36-3.67,4.5-4.33,2.75-1.67-2.24-4-5.16-3-4.31-6.67-6-6.87-1.93-5.27-6,0.61-5.69,3.6-7.69,5.67-2.22,4.67-5.77S183,109,180,105.84,179.3,101,173.66,100s-9,1.13-7.64-3.44-0.33-6.51,4.33-8,7.34-.81,7.33,0-6,6.14-6,6.14S171.14,96.49,174.08,96.53Z"/><path class="cls-1" d="M425.42,66.61c3.56-.85,4.7-1.3,5.22-2.79s1.63-1.36,0-3.83,2.68-1.22-1.63-2.48-5.39,0-5.57-1.89-0.18.21-.18-1.89-1-2.81,1.68-4.34,7.66-3.84,9.4-4.14a5.82,5.82,0,0,1,.9-0.07c2.87,0,4.31.38,6-.88s2.87-2.31,5-4,3.11-4.25,5-5.27,5.19-2.77,4.51-4.72,2.83-.61,0-4.11-2.83-5.6,1.12-4.76,5.39,1.35,6.1,4.76,1.68,5.1-1,7.09A49.41,49.41,0,0,1,453.2,38c-1.92.84-4.07,0.21-4.31,3.56s-0.24,3.38.48,5.57,2.4,4.23,0,4.57-2.51-.46-5.92-1.74-1.74-4.6-5.09-2.84-4.55,1.47-5.75,2.25-5.84,1-2,2.79,5.08,1.55,7.23,2.39,2.87,1.68,2.87,3.35,0.48,7.09-1.92,8.68-4.88,4.43-8.19,4.79-7,.15-7.2-1.73S423,67.18,425.42,66.61Z"/><path class="cls-1" d="M375.83,113.75c8.8-4.52,6.3-10,13.3-9s10.21-.1,14.36,4.45,9.14,9.38,5.14,14.71-2,5.51-13.5,6.92-17.41,6.09-15.21,0,2.71-7.09,7.21-9.09,6-9,3-8-14.3,5-14.3,2.48v-2.48Z"/><path class="cls-1" d="M340.1,34.46s6.18-8,2.67-11-3.46-7.73-11.58-8.22-6.92,1.27-6.29,3.45,3,2.83,5.22,3.91,4.81,1,6.11,3.22-1.19,2.65-.55,4.83S338.88,36.22,340.1,34.46Z"/><path class="cls-1" d="M113.58,10.48S103,0.83,98.31,5.44,87,9.44,85.38,20.83s1,9.92,4.15,9.28,4.34-3.94,6.12-6.91,2-6.68,5.25-8.24,3.6,2,6.75,1.33S115.94,12.39,113.58,10.48Z"/><rect class="cls-2" y="0.25" width="499.75" height="149.49"/></svg>