<svg id="EutecticPhaseDeformedDendrite" xmlns="http://www.w3.org/2000/svg" viewBox="0 0 300 100"><defs><style>.cls-1{fill:#9c9b9b;stroke:#1d1d1b;stroke-miterlimit:10;stroke-width:0.5px;}.cls-2{fill:none;}</style></defs><title>M_EutheticPhaseDeformedDendrite</title><path class="cls-1" d="M39.05,67.49c-2.8.28-3.3-1-6.1-3.6s-4.4-2-7.16-1.72S24,64.44,24,64.44a10.65,10.65,0,0,1-4.22,3.65c-2.21.95,1.6,4.29,1.6,4.29a14.88,14.88,0,0,1,3.87.74c1.46,0.6,1.28,1.91-.25,2.57s-5.38-.46-5.38-0.46a23.67,23.67,0,0,1-4.16-3.8c-1.22-1.69,3.08-3.72,4.18-6.59s-0.43-4.47-3.27-7.37-6.14-2.77-10.59-3.53a9.63,9.63,0,0,1-5.6-3.14V45.92l0.36,0.62L1,47l1.88,1.72L6.09,49s3,1.3,4.09,1.75a6.08,6.08,0,0,0,2,.44s2.06-.67,2.43-1.75,0,0,.81-1a3.07,3.07,0,0,0,.28-2.59l1.14-3.17a8.46,8.46,0,0,1,3.7-2.06c1.87-.28,3.11,0,3.57.6a4.58,4.58,0,0,1,1.38,4.23c-0.44,2.44-3.78-.62-5.27.32s-0.52,1.76-.41,5,0.78,1,3.44,4,3.94,2.75,8.64,4.78a17.5,17.5,0,0,0,6.95,1.82A20.45,20.45,0,0,1,43.17,63c2,1,1.85,2.83,2.13,3.94S41.85,67.2,39.05,67.49Z"/><path class="cls-1" d="M299.93,32.93V44.47a6.61,6.61,0,0,1-2.54-2.56c-0.71-1.51,2-1.79.6-3.34s-4.31-1.48-6.73-2.23-5.06-1.2-5.76-2.7-2-2.73,6.95-2.39C296.21,31.39,298.39,32.05,299.93,32.93Z"/><path class="cls-1" d="M117.46,53.75c-4.89-1.44-2.73-4.23-6.6-5.06s-10.23-.44-15.09-1.44-9.29-2.81-12.94-2.07-6,2.32-4.3,2.57a24.84,24.84,0,0,1,5.16,1.12c4.08,1.11,5.58,1.66,9.35,2s3.43-.33,5.68,1.49,3.14,3.48,7,3.66,3.3-.74,6.67-1S120.56,54.66,117.46,53.75Z"/><path class="cls-1" d="M36,19.25c1.8,3.46-2.22,4.08-.51,6.63s6.17,5.62,8.35,8.79,3.34,6.62,6.39,8.07,6,1.66,5.19.63A12.72,12.72,0,0,1,53.12,40c-1.58-2.83-2-4-4.12-6.16s-2.51-1.59-2.25-3.9,1.25-3.83-1.07-6-2.82-1.26-5.2-2.88S34.83,17,36,19.25Z"/><path class="cls-1" d="M264.5,99.63C259,99.45,254,99,250.79,96.92s-3.57-4.15-5.41-3.69S241,93,239.86,95.51c-0.74,1.73,0,3.23.25,4.38H231l-0.34-.26c-2.57-2-3.31-3-7.35-4.12s-7.58-1.33-5.81-4.11,0.66-3.94,4-5.32,6.25-1.53,5.15-4,0.73-2.41-2.58-4.62-0.79-3.37-7-4.07-9.9.78-8.43-2.37-0.37-4.51,4.78-5.56,8.09-.56,8.09,0-6.62,4.25-6.62,4.25S214.26,71,217.51,71c0,0,15-.16,15.74,2.14s4.41,4.68,2.94,8.1S233.25,84.7,230.3,87s-6.57,4.61-3.28,6.92,3.28,1.11,5.49,1.59,3.31-.87,5.52-4.11,4.41-5.55,7.35-5.09,4,1.15,6.61,3.23,4.79,4.3,9.2,6.07S270,99.8,264.5,99.63Z"/><path class="cls-1" d="M299.39,94.52l0.54,0.16V101c-0.14-.18-0.32-0.38-0.54-0.61-1.8-1.86,3-.91-1.8-1.86s-5.94,0-6.14-1.42-0.2.15-.2-1.43-1.05-2.12,1.85-3.27c1.77-.71,4.52-1.63,6.83-2.29v2.7C298.16,93.19,296.26,93.55,299.39,94.52Z"/><path class="cls-1" d="M177.95,64.41c-5.52,3.2-14.24-1.55-17.62,1.28s-3.19,9.19-7.28,12.78-10.73,6-8.95,10.15,6.53,7.87,7.64,6.55,0.21-1,4.53-3.76,6.35-3.64,8.18-6.83S164,81,170.27,80.69s11.86,0.43,13.13-3-1.86-3.82-2-7.21S181.45,62.38,177.95,64.41Z"/><path class="cls-1" d="M201.09,24.54s1.43,7.44,3.49,8.41c2.34,1.1,7.56-2.33,9.31-4.51s1.78-4,3.68-3.76,7.59,10,7.59,10,6.85,0.93,4-1.95-4.28-10.55-4.28-10.55l-0.69-1.79,8.24-5.06s5.26-4,7.48-4.56,4.2,1.29,4.7,3,3,2,7.63-1.44,6.61-7.59,5.75-10S256.51-1,253.39.24,251.11,4.41,249,5.31s-8.27,2.41-8.27,2.41-2.37-1.91-6.7,1.52-8.54,4-12.58,6.5a21.39,21.39,0,0,0-6.3,6.12s-5.63,5.26-6.79,5-3-6.2-5-6.74C202.12,19.83,200.05,22,201.09,24.54Z"/><rect class="cls-2" x="0.13" y="0.8" width="299.8" height="99.09"/><path class="cls-1" d="M118.11,9.6S111.77-3,107.68,3.12,98.82,8.55,95.94,23.65,95.2,36.77,97.6,35.88s3.76-5.27,5.5-9.23,2.42-8.86,5.06-11,2.34,2.58,4.74,1.67S119.54,12.11,118.11,9.6Z"/></svg>