<svg id="EutecticPhaseDendritic" xmlns="http://www.w3.org/2000/svg" viewBox="0 0 500 100"><defs><style>.cls-1{fill:#9c9b9b;stroke:#1d1d1b;stroke-miterlimit:10;stroke-width:0.5px;}.cls-2{fill:none;}</style></defs><title>M_EutheticPhase</title><path class="cls-1" d="M130.71,77.12L129.5,65.59s6.94-2.88,9.31-1.79,3.25,3.06,4.6,1.42,1.23-16.15,1.23-16.15,4.86-5.89,4-.77,1.6,14.39,1.6,14.39l0.3,2.42,8.73-.44s5.93,0.56,7.91-.44,2.65-4.38,2.23-6.62,1.34-4.28,6.58-3.89,8.65,3.45,9.09,6.61,0.4,4.72-2.59,5.6-3.71-2.85-5.77-2.3a67,67,0,0,0-7.52,3.3s-0.95,3.74-5.89,3.14-8.48,1.78-12.76,2A14.21,14.21,0,0,1,142.83,70s-6.81-1.63-7.6-.55-0.75,10.82-.75,10.82A3.42,3.42,0,0,1,130.71,77.12Z"/><path class="cls-1" d="M67.56,45.37l-1.15,2.69-3.07,1.15h-5l-1,3L58.51,53a8.71,8.71,0,0,0,2.34,1.18h2.3L64.68,55a2.58,2.58,0,0,1,.38,1.15l0.19,1v2.11c-0.58,1.15-.57,1.73-1.53,1.92l-1,.19s1.54-3.71-3.07.64a52.45,52.45,0,0,1-6.14,5.31c-1,.77-0.19,2.45-3.07,3.43s-5.95,1.55-6.71,2.9-1,1.73-1,2.3-0.58.58,1,2.3,1.34,1.92,2.11,2.49A4.63,4.63,0,0,0,48,81.81c0.58,0,2.49.77,2.69,0a17.5,17.5,0,0,0-.19-3.26,30.25,30.25,0,0,0-.57-3.07,3.4,3.4,0,0,1,.77-1.15c0.77-1,.38-0.21,2.69-1.93s4.8-.42,5.18-1.74,2.11-2.47,2.68-2.86S63,66.47,63,66.47l2.49-1.15a6.92,6.92,0,0,1,2.11,0c1,0.19,1.92.19,2.68,1.34s0.57,1.15,3.07,3.07,4,1.71,4.8,2.68,1.73,1.35,5.18,3.27,4.41,2.88,5,2.88,2.49,0.77,2.68.19-0.19-1,0-1.54,0.69-.77.06-1.34-1.59-1.34-2.17-1.92-2.11-1.38-4.41-3.28a24.41,24.41,0,0,0-4.22-2.86c-1.53-1-2.49-1.53-3.26-2.11s-1.92.15-3.26-1.94a30.37,30.37,0,0,0-2.49-3.24c-0.38-.57-2.3-3.26-2.3-3.26a1.47,1.47,0,0,1-.38-1V53a2.59,2.59,0,0,1,0-1.73,14.93,14.93,0,0,0,.58-1.73l1.73-1.92,3.26-2.3h8.82s1.15,1.34,1.53,0,1.34-3.26,1.34-3.83a2.36,2.36,0,0,0-.38-1.92c-0.58-.57-1.73-1.92-1.73-1.92l-1.92-1.15s-0.77-1.34-1-.77-1,2.49-1,2.49L80,40.19s0.77,0.38-.19.77a8,8,0,0,1-3.46.38c-1.92,0-2.3-.58-5.37,1.15S67.56,45.37,67.56,45.37Z"/><path class="cls-1" d="M215.66,34.52L224.43,35s10.42-.9,14.57-3.45,9.73,0.16,8.66-5.43a19,19,0,0,1,.53-9.7L258.38,15s-2.58,11.73-3.38,7.94-4.29-.62-4.29-0.62l1.48,5.67-2.68,3.42a12.5,12.5,0,0,0-2.93.88,57.84,57.84,0,0,0-6,2.95l-2.25,2.87s-3-.85-0.86,1.1S243,43.5,243,43.5l0,2.93,3.22,4.13-1.29,1.64-3.65,4.65-4,5.14-2.14.14-1.53-3s1.4-3.57,1.28-5.26a19.05,19.05,0,0,0-.51-4.64c-0.48-1.44-1.15-4.62-1.15-4.62l-2.12-2.2s0-.55-3.14-2.47L224.81,38l-3.37-.52-3.85.78-3-2.36Z"/><path class="cls-1" d="M359.37,97.42c-3.2.51-3.78-1.9-7-6.57s-5-3.73-8.22-3.16-2.11,4.17-2.11,4.17-1.84,4.62-4.84,6.68a2,2,0,0,0-.78,1.88h-3.38c1.25-2.2,3.26-4.76,4-7.86,1.25-5.26-.49-8.18-3.76-13.48s-7-5.06-12.14-6.45S315.32,66.35,310.93,62s1-13.23-8.5-21.5c-3.16-2.75,5.4.33,5.4,0.33l3.09,6.59,4.24,11.68,0.54,0.79L317.85,63l3.73,0.48s3.41,2.39,4.69,3.2a4.7,4.7,0,0,0,2.33.82s2.37-1.23,2.79-3.2,0,0,.93-1.76,0.32-4.75.32-4.75L334,52s2.11-3.24,4.24-3.77,3.56,0,4.1,1.09a11.52,11.52,0,0,1,1.59,7.74c-0.51,4.45-4.34-1.14-6.06.6s-0.59,3.21-.46,9.13,0.89,1.81,3.94,7.32,4.52,5,9.91,8.74,7,3,8,3.32a19.26,19.26,0,0,1,4.92,3c2.34,1.87,2.12,5.19,2.44,7.22S362.58,96.91,359.37,97.42Z"/><path class="cls-1" d="M22.43,100.42H16a4.45,4.45,0,0,1-.15-0.43c-0.65-2.18,1.84-2.59.54-4.83s-3.91-2.13-6.1-3.22S5.7,90.2,5.07,88s-1.82-3.95,6.3-3.46,8.06,5.21,11.57,8.22C24.94,94.51,23.79,97.86,22.43,100.42Z"/><path class="cls-1" d="M8.85,31.54c1.06,3.24-1.31,3.82-.3,6.22S12.17,43,13.46,46s2,6.2,3.75,7.56,3.54,1.56,3,.59A13.62,13.62,0,0,1,18.93,51a26,26,0,0,0-2.42-5.77c-1.23-2.06-1.48-1.49-1.33-3.66s0.74-3.59-.63-5.59-1.66-1.18-3.06-2.7S8.18,29.48,8.85,31.54Z"/><path class="cls-1" d="M188.61,100.42H176a12.1,12.1,0,0,0-2.32-.6c-5.64-1-9,1.12-7.64-3.44s-0.34-6.51,4.33-8,7.34-.8,7.34,0-6,6.14-6,6.14-0.54,1.86,2.4,1.9c0,0,13.6-.23,14.27,3.1A6.59,6.59,0,0,0,188.61,100.42Z"/><path class="cls-1" d="M425.42,66.46c3.56-.85,4.7-1.3,5.22-2.79s1.63-1.36,0-3.83,2.68-1.22-1.63-2.48-5.39,0-5.57-1.89-0.18.21-.18-1.89-1-2.81,1.68-4.34,7.66-3.84,9.4-4.14a5.82,5.82,0,0,1,.9-0.07c2.87,0,4.31.38,6-.88s2.87-2.31,5-4,3.11-4.25,5-5.27,5.19-2.77,4.51-4.72,2.83-.61,0-4.11-2.83-5.6,1.12-4.76,5.39,1.35,6.1,4.76,1.68,5.1-1,7.09a49.41,49.41,0,0,1-8.86,4.71c-1.92.84-4.07,0.21-4.31,3.56s-0.24,3.38.48,5.57,2.4,4.23,0,4.57-2.51-.46-5.92-1.74-1.74-4.6-5.09-2.84-4.55,1.47-5.75,2.25-5.84,1-2,2.79,5.08,1.55,7.23,2.39,2.87,1.68,2.87,3.35,0.48,7.09-1.92,8.68-4.88,4.43-8.19,4.79-7,.15-7.2-1.73S423,67,425.42,66.46Z"/><path class="cls-1" d="M340.1,34.3s6.18-8,2.67-11S339.3,15.53,331.19,15s-6.92,1.27-6.29,3.45,3,2.83,5.22,3.91,4.81,1,6.11,3.22-1.19,2.65-.55,4.83S338.88,36.07,340.1,34.3Z"/><path class="cls-1" d="M113.58,10.32S103,0.68,98.31,5.29,87,9.28,85.38,20.67s1,9.92,4.15,9.28S93.86,26,95.64,23s2-6.68,5.25-8.24,3.6,2,6.75,1.33S115.94,12.24,113.58,10.32Z"/><rect class="cls-2" y="1.01" width="500.33" height="99.41"/></svg>