<svg id="EutecticPhaseDendritic" xmlns="http://www.w3.org/2000/svg" viewBox="0 0 300 50"><defs><style>.cls-1{fill:#9c9b9b;stroke:#1d1d1b;stroke-miterlimit:10;stroke-width:0.5px;}</style></defs><title>M_EutheticPhase</title><path class="cls-1" d="M85.23,40.69c0,0.58-1,2.5-1.35,3.84s-1.53,0-1.53,0H73.53l-3.27,2.3-1.72,1.92a13.63,13.63,0,0,1-.43,1.35H57.23l0.57-1.73h5l3.07-1.16L67,44.53s0.39-1.15,3.46-2.88,3.45-1.15,5.37-1.15a8.09,8.09,0,0,0,3.45-.38c1-.39.19-0.77,0.19-0.77l-0.19-1.92s0.77-1.92,1-2.49,1,0.76,1,.76l1.92,1.16s1.15,1.34,1.72,1.91A2.36,2.36,0,0,1,85.23,40.69Z"/><path class="cls-1" d="M206.22,22.44l8.43,0.49s10-.87,14-3.32S238,19.76,237,14.39s-1.14-7.66.51-9.32,8.11-3.25,9.8-1.44c1.41,1.52-2.48,11.27-3.25,7.63s-3.83-1.59-4.13-.6c-0.4,1.35,1.43,5.45,1.43,5.45l-2.58,3.28a12,12,0,0,0-2.82.85,55.61,55.61,0,0,0-5.78,2.84L228,25.84s-2.91-.82-0.83,1.06,5.31,4.17,5.31,4.17l0,2.81s3.1,2.71,3.1,4a4.31,4.31,0,0,1-1.24,1.58l-3.51,4.47L227,48.84,224.9,49l-1.47-2.9s1.35-3.43,1.23-5.06a18.32,18.32,0,0,0-.49-4.47c-0.46-1.39-1.1-4.44-1.1-4.44L221,30s0-.53-3-2.37l-3-1.84-3.24-.5s-2.78,1-3.7.75-2.89-2.27-2.89-2.27Z"/><path class="cls-1" d="M8.29,30.7C9.35,33.94,7,34.52,8,36.91s3.62,5.27,4.91,8.24,2,6.2,3.75,7.56,3.54,1.56,3,.59a13.62,13.62,0,0,1-1.33-3.19,26,26,0,0,0-2.42-5.77c-1.23-2.06-1.48-1.49-1.33-3.66s0.74-3.59-.63-5.59-1.66-1.18-3.06-2.7S7.62,28.64,8.29,30.7Z"/><path class="cls-1" d="M113,9.48s-10.62-9.64-15.28-5-11.3,4-12.93,15.39,1,9.92,4.15,9.28,4.34-3.94,6.12-6.91,2-6.68,5.25-8.24,3.6,2,6.75,1.33S115.38,11.4,113,9.48Z"/></svg>