<svg id="EutecticPhaseDendritic" xmlns="http://www.w3.org/2000/svg" viewBox="0 0 300 100"><defs><style>.cls-1{fill:#9c9b9b;stroke:#1d1d1b;stroke-miterlimit:10;stroke-width:0.5px;}</style></defs><title>M_EutheticPhase</title><path class="cls-1" d="M130.71,76.26L129.5,64.74s6.94-2.88,9.31-1.79,3.25,3.06,4.6,1.42,1.23-16.15,1.23-16.15,4.86-5.89,4-.77,1.6,14.39,1.6,14.39l0.3,2.42,8.73-.44s5.93,0.56,7.91-.44,2.65-4.38,2.23-6.62,1.34-4.28,6.58-3.89,8.65,3.45,9.09,6.61,0.4,4.72-2.59,5.6-3.71-2.85-5.77-2.3a67,67,0,0,0-7.52,3.3s-0.95,3.74-5.89,3.14-8.48,1.78-12.76,2a14.21,14.21,0,0,1-7.73-2.08s-6.81-1.63-7.6-.55-0.75,10.82-.75,10.82A3.42,3.42,0,0,1,130.71,76.26Z"/><path class="cls-1" d="M67.56,44.52L66.41,47.2l-3.07,1.15h-5l-1,3,1.15,0.77a8.71,8.71,0,0,0,2.34,1.18h2.3l1.53,0.77a2.58,2.58,0,0,1,.38,1.15l0.19,1v2.11c-0.58,1.15-.57,1.73-1.53,1.92l-1,.19s1.54-3.71-3.07.64a52.45,52.45,0,0,1-6.14,5.31c-1,.77-0.19,2.45-3.07,3.43s-5.95,1.55-6.71,2.9-1,1.73-1,2.3-0.58.58,1,2.3,1.34,1.92,2.11,2.49A4.63,4.63,0,0,0,48,81c0.58,0,2.49.77,2.69,0a17.5,17.5,0,0,0-.19-3.26,30.25,30.25,0,0,0-.57-3.07,3.4,3.4,0,0,1,.77-1.15c0.77-1,.38-0.21,2.69-1.93s4.8-.42,5.18-1.74,2.11-2.47,2.68-2.86S63,65.62,63,65.62l2.49-1.15a6.92,6.92,0,0,1,2.11,0c1,0.19,1.92.19,2.68,1.34s0.57,1.15,3.07,3.07,4,1.71,4.8,2.68,1.73,1.35,5.18,3.27,4.41,2.88,5,2.88,2.49,0.77,2.68.19-0.19-1,0-1.54,0.69-.77.06-1.34-1.59-1.34-2.17-1.92-2.11-1.38-4.41-3.28A24.41,24.41,0,0,0,80.22,67c-1.53-1-2.49-1.53-3.26-2.11S75,65,73.7,62.91a30.37,30.37,0,0,0-2.49-3.24c-0.38-.57-2.3-3.26-2.3-3.26a1.47,1.47,0,0,1-.38-1V52.19a2.59,2.59,0,0,1,0-1.73,14.93,14.93,0,0,0,.58-1.73l1.73-1.92,3.26-2.3h8.82s1.15,1.34,1.53,0,1.34-3.26,1.34-3.83a2.36,2.36,0,0,0-.38-1.92c-0.58-.57-1.73-1.92-1.73-1.92l-1.92-1.15s-0.77-1.34-1-.77-1,2.49-1,2.49L80,39.34s0.77,0.38-.19.77a8,8,0,0,1-3.46.38c-1.92,0-2.3-.58-5.37,1.15S67.56,44.52,67.56,44.52Z"/><path class="cls-1" d="M215.66,33.67l8.77,0.51s10.42-.9,14.57-3.45,9.73,0.16,8.66-5.43a19,19,0,0,1,.53-9.7l10.19-1.5S255.79,25.83,255,22s-4.29-.62-4.29-0.62l1.48,5.67-2.68,3.42a12.5,12.5,0,0,0-2.93.88,57.84,57.84,0,0,0-6,2.95L238.3,37.2s-3-.85-0.86,1.1S243,42.64,243,42.64l0,2.93,3.22,4.13-1.29,1.64L241.27,56l-4,5.14-2.14.14-1.53-3s1.4-3.57,1.28-5.26a19.05,19.05,0,0,0-.51-4.64c-0.48-1.44-1.15-4.62-1.15-4.62l-2.12-2.2s0-.55-3.14-2.47l-3.12-1.92-3.37-.52-3.85.78-3-2.36Z"/><path class="cls-1" d="M22.43,99.57H16a4.45,4.45,0,0,1-.15-0.43c-0.65-2.18,1.84-2.59.54-4.83s-3.91-2.13-6.1-3.22S5.7,89.35,5.07,87.18s-1.82-3.95,6.3-3.46,8.06,5.21,11.57,8.22C24.94,93.66,23.79,97,22.43,99.57Z"/><path class="cls-1" d="M8.85,30.69c1.06,3.24-1.31,3.82-.3,6.22s3.62,5.27,4.91,8.24,2,6.2,3.75,7.56,3.54,1.56,3,.59a13.62,13.62,0,0,1-1.33-3.19,26,26,0,0,0-2.42-5.77c-1.23-2.06-1.48-1.49-1.33-3.66s0.74-3.59-.63-5.59-1.66-1.18-3.06-2.7S8.18,28.63,8.85,30.69Z"/><path class="cls-1" d="M188.61,99.57H176a12.1,12.1,0,0,0-2.32-.6c-5.64-1-9,1.12-7.64-3.44s-0.34-6.51,4.33-8,7.34-.8,7.34,0-6,6.14-6,6.14-0.54,1.86,2.4,1.9c0,0,13.6-.23,14.27,3.1A6.59,6.59,0,0,0,188.61,99.57Z"/><path class="cls-1" d="M113.58,9.47S103-.17,98.31,4.44,87,8.43,85.38,19.82s1,9.92,4.15,9.28,4.34-3.94,6.12-6.91,2-6.68,5.25-8.24,3.6,2,6.75,1.33S115.94,11.39,113.58,9.47Z"/><path class="cls-1" d="M288.17,72.67s6.18-8,2.67-11-3.46-7.73-11.58-8.22-6.92,1.27-6.29,3.45,3,2.83,5.22,3.91,4.81,1,6.11,3.22-1.19,2.65-.55,4.83S287,74.44,288.17,72.67Z"/></svg>