<svg id="EutecticPhaseDendritic" xmlns="http://www.w3.org/2000/svg" viewBox="0 0 300 150"><defs><style>.cls-1{fill:#9c9b9b;stroke:#1d1d1b;stroke-miterlimit:10;stroke-width:0.5px;}.cls-2{fill:none;}</style></defs><title>M_EutheticPhase</title><path class="cls-1" d="M130.71,78.51L129.5,67s6.94-2.88,9.31-1.79,3.25,3.06,4.6,1.42,1.23-16.15,1.23-16.15,4.86-5.89,4-.77,1.6,14.39,1.6,14.39l0.3,2.42,8.73-.44s5.93,0.56,7.91-.44,2.65-4.38,2.23-6.62,1.34-4.28,6.58-3.89,8.65,3.45,9.09,6.61,0.4,4.72-2.59,5.6-3.71-2.85-5.77-2.3a67,67,0,0,0-7.52,3.3s-0.95,3.74-5.89,3.14-8.48,1.78-12.76,2a14.21,14.21,0,0,1-7.73-2.08s-6.81-1.63-7.6-.55-0.75,10.82-.75,10.82A3.42,3.42,0,0,1,130.71,78.51Z"/><path class="cls-1" d="M67.56,46.76l-1.15,2.69L63.34,50.6h-5l-1,3,1.15,0.77a8.71,8.71,0,0,0,2.34,1.18h2.3l1.53,0.77a2.58,2.58,0,0,1,.38,1.15l0.19,1v2.11c-0.58,1.15-.57,1.73-1.53,1.92l-1,.19s1.54-3.71-3.07.64a52.45,52.45,0,0,1-6.14,5.31c-1,.77-0.19,2.45-3.07,3.43s-5.95,1.55-6.71,2.9-1,1.73-1,2.3-0.58.58,1,2.3,1.34,1.92,2.11,2.49A4.63,4.63,0,0,0,48,83.21c0.58,0,2.49.77,2.69,0a17.5,17.5,0,0,0-.19-3.26,30.25,30.25,0,0,0-.57-3.07,3.4,3.4,0,0,1,.77-1.15c0.77-1,.38-0.21,2.69-1.93s4.8-.42,5.18-1.74,2.11-2.47,2.68-2.86S63,67.86,63,67.86l2.49-1.15a6.92,6.92,0,0,1,2.11,0c1,0.19,1.92.19,2.68,1.34s0.57,1.15,3.07,3.07,4,1.71,4.8,2.68,1.73,1.35,5.18,3.27,4.41,2.88,5,2.88,2.49,0.77,2.68.19-0.19-1,0-1.54,0.69-.77.06-1.34-1.59-1.34-2.17-1.92S86.74,74,84.44,72.06a24.41,24.41,0,0,0-4.22-2.86c-1.53-1-2.49-1.53-3.26-2.11s-1.92.15-3.26-1.94a30.37,30.37,0,0,0-2.49-3.24c-0.38-.57-2.3-3.26-2.3-3.26a1.47,1.47,0,0,1-.38-1V54.44a2.59,2.59,0,0,1,0-1.73A14.93,14.93,0,0,0,69.1,51l1.73-1.92,3.26-2.3h8.82s1.15,1.34,1.53,0,1.34-3.26,1.34-3.83A2.36,2.36,0,0,0,85.4,41c-0.58-.57-1.73-1.92-1.73-1.92l-1.92-1.15s-0.77-1.34-1-.77-1,2.49-1,2.49L80,41.58s0.77,0.38-.19.77a8,8,0,0,1-3.46.38c-1.92,0-2.3-.58-5.37,1.15S67.56,46.76,67.56,46.76Z"/><path class="cls-1" d="M215.66,35.91l8.77,0.51S234.85,35.52,239,33s9.73,0.16,8.66-5.43a19,19,0,0,1,.53-9.7l10.19-1.5s-2.58,11.73-3.38,7.94-4.29-.62-4.29-0.62l1.48,5.67-2.68,3.42a12.5,12.5,0,0,0-2.93.88,57.84,57.84,0,0,0-6,2.95l-2.25,2.87s-3-.85-0.86,1.1S243,44.89,243,44.89l0,2.93,3.22,4.13-1.29,1.64-3.65,4.65-4,5.14-2.14.14-1.53-3s1.4-3.57,1.28-5.26a19.05,19.05,0,0,0-.51-4.64c-0.48-1.44-1.15-4.62-1.15-4.62l-2.12-2.2s0-.55-3.14-2.47l-3.12-1.92-3.37-.52-3.85.78-3-2.36Z"/><path class="cls-1" d="M20.27,105.23s6.18-8,2.67-11S19.48,86.46,11.37,86s-6.92,1.27-6.29,3.45,3,2.83,5.22,3.91,4.81,1,6.11,3.22-1.19,2.65-.55,4.83S19.06,107,20.27,105.23Z"/><path class="cls-1" d="M136.88,121.5c-4.44-2.08-2.47-6.11-6-7.32s-9.27-.64-13.68-2.09-8.42-4.06-11.73-3-5.41,3.35-3.9,3.72,1,0,4.68,1.62,5.06,2.39,8.48,2.92,3.11-.47,5.15,2.15,2.85,5,6.36,5.3,3-1.08,6-1.4S139.7,122.82,136.88,121.5Z"/><path class="cls-1" d="M8.85,32.93c1.06,3.24-1.31,3.82-.3,6.22s3.62,5.27,4.91,8.24,2,6.2,3.75,7.56,3.54,1.56,3,.59a13.62,13.62,0,0,1-1.33-3.19,26,26,0,0,0-2.42-5.77c-1.23-2.06-1.48-1.49-1.33-3.66s0.74-3.59-.63-5.59-1.66-1.18-3.06-2.7S8.18,30.88,8.85,32.93Z"/><path class="cls-1" d="M174.08,97.77s13.6-.23,14.27,3.1,4,6.76,2.67,11.71-2.67,5-5.33,8.29-6,6.67-3,10,3,1.61,5,2.3,3-1.26,5-6,4-8,6.67-7.35,3.65,1.67,6,4.67,4.34,6.22,8.34,8.77,8,6.07,3,5.81-9.53-.92-12.43-3.92-3.24-6-4.9-5.33-4-.39-5,3.3,1,6.7,0,8.36-3.67,4.5-4.33,2.75-1.67-2.24-4-5.16-3-4.31-6.67-6-6.87-1.93-5.27-6,0.61-5.69,3.6-7.69,5.67-2.22,4.67-5.77,0.67-3.48-2.33-6.69-0.72-4.87-6.36-5.87-9,1.13-7.64-3.44-0.33-6.51,4.33-8,7.34-.81,7.33,0-6,6.14-6,6.14S171.14,97.73,174.08,97.77Z"/><path class="cls-1" d="M278.46,72.94s6.18-8,2.67-11-3.46-7.73-11.58-8.22-6.92,1.27-6.29,3.45,3,2.83,5.22,3.91,4.81,1,6.11,3.22-1.19,2.65-.55,4.83S277.25,74.71,278.46,72.94Z"/><path class="cls-1" d="M113.58,11.72S103,2.08,98.31,6.68s-11.3,4-12.93,15.39,1,9.92,4.15,9.28,4.34-3.94,6.12-6.91,2-6.68,5.25-8.24,3.6,2,6.75,1.33S115.94,13.64,113.58,11.72Z"/><rect class="cls-2" y="1.49" width="301.75" height="149.49"/></svg>