<svg id="EutecticPhaseDeformedDendrite" xmlns="http://www.w3.org/2000/svg" viewBox="0 0 500 50"><defs><style>.cls-1{fill:#9c9b9b;stroke:#1d1d1b;stroke-miterlimit:10;stroke-width:0.5px;}.cls-2{fill:none;}</style></defs><title>M_EutheticPhaseDeformedDendrite</title><path class="cls-1" d="M46.49,39.55c-0.56,3.08-4.78-.78-6.68.42s-0.65,2.22-.51,6.31c0.13,3.52.76,1.91,3.08,3.81H20.44c-4.75-1.17-5.75-4.32-10.29-7.14-4.86-3,1.06-9.15-9.38-14.87a2.9,2.9,0,0,1-.7-0.48C0,27.49,0,27.42.07,27.36c0.7-.4,6.66,1,6.66,1l3.41,4.56,4.67,8.08,0.6,0.54,2.38,2.18L21.9,44s3.76,1.65,5.17,2.22a7.65,7.65,0,0,0,2.58.56s2.6-.85,3.07-2.21,0,0,1-1.22,0.34-3.28.34-3.28l1.45-4a10.62,10.62,0,0,1,4.68-2.6c2.35-.36,3.93,0,4.52.75A5.8,5.8,0,0,1,46.49,39.55Z"/><path class="cls-1" d="M321.36,37.35s6.81-5.55,2.94-7.64-3.82-5.34-12.77-5.68-7.64.88-6.94,2.39,3.34,2,5.76,2.71,5.31,0.69,6.73,2.23-1.31,1.83-.6,3.34S320,38.57,321.36,37.35Z"/><path class="cls-1" d="M136.54,46.52c-4.89-1.44-2.73-4.23-6.6-5.06S119.71,41,114.85,40s-9.29-2.81-12.94-2.07-6,2.32-4.3,2.57a24.84,24.84,0,0,1,5.16,1.12c4.08,1.11,5.58,1.66,9.35,2s3.43-.33,5.68,1.49,3.14,3.48,7,3.66,3.3-.74,6.67-1S139.65,47.43,136.54,46.52Z"/><path class="cls-1" d="M55.06,12c1.8,3.46-2.22,4.08-.51,6.63s6.17,5.62,8.35,8.79,3.34,6.62,6.39,8.07,6,1.66,5.19.63a12.72,12.72,0,0,1-2.27-3.4c-1.58-2.83-2-4-4.12-6.16s-2.51-1.59-2.25-3.9,1.25-3.83-1.07-6-2.82-1.26-5.2-2.88S53.92,9.82,55.06,12Z"/><path class="cls-1" d="M393.88,32.67c-4.84-2.3-6.67-7.78-10.14-12.81s-10.57-9.92-13.27-14c-1.68-2.51.13-3.84,1.08-5.8h10.66a10.54,10.54,0,0,1,4.49,2.72c3.68,3.4,2.11,5.8,1.69,9.48s0.27,2.7,3.58,6.19,4,5.29,6.55,9.79,2.27,3.77,3.6,5.39S398.72,35,393.88,32.67Z"/><path class="cls-1" d="M444.76,0.09a13.81,13.81,0,0,1,1.59,4.51c1.75,7.89-5.05,10.65-8.34,15.73S421.3,24.4,421.3,24.4c-2.91-.09,1.26-4.54,4.2-6.43s4.29,0.18,7.12-2.36,1.89-4.93,2.79-7.64,1.11-5.32,4.06-7.21l1-.67"/><path class="cls-1" d="M276.11,0.09a17.94,17.94,0,0,1-4.75,5c-4.68,3.46-7.14,3.19-7.63,1.44S261.24,3,259,3.53s-7.47,4.56-7.47,4.56l-8.25,5.06L244,14.94s1.46,7.67,4.29,10.55-4,2-4,2-5.69-9.73-7.59-10S234.74,19,233,21.21s-7,5.61-9.31,4.51c-2.06-1-3.49-8.4-3.49-8.4-1-2.52,1-4.72,2.22-4.4,2,0.53,3.86,6.5,5,6.73s6.8-5,6.8-5a21.38,21.38,0,0,1,6.3-6.11c4-2.49,8.26-3.08,12.59-6.5A9.35,9.35,0,0,1,256.82.09a4.31,4.31,0,0,1,2,0,2.54,2.54,0,0,1,.94.41l1.61-.41h14.7Z"/><rect class="cls-2" x="0.07" y="0.09" width="499.93" height="50"/><path class="cls-1" d="M132,10.13c-2.4.9-2.09-3.79-4.74-1.68s-3.31,7-5.06,11-3.11,8.35-5.51,9.23-4.53,2.87-1.65-12.23c2-10.69,5-13.45,8-16.34H135.9c0.8,1.29,1.3,2.28,1.3,2.28C138.63,4.88,134.39,9.23,132,10.13Z"/><path class="cls-1" d="M470.05,50.09H456.54a3,3,0,0,0-.07-0.32c-0.53-2,3.83-4.18,5.36-4.58s5.24,0.36,6.47,1.73A11.48,11.48,0,0,1,470.05,50.09Z"/></svg>