<svg id="EutecticPhaseDeformedDendrite" xmlns="http://www.w3.org/2000/svg" viewBox="0 0 650 150"><defs><style>.cls-1{fill:#9c9b9b;stroke:#1d1d1b;stroke-miterlimit:10;stroke-width:0.5px;}.cls-2{fill:none;}</style></defs><title>M_EutheticPhaseDeformedDendrite</title><path class="cls-1" d="M287.8,143.37l-1.34-8s7.65-2,10.27-1.24,3.58,2.11,5.08,1S303.15,124,303.15,124s5.36-4.07,4.43-.53,1.76,10,1.76,10l0.33,1.67,9.63-.31s6.54,0.39,8.72-.3a3.78,3.78,0,0,0,2.46-4.57c-0.48-1.55,1.48-3,7.25-2.69s9.54,2.38,10,4.57,0.45,3.26-2.85,3.87-4.09-2-6.36-1.59-8.3,2.29-8.3,2.29-1,2.59-6.5,2.17-9.35,1.23-14.08,1.38a22.77,22.77,0,0,1-8.52-1.44s-7.51-1.13-8.38-.38-0.83,7.48-.83,7.48S288.2,145.76,287.8,143.37Z"/><path class="cls-1" d="M514.06,123.65l-1.27,1.86-3.38.8h-5.5l-1.1,2.1,1.27,0.53a12.47,12.47,0,0,0,2.58.81h2.54l1.69,0.53a1.48,1.48,0,0,1,.42.8l0.21,0.66v1.46c-0.64.8-.63,1.19-1.69,1.33l-1.06.13s1.7-2.56-3.38.44a59.62,59.62,0,0,1-6.77,3.67c-1.06.53-.21,1.7-3.38,2.37s-6.56,1.07-7.4,2-1.06,1.19-1.06,1.59-0.64.4,1.06,1.59,1.48,1.33,2.33,1.72a6.51,6.51,0,0,0,2.32.8c0.64,0,2.75.53,3,0a7.68,7.68,0,0,0-.21-2.25,14.19,14.19,0,0,0-.63-2.12,2.47,2.47,0,0,1,.84-0.8c0.84-.66.42-0.14,3-1.33s5.29-.29,5.71-1.2,2.32-1.71,3-2,1.9-.93,1.9-0.93l2.75-.8a12.14,12.14,0,0,1,2.33,0,4.74,4.74,0,0,1,3,.93c0.85,0.8.63,0.8,3.39,2.12s4.44,1.18,5.29,1.85,1.9,0.94,5.71,2.26,4.86,2,5.5,2,2.75,0.53,3,.13-0.21-.66,0-1.06,0.76-.53.06-0.93-1.75-.93-2.39-1.33-2.32-1-4.86-2.27a31.41,31.41,0,0,0-4.66-2c-1.69-.66-2.75-1.06-3.6-1.46s-2.12.1-3.6-1.34a26.29,26.29,0,0,0-2.75-2.24c-0.42-.4-2.54-2.25-2.54-2.25a0.92,0.92,0,0,1-.42-0.66V129c0-.4-0.42-0.53,0-1.19a8,8,0,0,0,.64-1.19l1.9-1.33,3.6-1.59H531s1.27,0.93,1.69,0a27.57,27.57,0,0,0,1.48-2.65,1.17,1.17,0,0,0-.42-1.33c-0.64-.4-1.9-1.33-1.9-1.33l-2.12-.8s-0.85-.93-1.06-0.53-1.06,1.72-1.06,1.72l0.21,1.33s0.85,0.27-.21.53a13.83,13.83,0,0,1-3.81.27c-2.12,0-2.54-.4-5.92.8S514.06,123.65,514.06,123.65Z"/><path class="cls-1" d="M556.39,86.72l11.51,0.42S581.57,86.4,587,84.3s12.78,0.13,11.37-4.47a10.23,10.23,0,0,1,.69-8l13.38-1.24s-3.39,9.65-4.44,6.53-5.63-.51-5.63-0.51l1.95,4.67-3.52,2.81a24.46,24.46,0,0,0-3.85.73c-3,.71-7.9,2.43-7.9,2.43l-3,2.36s-4-.7-1.13.91,7.25,3.57,7.25,3.57l0,2.41,4.23,3.4-1.69,1.35L590,105.1l-5.29,4.23-2.81.11-2-2.49s1.84-2.94,1.67-4.33,0-2.64-.67-3.82a35.19,35.19,0,0,1-1.51-3.8l-2.79-1.81s0-.45-4.12-2l-4.09-1.58L564,89.15l-5.05.64L555,87.85Z"/><path class="cls-1" d="M5.64,52.25C16.08,58,10.16,64.11,15,67.12s5.66,6.39,11.29,7.35,9.78,0.8,13.39,4.46,5.52,5.68,4.14,9.32S37,94.46,38.55,96.59a29.94,29.94,0,0,0,5.26,4.82s4.85,1.41,6.8.58,2.17-2.49.33-3.25A19,19,0,0,0,46,97.8s-4.82-4.22-2-5.41a13.48,13.48,0,0,0,5.35-4.62s-1.16-2.48,2.33-2.88,5.54-1,9.06,2.18,4.17,4.9,7.71,4.54,8.26,0.73,7.9-.67-0.11-3.7-2.69-5a25.45,25.45,0,0,0-5.43-2.1c-1.06-.24-2.86.27-8.79-2.3s-7.55-2.24-10.92-6-4.2-1-4.35-5.06-1.37-5.11.51-6.31,6.12,2.67,6.68-.41a5.81,5.81,0,0,0-1.75-5.35c-0.59-.76-2.17-1.12-4.52-0.75a10.63,10.63,0,0,0-4.68,2.6l-1.45,4s0.68,2.07-.35,3.28-0.56-.15-1,1.22-3.07,2.22-3.07,2.22a7.63,7.63,0,0,1-2.58-.57c-1.41-.56-5.17-2.21-5.17-2.21l-4.11-.33-2.38-2.18-0.6-.55L15,57,11.6,52.48S2.16,50.35,5.64,52.25Z"/><path class="cls-1" d="M321.37,46.69s6.81-5.55,2.94-7.64-3.82-5.34-12.77-5.68-7.64.88-6.94,2.39,3.34,2,5.76,2.71,5.31,0.69,6.73,2.23-1.31,1.83-.6,3.34S320,47.91,321.37,46.69Z"/><path class="cls-1" d="M136.55,55.86c-4.89-1.44-2.73-4.23-6.6-5.06s-10.23-.44-15.09-1.44-9.29-2.81-12.94-2.07-6,2.32-4.3,2.57A24.84,24.84,0,0,1,102.78,51c4.08,1.11,5.58,1.66,9.35,2s3.43-.33,5.68,1.49,3.14,3.48,7,3.66,3.3-.74,6.67-1S139.66,56.77,136.55,55.86Z"/><path class="cls-1" d="M55.06,21.36c1.8,3.46-2.22,4.08-.51,6.63s6.17,5.62,8.35,8.79,3.34,6.62,6.39,8.07,6,1.66,5.19.63a12.72,12.72,0,0,1-2.27-3.4c-1.58-2.83-2-4-4.12-6.16s-2.51-1.59-2.25-3.9,1.25-3.83-1.07-6-2.82-1.26-5.2-2.88S53.92,19.16,55.06,21.36Z"/><path class="cls-1" d="M522.81,99.54c2.75-3.35,4.7-6.17,5.1-8s-1.12-5.26-2.33-6.28S520,82,518.75,83.57s-5.13,3.85-4.78,5.75,7.48-.57,6.16,2.42-0.3,2.53-.13,5.18S521.06,101.67,522.81,99.54Z"/><path class="cls-1" d="M236.6,73.13s15-.16,15.74,2.15,4.41,4.67,2.94,8.1-2.94,3.43-5.88,5.73-6.57,4.61-3.29,6.92,3.29,1.11,5.49,1.59,3.31-.87,5.52-4.12,4.41-5.55,7.35-5.08,4,1.15,6.61,3.23,4.79,4.3,9.2,6.07,8.82,4.2,3.31,4-10.51-.64-13.71-2.71-3.57-4.15-5.41-3.69-4.41-.27-5.52,2.29,1.1,4.63,0,5.78-4,3.11-4.78,1.9-1.84-1.55-4.41-3.57-3.31-3-7.35-4.12-7.58-1.34-5.81-4.12,0.67-3.93,4-5.32,6.25-1.53,5.15-4,0.74-2.41-2.57-4.62-0.79-3.37-7-4.06-9.9.78-8.43-2.38-0.37-4.5,4.78-5.56,8.09-.56,8.09,0S234,71.82,234,71.82,233.36,73.11,236.6,73.13Z"/><path class="cls-1" d="M75.85,119.43c9.71-3.13,6.95-6.93,14.67-6.24s11.26-.07,15.83,3.08,10.09,6.49,5.67,10.17-2.21,3.81-14.89,4.79-19.2,4.21-16.77,0,3-4.9,7.95-6.28,6.62-6.2,3.31-5.52-15.77,3.43-15.77,1.72v-1.72Z"/><path class="cls-1" d="M637.81,136.85s6.81-5.55,2.94-7.64-3.82-5.34-12.77-5.68-7.64.88-6.94,2.39,3.34,2,5.76,2.71,5.31,0.69,6.73,2.23-1.31,1.83-.6,3.34S636.47,138.07,637.81,136.85Z"/><path class="cls-1" d="M419.14,95.16l-7.3,6.44s-9-2.52-10.5-4.42-0.94-3.38-3.48-3.33-13.12,7.35-13.12,7.35-9.13.16-4.53-1.9,9-8.09,9-8.09l1.49-1.39-8.94-4.76s-5.43-3.66-8.11-4.3a8.24,8.24,0,0,0-7.08,2c-1.22,1.36-4.47,1.37-9.35-1.8-0.91-.59-1.62-2.32-2.34-1.81-1,.72.2,2.19-1.77,3.21a66.35,66.35,0,0,1-9.77,3.54c-2.12.63-4.49,0.16-4.76,2.69s-0.26,2.54.53,4.2,2.64,3.18,0,3.45-2.76-.35-6.53-1.31S330.7,91.5,327,92.84s-5,1.11-6.34,1.69-6.45.77-2.17,2.11,5.6,1.17,8,1.8,3.17,1.27,3.17,2.53,0.53,5.34-2.11,6.54-5.39,3.34-9,3.61-7.74.12-7.94-1.31-0.45-1.88,2.18-2.3c3.92-.64,5.18-1,5.76-2.11s1.8-1,0-2.89,3-.92-1.8-1.87-5.94,0-6.14-1.42-0.2.15-.2-1.43-1-2.12,1.85-3.27a63.42,63.42,0,0,1,10.37-3.12,8.28,8.28,0,0,1,1-.05c3.17,0,4.76.28,6.61-.67s3.17-1.73,5.55-3,3.43-3.21,5.54-4,5.73-2.08,5-3.56,3.12-.46,0-3.1-3.12-4.22,1.24-3.59c2.26,0.33,3.84,1.78,4.81,1.11,0.62-.43.3-1.51,0.88-2.06,1.9-1.83,3.08-2.58,6.68-1.32s1.56,3.53,4,4.43,9.85,2.65,9.85,2.65,3.7-1.33,8.12,1.79,9.68,3.95,14,6.29A15.59,15.59,0,0,1,402,91.8s5.5,4.7,7.08,4.61,8.72-5,8.72-5S421.32,93.23,419.14,95.16Z"/><path class="cls-1" d="M583.08,18.89s-11.71-6.67-16.85-3.48S553.76,18.17,552,26s1.1,6.86,4.57,6.42,4.78-2.73,6.75-4.78,2.16-4.62,5.79-5.7,4,1.37,7.44.92S585.68,20.22,583.08,18.89Z"/><path class="cls-1" d="M199.89,77.39c-5.52,3.2-14.24-1.55-17.62,1.28s-3.19,9.19-7.28,12.78-10.73,6-8.95,10.15,6.53,7.87,7.64,6.55,0.21-1,4.53-3.76,6.35-3.64,8.18-6.83-0.47-3.54,5.82-3.89,11.86,0.43,13.13-3-1.86-3.82-2-7.21S203.38,75.36,199.89,77.39Z"/><path class="cls-1" d="M371.29,4.69c2.86,5.5-3.53,6.48-.82,10.53s9.79,8.93,13.27,14S389,39.7,393.89,42s9.56,2.64,8.24,1-1.09-.9-3.6-5.4-3.23-6.29-6.54-9.78-4-2.52-3.58-6.2,2-6.08-1.69-9.47-4.49-2-8.26-4.57S369.48,1.21,371.29,4.69Z"/><path class="cls-1" d="M251.22,116.16c-2.17,3.24-4.65,0-6.07,2.73s-2,8.11-3.71,11.55-4.21,6.1-4,9.47,1.43,6.08,1.93,4.85a12.72,12.72,0,0,1,1.9-3.62c1.73-2.74,2.5-3.68,3.43-6.57s0.19-3,2.34-3.85,4-.74,4.72-3.79-0.25-3.08,0-5.95S252.6,114.11,251.22,116.16Z"/><path class="cls-1" d="M393.54,122.66s1.52,13.39,7.12,15.66,9.58,8.44,17,5.25,4.89-4.93,2.49-7.48-5-2.26-7.84-2.64-5,1-8-1.32-1.23-4-3.65-6.55S393.08,119.78,393.54,122.66Z"/><path class="cls-1" d="M421.31,33.73s13.44,1,16.72-4.07,10.08-7.84,8.33-15.72-3.93-5.72-6.88-3.84-3.16,4.51-4.06,7.21,0,5.1-2.79,7.63-4.17.46-7.12,2.36S418.39,33.64,421.31,33.73Z"/><path class="cls-1" d="M220.19,26.65s1.43,7.44,3.49,8.41c2.34,1.1,7.56-2.33,9.31-4.51s1.78-4,3.68-3.76,7.59,10,7.59,10,6.85,0.93,4-1.95S244,24.27,244,24.27l-0.69-1.79,8.24-5.06s5.26-4,7.48-4.56,4.2,1.29,4.7,3,3,2,7.63-1.44,6.61-7.59,5.75-10-1.51-3.39-4.63-2.14-2.28,4.17-4.41,5.06-8.27,2.41-8.27,2.41-2.37-1.91-6.7,1.52-8.54,4-12.58,6.5a21.39,21.39,0,0,0-6.3,6.12s-5.63,5.26-6.79,5-3-6.2-5-6.74C221.22,21.94,219.15,24.13,220.19,26.65Z"/><rect class="cls-2" x="0.08" y="-0.1" width="649.92" height="149.86"/><path class="cls-1" d="M137.2,11.71S130.87-.92,126.77,5.23,117.91,10.66,115,25.76,114.3,38.88,116.69,38s3.76-5.27,5.5-9.23,2.42-8.86,5.06-11,2.34,2.58,4.74,1.67S138.64,14.22,137.2,11.71Z"/><path class="cls-1" d="M471.85,71.3c-1.15-4.18-2.32-7.4-3.55-8.77s-4.94-2.13-6.47-1.73-5.89,2.62-5.35,4.58,0.18,6.41,1.93,7.23,3.86-6.44,5.53-3.63,1.89,1.71,4.15,3.1S472.57,74,471.85,71.3Z"/></svg>