<svg id="EutecticPhaseDeformedDendrite" xmlns="http://www.w3.org/2000/svg" viewBox="0 0 500 150"><defs><style>.cls-1{fill:#9c9b9b;stroke:#1d1d1b;stroke-miterlimit:10;stroke-width:0.5px;}.cls-2{fill:none;}</style></defs><title>M_EutheticPhaseDeformedDendrite</title><path class="cls-1" d="M287.71,143.53l-1.34-8s7.65-2,10.27-1.24,3.58,2.11,5.08,1,1.35-11.17,1.35-11.17,5.36-4.07,4.43-.53,1.76,10,1.76,10l0.33,1.67,9.63-.31s6.54,0.39,8.72-.3a3.78,3.78,0,0,0,2.46-4.57c-0.48-1.55,1.48-3,7.25-2.69s9.54,2.38,10,4.57,0.45,3.26-2.85,3.87-4.09-2-6.36-1.59-8.3,2.29-8.3,2.29-1,2.59-6.5,2.17-9.35,1.23-14.08,1.38a22.77,22.77,0,0,1-8.52-1.44s-7.51-1.13-8.38-.38-0.83,7.48-.83,7.48S288.12,145.92,287.71,143.53Z"/><path class="cls-1" d="M5.56,52.42C16,58.14,10.08,64.28,14.93,67.28s5.66,6.39,11.29,7.35S36,75.43,39.61,79.1s5.52,5.68,4.14,9.32-6.83,6.21-5.29,8.34a29.94,29.94,0,0,0,5.26,4.82s4.85,1.41,6.8.58,2.17-2.49.33-3.25A19,19,0,0,0,46,98s-4.82-4.22-2-5.41a13.48,13.48,0,0,0,5.35-4.62s-1.16-2.48,2.33-2.88,5.54-1,9.06,2.18,4.17,4.9,7.71,4.54,8.26,0.73,7.9-.67-0.11-3.7-2.69-5A25.45,25.45,0,0,0,68.15,84c-1.06-.24-2.86.27-8.79-2.3s-7.55-2.24-10.92-6-4.2-1-4.35-5.06-1.37-5.11.51-6.31,6.12,2.67,6.68-.41a5.81,5.81,0,0,0-1.75-5.35c-0.59-.76-2.17-1.12-4.52-0.75a10.63,10.63,0,0,0-4.68,2.6l-1.45,4s0.68,2.07-.35,3.28-0.56-.15-1,1.22-3.07,2.22-3.07,2.22a7.63,7.63,0,0,1-2.58-.57c-1.41-.56-5.17-2.21-5.17-2.21L22.57,68l-2.38-2.18-0.6-.55-4.67-8.08-3.41-4.56S2.08,50.52,5.56,52.42Z"/><path class="cls-1" d="M321.29,46.85s6.81-5.55,2.94-7.64-3.82-5.34-12.77-5.68-7.64.88-6.94,2.39,3.34,2,5.76,2.71,5.31,0.69,6.73,2.23-1.31,1.83-.6,3.34S319.94,48.07,321.29,46.85Z"/><path class="cls-1" d="M136.47,56c-4.89-1.44-2.73-4.23-6.6-5.06s-10.23-.44-15.09-1.44-9.29-2.81-12.94-2.07-6,2.32-4.3,2.57a24.84,24.84,0,0,1,5.16,1.12c4.08,1.11,5.58,1.66,9.35,2s3.43-.33,5.68,1.49,3.14,3.48,7,3.66,3.3-.74,6.67-1S139.57,56.94,136.47,56Z"/><path class="cls-1" d="M55,21.53c1.8,3.46-2.22,4.08-.51,6.63s6.17,5.62,8.35,8.79,3.34,6.62,6.39,8.07,6,1.66,5.19.63a12.72,12.72,0,0,1-2.27-3.4c-1.58-2.83-2-4-4.12-6.16s-2.51-1.59-2.25-3.9,1.25-3.83-1.07-6-2.82-1.26-5.2-2.88S53.84,19.33,55,21.53Z"/><path class="cls-1" d="M236.52,73.3s15-.16,15.74,2.15,4.41,4.67,2.94,8.1-2.94,3.43-5.88,5.73-6.57,4.61-3.29,6.92,3.29,1.11,5.49,1.59,3.31-.87,5.52-4.12,4.41-5.55,7.35-5.08,4,1.15,6.61,3.23,4.79,4.3,9.2,6.07,8.82,4.2,3.31,4-10.51-.64-13.71-2.71-3.57-4.15-5.41-3.69-4.41-.27-5.52,2.29,1.1,4.63,0,5.78-4,3.11-4.78,1.9-1.84-1.55-4.41-3.57-3.31-3-7.35-4.12-7.58-1.34-5.81-4.12,0.67-3.93,4-5.32,6.25-1.53,5.15-4,0.74-2.41-2.57-4.62-0.79-3.37-7-4.06-9.9.78-8.43-2.38-0.37-4.5,4.78-5.56,8.09-.56,8.09,0S233.87,72,233.87,72,233.28,73.27,236.52,73.3Z"/><path class="cls-1" d="M75.77,119.59c9.71-3.13,6.95-6.93,14.67-6.24s11.26-.07,15.83,3.08,10.09,6.49,5.67,10.17-2.21,3.81-14.89,4.79-19.2,4.21-16.77,0,3-4.9,7.95-6.28,6.62-6.2,3.31-5.52S75.77,123,75.77,121.31v-1.72Z"/><path class="cls-1" d="M419.06,95.33l-7.3,6.44s-9-2.52-10.5-4.42S400.32,94,397.78,94s-13.12,7.35-13.12,7.35-9.13.16-4.53-1.9,9-8.09,9-8.09L390.66,90l-8.94-4.76s-5.43-3.66-8.11-4.3a8.24,8.24,0,0,0-7.08,2c-1.22,1.36-4.47,1.37-9.35-1.8-0.91-.59-1.62-2.32-2.34-1.81-1,.72.2,2.19-1.77,3.21a66.35,66.35,0,0,1-9.77,3.54c-2.12.63-4.49,0.16-4.76,2.69s-0.26,2.54.53,4.2,2.64,3.18,0,3.45-2.76-.35-6.53-1.31-1.92-3.48-5.62-2.14-5,1.11-6.34,1.69-6.45.77-2.17,2.11,5.6,1.17,8,1.8,3.17,1.27,3.17,2.53,0.53,5.34-2.11,6.54-5.39,3.34-9,3.61-7.74.12-7.94-1.31-0.45-1.88,2.18-2.3c3.92-.64,5.18-1,5.76-2.11s1.8-1,0-2.89,3-.92-1.8-1.87-5.94,0-6.14-1.42-0.2.15-.2-1.43-1-2.12,1.85-3.27a63.42,63.42,0,0,1,10.37-3.12,8.28,8.28,0,0,1,1-.05c3.17,0,4.76.28,6.61-.67s3.17-1.73,5.55-3,3.43-3.21,5.54-4,5.73-2.08,5-3.56,3.12-.46,0-3.1S343,73,347.4,73.64c2.26,0.33,3.84,1.78,4.81,1.11,0.62-.43.3-1.51,0.88-2.06,1.9-1.83,3.08-2.58,6.68-1.32s1.56,3.53,4,4.43,9.85,2.65,9.85,2.65,3.7-1.33,8.12,1.79,9.68,3.95,14,6.29A15.59,15.59,0,0,1,401.87,92s5.5,4.7,7.08,4.61,8.72-5,8.72-5S421.24,93.4,419.06,95.33Z"/><path class="cls-1" d="M199.8,77.56c-5.52,3.2-14.24-1.55-17.62,1.28S179,88,174.9,91.62s-10.73,6-8.95,10.15,6.53,7.87,7.64,6.55,0.21-1,4.53-3.76,6.35-3.64,8.18-6.83-0.47-3.54,5.82-3.89,11.86,0.43,13.13-3-1.86-3.82-2-7.21S203.3,75.53,199.8,77.56Z"/><path class="cls-1" d="M371.21,4.86c2.86,5.5-3.53,6.48-.82,10.53s9.79,8.93,13.27,14,5.3,10.51,10.14,12.81,9.56,2.64,8.24,1-1.09-.9-3.6-5.4-3.23-6.29-6.54-9.78-4-2.52-3.58-6.2,2-6.08-1.69-9.47-4.49-2-8.26-4.57S369.4,1.37,371.21,4.86Z"/><path class="cls-1" d="M251.14,116.32c-2.17,3.24-4.65,0-6.07,2.73s-2,8.11-3.71,11.55-4.21,6.1-4,9.47,1.43,6.08,1.93,4.85a12.72,12.72,0,0,1,1.9-3.62c1.73-2.74,2.5-3.68,3.43-6.57s0.19-3,2.34-3.85,4-.74,4.72-3.79-0.25-3.08,0-5.95S252.52,114.27,251.14,116.32Z"/><path class="cls-1" d="M393.46,122.83s1.52,13.39,7.12,15.66,9.58,8.44,17,5.25,4.89-4.93,2.49-7.48-5-2.26-7.84-2.64-5,1-8-1.32-1.23-4-3.65-6.55S393,119.95,393.46,122.83Z"/><path class="cls-1" d="M421.22,33.9s13.44,1,16.72-4.07S448,22,446.27,14.11s-3.93-5.72-6.88-3.84-3.16,4.51-4.06,7.21,0,5.1-2.79,7.63-4.17.46-7.12,2.36S418.31,33.81,421.22,33.9Z"/><path class="cls-1" d="M220.11,26.82s1.43,7.44,3.49,8.41c2.34,1.1,7.56-2.33,9.31-4.51s1.78-4,3.68-3.76,7.59,10,7.59,10,6.85,0.93,4-1.95-4.28-10.55-4.28-10.55l-0.69-1.79,8.24-5.06s5.26-4,7.48-4.56,4.2,1.29,4.7,3,3,2,7.63-1.44S277.89,7,277,4.66s-1.51-3.39-4.63-2.14S270.12,6.69,268,7.59,259.73,10,259.73,10s-2.37-1.91-6.7,1.52-8.54,4-12.58,6.5a21.39,21.39,0,0,0-6.3,6.12s-5.63,5.26-6.79,5-3-6.2-5-6.74C221.13,22.11,219.06,24.3,220.11,26.82Z"/><rect class="cls-2" y="0.07" width="500.68" height="149.86"/><path class="cls-1" d="M137.12,11.87S130.78-.76,126.69,5.4,117.83,10.83,115,25.93,114.21,39,116.61,38.16s3.76-5.27,5.5-9.23,2.42-8.86,5.06-11,2.34,2.58,4.74,1.67S138.56,14.39,137.12,11.87Z"/><path class="cls-1" d="M471.76,71.47c-1.15-4.18-2.32-7.4-3.55-8.77s-4.94-2.13-6.47-1.73-5.89,2.62-5.35,4.58,0.18,6.41,1.93,7.23,3.86-6.44,5.53-3.63,1.89,1.71,4.15,3.1S472.49,74.13,471.76,71.47Z"/></svg>