<svg id="EutecticPhaseDendritic" xmlns="http://www.w3.org/2000/svg" viewBox="0 0 500 50"><defs><style>.cls-1{fill:#9c9b9b;stroke:#1d1d1b;stroke-miterlimit:10;stroke-width:0.5px;}.cls-2{fill:none;}</style></defs><title>M_EutheticPhase</title><path class="cls-1" d="M85.23,41.11c0,0.58-1,2.5-1.35,3.84s-1.53,0-1.53,0H73.53l-3.27,2.3-1.72,1.92a13.63,13.63,0,0,1-.43,1.35H57.23l0.57-1.73h5l3.07-1.16L67,44.95s0.39-1.15,3.46-2.88,3.45-1.15,5.37-1.15a8.09,8.09,0,0,0,3.45-.38c1-.39.19-0.77,0.19-0.77l-0.19-1.92s0.77-1.92,1-2.49,1,0.76,1,.76l1.92,1.16s1.15,1.34,1.72,1.91A2.36,2.36,0,0,1,85.23,41.11Z"/><path class="cls-1" d="M206.22,22.86l8.43,0.49s10-.87,14-3.32S238,20.18,237,14.81s-1.14-7.66.51-9.32,8.11-3.25,9.8-1.44c1.41,1.52-2.48,11.27-3.25,7.63s-3.83-1.59-4.13-.6c-0.4,1.35,1.43,5.45,1.43,5.45l-2.58,3.28a12,12,0,0,0-2.82.85,55.61,55.61,0,0,0-5.78,2.84L228,26.26s-2.91-.82-0.83,1.06,5.31,4.17,5.31,4.17l0,2.81s3.1,2.71,3.1,4a4.31,4.31,0,0,1-1.24,1.58l-3.51,4.47L227,49.26l-2.06.13-1.47-2.9s1.35-3.43,1.23-5.06a18.32,18.32,0,0,0-.49-4.47c-0.46-1.39-1.1-4.44-1.1-4.44l-2-2.11s0-.53-3-2.37l-3-1.84-3.24-.5s-2.78,1-3.7.75-2.89-2.27-2.89-2.27Z"/><path class="cls-1" d="M310.36,47l1.28,3.52h-3.86a16.83,16.83,0,0,0-5.91-10.44c-3.16-2.75,5.4.33,5.4,0.33Z"/><path class="cls-1" d="M342.53,50.52H334.2a7.78,7.78,0,0,1,3.43-2.68c2.14-.52,3.56,0,4.1,1.09C341.92,49.31,342.23,49.82,342.53,50.52Z"/><path class="cls-1" d="M8.29,31.12C9.35,34.36,7,34.94,8,37.33s3.62,5.27,4.91,8.24,2,6.2,3.75,7.56,3.54,1.56,3,.59a13.62,13.62,0,0,1-1.33-3.19,26,26,0,0,0-2.42-5.77c-1.23-2.06-1.48-1.49-1.33-3.66s0.74-3.59-.63-5.59-1.66-1.18-3.06-2.7S7.62,29.06,8.29,31.12Z"/><path class="cls-1" d="M430.74,50.52a2.61,2.61,0,0,0,.43-0.81c0.53-1.49,1.63-1.36,0-3.83s2.69-1.22-1.63-2.48-5.38,0-5.56-1.88-0.18.21-.18-1.89-1-2.81,1.67-4.34,7.66-3.84,9.4-4.14a5.58,5.58,0,0,1,.9-0.07c2.88,0,4.31.38,6-.88s2.87-2.3,5-4,3.11-4.25,5-5.27,5.19-2.77,4.51-4.72,2.83-.61,0-4.11-2.83-5.6,1.12-4.76,5.39,1.34,6.1,4.76,1.68,5.1-.95,7.08a48.7,48.7,0,0,1-8.87,4.71c-1.91.84-4.07,0.21-4.31,3.57s-0.24,3.38.48,5.56,2.4,4.24,0,4.57-2.5-.45-5.92-1.73-1.74-4.6-5.1-2.84-4.55,1.48-5.74,2.25-5.85,1-2,2.79,5.08,1.55,7.24,2.39,2.87,1.67,2.87,3.35c0,1.23.26,4.44-.54,6.7"/><path class="cls-1" d="M339.54,33.88s6.18-8,2.67-11-3.46-7.73-11.58-8.22-6.92,1.27-6.29,3.45,3,2.83,5.22,3.91,4.81,1,6.11,3.22-1.19,2.65-.55,4.83S338.33,35.65,339.54,33.88Z"/><path class="cls-1" d="M113,9.9s-10.62-9.64-15.28-5-11.3,4-12.93,15.39,1,9.92,4.15,9.28,4.34-3.94,6.12-6.91,2-6.68,5.25-8.24,3.6,2,6.75,1.33S115.38,11.82,113,9.9Z"/><rect class="cls-2" y="0.52" width="500" height="50"/></svg>