<svg id="TwinLines_Grain_Small_" data-name="TwinLines (Grain Small)" xmlns="http://www.w3.org/2000/svg" viewBox="0 0 650 50"><defs><style>.cls-1,.cls-2{fill:none;}.cls-1{stroke:#1d1d1b;stroke-miterlimit:10;stroke-width:0.5px;}</style></defs><title>CP_TwinLinesGrainSmall</title><line class="cls-1" x1="192.36" y1="46.26" x2="189.63" y2="49.81"/><line class="cls-1" x1="195.73" y1="47.73" x2="194.12" y2="49.81"/><line class="cls-1" x1="200.05" y1="49.63" x2="199.94" y2="49.81"/><line class="cls-1" x1="26.04" y1="9.86" x2="27.99" y2="30.6"/><line class="cls-1" x1="31.68" y1="31.13" x2="30.83" y2="10.53"/><line class="cls-1" x1="31.68" y1="10.65" x2="33.17" y2="31.13"/><line class="cls-1" x1="35.73" y1="11.23" x2="38.62" y2="32.11"/><path class="cls-1" d="M81.7,45.26l-3.47,4.55"/><line class="cls-1" x1="85.34" y1="46.9" x2="83.05" y2="49.81"/><line class="cls-1" x1="89.03" y1="48.57" x2="88.13" y2="49.81"/><line class="cls-1" x1="90.67" y1="49.32" x2="90.33" y2="49.81"/><line class="cls-1" x1="121.2" y1="12.14" x2="134.04" y2="2.21"/><line class="cls-1" x1="137.62" y1="3.5" x2="123.3" y2="14.7"/><line class="cls-1" x1="139.15" y1="4.05" x2="123.99" y2="15.54"/><line class="cls-1" x1="155.31" y1="49.81" x2="153.94" y2="44.81"/><line class="cls-1" x1="161.01" y1="49.81" x2="158.39" y2="41.43"/><line class="cls-1" x1="138.73" y1="29" x2="172.79" y2="23.42"/><line class="cls-1" x1="141.43" y1="32.11" x2="173.19" y2="26.21"/><line class="cls-1" x1="246.15" y1="49.81" x2="245.5" y2="38.67"/><line class="cls-1" x1="249.87" y1="49.81" x2="247.17" y2="38.72"/><line class="cls-1" x1="252.53" y1="49.81" x2="248.86" y2="38.67"/><line class="cls-1" x1="87.44" y1="10.65" x2="86.85" y2="24.7"/><line class="cls-1" x1="90.67" y1="9.1" x2="89.03" y2="26.21"/><line class="cls-1" x1="92.63" y1="8.42" x2="99.84" y2="28.34"/><line class="cls-1" x1="93.86" y1="7.89" x2="103.38" y2="27.33"/><rect class="cls-2" width="650" height="49.81"/><line class="cls-1" x1="206.49" y1="9.8" x2="213.5"/><line class="cls-1" x1="217.33" x2="214.18" y2="11"/><path class="cls-1" d="M272.75,8.42S311,2.88,311,2.88"/><line class="cls-1" x1="309.9" y1="7" x2="273.13" y2="11"/><line class="cls-1" x1="273.35" y1="12.5" x2="310.03" y2="9"/><path class="cls-1" d="M274.14,15.33c1.53,0.17,31.51,10.88,31.51,10.88"/><line class="cls-1" x1="361.6" y1="29" x2="366.25"/><line class="cls-1" x1="371.53" x2="364.22" y2="32.11"/><line class="cls-1" x1="375.25" x2="366.25" y2="32.73"/><line class="cls-1" x1="430.97" y1="32.11" x2="427.31" y2="49.81"/><line class="cls-1" x1="434.23" y1="33.99" x2="433.5" y2="49.81"/><line class="cls-1" x1="436.99" y1="49.81" x2="436.99" y2="35.96"/><path class="cls-1" d="M424.54,49.81c2-8.88,4.25-18.89,4.43-19.57"/><line class="cls-1" x1="469.99" y1="11" x2="504" y2="1.85"/><line class="cls-1" x1="507.34" y1="5" x2="472.03" y2="13.81"/><line class="cls-1" x1="474.52" y1="19.36" x2="504" y2="23.85"/><path class="cls-1" d="M567.78,9.59c1.22-.75,13-9.59,13-9.59"/><line class="cls-1" x1="587.42" x2="570.64" y2="11.61"/><line class="cls-1" x1="601.97" x2="606.46" y2="11"/><line class="cls-1" x1="605" y1="0.56" x2="607.96" y2="8.35"/><line class="cls-1" x1="618.16" y1="22.27" x2="627.31" y2="14.09"/><line class="cls-1" x1="631.38" y1="13.81" x2="621.92" y2="24.43"/><line class="cls-1" x1="635.38" y1="1.85" x2="645.65" y2="16.7"/><line class="cls-1" x1="637.92" x2="649.18" y2="15.18"/><line class="cls-1" x1="650" y1="47.66" x2="640.38" y2="49.81"/></svg>