<svg id="TwinLines_Grain_Small_" data-name="TwinLines (Grain Small)" xmlns="http://www.w3.org/2000/svg" viewBox="0 0 500 150"><defs><style>.cls-1,.cls-2{fill:none;}.cls-1{stroke:#1d1d1b;stroke-miterlimit:10;stroke-width:0.5px;}</style></defs><title>CP_TwinLinesGrainSmall</title><line class="cls-1" x1="346.19" y1="68.78" x2="382.25" y2="94.89"/><line class="cls-1" x1="347.01" y1="64.9" x2="389.91" y2="94.89"/><line class="cls-1" x1="349" y1="60.75" x2="394.06" y2="90.42"/><line class="cls-1" x1="344.56" y1="76.4" x2="366.25" y2="94.89"/><line class="cls-1" x1="167.5" y1="78.68" x2="192.36" y2="46.39"/><line class="cls-1" x1="170.43" y1="80.57" x2="195.73" y2="47.87"/><line class="cls-1" x1="200.05" y1="49.76" x2="178.37" y2="83.84"/><line class="cls-1" x1="26.04" y1="10" x2="27.99" y2="30.74"/><line class="cls-1" x1="31.68" y1="31.26" x2="30.83" y2="10.67"/><line class="cls-1" x1="31.68" y1="10.79" x2="33.17" y2="31.26"/><line class="cls-1" x1="35.73" y1="11.36" x2="38.62" y2="32.25"/><line class="cls-1" x1="13.2" y1="77.95" x2="37.18" y2="60.14"/><line class="cls-1" x1="39.5" y1="62.3" x2="11.76" y2="84.43"/><path class="cls-1" d="M57.53,78.31C58.5,75.64,81.7,45.4,81.7,45.4"/><line class="cls-1" x1="85.34" y1="47.04" x2="59.75" y2="79.58"/><line class="cls-1" x1="64.05" y1="83.18" x2="89.03" y2="48.71"/><line class="cls-1" x1="90.67" y1="49.45" x2="66.33" y2="84.43"/><line class="cls-1" x1="121.2" y1="12.27" x2="134.04" y2="2.35"/><line class="cls-1" x1="137.62" y1="3.64" x2="123.3" y2="14.83"/><line class="cls-1" x1="139.15" y1="4.19" x2="123.99" y2="15.68"/><line class="cls-1" x1="162.83" y1="77.43" x2="153.94" y2="44.95"/><line class="cls-1" x1="158.39" y1="41.57" x2="169.26" y2="76.4"/><line class="cls-1" x1="138.73" y1="29.14" x2="172.79" y2="23.56"/><line class="cls-1" x1="141.43" y1="32.25" x2="173.19" y2="26.35"/><line class="cls-1" x1="152.4" y1="120.41" x2="98.81" y2="100.72"/><line class="cls-1" x1="99.82" y1="99.49" x2="154.95" y2="116.69"/><line class="cls-1" x1="101.96" y1="96.9" x2="158.39" y2="111.66"/><line class="cls-1" x1="31.26" y1="135.63" x2="45.8" y2="121.87"/><line class="cls-1" x1="49.77" y1="122.15" x2="33.96" y2="136.61"/><line class="cls-1" x1="245.5" y1="38.8" x2="246.5" y2="55.94"/><line class="cls-1" x1="247.17" y1="38.85" x2="251.33" y2="55.94"/><line class="cls-1" x1="248.86" y1="38.8" x2="254.5" y2="55.94"/><line class="cls-1" x1="87.44" y1="10.79" x2="86.85" y2="24.84"/><line class="cls-1" x1="90.67" y1="9.23" x2="89.03" y2="26.35"/><line class="cls-1" x1="92.63" y1="8.55" x2="99.84" y2="28.48"/><line class="cls-1" x1="93.86" y1="8.02" x2="103.38" y2="27.47"/><rect class="cls-2" y="0.14" width="499.93" height="150.07"/><line class="cls-1" x1="206.49" y1="9.93" x2="213.5" y2="0.14"/><line class="cls-1" x1="217.33" y1="0.14" x2="214.18" y2="11.14"/><path class="cls-1" d="M272.75,8.55S311,3,311,3"/><line class="cls-1" x1="309.9" y1="7.14" x2="273.13" y2="11.14"/><line class="cls-1" x1="273.35" y1="12.63" x2="310.03" y2="9.14"/><path class="cls-1" d="M274.14,15.47c1.53,0.17,31.51,10.88,31.51,10.88"/><line class="cls-1" x1="235.44" y1="106.79" x2="253.07" y2="91.64"/><line class="cls-1" x1="261.36" y1="92.86" x2="236.73" y2="110.56"/><line class="cls-1" x1="238.05" y1="114.44" x2="263.43" y2="96.54"/><line class="cls-1" x1="304.04" y1="72.11" x2="316.88" y2="59.19"/><line class="cls-1" x1="313.13" y1="56.4" x2="301.09" y2="68.78"/><line class="cls-1" x1="361.6" y1="29.14" x2="366.25" y2="0.14"/><line class="cls-1" x1="371.53" y1="0.14" x2="364.22" y2="32.25"/><line class="cls-1" x1="375.25" y1="0.14" x2="366.25" y2="32.87"/><line class="cls-1" x1="355.78" y1="129.42" x2="361.6" y2="150.14"/><line class="cls-1" x1="363.49" y1="122.51" x2="371.53" y2="150.21"/><line class="cls-1" x1="366.25" y1="119.64" x2="375.25" y2="150.14"/><line class="cls-1" x1="414.2" y1="124.93" x2="383.4" y2="150.21"/><line class="cls-1" x1="415.28" y1="126.67" x2="388" y2="150.21"/><line class="cls-1" x1="424.21" y1="64.9" x2="430.97" y2="32.25"/><line class="cls-1" x1="434.23" y1="34.13" x2="432.66" y2="68.38"/><line class="cls-1" x1="436.99" y1="70.16" x2="436.99" y2="36.09"/><path class="cls-1" d="M429,30.38c-0.33,1.24-7.53,33.37-7.53,33.37"/><line class="cls-1" x1="434.23" y1="115.18" x2="473.54" y2="100.39"/><line class="cls-1" x1="474.26" y1="103.04" x2="435.63" y2="118"/><line class="cls-1" x1="439.07" y1="124.93" x2="478.8" y2="119.64"/><line class="cls-1" x1="499.93" y1="3.08" x2="469.99" y2="11.14"/><line class="cls-1" x1="499.93" y1="6.99" x2="472.03" y2="13.95"/><line class="cls-1" x1="499.93" y1="23.36" x2="474.52" y2="19.49"/><line class="cls-1" x1="190.72" y1="103.04" x2="224.75" y2="124.93"/><line class="cls-1" x1="189.21" y1="107.78" x2="211.62" y2="129.42"/><line class="cls-1" x1="187.05" y1="111.86" x2="207.74" y2="130.7"/><line class="cls-1" x1="319.87" y1="102.85" x2="305.65" y2="132.47"/><line class="cls-1" x1="325" y1="101.28" x2="309.9" y2="133.46"/><line class="cls-1" x1="312.22" y1="134" x2="329.78" y2="99.83"/></svg>