<svg id="TwinLines_Grain_Small_" data-name="TwinLines (Grain Small)" xmlns="http://www.w3.org/2000/svg" viewBox="0 0 300 50"><defs><style>.cls-1,.cls-2{fill:none;}.cls-1{stroke:#1d1d1b;stroke-miterlimit:10;stroke-width:0.5px;}</style></defs><title>CP_TwinLinesGrainSmall</title><line class="cls-1" x1="192.3" y1="46.7" x2="189.57" y2="50.25"/><line class="cls-1" x1="195.67" y1="48.17" x2="194.06" y2="50.25"/><line class="cls-1" x1="199.99" y1="50.07" x2="199.88" y2="50.25"/><line class="cls-1" x1="25.98" y1="10.3" x2="27.93" y2="31.04"/><line class="cls-1" x1="31.62" y1="31.57" x2="30.77" y2="10.97"/><line class="cls-1" x1="31.62" y1="11.09" x2="33.11" y2="31.57"/><line class="cls-1" x1="35.67" y1="11.67" x2="38.56" y2="32.55"/><path class="cls-1" d="M81.64,45.7l-3.47,4.55"/><line class="cls-1" x1="85.28" y1="47.34" x2="82.99" y2="50.25"/><line class="cls-1" x1="88.97" y1="49.01" x2="88.07" y2="50.25"/><line class="cls-1" x1="90.61" y1="49.76" x2="90.27" y2="50.25"/><line class="cls-1" x1="121.14" y1="12.58" x2="133.98" y2="2.65"/><line class="cls-1" x1="137.56" y1="3.94" x2="123.24" y2="15.14"/><line class="cls-1" x1="139.09" y1="4.49" x2="123.93" y2="15.98"/><line class="cls-1" x1="155.25" y1="50.25" x2="153.88" y2="45.25"/><line class="cls-1" x1="160.95" y1="50.25" x2="158.33" y2="41.87"/><line class="cls-1" x1="138.67" y1="29.44" x2="172.73" y2="23.86"/><line class="cls-1" x1="141.37" y1="32.55" x2="173.13" y2="26.65"/><line class="cls-1" x1="246.09" y1="50.25" x2="245.44" y2="39.11"/><line class="cls-1" x1="249.81" y1="50.25" x2="247.11" y2="39.16"/><line class="cls-1" x1="252.47" y1="50.25" x2="248.8" y2="39.11"/><line class="cls-1" x1="87.38" y1="11.09" x2="86.79" y2="25.14"/><line class="cls-1" x1="90.61" y1="9.54" x2="88.97" y2="26.65"/><line class="cls-1" x1="92.57" y1="8.86" x2="99.78" y2="28.78"/><line class="cls-1" x1="93.8" y1="8.33" x2="103.32" y2="27.77"/><rect class="cls-2" x="-0.06" y="0.44" width="300.06" height="49.81"/><line class="cls-1" x1="206.43" y1="10.24" x2="213.44" y2="0.44"/><line class="cls-1" x1="217.27" y1="0.44" x2="214.12" y2="11.44"/><path class="cls-1" d="M300,4.9l-27.31,4"/><line class="cls-1" x1="300" y1="8.51" x2="273.07" y2="11.44"/><line class="cls-1" x1="300" y1="10.39" x2="273.29" y2="12.94"/><path class="cls-1" d="M274.08,15.77c1.11,0.12,17.17,5.78,25.92,8.89"/></svg>