<svg id="TwinLines_Grain_Small_" data-name="TwinLines (Grain Small)" xmlns="http://www.w3.org/2000/svg" viewBox="0 0 300 150"><defs><style>.cls-1{fill:none;stroke:#1d1d1b;stroke-miterlimit:10;stroke-width:0.5px;}</style></defs><title>CP_TwinLinesGrainSmall</title><line class="cls-1" x1="167.5" y1="78.73" x2="192.36" y2="46.45"/><line class="cls-1" x1="170.43" y1="80.62" x2="195.73" y2="47.92"/><line class="cls-1" x1="200.05" y1="49.82" x2="178.37" y2="83.89"/><line class="cls-1" x1="26.04" y1="10.05" x2="27.99" y2="30.79"/><line class="cls-1" x1="31.68" y1="31.32" x2="30.83" y2="10.72"/><line class="cls-1" x1="31.68" y1="10.84" x2="33.17" y2="31.32"/><line class="cls-1" x1="35.73" y1="11.42" x2="38.62" y2="32.3"/><line class="cls-1" x1="13.2" y1="78.01" x2="37.18" y2="60.19"/><line class="cls-1" x1="39.5" y1="62.35" x2="11.76" y2="84.49"/><path class="cls-1" d="M57.53,78.36c1-2.67,24.17-32.91,24.17-32.91"/><line class="cls-1" x1="85.34" y1="47.09" x2="59.75" y2="79.63"/><line class="cls-1" x1="64.05" y1="83.23" x2="89.03" y2="48.76"/><line class="cls-1" x1="90.67" y1="49.51" x2="66.33" y2="84.49"/><line class="cls-1" x1="121.2" y1="12.33" x2="134.04" y2="2.4"/><line class="cls-1" x1="137.62" y1="3.69" x2="123.3" y2="14.89"/><line class="cls-1" x1="139.15" y1="4.24" x2="123.99" y2="15.73"/><line class="cls-1" x1="162.83" y1="77.49" x2="153.94" y2="45"/><line class="cls-1" x1="158.39" y1="41.62" x2="169.26" y2="76.45"/><line class="cls-1" x1="138.73" y1="29.19" x2="172.79" y2="23.61"/><line class="cls-1" x1="141.43" y1="32.3" x2="173.19" y2="26.4"/><line class="cls-1" x1="152.4" y1="120.46" x2="98.81" y2="100.77"/><line class="cls-1" x1="99.82" y1="99.54" x2="154.95" y2="116.74"/><line class="cls-1" x1="101.96" y1="96.95" x2="158.39" y2="111.72"/><line class="cls-1" x1="31.26" y1="135.69" x2="45.8" y2="121.93"/><line class="cls-1" x1="49.77" y1="122.2" x2="33.96" y2="136.66"/><line class="cls-1" x1="245.5" y1="38.86" x2="246.5" y2="55.99"/><line class="cls-1" x1="247.17" y1="38.91" x2="251.33" y2="55.99"/><line class="cls-1" x1="248.86" y1="38.86" x2="254.5" y2="55.99"/><line class="cls-1" x1="87.44" y1="10.84" x2="86.85" y2="24.89"/><line class="cls-1" x1="90.67" y1="9.29" x2="89.03" y2="26.4"/><line class="cls-1" x1="92.63" y1="8.61" x2="99.84" y2="28.53"/><line class="cls-1" x1="93.86" y1="8.08" x2="103.38" y2="27.52"/><line class="cls-1" x1="206.49" y1="9.99" x2="213.5" y2="0.19"/><line class="cls-1" x1="217.33" y1="0.19" x2="214.18" y2="11.19"/><line class="cls-1" x1="235.44" y1="106.84" x2="253.07" y2="91.69"/><line class="cls-1" x1="261.36" y1="92.91" x2="236.73" y2="110.62"/><line class="cls-1" x1="238.05" y1="114.5" x2="263.43" y2="96.59"/><line class="cls-1" x1="190.72" y1="103.09" x2="224.75" y2="124.98"/><line class="cls-1" x1="189.21" y1="107.84" x2="211.62" y2="129.48"/><line class="cls-1" x1="187.05" y1="111.91" x2="207.74" y2="130.75"/></svg>