<svg id="Texture_HighlyPorous" xmlns="http://www.w3.org/2000/svg" viewBox="0 0 650 50"><defs><style>.cls-1{fill:#fff;stroke:#000;stroke-miterlimit:10;}</style></defs><title>CP_HighlyPorous</title><circle class="cls-1" cx="335.33" cy="40" r="6.67"/><circle class="cls-1" cx="207.59" cy="40.33" r="6.67"/><circle class="cls-1" cx="149.26" cy="41.33" r="6.67"/><circle class="cls-1" cx="433.26" cy="34.73" r="5.09"/><circle class="cls-1" cx="277.91" cy="19" r="5.09"/><circle class="cls-1" cx="210.09" cy="18" r="5.09"/><circle class="cls-1" cx="549.33" cy="12.67" r="6.67"/><circle class="cls-1" cx="404.34" cy="20.58" r="6.67"/><circle class="cls-1" cx="297.33" cy="40" r="6.67"/><circle class="cls-1" cx="361" cy="18" r="6.67"/><circle class="cls-1" cx="642" cy="39.91" r="5.09" transform="translate(554.38 677.16) rotate(-85.73)"/><circle class="cls-1" cx="514" cy="41.09" r="5.09"/><circle class="cls-1" cx="478" cy="39.33" r="5.09"/><circle class="cls-1" cx="87.59" cy="40.31" r="5.09"/><circle class="cls-1" cx="51.26" cy="42.31" r="6.67"/><circle class="cls-1" cx="116.01" cy="22.91" r="6.67"/><circle class="cls-1" cx="241.93" cy="42.98" r="6.67"/><circle class="cls-1" cx="69.59" cy="11.31" r="5.09"/><circle class="cls-1" cx="170.59" cy="21.31" r="6.67"/><circle class="cls-1" cx="243.59" cy="12.65" r="6.67"/><circle class="cls-1" cx="607.59" cy="29.31" r="6.67"/><circle class="cls-1" cx="576.67" cy="32" r="6.67"/><circle class="cls-1" cx="629.73" cy="11.15" r="5.09"/><circle class="cls-1" cx="311.59" cy="17.31" r="6.67"/><circle class="cls-1" cx="20.59" cy="27.31" r="6.67"/><circle class="cls-1" cx="515.43" cy="13.07" r="5.09"/><circle class="cls-1" cx="468.59" cy="19.98" r="6.67"/><circle class="cls-1" cx="383" cy="35.91" r="5.09"/></svg>