<svg id="Texture_HighlyPorous" xmlns="http://www.w3.org/2000/svg" viewBox="0 0 500 150"><defs><style>.cls-1{fill:#fff;stroke:#000;stroke-miterlimit:10;}</style></defs><title>CP_HighlyPorous</title><circle class="cls-1" cx="64.72" cy="76.42" r="6.67"/><circle class="cls-1" cx="348.05" cy="58.09" r="6.67"/><circle class="cls-1" cx="328.39" cy="127.09" r="6.67"/><circle class="cls-1" cx="207.05" cy="49.09" r="6.67"/><circle class="cls-1" cx="122.05" cy="113.09" r="6.67"/><circle class="cls-1" cx="252.05" cy="96.42" r="6.67"/><circle class="cls-1" cx="148.72" cy="52.09" r="6.67"/><circle class="cls-1" cx="195.39" cy="99.09" r="6.67"/><circle class="cls-1" cx="190.75" cy="68.33" r="5.09"/><circle class="cls-1" cx="432.72" cy="37.51" r="5.09"/><circle class="cls-1" cx="411.31" cy="135.49" r="5.09"/><circle class="cls-1" cx="318.71" cy="75.96" r="5.09"/><circle class="cls-1" cx="253.84" cy="124.81" r="5.09"/><circle class="cls-1" cx="353.05" cy="112.09" r="5.09"/><circle class="cls-1" cx="274.19" cy="78.25" r="5.09"/><circle class="cls-1" cx="299.05" cy="98.09" r="5.09"/><circle class="cls-1" cx="403.8" cy="23.35" r="6.67"/><circle class="cls-1" cx="280.72" cy="45.75" r="6.67"/><circle class="cls-1" cx="446.05" cy="85.09" r="6.67"/><circle class="cls-1" cx="345.46" cy="26.35" r="6.67"/><circle class="cls-1" cx="414.39" cy="70.09" r="6.67"/><circle class="cls-1" cx="197.81" cy="135.09" r="5.09"/><circle class="cls-1" cx="474.14" cy="115.09" r="5.09"/><circle class="cls-1" cx="470.94" cy="52.52" r="5.09"/><circle class="cls-1" cx="117.05" cy="76.42" r="6.67"/><circle class="cls-1" cx="22.05" cy="95.75" r="6.67"/><circle class="cls-1" cx="79.05" cy="109" r="5.09"/><circle class="cls-1" cx="87.05" cy="43.09" r="5.09"/><circle class="cls-1" cx="50.72" cy="45.09" r="6.67"/><circle class="cls-1" cx="115.46" cy="25.68" r="6.67"/><circle class="cls-1" cx="241.39" cy="45.75" r="6.67"/><circle class="cls-1" cx="38.05" cy="128.42" r="6.67"/><circle class="cls-1" cx="139.55" cy="83.59" r="5.09"/><circle class="cls-1" cx="69.05" cy="14.09" r="5.09"/><circle class="cls-1" cx="170.05" cy="24.09" r="6.67"/><circle class="cls-1" cx="243.05" cy="15.42" r="6.67"/><circle class="cls-1" cx="154.05" cy="135.42" r="6.67"/><circle class="cls-1" cx="466.05" cy="141.09" r="6.67"/><circle class="cls-1" cx="311.05" cy="20.09" r="6.67"/><circle class="cls-1" cx="489.05" cy="73.42" r="6.67"/><circle class="cls-1" cx="93.96" cy="141.09" r="5.09"/><circle class="cls-1" cx="160.05" cy="109" r="5.09"/><circle class="cls-1" cx="20.05" cy="30.09" r="6.67"/><circle class="cls-1" cx="375.05" cy="131.42" r="6.67"/><circle class="cls-1" cx="406.05" cy="101.09" r="6.67"/><circle class="cls-1" cx="468.05" cy="22.75" r="6.67"/><circle class="cls-1" cx="225.39" cy="75.09" r="6.67"/><circle class="cls-1" cx="358.05" cy="82.42" r="6.67"/><circle class="cls-1" cx="294.14" cy="131.09" r="5.09"/><circle class="cls-1" cx="379.05" cy="53" r="5.09"/></svg>