<svg id="Texture_HighlyPorous" xmlns="http://www.w3.org/2000/svg" viewBox="0 0 650 100"><defs><style>.cls-1{fill:#fff;stroke:#000;stroke-miterlimit:10;}.cls-2{fill:none;}</style></defs><title>CP_HighlyPorous</title><circle class="cls-1" cx="62.67" cy="74.08" r="6.67"/><circle class="cls-1" cx="346" cy="55.75" r="6.67"/><circle class="cls-1" cx="205" cy="46.75" r="6.67"/><circle class="cls-1" cx="246" cy="88.5" r="6.67"/><circle class="cls-1" cx="146.67" cy="49.75" r="6.67"/><circle class="cls-1" cx="172.67" cy="87.17" r="6.67"/><circle class="cls-1" cx="188.7" cy="65.99" r="5.09"/><circle class="cls-1" cx="430.67" cy="35.17" r="5.09"/><circle class="cls-1" cx="318.09" cy="59.84" r="5.09"/><circle class="cls-1" cx="272.14" cy="75.91" r="5.09"/><circle class="cls-1" cx="299.33" cy="89.84" r="5.09"/><circle class="cls-1" cx="542.75" cy="30.01" r="6.67"/><circle class="cls-1" cx="519.08" cy="87.01" r="6.67"/><circle class="cls-1" cx="401.75" cy="21.01" r="6.67"/><circle class="cls-1" cx="278.67" cy="43.41" r="6.67"/><circle class="cls-1" cx="444" cy="82.75" r="6.67"/><circle class="cls-1" cx="343.41" cy="24.01" r="6.67"/><circle class="cls-1" cx="412.33" cy="67.75" r="6.67"/><circle class="cls-1" cx="621.01" cy="54.76" r="5.09"/><circle class="cls-1" cx="632" cy="87.17" r="5.09"/><circle class="cls-1" cx="513.4" cy="47.89" r="5.09"/><circle class="cls-1" cx="554.58" cy="80.5" r="5.09"/><circle class="cls-1" cx="468.89" cy="50.18" r="5.09"/><circle class="cls-1" cx="115" cy="74.08" r="6.67"/><circle class="cls-1" cx="18.33" cy="77.84" r="6.67"/><circle class="cls-1" cx="85" cy="40.75" r="5.09"/><circle class="cls-1" cx="48.67" cy="42.75" r="6.67"/><circle class="cls-1" cx="113.41" cy="23.34" r="6.67"/><circle class="cls-1" cx="239.33" cy="43.41" r="6.67"/><circle class="cls-1" cx="137.5" cy="81.25" r="5.09"/><circle class="cls-1" cx="67" cy="11.75" r="5.09"/><circle class="cls-1" cx="168" cy="21.75" r="6.67"/><circle class="cls-1" cx="241" cy="13.08" r="6.67"/><circle class="cls-1" cx="605" cy="29.75" r="6.67"/><circle class="cls-1" cx="576" cy="50.08" r="6.67"/><circle class="cls-1" cx="597" cy="74.75" r="5.09"/><circle class="cls-1" cx="627.14" cy="11.58" r="5.09"/><circle class="cls-1" cx="309" cy="17.75" r="6.67"/><circle class="cls-1" cx="491" cy="68.08" r="6.67"/><circle class="cls-1" cx="18" cy="27.75" r="6.67"/><circle class="cls-1" cx="394.67" cy="90.5" r="6.67"/><circle class="cls-1" cx="512.83" cy="13.5" r="5.09"/><circle class="cls-1" cx="466" cy="20.41" r="6.67"/><circle class="cls-1" cx="223.33" cy="72.75" r="6.67"/><circle class="cls-1" cx="356" cy="80.08" r="6.67"/><circle class="cls-1" cx="377" cy="50.66" r="5.09"/><rect class="cls-2" y="0.75" width="650" height="99.67"/></svg>